<?xml version="1.0" encoding="UTF-8" standalone="no"?>
<!DOCTYPE svg PUBLIC "-//W3C//DTD SVG 1.1//EN" "http://www.w3.org/Graphics/SVG/1.1/DTD/svg11.dtd">
<svg width="100%" height="100%" viewBox="0 0 420 420" version="1.1" xmlns="http://www.w3.org/2000/svg" xmlns:xlink="http://www.w3.org/1999/xlink" xml:space="preserve" xmlns:serif="http://www.serif.com/" style="fill-rule:evenodd;clip-rule:evenodd;stroke-linejoin:round;stroke-miterlimit:2;">
    <rect id="boby" x="0.198" y="0.033" width="419.528" height="419.528" style="fill:none;"/>
    <g>
        <g>
            <path d="M18.869,203.157C18.867,203.132 18.865,203.103 18.862,203.077C18.758,201.999 18.263,197.865 18.588,194.436C18.747,192.766 19.115,191.253 19.73,190.214C21.347,187.477 24.094,185.927 26.942,184.493C29.315,183.298 31.77,182.202 33.3,180.109C35.219,177.483 35.823,174.257 36.58,171.125C37.45,167.527 38.505,164.046 41.215,161.393C53.122,149.733 78.061,143.286 93.97,139.453C97.495,138.604 102.202,137.23 106.729,136.746C109.945,136.402 113.073,136.514 115.691,137.472C119.67,138.927 121.879,142.343 123.917,145.797C125.597,148.644 127.101,151.549 130.067,152.627C130.845,152.91 131.247,153.772 130.964,154.55C130.681,155.328 129.82,155.73 129.042,155.447C125.427,154.132 123.38,150.79 121.333,147.322C119.645,144.461 117.956,141.495 114.66,140.289C112.438,139.476 109.778,139.437 107.048,139.729C102.656,140.199 98.092,141.546 94.672,142.37C79.205,146.096 54.891,152.2 43.314,163.536C41.018,165.784 40.233,168.782 39.496,171.83C38.646,175.345 37.876,178.932 35.722,181.879C33.915,184.352 31.095,185.761 28.291,187.172C25.963,188.345 23.634,189.503 22.312,191.74C21.716,192.749 21.546,194.397 21.492,196.078C21.401,198.941 21.764,201.921 21.848,202.789C21.893,203.254 21.833,203.531 21.817,203.586C21.604,204.362 21.056,204.567 20.731,204.648C19.927,204.847 19.113,204.357 18.913,203.554C18.88,203.421 18.866,203.287 18.869,203.157ZM19.098,202.395C19.298,202.078 19.615,201.834 20.007,201.736C19.697,201.813 19.355,201.985 19.098,202.395Z"/>
            <path d="M18.891,203.446C18.75,202.63 19.299,201.854 20.115,201.714C20.931,201.573 21.707,202.122 21.847,202.938C22.439,206.378 24.937,207.907 26.386,209.283C31.624,214.254 37.728,218.263 43.209,222.96C43.837,223.499 43.91,224.447 43.371,225.076C42.833,225.704 41.885,225.777 41.256,225.238C35.738,220.508 29.596,216.465 24.321,211.459C22.523,209.752 19.625,207.715 18.891,203.446Z"/>
            <path d="M127.233,154.825C126.486,154.469 126.169,153.572 126.526,152.825C126.883,152.078 127.779,151.762 128.526,152.119C130.661,153.138 132.815,153.034 134.97,152.72C137.488,152.353 140.013,151.704 142.528,151.71C145.728,151.718 148.902,152.99 151.811,154.182C163.736,159.069 197.386,178.583 201.092,179.506C201.896,179.706 202.385,180.521 202.185,181.324C201.985,182.128 201.171,182.618 200.367,182.417C196.632,181.487 162.691,161.883 150.673,156.958C148.113,155.909 145.337,154.717 142.521,154.71C140.151,154.704 137.775,155.343 135.403,155.689C132.668,156.087 129.942,156.12 127.233,154.825Z"/>
            <path d="M201.094,183.261C201.137,183.292 201.179,183.321 201.201,183.335C201.602,183.603 202.014,183.853 202.413,184.123C203.46,184.831 204.584,185.436 205.681,186.062C207.226,186.944 208.967,188.191 210.8,189.138C212.354,189.941 213.971,190.551 215.588,190.285C217.033,190.047 218.287,189.089 219.561,188.235C221.267,187.091 222.999,186.097 224.913,186.071C226.207,186.054 227.572,186.463 228.906,187.092C230.613,187.896 232.278,189.062 233.641,189.831C240.376,193.631 246.904,197.764 253.038,202.486C276.152,220.279 298.564,238.042 324.696,251.321C336.383,257.26 356.625,262.92 373.298,257.543C374.086,257.289 374.932,257.723 375.186,258.51C375.441,259.298 375.007,260.144 374.219,260.398C356.769,266.026 335.569,260.211 323.337,253.996C297.037,240.631 274.47,222.77 251.208,204.863C245.187,200.228 238.777,196.174 232.167,192.443C231.062,191.82 229.755,190.925 228.388,190.191C227.249,189.579 226.074,189.056 224.954,189.071C223.603,189.089 222.435,189.92 221.231,190.727C219.595,191.823 217.93,192.94 216.074,193.245C214.256,193.544 212.419,193.145 210.64,192.381C208.327,191.388 206.112,189.762 204.195,188.668C203.032,188.005 201.843,187.359 200.733,186.608C200.338,186.341 199.93,186.094 199.533,185.829C199.371,185.721 198.994,185.445 198.887,185.337C198.754,185.203 198.674,185.079 198.625,184.992C198.276,184.37 198.437,183.86 198.615,183.533C198.767,183.254 199.002,183.004 199.383,182.854C199.53,182.796 199.868,182.653 200.412,182.821C200.685,182.905 200.917,183.061 201.094,183.261ZM199.861,185.75C199.75,185.742 199.637,185.721 199.526,185.687C199.653,185.726 199.765,185.744 199.861,185.75Z"/>
            <path d="M200.26,184.009C200.637,184.113 200.513,179.85 201.816,174.171C203.315,167.637 207.364,161.893 214.459,161.305C224.721,160.454 236.846,167.679 237.362,178.691C237.47,180.997 237.272,183.276 236.868,185.545C236.802,185.919 236.718,187.486 236.37,187.756C236.107,187.959 235.058,187.519 234.798,187.447C233.04,186.964 231.854,186.413 231.243,184.673C231.055,184.134 231.616,182.787 231.681,182.237C231.864,180.703 231.797,179.13 231.469,177.619C230.156,171.575 222.39,164.854 215.902,167.016C210.642,168.769 207.446,174.717 205.907,179.664C205.34,181.487 204.985,183.38 204.675,185.263C204.639,185.481 204.612,186.835 204.327,186.935C204.251,186.961 200.822,184.35 200.26,184.009Z"/>
            <path d="M198.968,183.247C198.997,183.035 199.045,182.665 199.078,182.332C199.252,180.578 199.514,177.494 200.354,173.835C202,166.662 206.546,160.456 214.335,159.81C225.366,158.895 238.306,166.784 238.861,178.621C238.974,181.038 238.768,183.428 238.345,185.808C238.285,186.147 238.186,187.349 237.957,187.974C237.787,188.441 237.524,188.759 237.288,188.942C237.02,189.15 236.616,189.322 236.091,189.308C235.572,189.295 234.663,188.966 234.401,188.894C232.102,188.262 230.626,187.446 229.828,185.169C229.707,184.824 229.668,184.326 229.763,183.762C229.864,183.172 230.148,182.429 230.192,182.059C230.355,180.69 230.296,179.286 230.003,177.938C229.296,174.681 226.47,171.231 223.089,169.391C220.956,168.23 218.583,167.704 216.376,168.439C211.56,170.044 208.748,175.58 207.339,180.109C206.792,181.867 206.454,183.692 206.155,185.507C206.12,185.716 206.056,186.791 205.871,187.277C205.629,187.913 205.182,188.224 204.823,188.35C204.741,188.379 204.125,188.61 203.383,188.12C202.775,187.718 199.983,185.595 199.483,185.292C198.842,184.904 198.586,184.103 198.882,183.415C198.908,183.356 198.936,183.3 198.968,183.247ZM200.199,182.51C200.351,182.504 200.506,182.521 200.66,182.563C200.503,182.52 200.35,182.503 200.199,182.51ZM201.976,183.379C202.378,183.668 202.853,184.013 203.308,184.345C203.604,182.618 203.954,180.89 204.475,179.218C206.143,173.854 209.723,167.494 215.428,165.593C218.412,164.598 221.638,165.185 224.523,166.756C228.671,169.014 232.067,173.305 232.935,177.301C233.298,178.974 233.373,180.716 233.171,182.414C233.125,182.797 232.789,184.07 232.718,184.333C233.163,185.408 234.032,185.681 235.196,186.001C235.214,186.006 235.242,186.014 235.276,186.025C235.325,185.701 235.372,185.391 235.391,185.283C235.775,183.123 235.967,180.955 235.864,178.761C235.387,168.573 224.076,162.013 214.583,162.8C208.182,163.33 204.63,168.611 203.278,174.506C202.476,178.003 202.229,180.951 202.063,182.629C202.036,182.906 202.006,183.157 201.976,183.379Z"/>
            <path d="M204.587,185.132C204.946,184.915 205.306,184.699 205.67,184.491C206.608,183.954 207.58,183.462 208.486,182.872C208.548,182.831 208.652,182.759 208.727,182.705C208.978,180.817 209.008,178.929 209.429,177.053C210.579,171.928 213.708,166.875 219.128,165.585C220.651,165.222 222.232,165.153 223.79,165.249C224.616,165.3 225.246,166.013 225.194,166.839C225.143,167.665 224.431,168.295 223.605,168.243C222.341,168.165 221.058,168.209 219.822,168.503C215.545,169.522 213.264,173.665 212.356,177.71C211.934,179.589 211.935,181.483 211.663,183.374C211.536,184.262 210.811,184.938 210.122,185.387C209.167,186.008 208.147,186.53 207.159,187.095C206.803,187.298 206.452,187.509 206.102,187.722C206.054,187.751 205.959,187.797 205.861,187.841C205.434,188.248 204.788,188.381 204.216,188.127C203.642,187.872 203.452,187.472 203.359,187.179C203.236,186.793 203.251,186.386 203.481,185.972C203.56,185.831 203.678,185.671 203.858,185.522C203.975,185.426 204.456,185.194 204.587,185.132ZM206.241,186.262C206.159,185.943 205.946,185.614 205.434,185.386C205.828,185.561 206.109,185.885 206.241,186.262Z"/>
            <path d="M211.918,182.614C211.978,182.667 212.05,182.73 212.067,182.745C212.534,183.176 213.078,183.521 213.623,183.843C215.29,184.83 217.174,185.502 218.987,186.167C219.643,186.408 220.543,186.915 221.263,186.891C222.091,186.864 222.784,187.514 222.811,188.342C222.838,189.169 222.188,189.863 221.36,189.89C220.297,189.924 218.921,189.339 217.953,188.983C215.971,188.256 213.918,187.504 212.095,186.425C211.37,185.995 210.654,185.524 210.033,184.951C209.943,184.867 209.533,184.496 209.383,184.259C209.097,183.809 209.088,183.373 209.151,183.067C209.315,182.256 210.108,181.731 210.919,181.896C211.356,181.985 211.71,182.256 211.918,182.614Z"/>
            <path d="M301.863,135.93C301.851,135.857 301.913,135.745 301.936,135.676" style="fill:none;"/>
            <path d="M202.22,168.39C202.339,168.12 202.883,166.887 202.98,166.714C203.943,164.992 205.147,163.362 206.504,161.93C211.823,156.316 219.42,155.135 226.642,157.125C231.095,158.352 235.632,160.469 238.909,163.8C242.602,167.554 244.356,172.788 244.634,177.967C244.741,179.965 244.682,181.959 244.43,183.945C244.394,184.226 244.399,184.92 244.307,185.423C244.208,185.964 243.988,186.385 243.766,186.629C243.479,186.946 243.061,187.221 242.581,187.431C242.164,187.613 241.689,187.746 241.361,187.878C239.941,188.451 239.191,188.362 237.777,188.948C237.012,189.265 236.134,188.902 235.817,188.137C235.5,187.372 235.864,186.494 236.629,186.177C238.053,185.587 238.808,185.673 240.238,185.096C240.509,184.987 240.879,184.879 241.234,184.741C241.271,184.727 241.317,184.707 241.362,184.686C241.387,184.343 241.431,183.749 241.454,183.567C241.683,181.76 241.735,179.945 241.638,178.128C241.399,173.668 239.951,169.136 236.77,165.904C233.858,162.944 229.802,161.107 225.845,160.017C219.7,158.323 213.208,159.216 208.681,163.994C207.495,165.246 206.441,166.672 205.599,168.178C205.485,168.381 205.064,169.49 204.777,169.974C204.461,170.505 204.055,170.744 203.841,170.826C203.067,171.121 202.2,170.732 201.905,169.958C201.693,169.401 201.835,168.795 202.22,168.39Z"/>
            <path d="M224.365,188.393C224.219,188.612 224.014,188.796 223.759,188.918C223.011,189.273 222.116,188.954 221.761,188.206C221.571,187.807 221.496,187.282 221.848,186.699C221.951,186.528 222.153,186.286 222.46,186.053C222.974,185.662 223.989,185.131 224.097,185.074C226.156,183.969 228.356,183.025 230.602,182.373C231.397,182.142 232.23,182.6 232.461,183.395C232.691,184.19 232.233,185.023 231.438,185.254C229.393,185.848 227.391,186.711 225.515,187.717C225.448,187.754 224.663,188.216 224.365,188.393ZM224.606,187.388C224.588,187.221 224.54,187.065 224.471,186.919C224.543,187.071 224.587,187.23 224.606,187.388Z"/>
            <path d="M242.282,187.076C241.621,186.578 241.489,185.637 241.987,184.976C242.485,184.315 243.426,184.182 244.088,184.681C245.419,185.685 274.275,206.662 282.951,212.742C302.95,226.756 328.191,246.293 351.707,252.941C356.728,254.36 361.66,254.823 366.819,253.963C371.084,253.252 376.705,251.092 381.65,250.645C385.017,250.341 388.09,250.823 390.409,252.707C391.972,253.977 393.224,255.893 393.944,258.731C394.148,259.534 393.662,260.35 392.859,260.554C392.057,260.758 391.24,260.272 391.037,259.469C390.511,257.397 389.659,255.962 388.517,255.035C386.779,253.623 384.444,253.405 381.92,253.633C377.048,254.073 371.514,256.222 367.312,256.922C361.707,257.856 356.347,257.37 350.891,255.828C327.08,249.096 301.479,229.389 281.23,215.199C272.535,209.106 243.616,188.083 242.282,187.076Z"/>
            <path d="M50.217,165.315C50.141,165.345 50.03,165.388 50.025,165.39C48.835,165.923 47.931,166.944 47.316,168.077C46.371,169.816 46.084,171.771 45.867,173.748C45.619,176.012 45.468,178.31 44.831,180.442C43.605,184.542 40.516,187.37 36.807,189.266C35.86,189.75 34.385,190.247 33.2,190.993C32.511,191.426 31.855,191.913 31.925,192.734C31.973,192.816 32.163,193.134 32.343,193.363C32.946,194.132 33.928,195.127 35.178,196.287C43.995,204.47 65.561,220.21 67.367,221.96C67.962,222.536 67.977,223.487 67.401,224.081C66.825,224.676 65.875,224.691 65.28,224.115C63.477,222.368 41.94,206.656 33.137,198.485C31.489,196.956 30.269,195.664 29.641,194.752C29.213,194.131 29.012,193.594 28.959,193.204C28.723,191.439 29.49,190.094 30.758,189.056C32.129,187.934 34.192,187.234 35.442,186.595C38.418,185.073 40.973,182.873 41.957,179.583C42.543,177.621 42.656,175.504 42.885,173.421C43.145,171.053 43.548,168.728 44.68,166.645C45.605,164.942 47.009,163.454 48.8,162.652C48.829,162.639 49.653,162.351 49.826,162.34C50.292,162.31 50.599,162.477 50.776,162.596C51.131,162.837 51.33,163.161 51.408,163.543C51.573,164.354 51.048,165.146 50.237,165.312C50.23,165.313 50.224,165.314 50.217,165.315Z"/>
            <path d="M66.347,227.644C66.771,222.902 67.837,218.07 69.283,213.401C69.961,211.211 70.873,208.728 72.549,207.089C77.474,202.27 86.975,203.54 92.018,207.425C97.345,211.529 99.632,218.716 99.618,225.204C99.615,226.486 99.55,234.21 98.587,235.084C97.349,236.208 94.002,233.121 93.882,231.915C93.662,229.699 94.885,226.484 94.717,223.858C94.296,217.249 88.541,208.539 80.756,210.038C75.197,211.108 72.947,219.463 72.092,224.056C71.248,228.592 71.79,232.211 68.145,229.288C67.522,228.788 66.808,228.311 66.347,227.644Z"/>
            <path d="M64.853,227.51C65.286,222.666 66.373,217.728 67.85,212.958C68.598,210.541 69.65,207.826 71.5,206.017C73.72,203.844 76.753,202.737 79.972,202.51C84.624,202.182 89.648,203.705 92.934,206.237C98.626,210.622 101.133,218.275 101.118,225.208C101.115,226.269 101.06,231.596 100.533,234.148C100.317,235.193 99.921,235.899 99.595,236.195C98.836,236.884 97.704,237.028 96.464,236.505C95.244,235.99 93.864,234.783 93.117,233.742C92.665,233.113 92.433,232.503 92.39,232.064C92.268,230.837 92.52,229.331 92.804,227.771C93.039,226.484 93.297,225.152 93.22,223.953C93.028,220.944 91.613,217.46 89.369,214.895C87.255,212.48 84.378,210.868 81.039,211.511C79.217,211.861 77.877,213.227 76.822,214.909C74.994,217.823 74.052,221.721 73.567,224.331C73.123,226.711 73.015,228.846 72.569,230.008C72.196,230.977 71.596,231.523 70.881,231.74C70.122,231.97 68.899,231.815 67.207,230.458C66.473,229.869 65.655,229.282 65.113,228.496C64.914,228.208 64.822,227.859 64.853,227.51ZM69.832,228.624C69.914,228.314 70.017,227.89 70.072,227.52C70.229,226.46 70.36,225.163 70.617,223.782C71.158,220.879 72.247,216.557 74.28,213.315C75.8,210.892 77.847,209.07 80.472,208.565C84.919,207.709 88.811,209.703 91.627,212.92C94.311,215.987 95.984,220.163 96.214,223.762C96.305,225.189 96.035,226.778 95.756,228.309C95.533,229.529 95.292,230.704 95.367,231.676C95.485,231.827 96.456,233.057 97.214,233.523C97.307,233.579 97.426,233.636 97.54,233.684C97.613,233.376 97.7,232.969 97.747,232.611C98.088,230.027 98.116,226.075 98.118,225.201C98.131,219.158 96.065,212.436 91.103,208.613C88.337,206.482 84.1,205.226 80.183,205.503C77.69,205.679 75.318,206.478 73.598,208.161C72.095,209.631 71.324,211.881 70.716,213.845C69.363,218.213 68.348,222.725 67.899,227.168C68.256,227.524 68.698,227.808 69.084,228.117C69.33,228.315 69.61,228.493 69.832,228.624Z"/>
            <path d="M72.108,229.961L72.444,230.183C72.604,230.147 72.764,230.041 72.931,229.956C73.447,229.695 73.947,229.374 74.376,229.181C74.575,229.091 75.494,228.833 75.961,228.705C76.032,228.392 76.033,227.988 76.055,227.585C76.102,226.69 76.099,225.78 76.18,225.211C76.49,223.041 76.759,220.504 77.44,218.167C78.2,215.56 79.473,213.207 81.693,211.686C82.555,211.095 83.828,210.432 85.078,210.205C86.137,210.012 87.18,210.123 88.061,210.643C88.774,211.063 89.012,211.983 88.592,212.697C88.171,213.41 87.251,213.647 86.538,213.227C86.162,213.006 85.696,213.113 85.248,213.244C84.547,213.448 83.874,213.828 83.389,214.16C81.746,215.286 80.882,217.077 80.32,219.006C79.679,221.205 79.441,223.594 79.15,225.635C79.06,226.26 79.096,227.336 79.013,228.296C78.932,229.224 78.724,230.064 78.396,230.598C78.251,230.834 77.958,231.143 77.474,231.362C76.989,231.582 75.689,231.904 75.571,231.933C75.082,232.16 74.503,232.55 73.916,232.809C73.261,233.097 72.592,233.243 71.967,233.175C71.784,233.155 71.464,233.072 71.11,232.886C70.632,232.636 70.012,232.174 69.746,231.862C69.201,231.221 69.265,230.566 69.398,230.199C69.68,229.42 70.541,229.017 71.319,229.299C71.666,229.424 71.938,229.664 72.108,229.961Z"/>
            <path d="M72.395,204.689C72.404,204.683 72.414,204.676 72.423,204.67C73.223,204.155 76.982,201.594 77.691,201.32C83.387,199.118 90.434,199.156 95.813,202.229C104.439,207.158 106.971,216.201 107.355,225.434C107.412,226.809 107.883,229.622 107.671,231.746C107.546,232.991 107.172,234.036 106.573,234.707C105.705,235.681 104.509,236.219 103.177,236.507C101.675,236.831 99.981,236.803 98.695,237.118C97.891,237.316 97.078,236.823 96.881,236.02C96.683,235.216 97.176,234.402 97.98,234.205C99.102,233.929 100.519,233.892 101.871,233.694C102.813,233.556 103.74,233.376 104.335,232.709C104.469,232.56 104.527,232.338 104.584,232.092C104.683,231.665 104.72,231.174 104.728,230.659C104.757,228.803 104.404,226.679 104.357,225.558C104.017,217.356 101.989,209.212 94.325,204.834C89.71,202.197 83.66,202.229 78.773,204.118C78.133,204.365 74.77,206.728 74.048,207.193C73.534,207.523 73.143,207.516 73.097,207.516C72.269,207.518 71.595,206.847 71.594,206.02C71.592,205.443 71.917,204.941 72.395,204.689Z"/>
            <path d="M28.757,201.886C28.301,201.196 28.491,200.264 29.181,199.808C29.872,199.351 30.803,199.541 31.26,200.232C33.37,203.425 38.638,206.915 41.548,209.415C50.302,216.932 59.605,223.555 69.223,229.915C71.525,231.437 74.531,234.052 77.656,235.783C79.472,236.789 81.316,237.513 83.068,237.33C85.808,237.043 88.569,234.575 90.231,232.499C90.501,232.161 90.721,231.673 90.982,231.245C91.275,230.765 91.608,230.338 91.984,230.037C92.629,229.518 93.574,229.621 94.092,230.267C94.611,230.912 94.508,231.857 93.863,232.376C93.679,232.523 93.558,232.776 93.418,233.019C93.14,233.503 92.871,234.001 92.573,234.373C90.469,237.003 86.852,239.95 83.38,240.313C81.069,240.555 78.599,239.735 76.202,238.407C73.006,236.637 69.923,233.974 67.569,232.417C57.846,225.988 48.443,219.29 39.594,211.691C36.51,209.042 30.994,205.27 28.757,201.886Z"/>
            <path d="M105.778,235.505C105.146,235.33 104.681,234.752 104.679,234.065C104.675,233.237 105.345,232.562 106.173,232.559C106.343,232.558 106.583,232.585 106.872,232.703C107.149,232.815 107.657,233.125 108.294,233.6C110.774,235.45 116.025,240.128 116.647,240.63C126.233,248.371 135.914,256.023 145.703,263.506C162.637,276.452 179.898,289.173 198.393,299.822C207.122,304.848 216.499,310.507 226.525,312.426C236.499,314.334 254.896,313.991 269.513,308.549C270.289,308.26 271.154,308.655 271.443,309.431C271.731,310.207 271.336,311.072 270.56,311.36C255.396,317.007 236.309,317.352 225.961,315.372C215.612,313.392 205.907,307.61 196.896,302.422C178.288,291.708 160.919,278.915 143.881,265.89C134.071,258.391 124.369,250.722 114.762,242.964C114.077,242.411 107.668,236.672 105.827,235.534C105.812,235.525 105.794,235.514 105.778,235.505Z"/>
            <path d="M97.719,234.417C97.893,234.688 98.234,234.925 98.559,235.178C99.192,235.671 99.877,236.115 100.303,236.467C102.69,238.44 105.098,240.38 107.553,242.268C114.379,247.516 121.254,252.705 128.211,257.778C149.189,273.076 169.475,289.533 191.204,303.757C203.425,311.757 217.61,320.191 232.571,320.908C242.284,321.373 251.702,316.664 260.396,312.932C268.161,309.599 356.222,266.431 373.095,258.096C373.837,257.73 374.737,258.034 375.104,258.777C375.47,259.519 375.165,260.419 374.423,260.786C357.529,269.131 269.354,312.351 261.579,315.689C252.482,319.594 242.591,324.391 232.427,323.904C216.942,323.162 202.211,314.548 189.561,306.267C167.79,292.015 147.463,275.529 126.443,260.202C119.466,255.114 112.571,249.91 105.725,244.646C103.241,242.737 100.806,240.775 98.392,238.779C97.886,238.361 97.011,237.814 96.301,237.208C95.619,236.626 95.083,235.972 94.842,235.343C94.799,235.23 94.723,234.869 94.738,234.649C94.757,234.375 94.845,234.155 94.934,233.999C95.218,233.501 95.649,233.263 96.177,233.24C96.421,233.23 96.844,233.229 97.3,233.67C97.517,233.88 97.658,234.142 97.719,234.417ZM96.342,236.244C95.938,236.267 95.526,236.128 95.213,235.825C95.645,236.243 96.05,236.279 96.342,236.244Z"/>
            <path d="M74.189,196.463C74.719,197.098 74.634,198.045 73.998,198.575C73.363,199.106 72.416,199.02 71.886,198.385C69.2,195.166 67.72,189.14 65.953,185.319C64.436,182.039 60.7,175.307 59.109,169.798C58.343,167.143 58.095,164.733 58.608,162.994C59.042,161.523 60.12,160.386 61.513,159.518C63.18,158.478 65.318,157.833 66.787,157.218C74.165,154.127 81.569,151.465 89.154,148.903C91.811,148.005 101.17,144.01 107.88,142.399C109.726,141.956 111.385,141.692 112.686,141.687C113.792,141.683 114.687,141.876 115.324,142.215C118.485,143.895 120.791,147.707 122.506,152.268C124.856,158.52 126.185,166.175 127.897,170.561C128.198,171.332 127.816,172.203 127.045,172.504C126.274,172.805 125.403,172.423 125.102,171.652C123.387,167.257 122.053,159.588 119.698,153.324C118.275,149.541 116.537,146.258 113.915,144.864C113.624,144.709 113.203,144.685 112.697,144.687C111.582,144.691 110.162,144.936 108.58,145.316C101.962,146.905 92.735,150.859 90.114,151.745C82.597,154.284 75.258,156.922 67.947,159.985C66.802,160.464 65.217,160.948 63.819,161.66C62.772,162.193 61.789,162.816 61.485,163.843C60.951,165.653 61.687,168.365 62.749,171.254C64.524,176.085 67.404,181.31 68.676,184.059C70.348,187.674 71.648,193.418 74.189,196.463Z"/>
            <path d="M124.909,152.878C124.545,152.577 124.329,152.11 124.368,151.604C124.433,150.779 125.156,150.161 125.981,150.226C126.096,150.235 126.535,150.266 126.986,150.708C127.326,151.042 128.692,152.695 128.908,152.924C130.19,154.282 131.528,155.301 133.396,155.702C135.65,156.185 137.949,156.08 140.233,156.043C142.791,156.002 145.331,156.041 147.792,156.816C158.231,160.103 166.157,165.239 177.506,171.138C185.632,175.362 194.676,180.48 202.879,184.553C203.62,184.921 203.923,185.822 203.555,186.563C203.187,187.305 202.286,187.608 201.544,187.24C193.326,183.159 184.264,178.032 176.122,173.8C164.952,167.994 157.165,162.912 146.891,159.677C144.74,159 142.517,159.007 140.281,159.043C137.771,159.084 135.245,159.166 132.768,158.635C130.269,158.099 128.441,156.799 126.726,154.983C126.534,154.779 125.111,153.115 124.909,152.878Z"/>
            <path d="M75.746,188.898C75.737,188.9 75.73,188.902 75.73,188.902C75.73,188.902 77.304,188.364 77.371,188.342C78.612,187.936 79.854,187.531 81.098,187.135C84.595,186.022 88.098,184.929 91.604,183.845C102.023,180.623 112.466,177.489 122.86,174.189C123.649,173.938 124.493,174.375 124.744,175.164C124.994,175.954 124.557,176.798 123.768,177.048C113.366,180.351 102.917,183.487 92.491,186.711C88.993,187.793 85.497,188.883 82.008,189.994C80.772,190.387 79.538,190.789 78.305,191.193C78.239,191.215 76.943,191.66 76.684,191.746C75.293,192.213 74.695,190.654 74.693,190.642C74.534,189.869 75.001,189.112 75.746,188.898ZM75.788,188.886C75.811,188.88 75.835,188.875 75.859,188.87C76.364,188.766 76.862,188.929 77.206,189.262C76.922,188.954 76.472,188.71 75.788,188.886Z"/>
            <path d="M79.748,197.244C79.504,197.407 79.21,197.5 78.895,197.496C78.067,197.484 77.405,196.802 77.417,195.974C77.421,195.686 77.501,195.044 78.253,194.626C78.673,194.392 80.763,193.84 80.917,193.793C84.088,192.818 87.261,191.852 90.433,190.883C102.817,187.101 115.239,183.461 127.668,179.835C128.463,179.603 129.297,180.06 129.528,180.855C129.76,181.65 129.303,182.483 128.509,182.715C116.091,186.337 103.681,189.974 91.31,193.752C88.139,194.721 84.967,195.686 81.798,196.66C81.693,196.693 80.064,197.155 79.748,197.244ZM80.378,196.336C80.403,196.227 80.415,196.12 80.416,196.017C80.415,196.127 80.402,196.234 80.378,196.336Z"/>
            <path d="M95.692,199.168C94.908,199.434 94.056,199.013 93.79,198.228C93.525,197.444 93.946,196.592 94.73,196.327C108.038,191.821 121.848,187.861 135.509,184.3C136.31,184.091 137.13,184.572 137.339,185.373C137.548,186.174 137.067,186.994 136.266,187.203C122.674,190.746 108.933,194.685 95.692,199.168Z"/>
            <path d="M102.804,203.364C102.353,203.715 101.721,203.792 101.184,203.51C100.552,203.178 100.402,202.715 100.341,202.426C100.24,201.952 100.324,201.468 100.744,201.033C100.88,200.892 101.135,200.692 101.53,200.571C101.807,200.485 102.374,200.425 102.629,200.341C103.462,200.068 104.295,199.791 105.125,199.507C107.807,198.588 110.492,197.679 113.189,196.804C121.015,194.265 128.846,191.691 136.809,189.604C137.609,189.395 138.43,189.874 138.64,190.675C138.85,191.476 138.37,192.297 137.569,192.506C129.662,194.579 121.886,197.136 114.115,199.657C111.433,200.527 108.764,201.432 106.097,202.345C105.254,202.634 104.408,202.915 103.562,203.193C103.414,203.241 103.076,203.311 102.804,203.364Z"/>
            <path d="M106.718,208.314C106.165,208.771 105.346,208.777 104.785,208.293C104.406,207.966 104.254,207.568 104.259,207.13C104.262,206.859 104.327,206.488 104.652,206.125C104.739,206.028 104.922,205.861 105.202,205.712C105.515,205.545 106.148,205.296 106.217,205.268C107.079,204.926 107.956,204.618 108.828,204.301C111.537,203.315 114.255,202.35 116.976,201.397C124.482,198.768 132.011,196.21 139.556,193.696C140.341,193.434 141.192,193.859 141.453,194.645C141.715,195.43 141.29,196.28 140.504,196.542C132.974,199.051 125.46,201.605 117.967,204.229C115.258,205.178 112.552,206.139 109.853,207.12C109.009,207.427 108.159,207.725 107.324,208.057C107.288,208.071 106.904,208.235 106.718,208.314ZM107.242,207.411C107.365,206.864 107.186,206.402 106.743,206.02C107.156,206.376 107.328,206.909 107.242,207.411Z"/>
            <path d="M109.033,211.925C108.835,212.083 108.595,212.193 108.327,212.235C107.207,212.408 106.825,211.63 106.714,211.397C106.538,211.029 106.409,210.484 106.851,209.869C106.912,209.784 107.056,209.599 107.34,209.425C107.63,209.248 108.834,208.704 108.989,208.641C109.917,208.265 110.853,207.905 111.787,207.546C114.467,206.515 117.163,205.527 119.859,204.539C127.982,201.563 136.151,198.669 144.386,196.013C145.174,195.759 146.02,196.193 146.274,196.981C146.528,197.769 146.094,198.615 145.306,198.869C137.109,201.512 128.977,204.394 120.891,207.356C118.21,208.338 115.529,209.321 112.864,210.346C111.947,210.699 111.028,211.051 110.117,211.421C110.028,211.457 109.331,211.785 109.033,211.925ZM108.903,209.487C108.695,209.336 108.366,209.193 107.868,209.27C108.243,209.212 108.606,209.298 108.903,209.487Z"/>
            <path d="M109.807,216.621C108.981,216.677 108.265,216.051 108.209,215.225C108.153,214.399 108.778,213.683 109.604,213.628C112.701,213.418 118.314,210.342 121.276,209.221C130.119,205.873 138.909,202.304 147.955,199.53C148.746,199.287 149.586,199.732 149.829,200.524C150.072,201.315 149.626,202.155 148.835,202.398C139.85,205.153 131.121,208.702 122.338,212.026C119.169,213.226 113.12,216.397 109.807,216.621Z"/>
            <path d="M113.956,220.892C113.858,221.004 113.742,221.102 113.608,221.183C112.9,221.612 111.977,221.385 111.548,220.677C111.313,220.289 111.062,219.55 111.772,218.798C112.094,218.457 114.108,217.405 114.211,217.352C117.035,215.888 119.94,214.563 122.843,213.265C133.929,208.307 145.308,203.607 157.205,200.978C158.013,200.799 158.814,201.311 158.993,202.119C159.172,202.927 158.66,203.729 157.852,203.907C146.153,206.493 134.969,211.129 124.068,216.003C121.217,217.278 118.365,218.578 115.592,220.015C115.533,220.046 114.304,220.706 113.956,220.892ZM114.329,219.979C114.354,219.656 114.265,219.371 114.114,219.122C114.276,219.39 114.344,219.688 114.329,219.979Z"/>
            <path d="M116.406,225.234C116.008,225.649 115.388,225.816 114.812,225.608C114.296,225.422 114.034,225.071 113.9,224.691C113.796,224.397 113.745,224.019 113.944,223.571C113.998,223.451 114.124,223.186 114.486,222.91C114.698,222.749 115.28,222.389 116.361,221.791C117.439,221.194 118.527,220.614 119.622,220.048C123.003,218.299 126.419,216.629 129.887,215.059C140.552,210.229 151.704,206.083 163.227,203.813C164.04,203.653 164.829,204.182 164.989,204.995C165.149,205.807 164.62,206.596 163.807,206.756C152.51,208.982 141.58,213.057 131.124,217.792C127.704,219.34 124.335,220.988 121,222.713C119.93,223.266 118.867,223.832 117.814,224.415C117.162,224.776 116.622,225.102 116.406,225.234ZM116.747,223.732C116.63,223.323 116.359,222.977 115.83,222.786C116.282,222.949 116.608,223.307 116.747,223.732Z"/>
            <path d="M121.398,225.347C121.411,225.333 121.424,225.318 121.438,225.302C121.48,225.256 121.524,225.214 121.57,225.174C121.532,225.206 121.489,225.246 121.443,225.296C121.635,225.081 121.985,224.713 122.179,224.588C122.594,224.32 123.026,224.074 123.457,223.833C124.63,223.176 125.835,222.574 127.041,221.978C130.662,220.188 134.339,218.521 138.043,216.911C148.84,212.218 160.264,207.785 171.885,205.545C172.698,205.388 173.485,205.921 173.642,206.734C173.799,207.546 173.266,208.334 172.453,208.49C161.046,210.689 149.837,215.055 139.239,219.662C135.58,221.253 131.947,222.899 128.37,224.668C127.211,225.241 126.051,225.818 124.923,226.45C124.574,226.646 124.224,226.843 123.886,227.057L123.739,227.221C123.722,227.243 123.705,227.265 123.686,227.287C122.51,228.674 121.139,226.951 121.124,226.912C121.102,226.859 120.755,226.195 121.316,225.445C121.329,225.428 121.358,225.393 121.398,225.347ZM121.398,225.347C121.414,225.329 121.429,225.312 121.443,225.296C121.441,225.298 121.44,225.3 121.438,225.302C121.424,225.317 121.411,225.331 121.398,225.347Z"/>
            <path d="M130.374,230.121C130.219,230.271 130.03,230.39 129.813,230.464C128.493,230.913 127.98,229.857 127.902,229.691C127.762,229.391 127.521,228.702 128.184,228.008C128.285,227.902 129.127,227.373 129.465,227.187C130.216,226.776 130.986,226.395 131.754,226.018C134.117,224.857 136.513,223.767 138.908,222.676C145.745,219.561 152.682,216.667 159.739,214.088C163.237,212.81 170.159,210.16 176.585,208.593C181.102,207.491 185.392,206.96 188.22,207.646C191.763,208.505 194.521,211.314 196.844,213.952C200.727,218.362 207.712,228.241 210.652,233.448C211.059,234.168 210.804,235.084 210.083,235.491C209.362,235.898 208.446,235.643 208.039,234.923C205.176,229.852 198.375,220.23 194.592,215.935C192.66,213.74 190.46,211.276 187.513,210.561C185.027,209.958 181.266,210.539 177.296,211.507C170.991,213.045 164.201,215.652 160.769,216.906C153.784,219.458 146.918,222.323 140.152,225.406C137.783,226.485 135.413,227.563 133.077,228.71C132.349,229.068 131.619,229.428 130.907,229.818C130.8,229.877 130.55,230.02 130.374,230.121Z"/>
            <path d="M129.576,236.284C129.131,235.586 129.337,234.658 130.036,234.214C130.734,233.769 131.662,233.975 132.106,234.673C135.098,239.374 140.879,248.757 143.98,253.382C144.441,254.07 144.258,255.002 143.57,255.463C142.882,255.924 141.95,255.74 141.489,255.053C138.377,250.413 132.577,241 129.576,236.284Z"/>
            <path d="M147.683,260.897C147.258,260.765 146.896,260.446 146.726,259.998C146.474,259.337 146.687,258.904 146.824,258.668C147.079,258.226 147.491,257.906 148.15,257.911C148.296,257.912 148.488,257.933 148.708,258.018C148.876,258.082 149.296,258.375 149.483,258.496C149.834,258.724 150.201,258.925 150.566,259.128C151.612,259.709 152.69,260.229 153.78,260.724C157.131,262.246 160.519,263.715 163.956,265.033C174.588,269.112 185.591,272.547 196.613,275.397C216.837,280.627 237.378,281.497 258.139,282.566C270.897,283.223 283.648,284.48 296.416,284.899C297.243,284.926 297.893,285.62 297.866,286.448C297.839,287.275 297.145,287.925 296.318,287.898C283.531,287.478 270.761,286.22 257.984,285.562C237.022,284.483 216.283,283.582 195.862,278.302C184.731,275.424 173.619,271.953 162.881,267.834C159.389,266.494 155.946,265.002 152.54,263.455C151.376,262.927 150.225,262.371 149.108,261.749C148.682,261.513 148.256,261.277 147.847,261.011C147.813,260.989 147.749,260.944 147.683,260.897ZM149.627,259.408C149.624,259.27 149.598,259.11 149.53,258.931C149.589,259.088 149.621,259.249 149.627,259.408Z"/>
            <path d="M160.476,256.946C159.653,256.975 158.959,256.334 158.924,255.51C158.898,254.882 159.146,254.506 159.383,254.262C159.646,253.992 159.983,253.817 160.409,253.783C160.656,253.764 161.008,253.801 161.4,253.991C161.726,254.15 162.235,254.596 162.549,254.722C163.751,255.202 164.96,255.658 166.179,256.097C169.661,257.349 173.131,258.628 176.642,259.799C187.884,263.55 199.417,266.754 211.05,269.042C245.92,275.903 281.668,276.449 317.049,278.349C317.875,278.394 318.51,279.101 318.466,279.928C318.422,280.754 317.714,281.389 316.888,281.345C281.367,279.437 245.479,278.873 210.47,271.986C198.713,269.673 187.056,266.436 175.692,262.645C172.16,261.466 168.667,260.18 165.164,258.92C163.912,258.47 162.67,258.001 161.435,257.507C161.223,257.423 160.792,257.153 160.476,256.946Z"/>
            <path d="M215.881,240.476C215.558,240.258 215.319,239.915 215.244,239.501C215.096,238.687 215.636,237.905 216.451,237.757C216.577,237.734 217.128,237.626 217.729,238.108C218.081,238.39 219.551,239.857 219.693,239.977C221.674,241.648 223.975,242.922 226.272,244.099C235.514,248.838 245.424,252.42 255.372,255.366C277.318,261.864 303.881,265.033 326.714,267.743C334.005,268.609 341.619,268.7 348.847,269.928C349.663,270.067 350.213,270.842 350.074,271.658C349.936,272.474 349.16,273.024 348.344,272.885C341.165,271.665 333.602,271.582 326.36,270.722C303.367,267.993 276.621,264.786 254.52,258.242C244.395,255.244 234.31,251.592 224.903,246.769C222.406,245.488 219.914,244.087 217.759,242.271C217.631,242.162 216.108,240.695 215.881,240.476Z"/>
            <path d="M214.712,228.21C213.998,227.79 213.759,226.87 214.178,226.157C214.598,225.443 215.518,225.204 216.232,225.623C221.535,228.74 226.917,231.72 232.318,234.665C250.374,244.513 268.976,253.989 287.834,262.26C288.593,262.592 288.938,263.478 288.606,264.236C288.273,264.994 287.388,265.339 286.629,265.007C267.692,256.702 249.013,247.188 230.881,237.299C225.453,234.338 220.043,231.343 214.712,228.21Z"/>
            <path d="M309.519,294.476C313.105,295.942 314.378,309.712 314.481,312.938C314.684,319.331 313.858,327.197 316.165,333.265C319.049,340.851 333.662,349.114 341.903,347.972C348.352,347.079 354.461,342.538 359.76,339.084C379.155,326.442 390.615,308.244 393.458,285.146C394.242,278.774 395.931,257.096 387.643,253.869C386.808,253.544 382.469,255.834 382.576,256.73C382.635,257.22 385.154,258.603 385.543,258.934C387.357,260.47 388.554,262.699 389.343,264.911C392.381,273.432 391.283,283.728 389.943,292.485C388.352,302.885 385.573,314.7 380.411,323.913C373.02,337.103 355.864,348.959 340.409,348.513C336.749,348.407 332.247,347.704 329.405,345.171C322.081,338.64 321.801,317.103 321.458,308.277C321.335,305.124 321.229,292.285 316.965,290.855C316.734,290.777 310.299,293.871 309.519,294.476Z"/>
            <path d="M330.196,343.86C334.251,345.802 338.484,346.931 341.697,346.486C347.936,345.622 353.815,341.168 358.941,337.827C370.36,330.384 378.973,320.976 384.634,309.742C386.392,303.931 387.6,297.883 388.46,292.258C389.764,283.733 390.887,273.71 387.93,265.415C387.228,263.446 386.188,261.445 384.574,260.078C384.258,259.811 382.565,258.857 381.869,258.233C381.324,257.745 381.124,257.219 381.087,256.908C381.046,256.561 381.1,256.151 381.343,255.72C381.547,255.359 381.973,254.896 382.571,254.452C383.601,253.686 385.197,252.872 386.289,252.539C387.135,252.281 387.826,252.331 388.187,252.472C391.054,253.588 393.007,256.529 394.142,260.424C396.497,268.502 395.509,280.758 394.947,285.33C393.797,294.673 391.264,303.23 387.393,310.959C385.907,315.804 384.051,320.485 381.719,324.646C374.084,338.272 356.332,350.473 340.366,350.012C336.414,349.898 331.583,349.063 328.485,346.359C327.742,345.996 327.006,345.606 326.283,345.195C320.904,342.133 316.301,337.844 314.763,333.798C312.4,327.584 313.19,319.533 312.981,312.985C312.911,310.795 312.294,303.593 310.732,298.981C310.429,298.087 310.094,297.298 309.71,296.687C309.469,296.303 309.247,295.985 308.951,295.864C308.455,295.661 308.105,295.209 308.033,294.678C307.96,294.147 308.177,293.618 308.6,293.29C309.343,292.715 314.915,289.989 316.202,289.514C316.868,289.268 317.329,289.394 317.443,289.433C319.08,289.982 320.391,291.727 321.215,294.175C322.763,298.777 322.868,305.943 322.957,308.218C323.161,313.461 323.335,323.234 325.013,331.61C326.043,336.749 327.584,341.368 330.196,343.86ZM324.561,340.547C323.498,338.103 322.682,335.242 322.072,332.2C320.359,323.654 320.167,313.684 319.959,308.335C319.887,306.487 319.831,301.233 318.89,297.024C318.601,295.735 318.234,294.548 317.737,293.623C317.479,293.144 317.209,292.731 316.868,292.478C315.807,292.923 313.586,293.974 312.036,294.768C312.613,295.594 313.132,296.715 313.573,298.019C315.232,302.917 315.906,310.564 315.98,312.89C316.179,319.129 315.316,326.81 317.567,332.732C318.596,335.438 321.26,338.199 324.561,340.547ZM377.633,325.587C372.864,331.118 367.171,336.044 360.579,340.34C358.665,341.588 356.646,342.965 354.543,344.268C363.85,340.537 372.445,333.437 377.633,325.587ZM392.652,274.043C392.663,270.952 392.503,267.672 392.016,264.679C391.633,262.329 391.054,260.161 390.17,258.432C389.457,257.037 388.559,255.938 387.353,255.376C386.984,255.511 385.74,255.983 385.011,256.426C384.918,256.483 384.82,256.547 384.723,256.615C385.481,257.114 386.297,257.606 386.513,257.789C388.526,259.494 389.881,261.952 390.756,264.408C391.84,267.447 392.417,270.707 392.652,274.043Z"/>
            <path d="M111.615,232.835C111.194,232.84 110.773,232.67 110.472,232.329C109.963,231.754 110.031,231.251 110.064,231.029C110.121,230.653 110.294,230.351 110.566,230.114C110.762,229.943 111.044,229.774 111.454,229.742C111.597,229.73 111.87,229.737 112.21,229.85C112.46,229.934 112.934,230.177 113.17,230.224C114.012,230.392 114.864,230.509 115.714,230.629C118.24,230.986 120.782,231.358 123.326,231.547C124.152,231.608 124.772,232.328 124.711,233.153C124.65,233.979 123.93,234.6 123.104,234.538C120.494,234.345 117.886,233.965 115.295,233.599C114.389,233.471 113.482,233.345 112.584,233.166C112.383,233.126 111.931,232.958 111.615,232.835ZM112.995,230.797C112.945,230.655 112.859,230.5 112.718,230.341C112.841,230.479 112.933,230.634 112.995,230.797Z"/>
            <path d="M40.017,224.18L39.759,224.023C39.445,223.842 39.196,223.547 39.079,223.175C38.922,222.675 39.036,222.281 39.208,221.98C39.356,221.721 39.578,221.493 39.915,221.348C40.016,221.304 40.46,221.06 41.12,221.355C41.13,221.359 41.188,221.383 41.279,221.437C41.356,221.482 41.737,221.72 41.776,221.749C42.161,222.041 42.561,222.313 42.931,222.625C43.878,223.423 44.798,224.257 45.718,225.087C48.451,227.553 51.398,229.731 54.296,231.997C61.294,237.47 66.929,244.347 74.378,249.229C75.674,250.079 77.087,251.12 78.587,251.938C79.889,252.649 81.255,253.202 82.675,253.175C83.638,253.157 84.576,252.72 85.499,252.181C86.628,251.523 87.722,250.692 88.764,249.993C90.576,248.778 92.323,248.03 93.831,248.335C94.836,248.538 97.782,250.312 101.875,253.221C117.188,264.107 150.385,290.83 159.645,298.093C170.032,306.24 180.117,314.68 190.991,322.185C197.803,326.886 204.803,331.443 212.96,333.372C219.355,334.884 226,334.525 232.4,333.235C233.211,333.071 234.003,333.597 234.167,334.409C234.33,335.22 233.804,336.012 232.993,336.175C226.17,337.551 219.087,337.903 212.27,336.291C203.746,334.276 196.405,329.567 189.287,324.654C178.363,317.115 168.228,308.639 157.793,300.454C148.552,293.205 115.421,266.531 100.136,255.666C97.884,254.065 96.028,252.813 94.703,252.027C94.012,251.618 93.525,251.334 93.236,251.275C92.794,251.186 92.334,251.39 91.832,251.643C91.049,252.037 90.229,252.62 89.374,253.217C87.29,254.674 85.013,256.132 82.731,256.175C79.088,256.243 75.619,253.629 72.733,251.738C65.214,246.81 59.512,239.885 52.448,234.36C49.494,232.051 46.494,229.828 43.708,227.314C42.813,226.507 41.919,225.695 40.998,224.919C40.684,224.655 40.345,224.425 40.017,224.18Z"/>
            <path d="M43.656,225.615L43.602,225.83C43.512,226.366 43.405,226.897 43.332,227.437C43.253,228.029 43.179,228.403 43.288,228.731C43.392,229.043 43.664,229.273 44.069,229.657C47.147,232.581 50.482,235.229 53.785,237.89C63.595,245.793 72.997,253.874 83.585,260.756C94.568,267.896 105.51,275.142 116.823,281.754C126.833,287.605 192.375,323.686 202.472,329.57C203.187,329.987 203.429,330.906 203.012,331.621C202.596,332.336 201.676,332.579 200.961,332.162C190.864,326.278 125.319,290.195 115.309,284.344C103.955,277.708 92.973,270.437 81.95,263.272C71.276,256.334 61.793,248.194 51.903,240.226C48.537,237.514 45.14,234.813 42.003,231.832C41.114,230.988 40.67,230.365 40.442,229.68C40.219,229.011 40.196,228.247 40.359,227.037C40.438,226.45 40.554,225.872 40.651,225.288C40.657,225.253 40.736,224.925 40.753,224.86C41.168,223.267 43.173,224.082 43.181,224.089C43.634,224.476 43.8,225.075 43.656,225.615ZM43.634,225.692C43.575,225.875 43.48,226.049 43.347,226.204C43.29,226.271 43.229,226.331 43.166,226.385C43.244,226.328 43.489,226.142 43.634,225.692Z"/>
            <path d="M393.349,261.334C393.124,261.659 391.747,263.648 391.583,263.831C389.433,266.221 387.121,268.431 384.655,270.494C376.661,277.183 367.52,282.39 358.052,286.694C343.787,293.179 328.43,296.638 314.142,303.123C286.615,315.616 260.242,330.604 230.336,336.674C229.525,336.839 228.732,336.314 228.568,335.502C228.403,334.691 228.928,333.899 229.739,333.734C259.422,327.709 285.581,312.791 312.902,300.391C327.189,293.906 342.546,290.447 356.811,283.963C366.033,279.77 374.943,274.709 382.73,268.193C385.087,266.221 387.297,264.11 389.353,261.825C389.54,261.616 390.836,259.595 391.246,259.181C391.674,258.747 392.108,258.681 392.306,258.667C393.132,258.608 393.85,259.232 393.908,260.057C393.944,260.568 393.72,261.037 393.349,261.334Z"/>
        </g>
    </g>
</svg>
