<?xml version="1.0" encoding="UTF-8"?><svg id="Layer_1" xmlns="http://www.w3.org/2000/svg" viewBox="0 0 1200 1200"><path d="M1005.43,434.48c.47,11.81,.7,23.62,.46,35.44-.08,3.73-.69,7.41-.69,11.15,0,2.02-.86,3.85-2.39,5.33-3.98,3.85-7.56,8.1-11.6,11.91-.92,.87-1.8,1.79-2.77,2.61-15.17,12.73-31.47,23.75-49.3,32.43-2.05,1-3.97,2.19-5.71,3.68-1.09,.93-1.7,1.97-1.89,3.45-.92,7.2-1.85,14.41-3.33,21.53-1.97,9.47-5.15,18.54-9.42,27.22-8.64,17.58-18.7,34.29-30.55,49.91-3.19,4.2-6.31,8.44-9.49,12.65-.6,.79-1.18,1.88-2.01,2.17-2.43,.87-3.02,2.93-3.81,4.95-1.86,4.74-4.03,9.33-6.35,13.87-7.72,15.12-19.33,26.18-34.58,33.55-14.03,6.78-28.84,10.9-44.14,13.56-12.34,2.14-24.74,2.81-37.21,2.1-7.54-.43-14.96-1.85-22.35-3.31-10.69-2.11-21.49-3.59-32.24-5.35-6.99-1.14-13.89-2.76-20.95-3.51-4.37-.47-8.71-.46-13.04,.29-4.44,.76-8.22,2.78-11.4,5.96-3.24,3.24-5.8,6.98-8.2,10.85-6,9.66-10.93,19.91-16.36,29.88-4.52,8.3-8.97,16.64-14.06,24.61-1.37,2.14-2.82,4.24-4.21,6.37-14.02,21.44-34.44,32.44-59.24,36.28-9.49,1.47-19.02,1.38-28.54,.32-1.13-.13-2.17-.23-3.04,.65-7.58,7.61-17.23,9.13-27.36,9.38-12.17,.3-24.1-1.47-35.94-3.98-14.56-3.1-29.11-6.29-43.56-9.88-2-.5-3.38-.21-4.84,1.28-10.4,10.56-21.31,20.59-32.46,30.34-7.19,6.28-14.52,12.39-22.42,17.77-4.39,2.99-9.22,5.08-14.25,6.73-4.79,1.57-9.54,.82-14.2-.62-9.44-2.92-18.08-7.56-26.56-12.53-16.6-9.74-31.68-21.58-46.49-33.78-15.84-13.05-31.35-26.47-45.9-40.99-5.25-5.24-7.92-11.36-8.69-18.56-1.24-11.61,.85-22.82,4.15-33.85,5.04-16.9,12.68-32.66,21.54-47.84,27.56-47.18,63.88-86.1,109.7-116.02,14.49-9.46,29.99-17.05,45.6-24.44,17.92-8.48,36.17-16.1,55.13-21.84,21.63-6.55,42.87-14.34,64.58-20.62,34.12-9.88,66.56-24.08,99.04-38.19,39.16-17.01,76.43-37.63,113-59.57,37.52-22.52,76.62-41.99,116.22-60.51,18.84-8.81,38.43-15.41,58.81-19.53,9.98-2.02,20.1-3.16,30.23-4.13,3.17-.31,6.34-.52,9.49-.95,4.03-.55,8,.09,11.95,.48,10.87,1.05,21.56,3.08,32,6.36,8.68,2.73,16.62,6.82,23.87,12.3,2.72,2.06,4.66,4.69,6.51,7.57,3.86,6.02,4.51,12.8,5.21,19.53,1.85,17.81,2.69,35.7,3.44,53.59,.17,3.99,.38,7.99,.58,11.98Zm-341.5,41.67c-2.31-.26-3.47-1.7-4.05-3.83-.55-2.01-1.22-3.99-1.83-5.99-1.89-6.22-3.94-12.39-5.58-18.86-2.65,1.2-5.08,2.35-7.28,3.86,3.55,11.64,6.02,23.42,9.52,35.48,3.33-3.85,6.68-6.89,9.26-10.63l.05-.1-.09,.06Zm-285.27,79.14c-1.35-.06-2.41,.71-3.54,1.25-3.33,1.6-6.63,3.24-10.33,5.05,6.14,8.74,12.7,16.66,19.07,24.96,3.21-2,6.14-3.83,9.55-5.95-1.81-.5-2.84-1.06-3.51-2.09-3.91-6-8.04-11.86-11.45-18.18-.95-1.76-1.06-3.43,.16-5.09,.4-.17,.79-.35,1.19-.52,1.5,.22,2.75,.86,3.51,2.24,3.37,6.18,7.41,11.95,11.11,17.93,.85,1.37,1.21,2.79,.64,4.37l-.03-.03c3.37-.91,6.01-3.16,9.19-4.63-3.66-6.27-7.13-12.21-10.6-18.15-.55-.94-1.16-1.84-1.45-2.91-.36-1.33,.14-2.32,1.18-3.07,1-.72,2.05-.61,3.06,0,.89,.54,1.42,1.39,1.92,2.26,1.87,3.22,3.76,6.43,5.58,9.68,1.76,3.13,3.44,6.31,5.26,9.66,7.01-3.5,14.16-6.47,21.34-9.59-.41-.74-.57-1.07-.76-1.37-4.37-6.9-9.47-13.34-13.14-20.69-.79-1.58-1.59-.99-2.51-.07,.29,.65,.53,1.23,.81,1.8,2.68,5.46,5.39,10.91,8.03,16.39,1.24,2.58,.98,4.16-.65,5.02-1.64,.87-3.15,.11-4.42-2.4-2.6-5.1-5.11-10.24-7.7-15.34-.61-1.19-.75-2.62-1.82-3.65-.55,.16-1.09,.27-1.58,.46-8.55,3.33-16.97,6.95-25.26,10.87-.64,.3-1.38,.51-1.67,1.28-.39,.18-.79,.35-1.18,.53Zm319.09-107.49c.26-.05,.57-.04,.78-.17,5.57-3.42,11.14-6.82,16.9-9.92,1.17-.63,1.07-1.49,.86-2.53-.76-3.73-1.42-7.48-2.24-11.19-.74-3.34-1.1-6.77-2.35-10.45-3.26,1.92-6.32,3.72-9.46,5.57,.61,1.06,1.3,1.78,1.45,2.6,1.13,6.25,1.73,12.56,1.69,18.92,0,1.3-.93,2.14-2.29,2.29-1.49,.17-2.47-.57-2.89-1.93-.32-1.03-.49-2.13-.59-3.2-.44-4.42-.81-8.85-1.26-13.27-.09-.84,.14-1.85-.94-2.47-1.42,.69-2.85,1.41-4.02,2.54,.66,2.83,1.41,5.54,1.9,8.29,.88,4.98,2.7,9.81,2.52,14.97l-.04-.04Zm-31.62,26.19c2.05-1.36,3.61-3.19,5.17-4.98-.71-1.11-1.39-1.98-1.68-3.05-1.69-6.21-3.82-12.3-5.27-18.58-.25-1.07-.41-2.14-.33-3.23,.1-1.35,.9-2.16,2.16-2.49,1.21-.32,2.13,.27,2.83,1.18,.56,.73,.71,1.65,.94,2.52,1.57,5.78,3.17,11.54,4.76,17.31,.21,.75,.3,1.58,1.32,2.1,2.72-2.37,5.44-4.75,8.18-7.12,.72-.62,.81-1.25,.52-2.17-2.04-6.4-3.55-12.93-5.03-19.47-.21-.92-.13-2.01-1.22-2.96-7.23,4.02-14.53,8.07-22.19,12.33,1.96,1.28,2.4,2.96,2.9,4.62,1.34,4.43,2.72,8.84,4,13.28,1.03,3.57,2.37,7.05,2.95,10.74l-.03-.03Zm-295.1,121.08c2.91-1.16,5.07-3.38,7.85-5.23-6.45-8.7-13.35-16.75-19.51-25.58-7.55,3.73-14.73,7.54-21.42,11.58,6.72,10.06,13.85,19.53,21.09,29.28,3.34-2.74,6.46-5.29,9.9-8.12-1.73-.53-2.85-1.23-3.65-2.38-4.28-6.09-8.6-12.16-12.87-18.26-.67-.96-1.34-1.95-1.47-3.18-.13-1.19,.18-2.21,1.25-2.8,1.03-.57,2.13-.5,3.07,.24,.49,.38,.91,.89,1.27,1.4,4.28,6.09,8.53,12.21,12.83,18.29,1.03,1.45,1.73,2.97,1.69,4.78l-.03-.03Zm512.82-87.12c-.01-8.25-.1-14.51-.42-20.78-.82-16.21-3.27-32.17-7.26-47.89-2.02-7.98-4.98-15.59-9.96-22.24-6.03-8.06-13.92-12.48-24.18-12.57-7.05-.06-13.97,.76-20.85,2.12-40.96,8.13-79.14,23.47-115.01,44.69-9.24,5.47-18.05,11.62-25.6,19.35-12.07,12.36-23.63,25.19-34.39,38.72-6.16,7.76-12.21,15.6-18.37,23.36-2.25,2.84-4.55,5.66-7.55,7.79-5.33,3.78-11.27,4.57-17.64,4.15-8.98-.59-17.99-.57-26.98-.04-9.07,.54-18.13,1.34-27.2,1.78-23.47,1.14-46.69,4.03-69.61,9.36-31.48,7.33-61.34,18.58-88.73,35.96-16.12,10.23-30.98,21.97-43.41,36.58-4.91,5.77-9.32,11.85-12.5,18.77-2.5,5.45-3.79,11.13-3.68,17.16,.12,6.26,1.54,12.23,3.55,18.11,4.93,14.43,13.6,26.4,24.25,37.09,10.47,10.52,21.85,20,33.67,28.95,17.04,12.9,35.01,24.46,52.55,36.64,6.49,4.51,12.96,9.07,19.76,13.11,15.58,9.27,32.47,14.9,50.27,17.89,13.19,2.22,26.38,2.42,39.54-.51,19.83-4.42,35.95-14.32,47.25-31.54,3.34-5.09,6.66-10.19,9.7-15.47,6.84-11.89,13.05-24.13,19.65-36.16,3.8-6.93,7.76-13.78,13-19.78,4.44-5.09,9.84-8.57,16.54-9.86,5.95-1.14,11.94-1.03,17.92-.33,6.05,.71,11.99,2.02,17.99,3.03,11.64,1.95,23.33,3.56,34.9,5.91,8.55,1.74,17.15,3.09,25.9,3.35,11.14,.33,22.13-.83,33.07-2.83,13.65-2.49,26.84-6.42,39.35-12.51,13.17-6.41,23.26-15.97,30.1-28.99,4.71-8.96,8.56-18.26,11.34-27.97,6.1-21.34,8.27-43.29,9.8-65.33,.53-7.7,.8-15.42,1.27-23.13,.97-15.96,1.61-31.94,2-45.95Zm-376.16,314.91c-.37-.24-.57-.43-.81-.51-.51-.18-1.04-.33-1.57-.44-20.02-4.11-38.39-12.06-55.22-23.63-10.33-7.1-20.72-14.12-31.1-21.16-15.65-10.61-31.15-21.42-45.72-33.49-10.86-9-21.33-18.42-30.22-29.43-10.12-12.53-17.01-26.57-19.69-42.55-.1-.6-.05-1.28-.6-1.77-.96,.04-1.34,.87-1.86,1.45-7.89,8.82-15.05,18.21-21.34,28.24-2.61,4.16-4.95,8.47-6.78,13.04-1.73,4.33-2.95,8.77-3.13,13.46-.28,7.61,2.06,14.5,5.72,21.02,3.91,6.96,9.01,12.96,14.78,18.44,9.25,8.78,19.89,15.5,31.27,21.13,26.08,12.89,53.18,22.88,81.7,28.89,18.11,3.82,35.98,8.85,54.48,10.6,7.52,.71,15.06,.83,22.57-.27,2.69-.4,5.26-1.19,7.53-3.02Zm355.27-419.56c.21,.8,.92,1.12,1.47,1.56,4.13,3.24,7.41,7.21,10.14,11.66,3.25,5.3,5.72,10.95,7.41,16.92,7.41,26.2,9.91,52.97,9.07,80.1-.34,10.8-.76,21.6-1.3,32.4-.85,16.96-1.57,33.92-3.29,50.83-1.29,12.65-3.13,25.21-5.89,37.63-.19,.88-.57,1.79-.26,2.73,.72-.13,.92-.57,1.18-.92,11.81-15.96,22.16-32.8,30.8-50.69,3.85-7.97,6.59-16.3,8.49-24.94,2.06-9.39,2.5-19,3.95-28.47,.8-5.2,1.19-10.46,1.62-15.71,1.01-12.4,2-24.8,2.46-37.24,.56-15.5-.24-30.87-3.53-46.06-1.48-6.85-3.23-13.61-6.57-19.85-.77-1.44-1.52-2.87-3.47-3.1-1.07-.13-1.79-1.02-1.91-2.07-.26-2.22-1.79-3.22-3.54-4.11-1.79-.91-3.65-1.63-5.6-2.09-5.88-1.4-11.86-1.65-17.86-1.39-6.99,.31-13.95,.98-20.88,1.96-.87,.12-1.83,.03-2.48,.84ZM217.17,792.26c-.09,.22-.19,.44-.28,.66,2.39,2.19,4.78,4.37,7.18,6.56,.63,.58,1.31,.45,2.02,.14,3.42-1.49,7.03-1.73,10.68-1.54,5.22,.27,9.4,2.52,12.5,6.74,3.41,4.64,3.86,9.68,1.84,14.97-.66,1.71-.29,2.79,1.15,3.95,8.62,6.97,17.19,13.99,26.18,20.5,.87,.63,1.65,1.44,2.87,1.64,.25-.21,.54-.41,.79-.67,3.87-4.03,8.53-5.57,13.87-3.75,5.29,1.8,8.57,5.54,9.65,11.17,.44,2.31,.21,4.52-.2,6.75-.2,1.09-.14,1.92,.99,2.49,6.15,3.14,12.3,6.27,19.01,8.08,3.71,1,7.48,1.05,10.92-.69,5.42-2.73,10.79-5.59,15.61-9.37,16.11-12.63,30.95-26.69,45.74-40.8,.36-.35,.91-.67,.54-1.66-6.75-1.8-13.47-4.39-20.42-6.64-.38,1.4-.62,2.36-.9,3.31-.85,2.83-2.57,4.97-5.12,6.45-6.33,3.67-14.07,1.71-17.78-4.58-2.38-4.03-3.14-8.49-2.89-13.11,.16-2.94,.26-2.95-2.44-4.19-11.24-5.17-22.26-10.73-32.29-18.06-.36-.26-.79-.43-1.15-.62-1.22,.47-1.94,1.46-2.9,2.14-3.19,2.26-6.62,3.32-10.53,2.28-9.93-2.66-14.69-15.51-8.89-24.03,.35-.51,.91-.92,.79-2.06-3.99-5.4-7.26-11.62-9.55-18.33-1.45,.39-2,1.4-2.71,2.18-9.79,10.66-20.25,20.59-31.46,29.75-7.19,5.88-15.2,10.58-22.57,16.2-2.98,2.28-6.59,3.34-10.25,4.15Zm83.74-189.21c.78,.71,1.64,1.39,2.37,2.18,7.89,8.55,15.76,17.12,23.62,25.69,.61,.67,1.26,1.33,1.48,2.25,.28,1.11,.26,2.19-.71,3-1.03,.86-2.17,.93-3.27,.19-.67-.45-1.29-1.01-1.84-1.6-8.6-9.43-17.69-18.42-25.92-28.56-2.65,2.41-5.28,4.81-8.18,7.47,1.92,1,2.81,2.27,3.75,3.48,2.74,3.52,5.67,6.86,8.64,10.18,6.06,6.78,12.09,13.57,18.12,20.37,.78,.88,1.57,1.75,1.95,2.92,.34,1.08,.11,1.99-.64,2.75-.77,.77-1.72,.94-2.77,.63-.92-.27-1.57-.89-2.18-1.57-1.71-1.89-3.42-3.77-5.09-5.69-6.98-8.02-14.48-15.58-21.16-23.87-1.45-1.8-2.79-3.69-4.35-5.76-3.68,3.73-7.22,7.31-10.8,10.94,2.42,2.14,4.59,3.91,6.61,5.86,10.27,9.92,19.92,20.43,29.81,30.71,1.91,1.99,2.13,3.75,.84,5.01-1.27,1.24-3.16,.95-5.01-.91-3.01-3.03-5.94-6.14-8.93-9.19-7.5-7.66-14.75-15.57-22.61-22.88-1.5-1.4-2.96-2.87-4.89-4.04-2.36,2.6-4.74,5.03-7.11,8.2,2.46-.03,3.59,1.29,4.8,2.53,4.13,4.22,8.27,8.44,12.44,12.62,6.68,6.69,13.4,13.33,20.07,20.03,1.86,1.87,2.07,3.48,.87,4.78-1.27,1.37-2.99,1.13-4.99-.71-.07-.06-.13-.12-.2-.19-10.19-10.12-20.38-20.23-30.55-30.37-1.77-1.76-3.6-3.5-4.7-6.34-2.91,3.6-5.56,6.87-8.11,10.03,.27,.5,.31,.7,.44,.81,12.35,10.75,23.62,22.63,35.4,33.98,.85,.82,1.74,1.59,2.26,2.7,.52,1.12,.42,2.16-.42,3.02-.9,.93-1.99,1.19-3.23,.6-1.1-.53-1.89-1.41-2.73-2.22-9.99-9.67-19.97-19.36-29.97-29.02-1.69-1.63-3.37-3.3-5.33-4.56-.92,.34-1.29,1.11-1.77,1.76-11.63,15.86-22.02,32.48-30.64,50.17-1.38,2.83-1.39,2.87,1.12,4.87,13.22,10.54,26.45,21.06,39.66,31.59,1.9,1.52,3.97,2.87,5.16,5.35,2.49-2.06,4.65-4.13,6.89-6.58-2.38-.92-3.82-2.31-5.35-3.58-13.22-10.97-26.29-22.11-39.89-32.6-1.68-1.3-2.11-2.87-1.22-4.22,.78-1.18,2.49-1.53,4.19-.73,1.66,.78,3.04,1.98,4.47,3.11,12.09,9.62,23.95,19.53,35.73,29.52,1.86,1.57,3.9,2.98,4.94,5.41,.44-.32,.76-.49,1.01-.74,2.99-2.92,5.69-6.13,8.89-8.83,.92-.78,.74-1.78,.63-2.77-.27-2.46-.31-4.93,.3-7.32,1.93-7.57,3.79-15.17,7.78-22.01,8.24-14.13,18.12-27,29.78-38.47,1.7-1.68,2.99-3.28,2.97-5.8,0-1.24,.46-2.49,.77-3.72,2.16-8.62,6.58-16.09,11.78-23.17,.67-.92,1.59-1.72,1.8-2.72-5.34-4.88-9.76-10.31-14.66-15.29-4.88-4.96-9.4-10.25-13.68-15.76-2.85,1.79-5.02,3.72-7.25,5.58-.48,.4-1.04,.76-1.18,1.49Zm696.77-185.46c-.82-.32-1.35-.08-1.86,.05-7.95,2.07-13.23-3.74-14.62-9.56-2.07-8.63,4.15-19.39,12.76-21.73,1.68-.46,2.25-1.14,2.11-2.79-.4-4.8-.69-9.61-1.08-14.41-.07-.92-.04-1.94-.84-2.83-1.14,1.19-1.79,2.5-2.43,3.78-5.03,9.97-12.42,17.75-21.49,24.19-12.1,8.6-24.63,16.44-37.92,23.05-.86,.43-1.92,.61-2.45,1.55,0,.22-.04,.41,0,.57,2.95,9.87,4.95,19.92,6.01,30.16,.15,1.43,.79,1.93,2.17,2.24,5.25,1.18,8.72,4.47,10.08,9.64,1.95,7.44-.23,15.66-8.64,19.28-2.27,.98-2.99,2.23-3.12,4.66-.69,12.51-1.62,25.02-2.95,37.48-.17,1.58-.43,3.2-.14,4.74,.79,.24,1.24-.13,1.7-.38,6.42-3.41,12.87-6.75,19.09-10.53,4.35-2.65,8.5-5.6,12.74-8.41,2.69-1.79,4.16-3.96,4.41-7.28,.32-4.1,1.78-7.96,3.75-11.59,1.09-2.02,2.44-3.83,4.24-5.28,3.86-3.09,8.25-3.29,12.36-.59,.82,.54,1.47,1.37,2.68,1.65,1.65-1.5,3.86-2.78,4.07-5.37,.55-6.7,1.2-13.39,1.1-20.13-.03-1.71-.72-2.59-2.23-3.29-3.49-1.61-5.77-4.33-6.72-8.1-1.65-6.54,1.07-13.65,6.7-17.4,.63-.42,1.23-.78,1.23-1.64,0-3.98-.2-7.93-.71-11.74Zm-200.32-49.87c-1.62,.42-2.93,1.25-4.31,1.93q-3.63,1.78-3.08,5.73c.04,.27,.11,.53,.15,.8,.98,7.56,1.98,15.12,2.93,22.68,.15,1.17,.18,2.36,.13,3.53-.06,1.48-.98,2.37-2.39,2.54-1.33,.16-2.28-.62-2.72-1.83-.34-.93-.54-1.93-.67-2.91-.8-6.03-1.48-12.07-2.39-18.08-.37-2.48-.23-5.08-1.25-7.47-.34,.02-.64-.05-.86,.06-6.09,3.05-12.17,6.13-18.27,9.16-1.18,.59-1.12,1.48-.95,2.52,.64,4.03,1.32,8.06,1.88,12.11,.52,3.68,1.34,7.33,1.45,11.06,.05,1.87-.84,2.99-2.29,3.2-1.44,.21-2.53-.61-3.15-2.39-.15-.43-.28-.87-.35-1.31-.58-3.67-1.08-7.37-1.75-11.02-.62-3.35-.74-6.81-1.89-10.19-1.89,.67-3.5,1.39-5.13,2.81,1.89,1.31,1.93,3.23,2.09,5.13,.22,2.62,.67,5.23,.75,7.86,.15,4.97,2.01,9.87,.38,15.22,19.63-8.07,39.51-14.22,60.44-18.74-2.22-1.8-2.49-3.79-2.69-5.91-.75-7.95-1.66-15.89-2.46-23.84-.21-2.08-.33-4.17-.33-6.26,0-1.86,.96-2.91,2.45-3.07,1.51-.16,2.54,.64,3.09,2.46,.18,.6,.27,1.24,.34,1.87,.9,9.22,1.8,18.43,2.67,27.65,.2,2.14,.49,4.31-1.02,6.65,5.63-.86,10.79-1.79,16.01-2.28,5.32-.5,10.62-.09,16.3,.43-1.12-17.76-2.21-35.1-3.33-52.96-6.95,2.61-13.35,5.22-19.66,8.23,.49,1.55,1.01,2.79,1.2,4.16,1.5,10.88,3.08,21.75,4.62,32.62,.1,.71,.15,1.47,0,2.16-.27,1.24-.99,2.15-2.37,2.27-1.32,.11-2.32-.42-2.81-1.67-.26-.67-.43-1.38-.54-2.09-1.07-6.81-2.15-13.62-3.16-20.45-.7-4.75-1.28-9.51-1.92-14.31-.39,0-.69-.08-.92,.01-5.68,2.43-11.16,5.28-16.7,7.99-.99,.49-1.07,1.32-1.06,2.29,.11,7.18,.57,14.34,1.04,21.5,.2,3.09,.32,6.17,.26,9.26-.03,1.54-.83,2.64-2.42,2.81-1.61,.17-2.49-.79-2.94-2.26-.32-1.06-.36-2.14-.42-3.23-.42-7.98-.84-15.96-1.28-23.94-.04-.79,.04-1.65-.72-2.48Zm88.33,25.78c.6-1.62,.3-2.98,.21-4.32-.67-9.24-1.35-18.48-2.07-27.72-.44-5.61-.96-11.22-1.46-16.83-.19-2.08-.51-4.14-.65-6.22-.09-1.41,.55-2.51,2-2.85,1.54-.36,2.68,.3,3.28,1.75,.31,.75,.51,1.55,.64,2.35,1.11,6.91,1.47,13.9,1.99,20.87,.66,8.79,1.16,17.59,1.86,26.37,.16,2.04,.04,4.15,.74,6.33,3,.16,5.93,.31,9.34,.49-2.75-20.67-3.34-41.15-5.74-61.41-3.63-.06-13.68,1.68-15.85,2.65,0,2.55-.09,5.08,.01,7.61,.63,15.07,1.31,30.14,1.96,45.21,.04,.9,.07,1.81-.32,2.68-.5,1.1-1.31,1.73-2.53,1.74-1.22,0-2.04-.6-2.54-1.71-.31-.69-.34-1.41-.37-2.13-.36-7.9-.73-15.79-1.08-23.69-.38-8.44-.75-16.89-1.15-25.33-.05-.97,.05-2.02-.86-2.84-1.54-.09-2.93,.67-4.42,1-1.44,.31-1.85,1.16-1.74,2.57,.74,9.78,1.67,19.54,2.88,29.28,.77,6.22,1.5,12.44,2.21,18.66,.24,2.12-.8,3.74-2.44,3.97-1.54,.21-2.78-.89-3.18-3.02-.3-1.6-.45-3.24-.66-4.86-1.72-13.42-3.49-26.83-4.34-40.35-.07-1.15,.02-2.37-.82-3.43-1.93,.11-3.62,1.1-5.44,1.55-1.75,.42-2.24,1.44-2.11,3.18,.44,5.89,.78,11.78,1.13,17.68,.61,10.43,1.2,20.86,1.82,31.29,.06,1.06,0,2.19,.93,3.41,9.47-1.77,19.15-3.12,28.79-3.91Zm-427.87,159.6c11-3.18,21.79-5.44,32.72-7.95-2.92-9.37-6.93-17.92-9.55-27.17-4.07,1.19-7.97,2.21-11.81,3.75,.21,.71,.32,1.14,.46,1.56,1.79,5.43,3.59,10.85,5.37,16.29,.34,1.03,.74,2.05,.7,3.17-.04,1.32-.54,2.29-1.88,2.65-1.29,.34-2.37-.05-3.07-1.17-.42-.68-.71-1.47-.98-2.23-.92-2.66-1.79-5.33-2.7-8-1.02-3.01-2.05-6.01-3.09-9.02-.23-.65-.31-1.63-1.36-1.22-.97,.38-.52,1.19-.3,1.86,.17,.52,.34,1.03,.54,1.54,1.66,4.22,3.33,8.45,4.98,12.67,.43,1.1,.86,2.2,.8,3.42-.06,1.11-.59,1.9-1.59,2.34-1.13,.5-2.15,.18-2.99-.64-.66-.65-1.01-1.5-1.35-2.34-1.98-4.97-3.97-9.94-5.96-14.92-.26-.66-.34-1.43-1.29-1.88-6.24,1.92-12.62,3.87-18.81,6.22-.07,1.52,.61,2.53,1.11,3.57,2.29,4.74,4.64,9.46,6.95,14.19,.4,.81,.79,1.64,1.06,2.5,.52,1.66-.03,3.08-1.4,3.65-1.51,.64-2.63-.03-3.53-1.22-.27-.36-.5-.76-.7-1.17-2.8-5.7-5.9-11.26-8.45-17.09-.32-.73-.46-1.58-1.44-2.2-2.8,.73-5.67,1.67-8.59,3.07,3.97,8.26,9.9,15.01,14.2,23,5.83-2,11.6-3.97,17.44-5.97-3.2-5.94-6.33-11.46-9.01-17.21-.5-1.06-1.05-2.12-1.14-3.33-.09-1.31,.4-2.37,1.63-2.86,1.19-.48,2.35-.23,3.22,.78,.41,.47,.74,1.04,1,1.61,2.09,4.64,4.59,9.07,6.89,13.61,.9,1.77,1.93,3.5,1.91,6.14Zm472.56-222.49c-.65,1.21-.4,2.42-.37,3.56,.34,13.81,.78,27.61,1.04,41.42,.19,10.09,.7,20.16,1.22,30.23,.05,1.03-.05,2.17,1.01,3.11,6.92-3.66,13.61-7.62,20.4-12.06-1.58-1.28-2.19-2.68-2.22-4.44-.13-7-.32-13.99-.54-20.98-.28-8.9-.66-17.8-.91-26.7-.12-4.15-.5-8.3-.22-12.64-2.17-.64-4.35-.76-6.76-.5,.21,2.2,.51,4.17,.55,6.14,.2,9.36,.56,18.71,.68,28.07,.1,7.9,.25,15.81,.91,23.69,.25,2.99,.51,5.97,.59,8.97,.06,1.96-1.01,3.18-2.53,3.33-1.47,.14-2.7-.96-3.11-2.83-.08-.35-.07-.72-.12-1.08-.98-8.4-1.39-16.84-1.58-25.28-.25-10.9-.39-21.81-.66-32.71-.07-2.88-.46-5.76-.72-8.78-2.29-.18-4.44-.97-6.69-.53ZM234.91,775.08c-1.04-1.42-2.41-2.17-3.6-3.11-7.55-5.97-15.59-11.3-23.04-17.4-1.12-.91-2.31-1.77-3.01-3.11-.56-1.08-.52-2.13,.27-3.05,.85-.99,1.97-1.28,3.2-.8,.5,.19,.98,.49,1.4,.83,9.05,7.45,18.83,13.94,27.94,21.31,.56,.45,1.04,1.03,2.03,1.26,2.46-1.65,5-3.45,7.39-5.87-13.73-10.39-27.2-20.59-40.68-30.8-.35,.49-.49,.62-.55,.78-3.78,11.56-6.42,23.28-4.83,35.56,.57,4.4,2.08,8.39,5.26,11.71,3.25,3.39,10.26,4.69,15.72,.7-.35-.95-1.28-1.21-2.03-1.66-3.66-2.19-7.37-4.31-11.02-6.51-2.02-1.22-4.05-2.45-5.94-3.84-1.66-1.22-1.99-3.24-.99-4.54,.99-1.29,2.72-1.52,4.4-.33,5.49,3.91,11.51,6.92,17.19,10.51,5.3,3.34,5.34,3.29,10.16-.83,.2-.17,.36-.4,.73-.82Zm318.71-237.33c.2-.93-.32-1.51-.58-2.16-3.98-9.95-8.19-19.8-11.9-29.86-.87-2.37-1.95-4.68-1.43-7.63-10.62,3.81-20.92,7.49-31.1,11.14-.31,1.01,0,1.68,.19,2.38,2.1,7.52,4.18,15.04,6.29,22.56,.27,.97,.53,1.93,.52,2.94,0,1.31-.55,2.33-1.87,2.69-1.41,.38-2.53-.15-3.19-1.44-.41-.8-.68-1.68-.94-2.55-2.02-6.97-4-13.96-6.05-20.93-.32-1.1-.34-2.36-1.49-3.43-3.01,.7-6.06,1.69-8.95,2.87,0,.46-.05,.65,0,.81,3.2,8.79,7.08,17.31,10.46,26.03,.55,1.41,1.48,1.57,2.81,1.36,9.52-1.45,19.08-2.57,28.7-3.22,2.03-.14,4.14-.03,6.05-.67,.26-.64-.04-1.01-.2-1.43-3.74-9.55-7.49-19.1-10.7-28.85-.28-.86-.61-1.73-.71-2.62-.17-1.41,.47-2.53,1.79-3.05,1.34-.53,2.49-.07,3.34,1.09,.54,.75,.82,1.61,1.11,2.48,2.94,8.79,6.25,17.44,9.48,26.12,.7,1.87,1.43,3.72,.77,5.91,2.7,.27,5.18,.24,7.58-.52Zm27.64-56.4c1.39,1.91,1.98,3.89,2.49,5.92,3.49,13.8,7.01,27.6,10.54,41.39,.27,1.06,.51,2.13,.44,3.22-.07,1.18-.66,2.1-1.84,2.44-1.27,.36-2.33-.06-3.06-1.19-.55-.85-.79-1.83-1.03-2.79-2.2-8.61-4.37-17.23-6.6-25.83-1.8-6.98-3.15-14.11-6.69-20.84-2.89,.95-5.77,2.12-8.58,3.6,.18,.63,.28,1.07,.44,1.49,5.68,15.12,11.29,30.26,16.32,45.61,.5,1.54,1.42,1.87,2.84,1.86,4.99-.04,9.99,0,14.98-.01,.62,0,1.28,.06,2.11-.84-4.59-19.04-9.33-38.33-13.45-58.04-3.19,1.31-6.07,2.28-8.93,4.02Zm24.91-11.12c4.25,17.95,8.41,35.51,12.59,53.06,.23,.98,.43,1.95,.38,2.95-.07,1.35-.82,2.22-2.07,2.55-1.33,.35-2.34-.32-2.95-1.43-.42-.78-.65-1.69-.86-2.57-3.96-16.4-7.89-32.8-11.84-49.2-.23-.94-.18-2-1.21-2.69-1.45,.43-2.84,1.01-4.06,1.85,.02,4.3,12.41,58.04,14.12,61.1,2.63-.48,4.73-2.01,6.7-3.76,3-2.68,5.19-6.07,7.87-9.02,1.71-1.88,2.01-3.72,1.4-6.17-3.97-16.02-7.79-32.08-11.68-48.12-.16-.66,.09-1.51-.97-2.04-2.43,.98-4.96,2.1-7.41,3.48Zm-251.74,139.12c-.19-1.27-.93-1.87-1.46-2.58-4-5.4-8.1-10.72-12.03-16.17-2.68-3.73-5.61-7.34-7.4-12.02-6.78,4.2-13.15,8.73-19.61,13.59,8.31,11.25,18.45,20.26,27.28,30.82,4.39-4.83,8.69-9.46,13.21-13.63ZM916.49,329.98c-.37,1.15-.13,2.06-.06,2.94,.77,9.78,.95,19.58,1.11,29.39,.21,12.17,.38,24.33,.95,36.49,.06,1.25,.34,2.27,1.27,3.15,2.26,2.14,4.03,4.67,5.6,7.34,.29,.49,.41,1.25,1.4,1.15-2.15-26.77-1.86-53.61-2.68-80.47-2.6-.23-5.03-.25-7.59,0Zm-361.32,162.22c1.6,1.01,2.4,2.35,2.82,3.97,2.93,11.43,6.29,22.74,9.53,34.08,.25,.89,.42,1.77,.38,2.68-.05,1.21-.65,2.09-1.8,2.47-1.26,.42-2.33,0-3.13-1.05-.68-.89-.92-1.97-1.23-3.01-3.24-10.87-6.47-21.74-9.32-32.72-.43-1.64-.99-3.29-.02-5.45-3.58,1.13-6.52,2.38-10.05,3.94,2.28,.9,2.87,2.52,3.5,4.11,3.91,9.97,7.81,19.94,11.74,29.91,.79,2,1.68,3.96,1.25,6.45,6.46-.42,12.66-.74,18.83-1.45,.06-1.53-.32-2.67-1.05-3.59-1.15-1.47-1.76-3.17-2.41-4.86-1.96-5.08-4.01-10.13-5.82-15.26-2.58-7.33-6.08-14.36-7.36-22.12-.02-.14-.26-.24-.46-.41-1.8,.44-3.54,1.11-5.38,2.31Zm-346.43,236.04c14.32,11.53,29.16,21.68,43.26,33.4,2.17-1.93,4.5-4,6.77-6.02-15.55-12.23-30.95-24.14-46.25-36.62-1.62,3.19-2.85,6.16-3.79,9.24Zm419.48-268.47c-3.2,1.53-6.28,2.78-9.25,4.55,.87,1.53,1.28,3.01,1.64,4.5,3.34,13.95,6.66,27.9,10.02,41.85,.24,1.01,.27,2.14,1.02,2.96,1.18-.21,1.55-1.13,2.11-1.79,1.57-1.88,3-3.9,4.66-5.69,1.4-1.51,1.6-2.98,1.07-4.94-3.02-11.13-5.9-22.29-8.89-33.43-.68-2.53-1.14-5.13-2.38-8.02Zm284.32-62.7c-1.08-22.35-.36-44.53-2.08-66.77-3.16,.07-5.84,.23-8.34,.98-.62,1.03-.27,1.92-.18,2.81,.29,2.71,.59,5.41,.81,8.12,.62,7.59,1.17,15.19,1.83,22.79,.75,8.58,1.68,17.15,2.38,25.73,.28,3.45,1.51,5.33,4.65,6.21,.09,.02,.18,.03,.92,.13Zm44.87-3.29c1.06,.14,1.47-.43,1.98-.76,3.02-1.98,4.58-4.21,4.37-8.38-.67-13.04-.62-26.13-.89-39.19-.07-3.62-.29-7.23-.46-11.04-2.32-.73-4.62-1.4-7.23-1.38,1.59,20.29,1.46,40.49,2.22,60.76Zm11.19-57.21c-.48,2.9,.1,5.42,.12,7.93,.09,12.17,.75,24.33,.66,36.51,0,.82-.36,1.82,.71,2.51,1.36-.93,2.67-1.86,3.78-3.29-1.47-2.03-1.44-4.4-1.5-6.76-.22-8.99,.13-17.99-.53-26.97-.03-.36-.04-.73,0-1.09,.17-1.96,1.15-3.16,2.66-3.26,1.53-.11,2.64,.91,3.05,2.86,.35,1.7,.41,3.42,.43,5.15,.08,7.45,.14,14.9,.26,22.35,.02,1.03-.33,2.19,.61,3.05,.92-.21,1.28-1.02,1.89-1.54,2.48-2.12,3.25-4.74,2.94-7.99-.49-5.15-1.23-10.38-.77-15.48,.5-5.57-2.38-8.24-6.49-10.56-2.43-1.37-4.88-2.65-7.8-3.42Zm-246.46,97.49c5.58-2.69,11-5.3,16.5-7.95-2.16-8.2-4.24-16.14-6.35-24.16-1.59,.34-2.63,.92-3.45,1.98,.38,1.27,.81,2.46,.98,3.73,.65,5.04,1.34,10.08,2.03,15.12,.35,2.58-.45,4.31-2.18,4.65-1.75,.35-3.06-.93-3.48-3.63-.76-4.84-1.43-9.7-2.13-14.55-.11-.79,0-1.67-.92-2.22-1.71,.53-3.15,1.67-4.73,2.55-.97,.54-1,1.34-.8,2.34,.87,4.36,1.6,8.75,2.52,13.1,.62,2.9,.85,5.9,1.99,9.04Zm-88.24,23.21c3.55,13.49,7.08,26.94,10.8,41.08,2.47-2.82,4.47-5.09,6.61-7.53-2.07-1.41-2.57-3.41-3.1-5.44-2.49-9.58-5.03-19.14-7.56-28.71-.22-.84-.19-1.82-1.25-2.39-1.84,.8-3.78,1.52-5.49,2.99Zm110.14-33.49c3.6-1.56,6.73-2.92,9.86-4.28-2.26-.93-3.04-2.4-3.25-4.4-.46-4.32-1.04-8.63-1.5-12.95-.32-3.02-.54-6.05-.83-9.41-4.02,1.89-7.55,3.93-10.8,5.93,2.2,8.48,4.29,16.52,6.52,25.11Zm253.29-21.85c-.1,0-.21,0-.31,0-.13-2.54-.18-5.08-.41-7.61-.15-1.69-.91-2.09-2.36-1.49-4.58,1.9-8.17,9.16-6.82,13.95,.61,2.16,1.73,4.01,4.05,4.77,3.34,1.1,5.92-.76,5.85-4.19-.04-1.81,0-3.63,0-5.44ZM357.61,802.98c-.53,3.62,.25,7.51,1.89,9.93,2.16,3.19,6.11,4.09,9.32,2.18,2.15-1.28,2.68-3.4,2.73-5.59,.05-1.97-1.97-1.81-3.18-2.38-1.72-.81-3.51-1.46-5.29-2.14-1.76-.66-3.41-1.65-5.47-2Zm-47.79-27.08c-1.7-2.19-11.05-11.06-12.1-11.51-1.88,3.45-1.22,8.11,1.61,11.29,3.12,3.51,6.82,3.64,10.49,.22Zm377.92-348.01c-3.38,1.41-3.5,1.52-3.07,3.38,1.44,6.18,2.9,12.36,4.39,18.52,.18,.74,.19,1.63,1.11,2.2,1.58-1.04,3.1-2.28,5.28-2.71-2.59-1.26-2.93-1.68-3.54-4.41-.97-4.34-1.86-8.69-2.88-13.01-.31-1.29-.22-2.74-1.29-3.98ZM244.92,817.6c1.22-2.82,1.29-4.98,.31-7.17-2.38-5.27-8.71-7.68-14.87-5.3,4.87,4.17,9.56,8.19,14.56,12.47ZM936.82,474.77c4-1.45,6.12-5.22,5.71-9.5-.38-3.92-2.41-6.45-5.71-6.94v16.44ZM286.64,849.88c3.96,2.76,7.98,5.35,12.3,7.69,1.17-4.28-.6-8.11-4.24-9.79-3.06-1.41-6.01-.72-8.06,2.1ZM977.98,499.19c4.08-2.8,8.05-5.64,11.55-9.09-2.64-2.82-4.62-3.05-6.93-.78-2.73,2.67-3.98,6.1-4.61,9.88Zm-490.71,17.11c-.8,.87-.24,1.33-.1,1.8,2.03,6.96,4.98,13.59,7.28,20.46,.46,1.37,.97,2.73,1.46,4.09,.35,1,.86,1.62,2.26,.67-3.35-9.01-7.54-17.73-10.89-27.01Zm511.5-78.04c-3.71,4.18-3.47,9.76,0,11.47v-11.47Zm-9.35-87.3c-.25,.03-.5,.06-.75,.1,.13,2.82,.27,5.63,.4,8.45,.2-.01,.41-.03,.61-.04,.55-2.86,1.44-5.74-.26-8.51Z"/><path d="M755,687.59c-10.58-.03-20.57-1.38-30.54-2.91-11.85-1.81-23.56-4.4-35.43-6.04-6.5-.89-13.02-1.33-19.57-.71-7.99,.75-15.12,3.74-21.53,8.5-7.57,5.62-14.02,12.38-19.97,19.65-7.43,9.09-14.07,18.75-20.33,28.67-4.51,7.15-9,14.31-13.89,21.21-4.43,6.25-9.38,12.04-15.22,17.03-8.17,6.97-17.43,11.76-27.92,14.16-13.12,3-26.42,4.23-39.81,2.93-17.18-1.68-33.16-7.2-47.73-16.48-12.95-8.25-25.74-16.76-38.58-25.18-6.17-4.04-11.94-8.61-17.42-13.54-6.62-5.96-13.28-11.87-19.94-17.79-8.29-7.36-14.5-16.36-19.38-26.14-4.77-9.55-4.67-19.65-.68-29.6,.81-2.02,1.67-4.05,2.82-5.89,4.07-6.56,8.06-13.18,12.68-19.37,7.02-9.39,15.94-16.62,26-22.52,18-10.55,37.22-18.06,57.39-23.24,13.82-3.55,27.69-6.83,41.87-8.58,7.84-.97,15.72-1.69,23.59-2.36,12.94-1.12,25.83-2.66,38.68-4.62,8.52-1.3,17.1-2.25,25.54-4.09,7.81-1.7,15.59-3.49,23.3-5.58,10.84-2.94,20.18-8.64,28.42-16.13,11.17-10.16,21.55-21.12,31.45-32.52,9.77-11.26,19.56-22.49,30.42-32.74,11.44-10.8,24.06-19.92,38.04-27.15,6.21-3.21,12.25-6.76,18.47-9.95,14.46-7.41,29.85-11.81,45.79-14.48,5.1-.85,10.19-1.88,15.41-1.74,6.18,.17,12.03,1.78,17.58,4.35,5.66,2.62,9.47,7.23,12.5,12.55,4.38,7.67,6.78,16.03,8.63,24.59,1.52,7.05,2.13,14.19,2.04,21.39-.08,6.01,.7,11.97,.95,17.96,.69,16.63,.66,33.25-.05,49.88-.42,9.81-1.19,19.58-2.37,29.32-2.35,19.3-7.22,37.79-17.74,54.45-5.84,9.24-13.12,17.16-21.68,23.93-6.72,5.32-14.3,9.02-22.5,11.32-16.26,4.57-32.82,7.2-49.27,7.48Zm64-201.1c-.86,.06-1.86,.5-2.69,1.23-1.09,.95-2.21,1.9-3.15,3.01-8.53,10.06-16.25,20.71-22.93,32.08-2.49,4.24-4.13,8.89-5.06,13.74-.24,1.26-.95,2.89,.57,3.71,1.31,.7,2.37-.57,3.32-1.32,4.37-3.45,8.23-7.42,11.51-11.92,5.83-8,11.41-16.17,16.88-24.42,1.81-2.73,3.36-5.61,4.52-8.68,.45-1.19,.88-2.39,.83-3.69-.09-2.2-1.55-3.74-3.8-3.73Zm-41.26,27.12c-.04,.72-.19,1.49,.53,1.98,.84,.57,1.57,.05,2.26-.36,.7-.41,1.39-.87,2.03-1.37,2.72-2.14,5.3-4.45,7.43-7.17,5.67-7.21,11.15-14.55,15.89-22.42,.94-1.55,1.8-3.15,2.33-4.9,.71-2.32,.23-4.31-1.37-5.38-1.85-1.24-3.63-.75-5.33,.38-1.75,1.17-3.21,2.67-4.52,4.3-5.75,7.17-10.64,14.92-15.2,22.88-1.49,2.6-2.46,5.45-3.35,8.32-.37,1.21-.69,2.45-.71,3.73Z"/><path d="M349.01,651.18c.1-1.13,.57-2.22,1.08-3.28,2.65-5.5,5.95-10.61,9.72-15.4,12.75-16.2,28.13-29.28,46.38-38.95,2.33-1.23,4.64-2.49,6.98-3.69,.8-.41,1.65-.8,2.52-1.01,1.37-.32,2.52,.2,3.29,1.38,.81,1.23,.55,2.42-.28,3.54-.67,.9-1.65,1.41-2.58,1.97-5.61,3.35-11.27,6.62-16.67,10.31-17.76,12.14-32.81,26.92-43.96,45.45-.47,.78-.93,1.57-1.67,2.13-.93,.71-1.94,.98-3.05,.47-1.06-.48-1.74-1.61-1.75-2.93Z"/><path d="M297.82,817.3c.1-2.29,.24-4.37,.89-6.38,1.7-5.31,10.04-10.96,15.51-10.49,4.92,.42,9.16,4.12,10.82,9.46,2.93,9.42-3.61,19.81-13.35,21.19-6.65,.94-12.35-3.44-13.54-10.47-.2-1.16-.23-2.35-.32-3.32Zm21.51-2.72c.02-3.37-2.01-6.69-4.51-7.41-2.68-.77-8.77,1.86-9.87,4.46-1.43,3.41-1.44,6.9,.32,10.23,1.15,2.17,3.22,3.17,5.4,2.82,4.77-.75,8.64-5.26,8.66-10.1Z"/><path d="M279.44,794.87c.03,1.63-.3,3.86-1.22,5.98-2.69,6.19-9.47,8.9-15.62,6.18-7.51-3.32-11.38-12.69-8.06-20.41,1.65-3.84,4.88-7.06,9-8.67,3.94-1.53,7.49-.28,10.52,2.48,3.44,3.14,5.43,8.37,5.38,14.44Zm-6.41-1.05c.15-1.95-.39-3.96-1.31-5.86-2.24-4.65-5.4-5.19-9.05-1.56-.64,.64-1.26,1.3-1.87,1.97-.63,.69-1.03,1.48-1.11,2.42-.22,2.82,.41,5.41,2.19,7.65,2.03,2.56,5.01,3.73,7.39,2.76,2.82-1.15,3.61-3.61,3.75-6.39,.01-.27,0-.54,0-1Z"/><path d="M350.29,843.59c-.34,5.01-2.41,9.21-6.72,12.05-8.27,5.44-18.72-.22-19.26-10.35-.21-3.96,1.44-7.42,2.97-10.91,.14-.32,.42-.62,.71-.81,4.56-2.93,9.31-4.48,14.62-1.98,5.04,2.37,7.4,6.44,7.68,11.99Zm-19.76,.58c-.03,3.48,1.71,6.08,4.6,6.87,3,.82,5.92-.6,7.64-3.73,1.77-3.23,1.47-6.64-.94-8.7-1.86-1.58-4.02-2.41-6.53-1.69-3.29,.94-4.72,3.12-4.76,7.25Z"/><path d="M243.31,670.49c1.39,.05,2.45,.91,3.5,1.79,9.35,7.92,18.7,15.83,28.02,23.77,3.18,2.71,6.31,5.46,9.43,8.24,2.24,2,2.63,3.7,1.31,5.09-1.2,1.26-3.09,1.1-5.08-.66-12.57-11.13-25.81-21.47-38.34-32.65-.47-.42-.93-.87-1.28-1.39-.6-.88-.73-1.84-.13-2.81,.58-.93,1.42-1.36,2.57-1.38Z"/><path d="M274.35,723.74c.01,2.02-1.58,3.25-3.36,2.87-1.03-.22-1.77-.89-2.5-1.58-12.07-11.3-24.15-22.6-36.22-33.9-.2-.19-.4-.37-.58-.57-1.41-1.57-1.64-3.2-.61-4.39,1.12-1.29,2.86-1.33,4.6,.17,2.95,2.56,5.82,5.22,8.66,7.89,9.26,8.72,18.5,17.46,27.75,26.2,1.06,1,2.15,1.99,2.26,3.3Z"/><path d="M970.54,424.69c.01,5.85-1.86,10.44-5.89,14-3.46,3.07-7.51,4.12-11.85,2.25-4.26-1.83-6.1-5.45-6.32-9.98-.25-5.13,1.47-9.6,4.46-13.67,1.01-1.37,2.27-2.35,4.1-2.24,.95,.06,1.77-.35,2.57-.77,5.85-3.07,11,1.1,12.29,5.52,.52,1.77,.62,3.56,.65,4.89Zm-6.29-.18c-.03-.66-.01-1.94-.6-3.11-.48-.96-1.21-1.83-2.3-1.54-2.63,.7-5.39,1.62-7.07,3.72-1.57,1.96-1.97,4.66-1.64,7.27,.24,1.87,.95,3.58,2.87,4.3,2.03,.77,3.74-.09,5.19-1.47,2.43-2.32,3.5-5.23,3.55-9.16Z"/><path d="M974.13,449.6c9.18-.19,14.69,6.18,13.19,14.76-.56,3.23-2.07,5.99-4.34,8.33-6.2,6.39-16.04,4.31-19.27-4.05-2.55-6.61,.81-15.04,7.2-18.09,1.16-.55,2.39-.85,3.22-.95Zm7.37,12.5c.06-4-4.9-7.5-8.09-6.11-4.57,1.99-5.84,9.45-2.17,12.78,2.11,1.91,4.46,2.05,6.63,.26,2.29-1.89,3.41-4.4,3.63-6.92Z"/><path d="M941.1,499.77c-.19-5.82,5-12.68,10.23-14.38,4.77-1.55,8.07,.26,11.4,2.87,1.47,1.15,2.14,2.88,2.26,4.79,.32,5.48-1.46,10.19-5.28,14.07-2.67,2.72-6.01,4.14-9.86,3.62-5.52-.75-8.83-5.03-8.75-10.97Zm6.23,.4c-.05,1.4,.41,2.98,2.16,3.91,1.75,.94,3.39,.4,4.83-.63,2.74-1.96,4.03-4.81,4.38-8.08,.25-2.26-.78-3.71-2.98-4.09-1.81-.31-3.63-.13-5.05,1.27-2.01,1.97-3.27,4.3-3.34,7.62Z"/><path d="M833.54,367.63c0-3.36-.01-6.72,0-10.08,0-.91,0-1.83,.17-2.71,.26-1.39,1.1-2.28,2.58-2.35,1.34-.06,2.2,.65,2.72,1.85,.38,.86,.41,1.76,.41,2.67,0,7.17-.01,14.34-.01,21.51,0,1.01-.07,1.99-.53,2.91-.56,1.1-1.48,1.55-2.67,1.49-1.13-.06-1.81-.73-2.24-1.72-.37-.86-.31-1.78-.31-2.68-.01-3.63,0-7.26,0-10.89h-.11Z"/><path d="M781.13,400.43c.02,2.82-.73,3.98-2.26,4.22-1.64,.26-3-.7-3.39-2.78-.85-4.55-1.6-9.11-2.26-13.69-.31-2.16,.8-3.71,2.46-3.94,1.5-.21,2.92,.84,3.31,2.94,.86,4.63,1.51,9.31,2.14,13.25Z"/><path d="M536.06,533.47c-.09,1.43-.64,2.44-1.86,2.91-1.26,.48-2.34,.02-3.1-1.03-.42-.57-.74-1.25-.97-1.93-2.6-7.53-5.19-15.06-7.75-22.6-.32-.93-.54-1.92-.63-2.9-.13-1.42,.54-2.47,1.92-2.93,1.43-.47,2.48,.19,3.21,1.36,.38,.6,.6,1.31,.83,2,2.49,7.37,4.98,14.75,7.46,22.13,.34,1.03,.62,2.08,.89,2.99Z"/><path d="M509.74,511.43c.19-1.22,.73-2.22,2.03-2.58,1.29-.36,2.35,.11,3.09,1.16,.41,.59,.7,1.27,.95,1.95,2.78,7.29,5.54,14.58,8.29,21.88,.32,.84,.67,1.68,.69,2.62,.03,1.3-.37,2.37-1.67,2.81-1.35,.46-2.53,.09-3.33-1.13-.39-.6-.68-1.28-.94-1.95-2.79-7.19-5.57-14.38-8.34-21.57-.39-1.01-.82-2.02-.79-3.18Z"/><path d="M346.97,608.26c.05,1-.36,1.82-1.2,2.29-1.02,.57-2.14,.56-3.09-.14-.72-.53-1.35-1.21-1.93-1.9-4.87-5.87-9.71-11.75-14.56-17.63-.63-.77-1.27-1.53-1.51-2.55-.27-1.17-.04-2.17,.92-2.92,.96-.75,2.01-.73,3.07-.2,.84,.42,1.43,1.11,2,1.81,4.95,6.03,9.9,12.06,14.84,18.11,.75,.91,1.49,1.85,1.45,3.14Z"/></svg>