<?xml version="1.0" encoding="UTF-8" standalone="no"?>
<svg
   width="100%"
   height="100%"
   viewBox="0 0 1749 1749"
   version="1.1"
   xml:space="preserve"
   style="fill-rule:evenodd;clip-rule:evenodd;stroke-linecap:round;stroke-linejoin:round;stroke-miterlimit:1.5;"
   id="svg309"
   sodipodi:docname="obed.svg"
   inkscape:version="1.1.2 (0a00cf5339, 2022-02-04)"
   xmlns:inkscape="http://www.inkscape.org/namespaces/inkscape"
   xmlns:sodipodi="http://sodipodi.sourceforge.net/DTD/sodipodi-0.dtd"
   xmlns="http://www.w3.org/2000/svg"
   xmlns:svg="http://www.w3.org/2000/svg"><defs
   id="defs313" /><sodipodi:namedview
   id="namedview311"
   pagecolor="#ffffff"
   bordercolor="#666666"
   borderopacity="1.0"
   inkscape:pageshadow="2"
   inkscape:pageopacity="0.0"
   inkscape:pagecheckerboard="0"
   showgrid="false"
   inkscape:zoom="0.99828473"
   inkscape:cx="574.4854"
   inkscape:cy="972.66839"
   inkscape:window-width="3840"
   inkscape:window-height="2091"
   inkscape:window-x="0"
   inkscape:window-y="32"
   inkscape:window-maximized="1"
   inkscape:current-layer="svg309" />
    <g
   transform="matrix(0.99946,0.0328482,-0.0342596,1.0424,39.8716,28.3707)"
   id="g10">
        <path
   d="M136.718,1399.44C174.042,1514.63 208.748,1523.23 226.956,1394.99C240.334,1268.27 244.752,1143.41 233.793,1021.76L206.685,724.759C203.336,684.124 208.456,648.861 217.799,616.276C249.857,573.089 263.635,517.176 268.701,455.199L262.707,265.515C252.888,227.066 245.37,237.948 233.794,264.984C233.794,264.984 232.156,426.65 232.14,429.279C231.919,466.846 204.588,460.429 204.399,428.337L202.576,268.56C189.942,226.175 181.656,236.047 172.602,267.661L170.089,429.684C160.16,459.019 151.15,460.687 143.367,425.521"
   style="fill:none;stroke:black;stroke-width:12.23px;"
   id="path2" />
        <path
   d="M134.532,243.303C140.057,249.378 144.062,256.824 145.611,266.485L143.367,425.521L145.611,266.485C144.381,256.766 139.995,249.599 134.532,243.303Z"
   style="fill:none;stroke:black;stroke-width:12.23px;"
   id="path4" />
        <path
   d="M117.463,267.719L117.843,268.839L115.508,425.816C115.508,440.058 109.224,482.381 91.495,414.251C82.557,367.317 92.864,324.998 88.287,268.214L71.368,240.807L55.552,273.602C52.951,338.683 52.43,390.756 57.808,444.403C61.713,503.465 81.524,562.607 104.68,616.228C120.195,648.464 122.549,677.767 121.924,706.406L104.329,1038.18C102.336,1168.68 107.421,1292.78 135.134,1396.4"
   style="fill:none;stroke:black;stroke-width:12.23px;"
   id="path6" />
        <path
   d="M118.201,263.455C121.119,254.197 126.494,247.399 131.925,242.441"
   style="fill:none;stroke:black;stroke-width:12.23px;"
   id="path8" />
    </g>
    <g
   transform="matrix(0.99937,-0.0354977,0.0354977,0.99937,-41.0131,76.1908)"
   id="g14">
        <path
   d="M1535.78,1450.79C1556.27,1536.74 1588.42,1581.48 1633.28,1529.35L1657.1,237.338C1609.27,258.241 1560.26,305.306 1513.88,403.975C1488.38,488.367 1489.55,543.524 1505.32,606.283C1536.02,642.496 1561.66,687.586 1576.35,701.124L1575.35,833.861L1548.95,1151.76C1531.26,1249.39 1526.57,1354.15 1535.78,1450.79Z"
   style="fill:none;stroke:black;stroke-width:12.5px;"
   id="path12" />
    </g>
    <g
   transform="matrix(1.06609,0,0,1.11178,-92.5911,-232.477)"
   id="g18">
        <ellipse
   cx="925.07"
   cy="996.017"
   rx="546.808"
   ry="287.555"
   style="fill:none;stroke:black;stroke-width:18.66px;"
   id="ellipse16" />
    </g>
    <g
   transform="matrix(1.09573,0,0,0.938552,4.68183,-118.558)"
   id="g22">
        <path
   id="ellipse20"
   style="fill:none;stroke:#000000;stroke-width:12.45px"
   d="m 1076.218,866.57219 c 5.2976,2.82734 10.4818,5.74394 15.546,8.74814 76.101,45.14475 118.854,106.37491 118.854,170.21967 0,63.8448 -42.7531,125.0746 -118.854,170.2197 -76.101,45.1451 -179.316,70.5073 -286.93899,70.5073 -224.11328,0 -405.79304,-107.7771 -405.793,-240.727 4e-5,-127.07922 165.98924,-231.15973 376.36491,-240.10365"
   sodipodi:nodetypes="csssssc" />
    </g>
    <g
   id="Слой4">
        <g
   id="Слой5">
            <path
   d="m 889.493,1484.31 c 2.703,0.88 0.39,-27.14 0.39,-43.3"
   style="fill:none;stroke:#000000;stroke-width:6.25px"
   id="path24" />
            <path
   d="m 870.562,1453.81 c -4.158,-1.07 8.11,5 10.4,6.83 7.197,5.76 17.386,11.6 26.765,11.6"
   style="fill:none;stroke:#000000;stroke-width:6.25px"
   id="path26" />
            <path
   d="m 878.006,1480.89 c -0.818,0.36 -1.475,1.99 -0.613,0.27 6.468,-12.94 21.763,-24.44 32.118,-34.8"
   style="fill:none;stroke:#000000;stroke-width:6.25px"
   id="path28" />
            <path
   d="m 874.326,1466.08 c -3.858,-0.7 0.617,1.7 3.959,1.7 9.306,0 18.264,-1.79 27.657,-1.79"
   style="fill:none;stroke:#000000;stroke-width:6.25px"
   id="path30" />
            <path
   d="m 964.212,1414.46 c -1.074,-4.26 -0.279,15.72 -0.279,21.2 0,1.64 0.892,8.04 0.892,7.14"
   style="fill:none;stroke:#000000;stroke-width:6.25px"
   id="path32" />
            <path
   d="m 949.742,1430.79 c -2.505,1.05 38.279,-6.14 38.279,-9.41"
   style="fill:none;stroke:#000000;stroke-width:6.25px"
   id="path34" />
            <path
   d="m 951.777,1416.14 c -6.626,-0.57 17.777,19.52 23.754,19.52"
   style="fill:none;stroke:#000000;stroke-width:6.25px"
   id="path36" />
            <path
   d="m 953.896,1444.48 c 2.734,-9.66 14.534,-26.7 21.635,-33.8"
   style="fill:none;stroke:#000000;stroke-width:6.25px"
   id="path38" />
            <path
   d="m 1016.99,1364.48 c -0.89,-2.31 -0.42,-9.06 -0.42,-5.55 0,10.83 1.79,22.33 1.79,32.12"
   style="fill:none;stroke:#000000;stroke-width:6.25px"
   id="path40" />
            <path
   d="m 1003.63,1376.3 c -0.69,-0.65 0.33,0.48 1.34,0.48 11.91,0 23.93,-8.03 35.69,-8.03"
   style="fill:none;stroke:#000000;stroke-width:6.25px"
   id="path42" />
            <path
   d="m 1005.53,1363.77 c -2.13,-1.44 17.19,18.36 27.1,18.36"
   style="fill:none;stroke:#000000;stroke-width:6.25px"
   id="path44" />
            <path
   d="m 1006.12,1392.48 c -0.95,4.71 1.51,-4.08 3.31,-7.67 4.55,-9.09 12.25,-18.5 19.63,-25.88"
   style="fill:none;stroke:#000000;stroke-width:6.25px"
   id="path46" />
            <path
   d="m 831.474,1414.35 c -3.14,-0.69 1.311,22.69 1.311,31.12"
   style="fill:none;stroke:#000000;stroke-width:6.25px"
   id="path48" />
            <path
   d="m 819.291,1430.79 c -8.874,2.16 20.587,-3.16 27.768,-3.16"
   style="fill:none;stroke:#000000;stroke-width:6.25px"
   id="path50" />
            <path
   d="m 809.226,1412.94 c 11.53,3.83 27.003,18.13 35.157,26.29"
   style="fill:none;stroke:#000000;stroke-width:6.25px"
   id="path52" />
            <path
   d="m 820.35,1443.99 c -0.452,-9.69 16.577,-30.03 24.925,-34.2"
   style="fill:none;stroke:#000000;stroke-width:6.25px"
   id="path54" />
            <path
   d="m 779.868,1380.1 c 0.559,-1.29 0.279,-4.22 0.279,-4.22 v 6.25 c 0,10.35 4.461,20.48 4.461,30.33"
   style="fill:none;stroke:#000000;stroke-width:6.25px"
   id="path56" />
            <path
   d="m 769.804,1393.19 c -2.467,3.66 21.515,-2.14 28.186,-2.14"
   style="fill:none;stroke:#000000;stroke-width:6.25px"
   id="path58" />
            <path
   d="m 766.123,1378.42 c -4.144,0.5 5.008,7.38 5.995,8.17 4.911,3.93 17.482,15.17 23.196,15.17"
   style="fill:none;stroke:#000000;stroke-width:6.25px"
   id="path60" />
            <path
   d="m 774.655,1404.53 c 0.377,2.15 0.008,-1.49 0.139,-1.88 3.377,-10.13 10.112,-21.71 17.843,-29.44"
   style="fill:none;stroke:#000000;stroke-width:6.25px"
   id="path62" />
            <path
   d="m 891.504,1387.95 c -1.463,-0.92 -0.574,-5.15 -0.574,-5.15 v 4.79 c 0,9.09 1.597,17.4 1.597,26.36"
   style="fill:none;stroke:#000000;stroke-width:6.25px"
   id="path64" />
            <path
   d="m 881.018,1405.3 c -8.75,-2.53 21.373,-6.52 27.487,-6.52"
   style="fill:none;stroke:#000000;stroke-width:6.25px"
   id="path66" />
            <path
   d="m 878.147,1383.96 c -1.287,-0.58 16.039,22.8 25.565,22.8"
   style="fill:none;stroke:#000000;stroke-width:6.25px"
   id="path68" />
            <path
   d="m 881.443,1412.3 c -1.966,0.13 -0.618,-2.9 -0.1,-3.94 5.321,-10.64 17.173,-14.77 24.766,-22.37"
   style="fill:none;stroke:#000000;stroke-width:6.25px"
   id="path70" />
            <path
   d="m 882.391,1401.61 c -2.623,0.91 -8.572,-2.5 -11.434,0.36"
   style="fill:none;stroke:#000000;stroke-width:6.25px"
   id="path72" />
            <path
   d="m 1069.09,1323.44 c 0,-10.81 1.59,12.38 1.59,15.42 0,1.88 0.8,7.06 0.8,6.39"
   style="fill:none;stroke:#000000;stroke-width:6.25px"
   id="path74" />
            <path
   d="m 1058.28,1336.23 c -5.61,1.1 19.65,-9.36 25.18,-9.36"
   style="fill:none;stroke:#000000;stroke-width:6.25px"
   id="path76" />
            <path
   d="m 1058.08,1321.51 c -0.62,0.36 18.49,12.85 22.99,17.35"
   style="fill:none;stroke:#000000;stroke-width:6.25px"
   id="path78" />
            <path
   d="m 1064.12,1341.33 c -3.3,3.83 0.36,-3.65 0.97,-4.87 4.07,-8.14 11.17,-19.16 17.58,-25.56"
   style="fill:none;stroke:#000000;stroke-width:6.25px"
   id="path80" />
            <path
   d="m 737.89,1337.6 c -3.555,4.69 2.846,23.92 2.846,30.82"
   style="fill:none;stroke:#000000;stroke-width:6.25px"
   id="path82" />
            <path
   d="m 724.633,1353.78 c -2.05,0.77 23.356,1.85 29.684,1.85"
   style="fill:none;stroke:#000000;stroke-width:6.25px"
   id="path84" />
            <path
   d="m 725.906,1341.96 c -2.626,6.7 18.335,18.78 23.618,24.06"
   style="fill:none;stroke:#000000;stroke-width:6.25px"
   id="path86" />
            <path
   d="m 728.353,1367 c 0.228,0.35 2.165,-3.79 4.394,-6.57 4.448,-5.56 8.92,-18.44 15.179,-21.57"
   style="fill:none;stroke:#000000;stroke-width:6.25px"
   id="path88" />
            <path
   d="m 764.179,1395.48 c 3.353,0.64 6.666,-0.7 10.111,-0.7"
   style="fill:none;stroke:#000000;stroke-width:6.25px"
   id="path90" />
            <path
   d="m 1189.07,1206.31 c -2.05,5.16 0.55,21.91 4.1,25.46"
   style="fill:none;stroke:#000000;stroke-width:6.25px"
   id="path92" />
            <path
   d="m 1175.32,1224.94 c -0.02,0 5.19,-1.24 23.61,-5.84 3.54,-0.89 9.51,-5.76 11.52,-5.76"
   style="fill:none;stroke:#000000;stroke-width:6.25px"
   id="path94" />
            <path
   d="m 1174.85,1207.71 c -4.3,-0.43 24.41,18.3 34.45,18.3"
   style="fill:none;stroke:#000000;stroke-width:6.25px"
   id="path96" />
            <path
   d="m 1180.07,1239.88 c 3.92,-10.85 20.01,-28.45 20.01,-39.21"
   style="fill:none;stroke:#000000;stroke-width:6.25px"
   id="path98" />
            <path
   d="m 609.329,1213.04 c -6.107,1.43 7.919,46.36 7.919,41.77"
   style="fill:none;stroke:#000000;stroke-width:6.25px"
   id="path100" />
            <path
   d="m 595.111,1229.22 c -6.74,1.86 40.567,-0.12 40.567,2.55"
   style="fill:none;stroke:#000000;stroke-width:6.25px"
   id="path102" />
            <path
   d="m 591.26,1211.84 c -11.844,2.53 27.504,29.15 35.203,29.15"
   style="fill:none;stroke:#000000;stroke-width:6.25px"
   id="path104" />
            <path
   d="m 603.822,1246.31 c -7.91,2.21 14.764,-31.91 21.489,-35.27"
   style="fill:none;stroke:#000000;stroke-width:6.25px"
   id="path106" />
            <path
   d="m 607.1,1225.77 c -2.476,0.76 -6.977,3.21 -9.23,5.46"
   style="fill:none;stroke:#000000;stroke-width:6.25px"
   id="path108" />
            <path
   d="m 596.837,1231.36 v -0.13"
   style="fill:none;stroke:#000000;stroke-width:6.25px"
   id="path110" />
            <path
   d="m 595.739,1231.54 c 0.022,-0.11 0.043,-0.21 0.065,-0.31"
   style="fill:none;stroke:#000000;stroke-width:6.25px"
   id="path112" />
            <path
   d="m 594.771,1232.05 v 0.21"
   style="fill:none;stroke:#000000;stroke-width:6.25px"
   id="path114" />
            <path
   d="m 593.125,1231.24 c -0.14,-0.01 -0.28,-0.01 -0.419,-0.01"
   style="fill:none;stroke:#000000;stroke-width:6.25px"
   id="path116" />
            <path
   d="m 592.996,1231.24 c -0.097,-0.01 -0.194,-0.01 -0.29,-0.01"
   style="fill:none;stroke:#000000;stroke-width:6.25px"
   id="path118" />
            <path
   d="m 590.672,1230.55 c -0.01,-0.12 -0.021,-0.24 -0.032,-0.35"
   style="fill:none;stroke:#000000;stroke-width:6.25px"
   id="path120" />
            <path
   d="m 602.582,1250.65 c 0.766,0.35 -0.22,0.2 -0.581,0.2"
   style="fill:none;stroke:#000000;stroke-width:6.25px"
   id="path122" />
            <path
   d="m 602.872,1248.07 c 0.054,-0.11 0.108,-0.21 0.162,-0.31"
   style="fill:none;stroke:#000000;stroke-width:6.25px"
   id="path124" />
            <path
   d="m 603.55,1246.56 c 0.401,-3.08 2.582,-6.61 2.582,-9.13"
   style="fill:none;stroke:#000000;stroke-width:6.25px"
   id="path126" />
            <g
   transform="matrix(0.998464,0,0,1.12027,-1.47788,-325.708)"
   id="g130">
                <path
   id="ellipse128"
   style="fill:none;stroke:#000000;stroke-width:5.89px"
   d="m 1094.931,843.7218 c 63.1891,12.15561 121.2639,30.23509 170.4337,53.49568 96.7332,45.76112 151.0773,107.82652 151.0773,172.54252 0,64.716 -54.3441,126.7814 -151.0772,172.5425 -96.7332,45.7612 -227.9315,71.4695 -364.73278,71.4695 -136.80132,0 -267.99962,-25.7083 -364.73276,-71.4695 -96.73314,-45.7611 -151.07725,-107.8265 -151.07724,-172.5425 10e-6,-64.716 54.34412,-126.7814 151.07726,-172.54253 96.73314,-45.76112 227.93143,-71.46945 364.73274,-71.46945 25.70343,0 51.20906,0.90756 76.32545,2.68517"
   sodipodi:nodetypes="cssssssssc" />
            </g>
        </g>
        
        
        
        
        <path
   d="m 581.232,1009.02 c -3.196,6.99 -41.376,-9.484 -48.091,-11.722 -4.941,-1.647 -7.401,-10.181 -11.233,-12.097 -0.405,-0.203 -2.213,-2.593 -2.592,-2.593 -1.551,0 0.868,3.03 1.728,4.321 3.423,5.134 8.986,12.327 13.825,15.551 14.545,9.7 35.006,14.69 52.709,14.69 2.937,0 8.64,-1.73 8.64,-1.73 0,0 -6.865,1.73 -10.369,1.73 -17.57,0 -39.311,-1.29 -52.708,-14.69 -1.923,-1.92 -16.836,-22.464 -15.553,-22.464 1.462,0 5.257,6.788 6.048,7.777 7.361,9.2 17.445,17.207 27.651,23.327 19.854,11.91 43.998,4.16 64.805,0"
   style="fill:none;stroke:#000000;stroke-width:12.7px"
   id="path141" />
        <path
   d="m 318.862,932.499 -24.037,63.388 601.012,535.733 595.943,-537.082 -17.07,-78.791"
   style="fill:none;stroke:#000000;stroke-width:11.43px"
   id="path143" />
    </g>
    <g
   transform="matrix(0.886285,0.125495,-0.122227,0.863205,206.552,-11.0042)"
   id="g190">
        <path
   d="m 1193.03,958.32 c -5.04,7.463 -17.44,4.704 -24.54,11.801 -6.88,6.885 -18.34,6.402 -27.57,9.479 -39.23,13.075 -43.06,-27.132 -64.63,-37.916 -16.17,-8.086 -62.57,5.249 -79.279,-19.82 -4.116,-6.173 -11.957,-26.066 -7.756,-34.469 9.876,-19.752 41.845,-99.96 -4.308,-99.96"
   style="fill:none;stroke:#000000;stroke-width:12.94px"
   id="path146" />
        <path
   d="m 1194.83,958.679 c -3.53,1.741 6.79,-4.931 10.72,-4.931 12.01,0 20.37,-2.089 30.16,-8.617 27.16,-18.109 35.17,-42.619 44.81,-71.523 6.99,-20.97 -13.21,-34.215 -10.34,-45.672 1.64,-6.552 8.28,-12.259 11.2,-18.096 5.94,-11.889 5.13,-27.39 7.75,-40.501 12,-59.963 -51.35,-119.78 -103.4,-119.78"
   style="fill:none;stroke:#000000;stroke-width:12.94px"
   id="path148" />
        <path
   d="m 1085.63,945.208 c -6.68,-0.711 -3.62,-27.026 -1.58,-31.099 10.54,-21.081 32.79,-40.763 56.01,-47.395 20.24,-5.784 40.92,-3.881 60.32,2.585 16.4,5.467 12.55,29.053 31.02,19.82"
   style="fill:none;stroke:#000000;stroke-width:12.94px"
   id="path150" />
        <path
   d="m 1007.65,844.876 c -3.22,-6.156 1.66,-10.516 4.01,-15.216 16.83,-33.654 77.31,-56.293 115.47,-50.842 39.37,5.625 46.8,74.219 84.45,49.118"
   style="fill:none;stroke:#000000;stroke-width:12.94px"
   id="path152" />
        <path
   d="m 1270.88,826.735 c 1.59,-5.142 -22.06,-11.201 -26.55,-13.448 -19.27,-9.633 -34.02,-21.035 -41.37,-43.086 -13.3,-39.907 41.37,-55.764 41.37,-39.639"
   style="fill:none;stroke:#000000;stroke-width:12.94px"
   id="path154" />
        <path
   d="m 986.832,785.675 c -37.045,1.322 -20.326,-36.156 -52.727,-36.156"
   style="fill:none;stroke:#000000;stroke-width:12.94px"
   id="path156" />
        <path
   d="m 931.708,748.675 c -0.062,-0.006 -0.125,-0.011 -0.188,-0.017"
   style="fill:none;stroke:#000000;stroke-width:12.94px"
   id="path158" />
        <path
   d="m 930.685,748.567 c -0.009,0.03 -0.018,0.061 -0.027,0.091"
   style="fill:none;stroke:#000000;stroke-width:12.94px"
   id="path160" />
        <path
   d="m 929.554,748.352 c -1.134,0.56 -0.389,0.306 -2.343,0.306"
   style="fill:none;stroke:#000000;stroke-width:12.94px"
   id="path162" />
        <path
   d="m 925.999,747.885 c -1.285,-0.223 -2.651,-0.089 -3.958,-0.089"
   style="fill:none;stroke:#000000;stroke-width:12.94px"
   id="path164" />
        <path
   d="m 918.352,746.412 c 0.08,-0.113 0.161,-0.226 0.242,-0.339"
   style="fill:none;stroke:#000000;stroke-width:12.94px"
   id="path166" />
        <path
   d="m 917.194,745.837 c -1.22,-0.645 -1.601,-0.626 -2.909,-0.626"
   style="fill:none;stroke:#000000;stroke-width:12.94px"
   id="path168" />
        <path
   d="m 884.078,746.551 c -1.753,2.942 -20.408,-7.473 -23.488,-9.527 -22.644,-15.096 -39.648,-34.021 -47.62,-57.938 -3.096,-9.286 2.498,-23.724 3.968,-32.54 2.988,-17.928 21.259,-60.905 46.827,-52.383 9.134,3.045 14.465,6.35 23.81,6.35"
   style="fill:none;stroke:#000000;stroke-width:12.94px"
   id="path170" />
        <path
   d="m 1294.43,782.614 c -1.43,1.278 12.44,-8.613 20.93,8.38 12.3,24.592 18.25,21.388 23.81,49.208 7.92,39.563 -37.9,112.506 -64.28,138.892 -15.63,15.626 -38.88,14.281 -57.94,20.636 -59.44,19.81 -122.17,14.34 -166.67,-30.16 -11.06,-11.061 -27.47,-19.531 -35.72,-27.778 -0.42,-0.421 -1.58,-0.811 -1.58,-1.588"
   style="fill:none;stroke:#000000;stroke-width:12.94px"
   id="path172" />
        <path
   d="m 835.33,668.711 c -10.014,-1.637 9.477,-50.334 24.667,-57.929 14.462,-7.231 64.221,-9.071 69.799,-14.649 3.828,-3.828 9.354,-13.537 12.065,-18.958 9.724,-19.449 44.94,-34.513 65.489,-41.363 11.44,-3.813 23.07,1.674 33.61,4.309 47.08,11.771 32.85,59.079 68.08,76.693 21.14,10.574 85.31,-2.193 85.31,32.745"
   style="fill:none;stroke:#000000;stroke-width:12.94px"
   id="path174" />
        <path
   d="m 956.887,747.777 c -1.107,2.586 -3.444,-1.427 -3.824,-2.566 -4.21,-12.63 -4.331,-21.43 -1.724,-34.469 5.409,-27.043 25.883,-35.341 49.121,-43.086 20.14,-6.714 60.2,-1.476 73.24,18.096 3.8,5.695 8.62,16.805 14.65,19.82 5.84,2.916 10.18,-0.525 12.93,-6.033"
   style="fill:none;stroke:#000000;stroke-width:12.94px"
   id="path176" />
        <path
   d="m 905.533,735.563 c -4.58,1.063 -20.534,-10.159 -23.993,-13.619"
   style="fill:none;stroke:#000000;stroke-width:12.94px"
   id="path178" />
        <path
   d="m 878.443,718.895 c -42.718,-30.869 -18.906,-92.866 34.119,-82.261 33.453,6.69 44.629,34.128 9.479,51.703"
   style="fill:none;stroke:#000000;stroke-width:12.94px"
   id="path180" />
        <path
   d="m 968.762,621.006 c -4.192,0.466 1.336,-4.854 3.259,-6.777"
   style="fill:none;stroke:#000000;stroke-width:12.94px"
   id="path182" />
        <path
   d="m 975.629,611.307 c 1.026,-0.769 0.494,-0.319 1.562,-1.387"
   style="fill:none;stroke:#000000;stroke-width:12.94px"
   id="path184" />
        <path
   d="m 978.942,608.433 c 45.218,-29.26 62.488,17.666 95.628,34.233"
   style="fill:none;stroke:#000000;stroke-width:12.94px"
   id="path186" />
        <path
   d="m 1134,663.107 c -4.69,1.347 4.13,-1.483 6.92,-1.483 10.76,0 22.07,9.536 24.13,19.819 6.38,31.905 -11.99,54.366 14.65,81.002"
   style="fill:none;stroke:#000000;stroke-width:12.94px"
   id="path188" />
    </g>
    <g
   id="Слой1"
   transform="translate(4.28189,48.5945)">
        <g
   transform="matrix(0.622943,-0.0906315,0.0773588,0.624587,243.735,432.516)"
   id="g194">
            <circle
   cx="841.422"
   cy="949.96997"
   r="28.191"
   style="fill:none;stroke:#000000;stroke-width:12.24px"
   id="circle192" />
        </g>
        <g
   transform="matrix(0.889179,0,0,0.733382,69.8073,247.726)"
   id="g198">
            <ellipse
   cx="928.85699"
   cy="970.10999"
   rx="17.191"
   ry="19.565001"
   style="fill:none;stroke:#000000;stroke-width:9.35px"
   id="ellipse196" />
        </g>
        <g
   transform="matrix(1.18227,0,0,1.18499,-161.981,-172.954)"
   id="g202">
            <ellipse
   cx="878.40399"
   cy="925.34302"
   rx="10.302"
   ry="9.6040001"
   style="fill:none;stroke:#000000;stroke-width:6.44px"
   id="ellipse200" />
        </g>
        <ellipse
   cx="926.11902"
   cy="1005.28"
   rx="12.281"
   ry="12.163"
   style="fill:none;stroke:#000000;stroke-width:7.62px"
   id="ellipse204" />
        <ellipse
   cx="941.41498"
   cy="967.14301"
   rx="12.576"
   ry="11.652"
   style="fill:none;stroke:#000000;stroke-width:7.62px"
   id="ellipse206" />
        <ellipse
   cx="923.29303"
   cy="921.77502"
   rx="14.459"
   ry="12.522"
   style="fill:none;stroke:#000000;stroke-width:7.62px"
   id="ellipse208" />
        <g
   transform="matrix(0.941601,0.0738519,-0.0857445,1.09323,128.024,-148.173)"
   id="g212">
            <ellipse
   cx="890.96997"
   cy="893.836"
   rx="11.703"
   ry="9.9300003"
   style="fill:none;stroke:#000000;stroke-width:7.45px"
   id="ellipse210" />
        </g>
        <g
   transform="translate(22.1214,8.71512)"
   id="g216">
            <circle
   cx="848.75098"
   cy="995.29498"
   r="16.954"
   style="fill:none;stroke:#000000;stroke-width:7.62px"
   id="circle214" />
        </g>
        <g
   transform="rotate(-4.7296009,935.1801,882.8549)"
   id="g220">
            <ellipse
   cx="935.17999"
   cy="882.85498"
   rx="12.91"
   ry="13.339"
   style="fill:none;stroke:#000000;stroke-width:7.62px"
   id="ellipse218" />
        </g>
        <ellipse
   cx="818.64502"
   cy="986.52899"
   rx="15.409"
   ry="14.07"
   style="fill:none;stroke:#000000;stroke-width:7.62px"
   id="ellipse222" />
        <g
   transform="rotate(14.685074,840.69388,906.62901)"
   id="g226">
            <ellipse
   cx="840.69397"
   cy="906.62598"
   rx="12.547"
   ry="11.758"
   style="fill:none;stroke:#000000;stroke-width:7.62px"
   id="ellipse224" />
        </g>
        <ellipse
   cx="973.164"
   cy="944.84399"
   rx="14.363"
   ry="13.232"
   style="fill:none;stroke:#000000;stroke-width:7.62px"
   id="ellipse228" />
        <ellipse
   cx="962.93597"
   cy="911.08301"
   rx="9.6809998"
   ry="8.7130003"
   style="fill:none;stroke:#000000;stroke-width:7.62px"
   id="ellipse230" />
        <ellipse
   cx="981.58698"
   cy="1002.5"
   rx="15.102"
   ry="14.315"
   style="fill:none;stroke:#000000;stroke-width:7.62px"
   id="ellipse232" />
        <ellipse
   cx="795.974"
   cy="944.31097"
   rx="12.998"
   ry="12.931"
   style="fill:none;stroke:#000000;stroke-width:7.62px"
   id="ellipse234" />
        <ellipse
   cx="901.44299"
   cy="860.30298"
   rx="11.756"
   ry="11.288"
   style="fill:none;stroke:#000000;stroke-width:7.62px"
   id="ellipse236" />
        <ellipse
   cx="1007.98"
   cy="974.04602"
   rx="11.609"
   ry="12.8"
   style="fill:none;stroke:#000000;stroke-width:7.62px"
   id="ellipse238" />
    </g>
    <g
   id="Слой2"
   transform="matrix(1.2287,0,0,1.2287,-166.534,-204.215)">
        <path
   d="m 559.545,938.4 c 0.447,0.504 -1.247,2.339 -2.206,1.38 -4.11,-4.11 -0.594,-22.919 0.883,-27.35 5.024,-15.074 19.122,-24.129 26.467,-38.819 7.827,-15.654 20.931,-2.084 30.879,-7.058 5.529,-2.764 9.276,-9.49 14.999,-12.352 7.684,-3.842 19.889,0.643 28.232,-3.529"
   style="fill:none;stroke:#000000;stroke-width:10.34px"
   id="path241" />
        <path
   d="m 662.218,849.984 c 0.036,-0.065 0.073,-0.129 0.11,-0.194"
   style="fill:none;stroke:#000000;stroke-width:10.34px"
   id="path243" />
        <path
   d="m 664.313,849.616 c 11.474,1.291 25.312,-8.96 36.834,-5.12 18.25,6.084 40.696,24.76 58.229,33.526 29.945,14.973 8.569,87.187 -16.763,93.52 -35.167,8.791 -66.818,15.772 -103.224,9.704 -19.081,-3.18 -45.662,-13.126 -61.758,-21.174 -9.422,-4.711 -8.564,-19.409 -21.174,-19.409"
   style="fill:none;stroke:#000000;stroke-width:10.34px"
   id="path245" />
        <path
   d="m 555.216,941.563 c -6.224,-0.217 0.13,24.882 1.241,28.214 6.339,19.017 35.787,26.633 51.171,31.763 6.089,2.03 14.046,-1.563 20.292,0 23.072,5.77 37.805,6.51 59.993,-0.88 10.911,-3.641 29.416,4.26 39.702,-0.886 26.32,-13.16 42.348,-37.796 42.348,-67.052"
   style="fill:none;stroke:#000000;stroke-width:10.34px"
   id="path247" />
        <path
   d="m 582.236,913.979 c -2.209,0.443 -1.028,-4.709 -0.193,-5.96 5.065,-7.598 33.525,-10.34 33.525,0"
   style="fill:none;stroke:#000000;stroke-width:10.34px"
   id="path249" />
        <path
   d="m 609.641,922.769 c -4.413,0.969 9.684,22.134 23.572,11.718"
   style="fill:none;stroke:#000000;stroke-width:10.34px"
   id="path251" />
        <path
   d="m 648.874,911.184 c -1.736,0.955 -9.329,-5.449 9.043,-14.634"
   style="fill:none;stroke:#000000;stroke-width:10.34px"
   id="path253" />
        <path
   d="m 635.75,878.377 c -9.367,-4.308 0.424,-5.648 10.697,-5.648"
   style="fill:none;stroke:#000000;stroke-width:10.34px"
   id="path255" />
        <path
   d="m 670.875,937.591 c 2.242,-3.72 6.345,-0.457 13.509,-0.457"
   style="fill:none;stroke:#000000;stroke-width:10.34px"
   id="path257" />
        <path
   d="m 635.86,954.436 c 0,9.561 10.018,13.939 18.528,11.812"
   style="fill:none;stroke:#000000;stroke-width:10.34px"
   id="path259" />
        <path
   d="m 685.404,908.168 c -9.851,-1.439 17.205,-6.476 24.566,-2.796"
   style="fill:none;stroke:#000000;stroke-width:10.34px"
   id="path261" />
        <path
   d="m 681.517,871.573 c -5.299,0.938 15.832,-8.819 24.924,0.273"
   style="fill:none;stroke:#000000;stroke-width:10.34px"
   id="path263" />
        <path
   d="m 714.298,939.246 c -2.316,1.548 16.384,6.29 23.022,-0.348"
   style="fill:none;stroke:#000000;stroke-width:10.34px"
   id="path265" />
        <path
   d="m 733.267,900.445 c -2.193,-7.637 10.727,-1.825 12.875,1.398"
   style="fill:none;stroke:#000000;stroke-width:10.34px"
   id="path267" />
        <path
   d="m 725.327,919.827 c -6.212,2.722 2.379,0.453 4.935,-2.103"
   style="fill:none;stroke:#000000;stroke-width:10.34px"
   id="path269" />
        <path
   d="m 689.733,961.424 c -0.203,4.762 11.154,1.425 13.179,0.413"
   style="fill:none;stroke:#000000;stroke-width:10.34px"
   id="path271" />
    </g>
    <g
   id="Слой3"
   transform="matrix(1.05717,0,0,1.05717,-5.98504,-26.967)">
        <path
   d="m 624.108,764.589 c 5.696,9.4 15.459,18.137 25.263,24.673 19.528,13.018 94.59,9.97 111.583,-7.023 5.886,-5.886 18.486,-1.858 23.41,-11.705 16.064,-32.129 11.448,-59.035 -4.682,-91.296 -16.048,-32.095 -53.114,-45.231 -84.273,-29.651 -9.567,4.783 -25.311,0.373 -35.894,3.901 -13.069,4.357 -23.464,15.104 -36.675,19.508 -11.395,3.798 -26.801,3.256 -37.455,8.583 -11.865,5.933 -37.396,39.912 -29.651,55.402 8.27,16.54 39.22,25.072 54.621,32.773 3.209,1.604 18.728,-7.836 18.728,-2.341"
   style="fill:none;stroke:#000000;stroke-width:12.02px"
   id="path274" />
        <path
   d="m 553.881,743.12 c -2.966,0.628 -0.915,4.078 -2.829,7.907 -11.756,23.512 25.8,44.112 42.136,52.28 16.644,8.322 56.711,1.217 71.789,6.243 7.343,2.447 14.128,7.83 21.068,10.144 8.65,2.883 19.606,-4.317 27.311,-6.243 21.774,-5.443 41.207,5.147 62.424,-5.462 32.149,-16.074 31.943,-46.967 21.068,-79.591 -0.906,-2.719 -2.785,-11.369 -4.681,-13.265"
   style="fill:none;stroke:#000000;stroke-width:12.02px"
   id="path276" />
        <path
   d="m 582.996,721.716 c -8.992,5.394 10.392,17.606 16.435,17.606"
   style="fill:none;stroke:#000000;stroke-width:12.02px"
   id="path278" />
        <path
   d="m 612.282,700.638 c -4.155,-1.201 13.425,-2.931 17.581,-1.892"
   style="fill:none;stroke:#000000;stroke-width:12.02px"
   id="path280" />
        <path
   d="m 624.523,724.286 c -4.435,1.032 7.113,5.743 9.241,6.453"
   style="fill:none;stroke:#000000;stroke-width:12.02px"
   id="path282" />
        <path
   d="m 649.785,758.409 c 6.202,7.136 10.645,7.389 22.214,2.762"
   style="fill:none;stroke:#000000;stroke-width:12.02px"
   id="path284" />
        <path
   d="m 659.71,730.499 c -5.38,-2.983 17.512,-5.223 19.312,-5.223"
   style="fill:none;stroke:#000000;stroke-width:12.02px"
   id="path286" />
        <path
   d="m 659.002,699.402 c 3.692,-1.873 6.587,-2.76 10.657,-3.777"
   style="fill:none;stroke:#000000;stroke-width:12.02px"
   id="path288" />
        <path
   d="m 673.17,672.956 c 3.765,0.128 7.547,0.04 11.314,0.04"
   style="fill:none;stroke:#000000;stroke-width:12.02px"
   id="path290" />
        <path
   d="m 700.822,696.702 c -0.783,-0.318 1.609,7.115 1.609,9.067"
   style="fill:none;stroke:#000000;stroke-width:12.02px"
   id="path292" />
        <path
   d="m 695.969,742.372 c -4.015,0.509 13.013,7.72 20.508,3.973"
   style="fill:none;stroke:#000000;stroke-width:12.02px"
   id="path294" />
        <path
   d="m 733.766,709.844 c -0.239,-0.046 4.946,6.843 6.12,9.19"
   style="fill:none;stroke:#000000;stroke-width:12.02px"
   id="path296" />
        <path
   d="m 715.526,775.779 c 5.804,1.326 11.35,-3.162 16.557,-5.245"
   style="fill:none;stroke:#000000;stroke-width:12.02px"
   id="path298" />
        <path
   d="m 742.763,745.17 c 0.303,-1.447 0.522,-1.669 -0.536,-2.727"
   style="fill:none;stroke:#000000;stroke-width:12.02px"
   id="path300" />
        <path
   d="m 771.757,741.982 c 0.746,-6.727 0.122,-13.858 0.122,-20.607"
   style="fill:none;stroke:#000000;stroke-width:12.02px"
   id="path302" />
        <path
   d="m 720.817,672.826 c 3.396,0.515 10.568,1.033 12.827,3.291"
   style="fill:none;stroke:#000000;stroke-width:12.02px"
   id="path304" />
        <path
   d="m 753.956,682.747 c -0.088,1.411 4.433,6.186 5.438,8.196"
   style="fill:none;stroke:#000000;stroke-width:12.02px"
   id="path306" />
    </g>
</svg>
