<?xml version="1.0" encoding="UTF-8" standalone="no"?>
<!DOCTYPE svg PUBLIC "-//W3C//DTD SVG 1.1//EN" "http://www.w3.org/Graphics/SVG/1.1/DTD/svg11.dtd">
<svg width="100%" height="100%" viewBox="0 0 1749 1749" version="1.1" xmlns="http://www.w3.org/2000/svg" xmlns:xlink="http://www.w3.org/1999/xlink" xml:space="preserve" xmlns:serif="http://www.serif.com/" style="fill-rule:evenodd;clip-rule:evenodd;stroke-linecap:round;stroke-linejoin:round;stroke-miterlimit:1.5;">
    <g id="Слой1">
        <path d="M476.568,1473.52C314.398,1464.09 214.654,1398.29 180.62,1273.13C168.269,1205.93 168.283,1140.09 190.902,1076.74C219.575,1000.89 276.838,953.422 353.662,925.378L405.466,901.389L445.364,897.324" style="fill:none;stroke:black;stroke-width:10.16px;"/>
        <path d="M445.364,897.324L453.816,908.826L447.401,924.833" style="fill:none;stroke:black;stroke-width:10.16px;"/>
        <path d="M453.816,908.826L445.364,897.324L450.654,874.692L443.766,851.602L427.278,810.842L415.525,761.917L412.77,733.549L406.893,696.549L403.966,667.085L404.31,626.583L405.257,593.149L403.966,547.983L406.204,514.824L400.823,468.852L399.036,434.998L397.939,395.319L395.829,355.237L388.166,337.552C362.158,306.941 360.123,293.494 413.05,319.398L424.264,330.904L420.648,357.641L420.304,390.252L417.419,420.75L422.822,447.116L425.9,475.968L421.466,504.416L422.628,527.781L426.395,560.247L424.264,589.986L425.018,627.406L424.135,668.311L430.012,710.523L432.961,747.378L440.128,781.716L452.635,825.364L464.409,856.604L473.708,885.181L497.085,905.884" style="fill:none;stroke:black;stroke-width:10.16px;"/>
        <path d="M473.708,885.181C502.721,894.485 527.628,892.262 550.489,884.293C630.057,851.687 692.72,874.106 746.894,924.157C798.412,965.457 835.017,1015.88 854.542,1076.75" style="fill:none;stroke:black;stroke-width:10.16px;"/>
        <path d="M414.441,914.298C440.373,960.204 513.058,944.494 522.649,902.776" style="fill:none;stroke:black;stroke-width:10.16px;"/>
        <path d="M457.514,1411.84C440.043,1337.38 453.814,1289.58 515.853,1282.94C557.043,1283.65 583.162,1306.11 616.121,1308.62C659.586,1311.93 698.694,1301.68 708.349,1278.63C754.531,1240.96 799.337,1221.26 840.066,1254.78C860.757,1309.11 854.537,1362.73 835.357,1416.02C830.637,1459.03 806.874,1490.34 772.819,1518.83C720.438,1556.41 669.615,1565.16 612.554,1547.8C540.565,1529.17 504.493,1506.64 474.821,1464.28L457.514,1411.84Z" style="fill:none;stroke:black;stroke-width:10.16px;"/>
        <path d="M530.515,1305.37C503.161,1314.59 476.588,1357.2 472.883,1361.62" style="fill:none;stroke:black;stroke-width:10.16px;"/>
        <path d="M572.291,1319.9L556.121,1321.29C505.511,1370.67 497.904,1383.76 486.585,1419.76" style="fill:none;stroke:black;stroke-width:10.16px;"/>
        <path d="M603.034,1323.82C570.359,1364.01 555.138,1422.37 557.804,1470.41" style="fill:none;stroke:black;stroke-width:10.16px;"/>
        <path d="M623.633,1323.94C642.38,1369.94 632.365,1416.04 606.879,1462.21" style="fill:none;stroke:black;stroke-width:10.16px;"/>
        <path d="M652.397,1325.69C695.26,1368.65 683.985,1432.87 664.567,1491.07" style="fill:none;stroke:black;stroke-width:10.16px;"/>
        <path d="M687.455,1316.28C748.111,1353.81 766.679,1407.71 756.58,1472.75" style="fill:none;stroke:black;stroke-width:10.16px;"/>
        <path d="M729.443,1306.16L733.698,1300.99C780.081,1313.63 793.072,1356.17 793.248,1410.19" style="fill:none;stroke:black;stroke-width:10.16px;"/>
        <path d="M763.833,1275.95C795.85,1282.15 819.66,1300.63 827.969,1342.32" style="fill:none;stroke:black;stroke-width:10.16px;"/>
        <path d="M424.732,426.956L446.726,374.32L450.011,359.363L446.726,374.32C469.846,434.665 461.235,492.874 430.912,549.62" style="fill:none;stroke:black;stroke-width:10.16px;"/>
        <path d="M446.726,374.32L424.138,369.701" style="fill:none;stroke:black;stroke-width:10.16px;"/>
        <path d="M392.232,371.593C313.7,390.259 252.417,436.233 204.564,503.468L147.49,591.041C126.051,630.453 128.81,668.042 128.02,705.899L120.995,762.875L108.542,819.865L96.93,877.201L91.926,896.218L94.198,920.998L86.287,938.133C86.287,938.133 93.063,989.919 92.737,997.195C92.41,1004.47 135.641,966.556 135.641,966.556C170.73,941.898 194.633,908.767 214.382,872.489L245.44,829.805C265.343,767.666 296.532,717.585 337.186,677.618L353.9,656.57L401.809,596.16" style="fill:none;stroke:black;stroke-width:10.16px;"/>
        <path d="M429.413,553.302C429.413,553.302 427.571,564.783 426.483,565.499" style="fill:none;stroke:black;stroke-width:8.89px;"/>
        <path d="M395.894,459.769L342.931,521.108C285.363,565.236 245.776,623.234 222.992,694.193L200.622,808.421C172.541,883.152 133.795,939.826 94.353,995.32L85.884,1010.48L94.353,995.32" style="fill:none;stroke:black;stroke-width:8.89px;"/>
        <path d="M393.33,425.881C352.888,414.249 317.577,439.069 282.415,464.951" style="fill:none;stroke:black;stroke-width:8.89px;"/>
        <path d="M380.689,472.054C320.369,476.764 253.7,506.205 202.431,549.319" style="fill:none;stroke:black;stroke-width:8.89px;"/>
        <path d="M302.221,549.756C247.313,556.35 202.651,586.267 166.762,632.145" style="fill:none;stroke:black;stroke-width:8.89px;"/>
        <path d="M250.705,628.2C211.429,626.947 179.213,666.321 145.234,719.483" style="fill:none;stroke:black;stroke-width:8.89px;"/>
        <path d="M217.967,708.798C185.758,716.759 158.248,761.806 134.444,797.519" style="fill:none;stroke:black;stroke-width:8.89px;"/>
        <path d="M201.481,798.305C184.8,790.463 109.257,880.85 114.258,882.31" style="fill:none;stroke:black;stroke-width:8.89px;"/>
        <path d="M387.83,477.955C393.701,509.393 379.385,558.282 361.433,593.959" style="fill:none;stroke:black;stroke-width:8.89px;"/>
        <path d="M309.853,552.748C338.994,599.389 317.998,651.674 298.767,688.486" style="fill:none;stroke:black;stroke-width:8.89px;"/>
        <path d="M250.41,629.339C283.525,657.826 274.581,702.373 260.749,748.788" style="fill:none;stroke:black;stroke-width:8.89px;"/>
        <path d="M219.621,710.839C243.631,740.179 245.768,774.454 233.311,812.022" style="fill:none;stroke:black;stroke-width:8.89px;"/>
        <path d="M190.313,840.487C200.029,860.166 193.745,884.254 183.434,897.374" style="fill:none;stroke:black;stroke-width:8.89px;"/>
        <path d="M401.317,636.559C352.445,743.034 352.656,833.25 441.876,893.98" style="fill:none;stroke:black;stroke-width:10px;"/>
        <path d="M425.179,628.843C466.13,751.196 555.304,787.053 562.585,877.161" style="fill:none;stroke:black;stroke-width:10px;"/>
        <path d="M429.469,613.839C500.714,630.849 574.652,636.12 627.527,676.917C678.787,718.491 715.615,770.687 735.499,835.356C743.681,868.96 748.486,899.771 746.8,925.217" style="fill:none;stroke:black;stroke-width:10px;"/>
        <path d="M447.4,683.876L432.53,716.267" style="fill:none;stroke:black;stroke-width:8.75px;"/>
        <path d="M411.29,755.628C397.408,780.924 394.281,800.55 401.76,832.585" style="fill:none;stroke:black;stroke-width:8.75px;"/>
        <path d="M461.849,816.493C452.629,777.886 453.516,746.007 473.335,726.731" style="fill:none;stroke:black;stroke-width:8.75px;"/>
        <path d="M509.844,769.811C486.526,811.852 486.356,849.166 502.24,887.067" style="fill:none;stroke:black;stroke-width:8.75px;"/>
        <path d="M549.084,820.519C608.142,806.956 655.11,835.166 698.93,874.353" style="fill:none;stroke:black;stroke-width:8.75px;"/>
        <path d="M514.167,765.273C584.23,751.728 645.524,770.403 696.416,827.308" style="fill:none;stroke:black;stroke-width:8.75px;"/>
        <path d="M478.567,724.255C515.882,727.663 551.796,707.269 594.372,719.825C632.465,719.428 648.687,749.955 673.452,767.403" style="fill:none;stroke:black;stroke-width:8.75px;"/>
        <path d="M454.109,679.968C488.452,649.871 596.029,681.057 594.749,682.066" style="fill:none;stroke:black;stroke-width:8.75px;"/>
        <path d="M1125.66,1411.01C1113.07,1422.85 1070.86,1482.29 1103.47,1518.89C1112.87,1555.25 1111.11,1588.83 1073.33,1613.44C977.972,1622.66 918.322,1564.7 874.572,1476.84C849.187,1421.82 855.693,1377.84 893.078,1344.55C937.187,1303.68 994.998,1283.33 1037.81,1305.53L1086.12,1321.82C1164,1345.21 1143.52,1401.83 1125.66,1411.01Z" style="fill:none;stroke:black;stroke-width:8.75px;"/>
        <path d="M867.481,1378.08C811.284,1471.91 826.783,1557.34 940.832,1631.24L967.481,1639.03L997.252,1640.79L1025.17,1641.19L1038.66,1632.84L1061.51,1621.3" style="fill:none;stroke:black;stroke-width:8.75px;"/>
        <path d="M1084.74,1519.64C1078.54,1551.98 1065.13,1572.74 1042.71,1579" style="fill:none;stroke:black;stroke-width:8.75px;"/>
        <path d="M1074.22,1494.68C1057.34,1528.45 1045.45,1547.11 987.307,1539.44" style="fill:none;stroke:black;stroke-width:8.75px;"/>
        <path d="M1073.68,1468.33C1065.73,1481.8 1059.01,1489.56 1042.86,1494.16" style="fill:none;stroke:black;stroke-width:8.75px;"/>
        <path d="M1042.86,1494.16C1001.27,1501.9 965.72,1493.97 936.218,1470.38" style="fill:none;stroke:black;stroke-width:8.75px;"/>
        <path d="M1075.67,1440.29L1077.69,1445.88C1006.72,1446.59 961.585,1428.65 937.493,1363.18" style="fill:none;stroke:black;stroke-width:8.75px;"/>
        <path d="M1087.14,1428.28C1039.73,1414.47 1009.04,1396.28 1010.18,1348.43" style="fill:none;stroke:black;stroke-width:8.75px;"/>
        <path d="M1104,1412.04C1084.85,1400.33 1071.93,1387.6 1067.73,1373.43C1064.45,1362.34 1066.52,1350.35 1075.15,1337.29" style="fill:none;stroke:black;stroke-width:8.75px;"/>
        <path d="M1128.55,1417.07C1170.97,1489.2 1233.05,1531.81 1306.9,1556.76C1370.1,1578.29 1423.87,1569.74 1471.64,1542.07C1516.66,1519.44 1550.77,1489.11 1580.51,1455.71C1621.55,1412.4 1636.97,1368.29 1633.24,1323.57C1614.16,1251.07 1561.55,1261.17 1501.6,1289.36C1418.48,1325.44 1356.4,1315.17 1300.33,1284.27C1251.59,1266.71 1207.64,1269.17 1167.14,1286.01C1141.32,1299.55 1128.33,1317.96 1133.64,1349.55" style="fill:none;stroke:black;stroke-width:8.75px;"/>
        <path d="M1504.2,1311.81C1551.66,1317.21 1583.53,1339.28 1593.84,1384.38" style="fill:none;stroke:black;stroke-width:8.75px;"/>
        <path d="M1464.24,1324.07C1522.84,1351.23 1539.98,1404.44 1513.85,1466.02" style="fill:none;stroke:black;stroke-width:8.75px;"/>
        <path d="M1420.56,1333.75C1469.05,1393.21 1470.41,1449.56 1433.12,1515.09" style="fill:none;stroke:black;stroke-width:8.75px;"/>
        <path d="M1390.22,1335L1383.16,1344.45C1392.31,1379.88 1387.62,1415.64 1368.55,1451.74L1345.91,1505.61" style="fill:none;stroke:black;stroke-width:8.75px;"/>
        <path d="M1364.75,1330.08C1339.48,1354.81 1322.67,1385.14 1319.81,1424.7L1317.27,1462.56L1292.72,1499.7" style="fill:none;stroke:black;stroke-width:8.75px;"/>
        <path d="M1350.02,1325.52L1341.99,1319.56C1273.79,1336.63 1235.76,1377.76 1207.3,1436.83" style="fill:none;stroke:black;stroke-width:8.75px;"/>
        <path d="M1313.84,1311.4C1257.41,1296.4 1208.34,1304.35 1174.36,1356.95" style="fill:none;stroke:black;stroke-width:8.75px;"/>
        <path d="M1416.69,1304.6C1427.54,1213.81 1410.71,1136.18 1336.51,1078.53L1301.17,1051.43L1276.88,1049L1255.97,1040.52L1202.85,1042.5C1152.59,1069.09 1164.52,1117.29 1182.09,1167.45C1194.46,1211.26 1191.29,1252.99 1159.62,1290.92" style="fill:none;stroke:black;stroke-width:8.75px;"/>
        <path d="M1046.44,1306.86C1029.68,1246.28 1058.04,1188.38 1111.86,1136.11L1133.78,1110.05L1157.99,1071.86C1168.85,1040.09 1163.71,1020.49 1146.24,1010.3L1121.23,997.018L1096.76,983.667L1060.77,983.707L1018.78,983.045C955.636,985.325 899.536,1019.05 850.099,1082.53C834.727,1109.11 822.939,1136.26 815.402,1164.07C809.225,1186.85 807.078,1237.07 805.799,1233.83" style="fill:none;stroke:black;stroke-width:8.75px;"/>
        <path d="M1075.77,1315.3C1051.79,1272.83 1074.27,1233.6 1105.64,1195.36L1117.39,1173.55L1126.06,1146.84L1140.69,1103.56" style="fill:none;stroke:black;stroke-width:8.75px;"/>
        <path d="M1108.6,1302.91C1153.28,1253.68 1170,1196.37 1169.78,1131.84" style="fill:none;stroke:black;stroke-width:8.75px;"/>
        <path d="M1086.52,1317.23C1133.48,1167.26 1143.22,1236.61 1149.96,1094.75" style="fill:none;stroke:black;stroke-width:8.75px;"/>
        <path d="M1173.26,1068.8C1187.82,1019.22 1186.03,1009.13 1159.08,1016.65" style="fill:none;stroke:black;stroke-width:8.75px;"/>
        <path d="M1181.9,1032.81C1204.16,1016.75 1218.92,1022.64 1230.07,1039.06" style="fill:none;stroke:black;stroke-width:8.75px;"/>
        <path d="M801.916,977.414C909.812,836.873 1064.21,777.716 1210.43,869.021C1292.98,925.553 1325.31,987.661 1315.49,1054.86" style="fill:none;stroke:black;stroke-width:8.75px;"/>
        <path d="M1417.78,1209.07C1492.01,1235.01 1536.29,1224.04 1538.25,1162.23C1529.31,1106.05 1507.11,1051.58 1482.47,1013C1457.04,1056.42 1416.83,1086.77 1371.17,1112.3L1400.24,1148.81C1411.1,1104.85 1437.73,1086.55 1477.2,1089.13" style="fill:none;stroke:black;stroke-width:8.75px;"/>
        <path d="M1415.52,1190.42C1427.44,1163.59 1439.26,1139.54 1480.89,1148.79" style="fill:none;stroke:black;stroke-width:8.75px;"/>
        <path d="M1482.35,1015.21C1536.69,914.365 1528.15,818.551 1490.47,725.639C1452.29,647.033 1394.41,603.627 1326.9,577.412L1232.09,560.912L1215.14,568.092L1214.5,583.271L1222.79,598.673" style="fill:none;stroke:black;stroke-width:8.75px;"/>
        <path d="M1237.14,583.215C1252.85,651.618 1147.04,622.282 1150.39,582.322" style="fill:none;stroke:black;stroke-width:8.75px;"/>
        <path d="M1175.09,602.765L1185.42,585.95L1183.6,556.56L1181.45,523.625L1179.87,483.839L1170.57,442.708L1164.03,410.729L1147.44,368.848L1129.28,311.609L1120.15,272.495L1107.5,233.301C1105.26,136.36 1112.39,124.922 1130.86,216.679L1138.49,276.415L1156.58,325.972L1172.43,379.585L1187.38,409.81L1195.06,453.831L1206.93,494.077L1214.12,530.252L1212.8,565.109L1213.63,580.436" style="fill:none;stroke:black;stroke-width:8.75px;"/>
        <path d="M1183.6,556.56L1165.65,561.903L1115.91,569.722L1057.63,581.142C991.096,604.971 946.996,655.791 911.984,717.546C889.659,777.759 887.897,829.855 910.373,872.384" style="fill:none;stroke:black;stroke-width:8.75px;"/>
        <path d="M1498.72,738.858C1498.72,738.858 1578.28,864.573 1579.14,869.614C1580.02,874.654 1638.79,982.806 1638.79,982.806L1672.96,1045.82L1697.78,1108.66C1705.44,1032.55 1696.46,958.87 1674.34,887.121L1671.75,862.06L1664.77,853.546L1644.71,805.528L1572.8,727.04C1541.58,670.413 1500.25,627.352 1453.78,591.173L1409.52,559.278L1383.55,544.778L1348.61,555.381L1313.48,550.284L1290.75,540.57L1218.11,543.394L1217.14,555.508L1285.72,558.445L1316.42,571.519" style="fill:none;stroke:black;stroke-width:8.75px;"/>
        <path d="M1110.05,1108.52C1122.85,1073.15 1116.35,1042.58 1087.96,1017.43" style="fill:none;stroke:black;stroke-width:8.75px;"/>
        <path d="M1073.23,1154.3C1081.68,1088.45 1072.32,1044.07 1039.57,1011.29" style="fill:none;stroke:black;stroke-width:8.75px;"/>
        <path d="M1049.13,1190.23C1055.92,1129.24 1034.7,1087.02 1004,1051.45" style="fill:none;stroke:black;stroke-width:8.75px;"/>
        <path d="M1032.74,1191.34L1012.7,1184.69C973.485,1164.11 924.913,1125.74 898.654,1089.99" style="fill:none;stroke:black;stroke-width:8.75px;"/>
        <path d="M1025.59,1214.27C967.31,1184.09 916.276,1175.58 873.681,1192.3" style="fill:none;stroke:black;stroke-width:8.75px;"/>
        <path d="M1023.63,1237.02C1030.86,1247.91 883.562,1258.78 874.576,1249.8" style="fill:none;stroke:black;stroke-width:8.75px;"/>
        <path d="M1021.3,1263.65C971.718,1287.9 923.9,1302.31 878.654,1302.36" style="fill:none;stroke:black;stroke-width:8.75px;"/>
        <path d="M1195.41,1138.71C1207.27,1085.39 1244.39,1078.75 1302.62,1096.84" style="fill:none;stroke:black;stroke-width:8.75px;"/>
        <path d="M1199.7,1169.54C1213.32,1146.18 1239.74,1138.87 1275.54,1143.27C1301.71,1143.64 1325.66,1136.88 1347.09,1122.01" style="fill:none;stroke:black;stroke-width:8.75px;"/>
        <path d="M1207.12,1186.24C1264.82,1190.14 1378.37,1166.82 1378.87,1165.77" style="fill:none;stroke:black;stroke-width:8.75px;"/>
        <path d="M1213.02,1207.05C1252.32,1232.87 1315.88,1228.91 1388.68,1205.56" style="fill:none;stroke:black;stroke-width:8.75px;"/>
        <path d="M1215.38,1233.11C1276.78,1268.88 1301.1,1266.93 1364.91,1251.35" style="fill:none;stroke:black;stroke-width:8.75px;"/>
        <path d="M1196.65,1261.82C1221.64,1256.32 1238.06,1260.68 1253.98,1272.28" style="fill:none;stroke:black;stroke-width:8.75px;"/>
        <path d="M460.815,618.255L522.949,597.522L610.998,574.744L668.603,546.97L733.988,528.942L819.516,493.673L883.44,483.648L959.127,465.826L1012.41,469.057L1039.86,448.916L1161.22,443.306" style="fill:none;stroke:black;stroke-width:8.75px;"/>
        <path d="M1161.22,443.306L1046.29,413.504C939.66,367.362 830.425,332.725 705.826,366.012L676.131,380.345L648.084,385.668L571.694,432.381L532.602,465.739L506.731,493.467L442.519,538.03" style="fill:none;stroke:black;stroke-width:8.75px;"/>
        <path d="M959.948,464.468C927.083,451.581 899.465,432.258 880.366,396.286" style="fill:none;stroke:black;stroke-width:8.75px;"/>
        <path d="M896.087,477.807C850.5,473.545 813.916,442.569 785.045,391.961" style="fill:none;stroke:black;stroke-width:8.75px;"/>
        <path d="M808.274,497.953C769.089,491.974 738.526,462.037 713.864,415.707" style="fill:none;stroke:black;stroke-width:8.75px;"/>
        <path d="M741.306,525.453C703.647,522.943 674.128,502.997 652.02,467.177" style="fill:none;stroke:black;stroke-width:8.75px;"/>
        <path d="M673.175,542.036C624.599,537.649 586.792,512.687 552.775,472.681" style="fill:none;stroke:black;stroke-width:8.75px;"/>
        <path d="M613.392,573.002C564.891,568.912 524.592,553.29 494.618,523.148" style="fill:none;stroke:black;stroke-width:8.75px;"/>
        <path d="M528.45,594.109C519.543,607.396 445.301,576.439 453.229,564.207" style="fill:none;stroke:black;stroke-width:8.75px;"/>
    </g>
</svg>
