<?xml version="1.0" encoding="UTF-8" standalone="no"?><!DOCTYPE svg PUBLIC "-//W3C//DTD SVG 1.1//EN" "http://www.w3.org/Graphics/SVG/1.1/DTD/svg11.dtd"><svg width="100%" height="100%" viewBox="0 0 420 420" version="1.1" xmlns="http://www.w3.org/2000/svg" xmlns:xlink="http://www.w3.org/1999/xlink" xml:space="preserve" xmlns:serif="http://www.serif.com/" style="fill-rule:evenodd;clip-rule:evenodd;stroke-linejoin:round;stroke-miterlimit:2;"><rect id="lyže" x="0.077" y="0.033" width="419.528" height="419.528" style="fill:none;"/><g id="lyže1" serif:id="lyže"><g><path d="M70.617,363.425c8.371,-16.2 41.15,-65.422 45.76,-73.107c37.688,-62.822 74.144,-132.311 107.566,-197.393c4.66,-9.075 19.987,-40.641 33.485,-57.732c6.642,-8.41 15.813,-11.443 24.64,-7.206c8.746,4.199 9.469,14.131 7.602,22.477c-3.113,13.918 -29.939,52.8 -36.249,62.724c-36.043,56.693 -80.301,129.855 -112.077,190.439c-8.885,16.94 -26.812,56.573 -40.815,77.369c-7.915,11.755 -16.401,14.946 -23.449,10.709c-3.432,-2.064 -8.209,-5.737 -9.595,-12.041c-0.909,-4.134 -0.377,-9.448 3.132,-16.239Zm2.665,1.377c-3.077,5.956 -3.664,10.593 -2.867,14.218c1.172,5.334 5.307,8.367 8.211,10.114c5.948,3.575 12.736,0.106 19.415,-9.813c13.95,-20.718 31.795,-60.211 40.646,-77.087c31.812,-60.653 76.118,-133.899 112.203,-190.655c6.22,-9.785 32.783,-48.049 35.852,-61.77c1.576,-7.045 1.411,-15.573 -5.972,-19.117c-7.54,-3.62 -15.314,-0.824 -20.988,6.36c-13.381,16.943 -28.551,48.247 -33.17,57.243c-33.452,65.139 -69.941,134.689 -107.662,197.566c-4.601,7.668 -37.315,56.777 -45.668,72.941Z"/><path d="M252.987,41.448c0.177,-0.203 0.453,-0.517 0.577,-0.632c0.447,-0.416 0.922,-0.8 1.411,-1.165c1.618,-1.209 3.33,-2.289 5.109,-3.246c5.558,-2.99 11.918,-3.303 17.477,-0.107c13.389,7.698 9.374,21.408 3.85,32.506c-0.368,0.741 -1.27,1.043 -2.011,0.674c-0.741,-0.369 -1.043,-1.27 -0.674,-2.011c4.841,-9.728 9.076,-21.821 -2.66,-28.568c-4.632,-2.663 -9.93,-2.344 -14.561,0.148c-1.648,0.887 -3.235,1.886 -4.734,3.007c-0.402,0.3 -0.794,0.614 -1.161,0.956c-0.226,0.211 -0.739,0.822 -0.832,0.892c-0.82,0.621 -1.517,0.216 -1.763,0.048c-0.127,-0.087 -1.137,-0.804 -0.431,-2.044c0.105,-0.185 0.243,-0.338 0.403,-0.458Zm2.351,1.583c-0.032,0.123 -0.081,0.243 -0.146,0.358c0.075,-0.132 0.12,-0.253 0.146,-0.358Z"/><path d="M190.105,168.83c0.119,-0.193 0.436,-0.609 1.147,-0.745c0.852,-0.164 4.554,-0.064 4.906,-0.02c4.087,0.509 8.334,2.794 10.278,6.582c0.292,0.569 0.719,1.506 0.936,2.408c0.199,0.821 0.21,1.623 0.004,2.243c-0.189,0.567 -0.707,1.163 -1.069,1.622c-0.926,1.171 -1.73,1.57 -2.371,1.659c-0.785,0.108 -1.556,-0.172 -2.369,-0.91c-0.523,-0.474 -1.134,-1.213 -2.058,-1.931c-1.508,-1.171 -3.264,-2.009 -5.089,-2.576c-1.131,-0.352 -4.575,-1.546 -5.257,-1.792c-0.75,-0.27 -0.952,-0.786 -0.958,-0.8c-0.268,-0.55 -0.304,-1.355 0.022,-2.267c0.396,-1.105 1.373,-2.54 1.835,-3.397c0.013,-0.026 0.028,-0.051 0.043,-0.076Zm1.127,4.088c1.286,0.447 3.277,1.13 4.078,1.379c2.168,0.673 4.248,1.681 6.039,3.072c0.781,0.607 1.369,1.22 1.861,1.716c0.114,0.115 0.266,0.253 0.389,0.362c0.111,-0.109 0.246,-0.251 0.354,-0.388c0.17,-0.215 0.487,-0.441 0.576,-0.708c0.081,-0.244 -0.055,-0.566 -0.155,-0.889c-0.173,-0.557 -0.427,-1.095 -0.607,-1.445c-1.498,-2.919 -4.831,-4.583 -7.98,-4.975c-0.221,-0.028 -2.486,-0.019 -3.492,-0.014c-0.285,0.471 -0.619,1.01 -0.898,1.537c-0.055,0.104 -0.112,0.228 -0.165,0.353Z"/><g><path d="M240.251,90.159c-0.024,-0.061 -0.082,-0.102 -0.131,-0.152c-0.125,-0.129 -0.272,-0.246 -0.422,-0.364c-0.385,-0.299 -0.792,-0.591 -1.129,-0.914c-0.908,-0.866 -1.433,-1.901 -0.966,-3.415c0.48,-1.557 2.198,-2.68 3.646,-2.985c0.81,-0.17 1.606,0.349 1.777,1.16c0.17,0.81 -0.35,1.606 -1.16,1.776c-0.516,0.109 -1.225,0.378 -1.397,0.933c-0.061,0.199 0.098,0.296 0.221,0.408c0.203,0.184 0.436,0.353 0.663,0.526c0.886,0.674 1.634,1.445 1.842,2.437c0.169,0.805 -0.009,1.552 -0.413,2.212c-0.427,0.697 -1.145,1.289 -1.774,1.687c-2.075,1.312 -5.025,1.385 -7.299,0.917c-0.811,-0.167 -1.333,-0.96 -1.167,-1.771c0.167,-0.811 0.961,-1.334 1.772,-1.167c1.581,0.325 3.647,0.398 5.09,-0.515c0.211,-0.134 0.451,-0.302 0.649,-0.506c0.059,-0.061 0.114,-0.125 0.159,-0.195c0.013,-0.019 0.029,-0.052 0.039,-0.072Z"/><path d="M252.711,75.673c0.413,-0.718 1.331,-0.966 2.048,-0.553c0.718,0.413 0.966,1.33 0.553,2.048c-1.978,3.44 -7.647,14.279 -9.436,17.959c-0.362,0.745 -1.261,1.055 -2.005,0.693c-0.745,-0.362 -1.055,-1.26 -0.693,-2.005c1.808,-3.717 7.535,-14.668 9.533,-18.142Z"/><path d="M248.565,85.223c0.216,-0.162 0.957,-0.715 1.094,-0.802c1.513,-0.949 3.048,-1.868 4.594,-2.762c0.717,-0.414 1.635,-0.168 2.049,0.549c0.414,0.717 0.169,1.635 -0.548,2.049c-1.515,0.875 -3.018,1.775 -4.499,2.705c-0.189,0.118 -0.933,0.742 -1.363,0.966c-0.493,0.257 -0.931,0.263 -1.186,0.218c-0.815,-0.144 -1.361,-0.922 -1.217,-1.738c0.104,-0.587 0.537,-1.035 1.076,-1.185Z"/><path d="M249.251,86.71c0.189,-0.806 0.997,-1.307 1.803,-1.118c0.806,0.19 1.306,0.998 1.117,1.804c-0.434,1.847 -1.148,6.234 -1.636,8.071c-0.213,0.8 -1.035,1.277 -1.835,1.065c-0.8,-0.213 -1.277,-1.035 -1.065,-1.835c0.483,-1.818 1.186,-6.159 1.616,-7.987Z"/><path d="M255.5,88.555c0.385,-0.733 1.293,-1.016 2.026,-0.631c0.733,0.384 1.016,1.292 0.631,2.025c-0.248,0.473 -2.62,4.517 -3.317,5.909c-0.37,0.74 -1.272,1.041 -2.012,0.67c-0.741,-0.371 -1.041,-1.272 -0.67,-2.013c0.702,-1.404 3.092,-5.483 3.342,-5.96Z"/><path d="M258.342,86.584c-0.72,-0.41 -0.971,-1.326 -0.562,-2.046c0.409,-0.72 1.326,-0.971 2.045,-0.562l0.04,0.022c0.719,0.41 0.971,1.326 0.562,2.046c-0.41,0.72 -1.326,0.971 -2.046,0.562l-0.039,-0.022Z"/></g><path d="M222.68,101.033c-0.798,-0.218 -1.27,-1.044 -1.052,-1.842c0.218,-0.799 1.043,-1.27 1.842,-1.052c1.097,0.299 2.531,0.093 3.655,0.149c2.961,0.146 5.924,0.265 8.886,0.416c7.74,0.395 15.642,1.272 23.399,1.043c0.828,-0.025 1.519,0.627 1.544,1.455c0.024,0.827 -0.628,1.519 -1.455,1.543c-7.838,0.232 -15.821,-0.646 -23.641,-1.045c-2.96,-0.151 -5.921,-0.269 -8.882,-0.416c-1.322,-0.065 -3.005,0.101 -4.296,-0.251Z"/><path d="M89.444,336.61c-0.799,-0.219 -1.27,-1.044 -1.051,-1.843c0.219,-0.798 1.044,-1.269 1.843,-1.05c0.994,0.272 2.292,0.085 3.31,0.137c2.704,0.138 5.409,0.25 8.113,0.392c7.063,0.371 14.275,1.182 21.353,0.985c0.828,-0.023 1.518,0.63 1.541,1.457c0.023,0.828 -0.63,1.518 -1.457,1.541c-7.159,0.2 -14.452,-0.612 -21.594,-0.987c-2.703,-0.142 -5.406,-0.254 -8.109,-0.392c-1.215,-0.062 -2.762,0.085 -3.949,-0.24Z"/><path d="M220.862,105.125c-0.679,0.049 -1.329,-0.374 -1.539,-1.053c-0.147,-0.474 -0.069,-0.897 0.184,-1.278c0.138,-0.207 0.372,-0.468 0.807,-0.605c0.09,-0.028 0.222,-0.061 0.392,-0.07c0.13,-0.007 0.506,0.032 0.613,0.038c0.303,0.018 0.607,0.039 0.91,0.059c0.874,0.057 1.749,0.108 2.623,0.165c2.604,0.169 5.205,0.362 7.807,0.557c5.339,0.4 17.716,0.403 23.058,0.773c0.826,0.057 1.45,0.774 1.393,1.599c-0.057,0.826 -0.774,1.451 -1.6,1.393c-5.346,-0.369 -17.732,-0.373 -23.076,-0.773c-2.591,-0.194 -5.183,-0.387 -7.776,-0.555c-0.875,-0.057 -1.749,-0.109 -2.624,-0.166c-0.298,-0.019 -0.596,-0.039 -0.895,-0.057c-0.04,-0.003 -0.182,-0.017 -0.277,-0.027Z"/><path d="M86.555,341.148c-0.668,0.04 -1.305,-0.373 -1.519,-1.039c-0.155,-0.483 -0.075,-0.911 0.181,-1.295c0.139,-0.209 0.377,-0.473 0.82,-0.608c0.118,-0.035 0.808,-0.036 0.99,-0.023c0.295,0.02 0.59,0.042 0.885,0.064c0.85,0.062 1.701,0.119 2.551,0.181c2.532,0.185 5.062,0.394 7.592,0.604c5.194,0.43 17.223,0.54 22.418,0.941c0.826,0.064 1.444,0.786 1.38,1.611c-0.063,0.825 -0.785,1.444 -1.611,1.38c-5.199,-0.401 -17.237,-0.512 -22.435,-0.943c-2.52,-0.209 -5.041,-0.416 -7.563,-0.601c-0.85,-0.062 -1.701,-0.119 -2.551,-0.181c-0.29,-0.022 -0.58,-0.044 -0.87,-0.063c-0.039,-0.003 -0.177,-0.018 -0.268,-0.028Zm1.233,-0.792c0.193,-0.35 0.242,-0.736 0.104,-1.165c0.13,0.402 0.08,0.819 -0.104,1.165Z"/><path d="M238.716,67.793c0.413,0.016 0.827,0.041 1.24,0.067c0.99,0.061 1.981,0.131 2.97,0.203c2.975,0.218 5.952,0.407 8.93,0.57c6.031,0.33 12.069,0.691 18.107,0.88c2.781,0.087 3.844,0.159 6.624,-0.22c0.82,-0.112 1.577,0.464 1.688,1.284c0.112,0.82 -0.463,1.577 -1.283,1.689c-2.989,0.407 -4.132,0.339 -7.123,0.245c-6.062,-0.19 -12.122,-0.551 -18.177,-0.883c-2.996,-0.163 -5.992,-0.354 -8.984,-0.573c-0.979,-0.071 -1.959,-0.14 -2.939,-0.201c-0.402,-0.025 -0.805,-0.05 -1.207,-0.065c-0.044,-0.002 -0.123,-0.012 -0.205,-0.024c-0.564,0.084 -1.152,-0.159 -1.482,-0.668c-0.341,-0.526 -0.279,-0.963 -0.198,-1.256c0.109,-0.391 0.346,-0.725 0.767,-0.943c0.128,-0.066 0.286,-0.126 0.478,-0.156c0.133,-0.021 0.618,0.031 0.794,0.051Zm0.857,1.908c0.124,-0.321 0.144,-0.734 -0.18,-1.235c0.246,0.38 0.298,0.831 0.18,1.235Z"/><path d="M240.968,63.189c0.14,-0.006 0.305,-0.012 0.38,-0.01c0.357,0.009 0.715,0.015 1.073,0.028c0.993,0.033 1.986,0.089 2.978,0.137c3.078,0.148 6.157,0.277 9.235,0.427c6.171,0.3 12.347,0.523 18.522,0.707c3.168,0.095 3.309,-0.224 6.463,0.132c0.823,0.093 1.416,0.837 1.323,1.659c-0.093,0.823 -0.836,1.415 -1.659,1.322c-3.034,-0.342 -3.17,-0.023 -6.217,-0.114c-6.193,-0.185 -12.388,-0.408 -18.577,-0.709c-3.078,-0.15 -6.156,-0.28 -9.234,-0.428c-0.979,-0.047 -1.957,-0.102 -2.936,-0.135c-0.351,-0.012 -0.701,-0.018 -1.052,-0.028c-0.181,-0.004 -0.611,0.028 -0.753,0.014c-0.193,-0.019 -0.339,-0.066 -0.435,-0.104c-0.644,-0.256 -0.85,-0.733 -0.925,-1.1c-0.062,-0.302 -0.045,-0.633 0.131,-0.982c0.074,-0.147 0.238,-0.483 0.765,-0.718c0.299,-0.133 0.619,-0.161 0.918,-0.098Z"/><path d="M150.728,241.536c0.433,-0.73 1.074,-2.103 1.714,-2.898c0.566,-0.704 1.225,-1.058 1.771,-1.117c0.016,-0.002 0.588,-0.116 1.211,0.412c0.458,0.388 2.733,2.366 3.45,3.034c1.124,1.046 2.41,1.925 3.832,2.479c1.174,0.456 2.162,0.548 2.751,0.814c0.647,0.293 1.059,0.719 1.284,1.296c0.206,0.532 0.265,1.343 -0.224,2.608c-0.188,0.485 -0.415,1.148 -0.756,1.554c-0.383,0.455 -0.995,0.831 -1.705,1.072c-0.762,0.258 -1.638,0.377 -2.183,0.424c-3.638,0.311 -7.132,-1.803 -9.232,-4.641c-0.179,-0.242 -1.793,-2.953 -2.027,-3.664c-0.213,-0.648 -0.027,-1.106 0.074,-1.3c0.013,-0.024 0.026,-0.049 0.04,-0.073Zm2.974,0.866c0.418,0.755 1.248,2.248 1.351,2.387c1.505,2.035 3.955,3.659 6.563,3.435c0.315,-0.026 0.789,-0.083 1.243,-0.205c0.219,-0.059 0.457,-0.085 0.585,-0.209c0.025,-0.068 0.197,-0.527 0.275,-0.729c0.023,-0.06 0.045,-0.124 0.065,-0.187c-0.526,-0.128 -1.427,-0.365 -2.166,-0.653c-1.774,-0.69 -3.386,-1.773 -4.788,-3.078c-0.448,-0.417 -1.52,-1.359 -2.347,-2.078c-0.234,0.395 -0.53,0.894 -0.781,1.317Z"/><path d="M182.762,187.244c1.037,-0.015 1.663,0.327 2.25,0.925c0.643,0.656 1.159,1.997 3.817,3.362c1.787,0.918 3.398,1.013 4.448,1.348c1.369,0.436 2.16,1.153 2.349,2.557c0.177,1.317 -0.271,2.847 -1.067,4.347c-0.975,1.841 -2.451,3.664 -3.278,4.892c-3.835,5.694 -7.928,11.286 -10.998,17.45c-0.501,1.006 -0.908,2.416 -1.44,3.808c-0.631,1.652 -1.435,3.265 -2.591,4.38c-1.092,1.052 -2.375,1.082 -3.842,0.306c-1.228,-0.649 -2.682,-2.056 -4.288,-3.092c-1.229,-0.794 -2.895,-1.042 -4.068,-1.639c-0.951,-0.483 -1.664,-1.143 -2.038,-2.067c-0.338,-0.837 -0.419,-1.956 0.102,-3.507c0.273,-0.814 2.736,-4.074 3.409,-5.082c2.686,-4.018 5.043,-8.265 7.44,-12.479c1.805,-3.171 3.368,-6.468 4.821,-9.81c0.371,-0.854 1.328,-3.083 2.47,-4.361c0.767,-0.858 1.659,-1.325 2.504,-1.338Zm-8.562,40.879c0.842,-0.829 1.377,-2.047 1.841,-3.261c0.569,-1.491 1.02,-2.997 1.556,-4.075c3.129,-6.281 7.288,-11.986 11.196,-17.788c0.782,-1.162 2.192,-2.879 3.116,-4.621c0.467,-0.881 0.843,-1.749 0.746,-2.524c-0.036,-0.019 -0.085,-0.043 -0.121,-0.058c-0.191,-0.075 -0.413,-0.132 -0.658,-0.191c-1.166,-0.276 -2.717,-0.532 -4.417,-1.405c-2.369,-1.217 -3.386,-2.407 -4.068,-3.282c-0.118,-0.15 -0.223,-0.29 -0.324,-0.417c-0.077,-0.097 -0.099,-0.218 -0.201,-0.249c-0.049,0.033 -0.142,0.099 -0.197,0.15c-0.176,0.164 -0.342,0.37 -0.502,0.594c-0.766,1.073 -1.363,2.534 -1.628,3.143c-1.495,3.44 -3.107,6.834 -4.964,10.098c-2.433,4.276 -4.828,8.584 -7.554,12.662c-0.442,0.661 -1.727,2.343 -2.546,3.554c-0.247,0.365 -0.459,0.654 -0.513,0.816c-0.238,0.71 -0.337,1.176 -0.122,1.511c0.238,0.37 0.709,0.518 1.202,0.704c1.197,0.449 2.601,0.808 3.707,1.522c1.314,0.848 2.519,1.954 3.583,2.668c0.233,0.157 0.455,0.292 0.669,0.384c0.057,0.025 0.144,0.05 0.199,0.065Z"/></g><path d="M67.534,372.329c-0.052,-0.826 0.576,-1.539 1.402,-1.591c0.827,-0.052 1.54,0.576 1.592,1.402c0.045,0.721 0.592,1.789 1.193,2.873c1.048,1.891 2.379,3.767 2.667,4.154c2.15,2.893 5.975,5.701 10.038,6.989c2.584,0.819 5.271,1.027 7.658,0.141c0.776,-0.288 1.64,0.108 1.928,0.884c0.288,0.776 -0.108,1.64 -0.884,1.928c-2.995,1.112 -6.366,0.934 -9.608,-0.094c-4.675,-1.482 -9.065,-4.729 -11.54,-8.059c-0.364,-0.489 -2.27,-3.18 -3.431,-5.531c-0.582,-1.178 -0.965,-2.297 -1.015,-3.096Z"/><path d="M135.41,368.394c0.938,1.795 2.359,3.321 3.844,4.678c2.594,2.372 6.966,4.956 11.261,5.759c2.629,0.492 5.235,0.322 7.292,-1.172c0.67,-0.487 1.609,-0.338 2.095,0.332c0.487,0.67 0.338,1.609 -0.332,2.095c-2.717,1.974 -6.135,2.343 -9.606,1.694c-4.854,-0.908 -9.802,-3.814 -12.734,-6.494c-1.781,-1.627 -3.455,-3.484 -4.554,-5.65c-0.061,-0.119 -0.12,-0.347 -0.164,-0.545c-0.191,-0.254 -0.303,-0.571 -0.3,-0.912c0.006,-0.828 0.684,-1.495 1.512,-1.488c0.646,0.005 1.088,0.293 1.395,0.775c0.116,0.182 0.239,0.694 0.291,0.928Z"/><g><path d="M135.357,355.766c8.371,-16.2 41.15,-65.422 45.76,-73.107c37.689,-62.822 74.144,-132.311 107.566,-197.393c4.66,-9.075 19.987,-40.641 33.485,-57.732c6.642,-8.41 15.813,-11.443 24.64,-7.206c8.746,4.199 9.469,14.131 7.602,22.477c-3.113,13.918 -29.939,52.8 -36.249,62.724c-36.043,56.693 -80.301,129.855 -112.077,190.439c-8.885,16.941 -26.812,56.574 -40.815,77.37c-7.915,11.754 -16.401,14.945 -23.448,10.708c-3.433,-2.064 -8.21,-5.737 -9.596,-12.041c-0.909,-4.134 -0.377,-9.448 3.132,-16.239Zm2.665,1.377c-3.077,5.956 -3.664,10.593 -2.867,14.218c1.172,5.334 5.307,8.367 8.211,10.114c5.948,3.576 12.736,0.107 19.415,-9.813c13.95,-20.718 31.795,-60.21 40.646,-77.087c31.812,-60.652 76.118,-133.898 112.203,-190.655c6.22,-9.784 32.783,-48.049 35.853,-61.77c1.575,-7.045 1.41,-15.573 -5.973,-19.117c-7.54,-3.62 -15.314,-0.824 -20.988,6.36c-13.38,16.943 -28.551,48.247 -33.17,57.243c-33.452,65.139 -69.941,134.689 -107.662,197.566c-4.601,7.668 -37.315,56.777 -45.668,72.941Z"/><path d="M317.727,33.789c0.177,-0.203 0.454,-0.517 0.577,-0.632c0.447,-0.416 0.923,-0.8 1.411,-1.165c1.618,-1.209 3.33,-2.289 5.109,-3.246c5.558,-2.99 11.918,-3.303 17.477,-0.107c13.389,7.698 9.374,21.408 3.85,32.506c-0.368,0.741 -1.27,1.043 -2.011,0.674c-0.741,-0.368 -1.043,-1.27 -0.674,-2.011c4.841,-9.728 9.076,-21.821 -2.66,-28.568c-4.632,-2.663 -9.93,-2.343 -14.561,0.148c-1.648,0.887 -3.235,1.886 -4.734,3.007c-0.401,0.3 -0.794,0.614 -1.161,0.956c-0.226,0.211 -0.739,0.822 -0.832,0.892c-0.82,0.621 -1.517,0.216 -1.763,0.049c-0.127,-0.088 -1.137,-0.805 -0.431,-2.045c0.105,-0.185 0.243,-0.338 0.403,-0.458Z"/><path d="M254.845,161.171c0.119,-0.192 0.436,-0.608 1.148,-0.745c0.851,-0.164 4.553,-0.064 4.905,-0.02c4.087,0.509 8.334,2.794 10.278,6.582c0.292,0.569 0.719,1.506 0.936,2.408c0.199,0.821 0.21,1.623 0.004,2.243c-0.189,0.568 -0.707,1.163 -1.069,1.622c-0.926,1.171 -1.73,1.57 -2.371,1.659c-0.785,0.108 -1.556,-0.172 -2.369,-0.91c-0.522,-0.474 -1.134,-1.213 -2.058,-1.931c-1.508,-1.171 -3.264,-2.009 -5.089,-2.576c-1.131,-0.352 -4.575,-1.546 -5.257,-1.792c-0.75,-0.27 -0.952,-0.786 -0.958,-0.8c-0.267,-0.55 -0.304,-1.355 0.022,-2.267c0.396,-1.105 1.373,-2.54 1.835,-3.397c0.013,-0.026 0.028,-0.051 0.043,-0.076Zm1.127,4.088c1.286,0.447 3.277,1.13 4.078,1.379c2.168,0.673 4.248,1.681 6.039,3.072c0.781,0.607 1.369,1.22 1.862,1.716c0.113,0.115 0.265,0.253 0.388,0.362c0.111,-0.109 0.246,-0.251 0.354,-0.387c0.17,-0.216 0.487,-0.442 0.576,-0.709c0.081,-0.244 -0.055,-0.566 -0.155,-0.889c-0.173,-0.557 -0.427,-1.095 -0.607,-1.445c-1.498,-2.919 -4.831,-4.583 -7.98,-4.975c-0.221,-0.028 -2.486,-0.019 -3.492,-0.014c-0.285,0.471 -0.619,1.01 -0.898,1.537c-0.055,0.104 -0.112,0.228 -0.165,0.353Z"/><g><path d="M304.991,82.5c-0.024,-0.061 -0.082,-0.102 -0.131,-0.151c-0.125,-0.13 -0.272,-0.247 -0.422,-0.365c-0.385,-0.299 -0.792,-0.591 -1.129,-0.914c-0.908,-0.866 -1.433,-1.901 -0.966,-3.415c0.48,-1.557 2.198,-2.68 3.646,-2.985c0.81,-0.17 1.606,0.349 1.777,1.16c0.17,0.81 -0.35,1.606 -1.16,1.776c-0.516,0.109 -1.225,0.379 -1.396,0.934c-0.062,0.198 0.097,0.295 0.22,0.407c0.203,0.184 0.436,0.353 0.663,0.526c0.886,0.674 1.634,1.445 1.842,2.438c0.169,0.804 -0.009,1.551 -0.413,2.211c-0.427,0.697 -1.145,1.289 -1.774,1.687c-2.075,1.312 -5.025,1.385 -7.299,0.917c-0.81,-0.166 -1.333,-0.96 -1.167,-1.771c0.167,-0.811 0.961,-1.334 1.772,-1.167c1.581,0.325 3.647,0.398 5.09,-0.514c0.211,-0.134 0.451,-0.303 0.649,-0.507c0.059,-0.061 0.114,-0.125 0.159,-0.195c0.013,-0.019 0.029,-0.052 0.039,-0.072Z"/><path d="M317.451,68.014c0.413,-0.718 1.331,-0.966 2.048,-0.553c0.718,0.413 0.966,1.33 0.553,2.048c-1.978,3.44 -7.647,14.28 -9.436,17.959c-0.362,0.745 -1.261,1.055 -2.005,0.693c-0.745,-0.362 -1.055,-1.26 -0.693,-2.005c1.808,-3.717 7.535,-14.667 9.533,-18.142Z"/><path d="M313.305,77.564c0.216,-0.162 0.957,-0.715 1.094,-0.801c1.513,-0.95 3.048,-1.869 4.594,-2.763c0.717,-0.414 1.635,-0.168 2.049,0.549c0.414,0.717 0.169,1.635 -0.548,2.049c-1.515,0.875 -3.018,1.775 -4.499,2.705c-0.189,0.119 -0.933,0.742 -1.363,0.966c-0.493,0.257 -0.931,0.263 -1.186,0.218c-0.815,-0.144 -1.36,-0.922 -1.217,-1.738c0.104,-0.587 0.537,-1.035 1.076,-1.185Z"/><path d="M313.991,79.051c0.189,-0.806 0.997,-1.307 1.803,-1.118c0.806,0.19 1.306,0.998 1.117,1.804c-0.434,1.847 -1.148,6.234 -1.636,8.071c-0.213,0.8 -1.035,1.277 -1.835,1.065c-0.8,-0.213 -1.277,-1.035 -1.065,-1.835c0.483,-1.818 1.186,-6.159 1.616,-7.987Z"/><path d="M320.24,80.896c0.385,-0.733 1.293,-1.016 2.026,-0.631c0.733,0.384 1.016,1.292 0.631,2.025c-0.248,0.473 -2.62,4.517 -3.317,5.909c-0.37,0.74 -1.272,1.041 -2.012,0.67c-0.741,-0.37 -1.041,-1.272 -0.67,-2.013c0.702,-1.404 3.092,-5.483 3.342,-5.96Z"/><path d="M323.082,78.925c-0.72,-0.41 -0.971,-1.326 -0.562,-2.046c0.409,-0.719 1.326,-0.971 2.046,-0.562l0.039,0.023c0.719,0.409 0.971,1.326 0.562,2.045c-0.41,0.72 -1.326,0.971 -2.046,0.562l-0.039,-0.022Z"/></g><path d="M287.42,93.374c-0.798,-0.218 -1.27,-1.044 -1.052,-1.842c0.218,-0.799 1.043,-1.27 1.842,-1.052c1.097,0.299 2.531,0.093 3.655,0.149c2.962,0.146 5.924,0.265 8.886,0.416c7.74,0.395 15.642,1.272 23.399,1.043c0.828,-0.025 1.519,0.627 1.544,1.455c0.024,0.827 -0.628,1.519 -1.455,1.543c-7.838,0.232 -15.821,-0.646 -23.641,-1.045c-2.96,-0.151 -5.921,-0.269 -8.881,-0.416c-1.323,-0.065 -3.006,0.101 -4.297,-0.251Z"/><path d="M154.184,328.951c-0.799,-0.219 -1.27,-1.044 -1.051,-1.843c0.219,-0.798 1.045,-1.269 1.843,-1.05c0.994,0.272 2.292,0.085 3.31,0.137c2.704,0.138 5.409,0.25 8.113,0.392c7.063,0.371 14.275,1.182 21.353,0.985c0.828,-0.023 1.518,0.63 1.541,1.457c0.023,0.828 -0.63,1.519 -1.457,1.542c-7.158,0.199 -14.452,-0.613 -21.594,-0.988c-2.703,-0.142 -5.406,-0.254 -8.109,-0.392c-1.215,-0.062 -2.762,0.085 -3.949,-0.24Z"/><path d="M285.603,97.466c-0.68,0.049 -1.33,-0.374 -1.54,-1.052c-0.147,-0.475 -0.069,-0.898 0.184,-1.279c0.138,-0.207 0.372,-0.468 0.807,-0.605c0.091,-0.028 0.222,-0.061 0.392,-0.07c0.13,-0.007 0.506,0.032 0.613,0.038c0.303,0.018 0.607,0.039 0.91,0.059c0.874,0.057 1.749,0.108 2.623,0.165c2.604,0.169 5.205,0.362 7.807,0.557c5.339,0.401 17.716,0.404 23.058,0.773c0.826,0.057 1.45,0.774 1.393,1.6c-0.057,0.825 -0.774,1.45 -1.6,1.393c-5.346,-0.37 -17.732,-0.374 -23.076,-0.774c-2.591,-0.194 -5.183,-0.387 -7.776,-0.555c-0.875,-0.057 -1.749,-0.109 -2.624,-0.166c-0.298,-0.019 -0.596,-0.039 -0.895,-0.057c-0.04,-0.003 -0.182,-0.017 -0.276,-0.027Z"/><path d="M151.295,333.489c-0.668,0.04 -1.305,-0.373 -1.519,-1.039c-0.155,-0.483 -0.075,-0.911 0.181,-1.295c0.139,-0.208 0.377,-0.473 0.82,-0.608c0.118,-0.035 0.808,-0.036 0.99,-0.023c0.295,0.02 0.59,0.042 0.885,0.064c0.85,0.062 1.701,0.119 2.551,0.181c2.532,0.185 5.062,0.394 7.592,0.604c5.194,0.431 17.223,0.54 22.418,0.941c0.826,0.064 1.444,0.786 1.38,1.611c-0.063,0.826 -0.785,1.444 -1.611,1.38c-5.199,-0.401 -17.237,-0.511 -22.435,-0.943c-2.52,-0.209 -5.041,-0.416 -7.563,-0.601c-0.85,-0.062 -1.701,-0.119 -2.551,-0.181c-0.29,-0.021 -0.58,-0.044 -0.87,-0.063c-0.039,-0.003 -0.177,-0.018 -0.268,-0.028Zm1.233,-0.792c0.193,-0.35 0.242,-0.736 0.104,-1.165c0.13,0.402 0.08,0.819 -0.104,1.165Z"/><path d="M303.456,60.134c0.413,0.016 0.827,0.041 1.24,0.067c0.99,0.062 1.981,0.131 2.97,0.203c2.975,0.218 5.952,0.407 8.93,0.57c6.031,0.33 12.069,0.691 18.107,0.88c2.781,0.087 3.844,0.16 6.624,-0.22c0.82,-0.111 1.577,0.464 1.688,1.284c0.112,0.82 -0.463,1.577 -1.283,1.689c-2.989,0.408 -4.132,0.339 -7.123,0.246c-6.061,-0.191 -12.122,-0.552 -18.177,-0.883c-2.996,-0.164 -5.992,-0.355 -8.984,-0.574c-0.979,-0.071 -1.959,-0.14 -2.939,-0.201c-0.402,-0.025 -0.804,-0.049 -1.207,-0.065c-0.044,-0.002 -0.123,-0.012 -0.205,-0.024c-0.564,0.084 -1.152,-0.159 -1.482,-0.668c-0.341,-0.526 -0.279,-0.962 -0.198,-1.256c0.109,-0.391 0.346,-0.725 0.767,-0.943c0.128,-0.066 0.286,-0.126 0.478,-0.156c0.133,-0.021 0.618,0.031 0.794,0.051Zm0.857,1.908c0.124,-0.321 0.144,-0.734 -0.18,-1.235c0.246,0.381 0.298,0.831 0.18,1.235Z"/><path d="M305.708,55.53c0.14,-0.006 0.305,-0.012 0.38,-0.01c0.358,0.009 0.715,0.016 1.073,0.028c0.993,0.034 1.986,0.089 2.979,0.137c3.078,0.148 6.156,0.277 9.234,0.427c6.171,0.3 12.347,0.523 18.522,0.708c3.168,0.094 3.309,-0.225 6.464,0.132c0.822,0.092 1.415,0.836 1.322,1.658c-0.093,0.823 -0.836,1.415 -1.659,1.323c-3.034,-0.343 -3.17,-0.024 -6.217,-0.115c-6.193,-0.185 -12.388,-0.408 -18.577,-0.709c-3.078,-0.15 -6.156,-0.279 -9.234,-0.428c-0.978,-0.047 -1.957,-0.102 -2.936,-0.135c-0.351,-0.012 -0.701,-0.018 -1.051,-0.027c-0.182,-0.005 -0.612,0.027 -0.753,0.013c-0.194,-0.019 -0.34,-0.066 -0.436,-0.104c-0.644,-0.255 -0.85,-0.733 -0.925,-1.1c-0.062,-0.302 -0.045,-0.633 0.131,-0.982c0.074,-0.147 0.238,-0.483 0.765,-0.718c0.3,-0.133 0.619,-0.16 0.918,-0.098Zm0.54,2.706c-0.073,0.051 -0.152,0.095 -0.237,0.132c0.093,-0.041 0.171,-0.086 0.237,-0.132Z"/><path d="M215.468,233.878c0.433,-0.731 1.074,-2.104 1.714,-2.899c0.566,-0.704 1.225,-1.057 1.771,-1.117c0.016,-0.002 0.588,-0.116 1.211,0.413c0.458,0.387 2.733,2.365 3.45,3.033c1.124,1.046 2.41,1.925 3.832,2.479c1.174,0.457 2.162,0.548 2.751,0.814c0.647,0.293 1.059,0.719 1.284,1.296c0.207,0.532 0.265,1.343 -0.224,2.608c-0.188,0.485 -0.415,1.148 -0.756,1.554c-0.383,0.456 -0.995,0.831 -1.705,1.072c-0.762,0.258 -1.638,0.377 -2.183,0.424c-3.638,0.312 -7.132,-1.803 -9.232,-4.641c-0.179,-0.241 -1.793,-2.953 -2.027,-3.664c-0.213,-0.648 -0.027,-1.106 0.074,-1.3c0.013,-0.024 0.026,-0.049 0.04,-0.072Zm2.974,0.865c0.418,0.755 1.248,2.248 1.351,2.387c1.505,2.035 3.955,3.659 6.563,3.436c0.315,-0.027 0.789,-0.084 1.243,-0.206c0.219,-0.059 0.457,-0.085 0.585,-0.209c0.025,-0.068 0.197,-0.527 0.275,-0.728c0.023,-0.061 0.045,-0.125 0.065,-0.188c-0.526,-0.128 -1.427,-0.365 -2.166,-0.652c-1.774,-0.691 -3.386,-1.774 -4.788,-3.079c-0.447,-0.417 -1.52,-1.359 -2.347,-2.078c-0.234,0.395 -0.53,0.894 -0.781,1.317Z"/><path d="M247.502,179.585c1.037,-0.015 1.663,0.327 2.25,0.925c0.643,0.656 1.16,1.997 3.817,3.362c1.787,0.918 3.398,1.013 4.448,1.348c1.369,0.436 2.16,1.153 2.349,2.557c0.177,1.317 -0.271,2.847 -1.067,4.348c-0.975,1.84 -2.451,3.663 -3.278,4.891c-3.835,5.694 -7.928,11.286 -10.998,17.45c-0.501,1.006 -0.908,2.416 -1.44,3.808c-0.631,1.652 -1.435,3.266 -2.591,4.38c-1.092,1.052 -2.375,1.082 -3.842,0.307c-1.228,-0.65 -2.682,-2.056 -4.288,-3.093c-1.229,-0.794 -2.895,-1.042 -4.068,-1.639c-0.951,-0.483 -1.664,-1.143 -2.038,-2.067c-0.338,-0.837 -0.418,-1.956 0.102,-3.507c0.273,-0.814 2.736,-4.074 3.409,-5.082c2.686,-4.018 5.043,-8.265 7.44,-12.478c1.805,-3.171 3.369,-6.469 4.821,-9.811c0.371,-0.854 1.328,-3.083 2.47,-4.36c0.767,-0.859 1.659,-1.326 2.504,-1.339Zm-8.562,40.879c0.842,-0.828 1.377,-2.047 1.841,-3.261c0.57,-1.491 1.02,-2.997 1.556,-4.074c3.129,-6.282 7.288,-11.987 11.196,-17.789c0.782,-1.162 2.192,-2.879 3.116,-4.621c0.467,-0.881 0.843,-1.749 0.746,-2.524c-0.036,-0.019 -0.085,-0.043 -0.121,-0.058c-0.191,-0.075 -0.413,-0.132 -0.658,-0.19c-1.166,-0.277 -2.717,-0.533 -4.417,-1.406c-2.369,-1.217 -3.385,-2.407 -4.068,-3.282c-0.117,-0.15 -0.223,-0.29 -0.324,-0.417c-0.077,-0.097 -0.099,-0.217 -0.201,-0.249c-0.049,0.033 -0.142,0.099 -0.197,0.15c-0.176,0.164 -0.342,0.37 -0.502,0.594c-0.766,1.073 -1.363,2.534 -1.628,3.143c-1.495,3.44 -3.107,6.834 -4.964,10.098c-2.433,4.276 -4.828,8.584 -7.554,12.662c-0.442,0.661 -1.727,2.343 -2.546,3.554c-0.247,0.365 -0.459,0.655 -0.513,0.816c-0.238,0.71 -0.337,1.176 -0.121,1.511c0.237,0.37 0.708,0.519 1.201,0.704c1.197,0.449 2.601,0.808 3.707,1.522c1.314,0.848 2.52,1.954 3.583,2.669c0.233,0.156 0.455,0.291 0.669,0.383c0.057,0.025 0.144,0.05 0.199,0.065Z"/></g></g></svg>