<?xml version="1.0" encoding="utf-8"?>
<!-- Generator: Adobe Illustrator 27.0.1, SVG Export Plug-In . SVG Version: 6.00 Build 0)  -->
<svg version="1.1" id="Vrstva_1" xmlns="http://www.w3.org/2000/svg" xmlns:xlink="http://www.w3.org/1999/xlink" x="0px" y="0px"
	 viewBox="0 0 1500 1500" style="enable-background:new 0 0 1500 1500;" xml:space="preserve">
<style type="text/css">
	.st0{fill:none;stroke:#000000;stroke-miterlimit:10;}
</style>
<g>
	<path d="M683.4,432.2c-14.7,3.7-16.4,21.1-15.1,33.6c0.8,7.8,2.6,17.6-2.6,24.2c-3.4,4.3-11,8.3-14.9,2.3c-3.8-5.8-0.4-14,0.9-20
		c1.4-6.6,2.1-14.1-2.3-19.7c-4.7-6.1-12.1-6.2-19.1-7.4c-2.9-0.5-6.3-1.3-8.4-3.5c-3.1-3.3-0.4-8.6,0.2-12.4
		c1.2-7.5,0.2-15.4,2.4-22.7c2.3-7.5,8.9-11,16.3-11.9c8.1-1,16.1,0.9,24.2,1.4c8.3,0.5,15.9-0.9,23.2-4.9
		c5.9-3.3,12.2-8.7,19.3-8.9c6.9-0.2,11,5.4,16.7,8.1c5.8,2.8,12.5,2.4,18-0.9c5.2-3.3,8.9-7.7,15.6-7.2c5.5,0.4,9.8,4.3,14.2,7.3
		c4.7,3.2,9.9,5.3,15.7,4.7c6-0.7,10.7-3.9,14.9-8.1c3.3-3.2,6.9-7.9,12.1-6.3c5.7,1.7,9.3,8.4,13.7,11.9c6,4.8,13.3,5.2,20.7,4.9
		c7.2-0.4,14.9-1.1,20.6,4.3c4.5,4.3,7,10.9,5.7,17.1c-1.3,6.1-6.5,10.7-12.3,12.4c-2.8,0.8-5.7,1-8.5,0.5c-3.6-0.7-6.4-2.9-9.5-4.7
		c-5.9-3.4-12.9-3.9-17.4,2c-4.5,5.9-3.8,13.1-2.3,19.8c0.8,3.8,2.3,8.3,0.9,12.2c-1,2.7-4.1,6.4-7.2,4.2c-3.7-2.7-4-9.5-6.2-13.2
		c-2.9-5-8.8-7.6-14.2-4.6c-7.3,4-7.6,12.4-6.6,19.7c1.3,9.1,1.8,18.3,0.6,27.5c-1.1,8.3-3,17.3-7.3,24.6
		c-3.7,6.3-11.6,12.5-19.2,8.8c-6.1-3-7.4-11.1-7-17.2c0.5-8.7,3.8-17,3.4-25.7c-0.3-6.4-2.9-13-7.9-17.2c-2.4-2.1-5.3-3.4-8.4-3.9
		c-2.9-0.4-7.8,1.7-9.6-1.2c-1.4-2.3-1-6-0.8-8.5c0.3-3.1,0.5-5.9-0.2-9c-1.3-5.9-5.3-10.5-11.6-9.6c-4.5,0.6-2.6,7.4,1.9,6.8
		c2.4-0.3,3.1,4.9,3.2,6.3c0.3,3.3-0.6,6.6-0.4,9.8c0.3,6.8,3.7,13,11.3,12.6c3.6-0.2,6.5-0.9,9.6,1.5s4.8,6.1,5.5,9.8
		c1.7,8.8-2.2,18-3,26.8c-0.6,6.7,0.6,14.1,4.7,19.7c4.5,6,11.8,8.2,19,6.3c17.1-4.3,22-25.9,23.8-40.9c1.2-9.6,0.6-19-0.8-28.5
		c-0.5-3.9-1.2-9.3,2.5-11.9c3-2.1,4.9,0.3,6.1,2.8c2.2,4.8,2.9,10.4,7.2,13.8c5.7,4.7,13.1,1.6,16.7-4.1c5-8,0.6-16.3-0.2-24.7
		c-0.3-3,0.2-6.8,2.5-9.1c3-2.9,6.8-0.2,9.6,1.5c6.3,3.9,12.6,5.7,20,4.2c6.4-1.4,12-5.1,15.8-10.4c7.7-11.3,2.7-27.6-8.6-34.4
		c-6.8-4.1-14.8-3.4-22.4-3c-4.1,0.2-8.4,0.3-12.2-1.4c-3.1-1.4-5.4-4-7.6-6.5c-4.4-4.7-9.2-9.6-16.2-9.3c-5.9,0.3-9.9,4.2-13.8,8.1
		c-4.2,4.2-9.1,7.8-15.3,6.5c-5.5-1.2-9.7-5.6-14.4-8.3c-5.5-3.2-12-4.5-18.2-2.5c-3,1-5.7,2.6-8.1,4.5c-2.2,1.7-4.3,3.6-7,4.2
		c-7.2,1.7-11.3-4-17.1-6.9c-7-3.6-14.1-3.2-21.1,0.1c-7.3,3.4-13.5,9.1-21.6,10.6c-9,1.7-18.3-0.9-27.3-1.3
		c-7.1-0.3-15,0.7-21.1,4.7c-6.5,4.3-9.4,11.2-10.3,18.7c-0.5,4-0.5,8-0.8,12.1c-0.3,4.4-1.6,8.5-2.1,12.9
		c-1,7.8,4.1,13.1,11.1,15.3c6.3,2,17.3,0.3,20.2,7.9c2.7,7-1.5,15.3-2.5,22.3c-0.9,6.7-0.1,14.3,5.8,18.6
		c5.3,3.9,12.3,2.9,17.6-0.7c6.2-4.2,9.3-10.6,10.1-18c0.9-9-2-17.9-1-26.8c0.7-6.4,3.6-13.7,10.4-15.4
		C689.7,437.9,687.9,431.2,683.4,432.2L683.4,432.2z"/>
	<path d="M688.5,419.2c37,8.3,75.3,8.2,112.2-0.4c4.4-1,2.5-7.8-1.9-6.8c-35.7,8.3-72.8,8.4-108.5,0.4
		C685.9,411.5,684,418.2,688.5,419.2L688.5,419.2z"/>
	<path d="M732,371.6c-22.6-19.9-34-49.5-34.7-79.2c-0.7-31.6,11.2-61.8,29.4-87.2c10.6-14.7,23.3-27.8,37.2-39.5l-6-2.5
		c-2.4,20.1,6,38.5,15.3,55.8c6.8,12.8,13.8,25.5,20.5,38.3c9.4,17.8,9.9,37.5,6,57.1c-3.9,19.4-11.3,37.9-19.9,55.6
		c-2,4,4.1,7.6,6.1,3.5c13.1-27.1,25.3-58,23-88.7c-0.6-8.9-2.7-17.6-6.4-25.8c-5.1-11.2-11.6-22-17.4-32.8
		c-10.5-19.6-22.8-39.8-20.1-63c0.4-3.3-3.9-4.2-6-2.5c-25.7,21.5-47.5,48.4-59.5,80c-11.2,29.5-12.6,62.8-1.6,92.6
		c6.1,16.5,15.8,31.5,29.1,43.2C730.5,379.6,735.4,374.7,732,371.6L732,371.6z"/>
	<path d="M738,297.8c16.1,32.4,20.6,69.3,13,104.6c-1,4.4,5.8,6.3,6.8,1.9c8.1-37.2,3.2-76-13.7-110
		C742.1,290.2,736,293.8,738,297.8L738,297.8z"/>
	<path d="M630.6,449.1c2,108.7,2.9,217.4,2.7,326.1c-0.3,106.8-1.8,213.6-4.6,320.4c-0.8,30.6-1.7,61.1-2.7,91.7
		c-0.1,3.9-0.3,7.8-0.4,11.8c-0.1,3.2,0.3,6.9-0.4,10.1c0-0.2,0.4-0.1,0.3,0.2c-0.2,0.4-0.4,0.8-0.7,1.2c-0.6,1.3-1.3,2.6-2,3.8
		l-8.1,15.3l3.9-1.6c-15.2-3.2-36.2-7-47.5,6.9c-7.3,9-9.3,25.8,2.4,32.3c6.1,3.4,13.1,2.5,19.7,1.2c5.7-1.1,14.3-4.3,19.3,0.1
		c3.1,2.7,3.7,7.3,5.7,10.8c1.7,3.1,4.4,5.5,7.6,6.9c6.3,2.7,13.9,1.3,19.7-2.1c8.1-4.7,12.5-13.5,17-21.3
		c4.7-8.2,12.5-19.3,23.5-16.9v-6.8c-5.8,2.3-11.9,4.8-16.1,9.5c-3.7,4.1-6.3,10.9-0.7,14.7c3,2.1,6.6,1.2,9.9,0.8
		c4.1-0.5,8.2-1,12.3-1.4c0.8-0.1,1.9-0.4,2.3,0.2s-0.8,4.4-1,5.2c-0.8,4-2.2,8.4,1.1,11.7c1.8,1.7,4.2,2.5,6.6,2.1
		c4.4-0.4,8.6-1.4,13-1c7.4,0.6,15.2,5.3,15.9,13.4c0.2,2.9,0,5.3,2.4,7.4c1.4,1.2,3.2,1.9,5.1,1.9c1.5,0.1,3,0,4.5,0l21.7-0.2
		c14.6-0.2,29.2-0.3,43.8-0.5c3.7,0,7.4-0.1,10.9-1.6c6.2-2.7,9-9.8,6.4-16c-0.1-0.3-0.3-0.6-0.5-1c-3.5-6.7-10.5-9.3-17-12
		c-3.6-1.5-7.7-3.4-9.8-6.9c-1.1-1.9-1.5-4-0.1-5.8c1.1-1.4,2.6-2.2,4.2-1.2c3.3,2.2,7.1-2.8,4.2-5.5l-55.1-53.3
		c-3.3-3.1-8.2,1.8-5,5l55.1,53.3l4.3-5.5c-4.6-3-10.1-1.1-13.3,3.1c-3.5,4.6-2.8,10.4,0.5,14.9c3.8,5.1,9.7,7.4,15.4,9.7
		c4.4,1.8,17.1,9.6,8.5,14.6c-3.7,2.1-10.3,1.3-14.6,1.3l-22,0.2l-25.3,0.3l-9.9,0.1c-1.9,0-4.1,0.4-6,0.1c-0.2,0-0.8,0.1-1,0
		c-0.9-0.7-0.8-5.7-1.2-7.1c-1.9-5.6-6-10.3-11.4-13c-6.4-3.1-13.7-3.1-20.6-2.2c-1.1,0.2-4.3,1.2-5,0.2c-0.1-0.2,0.2-1.2,0.3-1.4
		c0.2-2,0.8-4,1.1-6c0.8-4.4,1.1-9.3-4.1-11.2c-3.1-1.1-7.2,0-10.3,0.4l-6.8,0.8c-1,0.1-3.5,0.9-4.4,0.5c-3.3-1.3,2.5-6,3.8-6.9
		c3.1-2,6.3-3.6,9.8-4.9c2.9-1.2,3.7-6,0-6.8c-16.1-3.5-26.2,11-33.1,23.1c-3.6,6.3-7.5,13.5-14.3,16.7c-6.6,3.1-13.7,2.3-17-4.8
		c-2.7-5.9-4.8-11.6-11.5-13.8c-5.4-1.8-11.4-0.5-16.8,0.6c-5.7,1.2-13.1,3.4-18.4,0c-4.8-3-5.2-9.3-3.9-14.3
		c5.2-19.1,29.4-14.9,43.9-11.8c1.5,0.4,3.1-0.3,4-1.6l7-13.2c1.2-2.2,2.4-4.4,3.5-6.6c1.8-3.7,1.1-8.6,1.3-12.6
		c0.9-27.3,1.8-54.6,2.6-81.9c1.5-53.9,2.7-107.8,3.6-161.7c1.7-107.3,2.1-214.6,1.3-321.9c-0.4-62-1.2-124-2.4-186
		C637.5,444.6,630.5,444.6,630.6,449.1L630.6,449.1z"/>
	<path d="M793.1,1260c6.5,6.5,16.8,8.3,25,3.8c8.2-4.6,11.9-14.6,10-23.6c-0.7-3.3-6.2-3.4-6.8,0c-1.5,9.3,2.9,18,10.1,23.7
		c7.5,6,17.5,10.3,26.7,13.1c4.7,1.4,9.7,2.1,14.5,1.2c5.1-0.9,8.9-4.1,13.4-6.4c9.1-4.6,19.7,0.9,29.3-1.5
		c8.4-2.1,16.4-9.4,14.1-18.7c-0.4-1.7-2.6-3.1-4.3-2.5c-4.8,1.7-10,1.3-14.5-1.1c-5.1-2.7-7.4-6.8-9.4-12c-1.8-4.8-5.5-8.5-11-8
		c-5.5,0.5-10.4,4.7-13.9,8.8l5.5,0.7c-2.9-6.6-3.4-14.1-1.2-21c0.8-2.7-1.8-4.9-4.3-4.3c-5.1,1.1-10.3-2.1-11.9-7
		c-1.4-4.3-8.2-2.4-6.8,1.9c2.8,8.7,11.7,13.8,20.6,11.9l-4.3-4.3c-2.6,8.7-1.9,18.1,1.9,26.4c0.9,2,4.1,2.3,5.5,0.7
		c2.4-2.8,9.3-10.2,12.6-5c1.2,2,1.6,4.5,2.6,6.6c1.1,2.2,2.5,4.2,4.3,5.9c6.6,6.8,17.1,9.7,26.1,6.5l-4.3-2.5c1,4-2.2,7-5.6,8.7
		c-4.2,2.1-8.6,1.8-13.2,1.4c-5-0.5-10-1.1-15-0.2c-5.1,1-8.9,4.1-13.4,6.4c-9.7,4.8-21.3-1.4-30.1-5.6c-8.4-4.1-19-11.3-17.3-22.2
		h-6.8c1.2,5.9-1.4,12.6-6.8,15.6c-5.4,3-12.2,1.6-16.5-2.7C794.9,1251.8,789.9,1256.8,793.1,1260L793.1,1260z"/>
	<path d="M854.5,434.3c0.5,100.5,0.9,201,1.2,301.4c0.3,99.5,0.6,198.9,0.9,298.4c0.2,56.9,0.4,113.8,0.7,170.7c0,4.5,7,4.5,7,0
		c-0.5-100.5-0.9-201-1.2-301.4c-0.3-99.5-0.6-198.9-0.9-298.4c-0.2-56.9-0.4-113.8-0.7-170.7C861.6,429.8,854.5,429.8,854.5,434.3
		L854.5,434.3z"/>
	<path d="M864.7,1214.3c45.5,3.7,91.6,9.1,135.6,21.7c13.9,3.9,27.9,8.6,40.4,15.8c7.1,4.1,15.1,9.8,17.1,17.2
		c0.5,2.3,0.3,4.8-0.6,7c-1.5,3.3-3.3,5.3-6.1,7.8c-7.4,6.7-17.3,11.1-26.5,14.7c-32.4,12.7-67.6,18.8-101.9,23.6
		c-48.7,6.8-97.9,9.8-147,10.7c-51.8,0.9-103.8-0.7-155.4-5.6c-39.9-3.8-80-9.2-118.6-19.9c-13-3.6-26.1-7.8-38.2-13.9
		c-7.3-3.7-15.6-8.6-19.7-15.1c-0.8-1.1-1.3-2.3-1.7-3.6c-0.4-1.2-0.6-2.4-0.4-3.7c0.1-1.3,0.4-2.5,0.9-3.7c0.7-1.6,1.6-3,2.6-4.4
		c6.7-8.4,17.6-13.5,27.3-17.7c16-6.8,32.9-11.4,49.8-15.3c22.4-5,45-9,67.8-11.7c12.9-1.6,25.8-3,38.7-4.1c4.5-0.4,4.5-7.4,0-7
		c-46.5,4.1-93.9,10-138.6,24.2c-13.7,4.4-27.8,9.5-39.7,17.6c-7.4,5-15,12-15.8,21.5c-0.6,7.7,4.3,14.5,9.9,19.3
		c8.5,7.3,19,12,29.3,16c34,13.2,71,19.3,107,24.1c51,6.8,102.5,9.8,153.9,10.3c53.5,0.5,107-1.5,160.2-7.4
		c39.2-4.3,79-10.1,116.7-22.1c12.2-3.9,24.5-8.4,35.4-15.2c7-4.3,14.3-10.1,17-18.2c7-20.7-22.7-33.8-37.1-39.6
		c-16.8-6.7-34.4-11.3-52.1-15.1c-23.2-5-46.8-8.5-70.4-11.3c-13.3-1.6-26.6-2.9-40-3.9C860.2,1206.9,860.2,1213.9,864.7,1214.3
		L864.7,1214.3z"/>
	<path class="st0" d="M682.2,1188.3"/>
</g>
</svg>
