<svg id="Vrstva_1" data-name="Vrstva 1" xmlns="http://www.w3.org/2000/svg" viewBox="0 0 898.18 1680.77"><defs><style>.cls-1{fill:none;stroke:#000;stroke-miterlimit:10;}</style></defs><path d="M889.24,553.53c-21,5.29-23.32,30.08-21.57,47.87,1.08,11.05,3.7,25-3.77,34.44-4.83,6.13-15.71,11.81-21.25,3.32-5.35-8.21-.53-19.93,1.34-28.46,2-9.35,3-20.09-3.25-28.12-6.67-8.64-17.28-8.88-27.15-10.56-4.11-.71-9-1.88-12-5-4.4-4.73-.6-12.22.28-17.67,1.72-10.66.29-21.91,3.43-32.31,3.22-10.68,12.7-15.7,23.21-17,11.51-1.4,23,1.28,34.42,2,11.85.76,22.64-1.29,33-7,8.45-4.67,17.39-12.37,27.49-12.61,9.82-.24,15.66,7.63,23.79,11.51a26.76,26.76,0,0,0,25.58-1.34c7.34-4.66,12.68-11,22.25-10.2,7.82.61,14,6.14,20.21,10.34,6.69,4.52,14.14,7.61,22.35,6.66,8.59-1,15.29-5.61,21.28-11.56,4.64-4.61,9.84-11.19,17.24-9,8.09,2.37,13.19,12,19.53,17,8.59,6.87,18.94,7.47,29.53,6.92,10.31-.52,21.23-1.52,29.32,6.15,6.4,6.06,10,15.54,8.15,24.3s-9.2,15.19-17.57,17.64a26,26,0,0,1-12.14.74c-5.17-1-9.14-4.11-13.6-6.67-8.43-4.84-18.38-5.49-24.8,2.85s-5.35,18.65-3.21,28.26c1.2,5.45,3.28,11.85,1.24,17.35-1.4,3.81-5.85,9.18-10.2,6-5.2-3.85-5.7-13.49-8.82-18.86-4.15-7.17-12.53-10.87-20.27-6.59-10.37,5.74-10.89,17.67-9.42,28.1,1.86,13,2.52,26,.83,39.13-1.52,11.83-4.31,24.62-10.39,35-5.23,8.95-16.56,17.87-27.35,12.47-8.65-4.32-10.5-15.81-10-24.48.65-12.34,5.42-24.17,4.79-36.64-.46-9.12-4.18-18.5-11.22-24.55a22.67,22.67,0,0,0-11.95-5.5c-4.15-.51-11.13,2.48-13.69-1.71-2-3.24-1.38-8.51-1.08-12.07.38-4.42.71-8.45-.23-12.86-1.8-8.44-7.52-14.89-16.58-13.62-6.35.9-3.65,10.53,2.66,9.65,3.35-.48,4.44,6.91,4.61,9,.38,4.67-.86,9.33-.63,14,.49,9.63,5.28,18.51,16.13,18,5.12-.24,9.32-1.3,13.69,2.14s6.85,8.73,7.87,13.92c2.48,12.59-3.11,25.71-4.23,38.2-.86,9.59.81,20.15,6.7,28,6.38,8.48,16.86,11.61,27,9,24.38-6.19,31.3-36.88,33.93-58.26,1.68-13.69.79-27-1.09-40.63-.77-5.54-1.76-13.25,3.5-17,4.26-3.05,7,.38,8.67,4C1069,594,1070,602,1076.1,606.94c8.14,6.66,18.73,2.26,23.82-5.88,7.13-11.38.79-23.27-.26-35.25-.37-4.3.34-9.75,3.61-12.92,4.22-4.08,9.7-.28,13.69,2.19,8.94,5.53,17.91,8.19,28.43,6a36.79,36.79,0,0,0,22.45-14.87c11-16.07,3.89-39.33-12.25-49-9.75-5.87-21.07-4.82-31.95-4.34-5.77.25-12,.48-17.36-2-4.37-2-7.65-5.75-10.88-9.21-6.26-6.71-13.15-13.61-23.05-13.18-8.35.36-14.15,6-19.7,11.57-5.92,5.95-12.91,11.17-21.82,9.2-7.79-1.72-13.76-7.95-20.45-11.88-7.87-4.61-17.08-6.39-25.93-3.63a36.63,36.63,0,0,0-11.56,6.48c-3.08,2.39-6.13,5.1-10,6-10.28,2.37-16.16-5.66-24.34-9.88-10-5.16-20.08-4.53-30.1.16-10.36,4.85-19.3,12.92-30.79,15.1-12.87,2.44-26-1.32-38.85-1.81-10.18-.38-21.38.95-30,6.73-9.22,6.15-13.4,15.9-14.73,26.6-.71,5.7-.75,11.44-1.13,17.17-.41,6.29-2.25,12.17-3,18.37-1.42,11.13,5.8,18.62,15.88,21.85,9,2.89,24.61.4,28.78,11.2,3.87,10-2.15,21.77-3.5,31.77-1.3,9.59-.11,20.35,8.28,26.49,7.57,5.54,17.58,4.11,25-1,8.85-6,13.3-15.16,14.32-25.63,1.24-12.77-2.82-25.45-1.46-38.18,1-9.1,5.06-19.49,14.76-21.94,6.24-1.57,3.6-11.22-2.65-9.64Z" transform="translate(-535.01 -165.78)"/><path d="M896.45,535a358.43,358.43,0,0,0,159.83-.58c6.27-1.46,3.62-11.11-2.65-9.65a346.87,346.87,0,0,1-154.53.59c-6.26-1.41-8.94,8.23-2.65,9.64Z" transform="translate(-535.01 -165.78)"/><path d="M958.49,467.22c-32.19-28.29-48.43-70.47-49.4-112.8-1-44.95,16-88,41.92-124.14,15.06-21,33.23-39.66,53-56.21l-8.54-3.53c-3.35,28.57,8.6,54.9,21.76,79.44,9.75,18.18,19.65,36.27,29.27,54.52,13.4,25.42,14.11,53.48,8.51,81.3-5.55,27.59-16.14,54-28.36,79.22-2.79,5.76,5.83,10.84,8.64,5,18.67-38.57,36.09-82.55,32.8-126.29A107.29,107.29,0,0,0,1059,307c-7.31-16-16.52-31.28-24.85-46.74-15-27.89-32.47-56.68-28.6-89.67.56-4.76-5.61-6-8.53-3.54-36.64,30.61-67.63,69-84.77,113.91-16,42-18,89.42-2.24,131.87,8.71,23.51,22.57,44.91,41.45,61.51,4.82,4.23,11.92-2.81,7.08-7.07Z" transform="translate(-535.01 -165.78)"/><path d="M967,362a227.57,227.57,0,0,1,18.54,149.06c-1.37,6.28,8.27,9,9.64,2.66A238.7,238.7,0,0,0,975.68,357c-2.87-5.76-11.5-.7-8.64,5Z" transform="translate(-535.01 -165.78)"/><path d="M814,577.54q4.21,232.2,3.87,464.44-.57,228.19-6.54,456.34-1.73,65.29-3.9,130.58-.28,8.37-.56,16.74c-.16,4.6.38,9.84-.5,14.36,0-.26.5-.2.37.3a15.47,15.47,0,0,1-.93,1.75,60.17,60.17,0,0,1-2.88,5.44l-11.53,21.78L797,1687c-21.6-4.59-51.57-10-67.63,9.81-10.44,12.83-13.2,36.73,3.48,46,8.63,4.78,18.72,3.49,28,1.71,8.07-1.55,20.4-6.14,27.52.13,4.39,3.87,5.31,10.44,8.12,15.35a22.77,22.77,0,0,0,10.77,9.84c9,3.89,19.79,1.86,28.08-2.94,11.57-6.69,17.86-19.24,24.28-30.4,6.72-11.69,17.81-27.54,33.5-24.09v-9.65c-8.2,3.25-16.89,6.83-22.91,13.54-5.27,5.89-8.94,15.48-1,21,4.29,3,9.35,1.67,14.12,1.12,5.82-.66,11.64-1.46,17.47-2,1.12-.1,2.67-.57,3.22.24s-1.2,6.31-1.41,7.36c-1.08,5.69-3.1,12,1.63,16.72a11.24,11.24,0,0,0,9.41,3c6.27-.64,12.2-2,18.56-1.49,10.56.85,21.72,7.57,22.68,19.1.35,4.15.05,7.49,3.47,10.53a11.41,11.41,0,0,0,7.22,2.72c2.1.11,4.25,0,6.34-.07l30.91-.34c20.82-.24,41.64-.43,62.45-.7,5.22-.06,10.59-.21,15.46-2.29a17.37,17.37,0,0,0,8.43-24.19c-4.92-9.48-15-13.24-24.23-17.12-5.15-2.16-11-4.85-14-9.86-1.58-2.66-2.12-5.67-.11-8.26,1.55-2,3.73-3.09,5.93-1.65,4.77,3.14,10.11-3.93,6-7.85l-78.42-75.86c-4.63-4.47-11.71,2.59-7.07,7.07l78.42,75.86,6.06-7.85c-6.5-4.27-14.44-1.5-18.92,4.35-5,6.53-4,14.79.78,21.17,5.42,7.31,13.82,10.47,21.9,13.84,6.27,2.61,24.3,13.71,12.09,20.82-5.22,3-14.69,1.85-20.78,1.92l-31.35.34-36,.4-14.1.16c-2.66,0-5.88.56-8.51.09-.3,0-1.2.21-1.45,0-1.33-1-1.09-8.06-1.77-10.13A32.28,32.28,0,0,0,947.45,1756c-9.09-4.44-19.51-4.48-29.32-3.11-1.61.22-6.07,1.71-7.08.32-.19-.25.35-1.71.37-2,.28-2.83,1.08-5.69,1.62-8.48,1.19-6.28,1.51-13.3-5.79-16-4.37-1.61-10.23.06-14.67.57l-9.74,1.11c-1.4.16-5,1.27-6.33.73-4.75-1.88,3.51-8.57,5.38-9.88a67.07,67.07,0,0,1,13.91-6.91c4.17-1.65,5.3-8.48,0-9.65-22.87-5-37.38,15.65-47.19,32.9-5.11,9-10.62,19.17-20.42,23.74-9.39,4.38-19.56,3.24-24.2-6.77-3.88-8.37-6.88-16.55-16.42-19.72-7.72-2.56-16.23-.72-24,.86-8.11,1.66-18.6,4.81-26.25.07-6.83-4.24-7.42-13.27-5.5-20.34,7.39-27.16,41.85-21.23,62.52-16.84a5.11,5.11,0,0,0,5.64-2.3l10-18.84c1.66-3.13,3.39-6.23,5-9.4,2.63-5.24,1.6-12.28,1.79-18q2-58.3,3.65-116.61,3.24-115.14,5.07-230.33,3.64-229.26,1.89-458.56-.93-132.51-3.39-265c-.12-6.43-10.12-6.45-10,0Z" transform="translate(-535.01 -165.78)"/><path d="M1045.47,1732.55c9.24,9.22,24,11.87,35.57,5.37,11.72-6.58,17-20.77,14.3-33.58-1-4.65-8.86-4.89-9.64,0-2.11,13.3,4.12,25.57,14.44,33.82,10.66,8.54,24.94,14.72,38,18.64,6.68,2,13.75,3,20.66,1.72,7.28-1.34,12.67-5.89,19.1-9.11,13-6.53,28,1.22,41.7-2.14,12-2.94,23.43-13.36,20.07-26.62-.64-2.48-3.64-4.37-6.16-3.49a25.37,25.37,0,0,1-20.62-1.59c-7.25-3.86-10.56-9.64-13.35-17.06-2.6-6.9-7.84-12.1-15.67-11.34s-14.79,6.73-19.74,12.54l7.85,1a42.89,42.89,0,0,1-1.77-29.87c1.13-3.84-2.54-6.91-6.15-6.15-7.3,1.55-14.71-3-17-10-2-6.07-11.69-3.47-9.64,2.66a25.33,25.33,0,0,0,29.35,17l-6.15-6.15a53.56,53.56,0,0,0,2.77,37.57c1.27,2.82,5.91,3.3,7.86,1,3.38-4,13.28-14.51,18-7.15,1.78,2.78,2.28,6.48,3.75,9.47a33.85,33.85,0,0,0,6.07,8.46c9.44,9.7,24.3,13.77,37.16,9.25l-6.15-3.5c1.45,5.73-3.2,10-7.91,12.43-6,3-12.3,2.61-18.77,2-7.11-.65-14.24-1.58-21.34-.23-7.28,1.39-12.63,5.87-19.08,9.09-13.8,6.87-30.37-2-42.89-8-12-5.8-27.11-16.09-24.65-31.59h-9.64c1.75,8.44-2,18-9.7,22.29s-17.39,2.24-23.46-3.81c-4.56-4.56-11.64,2.51-7.07,7.07Z" transform="translate(-535.01 -165.78)"/><path d="M1133,556.54q1.07,214.68,1.64,429.35.66,212.52,1.33,425,.45,121.54,1,243.09c0,6.43,10,6.45,10,0q-1.07-214.68-1.64-429.35-.66-212.52-1.33-425-.45-121.54-1-243.09c0-6.43-10-6.45-10,0Z" transform="translate(-535.01 -165.78)"/><path d="M1147.5,1667.5c64.82,5.22,130.47,13,193.18,30.88,19.75,5.62,39.7,12.22,57.58,22.48,10.08,5.78,21.56,13.9,24.3,24.48a16.3,16.3,0,0,1-.89,10c-2.12,4.7-4.71,7.53-8.63,11.06-10.53,9.49-24.58,15.83-37.8,21-46.11,18.13-96.23,26.71-145.08,33.56-69.31,9.71-139.42,14-209.36,15.2-73.85,1.26-147.86-1-221.4-8-56.77-5.42-114-13.15-169-28.4-18.54-5.14-37.13-11.08-54.36-19.77-10.33-5.22-22.2-12.21-28-21.48a16.35,16.35,0,0,1-2.4-5.17,10.9,10.9,0,0,1-.62-5.26,23,23,0,0,1,1.22-5.32,30.48,30.48,0,0,1,3.74-6.24c9.52-12,25.08-19.3,38.82-25.18,22.75-9.74,46.92-16.29,71-21.84a971.53,971.53,0,0,1,96.58-16.68q27.51-3.45,55.13-5.81c6.36-.56,6.42-10.56,0-10-66.22,5.77-133.78,14.23-197.35,34.45-19.48,6.2-39.54,13.52-56.54,25.13-10.47,7.15-21.42,17.1-22.52,30.56-.9,11,6.1,20.65,14.1,27.47,12.13,10.33,27,17.07,41.77,22.8,48.43,18.86,101.12,27.46,152.39,34.34,72.63,9.74,146,13.92,219.25,14.64,76.15.76,152.48-2.2,228.2-10.52,55.86-6.13,112.52-14.36,166.23-31.44,17.32-5.51,34.87-12,50.39-21.58,10-6.18,20.36-14.34,24.26-25.86,10-29.48-32.32-48.12-52.8-56.35-23.9-9.6-49-16.08-74.17-21.5-33.08-7.13-66.61-12.15-100.21-16.1q-28.44-3.33-57-5.58c-6.42-.52-6.38,9.49,0,10Z" transform="translate(-535.01 -165.78)"/><path class="cls-1" d="M887.5,1630.5" transform="translate(-535.01 -165.78)"/></svg>