<?xml version="1.0" encoding="UTF-8"?><svg id="Layer_1" xmlns="http://www.w3.org/2000/svg" viewBox="0 0 1200 1200"><path d="M570.32,255.03c.56-4,1.01-7.96,1.61-11.89,3.25-21.11,6.88-42.13,15.2-62,1.93-4.62,4.47-8.93,6.62-13.44,.64-1.35,1.92-1.93,3.3-2.16,6.15-1.03,12.3-.91,18.44,.11,2.6,.43,3.88,2.17,4.61,4.48,1.1,3.47,1.67,7.07,2.29,10.64,3.38,19.55,5.21,39.24,5.65,59.08,.33,14.72,.92,29.43,1.61,44.14,.73,15.52,1.8,31.03,2.1,46.57,.03,1.57,.44,2.55,2.16,2.88,2.81,.54,4.05,2.53,4.38,5.22,.03,.27,.09,.55,.07,.81-.37,5.7,1.58,10.59,4.87,15.17,1.95,2.72,3.42,5.78,5.08,8.7,1.74,3.05,4.27,4.77,7.84,5.17,4.34,.49,8.69,.7,13.03,1.07,3.25,.28,6.13-.32,9.19-1.24,5.92-1.8,12.06-2.65,18.27-2.69,4.93-.04,7.51,2.33,8.22,7.26,.18,1.26,.41,2.52,.43,3.79,.17,11.81,1.04,23.64,.19,35.44-.6,8.32,1.11,16.23,2.82,24.22,1.8,8.43,3.62,16.88,4.88,25.4,.49,3.31,1.5,6.3,2.65,9.33,7.34,19.31,12.73,39.2,17.36,59.3,8.3,36.12,15.4,72.48,21.39,109.05,3.62,22.14,7.33,44.27,10.61,66.46,2.41,16.26,4.5,32.57,6.26,48.93,2.54,23.67,4.96,47.35,7.71,70.99,2.25,19.4,4.9,38.75,7.35,58.13,1.9,15.05,3.71,30.11,5.67,45.15,1.43,10.99,3.02,21.95,4.55,32.93,.45,3.23,.48,6.51,1.35,9.7,.44,1.6-.54,2.76-1.87,3.6-2.09,1.32-4.38,2.2-6.68,3.05-2.79,1.03-2.81,1.02-2.87,4.06-.1,4.55-.7,9.04-1.52,13.52-.99,5.36-3.95,8.43-9.26,9.75-11.1,2.77-22.28,5.18-33.45,7.66-11.61,2.58-23.29,4.85-35.09,6.41-8.83,1.16-17.69,2-26.59,2.39-7.08,.31-14.17,.65-21.26,.47-3.36-.09-6.71-.33-10.04-.86-3.58-.57-6.25-2.42-7.97-5.56-2.1-3.82-4.19-7.66-6.08-11.58-.95-1.96-2.13-2.88-4.38-2.8-1.98,.07-3.98-.34-5.96-.54-3.3-.34-5.17-2.29-6.16-5.34-2.06-6.33-3.19-12.86-4.36-19.38-2.73-15.19-5.29-30.41-7.44-45.7-1.66-11.78-3.14-23.58-4.6-35.39-1.45-11.72-2.81-23.44-4.14-35.18-1.22-10.74-2.35-21.49-3.5-32.24-.96-9.03-1.87-18.06-3.27-27.12-.22,2.51-.51,5.01-.65,7.52-1.27,23.5-2.6,47-3.74,70.51-.76,15.61-1.25,31.24-1.85,46.86-.62,16.07-.97,32.16-2.24,48.2-.65,8.15-1.16,16.31-2.5,24.39-.17,1-.05,1.94,.28,2.93,.81,2.44,.05,3.77-2.49,4.44-3.52,.93-7.15,1.31-10.77,1.54-2.61,.17-4.02,1.08-4.81,3.72-1.79,6.01-4.28,11.77-6.79,17.52-1.76,4.03-4.53,5.83-8.96,5.5-9.09-.69-18.16,.49-27.23,.79-8.46,.27-16.91,.45-25.35,.19-15.54-.48-31.09-.35-46.63-.44-2.46-.01-4.9-.13-7.35-.39-2.93-.3-5.13-1.64-6.74-4.07-1.97-2.97-3.44-6.19-4.61-9.55-2.04-5.84-3.62-11.81-4.46-17.94-.26-1.89-1-2.8-3-3.13-4.02-.67-8.01-1.61-11.97-2.59-3.12-.77-3.34-1.51-3.62-4.78-.32-3.79-1.04-7.55-1.62-11.31-1.28-8.37-1.69-16.82-2.05-25.26-.96-22.36-.6-44.71,.85-67.04,1.4-21.49,2.95-42.97,4.31-64.46,1.71-26.97,1.61-53.96,.97-80.96-.53-22.36-.61-44.71,.66-67.06,.97-17.06,2.58-34.06,4.66-51.02,1.88-15.32,3.97-30.62,6.27-45.88,1.6-10.59,2.96-21.23,4.42-31.84,2.06-14.96,5.58-29.61,9.64-44.14,1.34-4.81,2.68-9.62,3.99-14.44,.36-1.31,.64-2.65,.61-4.03-.18-8.66,1.24-17.21,1.9-25.81,.45-5.89,.92-11.77,1.4-17.66,.12-1.54,.28-3.07,.44-4.61,.18-1.66,.2-3.28-.8-4.73-.66-.95-.73-2.03-.77-3.13-.44-13.99-1.12-27.98-1.2-41.98-.02-2.91,.03-5.82,.19-8.72,.25-4.63,2.31-6.43,6.84-5.88,5.59,.68,11.17,1.43,16.73,2.32,2.29,.37,4.45,.32,6.73-.07,5.73-.97,11.52-1.61,17.34-1.76,2.26-.06,3.61-.86,4.69-2.9,2.76-5.22,5.71-10.34,8.71-15.42,1.68-2.85,3.14-5.69,3.12-9.12-.01-2.16,.63-4.13,2.5-5.49,.83-.6,.9-1.52,.93-2.45,.35-8.63,.81-17.25,1.05-25.88,.47-16.72,.68-33.44,1.25-50.15,.44-12.9,1.25-25.78,1.9-38.67,.41-7.99,.82-15.97,1.25-23.96,.42-7.91,1.53-15.71,3.23-23.45,.9-4.08,3.21-6.29,7.24-7.05,5.27-.99,10.48-.67,15.69,.35,2.46,.48,3.6,2.21,4.55,4.27,6.04,13.05,11.15,26.42,14.98,40.3,3.58,12.95,7.21,25.89,10.31,38.97,.24,1.02,.35,2.12,1.31,2.97Zm164.35,313.99c.45-.88,.15-1.48,.02-2.09-2.26-10.47-4.46-20.96-6.8-31.41-4.67-20.84-10.14-41.45-17.46-61.54-1.2-3.29-2.23-6.6-2.99-10.08-2.76-12.5-5.02-25.1-7.47-37.66-.36-1.86-1.19-2.77-3.05-3.22-5.38-1.3-10.73-2.75-16.07-4.2-3.43-.93-5.3-3.25-5.88-6.74-.51-3.05-.74-6.13-1.04-9.2-.81-8.13-1.7-16.25-3.28-24.28-.5-2.56-.65-2.74-3.17-2.74-3.19,0-6.34-.51-9.52-.67-7.35-.37-12.81-3.62-16-10.39-.5-1.07-1.12-2.08-1.74-3.09-.29-.48-.38-1.27-1.42-1.05-.05,.78-.13,1.58-.16,2.38-.26,7.18,.05,14.36,.04,21.54,0,5.28-2.15,7.43-7.39,7.74-4.72,.29-9.44,.36-14.15,.85-2.98,.31-5.96,.7-8.97,.61-4.23-.13-6.72-2.34-7.43-6.5-.28-1.62-.41-3.24-.51-4.87-.38-6.81-.03-13.63-.21-20.45-.03-1.15,.25-2.37-.7-3.74-3.96,0-8.13-.02-12.29,0-2.63,.02-2.69,.11-2.79,2.8-.6,16.26-1,32.53-1.03,48.8-.09,39,.65,77.99,1.42,116.98,.43,21.9,.67,43.81,.99,65.71,.01,.9-.06,1.82-.18,2.71-.2,1.41-1,2.39-2.47,2.48-1.59,.1-2.53-.82-2.89-2.33-.38-1.6-.49-3.23-.49-4.87,.1-24.55-.74-49.08-1.21-73.62-.29-15.09-.47-30.18-.71-45.26-.56-36.54-1.06-73.08,.7-109.6,.05-1.14,.37-2.35-.38-3.5h-20.88c-.84,3.34-.63,6.54-.63,9.7-.11,56.82,.12,113.63,.44,170.45,.01,2.27,.1,4.54,.15,6.82,.06,2.61,1.22,4.47,3.6,5.62,2.13,1.03,4.25,2.08,6.28,3.27,1.85,1.08,2.4,2.65,1.69,4.09-.72,1.47-2.25,2.04-4.22,1.38-3.2-1.08-6.26-2.45-9.02-4.43-2.4-1.72-3.9-3.96-4.34-6.95-.32-2.17-.43-4.34-.44-6.52-.07-13.73-.12-27.45-.18-41.18-.22-46.91-.68-93.81,.3-140.71,.01-.54,.08-1.1-.72-1.79h-9.18c-.61,2.37-.5,4.73-.59,7.07-.29,7.72,.04,15.46-.54,23.17-.4,5.32-2.34,7.4-7.74,8.06-7.7,.94-15.43,.59-23.14,.12-5.28-.33-7.38-2.9-7.24-8.25,.11-4.36,.49-8.71,.78-13.06,.24-3.59,.52-7.17,.8-11.01-1.17,.42-1.41,1.14-1.75,1.74-1.06,1.91-2.09,3.83-3.11,5.75-3.66,6.93-3.66,6.89-11.53,7.25-5.08,.23-10.16,.67-15.19,1.41-2.64,.39-2.86,.74-3.04,3.3-.56,7.98-1.03,15.96-1.65,23.93-.51,6.61-.52,13.26-1.45,19.84-.67,4.79-2.65,6.6-7.46,7.11-1.9,.2-3.81,.27-5.71,.45-3.14,.3-3.66,.74-3.79,3.79-.53,12.99-1.77,25.93-2.88,38.87-.28,3.25-.06,6.62-.84,9.74-1.02,4.13-2.13,8.26-3.22,12.38-3.36,12.82-6.8,25.62-9.05,38.71-2.57,14.95-4.23,30.03-6.44,45.04-.19,1.27-.82,2.58-.27,4.03,.37-.18,.66-.24,.82-.42,6.45-7.28,13.17-14.35,17.76-23.05,11.57-21.93,18.92-45.17,21.56-69.86,.07-.61,.2-1.27-.37-1.83-.21-.08-.45-.2-.71-.28-2.33-.69-3.19-1.56-3.08-3.14,.11-1.56,1.3-2.58,3.36-3.01,4.09-.85,8.16-.07,12.22,.14,1.64,.09,2.74,1.52,2.62,2.95-.14,1.56-1.09,2.44-2.59,2.74-.53,.11-1.09,.09-1.63,.12-3.27,.16-3.28,.16-3.6,3.25-.34,3.34-.54,6.71-1.02,10.03-2.23,15.55-6.68,30.48-12.71,44.97-4.98,11.97-10.86,23.38-19.63,33.13-3.95,4.38-8.12,8.59-11.45,13.51-.35,.51-.84,1.17-1.36,1.28-2.24,.46-2.39,2.18-2.6,3.92-1.53,12.44-3.21,24.86-4.57,37.32-1.9,17.35-3.19,34.74-3.77,52.19-.07,2.19,.24,3.82,2.27,5.02,1.47,.87,2.68,2.17,4.05,3.22,35.68,27.41,71.62,54.47,107.63,81.45,17.32,12.98,35.71,24.42,53.26,37.06,.41,.29,.83,.77,1.57,.27,.36-1.77,.47-3.67,.58-5.56,.77-12.61,1.5-25.22,2.4-37.81,.21-2.91-.22-6.03,1.73-8.67,.34-.46,.06-1.41,0-2.13-.44-4.43-.87-8.86-1.35-13.28-1.18-10.84-2.4-21.67-3.57-32.5-1.02-9.48-2.07-18.96-2.96-28.46-1.05-11.14-1.34-22.32-1.01-33.5,.12-3.99-.93-7.51-3.19-10.76-2.64-3.81-5.23-7.65-7.82-11.5-.81-1.21-1.61-2.43-1.85-3.91-.24-1.48,.16-2.73,1.56-3.45,1.33-.68,2.92-.23,3.76,1.24,2.44,4.28,5.51,8.13,8.42,12.07,4.13,5.58,6,11.66,5.7,18.6-.31,7.08-.07,14.19,.39,21.26,1.15,17.96,3.56,35.8,5.43,53.69,1.44,13.73,2.82,27.47,4.16,41.22,1.18,12.12,2.26,24.24,3.39,36.36,.07,.71,.03,1.48,.77,1.97,1.13-.3,1.71-1.29,2.47-2.03,37.67-37.15,75.06-74.58,113.83-110.6,11.26-10.46,22.2-21.23,32.92-32.25,2.23-2.29,2.71-4.49,2.19-7.53-3.56-20.86-6.88-41.75-10.8-62.55-1.18-6.25-2.44-12.47-3.67-18.71-.19-.99-.27-2.05-1.65-2.11-2.1-.09-3.5-1.46-4.81-2.84-3.19-3.36-6.3-6.8-9.44-10.22-5.81-6.32-10.81-13.25-14.81-20.84-10.15-19.27-18.27-39.36-24.24-60.32-.42-1.46-.44-3.05-1.25-4.32-1.08-.49-2.09-.18-3.07-.24-1.95-.12-2.95-.84-3.19-2.33-.26-1.59,.53-3.05,2.34-3.49,3.9-.95,7.88-1.33,11.89-1.03,1.36,.1,2.32,1.06,2.52,2.49,.2,1.45-.53,2.43-1.8,3.05-.72,.35-1.62,.33-2.24,1.13,.02,1.68,.68,3.28,1.19,4.9,5.31,16.93,12.15,33.25,19.66,49.32,6.29,13.45,15.35,24.83,25.43,35.53,.17,.18,.45,.27,.79,.47Zm-154.76,324.77c-3.47-.88-6.4-2.72-9.32-4.52-5.4-3.35-10.78-6.76-16.08-10.27-45.84-30.34-92.49-59.49-136.61-92.38-.55-.41-1.06-1.07-1.9-.69-.32,.5-.28,1.05-.29,1.59-.15,10.09-.5,20.17-1.07,30.24-.73,12.79-1.47,25.58-2.39,38.36-1.1,15.23-2.31,30.45-2.97,45.7-.94,21.9-.94,43.8,.49,65.68,.47,7.26,1.47,14.46,2.3,21.67,.21,1.86,1.07,2.68,2.86,2.96,3.41,.53,6.79,1.24,10.18,1.83,12.7,2.2,25.46,4.04,38.23,5.82,8.81,1.23,17.66,2.19,26.53,2.93,8.15,.67,16.32,1.03,24.49,1.37,11.74,.48,23.45,0,35.13-1.01,7.5-.65,14.97-1.74,22.46-2.52,1.69-.18,2.43-.88,2.56-2.5,.24-3.08,.5-6.16,.83-9.23,1.74-16.18,2.64-32.41,3.16-48.67,.42-13.08,.96-26.16,1.44-39.23,.08-2.34,.37-4.69,0-7.13Zm187.35-116.56c-.93,0-1.3,.42-1.7,.78-4.1,3.6-8.43,6.91-12.8,10.17-47.26,35.25-93.89,71.36-142.34,105.01-1.2,.84-1.66,1.71-1.46,3.17,1.13,8.46,2.12,16.94,3.3,25.39,2.2,15.73,4.57,31.44,7.45,47.06,1.48,8.03,2.6,16.13,4.73,24.03,.65,2.4,.83,2.57,3.3,2.74,.54,.04,1.09,.03,1.63,.05,11.55,.54,23.07,0,34.59-.69,8.34-.5,16.66-1.18,24.95-2.27,9.63-1.27,19.2-2.92,28.75-4.7,16.5-3.08,33.06-5.87,49.39-9.83,7.5-1.82,14.93-3.87,22.21-6.46,1.75-.62,2.47-1.43,2.09-3.38-.47-2.4-.54-4.87-.88-7.3-1.9-13.58-3.93-27.13-5.71-40.72-2.7-20.52-5.16-41.08-7.87-61.6-3.3-25.03-6.2-50.1-8.74-75.22-.21-2.04-.16-4.15-.88-6.23Zm-13.84-103.22c-2.55,2.55-4.8,4.77-7.02,7.02-19.29,19.54-39.81,37.79-59.5,56.91-26.73,25.96-53.34,52.04-80.01,78.06-1.5,1.46-2.92,3.04-4.61,4.23-1.33,.94-1.64,1.9-1.47,3.41,2.17,19.31,4.28,38.63,6.45,57.94,.2,1.75,.17,3.59,.98,5.45,1.74-.57,2.92-1.72,4.21-2.65,45.84-32.77,90.6-66.98,135.69-100.76,5.67-4.25,11.31-8.55,16.6-13.28,1.14-1.02,1.9-1.99,1.69-3.72-.78-6.22-1.35-12.46-2.09-18.68-2.63-22.09-5.72-44.12-9.29-66.08-.4-2.47-.5-5.02-1.62-7.84Zm-338.16,28.85c-.77,1.47-.51,2.76-.52,3.99-.2,22.81,.97,45.61,.97,68.42,0,1.63,.58,2.73,1.88,3.66,4.65,3.34,9.23,6.77,13.88,10.12,35.92,25.87,73.15,49.79,110.07,74.19,11.75,7.76,23.41,15.66,35.58,22.77,.91,.53,1.77,1.25,2.78,1.29,.75-.58,.67-1.25,.69-1.87,.21-4.36,.38-8.71,.6-13.07,.48-9.44,.98-18.87,1.46-28.31,.26-5.17,.52-10.34,.76-15.52,.04-.97,.24-1.98-.89-2.64-3.86-2.24-7.18-5.25-10.9-7.7-25.59-16.85-50.45-34.7-74.78-53.32-26.77-20.49-54.09-40.25-80.42-61.31-.27-.22-.6-.37-1.16-.7Zm174.8-370.85c-.42-22.55,.04-44.67-.12-66.63-1.51-.84-2.81-.66-4.06-.64-10.63,.16-21.25,.34-31.88,.55-3.12,.06-3.18,.17-3.12,3.31,.21,11.26,.29,22.53,.21,33.8-.06,8.18,0,16.35,.43,24.52,.1,1.89,.29,3.76,.97,5.82,12.55-.76,25.04-1.15,37.57-.72Zm-33.5,676.92c-1.9,.06-3.69,.14-5.49,.43-3.53,.55-3.51,.53-4,3.93-.29,1.97-.56,3.96-1.03,5.89-.43,1.76-1.69,2.59-3.14,2.39-1.4-.19-2.4-1.41-2.49-3.13-.03-.63,.1-1.26,.17-1.89,.21-1.97,.43-3.93,.68-6.3-4.72-.06-9.16,.33-13.5,.59-.44,1.61-.21,2.89-.24,4.16-.03,1.27,.07,2.55-.04,3.81-.16,1.81-1.19,2.84-2.67,2.91-1.59,.08-2.74-.99-3.02-2.88-.11-.72-.07-1.45-.11-2.18-.11-1.89-.23-3.78-.71-6.02h-13.62c0,2.21,0,4.47,0,6.72,0,1-.05,2-.53,2.92-.6,1.15-1.49,1.9-2.82,1.68-1.26-.21-2.13-1.02-2.37-2.32-.13-.71-.1-1.45-.15-2.17-.11-1.63-.19-3.26-.37-4.89-.29-2.66-.42-2.78-3.19-2.93-2.18-.12-4.36-.15-6.52-.47-.79-.12-1.64-.26-2.39,.42-.49,1.79-.62,3.69-.75,5.59-.12,1.72-.28,3.45-.6,5.14-.33,1.75-1.56,2.74-2.96,2.65-1.43-.09-2.55-1.22-2.66-2.96-.08-1.26,.12-2.53,.2-3.8,.16-2.51,.31-5.01,.48-7.64-5.13-.68-9.91-1.38-14.82-1.59-.51,2.51-.36,4.67-.08,6.82,.25,1.99,.31,3.99,.27,5.99-.04,2.21-.99,3.39-2.64,3.49-1.76,.11-2.87-1.07-3.14-3.36-.44-3.79-.71-7.6-.58-11.42,.03-.79,.27-1.64-.48-2.54-3.7-.65-7.56-1.39-11.57-1.54-.34,2.09-.09,3.88,.1,5.68,.45,4.06,.96,8.11,1.31,12.18,.18,2.06-.9,3.48-2.45,3.69-1.63,.23-2.88-.75-3.27-2.89-.46-2.5-.76-5.02-1.03-7.55-.44-4.04-.81-8.08-1.22-12.26-4.13-.67-8.04-1.59-12.5-1.81,1.76,8.34,3.7,16.12,7.44,23.38,1.14,2.21,2.7,3.09,5.2,3.07,24.81-.15,49.61,.81,74.43,.42,2-.03,3.99-.17,5.99-.24,7.8-.28,15.59-1.18,23.41-.66,1.74,.12,2.67-.47,3.37-2.01,2.23-4.88,4.21-9.85,6.12-14.86,.16-.42,.29-.86,0-1.63Zm140.92-10.67c.18,1.7,1.25,3.23,1.81,4.92,.38,1.12,.82,2.22,.73,3.44-.08,1.07-.49,1.96-1.55,2.35-1.1,.4-2.15,.27-3.05-.55-.69-.63-1.05-1.47-1.41-2.3-.84-1.91-1.74-3.8-2.52-5.74-.48-1.21-1.18-1.64-2.51-1.46-2.79,.39-5.59,.62-8.39,.93-.71,.08-1.47,.11-1.92,.92,.03,1.54,.91,2.87,1.35,4.34,.39,1.3,.91,2.56,.82,3.97-.07,1.22-.61,2.11-1.74,2.51-1.24,.44-2.32,.08-3.17-.93-.66-.79-.94-1.76-1.29-2.69-.89-2.35-1.74-4.72-2.66-7.21-3.47,.15-6.81-.02-10.05,.83-.13,1.35,.67,2.2,1.08,3.19,.63,1.51,1.46,2.94,1.96,4.49,.6,1.86-.07,3.39-1.45,3.94-1.31,.53-2.66,0-3.7-1.53-.41-.6-.73-1.26-1.06-1.9-1.08-2.1-2.2-4.18-3.18-6.33-.57-1.26-1.36-1.73-2.75-1.67-3.18,.14-6.36,.13-9.54,.21-.6,.01-1.29-.16-1.96,.85,1.56,2.83,3.31,5.77,4.82,8.83,1.37,2.79,3.58,3.93,6.53,4.1,3.9,.22,7.8,.57,11.71,.41,6.99-.28,13.99-.36,20.97-.86,9.25-.66,18.44-1.67,27.6-3.08,12.57-1.94,24.98-4.66,37.38-7.43,8.24-1.84,16.51-3.51,24.65-5.79,2.01-.56,3.1-1.69,3.56-3.64,.63-2.66,1.12-5.33,1.4-8.05,.19-1.88,.6-3.74,.12-5.62-3.86,.22-3.93,.27-4.57,3.62-.14,.71-.23,1.44-.38,2.15-.41,1.95-.72,3.94-1.31,5.84-.44,1.4-1.58,2.3-3.17,1.97-1.53-.33-2.24-1.48-2.24-3.01,0-.63,.23-1.25,.27-1.88,.13-1.95,1.06-3.83,.67-5.88-.38-.04-.65-.13-.9-.08-1.33,.27-2.67,.54-3.99,.87-2.94,.72-2.97,.78-2.67,3.9,.19,1.9,.47,3.79-.18,5.67-.4,1.15-1.21,1.87-2.37,1.97-1.3,.11-2.27-.57-2.81-1.75-.54-1.18-.58-2.46-.67-3.73-.09-1.23,.23-2.55-.58-3.66-3.19,0-13.02,2.03-14.87,3.11,.18,1.41,.92,2.67,1.41,4.02,.41,1.11,.85,2.2,.79,3.42-.06,1.21-.52,2.14-1.69,2.54-1.1,.37-2.16,.2-3.03-.64-.6-.58-.96-1.31-1.28-2.07-.87-2.09-1.76-4.17-2.75-6.5-3.32,.37-6.63,.94-10.05,1.9,.95,2.06,1.84,3.75,2.52,5.51,.64,1.63,.12,3.13-1.1,3.82-1.23,.7-2.84,.34-3.9-.92-.4-.48-.71-1.05-1.03-1.6-.81-1.42-1.62-2.84-2.4-4.28-.41-.76-.83-1.4-1.86-1.26-1.86,.26-3.76,.33-5.61,1.31,.25,1.04,.44,2.01,.71,2.95,.3,1.06,.52,2.12,.45,3.22-.07,1.18-.54,2.13-1.77,2.47-1.26,.34-2.38,.06-3.12-1.06-.4-.6-.68-1.28-.92-1.96q-1.73-5.07-6.88-4.09c-.45,.08-.9,.13-1.34,.68ZM537.16,231.23c-.95,3.54-1.06,7.08-1.33,10.59-1.03,13.4-1.59,26.82-1.84,40.26-.16,8.89-.5,17.79-.82,26.68-.33,9.35-.69,18.69-1.12,28.03-.08,1.73,.48,2.55,2.21,2.65,2.27,.13,4.42,.71,6.37,2.11,1.56-1.64,2.93-3.21,4.45-4.63,1.14-1.07,1.38-2.23,1.05-3.68-.73-3.2-.93-6.45-1.02-9.73-.48-18.43,.32-36.86-.13-55.3-.04-1.53,0-3.08,.9-4.47,.64-1,.46-2.09,.04-3.14-2.52-6.35-3.76-13.06-5.68-19.58-.96-3.28-1.64-6.66-3.09-9.79Zm.04-56.21c-3-.77-5.77-1.02-8.57-1.03-5.77,0-5.97,.21-7.13,5.75-2.36,11.34-2.56,22.88-3.2,34.37-.55,9.78-1.02,19.57-1.48,29.36-.12,2.6-.49,5.21,0,7.75,3.26,.84,10.3,1.53,12,1.15,1.77-25.81,5.25-51.48,8.38-77.37Zm63.39-3.73c4.16,25.35,6.18,50.54,7.92,75.93,4.73-.04,9.03-.09,13.22,.64,.23-.67,.37-.91,.38-1.17,.04-.82,.04-1.63,.03-2.45-.26-18.45-1.68-36.8-4.49-55.04-.77-5.02-1.74-10.01-2.64-15-.21-1.16-.38-2.47-1.87-2.67-4.04-.54-8.09-.42-12.55-.25Zm-.21,58.07c-.99,4.16-1.42,8.3-2.21,12.37-1.75,9.09-3.02,18.17-2.35,27.5,.6,8.42,.4,16.89,.28,25.34-.18,12.17,.02,24.35,.21,36.52,.01,.8-.27,1.73,.68,2.17,1.63,.76,2.84,2.23,4.62,2.85,1.17-.96,1.92-2.36,3.38-2.79,1.53-.45,1.75-1.54,1.77-2.93,.16-12.45-.51-24.88-1.24-37.3-.55-9.34-1.28-18.66-1.93-27.99-.77-11.14-1.54-22.28-2.33-33.42-.05-.77,.05-1.65-.88-2.31Zm25.54,103.08c-.6-19.81-1.85-39.35-2.8-59.02-4.22-.94-8.31-.42-12.38-1.1-.58,1.83-.29,3.46-.18,5.05,1.25,17.12,2.29,34.25,2.24,51.42,0,1.15-.23,2.36,.61,3.65,4,.25,8.11,.42,12.52,0Zm-112.38,5.79c3.49,0,6.56,0,9.63,0,2.62,0,2.78-.14,2.86-2.76,.1-3.45,.04-6.91,.23-10.35,.8-14.42,1.23-28.85,1.46-43.29,.01-.89,.2-1.82-.51-2.89-3.65-.56-7.53,.12-11.65-.68-.45,20.11-.72,39.86-2.03,59.97Zm27.8,13.44c.96,.5,1.97,.38,2.95,.38,17.7,0,35.4-.01,53.11-.03,.27,0,.55-.02,.82,0,1.36,.07,2.01-.55,2-1.93,0-1.91,.05-3.81,.03-5.72,0-.43-.06-1.05-.34-1.26-2.45-1.89-4.42-4.46-8.03-4.56-12.71-.35-25.42-.08-38.12,.14-1.59,.03-2.77,.54-3.82,1.67-2.72,2.93-5.38,5.91-7.78,9.1-.43,.56-1.01,1.08-.81,2.21Zm-28.36-5.18c-.68,6.49-1.1,12.77-1.3,19.49,6.59-.08,12.84,.62,19.43,1.05-.23-6.44,.17-12.4-.54-18.36-.18-1.49-1.01-2.08-2.31-2.15-4.97-.29-9.94-.73-15.29-.02Zm97.76,14.51c6.29-1.04,12.32-.88,18.6-.23-.08-6.14-.08-11.82-1.07-17.46-.25-1.42-1.08-1.91-2.44-2.03-4.35-.36-8.71-.18-13.06-.29-2-.05-2.29,.39-2.3,2.49-.02,3.72-.02,7.44,0,11.17,.02,1.98-.16,3.97,.27,6.36Zm.25,10.43c-.24,4.88,.01,9.17,.88,13.81,6.15-.53,12.2-1.04,18.39-1.57,.07-4.54-.1-8.64-.67-12.96-6.26,.46-12.27,.89-18.6,.72Zm-101.04,17.63c7.38-.29,14.31-.56,21.34-.84,.33-2.72,.44-5.02-.13-7.43-6.92-.42-13.59-1.71-20.38-1.73-.76,3.31-.8,6.36-.83,9.99Zm6.26-131.02c-.17,4.37-.36,8.41-.46,12.46-.04,1.45,1.17,1.74,2.26,1.83,2.7,.2,5.42,.27,8.12,.42,1.23,.07,1.88-.49,1.92-1.71,.11-3.43,.21-6.87,.3-10.3,.02-.82-.33-1.44-1.19-1.55-3.48-.42-6.94-1.12-10.95-1.14Zm106.26-3.9c-4.56-.42-8.78-1.43-13.36-.53,.17,3.7,.18,7.2,.66,10.7,.14,1.02,.8,1.27,1.65,1.48,3.63,.9,7.34,.4,11.05,.97v-12.61Z"/><path d="M431.95,616.09c-1.51-.12-2.69-.14-3.85-.34-1.52-.26-2.4-1.22-2.4-2.8,0-1.6,.95-2.62,2.42-2.8,2.42-.3,4.87-.28,7.26,.38,1.37,.38,2.17,1.31,2.1,2.77-.07,1.46-.97,2.32-2.37,2.54-1.15,.18-2.33,.19-3.17,.25Z"/><path d="M425.57,643.07c-.98,0-2.17,.13-3.23-.57-1.07-.71-1.67-1.67-1.44-2.99,.2-1.19,.95-1.96,2.11-2.22,2.04-.46,4.12-.71,6.21-.45,1.74,.22,2.79,1.32,2.87,2.76,.08,1.51-.76,2.49-2.55,3.01-1.23,.35-2.5,.42-3.96,.46Z"/><path d="M429.38,625.06c.37,.02,.82,.03,1.27,.07,1.51,.13,2.62,.84,2.86,2.39,.24,1.55-.64,2.58-2.03,3.11-1.52,.58-3.15,.78-4.75,.86-1.5,.07-2.61-.75-2.98-2.25-.38-1.52,.37-2.6,1.63-3.38,1.21-.75,2.6-.61,4.01-.79Z"/><path d="M426.62,936.67c.99,0,2-.08,2.98,.02,1.31,.13,2.16,.91,2.41,2.21,.25,1.32-.28,2.5-1.47,2.92-3.01,1.05-6.15,1.54-9.32,.92-1.23-.24-2-1.22-2.03-2.58-.04-1.46,.73-2.39,2.06-2.86,1.74-.61,3.56-.6,5.37-.63Z"/><path d="M422.28,954.65c1.99,.25,4.26,.85,6.42,1.76,1.65,.69,2.36,2.05,2.03,3.4-.37,1.47-1.85,2.47-3.59,2.13-2.21-.42-4.42-.92-6.51-1.79-1.79-.74-2.68-2.15-2.36-3.5,.34-1.44,1.58-2.12,4.01-2.01Z"/><path d="M427.95,912.19c.99,0,1.99-.08,2.97,.02,1.54,.15,2.5,1.09,2.65,2.6,.14,1.44-.73,2.52-2.04,2.83-2.55,.62-5.18,.68-7.77,.25-1.29-.21-2.02-1.2-2.1-2.49-.09-1.43,.71-2.37,2.01-2.89,1.39-.56,2.85-.26,4.28-.32Z"/><path d="M659.46,948.59c.09,0,.18-.01,.27-.02,6.59-.31,8.69,1.4,9.67,7.88,.63,4.14,1,8.3,1.02,12.48,.01,3.16-.64,3.53-3.59,4.29-7.69,1.96-15.59,2.27-23.38,3.39-3.69,.53-6.12,.15-7.23-5.27-.93-4.53-1.53-9.14-1.58-13.78-.04-3.39,1.77-6.99,6.39-7.22,6.16-.31,12.26-1.42,18.43-1.75Zm4.57,19.65c.27-3.91-.31-7.4-.8-10.87-.39-2.79-.73-3.03-3.55-2.8-5.78,.48-11.54,1.11-17.32,1.62-1.51,.13-2.09,.85-1.92,2.3,.28,2.43,.47,4.87,.86,7.28,.24,1.5-.08,3.12,1.03,4.74,7.07-.36,14.12-2.17,21.69-2.27Z"/><path d="M757.77,835.62c-1.08-.01-2.18,.16-3.21-.26-1.37-.56-2.25-1.55-2.08-3.12,.16-1.44,1.06-2.28,2.47-2.44,1.97-.22,3.94-.62,5.93-.38,1.89,.23,3.11,1.33,3.22,2.76,.11,1.43-.95,2.57-2.84,3.09-1.15,.32-2.32,.28-3.49,.35Z"/><path d="M755.07,823.74c-.23-.04-1.08-.03-1.82-.31-1.3-.5-2-1.51-1.89-2.97,.1-1.35,.86-2.32,2.11-2.5,2.14-.3,4.27-.84,6.47-.7,1.56,.1,2.59,.85,2.8,2.43,.2,1.56-.58,2.65-2.01,3.16-1.63,.58-3.33,.85-5.65,.89Z"/><path d="M757.38,809.6c.82,.08,1.48,.06,2.08,.22,1.23,.34,2.07,1.11,2.22,2.45,.15,1.3-.3,2.41-1.5,2.93-2.18,.95-4.5,1.36-6.88,.93-1.48-.27-2.45-1.12-2.51-2.75-.06-1.61,.82-2.63,2.23-3.03,1.47-.42,3.02-.54,4.37-.76Z"/></svg>