<?xml version="1.0" encoding="UTF-8"?><svg id="Layer_1" xmlns="http://www.w3.org/2000/svg" viewBox="0 0 1200 1200"><path d="M249.82,653.34c.45-2.65,.21-5.07-.13-7.46-2.62-18.38-7.48-36.25-12.55-54.07-5.05-17.73-11.21-35.12-16.4-52.8-2.89-9.85-5.64-19.74-7.07-29.92-1.29-9.14-1.85-18.3,1.32-27.22,3.73-10.51,10.47-18.65,20.11-24.22,6.93-4.01,14.48-5.15,22.37-3.74,4.71,.84,8.67,3.16,12.07,6.46,3.83,3.72,6.67,8.14,9.16,12.81,5.43,10.14,9.1,20.98,12.45,31.93,5.45,17.81,9.34,36.02,13.66,54.12,3.69,15.45,7.43,30.9,13.02,45.82,1.34,3.58,2.81,7.1,4.62,10.46,.5,.93,.83,2.03,1.95,2.63,1.04-.93,.74-2.18,.77-3.3,.23-8.48-.78-16.87-1.9-25.24-3.04-22.7-8.23-44.99-12.55-67.45-3.4-17.68-6.23-35.44-6.13-53.5,.05-9.75,1.21-19.4,4.23-28.74,2.53-7.83,6.5-14.79,12.52-20.48,4.93-4.65,10.64-7.18,17.57-6.4,4.19,.47,7.86,2.17,11.25,4.54,4.45,3.1,8.05,7.06,11.33,11.33,7.85,10.23,12.93,21.84,16.91,34,4.45,13.59,7.1,27.59,9.28,41.69,1.88,12.11,3.39,24.28,4.73,36.46,1.1,10.02,1.91,20.07,2.95,30.09,1.23,11.91,1.78,23.91,4.32,35.67,.42,1.96,.99,3.88,1.83,5.69,1.71,3.68,3.07,3.86,5.56,.73,1.95-2.45,3.23-5.26,4.34-8.15,2.55-6.64,4.12-13.55,5.35-20.53,2.35-13.33,3.82-26.78,5.58-40.19,2.08-15.75,3.78-31.56,7.58-47.03,2.46-10.02,5.87-19.67,11.38-28.48,3.22-5.14,7.05-9.71,12.26-12.96,9.66-6.02,20.04-4.84,28.11,3.18,2.27,2.26,4.12,4.84,5.68,7.63,3,5.36,4.97,11.09,6.16,17.1,2.24,11.29,2.66,22.73,2.49,34.18-.17,11.45-.73,22.89-1.49,34.31-.64,9.7-1.44,19.38-2.47,29.05-1.01,9.48-1.89,18.98-2.96,28.45-.93,8.3-1.9,16.6-2.46,24.94-.56,8.34-1.05,16.69-1.22,25.05-.21,10.27-.05,20.54-.03,30.81,0,.97-.11,1.98,.32,2.86,1.08,.3,1.64-.43,2.28-.86,14.95-10.01,28.72-21.35,40.4-35.13,4.47-5.27,9.04-10.45,14.02-15.25,6.26-6.04,13.14-11.22,21.26-14.51,5.35-2.17,10.88-3.46,16.75-2.66,6.95,.95,12.15,4.56,15.99,10.27,3.18,4.71,4.54,10.05,5.09,15.64,1.38,14.04-1.62,27.47-5.77,40.71-5.63,17.96-14.75,34.15-25.38,49.55-13.75,19.94-29.22,38.51-45.34,56.56-7.14,8-14.28,16.01-21.9,23.57-1.23,1.21-2.37,2.6-3.82,3.48-1.82,1.1-2.26,2.6-2.33,4.51-.15,3.81-.44,7.61-1.09,11.38-1.03,5.96-2.87,11.63-5.62,17-.74,1.45-.89,2.79-.59,4.42,4.04,21.42,8.89,42.68,11.88,64.29,1.23,8.84,2.12,17.68,1.73,26.62-.16,3.73-.65,7.42-1.68,11.02-2.26,7.89-7.13,13.79-14,18.12-5.88,3.7-12.22,6.4-18.7,8.82-24.41,9.12-49.52,15.62-75.16,20.19-14.31,2.55-28.66,4.93-43.13,6.35-8.96,.88-17.93,1.3-26.93,.26-8.37-.97-14.07-5.06-17.17-13.05-4.51-11.65-7.76-23.65-10.19-35.87-2.92-14.71-5.24-29.53-7.12-44.41-.34-2.7-.84-5.38-1.54-8.02-.28-1.05-.78-1.77-1.76-2.25-14.92-7.35-24.64-19.39-31.16-34.39-4.1-9.43-7.17-19.22-10.46-28.93-4.6-13.59-10.12-26.85-14.55-40.5-5.67-17.45-10.24-35.21-15.22-52.86-4.45-15.74-9.47-31.28-15.88-46.35-.63-1.49-1.09-3.1-2.51-4.13-.53-.39-.91-1-.86-1.64,.19-2.61-1.16-4.73-2.14-6.95-11.55-26.3-22.03-52.99-30.17-80.57-3.83-12.98-7.23-26.08-9.35-39.46-1.32-8.35-2.22-16.76-1.28-25.24,.49-4.46,1.46-8.79,3.71-12.73,2.9-5.07,6.96-8.58,13-9.27,3.88-.44,7.35,.77,10.59,2.79,3.91,2.43,7.04,5.72,9.96,9.22,4.91,5.89,8.96,12.35,12.75,18.99,8.34,14.62,15.27,29.93,22.33,45.18,5.57,12.04,10.95,24.16,17.56,35.69,1.58,2.76,3.23,5.48,5.15,8.02,.59,.78,1.05,1.71,2.44,2.28Zm239.6,178.71c-1.71,1.41-2.89,2.36-4.06,3.35-6.11,5.19-12.64,9.79-19.56,13.84-5.57,3.27-11.43,5.97-17.17,8.9-19.06,9.75-38.79,17.81-59.45,23.48-1.22,.34-2.4,.86-3.7,.82-1.46-.03-2.43-.75-2.81-2.12-.36-1.32,.28-2.36,1.37-2.99,.93-.54,1.99-.88,3.02-1.23,7.41-2.47,14.86-4.82,22.22-7.4,15.82-5.54,30.61-13.38,45.57-20.82,12.13-6.03,22.9-14.03,33.1-22.88,1.54-1.33,2.08-2.78,1.97-4.75-.43-7.62-1.04-15.22-1.83-22.81-.93-8.94-1.98-17.86-3.04-26.79-1.32-11.09-2.72-22.17-4.06-33.25-1.15-9.47-2.13-18.95-2.54-28.48-.2-4.81-.59-9.62-.52-14.44,.01-.91,.03-1.82-.81-2.48-3.75-2.91-7.56-5.73-12.29-6.82-3.39-.78-6.51-.13-9.09,2.34-1.11,1.07-2.19,2.18-3.25,3.3-3.36,3.54-7.41,4.78-12.15,3.55-4.65-1.21-9.26-2.62-13.95-3.69-7.48-1.7-14.68-1.45-20.73,4.13-5.29,4.88-11.48,5.9-18.27,4.44-4.43-.95-8.84-2.03-13.28-2.98-5.91-1.27-11.15-.4-15.31,4.52-2.43,2.87-5.71,4.08-9.49,3.89-1.81-.09-3.62-.15-5.43-.43-3.14-.48-6.3-.86-9.47-1.09-6.32-.46-11.86,1.28-16.16,6.19-1.14,1.3-2.35,2.53-3.54,3.78-3.35,3.55-7.48,4.62-12.18,3.8-2.15-.37-4.28-.81-6.42-1.2-5.68-1.02-10.66,.07-14.46,4.77-.74,.92-1.59,1.75-2.41,2.59-1.83,1.88-4,3.03-6.62,3.5-2.08,.37-4.16,.31-6.25,.38-4.5,.16-8.32,1.72-11.14,5.36-.39,.5-.84,.96-1.21,1.47-2.29,3.12-5.35,4.51-9.22,4.19-.99-.08-2-.07-3-.05-2.43,.04-4.49,.89-5.7,3.09-2.08,3.77-5.43,5.44-9.51,6.02-.81,.11-1.6,.29-2.4,.48-.84,.2-1.44,.67-1.77,1.53-1.04,2.71-2.23,5.38-.6,8.3,.34,.62,.41,1.39,.6,2.09,5.38,19.13,10.19,38.45,16.94,57.17,5.94,16.48,12.07,32.9,17.63,49.52,2.48,7.42,5.72,14.52,9.74,21.26,1.22,2.05,2.72,3.1,5.11,3.48,6.59,1.06,13.21,1.05,19.84,1.04,2.91,0,4.42,1.04,4.39,2.93-.03,1.79-1.38,2.7-4.2,2.89-4.82,.33-9.63,.06-14.44-.09-.66-.02-1.43-.4-2.11,.5,4.11,3.94,8.97,6.78,13.66,9.84,.29,.19,.68,.23,1.03,.34,4.45,1.34,8.99,2.3,13.62,2.58,12.37,.76,24.71,.3,36.99-1.37,12.62-1.72,25.02-4.59,37.43-7.35,20.32-4.52,40.45-9.7,59.85-17.39,13.89-5.5,27.37-11.75,39.71-20.29,1.84-1.28,3.26-2.82,4.3-4.81,2.29-4.36,4.29-8.83,5.57-13.59,1.18-4.37,2.13-8.79,1.94-14.09Zm-10.53-196.51c.09-.59,.17-1.03,.22-1.47,.42-4.52,.79-9.05,1.27-13.56,.96-9.03,2.07-18.04,2.95-27.08,1.06-10.94,2.13-21.87,2.95-32.83,.92-12.23,1.61-24.47,2.03-36.73,.12-3.49,.08-3.58-3.22-4.59-16.04-4.88-32.35-6.48-49-4.01-1.67,.25-2.34,.95-2.55,2.55-1.23,9.18-2.58,18.34-3.76,27.52-1.72,13.42-3.2,26.87-5.58,40.19-1.52,8.5-3.43,16.92-6.97,24.85-1.53,3.42-3.39,6.65-6.1,9.29-5.02,4.89-10.87,4.23-14.71-1.64-1.81-2.78-2.8-5.89-3.58-9.08-2.09-8.59-2.82-17.38-3.7-26.13-1.27-12.74-2.45-25.49-3.8-38.22-1.74-16.34-3.8-32.64-6.65-48.83-.93-5.28-2.05-10.51-3.23-15.73-.4-1.77-1.22-2.53-2.99-2.26-.45,.07-.91,.07-1.36,.13-12.84,1.53-25.41,4.29-37.77,8.04-5.91,1.79-11.75,3.78-17.51,6.02-1.38,.54-2.14,1.26-1.79,2.83,.14,.62,.09,1.27,.18,1.9,1.42,9.89,3.14,19.72,5.06,29.52,4.67,23.87,10.11,47.61,12.54,71.87,.59,5.88,1.05,11.77,.72,17.68-.11,2.08-.36,4.16-.94,6.18-.77,2.66-2.01,4.99-4.94,5.63-2.94,.63-5.04-1.02-6.84-3.09-1.38-1.58-2.46-3.37-3.46-5.22-2.34-4.33-4.2-8.86-5.88-13.47-4.96-13.58-8.51-27.58-11.94-41.6-4.14-16.93-7.79-33.98-12.59-50.74-.39-1.38-.59-2.84-1.43-4.04-1.32-.26-2.36,.41-3.45,.8-15.95,5.74-31.19,12.97-45.76,21.63-1.79,1.07-3.5,2.28-5.26,3.41-1.61,1.04-1.98,2.37-1.37,4.21,1.37,4.14,2.55,8.34,3.88,12.48,8.36,25.93,16.38,51.95,21.8,78.7,1.3,6.41,2.34,12.86,2.85,19.39,.21,2.73,.1,5.47-.81,8.08-1.35,3.84-4.71,5.12-8.32,3.25-1.81-.94-3.2-2.38-4.5-3.91-2.77-3.27-5.04-6.89-7.21-10.58-5.76-9.8-10.54-20.11-15.35-30.39-7.08-15.14-13.86-30.42-21.82-45.13-.59-1.08-.92-2.39-2.12-3.01-.24,.03-.44,0-.59,.08-.5,.22-.99,.46-1.46,.72-10.45,5.93-20.65,12.21-29.38,20.62-1.55,1.5-1.91,2.83-1.38,4.77,1.2,4.38,2.23,8.8,3.43,13.17,8.54,30.98,20.2,60.81,33.18,90.16,.29,.65,.44,1.41,1.35,1.86,1.49-.52,2.13-1.99,2.95-3.24,2.63-4.01,6.3-6.11,11.09-6.45,2.54-.18,5.08-.49,7.62-.33,3.12,.2,5.31-.88,7-3.63,3.22-5.23,8.12-7.62,14.25-7.43,2.18,.06,4.37,.07,6.53,.29,2.57,.26,4.62-.46,6.27-2.48,1.67-2.04,3.36-4.06,5.16-5.99,3.61-3.88,8.11-5.94,13.38-6.63,4.54-.59,9.08-.29,13.61-.4,4.36-.1,7.93-1.73,10.66-5.15,1.53-1.91,3.02-3.87,4.59-5.75,2.29-2.73,5.18-4.56,8.65-5.37,3.21-.75,6.47-.77,9.75-.42,5.34,.56,10.6,1.58,15.83,2.68,4.82,1.01,8.61,.32,11.54-4.17,3-4.6,7.62-7.19,12.96-8.38,4.21-.94,8.46-.93,12.74-.47,4.89,.53,9.64,1.79,14.45,2.72,2.89,.56,5.61,.23,8.2-1.11,1.45-.75,2.89-1.56,4.22-2.5,7.78-5.51,16.1-6.13,24.87-2.85,2.64,.99,5.27,1.99,7.89,3,4.1,1.58,8.18,1.47,12.21-.24,2.18-.92,4.32-1.91,6.49-2.83,4.16-1.78,8.45-1.91,12.82-.95,2.86,.63,5.53,1.76,8.17,2.99,.81,.38,1.51,1.04,2.77,.93Zm-9.23,241.82c.12,.61,.17,.97,.26,1.31,2.56,9.47,4.66,19.05,6.52,28.67,2.99,15.42,5.21,30.97,7.8,46.46,.19,1.16,.45,2.33,.46,3.5,.02,1.72-1.02,2.95-2.46,3.11-1.61,.18-2.58-.69-3.12-2.09-.26-.67-.43-1.39-.55-2.11-.96-5.55-1.92-11.09-2.83-16.65-3-18.37-6.29-36.68-10.53-54.81-.3-1.29-.3-2.73-1.34-3.81-.27,.04-.57,.02-.8,.13-4.18,1.99-8.34,4.04-12.55,5.97-1.53,.7-1.3,1.67-.92,2.89,1.22,3.9,2.44,7.8,3.58,11.72,5.28,18.24,8.87,36.89,13.06,55.39,.5,2.21,1.04,4.42,1.43,6.66,.31,1.76-.64,3.26-2.1,3.66-1.36,.37-2.7-.4-3.41-2.02-.25-.58-.43-1.2-.57-1.82-1.47-6.37-2.96-12.73-4.38-19.11-3.81-17.01-7.58-34.03-12.65-50.73-.33-1.09-.35-2.37-1.56-3.34-3.2,1.2-6.51,2.44-9.81,3.67-4.46,1.66-3.79,1.31-2.79,5.17,6.75,25.94,11.38,52.33,16.98,78.51,.15,.7,.29,1.44,.25,2.15-.09,1.41-.87,2.42-2.25,2.74-1.46,.34-2.49-.45-3.06-1.7-.44-.98-.69-2.06-.93-3.12-5.79-25.96-10.57-52.14-16.9-77.98-.19-.78-.2-1.64-1.14-2.2-6.6,1.92-13.28,3.86-19.96,5.8-.23,1.6,.13,2.91,.48,4.21,5.45,20.44,9.92,41.12,14.8,61.7,.25,1.06,.54,2.13,.6,3.21,.09,1.5-.56,2.71-2.09,3.12-1.53,.41-2.69-.26-3.34-1.66-.38-.82-.62-1.71-.83-2.58-5.13-21.36-10.24-42.73-15.38-64.09-.18-.75-.15-1.66-1.27-2.28-5.62,1.45-11.56,2.54-17.12,4.15-.36,1.41,.03,2.27,.28,3.13,5.09,18.01,8.98,36.3,12.84,54.6,.92,4.35,1.96,8.68,2.86,13.03,.41,1.99-.48,3.54-2.02,3.93-1.63,.41-2.95-.41-3.63-2.46-.46-1.37-.74-2.81-1.07-4.22-4.93-21.31-9.23-42.78-14.9-63.91-.23-.84-.13-1.85-1.24-2.67-5.42,1.16-11.05,2.37-16.44,3.52-.3,1.03-.08,1.55,.06,2.07,4.51,16.66,8.02,33.55,11.84,50.36,.99,4.34,2.07,8.65,2.95,13.01,.46,2.25-.48,3.75-2.14,4.1-1.51,.32-2.84-.67-3.48-2.75-.46-1.47-.78-2.99-1.14-4.49-4.75-19.49-8.71-39.17-13.68-58.61-.2-.78-.26-1.62-1.12-2.43-4.1,.59-8.37,1.21-12.67,1.83-.25,1.32-.04,2.38,.22,3.44,5.61,22.66,9.35,45.71,14.23,68.52,.17,.79,.24,1.62,.22,2.43-.02,1.44-.72,2.44-2.19,2.71-1.44,.27-2.47-.36-3.09-1.67-.6-1.24-.77-2.6-1.06-3.93-4.95-23.07-9.18-46.3-14.3-69.34-.12-.53-.23-1.07-1.13-1.54-5.44,.22-11.22,.45-17.16,.7,.08,2.13,.6,3.96,1.04,5.79,4.57,19.16,9.03,38.35,13.88,57.45,.22,.88,.44,1.77,.51,2.67,.11,1.52-.53,2.71-2.05,3.14-1.54,.44-2.67-.28-3.36-1.64-.37-.72-.62-1.51-.83-2.3-3.05-11.68-6.13-23.36-8.82-35.13-2.29-9.99-4.92-19.9-6.61-30.23-3.79-.44-7.48-.86-11.22-1.29,0,.67-.04,.94,0,1.21,2.09,12.73,4.17,25.46,6.3,38.18,2.25,13.46,5.27,26.73,9.74,39.65,1.01,2.92,2.11,5.8,3.49,8.58,1.43,2.87,3.68,4.69,6.76,5.47,1.32,.33,2.65,.62,4,.81,8.81,1.19,17.6,.59,26.38-.3,15.29-1.54,30.44-4.07,45.55-6.84,24.9-4.56,49.26-11.07,72.92-20.15,5.44-2.09,10.73-4.49,15.56-7.8,5.75-3.94,9.32-9.31,10.51-16.23,1.26-7.33,.95-14.68,.19-22.01-1.33-12.94-3.93-25.69-6.07-38.5-1.65-9.86-4.74-19.43-6.15-29.34-.06-.43-.14-.91-1.03-1.21-4.16,3.09-8.65,6.1-13.27,8.88Zm65.77-215.94c-.41,.19-.61,.23-.73,.36-.57,.58-1.14,1.17-1.68,1.79-12.96,14.98-27.99,27.47-45.17,37.34-1.56,.9-2.09,1.95-2.04,3.71,.27,8.18,.95,16.33,1.85,24.45,1.7,15.34,3.6,30.65,5.41,45.98,1.56,13.16,3.01,26.34,3.76,39.58,.04,.69-.12,1.48,.63,2,1.53,.31,2.29-.83,3.11-1.75,4.37-4.87,8.74-9.74,13.06-14.65,17.29-19.66,34.09-39.73,49.09-61.22,5.26-7.53,10.13-15.31,14.5-23.39,.59-1.1,1.21-2.06,.42-3.51-3-5.52-6.2-10.9-9.96-15.93-9.27-12.44-20.27-23.29-31.34-34.07-.25-.25-.58-.42-.93-.67Zm-57.65,22.6c.06-3.85,.2-7.7-.19-11.56-.02-.17-.08-.38-.19-.5-1.95-2.14-3.17-4.9-5.41-6.76-5.03-4.17-10.49-4.71-16.15-1.31-4.89,2.94-9.87,3.11-15.15,1.13-4.16-1.55-8.43-2.82-12.79-3.77-7.32-1.6-13.93-.84-19.18,5.13-.12,.14-.27,.24-.41,.36-3.94,3.6-8.53,5.32-13.91,5.23-6.03-.1-11.9-1.39-17.85-2.04-8.72-.94-16.68,.38-23.08,7-.75,.78-1.62,1.46-2.49,2.12-2.65,2.02-5.58,2.88-8.95,2.27-2.15-.39-4.25-.96-6.35-1.52-3.52-.95-7.07-1.61-10.75-1.5-3.6,.11-6.49,1.54-8.77,4.27-.81,.98-1.6,1.99-2.28,3.06-3.25,5.05-7.83,6.61-13.64,5.6-4.46-.78-8.94-1.57-13.53-1.4-5.06,.19-8.89,2.24-11.3,6.78-.9,1.68-1.78,3.39-2.84,4.96-2.14,3.18-5.23,4.37-8.98,3.84-2.25-.32-4.46-.84-6.71-1.12-10.07-1.24-14.12,.49-18.38,8.01-.04,.08-.1,.15-.14,.23-2.24,3.99-5.51,6.19-10.23,5.89-.63-.04-1.27,.04-1.91,.05-2.86,.05-4.87,1.34-5.84,4.06-1.17,3.27-3.07,5.75-6.99,6.4,1.54,5.08,2.9,9.97,4.83,15,2.13-1.81,4.29-2.51,6.57-2.74,3.01-.32,5.17-1.61,6.82-4.27,2.04-3.3,5.26-4.91,9.2-4.92,1,0,2.01-.1,3,.02,2.59,.3,4.56-.57,6.12-2.7,3.97-5.41,9.34-8.37,16.08-8.23,5.2,.1,9.41-1.44,12.38-5.85,.1-.15,.25-.26,.38-.39,4.59-4.55,10.11-6.23,16.46-5.3,2.6,.38,5.2,.81,7.79,1.31,3.44,.66,6.24-.26,8.49-3.01,1.15-1.4,2.47-2.67,3.75-3.96,4.45-4.47,9.83-6.61,16.15-6.76,5.13-.12,10.16,.56,15.17,1.36,3.78,.6,6.7-.28,9.29-3.12,4.47-4.9,10.18-6.28,16.62-5.51,5.17,.62,10.13,2.11,15.15,3.32,5.5,1.33,10.36,.61,14.66-3.42,3.6-3.37,8-5.26,12.93-5.93,3.84-.52,7.61-.1,11.38,.55,4.85,.84,9.48,2.48,14.21,3.78,3.11,.86,5.71,.3,7.86-2.22,1-1.17,2.1-2.27,3.25-3.3,3.11-2.79,6.72-4.21,10.96-4.01,4.41,.2,8.27,1.89,11.96,4.15,.81,.5,1.47,1.39,2.97,1.24Zm-273.39,21.75c2.13,5.45,4.12,10.7,6.24,15.9,.59,1.45,2.28,1.5,3.24,.12,.66-.96,1.05-2.11,1.61-3.15,2.06-3.81,5.17-6.15,9.58-6.15,7.29,0,6.47-.69,9.49-5.42,3.28-5.12,7.76-8.34,13.85-9.13,2.62-.34,5.26-.35,7.88,.09,2.42,.41,4.83,.84,7.24,1.26,2.13,.37,3.73-.29,4.73-2.29,.73-1.46,1.52-2.9,2.35-4.3,2.63-4.44,6.41-7.38,11.5-8.49,3.4-.74,6.83-.75,10.3-.38,3.7,.39,7.33,1.32,11.07,1.44,2,.06,3.52-.66,4.69-2.24,1.14-1.53,2.26-3.08,3.48-4.55,3.59-4.33,8.24-6.35,13.85-6.42,4.98-.06,9.76,1.03,14.42,2.54,3.82,1.24,6.84,.54,9.63-2.31,7.22-7.39,16.17-9.58,26.21-8.57,4.34,.44,8.66,.97,12.96,1.69,6.85,1.13,13.06,.24,17.85-5.4,.23-.27,.53-.5,.8-.74,3.01-2.66,6.48-4.19,10.5-4.77,3.49-.5,6.89-.11,10.3,.42,5.32,.83,10.38,2.64,15.44,4.38,3.04,1.05,5.86,.95,8.62-.74,.54-.33,1.14-.56,1.71-.85,7.6-4.01,14.69-3.05,21.38,2.12,.68,.52,1.21,1.41,2.61,1.15-.16-5.49,.53-10.99,.57-16.52,0-1.2-.72-1.79-1.59-2.33-2.79-1.74-5.78-3.05-8.92-4.03-3.88-1.21-7.69-1.1-11.42,.64-1.97,.92-3.98,1.79-5.99,2.62-5.27,2.19-10.61,2.23-15.96,.32-2.82-1.01-5.6-2.13-8.41-3.19-6.77-2.56-13.16-2.08-19.14,2.23-1.25,.9-2.61,1.66-3.96,2.4-1.75,.97-3.62,1.62-5.59,2.1-3.98,.96-7.77-.04-11.57-.88-5.51-1.22-11.03-2.29-16.72-1.95-5.53,.33-10.25,2.24-13.62,6.87-.53,.73-1.13,1.42-1.7,2.13-2.56,3.21-5.9,4.72-9.99,4.64-3.2-.06-6.3-.79-9.42-1.37-5.44-1.02-10.86-2.19-16.46-1.94-3.37,.16-6.18,1.38-8.34,3.97-1.11,1.32-2.18,2.68-3.19,4.08-4.43,6.2-10.5,8.98-18.04,8.87-3.18-.05-6.37-.05-9.54,.07-4.85,.17-9.01,1.95-12.22,5.7-1.48,1.73-2.95,3.46-4.41,5.2-2.63,3.13-5.9,4.75-10.06,4.39-1.63-.14-3.27-.14-4.9-.3-5.1-.49-9.35,.78-12.07,5.52-2.26,3.93-5.85,5.53-10.25,5.59-2.36,.03-4.73,.02-7.09,.08-3.49,.09-6.36,1.28-8.15,4.51-1.21,2.18-3,3.86-5.39,5.36Zm77.59-204.43c.16-.28,.03-.72-.11-1.15-3.01-9.06-6.31-17.99-11.21-26.24-1.77-2.97-3.75-5.79-6.26-8.2-2.41-2.31-5.19-3.93-8.54-4.49-6.48-1.1-12.58,.14-17.98,3.7-11.1,7.32-17.44,17.56-17.58,31.1-.12,11.27,2.47,22.14,5.5,32.9,.06,.22,.32,.4,.51,.63,16.69-13.09,36.31-20.26,55.67-28.25Zm31.45-15.26c19.32-7.28,38.92-12.6,59.5-14.55-.62-3.68-1.86-6.8-2.96-9.94-3.48-9.9-7.88-19.34-14.32-27.71-3-3.9-6.27-7.55-10.41-10.3-6.65-4.42-12.69-3.92-18.56,1.51-1.47,1.36-2.78,2.86-4,4.46-3.23,4.25-5.41,9.02-6.92,14.11-3.67,12.38-3.85,25.06-3.02,37.8,.09,1.42-.03,2.91,.7,4.62Zm226.28,170.42c15.58,15.13,31.24,30.15,41.88,49.57,.98-.89,1.23-1.79,1.59-2.6,1.77-3.98,3.36-8.04,4.73-12.18,4.1-12.4,7.07-24.99,6.22-38.19-.29-4.48-1.14-8.84-3.52-12.74-3.17-5.2-7.67-8.05-13.96-7.86-5.62,.17-10.63,2.13-15.43,4.84-8.19,4.62-14.78,11.1-20.91,18.11-.23,.26-.36,.61-.61,1.06Zm-51.84-143.23c.66-.82,.54-1.57,.54-2.29,.06-7.09-.32-14.16-1.31-21.18-.96-6.77-2.66-13.34-6-19.39-1.87-3.38-4.18-6.37-7.42-8.57-4.08-2.76-8.38-3.23-12.93-1.36-3.16,1.3-5.83,3.3-8.16,5.78-2.81,3-5.05,6.42-6.98,10.03-5.11,9.54-7.97,19.83-10.04,30.38-.12,.59-.5,1.21,.31,1.99,17.6-2.76,35-.67,51.98,4.59Zm-325.77,70.5c1.13-.13,1.54-.8,2.03-1.3,2.94-2.99,6.25-5.52,9.68-7.91,5.59-3.9,11.45-7.33,17.44-10.57,.91-.49,2.12-.69,2.56-2.16-4.45-7.22-9.12-14.43-15.76-20.13-.62-.53-1.29-1-1.98-1.44-5.08-3.3-9.72-2.35-13.11,2.7-1.97,2.93-2.72,6.28-3.26,9.71-.93,5.89-.5,11.77,.16,17.63,.51,4.48,1,8.99,2.25,13.47Z"/><path d="M714.01,462.41c.76-1.03,.56-1.97,.57-2.85,.15-15.27,.3-30.54-.57-45.8-.65-11.33-1.68-22.64-3-33.92-1.33-11.36-2.31-22.76-3.51-34.14-1.12-10.66-1.94-21.35-2.49-32.05-.77-14.97-1.69-29.96-.64-44.95,.62-8.8,1.66-17.54,4.82-25.88,1.88-4.96,4.24-9.67,7.81-13.64,4.21-4.68,9.23-7.92,15.72-8.32,5.09-.31,9.68,1.23,13.92,3.92,4.21,2.67,7.54,6.26,10.36,10.32,6.47,9.33,10.25,19.8,12.97,30.71,2.58,10.32,4.07,20.84,5.55,31.36,2.74,19.5,4.54,39.14,8.15,58.52,1.25,6.7,2.87,13.32,5.49,19.64,1.15,2.78,2.5,5.46,4.63,7.65,1.64,1.69,2.62,1.61,3.87-.37,1.73-2.74,2.42-5.87,3.03-8.99,1.45-7.31,2.09-14.74,2.82-22.15,.89-9.04,1.7-18.08,2.6-27.12,.74-7.5,1.44-15.01,2.36-22.48,2.9-23.7,5.7-47.43,13.09-70.3,3.45-10.68,7.83-20.93,14.19-30.24,3.45-5.05,7.3-9.76,12.1-13.6,3.96-3.18,8.31-5.51,13.49-6.02,5.74-.56,10.77,1.1,15.22,4.67,5.21,4.18,9.01,9.45,11.87,15.43,3.25,6.79,4.91,14.04,5.92,21.45,1.89,13.9,.86,27.74-.88,41.56-2.25,17.86-6.13,35.41-9.67,53.03-3.04,15.13-5.97,30.29-7.81,45.62-.8,6.67-1.48,13.37-1.22,20.11,.04,1.06-.2,2.19,.7,3.26,1.11-.43,1.42-1.53,1.9-2.41,2.87-5.29,4.96-10.91,6.87-16.59,5.18-15.43,8.88-31.25,12.58-47.08,4.49-19.18,8.84-38.4,15.25-57.07,2.57-7.48,5.44-14.84,9.19-21.82,2.07-3.85,4.42-7.52,7.28-10.84,6.54-7.58,14.86-9.86,24.55-8.64,16.83,2.12,30,18.66,32.93,31.62,1.8,7.94,1.47,15.9,.26,23.84-2.58,16.95-7.91,33.18-13.13,49.43-7.09,22.04-13.98,44.14-19.03,66.76-1.84,8.24-3.74,16.47-4.17,24.95-.04,.72-.03,1.45,.01,2.18,.01,.24,.19,.47,.37,.89,1.51-.77,2.23-2.18,3.07-3.4,4.5-6.53,8.12-13.55,11.6-20.66,8.07-16.48,15.27-33.37,23.46-49.79,4.78-9.6,9.79-19.08,15.76-28.01,2.94-4.39,6.12-8.59,9.84-12.35,2.18-2.21,4.53-4.21,7.25-5.73,7.26-4.06,15-2.66,20.34,3.71,3,3.58,4.58,7.81,5.44,12.33,1.33,7.04,1.12,14.12,.28,21.17-3.19,26.6-11.31,51.92-20.12,77.05-6.16,17.58-13.39,34.74-20.85,51.8-.79,1.81-1.86,3.56-1.66,5.68,.06,.64-.2,1.31-.72,1.71-1.63,1.23-2.14,3.11-2.89,4.84-7.8,18.16-13.45,37.03-18.48,56.09-7.13,26.98-15.7,53.47-25.67,79.53-3.47,9.07-6,18.48-9.65,27.49-1.91,4.72-4.12,9.29-6.53,13.78-5.97,11.09-14.78,19.25-25.79,25.1-1.84,.98-2.67,2.22-3.07,4.1-1.3,6.14-1.85,12.4-2.79,18.59-3.06,20.13-6.14,40.25-12.55,59.68-1.05,3.19-2.26,6.33-3.48,9.46-2.92,7.48-8.56,11.17-16.31,12.22-6.89,.93-13.81,.94-20.68,.35-29.48-2.55-58.53-7.72-87.18-15.09-15.23-3.91-30.18-8.76-44.73-14.74-4.71-1.94-9.25-4.25-13.45-7.16-8.12-5.63-12.49-13.46-13.62-23.21-1.15-9.92-.45-19.79,1.07-29.6,2.03-13.1,3.68-26.29,6.67-39.21,2.13-9.22,3.62-18.54,5.57-27.78,.25-1.19-.04-2.13-.54-3.11-4.4-8.55-6.53-17.67-6.83-27.25-.03-1-.18-1.99-.23-2.99-.05-1.06-.35-1.86-1.36-2.46-1.57-.93-2.83-2.28-4.09-3.59-24-24.77-46.63-50.71-66.57-78.91-8.99-12.72-16.88-26.09-22.73-40.59-4.61-11.42-7.97-23.19-9.46-35.43-.92-7.52-.94-15.05,.92-22.48,.26-1.05,.59-2.1,.96-3.12,4.58-12.66,15.62-18.71,28.77-15.85,5.95,1.29,11.32,3.88,16.39,7.15,6.7,4.32,12.42,9.76,17.74,15.64,5.06,5.59,10.06,11.24,15.16,16.8,10.09,11,22.05,19.73,34.3,28.11,.29,.2,.65,.28,1.1,.47Zm210.74,204.28c-1.06-.52-1.8-.29-2.51-.26-4.63,.15-9.26,.43-13.9,.08-.81-.06-1.65-.09-2.41-.32-1.22-.38-2.02-1.23-2.03-2.59,0-1.37,.81-2.16,2-2.63,1.05-.42,2.15-.27,3.24-.26,6.46,.07,12.89-.04,19.29-1.1,2.03-.34,3.44-1.17,4.53-2.99,3.68-6.09,6.75-12.48,9.08-19.18,5.89-16.89,11.86-33.74,18.02-50.53,7.52-20.48,12.59-41.7,18.66-62.62,.81-2.79-.72-4.74-1.51-6.93-.53-1.46-2.44-1.31-3.86-1.54-3.72-.6-7.06-1.84-9.01-5.37-1.6-2.9-4.13-3.92-7.29-3.74-.82,.05-1.64,.01-2.45,.07-3.46,.23-6.19-1.11-8.31-3.8-.62-.78-1.28-1.53-1.93-2.3-2.13-2.53-4.78-4.09-8.09-4.63-1.9-.31-3.8-.32-5.7-.35-4.31-.06-8-1.43-10.82-4.83-.81-.98-1.71-1.88-2.6-2.79-2.61-2.68-5.74-3.98-9.53-3.9-3.39,.07-6.65,.9-9.95,1.49-4.94,.88-9.19-.24-12.64-3.98-.93-1-1.91-1.96-2.78-3-4.69-5.58-10.75-7.43-17.81-6.68-3.25,.34-6.49,.75-9.73,1.23-5.69,.83-10.84,0-14.78-4.8-1.78-2.17-4.21-3.48-7.05-3.75-2.17-.21-4.35-.16-6.52,.21-3.94,.68-7.78,1.78-11.66,2.74-7.78,1.92-14.87,1.21-21.07-4.56-4.75-4.43-10.68-5.07-16.86-4.21-4.51,.63-8.92,1.78-13.19,3.3-7.1,2.53-13.21,1.74-17.99-4.59-.05-.07-.13-.13-.19-.2-3.46-3.87-7.63-4.58-12.38-2.83-3.72,1.37-6.87,3.67-9.99,6.04-.94,.71-1.01,1.66-1,2.67,.07,4.73-.31,9.44-.51,14.16-.46,11.08-1.71,22.08-3.06,33.08-1.17,9.55-2.4,19.1-3.53,28.65-1.06,8.92-2.08,17.85-3.02,26.79-.81,7.68-1.41,15.37-1.86,23.08-.12,1.99,.44,3.43,2,4.74,6.74,5.69,13.46,11.42,21.05,15.97,16.79,10.06,34.43,18.42,52.53,25.81,9,3.67,18.35,6.37,27.59,9.38,3.32,1.09,4.57,2.39,4.11,4.17-.53,2.04-2.35,2.53-5.77,1.5-5.04-1.53-10.06-3.11-15.1-4.65-16.41-5.01-31.7-12.62-47.1-20.01-13.26-6.36-25.78-13.81-36.87-23.54-.49-.43-.92-1.19-1.79-.89-.35,.53-.21,1.08-.18,1.62,.35,6.69,2.16,13.02,4.57,19.25,2.36,6.07,5.86,11,11.84,13.94,1.22,.6,2.32,1.43,3.49,2.13,11.88,7.15,24.6,12.49,37.54,17.35,19.28,7.24,39.27,11.89,59.31,16.36,18.02,4.01,36.08,7.72,54.66,7.84,8.92,.06,17.81,0,26.49-2.44,1.49-.42,2.99-.78,4.28-1.69,2.61-1.82,5.23-3.62,7.83-5.45,1.47-1.04,2.88-2.16,4.21-3.71Zm-203.59-262.45c1.12,.24,1.82-.46,2.61-.84,3.29-1.57,6.66-2.92,10.29-3.44,4.86-.7,9.43,.31,13.68,2.64,6.48,3.55,12.92,3.72,19.54,.39,2.43-1.22,5.06-1.98,7.71-2.68,6.85-1.82,13.32-1.04,19.37,2.74,1.7,1.06,3.38,2.14,5.11,3.14,3.02,1.76,6.2,2.31,9.7,1.58,4.7-.99,9.38-2.16,14.18-2.66,10.75-1.11,20.33,.78,26.88,10.46,.1,.15,.23,.28,.34,.43,1.36,1.79,3.13,2.7,5.41,2.57,1.36-.08,2.71-.11,4.07-.36,5.44-1.01,10.86-2.14,16.37-2.76,8.29-.94,15.33,1.01,20.26,8.26,.66,.98,1.44,1.87,2.15,2.81,2.89,3.82,6.71,5.7,11.52,5.65,3.09-.04,6.18-.02,9.27,.03,8.01,.13,14.67,3.04,19.6,9.53,.77,1.01,1.66,1.93,2.41,2.96,1.79,2.44,4.12,3.35,7.13,2.93,1.88-.26,3.81-.17,5.71-.25,6.46-.27,11.51,2.27,14.9,7.79,1.44,2.35,3.35,3.38,6.08,3.27,2.63-.11,5.26,.14,7.89,.29,5.25,.3,9.14,2.65,11.87,7.08,.65,1.06,1.24,2.26,2.63,2.61,1.01-.53,1.16-1.6,1.55-2.48,4.21-9.56,8.32-19.16,12.19-28.86,9.57-23.98,17.94-48.34,24.05-73.45,.55-2.28,.18-3.73-1.61-5.44-8.7-8.31-18.84-14.5-29.2-20.4-.61-.35-1.2-.85-2.04-.67-.83,.47-1.14,1.36-1.56,2.15-1.58,2.97-3.17,5.93-4.69,8.92-7.94,15.64-14.92,31.72-22.53,47.52-4.18,8.68-8.47,17.3-13.81,25.35-1.86,2.81-3.79,5.58-6.41,7.74-4.88,4.03-9.62,2.24-10.7-3.96-.95-5.49,.04-10.89,.9-16.25,2.46-15.35,6.33-30.38,10.43-45.36,4.82-17.61,10.74-34.88,16.04-52.34,1.7-5.61,1.73-5.69-3.37-8.83-15.6-9.61-32.08-17.42-49.35-23.54-.75-.27-1.49-.73-2.33-.29-.51,.79-.69,1.68-.95,2.55-4.37,14.9-7.71,30.07-11.33,45.16-3.81,15.89-7.65,31.78-13.11,47.21-1.91,5.4-4.03,10.71-6.86,15.71-1.3,2.3-2.71,4.54-4.87,6.16-3.32,2.48-7,1.68-8.94-1.97-.5-.95-.88-2.01-1.11-3.06-.55-2.48-.85-5.01-.85-7.56-.03-14.42,2.2-28.59,4.62-42.74,3.41-19.96,8.02-39.68,11.47-59.63,.94-5.46,1.82-10.92,2.49-16.42,.18-1.51-.23-2.4-1.7-2.9-2.15-.72-4.26-1.57-6.39-2.34-15.87-5.69-32.14-9.7-48.89-11.75-3.65-.45-3.82-.39-4.65,3.09-2.79,11.76-4.67,23.69-6.31,35.65-1.31,9.53-2.51,19.08-3.47,28.66-1,10.03-2.08,20.05-3.04,30.08-.93,9.67-1.72,19.36-3.38,28.94-.75,4.3-1.72,8.56-3.82,12.45-4.01,7.4-10.72,8.21-16.34,1.99-2.22-2.45-3.83-5.29-5.19-8.28-2.49-5.49-4.12-11.25-5.41-17.11-4.03-18.39-5.62-37.14-8.2-55.75-.92-6.65-1.86-13.3-2.77-19.96-.18-1.3-.65-2.15-2.15-2.33-3.42-.41-6.83-.97-10.29-1.09-7.46-.25-14.9,.02-22.28,1.18-6.1,.95-12.14,2.24-17.99,4.28-1.51,.53-2.19,1.34-2.08,2.99,.17,2.63,.11,5.27,.25,7.9,.68,13.15,1.37,26.31,2.56,39.43,.76,8.32,1.53,16.64,2.37,24.95,.98,9.66,2,19.33,3.13,28.98,.45,3.86,.36,7.78,1.22,11.57Zm-4.33,232.79c-.76,.81-.81,1.36-.91,1.89-3.12,16.42-7.14,32.66-9.58,49.22-1.76,11.97-3.78,23.87-2.91,36.05,.66,9.16,4.49,16.33,12.38,21.21,3.72,2.3,7.62,4.25,11.67,5.87,14.78,5.92,29.93,10.73,45.36,14.61,25.15,6.32,50.67,10.71,76.44,13.5,8.58,.93,17.2,1.29,25.84,.25,5.78-.7,9.75-3.34,11.83-8.95,2.24-6.05,4.35-12.14,6.03-18.37,5.15-19.08,7.91-38.61,10.87-58.09,.42-2.75,1.21-5.45,1.36-8.51-3.84,.45-7.48,.87-11.07,1.29-.77,1.99-.79,3.92-1.19,5.77-4.3,20.07-9.24,39.98-14.46,59.82-.23,.87-.58,1.73-1.04,2.5-.67,1.12-1.76,1.59-3.05,1.24-1.27-.34-1.95-1.26-2.09-2.57-.1-.92,.16-1.79,.37-2.68,4.33-17.82,8.66-35.64,12.95-53.47,.8-3.33,1.77-6.64,2.13-10.35-6.01-.23-11.86-.46-17.66-.69-.27,.58-.5,.89-.57,1.23-2.26,10.66-4.61,21.29-6.72,31.98-2.55,12.91-5.12,25.82-7.87,38.69-.24,1.14-.41,2.33-1.09,3.35-.76,1.13-1.81,1.5-3.07,1.18-1.19-.29-1.83-1.15-1.95-2.35-.1-1,.03-1.98,.24-2.97,.66-3.02,1.27-6.04,1.89-9.06,3.94-19.21,7.18-38.55,11.93-57.59,.39-1.55,1.03-3.12,.51-5.09-4.26-.61-8.6-1.23-12.9-1.84-.3,.76-.52,1.17-.63,1.6-1.89,7.85-3.86,15.69-5.64,23.57-2.96,13.1-5.82,26.23-9.09,39.27-.76,3.02-1.96,4.2-3.72,3.86-1.96-.37-2.74-2.18-2.02-5.14,4.92-20.29,8.76-40.83,14.31-60.98,.28-1.01,.81-2.04,.31-3.49-5.49-1.15-11.12-2.34-16.87-3.55-1.47,5.73-2.84,11.08-4.21,16.42-4.45,17.42-7.74,35.11-11.98,52.57-.21,.88-.43,1.77-.79,2.6-.62,1.41-1.75,2.11-3.3,1.74-1.56-.37-2.16-1.56-2.16-3.06,0-.54,.14-1.08,.26-1.6,4.92-21.96,9.01-44.12,15.25-65.78,.37-1.27,.99-2.56,.51-4.34-5.73-1.34-11.59-2.72-17.22-4.04-.88,.69-.91,1.37-1.05,1.97-1.92,7.85-3.81,15.7-5.69,23.56-3.26,13.6-6.49,27.2-9.75,40.79-.85,3.53-2.13,4.83-4.14,4.32-1.95-.49-2.49-2.21-1.65-5.77,4.88-20.77,9.42-41.62,14.89-62.24,.36-1.37,.91-2.76,.35-4.32-6.7-1.93-13.38-3.86-20.16-5.81-.29,.71-.57,1.19-.68,1.7-1.51,6.45-3.08,12.89-4.47,19.37-4.22,19.71-8.37,39.43-12.53,59.14-.24,1.16-.44,2.33-1.04,3.37-.64,1.11-1.6,1.79-2.93,1.52-1.28-.27-2.07-1.16-2.27-2.44-.1-.7-.02-1.45,.13-2.16,3.66-17.78,7.25-35.58,11.05-53.33,1.94-9.05,4.2-18.04,6.41-27.03,.41-1.67,.04-2.52-1.59-3.07-2.67-.9-5.27-1.97-7.92-2.93-1.24-.45-2.41-1.25-3.68-1.16-.81,.74-.87,1.59-1.1,2.37-1.89,6.26-3.67,12.55-5.28,18.89-4.34,17.07-7.86,34.33-11.94,51.47-.25,1.07-.47,2.15-1.14,3.03-1.41,1.86-3.88,1.52-4.81-.63-.39-.89-.26-1.75-.05-2.66,.99-4.43,1.94-8.87,2.91-13.3,4.41-20.04,8.54-40.14,14.97-59.67,.23-.69,.52-1.37,.14-2.34-4.65-2.23-9.45-4.53-14.35-6.89-1.03,1.45-1.14,3.02-1.48,4.49-5.27,22.19-8.76,44.71-12.62,67.17-.34,1.97-.67,3.94-1.19,5.87-.39,1.44-1.45,2.3-3.06,2.15-1.45-.14-2.47-1.35-2.53-3.06-.02-.63,.11-1.26,.21-1.89,.81-5.02,1.62-10.04,2.45-15.05,2.18-13.16,4.12-26.37,6.92-39.42,1.67-7.8,3.42-15.59,5.53-23.55-4.62-2.88-9.15-5.82-13.54-9.15Zm-52.2-206.8c-.93,.27-1.48,1.04-2.12,1.66-5.62,5.43-11.13,10.98-16.47,16.69-9.02,9.66-17.3,19.87-23.4,31.7-.78,1.52-.75,2.59,.03,3.99,3.43,6.21,7.05,12.3,11,18.19,13.27,19.82,28.29,38.29,43.83,56.34,7.17,8.33,14.39,16.63,21.83,24.74,.89,.97,1.67,2.26,3.35,1.76,.63-.82,.45-1.76,.49-2.65,.45-9.17,1.48-18.28,2.4-27.4,.89-8.76,2.02-17.49,3.05-26.24,1.19-10.1,2.45-20.19,3.57-30.29,.94-8.48,1.68-16.99,1.97-25.53,.06-1.67-.51-2.65-1.95-3.48-17.34-9.97-32.49-22.59-45.56-37.73-.58-.67-1.05-1.51-2.02-1.75Zm322.07,67.33c-4.25-.43-5.95-3.24-7.19-6.53-.94-2.48-2.81-3.7-5.44-3.8-1.36-.05-2.72-.13-4.09-.18-2.72-.09-4.91-1.27-6.58-3.35-.91-1.13-1.75-2.33-2.45-3.6-3.06-5.56-7.77-7.8-14.02-7.45-3.56,.2-6.99,1.11-10.51,1.51-3.76,.43-6.83-.69-8.99-3.85-.87-1.27-1.64-2.63-2.3-4.01-2.61-5.45-6.94-7.83-12.93-7.76-4.3,.05-8.5,.78-12.7,1.47-5.58,.91-10.05-.56-13.21-5.42-.59-.91-1.27-1.77-1.93-2.64-2.46-3.26-5.69-4.9-9.83-4.94-3.97-.03-7.84,.6-11.5,1.93-6.85,2.48-12.51,1.17-17.57-4.12-4.52-4.72-10.36-6.45-16.83-6.4-5.94,.05-11.74,1.14-17.58,1.95-7.89,1.09-15.04-.06-20.78-6.15-.37-.4-.82-.72-1.21-1.1-2.92-2.83-6.51-3.86-10.46-3.88-2.19,0-4.34,.38-6.48,.77-4.85,.88-9.46,2.58-14.1,4.13-4.48,1.51-8.74,1.31-12.87-1.04-.63-.36-1.32-.62-1.95-.97-5.02-2.77-9.73-2.08-14.32,1.12-2.77,1.93-4.03,5.08-6.27,7.43-.17,.18-.26,.5-.27,.76-.23,3.77-.23,7.54-.12,11.27,1.4,.23,2-.6,2.73-1.06,2.32-1.46,4.73-2.71,7.37-3.49,6.39-1.89,12.03-.69,16.78,4.11,.83,.84,1.67,1.68,2.44,2.57,2.01,2.34,4.51,2.89,7.39,2.1,1.4-.38,2.8-.79,4.19-1.2,4.53-1.34,9.07-2.59,13.78-3.16,7.36-.9,14.1,.46,19.99,5.18,.92,.74,1.84,1.48,2.78,2.2,2.89,2.25,6.12,2.95,9.74,2.41,4.96-.74,9.72-2.28,14.61-3.29,8.09-1.66,15.37-.68,21.14,5.92,1.9,2.18,4.4,2.69,7.19,2.33,5.49-.71,10.95-1.64,16.53-1.48,6,.18,11.18,2.18,15.48,6.36,1.43,1.39,2.88,2.8,4.15,4.33,2.26,2.73,5.04,3.68,8.49,3.01,2.58-.5,5.18-.93,7.79-1.31,6.46-.95,12.15,.71,16.63,5.51,6.49,6.96,4.95,5.29,13.41,5.98,6.1,.5,11.09,2.79,14.72,7.66,1.96,2.63,4.26,3.65,7.48,3.31,5.39-.58,9.59,1.5,12.37,6.22,.84,1.43,2.08,2.28,3.69,2.53,3.04,.49,6.05,1.04,8.91,3.1,1.6-5.09,3.1-9.88,4.72-15.03Zm-264.65-67.55c1.72-.4,2.41-1.3,3.27-1.93,6.28-4.55,13.08-5.8,19.93-1.88,4.92,2.81,9.52,2.99,14.48,.73,.58-.26,1.2-.42,1.8-.61,4.84-1.59,9.76-2.85,14.87-3.23,6.24-.47,11.92,.86,16.61,5.29,.73,.69,1.5,1.32,2.21,2.02,3.33,3.3,7.32,4.42,11.95,4.09,5.99-.43,11.86-1.68,17.85-2.11,9.31-.68,17.7,1.23,24.61,7.91,.72,.69,1.5,1.32,2.25,1.98,1.84,1.62,3.85,2.15,6.3,1.49,3.85-1.03,7.69-2.16,11.66-2.71,8.22-1.13,15.13,.97,20.03,8.08,.46,.67,1,1.3,1.43,1.99,1.4,2.24,3.38,3.2,6,2.85,.99-.13,1.98-.22,2.97-.36,4.22-.6,8.42-1.42,12.72-1.28,7.62,.24,13.44,3.42,17.05,10.28,.51,.97,1,1.94,1.53,2.89,1.39,2.44,2.36,2.93,5.13,2.49,2.33-.37,4.64-.88,6.98-1.21,9.5-1.33,17.37,1.21,22.25,9.99,1.81,3.26,4.12,4.71,7.88,4.46,5.34-.36,8.95,2.37,11.16,7.12,.34,.74,.62,1.54,1.1,2.18,.99,1.35,2.65,1.32,3.24-.13,2.11-5.2,4.11-10.45,6.19-15.77-2.04-1.57-4.01-3.06-5.19-5.26-1.85-3.45-4.87-4.7-8.58-4.74-2.36-.03-4.73-.02-7.09-.08-4.18-.11-7.59-1.66-9.83-5.35-.28-.46-.62-.9-.93-1.35-1.74-2.56-4.1-3.95-7.21-4.34-3.12-.4-6.17,.2-9.25,.28-3.83,.09-6.92-1.19-9.41-4.04-1.61-1.85-3.17-3.75-4.79-5.59-2.54-2.89-5.66-4.74-9.52-5.39-3.26-.55-6.53-.38-9.79-.37-3.01,0-6.01-.08-8.95-.72-5.3-1.15-9.19-4.48-11.97-8.86-3.84-6.05-9.13-8.25-16.01-7.29-.72,.1-1.45,.13-2.16,.25-5.01,.86-10.03,1.65-15.02,2.63-6.24,1.22-11.3-.37-14.98-5.76-3.72-5.44-9.1-7.43-15.48-7.57-6.08-.13-11.92,1.19-17.74,2.57-6.01,1.42-11.52,.54-16.66-2.86-1.36-.9-2.77-1.74-4.17-2.58-1.41-.84-2.89-1.51-4.48-1.97-4.11-1.18-8.12-.51-12.04,.83-3.01,1.02-5.93,2.29-8.92,3.36-5.35,1.91-10.69,1.87-15.96-.32-2.26-.94-4.5-1.94-6.76-2.91-2.03-.88-4.15-1.33-6.37-1.13-4.92,.43-9.27,2.45-13.42,4.96-.82,.5-1.37,1.13-1.36,2.18,.04,5.53,.73,11.03,.56,16.8Zm251.89-131.82c.87-1.79,1.19-3.77,1.67-5.69,2.32-9.35,4.4-18.77,4.06-28.47-.48-13.74-7.2-23.86-18.69-31.03-2.17-1.35-4.6-2.16-7.1-2.7-7.28-1.58-13.91-.7-19.24,5.12-2.16,2.36-3.98,4.95-5.59,7.7-4.75,8.12-7.98,16.88-10.94,25.76-.14,.43-.25,.87-.04,1.39,.17,.11,.38,.3,.63,.38,12.43,4.15,24.26,9.72,35.93,15.6,6.4,3.23,12.8,6.52,17.99,11.65,.25,.25,.58,.43,1.31,.28Zm-87.51-43.44c.63-.77,.56-1.43,.62-2.05,.8-8.89,.95-17.78-.09-26.65-.94-7.97-2.63-15.76-6.52-22.9-2.33-4.27-5.25-8.07-9.18-11.01-4.14-3.1-8.61-3.59-13.36-1.55-2.11,.9-3.98,2.18-5.72,3.65-4.14,3.48-7.51,7.63-10.51,12.09-6.61,9.82-10.83,20.72-14.26,31.96-.18,.58-.43,1.22,.11,2.05,20.27,1.87,39.87,7.28,58.92,14.41Zm-226.31,170.65c0-.82-.41-1.2-.77-1.61-4.06-4.54-8.27-8.94-13.11-12.68-4.99-3.85-10.29-7.14-16.43-8.88-3.64-1.03-7.34-1.51-11.02-.53-6.58,1.77-9.93,6.69-11.72,12.84-1.83,6.3-1.68,12.8-1.01,19.21,1.43,13.56,5.48,26.45,10.95,38.9,.3,.69,.42,1.58,1.54,1.9,10.55-19.24,26.18-34.21,41.57-49.16Zm104.47-147.93c-.88-9.77-6.33-26.07-11.45-34.62-1.97-3.28-4.15-6.4-6.95-9.04-8.95-8.45-18.94-7.35-25.78,2.85-2.5,3.73-4.24,7.81-5.45,12.12-2.92,10.42-3.4,21.1-3.37,31.83,0,.45,.06,.9,.6,1.4,16.95-5.31,34.37-7.31,52.4-4.54Zm273.11,75.49c1.1-3.17,1.36-5.97,1.74-8.73,1.05-7.55,2-15.11,.86-22.75-.6-3.99-1.51-7.85-4.21-11.02-3.15-3.7-6.94-4.39-11.18-2.05-2.09,1.15-3.87,2.69-5.53,4.37-5.07,5.13-9.09,11.06-12.8,17.2-.24,.4-.39,.82-.05,1.52,10.82,5.97,21.87,12.03,31.17,21.46Z"/><path d="M335.56,760.53c-2.23-.85-4.22-1.92-5.95-3.43-4.32-3.78-3.89-9.01,1.01-12.01,1.49-.91,3.1-1.63,4.87-1.51,1.89,.12,2.56-.8,2.77-2.51,.33-2.71,.94-5.36,1.73-7.97,1.5-5,3.74-6.31,8.92-5.66,12.52,1.57,25.01,3.35,37.48,5.23,1.88,.28,3.77,.6,5.62,1.02,3.78,.84,4.99,2.37,4.91,6.3-.05,2.63-.3,5.26-.43,7.89-.05,1.07,0,2.15,0,3.18,.83,.54,1.55,.14,2.23,.12,3.59-.11,6.09,1.72,7.75,4.65,1.66,2.92,1.5,5.98-.45,8.75-2.14,3.03-5.2,4.4-8.89,4.47-2.54,.05-2.55,.07-3,2.64-.35,1.97-.72,3.93-1.01,5.9-.3,2.11-.03,4.08,1.05,6.02,9.86,17.78,4.36,35.26-8.42,46.91-9.04,8.24-19.85,11.37-31.94,10.43-2.82-.22-2.82-.16-3.94,2.44-.79,1.83-1.61,3.66-2.42,5.48-.41,.91-.9,1.79-1.6,2.52-2.14,2.21-5.25,1.62-6.39-1.22-.44-1.1-.64-2.27-.64-3.47,0-2.73-.08-5.45-.01-8.17,.04-1.48-.39-2.46-1.6-3.46-11.75-9.63-18.09-22.22-18.79-37.25-.44-9.55,3.56-17.86,10.13-24.84,.93-.99,1.92-1.94,2.93-2.85,3.85-3.46,4.14-4.07,4.1-9.6Zm18.47,73.27c1.06,.93,2.28,.78,3.43,.78,12.8,0,22.8-5.44,29.9-15.97,6.88-10.18,7.14-20.81,1.53-31.71-1.16-2.26-2.76-3.24-5.19-3.71-15.95-3.09-31.97-5.68-48.18-6.95-.93-.07-1.58,.15-2.17,.79-5.9,6.34-9.2,13.79-8.54,22.5,.77,10.24,5.56,18.85,12,26.62,.59,.71,1.16,1.63,2.34,1.61,.91-2.12,.75-4.34,1.02-6.48,.88-7.02,2.17-13.99,2.72-21.05,.28-3.6,1.04-4.25,4.56-4.81,5.4-.86,10.2,.77,14.83,3.26,.85,.46,1.37,1.17,1.43,2.17,.06,1.09-.05,2.16-.28,3.24-1.94,8.89-4.83,17.48-8.21,25.92-.49,1.23-1.21,2.43-1.2,3.81Zm36.45-91.36c.12-2.44,.04-2.54-2.34-3.04-.44-.09-.88-.22-1.33-.28-12.4-1.71-24.76-3.72-37.21-5.13q-3.17-.36-3.95,2.84c-1.41,5.84-1.97,11.8-2.69,17.74-.52,4.29-.37,8.65-1.37,12.9-.44,1.85,.79,3.29,2.72,3.44,9.96,.78,19.82,2.25,29.6,4.28,3.02,.63,6.02,1.39,9.11,1.54,3.21,.16,4.7-1.29,4.81-4.47,.05-1.45,.09-2.91,.28-4.34,1.13-8.46,1.83-16.96,2.37-25.48Zm-41.33,59.51c-.58,4.58-1.16,9.06-1.73,13.55-.53,4.22-1.12,8.44-1.56,12.68-.14,1.41-.77,2.99,.55,4.28,1.23-1.06,1.25-1.05,1.56-1.82,3.08-7.75,6.07-15.53,8.36-23.56,.95-3.34-.06-4.93-3.51-5.38-1.14-.15-2.33-.49-3.67,.25Zm46.9-45.02c-.39,1.97-1.09,3.74-.29,5.57,3.03,.26,5.15-.83,5.26-2.62,.11-1.71-1.4-2.66-4.97-2.94Zm-62.77-5.6c.65,1.35,1.56,2.19,3.27,2.45-.02-1.4,.66-2.65-.09-4.06-1.27,0-2.32,.28-3.18,1.6Z"/><path d="M364.95,883.22c2.16-.03,3.41,.78,3.69,2.28,.32,1.67-.59,2.94-2.72,3.4-7,1.5-14.01,2.94-21.02,4.37-.61,.12-1.27,.11-1.89,.03-1.32-.18-2.12-1.03-2.36-2.3-.23-1.22,.43-2.11,1.42-2.71,.53-.32,1.16-.54,1.77-.67,6.73-1.45,13.47-2.87,20.2-4.29,.35-.07,.72-.07,.91-.09Z"/><path d="M316.73,896.19c-.91,.07-1.81,.18-2.7-.09-1.05-.31-1.74-.96-1.91-2.07-.17-1.19,.22-2.16,1.31-2.74,.47-.25,1-.44,1.52-.55,3.2-.67,6.45-.96,9.7-1.24,1.45-.12,2.69,.48,3.06,2.1,.34,1.49-.4,2.76-2.13,3.3-2.87,.9-5.9,.92-8.86,1.28Z"/><path d="M181.68,625.12c-1.59,0-2.62-.34-3.07-1.51-.5-1.31-.29-2.57,.89-3.41,1.93-1.37,4.07-2.39,6.36-2.96,1.24-.31,2.39,.18,3.02,1.33,.67,1.22,.61,2.59-.5,3.48-2.07,1.66-4.5,2.63-6.7,3.08Z"/><path d="M173.99,609.18c-2.77,.06-4.23-2.22-2.88-4.12,1.54-2.15,3.75-3.66,6.35-4.39,1.09-.31,2.17,.04,2.89,1.04,.65,.89,.83,1.89,.21,2.8-1.71,2.49-4.26,3.77-6.57,4.67Z"/><path d="M331.41,524.19c3.17-.15,4.47,.59,4.61,2.45,.14,1.94-1.28,3.15-4.08,3.37-1.17,.09-2.36,.13-3.53,0-1.42-.15-2.33-1.07-2.5-2.47-.17-1.32,.62-2.19,1.76-2.78,1.27-.66,2.67-.38,3.74-.58Z"/><path d="M330.44,499.17c1.94-.1,2.97,.36,3.52,1.58,.56,1.24,.18,2.38-.79,3.19-1.56,1.3-3.37,2.12-5.45,2.18-1.21,.03-2.11-.49-2.6-1.6-.56-1.25-.19-2.38,.78-3.19,1.48-1.25,3.25-1.93,4.54-2.15Z"/><path d="M189.08,639.23c-2.13,.11-3.37-.37-3.83-1.91-.47-1.55,.36-2.64,1.64-3.37,1.27-.73,2.64-1.18,4.13-1.19,1.31,0,2.32,.51,2.81,1.74,.54,1.36,.03,2.51-1.05,3.37-1.25,1-2.77,1.29-3.7,1.35Z"/><path d="M330.59,517.63c-1.73,0-2.87-.41-3.23-1.91-.33-1.39,.15-2.53,1.4-3.22,1.35-.74,2.77-1.34,4.37-1.29,1.34,.04,2.23,.73,2.63,1.96,.36,1.15-.03,2.17-.96,2.91-1.32,1.05-2.88,1.45-4.2,1.55Z"/><path d="M561.71,725.56c-.01,2.36-2.1,3.83-3.97,2.69-3.02-1.83-5.65-4.2-7.81-7.03-.8-1.05-.62-2.26,.27-3.24,.79-.87,1.88-1.34,2.93-.74,3.25,1.83,6.05,4.24,8.29,7.23,.25,.33,.23,.86,.28,1.08Z"/><path d="M553.09,735.51c.05,1.82-.83,2.85-2.38,3.01-.83,.08-1.63-.04-2.36-.48-2.17-1.33-4.22-2.83-6.14-4.5-1.38-1.2-1.56-2.96-.66-4.14,.87-1.16,2.32-1.47,3.91-.48,2.23,1.38,4.34,2.96,6.47,4.51,.76,.55,1.18,1.37,1.16,2.09Z"/><path d="M862.59,512.13c2.06,.18,4.04,.26,5.89,1.18,5.82,2.9,6.51,8.85,1.43,12.91-1.64,1.31-3.44,2.33-5.41,2.98-.41,2.17,.29,4.1,.55,6.06,.16,1.2,1.26,1.71,2.09,2.4,5.63,4.67,10.02,10.26,12.49,17.21,2.78,7.82,2.62,15.69,.08,23.53-2.27,6.98-5.71,13.34-10.21,19.13-1.85,2.38-3.98,4.51-6.5,6.16-1.39,.91-1.86,2.01-1.8,3.63,.1,2.72,0,5.45,0,8.17,0,1.1-.19,2.17-.57,3.21-1.16,3.14-4.5,3.75-6.66,1.16-.69-.82-1.2-1.82-1.66-2.8-.88-1.89-1.73-3.81-2.46-5.76-.54-1.42-1.34-1.84-2.89-1.72-4.9,.38-9.79,.33-14.63-.8-16.09-3.73-28.94-17.38-31.28-33.69-1.13-7.89,.72-15.37,4.58-22.3,1.28-2.29,1.59-4.58,1.19-7.07-.33-2.06-.78-4.11-1.03-6.17-.17-1.39-.83-1.88-2.15-1.79-2.63,.17-5.06-.47-7.21-2-2.9-2.07-4.33-4.85-3.82-8.46,.47-3.38,2.59-5.47,5.54-6.9,1.65-.8,3.38-.37,5.19-.36,.5-2.18,.08-4.34,0-6.48-.07-1.81-.27-3.63-.26-5.44,.02-3.26,1.29-4.87,4.43-5.61,4.33-1.02,8.76-1.54,13.16-2.16,10.15-1.44,20.32-2.77,30.48-4.18,5.14-.71,7.41,.66,8.86,5.72,.7,2.44,1.16,4.94,1.67,7.43,.18,.89,.26,1.8,.91,2.81Zm-16.6,90.36c-.45-2.55-1.68-4.88-2.61-7.3-2.82-7.39-5.21-14.9-6.87-22.63-.78-3.64-.4-4.32,2.97-5.79,.41-.18,.79-.44,1.18-.67,4.33-2.68,8.99-2.42,13.72-1.54,1.65,.31,2.54,1.37,2.63,3.02,.38,6.99,1.68,13.87,2.59,20.79,.36,2.72,.17,5.56,1.3,8.2,1.41-.38,2.09-1.4,2.81-2.29,5.16-6.36,9.05-13.38,10.82-21.44,2.24-10.2-.72-18.99-7.51-26.68-.66-.75-1.32-1.37-2.54-1.2-7.72,1.1-15.55,1.29-23.26,2.56-8.86,1.45-17.69,3.1-26.51,4.78-1.03,.19-1.91,.5-2.48,1.45-3.62,6.08-5.82,12.6-4.91,19.72,2.21,17.23,18.31,30.57,35.73,29.83,.98-.04,2.01,.06,2.93-.81Zm11.92-70.34c-.29-2.81-.63-5.87-.91-8.93-.58-6.15-1.32-12.27-2.78-18.28-.6-2.48-.83-2.6-3.36-2.28-6.12,.78-12.25,1.53-18.35,2.39-7.01,.99-13.99,2.13-21,3.11-1.64,.23-2.16,1.01-2.04,2.55,.24,2.99,.42,5.98,.62,8.97,.49,7.33,1.77,14.59,2.09,21.94,.11,2.44,1.53,3.79,4.07,3.84,1.99,.04,3.97-.29,5.93-.72,11-2.4,22.1-4.2,33.33-5.08,2.38-.19,3.42-1.69,2.72-4.06-.31-1.05-.73-2.06-.31-3.45Zm-3.59,68.83c-.4-10.25-2.64-20.23-3.36-30.31-1.86-.78-3.48-.4-5.03,0-2.35,.61-3.11,2.13-2.44,4.53,2.32,8.3,5.4,16.34,8.61,24.33,.28,.69,.39,1.69,2.21,1.45Zm-50.58-75.32c-1.76,.13-3.61,.06-4.59,2.02-.4,.8-.22,1.62,.41,2.24,1.37,1.33,2.95,1.9,4.8,1.22,.3-2.63,.26-2.91-.63-5.47Zm59.9-2.85c1.47-.84,2.65-1.36,3.05-2.84-.86-1.16-1.86-1.67-3.35-1.36-.31,1.31-.07,2.5,.3,4.2Z"/><path d="M855.36,662.05c-2.95-.63-6.31-1.36-9.68-2.06-3.64-.76-7.27-1.5-10.92-2.23-.72-.14-1.42-.3-2.06-.65-.95-.53-1.44-1.34-1.41-2.45,.04-1.24,.72-2.03,1.8-2.48,.95-.39,1.98-.33,2.95-.12,6.65,1.39,13.29,2.81,19.94,4.23,.35,.08,.71,.17,1.04,.3,1.73,.68,2.58,1.87,2.3,3.23-.31,1.52-1.59,2.34-3.97,2.23Z"/><path d="M883.56,664.98c-2.78-.31-4.94-.51-7.1-.82-.89-.13-1.78-.39-2.6-.75-1.33-.58-1.86-1.69-1.58-3.11,.27-1.37,1.33-2.1,2.55-2.03,3.71,.19,7.43,.48,11.03,1.44,1.6,.43,2.29,1.7,2,3.1-.3,1.48-1.36,2.07-2.75,2.16-.72,.05-1.45,0-1.56,0Z"/><path d="M1018.35,393.86c-2.2-.41-4.61-1.42-6.71-3.04-1.13-.87-1.21-2.24-.57-3.47,.6-1.16,1.75-1.68,2.99-1.38,2.39,.58,4.62,1.62,6.58,3.11,1.05,.8,1.19,2.02,.75,3.21-.43,1.17-1.43,1.55-3.05,1.56Z"/><path d="M1029.29,375.03c.04,2.2-1.71,3.51-3.76,2.73-2.12-.8-4.03-2.08-5.61-3.74-.79-.82-1.12-1.88-.61-3.01,.49-1.09,1.36-1.64,2.57-1.67,1.8-.05,6.59,3.11,7.21,4.82,.12,.34,.16,.7,.19,.88Z"/><path d="M868.51,292.92c1.42,.16,2.82-.04,4.05,.7,1.09,.66,1.8,1.59,1.49,2.92-.29,1.25-1.15,2.1-2.45,2.21-1.71,.14-3.44,.21-5.12-.29-1.89-.57-2.72-1.73-2.46-3.34,.24-1.47,1.25-2.19,3.22-2.25,.45-.01,.9,.04,1.28,.05Z"/><path d="M871.47,274.83c-1.3-.13-3.06-.84-4.56-2.05-.98-.79-1.43-1.91-.93-3.17,.49-1.24,1.49-1.8,2.8-1.73,2.07,.11,3.86,.98,5.41,2.29,.88,.74,1.2,1.81,.74,2.97-.5,1.25-1.48,1.78-3.45,1.7Z"/><path d="M1011.37,408c-1.38-.09-2.71-.39-3.86-1.16-1.24-.83-1.91-1.99-1.38-3.49,.48-1.38,1.59-1.87,3.01-1.84,1.3,.03,2.5,.44,3.64,1.01,1.61,.8,2.36,2.16,2.02,3.46-.36,1.37-1.57,2.09-3.42,2.03Z"/><path d="M869.13,286.34c-1.12-.07-2.41-.49-3.56-1.23-1.17-.75-1.77-1.86-1.31-3.26,.45-1.37,1.51-1.95,2.94-1.91,1.3,.04,2.48,.5,3.61,1.07,1.62,.82,2.22,2.06,1.81,3.51-.37,1.33-1.4,1.91-3.49,1.81Z"/><path d="M638.28,494.46c-.03-.97,.41-1.77,1.06-2.42,1.97-2,4.09-3.84,6.35-5.49,1.59-1.16,3.11-.98,4.14,.21,.98,1.13,1,2.54-.25,3.92-2.07,2.28-4.31,4.41-6.88,6.1-2.11,1.38-4.44,.06-4.41-2.32Z"/><path d="M649.73,507.27c-1.08,.04-2.02-.29-2.52-1.28-.57-1.14-.59-2.42,.36-3.3,2.33-2.17,4.89-4.05,7.77-5.42,1.07-.51,2.15-.2,2.97,.72,.74,.83,.79,1.81,.48,2.81-.55,1.77-7.14,6.45-9.06,6.47Z"/><path d="M346.76,787.16c-.07,1.94-1.59,3.32-3.59,3.26-1.99-.06-3.34-1.55-3.24-3.57,.1-1.92,1.74-3.48,3.55-3.36,1.84,.12,3.35,1.81,3.28,3.68Z"/><path d="M366.49,784.58c-.04,1.81-1.35,3.04-3.17,2.97-1.71-.06-3.13-1.46-3.15-3.12-.02-1.67,1.42-3.14,3.1-3.16,1.81-.02,3.26,1.47,3.22,3.31Z"/><path d="M377.27,750.71c-.25-.33-.56-.67-.79-1.05-1.3-2.23-.33-4.23,2.22-4.44,1.35-.11,2.72-.06,4.07,.01,2.38,.13,3.88,1.18,4.15,2.8,.26,1.55-.49,2.39-3.05,3.46-.05,.53,.43,.76,.64,1.14,1.32,2.37,.19,4.37-2.52,4.45-.63,.02-1.27-.04-1.89-.15-4.07-.73-4.95-2.64-2.83-6.22Z"/><path d="M856.76,559.15c-2.02,.03-3.5-1.36-3.53-3.32-.03-1.87,1.51-3.54,3.34-3.62,1.81-.08,3.43,1.51,3.49,3.43,.07,2.02-1.3,3.48-3.3,3.51Z"/><path d="M836.48,556.3c-1.8-.03-3.03-1.33-2.98-3.16,.04-1.72,1.41-3.1,3.12-3.13,1.67-.03,3.16,1.4,3.19,3.07,.03,1.76-1.5,3.25-3.33,3.22Z"/><path d="M816.48,520.13c-.79-.22-1.23-.31-1.64-.46-1.15-.42-1.77-1.29-1.79-2.47-.02-1.18,.6-2.12,1.67-2.59,2.5-1.1,5.15-.93,7.72-.41,1.45,.29,2.07,2.14,1.44,3.57-.28,.64-.78,1.19-1.15,1.75,2.13,3.38,1.41,5.17-2.38,6.05-.26,.06-.53,.11-.8,.13-1.54,.14-3.17,.44-4.18-1.14-1-1.57-.24-2.93,1.13-4.45Z"/></svg>