<?xml version="1.0" encoding="utf-8"?>
<!-- Generator: Adobe Illustrator 27.1.1, SVG Export Plug-In . SVG Version: 6.00 Build 0)  -->
<svg version="1.1" id="Layer_1" xmlns="http://www.w3.org/2000/svg" xmlns:xlink="http://www.w3.org/1999/xlink" x="0px" y="0px"
	 viewBox="0 0 1080 1080" style="enable-background:new 0 0 1080 1080;" xml:space="preserve">
<style type="text/css">
	.st0{fill:#FFFFFF;}
</style>
<g>
	<path class="st0" d="M0,1080C0,720,0,360,0,0c360,0,720,0,1080,0c0,360,0,720,0,1080C720,1080,360,1080,0,1080z M652.5,256.2
		c-0.3-1.3-0.6-2.1-0.6-2.9c-0.3-8.6-0.7-17.3-0.8-25.9c-0.2-11.9-5.7-20.5-15.4-26.9c-11.8-7.8-25.2-9.8-38.9-10.6
		c-22.8-1.3-44.1,5.4-65.2,12.6c-13.8,4.7-27.1,11.1-40.9,16c-4.9,1.8-10.8,2.3-16,1.7c-7.5-0.8-14.9-3.1-22.4-4.9
		c-23.4-5.6-46.1-14.2-70.6-14c-10.4,0.1-21.2-0.7-31.2,1.7c-31.8,7.9-60.7,22-86.2,43.1c-24,19.9-44.8,42.6-63.4,67.5
		c-17.5,23.4-32.5,48.2-43.6,75.3c-2.1,5.1-5.5,9.3-12.2,10.1c-6.3,0.7-9.1,5.6-6.3,11.9c2.9,6.7,0.6,11.7-2.3,17.2
		c-1,1.9-1.9,3.9-2.9,5.8c-4.6,8.4-9.3,16.7-14,25.1c-1.9,3.3-4.1,6.5-5.4,10.1c-3.1,8.4-5.8,17-8.6,25.6
		c-8.8,26.7-10.6,53.8-1.4,80.4c8.5,24.6,18.1,48.9,28.6,72.8c14.9,33.9,34,65.1,63.8,88.5c11.1,8.7,21.1,18.8,31.8,28.1
		c4,3.5,8.5,6.3,12.7,9.6c9.9,7.8,19.2,16.3,29.5,23.6c30.3,21.3,61,42.2,93.7,59.8c21.9,11.8,43,24.9,67.5,31.6
		c24.2,6.6,47.6,15.6,71.7,22.6c24.9,7.2,50,13.5,75.1,19.6c14,3.4,28.4,5.6,42.6,8.1c18,3.1,35.9,7,54,8.8
		c15.1,1.4,30.6,1.2,45.8-0.2c14.1-1.3,28.4-3.7,41.9-8c16.7-5.3,32.6-13.3,49.1-19.4c17.1-6.4,32.7-15.7,47.7-25.8
		c18.4-12.4,31.8-29.7,43.9-47.9c6.2-9.2,10.7-19.5,16.1-29.2c15.8-28.7,28.9-58.4,33.9-91.1c2.4-15.3,4.6-30.6,2.8-46.2
		c-2.4-20.2-8.7-39.3-16.4-57.9c-5.5-13.4-12.6-26-18.6-39.2c-4.2-9.2-10.4-17.8-8.6-28.9c0.5-3.3,0.7-6.1,3.1-8.9
		c5.8-6.5,3.4-15.5-4.7-18.9c-0.8-0.4-2.1-1-2.2-1.6c-0.7-5.3-4.8-10-1.3-16.1c4-7,2.2-13.2-3.8-15c-3.7-1.1-4.9-3.3-6.2-6.2
		c-1.7-3.5-1.9-6.6-0.2-10.4c3.6-8.3,1.3-15.1-5.5-15.5c-7.2-0.4-8.9-4.9-10.8-10c-1.8-4.7-3.3-9.3-1.4-14.5
		c0.6-1.6,0.3-3.6,0.2-5.5c-0.1-4.1-1.9-6.8-6.2-7.8c-5.3-1.3-7.4-8.6-4.5-13.2c1.9-3,3.9-6.5,4.3-9.9c2.4-17.4-5.8-40-24.2-47.9
		c-1.8-0.8-3.5-1.6-5.3-2.3c6.9-16.2,1.1-24.4-5.7-28.7c-3-1.9-7.6-2.9-10.9-2.1c-4.3,1.1-7.9,4.5-11.7,6.9
		c-3.9-9-17.5-16.3-26.4-20.4c-12.1-5.5-23.2-0.8-27.5,12.6c-0.8,2.4-1.8,4.8-2.7,7.3c-2.8-1.7-5.2-3.3-7.4-4.6
		c2.7-2.4,5.5-4.5,7.8-7.1c6.7-7.6,9.8-16.9,11.1-26.7c1.2-9-6.1-17.8-15.4-18.7c-9.7-1-16.6,3.4-22.2,14.3
		c-6.4-8.7-14.5-14.4-25.6-15.3c-11.3-1-19.5,4.6-27.3,11.9c1.2-8.2,3.9-16.3-4.6-22.1C668.4,252.7,660.7,252.4,652.5,256.2z"/>
	<path d="M652.5,256.2c8.2-3.8,16-3.4,23.4,1.6c8.5,5.8,5.8,13.9,4.6,22.1c7.9-7.3,16.1-12.9,27.3-11.9c11.1,0.9,19.2,6.6,25.6,15.3
		c5.7-10.9,12.6-15.3,22.2-14.3c9.3,1,16.6,9.7,15.4,18.7c-1.3,9.9-4.4,19.1-11.1,26.7c-2.3,2.6-5.1,4.6-7.8,7.1
		c2.2,1.4,4.6,2.9,7.4,4.6c0.9-2.5,1.9-4.9,2.7-7.3c4.4-13.4,15.4-18.1,27.5-12.6c8.9,4.1,22.5,11.4,26.4,20.4
		c3.8-2.4,7.5-5.8,11.7-6.9c3.3-0.9,8,0.2,10.9,2.1c6.8,4.3,12.6,12.5,5.7,28.7c1.8,0.8,3.5,1.6,5.3,2.3c18.4,8,26.6,30.6,24.2,47.9
		c-0.5,3.5-2.4,6.9-4.3,9.9c-2.9,4.6-0.8,11.9,4.5,13.2c4.3,1.1,6.1,3.7,6.2,7.8c0.1,1.8,0.4,3.8-0.2,5.5c-2,5.1-0.4,9.8,1.4,14.5
		c2,5.2,3.7,9.6,10.8,10c6.9,0.4,9.2,7.3,5.5,15.5c-1.7,3.8-1.5,6.9,0.2,10.4c1.4,2.9,2.6,5.1,6.2,6.2c6,1.8,7.8,8,3.8,15
		c-3.5,6.1,0.5,10.8,1.3,16.1c0.1,0.6,1.4,1.3,2.2,1.6c8.1,3.4,10.5,12.3,4.7,18.9c-2.5,2.8-2.6,5.6-3.1,8.9
		c-1.8,11.2,4.4,19.7,8.6,28.9c6,13.1,13.1,25.8,18.6,39.2c7.6,18.6,13.9,37.7,16.4,57.9c1.9,15.6-0.4,30.9-2.8,46.2
		c-5,32.7-18.2,62.4-33.9,91.1c-5.4,9.8-9.9,20-16.1,29.2c-12.1,18.2-25.5,35.5-43.9,47.9c-15,10.1-30.5,19.3-47.7,25.8
		c-16.5,6.2-32.3,14.2-49.1,19.4c-13.5,4.3-27.8,6.7-41.9,8c-15.2,1.4-30.6,1.6-45.8,0.2c-18.1-1.7-36.1-5.6-54-8.8
		c-14.2-2.5-28.6-4.7-42.6-8.1c-25.2-6.1-50.3-12.4-75.1-19.6c-24.1-7-47.5-16-71.7-22.6c-24.5-6.7-45.5-19.8-67.5-31.6
		c-32.8-17.6-63.4-38.4-93.7-59.8c-10.3-7.2-19.7-15.7-29.5-23.6c-4.2-3.3-8.7-6.2-12.7-9.6c-10.7-9.3-20.7-19.3-31.8-28.1
		c-29.8-23.5-48.9-54.6-63.8-88.5c-10.5-23.8-20.1-48.1-28.6-72.8c-9.2-26.7-7.4-53.8,1.4-80.4c2.8-8.5,5.5-17.1,8.6-25.6
		c1.3-3.5,3.5-6.7,5.4-10.1c4.7-8.4,9.4-16.7,14-25.1c1-1.9,1.9-3.9,2.9-5.8c2.9-5.4,5.2-10.5,2.3-17.2c-2.8-6.3,0-11.2,6.3-11.9
		c6.6-0.8,10.1-5,12.2-10.1c11.1-27.1,26.1-51.9,43.6-75.3c18.6-24.8,39.4-47.6,63.4-67.5c25.5-21.1,54.4-35.2,86.2-43.1
		c9.9-2.5,20.7-1.6,31.2-1.7c24.5-0.2,47.3,8.4,70.6,14c7.4,1.8,14.8,4,22.4,4.9c5.2,0.6,11,0,16-1.7c13.8-4.9,27-11.2,40.9-16
		c21.1-7.2,42.4-13.9,65.2-12.6c13.8,0.8,27.1,2.8,38.9,10.6c9.7,6.4,15.3,15,15.4,26.9c0.1,8.6,0.5,17.3,0.8,25.9
		C651.9,254.1,652.2,254.8,652.5,256.2z M328,247.9c-0.6,4.3-1.1,8.6-1.7,13.2c6-2.4,11.8-4.7,17.6-7.1c1.1-0.3,2.1-0.7,3.2-1
		c2.1-0.6,4.2-1.1,6.3-1.7c16.1-4.6,32.3-9.2,48.4-13.7c5-1.4,10.1-2.7,15.2-4.1c-2.9-4.3-3-6.9-0.8-9.8c2.5-3.2,9.5-5.4,12.8-3.6
		c4.5,2.4,3.1,6.6,2.1,10.5c15.2-2.4,30-4.7,44.3-6.9c-11.6-2.7-23.5-5.6-35.5-8.4c-14.2-3.3-28.3-7.7-42.8-9.4
		c-18.9-2.3-38-3.9-56.7,3.2c-17,6.4-34.2,12.2-49.5,22.1c-28.9,18.7-53.7,42-75,68.9c-10.5,13.3-20.4,27.1-29.7,41.3
		c-8,12.3-14.6,25.5-21.9,38.3c0.6,0.4,1.1,0.7,1.7,1.1c1.5-2.4,3-4.7,4.3-7.1c1.6-2.9,2.6-6.1,4.3-8.9
		c10.3-16.8,26.4-27.4,41.8-38.7c7.1-5.2,14.5-10,21.7-15c0,0-0.1,0.1-0.1,0.1c13.3-6.4,26.5-13.2,40-19c19.5-8.4,39-17.3,59.2-23.8
		c34.3-11,69.2-20.3,103.8-30.4c3.5-1,6.8-2.5,10.2-3.9c3.4-1.4,6.7-2.9,10-4.4c-1.5-0.4-2.8-0.3-4.1,0c-19.9,4-39.8,7.6-59.5,12.3
		c-28.5,6.8-56.6,14.6-82.8,28.1c-6.1,3.1-12.1,3.3-18-0.4c-5.6-3.6-5.1-9.3-4.7-14.8c0.7-9,7.1-15.5,16.2-17
		c10.3-1.7,16.2,1.4,20,10.2L328,247.9z M407,459.9c-13.2,4.6-25.7,9.5-38.6,13.4c-10.8,3.2-21.8,6.3-32.9,7.7
		c-15.9,2.1-32,2.4-48.2,1.7c-24.9-1-48.2-7.5-71.2-16c-10.9-4-21.6-7.7-33.4-4.6c-4,1-7,2.8-7.6,7.3c-2.5,18.3-3.2,36.7,3.5,54.2
		c7.8,20.2,15.7,40.3,25.3,59.6c9.7,19.4,21.3,37.9,32.4,56.7c7.7,13.1,16.7,25.3,28.5,35c9.2,7.6,19,14.7,27.9,22.6
		c20.8,18.4,41.2,36.9,64.4,52.5c19.4,13,39.9,23.9,60.9,33.9c13.5,6.4,27.2,12.4,40.8,18.5c6.5,2.9,12.9,6.2,19.6,8.7
		c7.5,2.7,15.3,4.4,22.9,7c19.4,6.5,38.4,14.1,58.1,19.5c18.8,5.2,38.3,8.2,57.5,12.1c9.4,1.9,18.9,4.4,28.5,4.9
		c22.9,1.2,45.9,1.4,68.8,1.8c5.8,0.1,11.7-0.1,17.3-1.2c14.8-2.8,29.7-5.7,44.3-9.5c13.6-3.6,27.3-7.4,40-13.2
		c13.1-5.9,25.4-13.9,37.4-21.8c7.6-5,15.1-11,18.2-20c2.6-7.6,4.8-15.6,5.4-23.6c0.7-10.6,0-21.3-0.7-31.9
		c-1.5-22.5-8.3-43.4-21.4-61.9c-2.8-3.9-6.6-8.5-10.8-9.6c-8.4-2.2-17.5-1.7-26-3.3c-11.6-2.2-22.9-5.7-34.5-7.9
		c-22.5-4.3-43.5-12.8-63.2-23.7c-20.1-11-39.2-23.8-58.4-36.3c-27-17.6-51.9-37.8-73.1-62.2c-1.2-1.4-4.1-2.2-5.9-1.9
		c-13.4,2.6-26.6,5.8-40,8.2c-20.4,3.7-40.8,6.2-61.2-0.3c-11.9-3.7-24.1-7-34.3-14.4c-19.8-14.3-33.3-33-38.9-57.1
		C408,463,407.4,461.3,407,459.9z M160.7,424.8c-6.6,5.8-13.4,11.6-20,17.6c-4.4,4-8.4,8.4-12.9,12.4c-5.2,4.6-9.5,9.6-11.6,16.4
		c-2.5,8.4-5.3,16.8-8,25.1c-8.2,25.6-10,51.5-1.1,77c8.2,23.7,17.6,46.9,27.1,70.1c11.5,28.1,27.8,53.6,48.3,75.8
		c12.8,13.9,27.9,25.7,42.2,38.1c6.4,5.5,13.6,10.1,20.2,15.5c5.7,4.6,10.5,10.3,16.5,14.5c23.3,16,46.5,32.1,70.4,47.2
		c17.8,11.3,36.4,21.3,55,31.3c15,8.1,30,16.1,47.1,19.8c11.9,2.6,23.1,8.4,34.8,12.1c12.9,4.2,26.1,7.9,39.2,11.5
		c20.4,5.6,40.6,11.9,61.2,16.2c31.7,6.6,63.8,11.5,95.6,17.5c25.4,4.8,50.6,3.3,75.9-0.8c19.4-3.2,37.5-10.2,55.3-18.1
		c16.2-7.3,32.8-13.9,48.4-22.5c17.8-9.8,32.3-23.7,45-39.7c8.6-10.9,16.2-22,18.8-35.7c1.8-10,2.3-20.2,3.5-30.2
		c4.1-33.8,0.5-66.8-11-98.8c-3.1-8.7-7.8-16.8-12.4-24.9c-2.3-4-5.7-7.4-9-10.7c-1.6-1.6-4.1-3.6-6-3.4c-7.3,0.7-14.5,2.2-22.3,3.5
		c0.9,1.5,1.2,2.2,1.6,2.6c14.9,16.5,23.1,36.4,25.6,58c2.3,20.8,1.8,41.8,2.5,62.8c0,1.1-0.3,2.3-0.6,3.4
		c-4.1,12.4-8.1,25-12.5,37.3c-6,17-15.9,31.3-30,42.7c-10.5,8.5-20.6,17.2-33.4,22.4c-9.9,4.1-18.7,11-28.6,15
		c-10.9,4.4-22.6,6.5-33.7,10.5c-11,4-22,6.4-33.7,5.8c-1.1-0.1-2.3,0.2-3.5,0.3c-10.9,1-21.8,2.3-32.8,2.8
		c-9.4,0.5-18.9,0.1-28.4,0c-22.8-0.2-45.6-0.7-67.8-6.8c-20-5.5-39.9-11.8-60.2-16c-20.7-4.2-39.5-12.8-58.6-20.7
		c-23-9.5-45.3-20.7-67.9-31.3c-17.6-8.3-34.6-17.7-50.2-29.5c-17.8-13.4-36.1-26.2-53.9-39.6c-14.1-10.6-29-20.1-40.7-33.7
		c-5.9-6.8-11.2-14.4-18.3-19.7c-16.5-12.3-30.2-27.1-42.7-43c-19.6-24.9-30-54.4-37.1-84.8c-6.4-27.4-9.4-55.3-2.9-83.2
		c4.3-18.5,9.9-36.4,24.9-49.9c11.7-10.5,25.3-12.3,39.1-7.6c20.4,7,40.5,15,62,17.8c12.7,1.7,25.5,2.7,38.3,2.6
		c26.1-0.4,51.5-5.7,76.1-14.5c6.1-2.2,11.9-5.2,18-7.2c4.9-1.6,5-4.8,4.3-8.9c-1.4-8.7-2.7-17.4-3.8-26.1c-0.7-5.5-1.2-11-1.8-16.9
		c-15.9,10.2-28.6,5.3-40.3-7c-1.2,10-2.5,19.7-13.4,22.8c-8.6,2.4-14.5-2.5-19.1-9.7c-6.8,10.3-14.7,19.2-27.1,19.9
		c-12,0.7-23-3.2-29.5-15.1c-0.4,7.7-0.2,15-0.5,22.3c-0.2,4.7-2.1,9.7-6.7,10.6c-2.6,0.5-6.8-2.8-8.9-5.5
		c-4.4-5.7-7.8-12.2-11.8-18.5c-6.7,6.5-14.4,5-22.7,2.2c1.5,4.3,3.5,7.8,3.7,11.4c0.2,3.3-0.4,7.8-2.4,10c-2.8,3-7.4,1.5-10.5-0.9
		c-5-4.1-9.7-8.6-14.3-13.1c-3.4-3.3-5.1-8.8-11.9-6.9c-1.6,0.5-4.1-1.8-6.1-3c-1-0.6-1.9-1.5-3-2.3
		C172.3,431.9,169.5,432.2,160.7,424.8z M888.5,625.7c3.9-11.4,7.7-22.1,11.4-32.9c0.4-1.3,0.7-3.1,0.2-4.2
		c-2.8-5.5-5.8-10.8-8.8-16.1c-8.7-15.7-17.8-31.1-26-47c-10.7-20.6-24.1-39.3-38.8-57.2c-8.5-10.2-17.4-20.1-26.3-29.9
		c-10.2-11.2-22-20.1-36.3-25.5c-9.5-3.6-19-7-28.3-11c-18.4-8-37.6-12.9-57.6-12.3c-16.1,0.5-32.1,2.5-48.1,4.3
		c-10.3,1.2-20.7,2.8-30.7,5.3c-12.4,3.1-24.5,7.3-36.7,10.9c-11.1,3.3-22.5,6-33.4,10c-18.3,6.7-36.5,13.3-56.1,15.3
		c-11.2,1.1-20.5-2.2-27.7-10.2c-4.3-4.7-7.5-10.5-10.8-16c-1.8-3-3.5-5.2-6.9-6.9c-3.6-1.9-6.6-5.8-8.6-9.6
		c-1.7-3.1-1.8-7.1-2.6-10.8c-3.7,6.5-8.2,13.3-8.5,20.2c-0.3,9.6,0.9,20.1,4.6,28.8c9.7,22.8,24.4,41.7,49.5,49.2
		c8.8,2.6,18.2,3.4,27.3,4.9c20.3,3.2,40.4,0.7,60.6-1.4c10.2-1.1,20.3-3.5,30.5-4.3c28.3-2.5,56.5-7.4,85.1-4.4
		c13.6,1.4,27.7,0.8,40.5,4.6c21.3,6.2,42.1,14.5,62.5,23.3c18.7,8,33.6,21.8,48.9,34.9c10.1,8.7,19.4,18.2,29.3,27
		c9,8.1,16.4,17.3,22.3,27.8C875.1,603.3,881.6,614.1,888.5,625.7z M758.8,853.1c-2.5,0.5-4.4,0.9-6.3,1.4c-13.1,3-26,6.5-39.8,5.8
		c-14.9-0.8-29.9-0.1-44.9-0.9c-15-0.9-30.1-2.4-45-4.5c-13.6-2-27.1-4.9-40.6-7.9c-10.4-2.3-20.8-4.6-30.9-7.8
		c-19.3-6.1-38.5-12.8-57.7-19.2c-6.8-2.2-13.8-3.8-20.3-6.6c-15.7-6.8-31.3-14-46.6-21.4c-17.8-8.6-35.6-17.3-52.9-26.8
		c-11.2-6.1-21.5-13.7-32.7-20.9c-0.4,2.4-0.9,4.3-1.1,6.3c-2,14.5-3.9,29-5.8,43.5c-0.4,2.6-1.3,5.3-1,7.9
		c0.5,4.4,0.4,9.8,2.9,12.9c3.8,4.6,9.4,7.9,14.7,11c12.6,7.3,25.6,14.1,38.4,21.2c32.2,17.9,66.4,31.5,100.6,44.5
		c21.3,8.1,43.8,13.1,66.1,18.6c17.7,4.3,35.7,8.9,53.7,10.4c29.5,2.5,59.1,3.2,88.7-0.7c7.9-1,16-0.6,23.8-2.1
		c8.9-1.7,17.5-5,26.4-7c4.3-0.9,5.1-3.3,5.5-6.9c1.1-11.6,2.5-23.1,3.7-34.7C758.2,864,758.4,858.9,758.8,853.1z M273.7,381.3
		c-13.8,1-20.1-12.7-13.1-23.2c1.6-2.5,3.3-5,5.5-7.1c6.8-6.5,21-8.5,25.4-2.4c4.2,5.9,8.1,5.1,13.4,3.3c2.3-0.8,5-0.5,7.3-1.4
		c4.4-1.6,10.2-2.6,12.7-5.9c5.8-7.8,15.5-11.3,27.6-5.6c1.2,0.6,3,0.8,4.1,0.3c17.3-8.3,36.4-12.7,52.9-23c2.1-1.3,5.3-1,8-1.3
		c2.3-0.2,4.8,0.4,6.7-0.5c16.3-7.5,32.5-15.2,48.6-23.1c18.1-8.8,35.7-18.6,54.1-26.7c17.7-7.8,36.3-13.3,56.1-11.8
		c11.6,0.9,23.9,0.9,28.6,14.7c17.2-1.8,21.6-1.7,33.2,4.8c1-3.9,2.1-7.9,3.1-11.9c0.2-0.8,0.3-1.6,0.3-2.5
		c-0.1-8.3,0.3-16.7-0.4-25c-0.5-6.3-0.9-13.3-3.9-18.7c-6.7-12.4-19.2-16.8-32.3-19.3c-24.1-4.5-47.5-0.2-70.1,7.7
		c-26.1,9.2-51.9,19.5-77.6,29.6c-12.2,4.8-23.9,10.8-36.1,15.7c-30.3,12.3-61,23.9-91.2,36.6c-21.1,8.9-41.6,19.2-62.2,29.2
		c-16.9,8.2-33.8,16.4-50,25.7c-11.5,6.5-22.3,14.4-32.9,22.4c-9.1,6.9-17.6,14.6-26.1,22.3c-2.6,2.3-4.2,5.6-6.3,8.4
		c0.4,0.5,0.9,1,1.3,1.6c4.7-7.8,11.3-6.5,18.2-4.4c3.4-4.9,8-7.2,13.8-5.2c7.1,2.5,6.6,8.6,6.3,13.4c11.1,5.7,14.8-5.2,22-8.8
		c-0.5-0.5-0.9-1-1.3-1.4c-4.5-4.8-5.9-10.3-3.6-16.6c1.6-4.2,11.4-10.9,15.9-10.7c1.7,0.1,4,0.5,5,1.7c3,3.6,5.6,7.6,8.5,11.7
		c8.8-2.8,12.9-1.7,16.6,6.4c1.3,2.8,1.3,6.5,1.2,9.7c-0.2,3.5,0.8,5.2,4.1,5.4C269.2,391,271.3,386.3,273.7,381.3z M912,823.5
		c12.1-17.2,19.5-36.3,27.1-55.2c9.4-23.3,13.5-47.7,14.4-72.6c1-29.9-9.9-57-21.5-83.8c-5.3-12.3-11.4-24.4-17.1-36.5
		c-0.7-1.4-1.5-2.8-2.7-5c-8.1,20.9-15.7,40.7-23.6,61c-14.4-9-27.2-18.3-38.4-29.8c-12.9-13.2-26.2-26.1-40.3-37.9
		c-22.2-18.4-48.5-30.3-74.3-42.5c-17.6-8.4-36.6-14-55-20.5c-20.8-7.3-41.7-14.6-63.7-17.8c-6.6-1-13.3-1.3-19.9-2
		c-0.4,0.8-0.8,1.5-1.1,2.3c1.6,1.1,3.3,2.1,4.8,3.4c6.4,5.8,12.8,11.6,19.2,17.4c22.3,20.4,43.9,41.7,67,61.1
		c25.3,21.3,54,37.5,84.5,50.5c4.1,1.8,8.4,3.2,12.5,5c9.1,4.1,18.1,8.4,27.2,12.4c17.5,7.6,35.7,13.2,54.5,17.3
		c4.8,1.1,9.9,3.7,13.4,7.2c11.9,11.6,20.3,25.4,25.7,41.5c5.5,16.4,8.3,33.1,10.4,50.1c1.9,15.1,1.6,30.2-0.3,45.3
		C913.2,803.9,912.8,813.7,912,823.5z M435.6,404c3.2,10.4,9.7,17.8,18.1,23.1c4.5,2.8,10.6,4.6,15.9,4.4c8.6-0.4,17.2-2.1,25.5-4.5
		c13.2-3.8,26.1-8.9,39.2-13c15-4.8,30.2-9.1,45.3-13.6c8.7-2.6,17.3-6.3,26.3-7.5c22.9-3.1,45.8-5.8,68.8-7.3
		c21-1.4,41.2,3.7,60.6,11.7c12.8,5.3,25.8,10,39.3,15.2c-5.8-9.3-2.6-17.4,3.1-24.9c-10.6-6-15.5-12.6-21.6-28.9
		c-5.4,8.9-12.6,14.7-23.4,11.4c-10.2-3-12.2-11.2-11-20.6c-14.3,3.1-33.9,2.7-40.1-11.3c-3.7,6.7-8.5,12.4-16.4,13.2
		c-8.1,0.8-14.2-3.3-18.1-10.7c-12.5,9.8-25.4,11.9-38.8,2.1c-9.9,21.9-21.9,24.3-34.8,6.8c-15.5,9.9-31.5,11.6-47.2,3.3
		c-1.7,6.1-3.3,12.6-5.4,19c-2,6.2-5.9,9.2-10.9,9.5c-6.4,0.3-9.7-3.4-11.9-8.7c-1-2.5-1.8-5.1-3-8.4c-4.1,10.8-7.9,20.4-20.2,22.9
		c-11.2,2.2-20.3-1.5-28.7-9C445.3,388.2,445.9,398.3,435.6,404z M171.8,469.2c-0.5-0.3-0.9-0.5-1.4-0.8c-3.8,4.5-8.2,8.7-11.2,13.7
		c-15.1,25.9-18.3,54.3-15.6,83.5c2.1,22,5.6,43.9,14.6,64.4c6.6,15,12.4,30.7,21.1,44.5c10.6,16.9,24.6,31.4,39.9,44.3
		c5.8,4.9,11.5,10.1,17.1,15.3c2.5,2.3,4.5,5.1,7.2,8.2c1.8-5.5,3.5-10.2,4.9-14.9c4.6-15.1,9.1-30.2,13.4-45.4
		c0.5-1.6,0.2-4.4-0.8-5.3c-11-9.7-19-21.5-27-33.7c-12.1-18.6-24-37.2-33.3-57.3c-7.5-16.3-13.7-33.2-21.1-49.6
		c-7.1-15.7-10.2-31.9-9.2-49C171.1,481.1,171.5,475.2,171.8,469.2z M865.4,655.9c0.1-0.7,0.2-1.3,0.3-2c-2.9-0.9-5.8-1.9-8.8-2.7
		c-7.4-1.9-15-3.1-22.1-5.8c-13.2-4.9-26.1-10.7-39.1-16.2c-5.8-2.5-11.4-5.6-17.3-7.6c-25.2-8.3-47.3-22.5-69.7-36.3
		c-23.1-14.2-42.4-33.1-62.3-51.2c-14.9-13.5-29.1-27.8-43.7-41.7c-3.1-2.9-6.3-5.6-10.3-9.2c-1.6,13.8-3.2,26.4-4.2,39.1
		c-0.2,2.3,1.9,5.2,3.7,7.1c15.6,16.6,31.5,32.9,50.6,45.6c25.2,16.7,50.2,33.8,76.1,49.3c13.3,7.9,28,13.9,42.8,18.7
		c22.7,7.4,46,12.9,69.7,16.4C843.4,661.3,854,657,865.4,655.9z M404.2,403.8c-0.3,0-0.7-0.1-1-0.1c0,1.5-0.2,3,0,4.5
		c1.9,14.8,3.7,29.6,5.8,44.4c1.7,11.5,3.9,22.8,10.3,33c9.5,15.1,19.4,29.5,36.3,37.3c19.9,9.1,40.1,15.2,62.6,13.3
		c21.5-1.8,42.4-6.1,63.2-11.4c1.4-0.4,3.4-2.1,3.5-3.4c1.8-12.9,3.2-25.9,4.8-39.2c-12.1,1.5-23.6,2.8-35.1,4.3
		c-20.8,2.8-41.6,4.4-62.6,2.6c-15.6-1.3-30.4-4.5-44.5-11.4c-11.7-5.7-19.5-15.4-26.9-25.3c-6.9-9.4-12.6-19.6-14.3-31.4
		C405.4,415.3,404.9,409.6,404.2,403.8z M618.1,479.2c13,3.6,25.9,6.6,38.4,10.7c23.7,7.7,47.6,14.8,70.6,24.2
		c19.3,7.9,37.5,18.5,55.9,28.4c19.4,10.5,36.8,23.8,52,39.8c9.2,9.6,18.7,18.9,28.5,27.8c5.5,5,12,9.1,18,13.5
		c0.4-0.4,0.7-0.8,1.1-1.2c-0.8-1.6-1.5-3.2-2.4-4.7c-4.6-7.7-9.3-15.3-14.1-22.9c-3-4.8-5.4-10.1-9.3-14.1
		c-12.4-12.7-25.1-25.1-38.2-37c-10.2-9.3-20.8-18.1-32-26.2c-11.5-8.2-24.4-14.1-37.5-19.5c-23.6-9.7-47.2-18.3-73.3-19.1
		C656.8,478.4,637.6,477.1,618.1,479.2z M280.7,691.9c-1,3.3-1.9,5.7-2.4,8.1c-3.1,13.8-6.1,27.6-9.1,41.4c-1.3,6-3,11.9-4,18
		c-0.3,1.7,1,4.5,2.5,5.6c9.2,7.1,18.7,13.9,28.2,20.6c7.3,5.2,14.6,10.1,23.2,16c2.8-22.9,5.5-44.6,8-66.3c0.2-1.3-0.8-3.2-1.9-4.2
		c-5.6-5-11.4-9.7-17-14.6C299.1,708.4,290.3,700.4,280.7,691.9z M876.9,788.8c-3.8,5.2-6.8,9.5-9.9,13.6
		c-8.3,10.9-21.2,15.8-31.8,23.6c-13.3,9.7-29.3,14.6-44.8,19.8c-3.2,1.1-4.9,2.3-5.5,5.9c-1.6,11-3.7,21.9-5.4,32.9
		c-0.7,4.7-0.9,9.5-1.5,14.8c1.8-0.6,3-0.8,4.2-1.4c15.6-7.1,31.4-13.8,44.5-25c7.8-6.6,15.4-13.6,22.2-21.2
		c9.6-10.7,14.8-23.8,19.2-37.4C870.8,806.2,873.8,798,876.9,788.8z M738.1,305.6c-0.4-0.2-0.9-0.3-1.3-0.5
		c-0.1-7.3-2.7-13.6-6.5-19.9c-9.5-15.9-33.2-19.3-46.2-3.4c-4.4,5.4-6,20.8-2.6,26.1c2.1,3.3,3.5,7,5.3,10.5
		c1.7,3.3,3.1,6.9,5.5,9.5c2.8,3,6.3,5.6,10,7.2c10.8,4.8,21.8,5.2,28.4-8C734.1,320.3,735.7,312.8,738.1,305.6z M783.9,418.3
		c4.9,4.3,10.1,7.8,14,12.4c16.6,19.2,34.7,37,49.1,58.2c10.4,15.3,19.6,31.2,28.2,47.5c7.7,14.5,16,28.8,24,43.2
		c0.4-0.2,0.8-0.3,1.1-0.5c-5.2-16.3-9.6-32.8-15.7-48.7c-5.3-13.8-12.3-26.8-18.7-40.1c-6.7-13.9-13.6-27.7-20.2-41.7
		c-2.1-4.4-4.3-6.1-9.5-4.5c-5.2,1.6-10.9,1-14.6-3.7c-3.9-5.1-0.8-9.7,2.1-14.1c0.1-0.1,0-0.3,0-1c-7.1-2.7-9.8-9.2-11.9-16
		C802.8,413.4,795.1,420.6,783.9,418.3z M652.2,300.9c-0.1-2-0.2-4-0.4-6c-1.7-14.9-8.5-22.6-22.4-24.3c-7.1-0.8-14.8-0.1-21.6,2.1
		c-7.7,2.4-14.3,7.6-15,16.8c-0.6,7.9,2.2,14.1,8.7,19.3c3.4,2.8,6.1,7.6,7,12c1.2,5.6,4.2,8.1,9.1,9
		C636.2,333.5,653.3,320,652.2,300.9z M506.4,305.3c1.2-1.4,1.8-2.1,2.4-2.9c6.7-10.7,16.3-15.1,28.8-13.8c7.3,0.7,14.6,1.3,22,1.9
		c-4.1-6.3-5.7-12.9,0.1-19.1c5.5-5.8,12.6-9.3,20.5-7.6c7.7,1.7,11.5,7.7,12.2,15.2c5-3.6,10-7.3,16-11.6c-2.5-2.4-4.8-6.2-7.7-6.9
		c-9.3-2-18.9-4.2-28.3-3.8c-21.2,1-40.9,8.7-59.8,17.8c-22.5,10.8-44.4,22.6-66.6,33.8c-6.1,3.1-12.7,5.4-18.7,7.9
		c2.4,3.6,4.7,6.9,7.1,10.5c4.8-6.1,10.8-12.5,19.5-12.2c7.7,0.3,15.3,3,22.6,4.6c-4.1-6.9-4.4-14.8,1.5-21.4
		c5.1-5.7,12.1-8.1,20-5.5C503,293.9,506.2,298.5,506.4,305.3z M540.2,292.1c-2.1-0.1-3.2-0.2-4.4-0.2c-14.4-0.2-23.6,5.9-28.6,19.5
		c-0.6,1.7-0.6,3.9-0.3,5.7c1.7,8,8,12.1,14.5,15.4c20.4,10.4,32.1,10.6,48.5-3.4c11.3-9.7,8.4-24.5-4.8-31.5
		C556.8,293.2,548.4,291.4,540.2,292.1z M394,338.8c-0.1,0.3-0.3,0.6-0.4,1c-4.8,0.5-9.7,0.3-14.3,1.5
		c-13.3,3.4-23.8,10.6-27.7,24.4c-3.4,12,2.2,22,13.1,23.7c10,1.5,20,1.8,29.4-4.1c11.7-7.3,20.3-16.4,22.5-30.6
		c0.8-5.1-0.5-9.1-5.3-10.9C405.7,341.5,399.7,340.4,394,338.8z M818,369.7c7.3,6.7,9.1,15.7,5.4,25c-0.5,1.2-0.5,3.1,0.1,4.1
		c7.9,13.5,19.5,20.9,36.3,15c4.8-1.7,7.8-5.1,9.3-9.7c4.6-13.8-2-33.5-13.2-43c-6.9-5.8-14.4-7.7-23.5-6.2
		c-4.2,0.7-7.3,1.7-9.3,5.3C821.4,363.3,819.7,366.6,818,369.7z M760.7,332.3c0.5,0.1,0.9,0.2,1.4,0.4c-0.7,6.4,1.1,11.9,5.8,16.4
		c5.2,4.9,10.2,10.1,15.8,14.5c5.7,4.4,12.4,6.1,19,1.7c2.8-1.9,5.2-4.6,7.4-7.2c8.4-10.1,8.2-27.1-1.8-35.2
		c-7.7-6.3-17-10.8-26.1-15c-5.7-2.7-11.9,0.3-14.6,6.1C764.8,319.8,763,326.2,760.7,332.3z M176.9,369.9c1.6-1.3,3.1-2.7,4.8-3.9
		c14.5-10.2,28.5-21.5,43.8-30.4c18.8-10.9,38.6-20.1,58.3-29.5c21.3-10.1,42.8-20,64.4-29.2c22.8-9.7,45.9-18.6,68.8-27.9
		c-1-0.7-1.9-0.7-2.6-0.5c-12.9,3.7-25.9,7.5-38.8,11.1c-27,7.7-53.5,17-79.3,28.2c-23.1,10.1-47,18.5-67.4,34.1
		c-12.4,9.5-25.3,18.3-37.5,28C185,355.2,179.5,361.4,176.9,369.9z M431,341.8c-0.1,5.8,2.3,10.4,6.5,14.5
		c8.1,8.1,18.1,10.7,28.9,11.2c12.2,0.6,21.6-8.8,21.5-21c0-9-9.6-24.1-24.5-28.6C449.5,313.7,430.8,327.1,431,341.8z M289.5,414.6
		c3-0.7,6.7-0.7,9.6-2.3c10.8-5.9,21.9-10.7,26.6-24.3c2.7-7.9,3.1-14.2-0.1-21.2c-0.6-1.2-1.9-2.8-3-2.9
		c-5.9-0.6-12.1-2.1-17.7-0.9c-18.1,3.6-28.3,16.4-34.2,32.9c-2.8,7.9,0.9,14.5,9,17.1C282.6,413.8,285.8,414,289.5,414.6z
		 M260,393.2c0-2.8,0.9-6.1-0.2-8.6c-1.6-3.5-4.5-8.7-7.2-8.9c-3.5-0.3-8.4,2.7-10.9,5.7c-3.9,4.8-7.6,9-14.1,10
		c-7.2,1.1-18.1,9.9-16.3,20c0.4,2.5,2.8,4.6,3.7,7.1c3.1,8.8,10.4,9.5,17.9,9.1c6.3-0.3,9.2-4.2,8.5-10.4
		C239.6,402.1,244.5,395.5,260,393.2z M266.2,681.2c-6.8,20.9-13.4,41.2-20,61.6c-0.3,0.8-0.4,2.2,0.1,2.7
		c4.9,4.9,9.9,9.7,15.2,14.8c0.7-1.4,1-2,1.2-2.6c4.8-21.4,9.6-42.8,14.3-64.3c0.3-1.6-0.3-4.1-1.5-5.2
		C272.6,685.6,269.3,683.5,266.2,681.2z M782.8,848.1c-6.2,1.3-11.2,2.5-16.2,3.3c-3.3,0.5-4.9,2.1-5.2,5.4
		c-0.5,5.6-1.2,11.2-1.8,16.9c-1.1,11.5-2.1,23.1-3.1,34.7c13.6-1.5,18.2-5.9,19.6-18.4c0.1-0.8,0.2-1.6,0.4-2.5
		C778.5,874.5,780.6,861.6,782.8,848.1z M736.9,287.2c-0.1,9.5,5.3,14.7,15.3,14.7c6.7,0,15.6-9.2,15.6-16.3
		c0-7.4-6.9-13.3-15.6-13.4C743.6,272.1,737,278.6,736.9,287.2z M358,392.8c2.9,3.1,5.6,6.5,8.7,9.4c6.8,6.1,20.5,10.7,31.4,1.1
		c6.7-5.9,16.3-23.8,17.2-33C402.3,387.4,386,398.9,358,392.8z M324,252.1c0.4-4.6-1.2-8.6-5.2-10.4c-6.3-2.8-12.7-1.8-18.3,2.5
		c-5.6,4.3-7.1,10.5-6,17c0.4,2.5,3,5.5,5.4,6.5C310,272.3,323.6,263.2,324,252.1z M791.7,379.4c-0.4-0.4-0.9-0.7-1.3-1.1
		c-4.4,5.6-9.2,11-13.3,16.9c-3.5,5.1-3,10.6,1.2,15.2c4.2,4.6,9.7,5.8,15.5,3.4c5.6-2.4,11-5.3,16.5-8.2c1.1-0.6,1.8-2,3-3.4
		C797.3,400.5,792.1,394.9,791.7,379.4z M281.2,348.6c-9.3,0.1-15.3,4.4-19.4,13.8c-2.3,5.2-0.7,10.7,4,13.9
		c3.9,2.7,9.9,1.8,13.7-1.9c2.7-2.7,5.2-5.7,8.3-7.9c4.5-3.3,5.6-7.4,3.8-12.2C290,349.6,286,348.2,281.2,348.6z M664.7,284.3
		c7,1.2,13.8-8.9,14-14.4c0.2-6.8-6.7-12.7-15-12.9c-8.1-0.2-15.2,5-15.4,11.1C647.9,277,655,284,664.7,284.3z M572.9,294.6
		c8.1,0.3,15.7-7.4,15.9-16c0.1-5.6-6.5-12.3-12.2-12.3c-8.6,0-17.2,6.9-17.4,14.1C559,287.8,565.3,294.4,572.9,294.6z M656.1,304
		c-2.2,10.7-6.2,20.1-16.1,25.3c-9.7,5-19.9,5.8-30,0.7c-1,9.1,0.3,13,5.9,14.2c5.5,1.2,11.6,1.8,17.1,0.7c13.4-2.6,17.2-15,23-25
		c2.7-4.8,3.9-10.4,5.7-15.6C660.6,304.3,658.7,304.2,656.1,304z M272.3,412.9c4.6,12.3,14.3,15.8,25.2,16.1
		c12.9,0.4,20.4-8.1,26.5-18.2c2.2-3.7,2.9-7.3-0.1-11.1C308.7,411.8,294,425,272.3,412.9z M328.5,808.2c0.7-2.6,1.7-5.1,2-7.6
		c2.4-17.9,4.7-35.9,7-53.8c0.8-6-0.7-8.2-7.2-10.2c-0.3,1.6-0.8,3.2-1,4.9c-2.5,18.4-4.8,36.8-7.3,55.2
		C321,804.1,321.1,804.5,328.5,808.2z M795.2,383.2c-1.2,9.4,9.6,15.7,17.4,14.4c8.7-1.4,11.9-11.6,6.5-20.8
		c-2.7-4.7-10.6-8.2-15.7-7.1C798.8,370.9,795.2,376.9,795.2,383.2z M757.9,338.8c0-8.2-3.8-14.8-14.1-14.5
		c-6.1,0.2-12.6,7-12.8,14.1c-0.3,7,7.6,13.3,16.8,13.6C754,352.1,757.8,347.2,757.9,338.8z M573.5,330.7c-15.4,14.8-32,16.3-50,6.7
		c-0.1,8,3,13.5,9.6,15.5c12.2,3.7,24.3,2.9,35.4-4.1c1.9-1.2,3.5-3.9,4.1-6.2C573.4,339.4,573.2,335.9,573.5,330.7z M490.4,353.7
		c-2.7,9.6-9.7,14.9-18.7,16.9c-8.8,2-17.6-0.3-26-3.7c-2,10,11.6,18,23,17.5C484.9,383.9,493.3,371.8,490.4,353.7z M820.4,341.2
		c-1.8,7.1,3.9,10,11.7,10.6c7,0.5,11.5-4.6,11.8-13c0.3-8.7-5.6-15.6-13.7-15.6c-2.4,0-5.3,1.1-7.2,2.7
		C817.4,330.3,819.6,336.4,820.4,341.2z M793.8,371.8c-15.4-3.8-23.3-15.8-34-26.5c-0.6,4-1.7,7-1.3,9.9
		c1.4,11.3,7.7,19.9,16.3,26.9c1.6,1.3,5.4,2.2,6.7,1.2C785.7,380.1,789.4,376,793.8,371.8z M672.4,334.2
		c7.2,0.2,11.2-3.3,11.5-10.1c0.4-9.3-5.9-17-14.2-17.4c-5.6-0.3-10.1,5.3-10.5,13C659,327.3,665,333.9,672.4,334.2z M190.7,413.5
		c0.3,3.4-0.4,7.3,1,10.1c4.9,9.5,12.2,17.3,21.4,22.9c1.7,1,5.2,1.4,6.3,0.3c1.3-1.1,1.7-4.6,1-6.4c-2.9-7.4-6.4-14.5-9.7-21.7
		c-0.2-0.5-1-0.7-1.4-1.1C203.7,422.1,194.4,419.4,190.7,413.5z M605.2,323.3c0.2-7.5-4.9-12.9-12.3-13.2
		c-5.9-0.2-12.6,6.8-12.8,13.4c-0.3,7.7,3.9,12.5,11.2,12.9C598.6,336.7,605,330.7,605.2,323.3z M477,309.4
		c-0.7,4.7,1.5,8.2,5.5,10.5c4.4,2.5,7.9,0.1,11-2.9c2-2,4.2-3.8,5.8-6.1c2.8-3.9,4.2-8.8,1.3-12.5c-1.9-2.5-6.6-4.2-9.8-3.9
		C484,295.3,476.2,300.1,477,309.4z M336.4,362.4c5.9-0.3,11.4-3.4,15.3-9c2.9-4.2,2.6-8.7-0.4-10.7c-7.5-5-19.4-4.9-24.4,5.2
		C322.6,356.4,325.8,362.2,336.4,362.4z M577.1,329.8c-1.9,6.2-2.8,12.2-0.5,18.3c3.9,10.2,13.2,12.8,21,5.9
		c5.9-5.3,7.6-12.5,8.6-20.4C590.5,343.8,585.6,341,577.1,329.8z M831.6,441.4c7.8,0.4,20.7-7.9,22.8-14.3c1.2-3.5,0-6.5-3.6-7.6
		c-10.3-3.1-24.8,5.9-27.3,13.5c-1.1,3.5-0.1,5.9,3.2,7.2C828.6,440.9,830.6,441.2,831.6,441.4z M495.9,346.2
		c0,5.6,2.4,9.4,6.5,10.6c6.8,1.9,16-3.3,17.8-10.1c1.6-6.1-3.8-15.3-9.1-15.5C504.2,330.9,495.9,339,495.9,346.2z M339.1,403.9
		c6.2,0,14.6-7.5,14.8-13.4c0.2-4.3-6.3-10.2-11.2-10.3c-8.9,0-15.6,6.3-15.6,14.8C327.2,400.9,331.1,403.8,339.1,403.9z M188,408.9
		c-6-2.2-9.7-6.3-10.4-13c-0.1-1.3-1.7-3.5-2.7-3.5c-3.2-0.2-7.2-0.6-9.3,1.1c-1.6,1.2-1.9,6.3-0.7,8.4c4.6,7.6,10.1,14.7,15.4,21.8
		c0.8,1.1,2.4,1.8,3.8,2.3c2.8,0.9,4.3,0.3,4-3.3C187.6,418.3,188,413.8,188,408.9z M405,329.3c-0.3,6.5,5.8,12.2,13.3,12.4
		c4.6,0.1,11-7.1,11.3-12.9c0.3-5.4-6.6-11.2-13.9-11.6C410.8,316.9,405.3,323.2,405,329.3z M266.3,415.4c-3.6,2.3-6.5,5.2-10,6.1
		c-3.4,0.9-7.3-0.1-11.6-0.3c3.3,9.6,7.9,18.5,15.4,25.5c2.5,2.4,4.5,0.1,5.2-2.2C268.6,434.9,268.6,425.1,266.3,415.4z M239.7,374
		c-0.1-7-5.2-10.6-11.6-8c-2.4,1-4.9,2.2-7,3.7c-4.1,2.9-4.7,7.7-2,13c2.2,4.4,6.1,6.5,10,5.4C235,386.5,239.8,380.1,239.7,374z
		 M728.4,344.7c-4,2.9-5.5,9.3-3.5,14.7c2,5.4,8.3,9.1,14.3,8.6c6.6-0.6,12.6-6,13.7-12.3C742.7,356.6,734.6,352.7,728.4,344.7z
		 M521.6,352.9c-7.2,6.7-15,9.9-25,5.5c1.8,6,3.6,11.9,6.6,17.1c2.7,4.6,9.8,4.3,12.5-0.6C519.4,368.3,523,361.5,521.6,352.9z
		 M687.7,326.4c-5.4,11.8-2.9,17.7,9.4,20.2c5.9,1.2,12.2,1.3,18.3,0.9c6.2-0.4,8.8-3.3,9.1-8.4
		C709.1,344.5,697.9,337.6,687.7,326.4z M882.7,462.5c-2-5.3-3.7-9.9-5.4-14.2c-7.5,3.6-14.7,7-22.1,10.5c2.6,4.9,4.8,9.2,7.1,13.8
		C869.4,469.1,875.9,465.9,882.7,462.5z M265.3,403.2c0.6-5.8-4.3-4.9-8.9-5.5c-4.6-0.6-7.5,1.1-9.5,4.5c-2.4,4-4.4,8.7-1.2,13
		c1.3,1.8,4.2,3.4,6.5,3.6C259.3,419.4,265.4,412.4,265.3,403.2z M432.3,359.1c-7.3,0-12.3,4.7-12.2,11.6c0,4.9,5.7,10,11.1,10.1
		c5,0.1,9.6-6,9.7-12.6C440.9,363.5,436.8,359.1,432.3,359.1z M419.6,378.9c-0.2,6.7-0.1,12.6,4.4,17.4c6.4,6.8,14.2,5.4,16.8-3.4
		c1.5-5.2,1.8-10.7,2.6-16.1C437.1,384.2,432.9,387.8,419.6,378.9z M508.3,328.4c-2.1-5.5-4.1-10.5-6-15.6
		c-5.9,5.2-10.4,13.5-21.2,10.4c4,7.3,7.7,13.9,11.5,20.8C494.6,335.2,500.9,331.3,508.3,328.4z M678.3,336.7
		c-11.5,2.6-18-2.2-22.1-12.8c-2.4,7-8.4,12.3-4.7,18.2c2.2,3.5,8.3,6.1,12.7,6.1C670.2,348.2,674.9,343.9,678.3,336.7z M876,504.4
		c3.5-1.4,6.4-2.5,9.3-3.7c3.5-1.4,7.1-2.7,10.4-4.5c1-0.5,1.9-2.8,1.6-3.9c-0.7-2.6-2.2-5.1-3.4-7.6c-8,2.6-15.8,5.1-24.1,7.8
		C872.1,496.8,874,500.6,876,504.4z M355.2,397.3c-7,7.5-14.5,12.9-24.8,8.1c-1.4,4.3-0.2,7.9,3.4,10.8c3.9,3.2,11,4.1,15,1.8
		C353.8,415,356.8,405.9,355.2,397.3z M173.3,421.2c-0.8-1.5-1.5-3.1-2.4-4.6c-3.3-5.9-6.6-11.8-10-17.5c-0.7-1.1-2.4-2.7-3.2-2.4
		c-1.7,0.5-3.8,1.7-4.6,3.2c-0.8,1.5-1.1,4.2-0.3,5.6c3.8,6.5,7.9,12.9,12.3,19c1,1.4,3.9,2.4,5.5,2.1
		C171.7,426.3,172.3,423.4,173.3,421.2z M357.1,347.7c7.4-3.4,14.4-7.8,22.1-9.7c7.7-1.9,16-1.1,23.6-1.5c-0.4-4-0.9-7.7-1.3-11.7
		c-1.5,0.5-3.2,1-4.9,1.6c-11.4,4.6-22.7,9.4-34.2,13.6C358,341.7,355.3,343.5,357.1,347.7z M903.6,580.9c5.9-9.4,7.2-19.6,5.9-30.5
		c-4.7,0.6-9,1.1-13.9,1.7C898.4,562.2,901,571.6,903.6,580.9z M868.1,449c-6.4-4.2-6.3-10.4-6-17.7c-6,4.7-11,8.6-16,12.6
		c2.9,4.6,5.4,8.6,8,12.6C858.7,454,863.1,451.7,868.1,449z M652.9,283.7c0.9,4.7,1.9,8.2,2.3,11.7c0.5,4.8,3.1,6.1,7.5,5.7
		c7.2-0.7,12.7-8,13.3-18.7C669,289.6,661.4,287.9,652.9,283.7z M740.3,301.7c-0.1,2.5-0.1,4.3-0.4,6.1c-0.5,3.8-0.4,7.7,3.5,9.5
		c4.3,1.9,8.8,0.9,11.8-2.7c3.7-4.5,6.6-9.6,9.9-14.4c-0.3-0.4-0.7-0.9-1-1.3C757.2,307.4,749.1,305.1,740.3,301.7z M820,400.7
		c-7.4,6-5.6,12.3,0,18.4c5,5.5,9.2,5,16.4-1.5C831,412.1,825.6,406.5,820,400.7z M897.4,471.1c-1.2-6.5-6.8-9.8-12-6.9
		c-5.4,3-5.9,15.5-0.5,18.6c1.4,0.8,4.9,0.5,5.7-0.6C893.4,478.9,895.3,474.9,897.4,471.1z M877.7,468.3c-4.4,2.1-9.2,4.3-14.2,6.7
		c2,5.1,4,10,6,15c4.3-1.6,8.4-3.2,11.8-4.4C880,479.6,878.9,474.1,877.7,468.3z M581.2,312c4.3-2,8.4-3.9,12.4-5.8
		c-1.7-4.9-3.6-10.5-5.1-15.1c-4.6,2.5-9.8,5.3-14.7,8C576.1,303.1,578.7,307.7,581.2,312z M895.1,548.5c4-0.4,7.9-0.8,12.8-1.3
		c-7.4-5.8-4.3-11.6-1.6-18.1c-4.8,0.8-8.9,1.5-13.1,2.1c-3.4,0.5-4.2,2.1-2.9,5.1C891.8,540.1,893.3,544,895.1,548.5z M147.5,401.5
		c-6.4,1.2-8.4,4.3-5.4,10.8c2.6,5.7,5.3,11.7,12.8,12.4c1.1,0.1,2.6-0.4,3.4-1.1c0.4-0.4,0-2.1-0.5-3
		C154.5,414.4,151.1,408.2,147.5,401.5z M196,396.6c0.1-5.6-2.3-8.5-7.3-8.6c-4.8-0.2-7.5,2.4-7.7,7.1c-0.2,5,3.6,10.3,7.4,10.4
		C192.2,405.6,195.9,401.3,196,396.6z M883.8,520.1c1.8,3.8,3.2,7,4.5,9.8c6.2-1.6,11.9-3,18.1-4.5c-1.1-3.7-2.1-6.9-3-10.2
		C896.7,516.8,890.7,518.3,883.8,520.1z M864.4,436.3c0.2,0.1,0.4,0.2,0.6,0.3c0.1,1.2-0.3,2.6,0.2,3.4c1.8,2.4,3.9,4.5,5.9,6.7
		c1.6-1.8,3.7-3.4,4.6-5.5c1.2-2.7,2-5.7,1.9-8.6c-0.1-2-1.6-5-3.2-5.6c-1.7-0.7-5.1,0.1-6.5,1.5
		C866.2,430.5,865.5,433.7,864.4,436.3z M348.6,361.1c-5.8,3.8-11.6,5.7-18.1,3.5c-0.4-0.1-2.2,1.9-2,2.7c1.4,5.9,9.9,10.5,15.8,8.4
		c1.4-0.5,3-2.3,3.3-3.7C348.3,368.6,348.3,365.1,348.6,361.1z M131.4,445.2c5.2-5.3,11.9-12.1,18.5-18.8c0.4,0.4,0.8,0.9,1.3,1.3
		c-2.6-2.2-5.2-4.3-8.2-6.8C138.7,429.9,134.6,438.6,131.4,445.2z M894.1,514.2c-0.6-4.2-1.2-8.4-1.9-13.1
		c-4.6,1.8-9.2,3.6-13.8,5.4C882.8,518.9,880.9,517.9,894.1,514.2z M321.6,351.5c-7.6,1.7-14.9,3.4-22.2,4.9c-3,0.7-4.6,2.2-3.7,6.4
		c8.7-5.4,17.9-4,27.3-2.4C322.5,357.2,322.1,354.5,321.6,351.5z M208,410.8c0.2-5.7-1-7.5-4.3-7.7c-4.4-0.3-8.3,3.2-8.5,7.9
		c-0.2,4.9,3.6,5.4,7.1,5.8C207.3,417.3,207.6,413.5,208,410.8z M895.4,503.9c-0.3,6.6,2.3,9.7,5.7,8.4c3.9-1.5,6.8-9.1,5-12.8
		c-2-4.1-5.4-4.5-8.1-0.8C896.6,500.5,895.9,502.9,895.4,503.9z M431.6,355.2c-1.5-4.6-3-9.3-4.5-13.8c-2.6,1.4-5.2,3-7.4,4.2
		c0.4,4.7,0.8,9.5,1.1,13.8C424.6,357.9,428.2,356.5,431.6,355.2z M905.9,538.5c0.1,3.3,1.4,5.6,5,5.4c4.7-0.2,4.6-4.2,4.8-7.3
		c0.3-3.1-0.5-6.1-4.5-6.4C908.5,529.9,905.9,534,905.9,538.5z M868.8,423.9c-1.7-3.1-3-5.6-4.3-8.1c-2.8,1.1-5.2,2.1-6.5,2.5
		c-0.3,4.9-0.5,9.1-0.8,13.5C860.9,429.4,864.6,426.8,868.8,423.9z M808.8,366.4c2.2,0.5,4.4,1,6.6,1.5c2.7-4.8,5.3-9.6,8-14.5
		c-1.6-1.2-3.2-2.3-4.5-3.3C815.5,355.6,812.3,360.7,808.8,366.4z M425.8,222.7c-4.8,0.3-8.3,1.2-8.4,5.3c0,1,3.2,3,5,3.2
		c3.3,0.4,6.5-1.1,6.3-5.1C428.7,224.7,426.4,223.4,425.8,222.7z M676.4,295.1c-2.3,2.9-4.2,5.3-6.5,8.1c2.3,0.5,4.3,1,6.5,1.5
		C676.4,301.3,676.4,298.4,676.4,295.1z"/>
	<path class="st0" d="M407,459.9c0.4,1.4,0.9,3.1,1.3,4.9c5.5,24.1,19,42.8,38.9,57.1c10.3,7.4,22.5,10.6,34.3,14.4
		c20.4,6.4,40.8,4,61.2,0.3c13.4-2.4,26.7-5.7,40-8.2c1.8-0.3,4.7,0.5,5.9,1.9c21.3,24.4,46.1,44.6,73.1,62.2
		c19.2,12.5,38.3,25.3,58.4,36.3c19.8,10.9,40.8,19.4,63.2,23.7c11.6,2.2,22.9,5.7,34.5,7.9c8.6,1.6,17.7,1.1,26,3.3
		c4.2,1.1,8,5.7,10.8,9.6c13.1,18.5,19.9,39.4,21.4,61.9c0.7,10.6,1.4,21.3,0.7,31.9c-0.5,8-2.8,16-5.4,23.6c-3.1,9-10.6,15-18.2,20
		c-12,7.9-24.3,15.9-37.4,21.8c-12.7,5.8-26.5,9.6-40,13.2c-14.6,3.9-29.5,6.7-44.3,9.5c-5.6,1.1-11.5,1.3-17.3,1.2
		c-23-0.4-45.9-0.6-68.8-1.8c-9.5-0.5-19-3-28.5-4.9c-19.2-3.8-38.6-6.9-57.5-12.1c-19.7-5.4-38.7-13-58.1-19.5
		c-7.6-2.5-15.4-4.2-22.9-7c-6.7-2.4-13.1-5.7-19.6-8.7c-13.6-6.1-27.3-12.1-40.8-18.5c-21-10-41.4-20.9-60.9-33.9
		c-23.2-15.5-43.6-34.1-64.4-52.5c-9-7.9-18.7-15-27.9-22.6c-11.8-9.8-20.8-22-28.5-35c-11.1-18.7-22.7-37.2-32.4-56.7
		c-9.6-19.3-17.6-39.5-25.3-59.6c-6.7-17.5-6-35.9-3.5-54.2c0.6-4.5,3.6-6.3,7.6-7.3c11.8-3.1,22.5,0.6,33.4,4.6
		c23,8.4,46.3,14.9,71.2,16c16.2,0.7,32.3,0.4,48.2-1.7c11.1-1.4,22.1-4.5,32.9-7.7C381.3,469.4,393.9,464.5,407,459.9z"/>
	<path class="st0" d="M160.7,424.8c8.8,7.3,11.6,7,14.8-1.2c1.1,0.8,2,1.7,3,2.3c2,1.1,4.5,3.4,6.1,3c6.8-1.9,8.5,3.6,11.9,6.9
		c4.6,4.5,9.3,9,14.3,13.1c3.1,2.5,7.7,3.9,10.5,0.9c2.1-2.2,2.7-6.6,2.4-10c-0.3-3.6-2.2-7.2-3.7-11.4c8.3,2.8,16,4.3,22.7-2.2
		c4,6.4,7.4,12.8,11.8,18.5c2.1,2.7,6.3,6,8.9,5.5c4.6-0.9,6.5-5.9,6.7-10.6c0.3-7.3,0.1-14.6,0.5-22.3
		c6.5,11.9,17.4,15.8,29.5,15.1c12.4-0.7,20.4-9.5,27.1-19.9c4.6,7.2,10.5,12.1,19.1,9.7c10.9-3.1,12.2-12.8,13.4-22.8
		c11.7,12.3,24.4,17.1,40.3,7c0.6,5.9,1.1,11.4,1.8,16.9c1.2,8.7,2.4,17.4,3.8,26.1c0.7,4.1,0.6,7.3-4.3,8.9c-6.1,2-11.9,5.1-18,7.2
		c-24.6,8.8-50,14.1-76.1,14.5c-12.8,0.2-25.6-0.9-38.3-2.6c-21.5-2.8-41.6-10.8-62-17.8c-13.8-4.7-27.3-2.9-39.1,7.6
		c-15,13.4-20.7,31.4-24.9,49.9c-6.4,27.9-3.4,55.8,2.9,83.2c7.1,30.4,17.5,59.8,37.1,84.8c12.5,15.9,26.2,30.8,42.7,43
		c7.1,5.3,12.4,12.9,18.3,19.7c11.7,13.5,26.6,23.1,40.7,33.7c17.8,13.4,36.1,26.2,53.9,39.6c15.6,11.8,32.6,21.2,50.2,29.5
		c22.5,10.6,44.8,21.9,67.9,31.3c19.1,7.9,38,16.5,58.6,20.7c20.3,4.1,40.2,10.5,60.2,16c22.2,6.1,45,6.6,67.8,6.8
		c9.5,0.1,18.9,0.4,28.4,0c10.9-0.5,21.8-1.9,32.8-2.8c1.2-0.1,2.3-0.4,3.5-0.3c11.7,0.6,22.7-1.8,33.7-5.8
		c11.1-4,22.8-6.1,33.7-10.5c9.9-4,18.7-10.9,28.6-15c12.8-5.3,22.9-14,33.4-22.4c14.1-11.4,24-25.7,30-42.7
		c4.4-12.4,8.3-24.9,12.5-37.3c0.4-1.1,0.7-2.3,0.6-3.4c-0.7-20.9-0.2-42-2.5-62.8c-2.4-21.6-10.7-41.5-25.6-58
		c-0.4-0.5-0.7-1.1-1.6-2.6c7.8-1.3,15-2.8,22.3-3.5c1.9-0.2,4.4,1.8,6,3.4c3.3,3.3,6.7,6.7,9,10.7c4.6,8.1,9.3,16.2,12.4,24.9
		c11.5,32,15.2,65,11,98.8c-1.2,10.1-1.7,20.3-3.5,30.2c-2.5,13.7-10.1,24.9-18.8,35.7c-12.7,16-27.2,30-45,39.7
		c-15.5,8.5-32.1,15.2-48.4,22.5c-17.8,8-35.9,14.9-55.3,18.1c-25.3,4.1-50.5,5.6-75.9,0.8c-31.8-6-63.9-10.9-95.6-17.5
		c-20.6-4.3-40.9-10.6-61.2-16.2c-13.1-3.6-26.2-7.3-39.2-11.5c-11.7-3.8-22.9-9.5-34.8-12.1c-17.1-3.8-32.1-11.8-47.1-19.8
		c-18.6-10-37.2-20-55-31.3c-23.9-15.1-47.1-31.2-70.4-47.2c-6-4.1-10.8-9.8-16.5-14.5c-6.6-5.3-13.8-9.9-20.2-15.5
		c-14.3-12.4-29.4-24.2-42.2-38.1c-20.5-22.2-36.7-47.7-48.3-75.8c-9.5-23.2-18.9-46.5-27.1-70.1c-8.9-25.6-7.1-51.4,1.1-77
		c2.7-8.4,5.5-16.7,8-25.1c2-6.9,6.4-11.8,11.6-16.4c4.4-4,8.5-8.4,12.9-12.4C147.3,436.5,154.1,430.6,160.7,424.8z"/>
	<path class="st0" d="M888.5,625.7c-6.8-11.7-13.3-22.4-19.5-33.3c-5.9-10.5-13.3-19.8-22.3-27.8c-9.9-8.9-19.2-18.4-29.3-27
		c-15.2-13.1-30.2-26.9-48.9-34.9c-20.4-8.8-41.2-17.1-62.5-23.3c-12.9-3.8-27-3.1-40.5-4.6c-28.6-3-56.8,2-85.1,4.4
		c-10.2,0.9-20.3,3.3-30.5,4.3c-20.1,2.1-40.3,4.5-60.6,1.4c-9.1-1.4-18.5-2.3-27.3-4.9c-25.1-7.4-39.8-26.4-49.5-49.2
		c-3.7-8.7-4.9-19.2-4.6-28.8c0.2-7,4.8-13.8,8.5-20.2c0.8,3.6,0.8,7.7,2.6,10.8c2.1,3.7,5,7.7,8.6,9.6c3.4,1.8,5.1,3.9,6.9,6.9
		c3.3,5.5,6.5,11.3,10.8,16c7.3,8,16.5,11.4,27.7,10.2c19.6-2,37.8-8.6,56.1-15.3c10.9-4,22.2-6.7,33.4-10
		c12.2-3.7,24.4-7.9,36.7-10.9c10.1-2.5,20.4-4.1,30.7-5.3c16-1.9,32.1-3.8,48.1-4.3c20-0.6,39.2,4.3,57.6,12.3
		c9.3,4,18.8,7.5,28.3,11c14.3,5.4,26.1,14.3,36.3,25.5c8.9,9.8,17.9,19.7,26.3,29.9c14.7,17.8,28.1,36.5,38.8,57.2
		c8.2,15.9,17.3,31.4,26,47c3,5.4,6,10.7,8.8,16.1c0.6,1.1,0.3,2.9-0.2,4.2C896.2,603.6,892.4,614.3,888.5,625.7z"/>
	<path class="st0" d="M758.8,853.1c-0.4,5.8-0.7,10.9-1.2,16c-1.2,11.6-2.5,23.1-3.7,34.7c-0.4,3.6-1.2,5.9-5.5,6.9
		c-8.9,1.9-17.5,5.3-26.4,7c-7.8,1.5-15.9,1.1-23.8,2.1c-29.5,3.8-59.2,3.2-88.7,0.7c-18.1-1.6-36-6.1-53.7-10.4
		c-22.2-5.5-44.8-10.5-66.1-18.6c-34.3-13-68.5-26.6-100.6-44.5c-12.8-7.1-25.7-13.9-38.4-21.2c-5.3-3.1-10.9-6.4-14.7-11
		c-2.5-3-2.4-8.4-2.9-12.9c-0.3-2.6,0.7-5.2,1-7.9c1.9-14.5,3.9-29,5.8-43.5c0.3-1.9,0.7-3.8,1.1-6.3c11.2,7.2,21.5,14.8,32.7,20.9
		c17.3,9.5,35.1,18.2,52.9,26.8c15.4,7.5,31,14.6,46.6,21.4c6.5,2.8,13.5,4.4,20.3,6.6c19.2,6.4,38.4,13.1,57.7,19.2
		c10.1,3.2,20.5,5.6,30.9,7.8c13.5,2.9,26.9,5.9,40.6,7.9c14.9,2.1,30,3.6,45,4.5c14.9,0.9,29.9,0.1,44.9,0.9
		c13.8,0.8,26.7-2.8,39.8-5.8C754.4,854,756.3,853.6,758.8,853.1z"/>
	<path class="st0" d="M273.7,381.3c-2.4,5-4.5,9.6-6.8,14.4c-3.3-0.1-4.3-1.9-4.1-5.4c0.2-3.2,0.2-6.9-1.2-9.7
		c-3.7-8-7.8-9.2-16.6-6.4c-2.9-4.1-5.5-8.1-8.5-11.7c-1-1.2-3.3-1.6-5-1.7c-4.5-0.2-14.4,6.5-15.9,10.7c-2.3,6.2-0.9,11.8,3.6,16.6
		c0.4,0.5,0.9,0.9,1.3,1.4c-7.2,3.6-11,14.5-22,8.8c0.3-4.7,0.8-10.9-6.3-13.4c-5.8-2-10.4,0.2-13.8,5.2c-6.9-2.1-13.5-3.4-18.2,4.4
		c-0.4-0.5-0.9-1-1.3-1.6c2.1-2.8,3.8-6.1,6.3-8.4c8.5-7.7,17-15.4,26.1-22.3c10.6-8,21.4-15.9,32.9-22.4
		c16.3-9.3,33.2-17.5,50-25.7c20.6-10,41.1-20.3,62.2-29.2c30.1-12.8,60.8-24.3,91.2-36.6c12.2-4.9,23.9-10.9,36.1-15.7
		c25.8-10.2,51.5-20.5,77.6-29.6c22.6-7.9,46-12.3,70.1-7.7c13.1,2.5,25.6,6.9,32.3,19.3c2.9,5.4,3.3,12.4,3.9,18.7
		c0.7,8.3,0.3,16.6,0.4,25c0,0.8-0.1,1.7-0.3,2.5c-1,4-2.1,8.1-3.1,11.9c-11.6-6.5-16-6.6-33.2-4.8c-4.7-13.8-17-13.9-28.6-14.7
		c-19.8-1.5-38.4,4-56.1,11.8c-18.4,8.1-36,17.9-54.1,26.7c-16.1,7.9-32.3,15.6-48.6,23.1c-1.9,0.9-4.5,0.2-6.7,0.5
		c-2.7,0.3-5.9,0-8,1.3c-16.5,10.3-35.5,14.7-52.9,23c-1.1,0.5-3,0.3-4.1-0.3c-12.1-5.7-21.8-2.2-27.6,5.6
		c-2.4,3.3-8.3,4.2-12.7,5.9c-2.3,0.9-5,0.6-7.3,1.4c-5.2,1.8-9.2,2.5-13.4-3.3c-4.4-6.1-18.6-4.1-25.4,2.4c-2.1,2-3.8,4.6-5.5,7.1
		C253.6,368.7,259.8,382.3,273.7,381.3z"/>
	<path class="st0" d="M912,823.5c0.8-9.7,1.2-19.5,2.5-29.2c2-15.1,2.2-30.2,0.3-45.3c-2.1-17-4.9-33.8-10.4-50.1
		c-5.4-16-13.8-29.9-25.7-41.5c-3.5-3.4-8.6-6.1-13.4-7.2c-18.7-4.1-36.9-9.7-54.5-17.3c-9.1-4-18.1-8.3-27.2-12.4
		c-4.1-1.8-8.4-3.3-12.5-5c-30.5-13-59.1-29.3-84.5-50.5c-23.1-19.4-44.7-40.7-67-61.1c-6.4-5.8-12.8-11.7-19.2-17.4
		c-1.4-1.3-3.2-2.3-4.8-3.4c0.4-0.8,0.8-1.5,1.1-2.3c6.7,0.7,13.3,1,19.9,2c22,3.2,42.9,10.5,63.7,17.8c18.5,6.5,37.4,12.2,55,20.5
		c25.8,12.2,52.1,24.1,74.3,42.5c14.2,11.8,27.4,24.7,40.3,37.9c11.3,11.5,24,20.8,38.4,29.8c7.9-20.4,15.5-40.2,23.6-61
		c1.2,2.3,2,3.6,2.7,5c5.7,12.2,11.8,24.2,17.1,36.5c11.6,26.8,22.5,54,21.5,83.8c-0.8,24.9-5,49.3-14.4,72.6
		C931.5,787.2,924,806.3,912,823.5z"/>
	<path class="st0" d="M435.6,404c10.3-5.7,9.7-15.8,10.7-25.9c8.3,7.5,17.4,11.2,28.7,9c12.3-2.4,16-12.1,20.2-22.9
		c1.2,3.3,2,5.9,3,8.4c2.2,5.3,5.5,9,11.9,8.7c5-0.2,8.9-3.2,10.9-9.5c2.1-6.4,3.7-12.9,5.4-19c15.7,8.4,31.7,6.6,47.2-3.3
		c12.9,17.4,24.9,15.1,34.8-6.8c13.4,9.8,26.2,7.7,38.8-2.1c3.9,7.4,10,11.6,18.1,10.7c7.9-0.8,12.7-6.5,16.4-13.2
		c6.2,14.1,25.8,14.5,40.1,11.3c-1.1,9.5,0.8,17.6,11,20.6c10.9,3.2,18-2.5,23.4-11.4c6.1,16.3,11.1,22.9,21.6,28.9
		c-5.7,7.5-8.9,15.6-3.1,24.9c-13.5-5.2-26.5-9.9-39.3-15.2c-19.5-8-39.6-13.1-60.6-11.7c-23,1.5-46,4.2-68.8,7.3
		c-8.9,1.2-17.5,4.9-26.3,7.5c-15.1,4.5-30.3,8.9-45.3,13.6c-13.1,4.2-26,9.2-39.2,13c-8.3,2.4-16.9,4.1-25.5,4.5
		c-5.3,0.2-11.4-1.6-15.9-4.4C445.3,421.8,438.8,414.4,435.6,404z"/>
	<path class="st0" d="M171.8,469.2c-0.4,6-0.7,11.9-1.1,17.9c-1,17.1,2.1,33.3,9.2,49c7.4,16.4,13.6,33.3,21.1,49.6
		c9.3,20.1,21.2,38.7,33.3,57.3c7.9,12.2,16,24,27,33.7c1.1,0.9,1.3,3.7,0.8,5.3c-4.3,15.2-8.9,30.3-13.4,45.4
		c-1.4,4.7-3.1,9.4-4.9,14.9c-2.7-3.1-4.7-5.9-7.2-8.2c-5.6-5.2-11.3-10.4-17.1-15.3c-15.3-13-29.3-27.5-39.9-44.3
		c-8.7-13.8-14.5-29.4-21.1-44.5c-9.1-20.5-12.6-42.3-14.6-64.4c-2.7-29.2,0.5-57.6,15.6-83.5c2.9-5,7.4-9.1,11.2-13.7
		C170.9,468.7,171.4,469,171.8,469.2z"/>
	<path class="st0" d="M865.4,655.9c-11.4,1.1-22,5.4-34.1,3.6c-23.8-3.5-47-9-69.7-16.4c-14.8-4.8-29.5-10.8-42.8-18.7
		c-25.9-15.5-50.9-32.6-76.1-49.3c-19.1-12.7-35-29-50.6-45.6c-1.8-1.9-3.9-4.8-3.7-7.1c1-12.7,2.6-25.3,4.2-39.1
		c4,3.6,7.3,6.3,10.3,9.2c14.6,13.9,28.8,28.1,43.7,41.7c19.9,18.1,39.2,37,62.3,51.2c22.3,13.7,44.4,28,69.7,36.3
		c6,2,11.5,5.2,17.3,7.6c13,5.5,25.9,11.2,39.1,16.2c7.1,2.7,14.8,3.9,22.1,5.8c3,0.8,5.8,1.8,8.8,2.7
		C865.6,654.6,865.5,655.2,865.4,655.9z"/>
	<path class="st0" d="M404.2,403.8c0.7,5.7,1.2,11.5,2,17.2c1.7,11.8,7.4,22.1,14.3,31.4c7.4,10,15.2,19.6,26.9,25.3
		c14.1,6.9,28.9,10.1,44.5,11.4c21,1.8,41.8,0.1,62.6-2.6c11.5-1.5,23-2.8,35.1-4.3c-1.6,13.3-3,26.2-4.8,39.2
		c-0.2,1.3-2.1,3-3.5,3.4c-20.8,5.3-41.6,9.6-63.2,11.4c-22.5,1.9-42.7-4.1-62.6-13.3c-16.9-7.8-26.8-22.2-36.3-37.3
		c-6.4-10.2-8.6-21.5-10.3-33c-2.1-14.8-3.9-29.6-5.8-44.4c-0.2-1.5,0-3,0-4.5C403.6,403.8,403.9,403.8,404.2,403.8z"/>
	<path class="st0" d="M238,311c-7.2,5-14.6,9.7-21.7,15c-15.4,11.3-31.5,21.9-41.8,38.7c-1.7,2.8-2.8,6-4.3,8.9
		c-1.3,2.5-2.9,4.8-4.3,7.1c-0.6-0.4-1.1-0.7-1.7-1.1c7.2-12.8,13.9-26,21.9-38.3c9.2-14.2,19.1-28,29.7-41.3
		c21.3-26.9,46.1-50.2,75-68.9c15.3-9.9,32.6-15.7,49.5-22.1c18.7-7.1,37.8-5.5,56.7-3.2c14.4,1.8,28.5,6.1,42.8,9.4
		c11.9,2.8,23.9,5.6,35.5,8.4c-14.3,2.2-29.1,4.5-44.3,6.9c1.1-3.9,2.5-8.1-2.1-10.5c-3.3-1.8-10.2,0.5-12.8,3.6
		c-2.3,2.8-2.1,5.5,0.8,9.8c-5.1,1.4-10.2,2.7-15.2,4.1c-16.1,4.6-32.3,9.1-48.4,13.7c-2.1,0.6-4.2,1.1-6.3,1.7
		c4-3.4,8.4-6.4,12-10.2c3.3-3.5,3.5-11.2,0.5-13.2c-4.7-3.2-9.7-5.8-15.8-4.1c-10.2,2.8-16,11.1-15.6,22.5
		c-3.8-8.9-9.7-11.9-20-10.2c-9.2,1.5-15.6,8-16.2,17c-0.4,5.5-0.9,11.2,4.7,14.8c5.9,3.7,11.9,3.6,18,0.4
		c26.2-13.5,54.3-21.4,82.8-28.1c19.7-4.7,39.7-8.2,59.5-12.3c1.3-0.3,2.6-0.4,4.1,0c-3.3,1.5-6.6,3-10,4.4
		c-3.4,1.4-6.7,2.9-10.2,3.9c-34.6,10.1-69.5,19.4-103.8,30.4c-20.2,6.5-39.7,15.4-59.2,23.8c-13.6,5.8-26.7,12.6-40,19
		c5.7-4.4,7.8-10.1,6.1-17.1c2.7,3.5,5.6,6.2,10.5,4.4c6.7-2.6,10.1-9.7,7.8-16.5c-1.5-4.3-4.4-5.8-8.5-4.4
		c-6.2,2.2-10.7,10-9.7,16.6c-4.1-2.9-8.3-3-12.4,0c-4,3.1-6,9.1-4.3,12.8C229.5,311.8,233.8,311.2,238,311z M282.6,260
		c-8.5-0.2-15.3,5.8-16.4,14.3c-0.7,5.9,2.4,10,8.3,10.7c6.4,0.8,13.3-4.1,16.5-12C293.6,266.9,289.1,260.1,282.6,260z M366.7,231.6
		c0,5.4,3.2,9,7.9,8.8c5-0.2,11.4-6.8,11.5-12c0.1-4.7-3.3-7.5-9-7.5C370.7,221,366.7,225.1,366.7,231.6z M402.7,218.6
		c-5.9-0.1-11.7,4.8-11.7,9.9c0,4.2,3.2,7.2,7.8,7.3c6,0.1,10.5-4.3,10.7-10.7C409.5,220.6,407.6,218.7,402.7,218.6z M225.4,313.5
		c-0.1-4-2.4-6.1-6.1-6.5c-3.6-0.3-8.5,6.4-8.3,10.9c0.2,3.7,2.8,4.6,5.8,4.7C221.5,322.7,225.5,318.4,225.4,313.5z"/>
	<path class="st0" d="M618.1,479.2c19.4-2.1,38.6-0.8,57.9-0.2c26.1,0.8,49.7,9.4,73.3,19.1c13.1,5.4,26,11.2,37.5,19.5
		c11.2,8,21.8,16.9,32,26.2c13.1,11.9,25.8,24.4,38.2,37c3.9,3.9,6.3,9.3,9.3,14.1c4.7,7.6,9.4,15.3,14.1,22.9
		c0.9,1.5,1.6,3.1,2.4,4.7c-0.4,0.4-0.7,0.8-1.1,1.2c-6-4.5-12.5-8.5-18-13.5c-9.8-8.9-19.4-18.2-28.5-27.8
		c-15.3-16.1-32.6-29.4-52-39.8c-18.4-9.9-36.6-20.5-55.9-28.4c-23-9.4-46.9-16.6-70.6-24.2C644,485.8,631.1,482.8,618.1,479.2z"/>
	<path class="st0" d="M280.7,691.9c9.6,8.6,18.5,16.5,27.4,24.4c5.6,4.9,11.5,9.6,17,14.6c1.1,1,2.1,2.9,1.9,4.2
		c-2.5,21.7-5.2,43.4-8,66.3c-8.6-5.9-16-10.9-23.2-16c-9.5-6.7-18.9-13.5-28.2-20.6c-1.5-1.1-2.7-3.8-2.5-5.6c0.9-6,2.7-12,4-18
		c3.1-13.8,6-27.6,9.1-41.4C278.8,697.5,279.7,695.2,280.7,691.9z"/>
	<path class="st0" d="M876.9,788.8c-3.1,9.2-6.1,17.4-8.7,25.7c-4.3,13.5-9.6,26.7-19.2,37.4c-6.8,7.6-14.4,14.6-22.2,21.2
		c-13.2,11.2-29,18-44.5,25c-1.1,0.5-2.4,0.8-4.2,1.4c0.5-5.3,0.7-10.1,1.5-14.8c1.7-11,3.8-21.9,5.4-32.9c0.5-3.6,2.2-4.8,5.5-5.9
		c15.5-5.2,31.5-10.1,44.8-19.8c10.7-7.8,23.5-12.7,31.8-23.6C870.1,798.3,873.1,794.1,876.9,788.8z"/>
	<path class="st0" d="M738.1,305.6c-2.4,7.1-4.1,14.7-7.3,21.4c-6.5,13.3-17.6,12.8-28.4,8c-3.7-1.6-7.2-4.3-10-7.2
		c-2.4-2.6-3.8-6.3-5.5-9.5c-1.8-3.5-3.2-7.2-5.3-10.5c-3.5-5.3-1.8-20.7,2.6-26.1c13-15.8,36.6-12.4,46.2,3.4
		c3.8,6.3,6.5,12.6,6.5,19.9C737.3,305.3,737.7,305.5,738.1,305.6z"/>
	<path class="st0" d="M783.9,418.3c11.2,2.3,18.9-4.9,28-9.1c2.1,6.8,4.9,13.3,11.9,16c0,0.7,0.1,0.9,0,1c-2.9,4.4-6,9-2.1,14.1
		c3.6,4.8,9.4,5.3,14.6,3.7c5.2-1.6,7.4,0.1,9.5,4.5c6.6,14,13.5,27.8,20.2,41.7c6.4,13.3,13.4,26.4,18.7,40.1
		c6.1,15.9,10.6,32.5,15.7,48.7c-0.4,0.2-0.8,0.3-1.1,0.5c-8-14.4-16.3-28.6-24-43.2c-8.6-16.3-17.7-32.2-28.2-47.5
		c-14.4-21.2-32.5-39-49.1-58.2C794,426.2,788.8,422.6,783.9,418.3z"/>
	<path class="st0" d="M652.2,300.9c1.1,19.1-16,32.6-34.5,29c-4.9-1-7.9-3.4-9.1-9c-0.9-4.4-3.6-9.3-7-12
		c-6.5-5.2-9.3-11.4-8.7-19.3c0.7-9.2,7.4-14.4,15-16.8c6.8-2.1,14.5-2.9,21.6-2.1c13.9,1.6,20.7,9.4,22.4,24.3
		C652.1,296.9,652.1,298.9,652.2,300.9z"/>
	<path class="st0" d="M506.4,305.3c-0.2-6.8-3.4-11.5-8.5-13.2c-7.8-2.6-14.8-0.2-20,5.5c-6,6.6-5.6,14.5-1.5,21.4
		c-7.2-1.6-14.9-4.3-22.6-4.6c-8.7-0.3-14.7,6.1-19.5,12.2c-2.4-3.6-4.6-6.9-7.1-10.5c6-2.5,12.5-4.8,18.7-7.9
		c22.3-11.2,44.2-23,66.6-33.8c18.9-9.1,38.6-16.8,59.8-17.8c9.4-0.4,19,1.8,28.3,3.8c2.9,0.6,5.2,4.5,7.7,6.9c-6,4.3-11,8-16,11.6
		c-0.7-7.4-4.5-13.5-12.2-15.2c-8-1.7-15.1,1.7-20.5,7.6c-5.8,6.2-4.2,12.8-0.1,19.1c-7.4-0.6-14.7-1.1-22-1.9
		c-12.5-1.3-22.1,3.1-28.8,13.8C508.2,303.2,507.5,303.9,506.4,305.3z"/>
	<path class="st0" d="M540.2,292.1c8.3-0.7,16.7,1.1,25,5.5c13.2,7,16,21.9,4.8,31.5c-16.4,14-28.1,13.8-48.5,3.4
		c-6.5-3.3-12.8-7.4-14.5-15.4c-0.4-1.8-0.4-4,0.3-5.7c5-13.5,14.2-19.7,28.6-19.5C536.9,291.9,538.1,292,540.2,292.1z"/>
	<path class="st0" d="M394,338.8c5.8,1.6,11.7,2.8,17.3,4.9c4.8,1.9,6.1,5.9,5.3,10.9c-2.2,14.2-10.8,23.3-22.5,30.6
		c-9.4,5.8-19.4,5.5-29.4,4.1c-11-1.6-16.6-11.7-13.1-23.7c3.9-13.8,14.4-21,27.7-24.4c4.6-1.2,9.5-1,14.3-1.5
		C393.7,339.4,393.8,339.1,394,338.8z"/>
	<path class="st0" d="M818,369.7c1.7-3.1,3.3-6.4,5.1-9.5c2.1-3.6,5.1-4.6,9.3-5.3c9-1.5,16.6,0.4,23.5,6.2
		c11.2,9.5,17.8,29.1,13.2,43c-1.5,4.6-4.5,7.9-9.3,9.7c-16.8,6-28.3-1.4-36.3-15c-0.6-1.1-0.6-2.9-0.1-4.1
		C827.1,385.4,825.3,376.4,818,369.7z"/>
	<path class="st0" d="M760.7,332.3c2.2-6.2,4-12.5,6.8-18.5c2.7-5.8,8.9-8.7,14.6-6.1c9.1,4.2,18.4,8.8,26.1,15
		c10,8.1,10.1,25.1,1.8,35.2c-2.2,2.7-4.6,5.3-7.4,7.2c-6.6,4.5-13.3,2.8-19-1.7c-5.6-4.4-10.6-9.5-15.8-14.5
		c-4.6-4.4-6.5-10-5.8-16.4C761.7,332.6,761.2,332.5,760.7,332.3z"/>
	<path class="st0" d="M176.9,369.9c2.6-8.4,8.1-14.7,14.6-19.8c12.2-9.7,25.1-18.6,37.5-28c20.4-15.6,44.3-24,67.4-34.1
		c25.8-11.2,52.3-20.5,79.3-28.2c12.9-3.7,25.9-7.4,38.8-11.1c0.8-0.2,1.6-0.2,2.6,0.5c-22.9,9.3-46.1,18.2-68.8,27.9
		c-21.7,9.3-43.1,19.1-64.4,29.2c-19.7,9.4-39.5,18.6-58.3,29.5c-15.3,8.9-29.3,20.1-43.8,30.4C180,367.2,178.5,368.6,176.9,369.9z"
		/>
	<path class="st0" d="M431,341.8c-0.2-14.7,18.4-28.2,32.5-23.9c14.9,4.5,24.4,19.6,24.5,28.6c0.1,12.2-9.4,21.7-21.5,21
		c-10.9-0.6-20.9-3.2-28.9-11.2C433.3,352.2,430.9,347.7,431,341.8z"/>
	<path class="st0" d="M289.5,414.6c-3.7-0.6-6.9-0.8-9.8-1.7c-8.1-2.6-11.8-9.2-9-17.1c5.9-16.6,16.1-29.3,34.2-32.9
		c5.6-1.1,11.8,0.3,17.7,0.9c1.1,0.1,2.5,1.7,3,2.9c3.2,7,2.8,13.4,0.1,21.2c-4.7,13.7-15.9,18.4-26.6,24.3
		C296.2,413.9,292.5,413.9,289.5,414.6z"/>
	<path class="st0" d="M260,393.2c-15.5,2.2-20.4,8.9-18.6,24.1c0.7,6.2-2.2,10.1-8.5,10.4c-7.5,0.3-14.8-0.3-17.9-9.1
		c-0.9-2.5-3.3-4.6-3.7-7.1c-1.8-10.1,9.1-18.9,16.3-20c6.5-1,10.1-5.3,14.1-10c2.5-3,7.4-6,10.9-5.7c2.7,0.2,5.6,5.4,7.2,8.9
		C260.9,387.1,260,390.4,260,393.2z"/>
	<path class="st0" d="M266.2,681.2c3.1,2.3,6.5,4.4,9.3,7.1c1.1,1.1,1.8,3.6,1.5,5.2c-4.6,21.5-9.5,42.9-14.3,64.3
		c-0.1,0.6-0.5,1.2-1.2,2.6c-5.3-5.1-10.4-9.9-15.2-14.8c-0.5-0.5-0.4-1.9-0.1-2.7C252.8,722.4,259.4,702.1,266.2,681.2z"/>
	<path class="st0" d="M782.8,848.1c-2.2,13.5-4.3,26.5-6.3,39.4c-0.1,0.8-0.3,1.6-0.4,2.5c-1.4,12.5-6.1,17-19.6,18.4
		c1-11.6,2-23.2,3.1-34.7c0.5-5.6,1.3-11.2,1.8-16.9c0.3-3.4,1.9-4.9,5.2-5.4C771.6,850.5,776.6,849.3,782.8,848.1z"/>
	<path class="st0" d="M736.9,287.2c0.1-8.6,6.7-15.1,15.3-15c8.8,0.1,15.6,6,15.6,13.4c0,7-8.9,16.3-15.6,16.3
		C742.2,301.9,736.8,296.7,736.9,287.2z"/>
	<path class="st0" d="M358,392.8c28.1,6.1,44.4-5.4,57.3-22.6c-0.8,9.2-10.4,27.1-17.2,33c-10.9,9.6-24.6,5-31.4-1.1
		C363.5,399.3,360.8,395.9,358,392.8z"/>
	<path class="st0" d="M324,252.1c-0.4,11.2-14,20.2-24.2,15.6c-2.4-1.1-5-4.1-5.4-6.5c-1.1-6.5,0.4-12.6,6-17
		c5.6-4.3,12-5.3,18.3-2.5C322.9,243.4,324.4,247.5,324,252.1z"/>
	<path class="st0" d="M791.7,379.4c0.4,15.4,5.6,21.1,21.5,22.7c-1.2,1.4-1.9,2.8-3,3.4c-5.4,2.9-10.8,5.8-16.5,8.2
		c-5.7,2.4-11.3,1.2-15.5-3.4c-4.2-4.5-4.7-10.1-1.2-15.2c4.1-5.9,8.8-11.3,13.3-16.9C790.8,378.7,791.2,379.1,791.7,379.4z"/>
	<path class="st0" d="M281.2,348.6c4.7-0.3,8.8,1,10.5,5.8c1.7,4.8,0.7,8.9-3.8,12.2c-3.1,2.2-5.6,5.2-8.3,7.9
		c-3.8,3.7-9.8,4.6-13.7,1.9c-4.7-3.2-6.3-8.7-4-13.9C265.9,353,272,348.7,281.2,348.6z"/>
	<path class="st0" d="M664.7,284.3c-9.7-0.3-16.8-7.2-16.5-16.1c0.2-6.2,7.4-11.3,15.4-11.1c8.4,0.2,15.3,6.1,15,12.9
		C678.5,275.4,671.7,285.4,664.7,284.3z"/>
	<path class="st0" d="M572.9,294.6c-7.6-0.2-13.9-6.8-13.7-14.3c0.2-7.1,8.8-14.1,17.4-14.1c5.7,0,12.4,6.7,12.2,12.3
		C588.6,287.2,580.9,294.9,572.9,294.6z"/>
	<path class="st0" d="M656.1,304c2.6,0.2,4.5,0.3,5.5,0.3c-1.8,5.2-3,10.8-5.7,15.6c-5.7,10-9.5,22.4-23,25
		c-5.5,1.1-11.6,0.5-17.1-0.7c-5.7-1.2-6.9-5.2-5.9-14.2c10.2,5.1,20.3,4.3,30-0.7C650,324.1,653.9,314.7,656.1,304z"/>
	<path class="st0" d="M272.3,412.9c21.7,12.1,36.5-1.2,51.7-13.2c3,3.8,2.3,7.5,0.1,11.1c-6.1,10.1-13.6,18.6-26.5,18.2
		C286.6,428.7,276.9,425.2,272.3,412.9z"/>
	<path class="st0" d="M328.5,808.2c-7.4-3.7-7.6-4.1-6.6-11.5c2.5-18.4,4.9-36.8,7.3-55.2c0.2-1.6,0.7-3.2,1-4.9
		c6.5,2,8,4.2,7.2,10.2c-2.3,18-4.6,35.9-7,53.8C330.2,803.2,329.2,805.6,328.5,808.2z"/>
	<path class="st0" d="M795.2,383.2c-0.1-6.4,3.6-12.4,8.2-13.5c5-1.2,12.9,2.4,15.7,7.1c5.4,9.2,2.2,19.4-6.5,20.8
		C804.9,398.9,794,392.6,795.2,383.2z"/>
	<path class="st0" d="M757.9,338.8c-0.1,8.4-3.9,13.3-10.1,13.2c-9.2-0.3-17.1-6.6-16.8-13.6c0.3-7.1,6.7-13.9,12.8-14.1
		C754.1,324,758,330.6,757.9,338.8z"/>
	<path class="st0" d="M573.5,330.7c-0.3,5.1-0.1,8.7-0.9,12c-0.6,2.3-2.2,5-4.1,6.2c-11.1,7-23.2,7.8-35.4,4.1
		c-6.5-2-9.7-7.6-9.6-15.5C541.4,347,558.1,345.6,573.5,330.7z"/>
	<path class="st0" d="M490.4,353.7c3,18.1-5.4,30.1-21.7,30.8c-11.4,0.4-25-7.6-23-17.5c8.4,3.4,17.2,5.6,26,3.7
		C480.7,368.7,487.7,363.4,490.4,353.7z"/>
	<path class="st0" d="M820.4,341.2c-0.7-4.8-2.9-10.9,2.5-15.3c1.9-1.5,4.8-2.7,7.2-2.7c8.2,0,14,6.9,13.7,15.6
		c-0.3,8.3-4.8,13.5-11.8,13C824.2,351.2,818.6,348.3,820.4,341.2z"/>
	<path class="st0" d="M793.8,371.8c-4.4,4.2-8,8.3-12.3,11.4c-1.3,1-5.1,0.1-6.7-1.2c-8.6-6.9-15-15.6-16.3-26.9
		c-0.3-2.9,0.8-5.9,1.3-9.9C770.5,356,778.4,368,793.8,371.8z"/>
	<path class="st0" d="M672.4,334.2c-7.5-0.2-13.5-6.9-13.1-14.5c0.4-7.6,4.9-13.2,10.5-13c8.3,0.4,14.6,8.1,14.2,17.4
		C683.7,330.9,679.7,334.4,672.4,334.2z"/>
	<path class="st0" d="M190.7,413.5c3.7,5.8,13,8.6,18.6,4.2c0.5,0.3,1.2,0.6,1.4,1.1c3.3,7.2,6.8,14.3,9.7,21.7
		c0.7,1.8,0.3,5.2-1,6.4c-1.2,1-4.7,0.7-6.3-0.3c-9.2-5.7-16.4-13.4-21.4-22.9C190.3,420.8,191,416.9,190.7,413.5z"/>
	<path class="st0" d="M605.2,323.3c-0.2,7.4-6.7,13.4-13.9,13c-7.3-0.4-11.5-5.2-11.2-12.9c0.2-6.6,6.9-13.6,12.8-13.4
		C600.4,310.4,605.5,315.9,605.2,323.3z"/>
	<path class="st0" d="M477,309.4c-0.7-9.3,7-14.1,13.9-14.8c3.2-0.3,7.9,1.4,9.8,3.9c2.9,3.7,1.5,8.7-1.3,12.5
		c-1.7,2.2-3.8,4.1-5.8,6.1c-3.1,3.1-6.6,5.5-11,2.9C478.5,317.6,476.3,314,477,309.4z"/>
	<path class="st0" d="M336.4,362.4c-10.6-0.2-13.9-6-9.5-14.6c5.1-10,16.9-10.2,24.4-5.2c3.1,2.1,3.4,6.6,0.4,10.7
		C347.9,358.9,342.3,362,336.4,362.4z"/>
	<path class="st0" d="M577.1,329.8c8.5,11.1,13.4,14,29.2,3.7c-1,7.9-2.7,15.1-8.6,20.4c-7.8,7-17.2,4.3-21-5.9
		C574.3,342.1,575.2,336.1,577.1,329.8z"/>
	<path class="st0" d="M831.6,441.4c-1.1-0.3-3.1-0.5-4.9-1.2c-3.3-1.3-4.4-3.7-3.2-7.2c2.5-7.6,17-16.6,27.3-13.5
		c3.6,1.1,4.8,4.1,3.6,7.6C852.3,433.6,839.4,441.8,831.6,441.4z"/>
	<path class="st0" d="M495.9,346.2c0-7.1,8.3-15.3,15.3-15c5.3,0.2,10.7,9.5,9.1,15.5c-1.8,6.8-11.1,12-17.8,10.1
		C498.3,355.6,495.9,351.7,495.9,346.2z"/>
	<path class="st0" d="M339.1,403.9c-8,0-12-2.9-12-8.8c0-8.5,6.7-14.8,15.6-14.8c4.9,0,11.4,5.9,11.2,10.3
		C353.7,396.4,345.3,403.9,339.1,403.9z"/>
	<path class="st0" d="M188,408.9c0,4.9-0.3,9.3,0.1,13.7c0.3,3.6-1.2,4.2-4,3.3c-1.4-0.4-3-1.2-3.8-2.3
		c-5.3-7.2-10.8-14.2-15.4-21.8c-1.3-2.1-0.9-7.1,0.7-8.4c2.1-1.7,6.1-1.3,9.3-1.1c1,0.1,2.6,2.2,2.7,3.5
		C178.3,402.6,182,406.7,188,408.9z"/>
	<path class="st0" d="M405,329.3c0.3-6.1,5.8-12.4,10.7-12.1c7.3,0.4,14.2,6.2,13.9,11.6c-0.3,5.8-6.6,13-11.3,12.9
		C410.8,341.4,404.7,335.8,405,329.3z"/>
	<path class="st0" d="M266.3,415.4c2.3,9.7,2.3,19.5-0.8,29.2c-0.8,2.3-2.7,4.6-5.2,2.2c-7.5-7.1-12.1-15.9-15.4-25.5
		c4.3,0.2,8.2,1.2,11.6,0.3C259.7,420.6,262.7,417.7,266.3,415.4z"/>
	<path class="st0" d="M239.7,374c0.1,6.1-4.7,12.5-10.6,14.1c-3.9,1.1-7.7-1-10-5.4c-2.7-5.3-2.1-10,2-13c2.1-1.5,4.6-2.7,7-3.7
		C234.5,363.5,239.6,367,239.7,374z"/>
	<path class="st0" d="M728.4,344.7c6.2,8,14.3,11.9,24.5,10.9c-1.1,6.4-7,11.7-13.7,12.3c-6.1,0.6-12.4-3.2-14.3-8.6
		C722.9,354,724.4,347.6,728.4,344.7z"/>
	<path class="st0" d="M521.6,352.9c1.5,8.6-2.1,15.4-5.8,22c-2.7,4.8-9.8,5.2-12.5,0.6c-3-5.2-4.8-11-6.6-17.1
		C506.6,362.8,514.4,359.6,521.6,352.9z"/>
	<path class="st0" d="M687.7,326.4c10.2,11.2,21.4,18.1,36.8,12.8c-0.3,5.1-2.9,8-9.1,8.4c-6.1,0.4-12.3,0.3-18.3-0.9
		C684.7,344.1,682.2,338.2,687.7,326.4z"/>
	<path class="st0" d="M882.7,462.5c-6.8,3.4-13.3,6.6-20.3,10.1c-2.4-4.6-4.6-8.9-7.1-13.8c7.4-3.5,14.6-6.9,22.1-10.5
		C879,452.6,880.7,457.2,882.7,462.5z"/>
	<path class="st0" d="M265.3,403.2c0.1,9.2-6.1,16.3-13.1,15.6c-2.3-0.2-5.2-1.8-6.5-3.6c-3.2-4.4-1.2-9,1.2-13
		c2.1-3.4,4.9-5.2,9.5-4.5C261,398.2,265.9,397.4,265.3,403.2z"/>
	<path class="st0" d="M432.3,359.1c4.5,0,8.7,4.4,8.6,9.1c-0.1,6.6-4.8,12.7-9.7,12.6c-5.4-0.1-11.1-5.2-11.1-10.1
		C420,363.8,425,359.1,432.3,359.1z"/>
	<path class="st0" d="M419.6,378.9c13.3,8.9,17.5,5.3,23.8-2.1c-0.8,5.4-1.1,10.9-2.6,16.1c-2.6,8.8-10.4,10.2-16.8,3.4
		C419.5,391.6,419.4,385.7,419.6,378.9z"/>
	<path class="st0" d="M508.3,328.4c-7.3,2.9-13.7,6.8-15.7,15.6c-3.8-6.9-7.5-13.5-11.5-20.8c10.9,3.1,15.3-5.2,21.2-10.4
		C504.2,317.9,506.1,322.9,508.3,328.4z"/>
	<path class="st0" d="M678.3,336.7c-3.4,7.1-8.1,11.5-14.1,11.5c-4.4,0-10.5-2.7-12.7-6.1c-3.7-5.9,2.3-11.1,4.7-18.2
		C660.3,334.5,666.8,339.3,678.3,336.7z"/>
	<path class="st0" d="M876,504.4c-1.9-3.8-3.9-7.6-6.1-12c8.3-2.7,16-5.2,24.1-7.8c1.2,2.6,2.7,5,3.4,7.6c0.3,1.1-0.6,3.4-1.6,3.9
		c-3.3,1.8-6.9,3.1-10.4,4.5C882.4,501.9,879.5,503,876,504.4z"/>
	<path class="st0" d="M355.2,397.3c1.7,8.7-1.4,17.7-6.4,20.7c-3.9,2.3-11.1,1.5-15-1.8c-3.6-2.9-4.8-6.5-3.4-10.8
		C340.7,410.2,348.2,404.7,355.2,397.3z"/>
	<path class="st0" d="M173.3,421.2c-1,2.2-1.5,5.1-2.7,5.4c-1.7,0.4-4.5-0.7-5.5-2.1c-4.4-6.1-8.5-12.5-12.3-19
		c-0.8-1.4-0.5-4.1,0.3-5.6c0.8-1.5,2.9-2.7,4.6-3.2c0.8-0.2,2.5,1.3,3.2,2.4c3.4,5.8,6.7,11.7,10,17.5
		C171.7,418.1,172.5,419.7,173.3,421.2z"/>
	<path class="st0" d="M357.1,347.7c-1.8-4.2,0.9-6,5.3-7.6c11.5-4.3,22.8-9.1,34.2-13.6c1.6-0.7,3.4-1.1,4.9-1.6
		c0.5,4,0.9,7.7,1.3,11.7c-7.7,0.4-16-0.4-23.6,1.5C371.5,339.9,364.5,344.3,357.1,347.7z"/>
	<path class="st0" d="M903.6,580.9c-2.6-9.4-5.2-18.7-8-28.8c4.9-0.6,9.2-1.1,13.9-1.7C910.8,561.3,909.5,571.5,903.6,580.9z"/>
	<path class="st0" d="M868.1,449c-5,2.7-9.4,5-14.1,7.5c-2.5-4-5.1-8-8-12.6c5.1-4,10.1-7.9,16-12.6
		C861.8,438.5,861.8,444.7,868.1,449z"/>
	<path d="M328.1,248c-0.4-11.4,5.4-19.6,15.6-22.5c6.1-1.7,11.1,0.9,15.8,4.1c3,2,2.8,9.7-0.5,13.2c-3.6,3.8-8,6.8-12,10.2
		c-1.1,0.3-2.1,0.7-3.2,1c-6.5,1-12.3,0.3-15.8-6.2L328.1,248z M340.2,251.4c6.4-1.5,12.8-4.5,16.5-11.3c3.1-5.7,1.1-9.4-5.2-11.1
		c-9.1-2.5-16.4,1.9-19.6,11.9C329.8,247.3,332.8,251.5,340.2,251.4z"/>
	<path class="st0" d="M652.9,283.7c8.5,4.2,16.1,5.8,23.1-1.3c-0.6,10.7-6.1,18-13.3,18.7c-4.3,0.4-7-1-7.5-5.7
		C654.8,291.9,653.8,288.4,652.9,283.7z"/>
	<path class="st0" d="M740.3,301.7c8.8,3.3,16.9,5.6,23.8-2.9c0.3,0.4,0.7,0.9,1,1.3c-3.3,4.8-6.2,10-9.9,14.4
		c-2.9,3.6-7.5,4.6-11.8,2.7c-4-1.7-4.1-5.6-3.5-9.5C740.1,306.1,740.1,304.3,740.3,301.7z"/>
	<path class="st0" d="M820,400.7c5.6,5.8,11,11.4,16.3,16.9c-7.1,6.5-11.3,7-16.4,1.5C814.4,413,812.5,406.7,820,400.7z"/>
	<path class="st0" d="M897.4,471.1c-2.2,3.7-4,7.7-6.7,11.1c-0.9,1.1-4.3,1.4-5.7,0.6c-5.4-3.1-4.9-15.6,0.5-18.6
		C890.6,461.3,896.3,464.6,897.4,471.1z"/>
	<path class="st0" d="M877.7,468.3c1.2,5.8,2.3,11.3,3.5,17.3c-3.3,1.3-7.4,2.8-11.8,4.4c-2-5-3.9-9.9-6-15
		C868.5,472.6,873.3,470.4,877.7,468.3z"/>
	<path class="st0" d="M581.2,312c-2.5-4.4-5.1-8.9-7.4-12.9c4.9-2.7,10.1-5.5,14.7-8c1.6,4.7,3.5,10.2,5.1,15.1
		C589.7,308.1,585.5,310,581.2,312z"/>
	<path class="st0" d="M895.1,548.5c-1.8-4.5-3.2-8.3-4.8-12.2c-1.2-3-0.5-4.7,2.9-5.1c4.2-0.6,8.3-1.3,13.1-2.1
		c-2.6,6.5-5.7,12.2,1.6,18.1C903,547.7,899.1,548.1,895.1,548.5z"/>
	<path class="st0" d="M147.5,401.5c3.7,6.8,7.1,12.9,10.3,19.1c0.5,0.9,0.9,2.6,0.5,3c-0.8,0.8-2.3,1.2-3.4,1.1
		c-7.5-0.7-10.2-6.7-12.8-12.4C139.1,405.8,141,402.7,147.5,401.5z"/>
	<path class="st0" d="M196,396.6c-0.1,4.7-3.8,9-7.6,8.9c-3.9-0.1-7.6-5.4-7.4-10.4c0.2-4.7,2.9-7.3,7.7-7.1
		C193.6,388.1,196.1,391.1,196,396.6z"/>
	<path class="st0" d="M883.8,520.1c6.9-1.7,13-3.3,19.6-4.9c1,3.3,1.9,6.5,3,10.2c-6.2,1.6-11.9,3-18.1,4.5
		C887,527,885.5,523.8,883.8,520.1z"/>
	<path class="st0" d="M864.4,436.3c1.1-2.6,1.8-5.8,3.6-7.8c1.3-1.4,4.7-2.2,6.5-1.5c1.6,0.7,3.2,3.6,3.2,5.6c0.1,2.9-0.7,6-1.9,8.6
		c-0.9,2.1-3,3.7-4.6,5.5c-2-2.2-4.2-4.4-5.9-6.7c-0.6-0.8-0.2-2.2-0.2-3.4C864.8,436.5,864.6,436.4,864.4,436.3z"/>
	<path class="st0" d="M348.6,361.1c-0.3,4-0.3,7.5-1.1,10.9c-0.3,1.4-1.9,3.2-3.3,3.7c-5.8,2.2-14.4-2.4-15.8-8.4
		c-0.2-0.7,1.7-2.8,2-2.7C337.1,366.7,342.9,364.8,348.6,361.1z"/>
	<path class="st0" d="M131.4,445.2c3.1-6.6,7.3-15.3,11.5-24.3c3,2.5,5.6,4.7,8.2,6.8c-0.4-0.4-0.8-0.9-1.3-1.3
		C143.3,433.1,136.6,439.9,131.4,445.2z"/>
	<path class="st0" d="M894.1,514.2c-13.1,3.7-11.3,4.7-15.6-7.7c4.6-1.8,9.2-3.6,13.8-5.4C892.9,505.8,893.5,510,894.1,514.2z"/>
	<path class="st0" d="M321.6,351.5c0.5,3,1,5.7,1.5,8.9c-9.4-1.6-18.6-3-27.3,2.4c-1-4.2,0.6-5.7,3.7-6.4
		C306.7,354.8,313.9,353.2,321.6,351.5z"/>
	<path class="st0" d="M208,410.8c-0.5,2.6-0.7,6.5-5.7,5.9c-3.4-0.4-7.3-0.9-7.1-5.8c0.2-4.7,4.1-8.1,8.5-7.9
		C207.1,403.3,208.2,405.2,208,410.8z"/>
	<path class="st0" d="M895.4,503.9c0.4-0.9,1.2-3.4,2.6-5.3c2.7-3.7,6.1-3.2,8.1,0.8c1.9,3.8-1.1,11.3-5,12.8
		C897.7,513.6,895.1,510.5,895.4,503.9z"/>
	<path class="st0" d="M431.6,355.2c-3.4,1.3-7.1,2.7-10.8,4.2c-0.4-4.3-0.7-9.1-1.1-13.8c2.2-1.2,4.9-2.8,7.4-4.2
		C428.6,345.9,430.1,350.5,431.6,355.2z"/>
	<path class="st0" d="M905.9,538.5c0-4.4,2.6-8.5,5.3-8.3c4,0.3,4.8,3.3,4.5,6.4c-0.3,3.1-0.1,7.1-4.8,7.3
		C907.3,544,906,541.7,905.9,538.5z"/>
	<path class="st0" d="M868.8,423.9c-4.2,2.9-7.9,5.5-11.6,8c0.3-4.5,0.5-8.6,0.8-13.5c1.2-0.5,3.6-1.4,6.5-2.5
		C865.8,418.4,867.1,420.8,868.8,423.9z"/>
	<path class="st0" d="M808.8,366.4c3.5-5.6,6.7-10.8,10.1-16.3c1.3,1,2.9,2.1,4.5,3.3c-2.7,4.9-5.3,9.7-8,14.5
		C813.2,367.4,811,366.9,808.8,366.4z"/>
	<path class="st0" d="M425.8,222.7c0.7,0.7,2.9,2,3,3.4c0.1,3.9-3,5.4-6.3,5.1c-1.9-0.2-5.1-2.1-5-3.2
		C417.5,223.9,420.9,223,425.8,222.7z"/>
	<path class="st0" d="M328,247.9c3.6,6.5,9.4,7.2,15.8,6.2c-5.8,2.3-11.6,4.7-17.6,7.1C326.8,256.5,327.4,252.2,328,247.9z"/>
	<path class="st0" d="M676.4,295.1c0,3.4,0,6.2,0,9.5c-2.2-0.5-4.2-1-6.5-1.5C672.2,300.3,674.1,297.9,676.4,295.1z"/>
	<path d="M282.6,260c6.6,0.1,11,7,8.5,13.1c-3.2,7.8-10.1,12.8-16.5,12c-5.9-0.8-9.1-4.8-8.3-10.7
		C267.3,265.7,274.1,259.8,282.6,260z M269,275.3c-0.1,4.6,1.2,5.5,5.5,6.7c5.8,1.6,14.2-6.7,14-12.1c-0.1-2.4-2.4-6.1-4.5-6.7
		C276.5,261,269.1,267.3,269,275.3z"/>
	<path d="M244,294c-1-6.6,3.5-14.4,9.7-16.6c4.1-1.5,7.1,0,8.5,4.4c2.3,6.9-1.1,14-7.8,16.5C249.5,300.2,246.6,297.4,244,294
		L244,294z M259.9,286.5c0.8-3.9-2.4-5.2-5.4-6c-2.4-0.7-8.4,6.8-8.5,10c0,3.4,2,5.2,5.1,5.5C255.1,296.4,259.7,291.4,259.9,286.5z"
		/>
	<path d="M366.7,231.6c0-6.5,4-10.6,10.3-10.7c5.7,0,9.1,2.8,9,7.5c-0.1,5.2-6.4,11.8-11.5,12C369.9,240.6,366.8,237.1,366.7,231.6z
		 M378.9,224c-6.7-0.3-9.4,2.2-9.6,7c-0.1,3.2,1,6.1,4.7,6.5c3.4,0.4,9.2-5.3,8.5-8.9C382.2,226.6,379.6,224.9,378.9,224z"/>
	<path d="M244,294c1.7,7-0.4,12.7-6.1,17.1c0,0,0.1-0.1,0.1-0.1c-4.2,0.2-8.5,0.8-10.6-4.1c-1.6-3.7,0.3-9.7,4.3-12.8
		C235.7,291,239.9,291.2,244,294C244,294,244,294,244,294z M241.1,299.9c0.5-3.1-1.4-4.5-4.6-4.6c-3.4-0.2-7.1,4-7.2,8.2
		c-0.1,3,1.4,4.6,4.5,4.7C237.9,308.2,241.1,304.8,241.1,299.9z"/>
	<path d="M402.7,218.6c4.9,0.1,6.8,1.9,6.7,6.5c-0.2,6.3-4.7,10.8-10.7,10.7c-4.6-0.1-7.8-3.1-7.8-7.3
		C391,223.4,396.8,218.6,402.7,218.6z M406.1,224.2c-1-0.7-2.6-2.5-4.4-2.9c-3.6-0.6-7.8,3.3-7.8,6.7c0,3.2,1.7,4.8,4.9,4.9
		C403,232.9,406,230.2,406.1,224.2z"/>
	<path d="M225.4,313.5c0,4.8-4,9.2-8.6,9.1c-3-0.1-5.6-1-5.8-4.7c-0.2-4.5,4.8-11.2,8.3-10.9C223.1,307.4,225.3,309.5,225.4,313.5z
		 M224.3,314.3c-2.8-2-4.2-3.1-5.7-4.2c-1.7,2.5-3.5,4.9-5,7.5c-0.1,0.1,2.7,2.6,3.3,2.3C219.3,318.6,221.3,316.7,224.3,314.3z"/>
	<path class="st0" d="M340.2,251.4c-7.4,0.1-10.4-4.2-8.4-10.5c3.2-10,10.5-14.4,19.6-11.9c6.3,1.7,8.3,5.4,5.2,11.1
		C353,246.9,346.6,250,340.2,251.4z"/>
	<path class="st0" d="M269,275.3c0.1-8.1,7.5-14.4,15-12.1c2.1,0.6,4.4,4.3,4.5,6.7c0.2,5.3-8.2,13.6-14,12.1
		C270.2,280.9,268.9,279.9,269,275.3z"/>
	<path class="st0" d="M259.9,286.5c-0.2,4.9-4.8,9.9-8.7,9.5c-3.2-0.3-5.2-2.1-5.1-5.5c0-3.2,6.1-10.7,8.5-10
		C257.5,281.3,260.7,282.6,259.9,286.5z"/>
	<path class="st0" d="M378.9,224c0.7,0.9,3.3,2.5,3.6,4.6c0.6,3.6-5.2,9.3-8.5,8.9c-3.7-0.4-4.8-3.3-4.7-6.5
		C369.5,226.2,372.3,223.7,378.9,224z"/>
	<path class="st0" d="M241.1,299.9c-0.1,4.9-3.3,8.3-7.3,8.2c-3.1-0.1-4.6-1.7-4.5-4.7c0.1-4.2,3.8-8.4,7.2-8.2
		C239.7,295.4,241.6,296.8,241.1,299.9z"/>
	<path class="st0" d="M406.1,224.2c-0.2,6-3.2,8.8-7.4,8.7c-3.2-0.1-4.9-1.7-4.9-4.9c0-3.4,4.3-7.3,7.8-6.7
		C403.6,221.6,405.2,223.5,406.1,224.2z"/>
	<path class="st0" d="M224.3,314.3c-3,2.4-5,4.3-7.4,5.6c-0.6,0.3-3.4-2.1-3.3-2.3c1.5-2.6,3.3-5,5-7.5
		C220.1,311.2,221.6,312.3,224.3,314.3z"/>
</g>
</svg>
