<?xml version="1.0" encoding="UTF-8"?><svg id="Layer_1" xmlns="http://www.w3.org/2000/svg" viewBox="0 0 1200 1200"><path d="M451.38,439.26c-3.28-.23-6.47-.04-9.61-.52-7.25-1.1-14.11-3.46-20.7-6.58-20.82-9.87-39.1-23.37-55.62-39.34-1.7-1.64-3.3-3.4-4.45-5.49-2.49-4.52-.31-8.7,4.85-9.22,4.29-.43,8.53,.2,12.77,.74,6.13,.79,12.23,1.77,18.39,2.28,2.28,.19,4.54,.16,6.79-.28,2.7-.53,3.55-1.55,3.36-4.35-.17-2.45-.68-4.85-1.26-7.24-2.91-11.82-6.68-23.4-9.74-35.18-2.42-9.32-4.99-18.59-6.55-28.11-.27-1.63-.38-3.25-.31-4.89,.09-2.13,.85-3.96,2.86-4.92,2.1-1.01,4.08-.46,5.86,.9,1.6,1.22,2.9,2.75,4.22,4.25,3.17,3.63,6.29,7.3,9.49,10.9,1.87,2.11,3.88,4.1,6.24,5.67,2.64,1.76,3.92,1.5,5.63-1.14,1.59-2.46,2.56-5.21,3.44-7.99,3.02-9.54,4.88-19.36,7.02-29.12,2.39-10.91,4.58-21.86,7.6-32.62,.71-2.54,1.46-5.07,2.74-7.4,2.72-4.93,7.5-5.07,10.46-.3,1.35,2.17,2.17,4.59,3.02,6.99,2.81,7.87,5.34,15.84,8.69,23.5,.98,2.24,2.06,4.45,3.19,6.63,.67,1.29,1.44,2.53,2.29,3.7,2.59,3.56,4.12,3.66,7.13,.54,1.97-2.04,3.55-4.37,5.08-6.74,3.94-6.11,7.42-12.5,10.98-18.84,3.16-5.62,6.25-11.29,9.77-16.71,1.64-2.52,3.3-5.03,5.52-7.08,4.19-3.88,8.83-2.75,10.58,2.67,1.57,4.88,1.71,10.01,2.21,15.07,1.05,10.66,1.71,21.38,4.3,31.84,.7,2.83,1.56,5.6,2.98,8.17,2.14,3.86,4.28,4.6,8.33,2.95,2.55-1.04,4.8-2.57,7-4.19,4.84-3.56,9.27-7.62,13.75-11.6,3.4-3.02,6.75-6.09,10.51-8.67,1.57-1.08,3.19-2.08,5.11-2.49,3.68-.78,6.55,1.26,6.91,4.99,.23,2.31-.32,4.52-.91,6.71-2.05,7.55-5.02,14.79-7.58,22.16-1.73,4.97-3.56,9.92-4.23,15.19-.08,.63-.16,1.27-.14,1.9,.04,1.41,.7,2.16,2.22,2.1,1.65-.07,3.24-.45,4.81-.89,7.11-1.96,13.89-4.84,20.73-7.53,7.1-2.78,14.13-5.77,21.57-7.58,2.22-.54,4.47-.85,6.75-.49,3.74,.58,5.55,3.62,4.34,7.23-.68,2.03-1.96,3.68-3.29,5.29-3.31,4-7,7.64-10.66,11.3-6.62,6.62-13.43,13.06-19.72,20-1.95,2.15-3.8,4.4-5.63,6.66-.6,.74-1.41,1.46-1.24,2.76,2.39,.59,4.81,.24,7.21,.02,4.62-.41,9.25-.57,13.89-.32,1.56,.08,3.07,.39,4.52,.92,4.8,1.75,6.51,5.85,4.39,10.54-.83,1.84-2.05,3.43-3.35,4.95-2.37,2.77-5,5.28-7.69,7.72-8.55,7.76-17.62,14.92-26.45,22.36-1.18,1-2.39,1.92-2.86,3.53-.34,1.19-1.41,1.86-2.38,2.54-2.75,1.93-5.47,3.92-8.29,5.75-4.6,2.99-8.61,6.65-12.38,10.58,.04,.73,.6,.86,1.1,1.04,21.45,7.67,40.17,19.99,57.38,34.57,35.57,30.12,69.18,62.27,99.48,97.76,20.79,24.34,37.38,51.39,51.66,79.95,9.55,19.11,18.68,38.39,25.28,58.77,3.08,9.51,5.56,19.19,7.97,28.88,.24,.95,.53,1.89,.75,2.66,.32,.15,.41,.24,.47,.22,5.94-1.42,10.18,1.47,13.88,5.56,7.39,8.18,12.92,17.5,17.05,27.72,6.46,16,11.09,32.49,13.47,49.57,1.17,8.37,1.94,16.79,2.07,25.26,.05,3.47-1.26,6.57-2.35,9.74-2.51,7.25-6.75,13.01-13.23,17.44-10.21,6.99-20.53,13.78-31.53,19.46-24.23,12.5-48.78,24.32-73.77,35.22-23.63,10.31-48.24,17.69-73.19,23.96-27.21,6.84-54.48,13.42-82,18.95-40.62,8.17-81.59,12.01-123.03,10.47-11.26-.42-22.52-1.04-33.63-3.12-3.4-.63-6.74-1.48-10.02-2.57-5.2-1.73-9.9-4.06-14.01-8.01-4.76-4.58-9.13-9.32-12.5-15.01-1.92-3.24-3.08-6.77-4.34-10.27-5.52-15.3-10.42-30.79-13.69-46.74-2.99-14.58-3.3-29.2-.37-43.85,.91-4.54,2.39-8.79,6.08-11.88,1.2-1.01,.99-2.11,.67-3.44-3-12.63-5.61-25.35-7.7-38.17-3.02-18.61-4.27-37.35-4.19-56.21,.08-20.6,2.08-41.02,5.61-61.27,9.12-52.22,23.55-102.99,42.08-152.61,7.51-20.09,17.31-39.02,30.34-56.17,5.57-7.33,11.58-14.25,18.55-20.3,.46-.4,1.09-.7,1.18-1.79Zm20.76-22.51l-.07-.08,.09,.07c.18,.18,.35,.35,.53,.53,.28,2.24,1.87,3.87,2.77,5.82,.84,1.83,1.02,1.78,3.04,.18-1.93-2.02-3.6-4.26-5.84-5.96l-.52-.54Zm-110.58,328.03c-.64,.89-.56,1.53-.54,2.16,.31,7.72,.73,15.43,1.52,23.12,1.86,18.18,5.32,36.1,8.8,54.02,.54,2.79,1,3.22,3.84,2.82,3.71-.51,7.43-.54,11.15-.51,5.1,.04,10.18-.27,15.24-.77,10.94-1.09,21.73-3.25,32.58-4.95,11.93-1.87,23.84-3.88,35.79-5.61,14.92-2.15,29.87-4.03,44.76-6.37,19.03-3,37.8-7.23,56.59-11.43,32.6-7.29,65.16-14.81,97.87-21.61,23.47-4.88,46.83-10.24,69.74-17.39,15.17-4.73,30.28-9.66,44.95-15.8,2.51-1.05,4.98-2.21,7.2-3.83,1.67-1.22,2.21-2.71,1.72-4.74-2.79-11.75-5.49-23.54-9.36-34.99-11.37-33.56-27.58-64.81-45.62-95.17-.35-.59-.6-1.36-1.62-1.5-.39,2.95-1.8,5.64-2.23,8.6,1.24,1.16,2.81,1.46,4.14,2.2,1.98,1.1,2.72,2.6,2.06,4.18-.66,1.57-2.25,2.04-4.44,1.41-1.27-.37-2.42-1.23-3.78-1.1-1.01,1.18-1.19,2.58-1.72,3.82-.6,1.42-1.05,2.91-1.73,4.28-.69,1.38-1.97,1.9-3.46,1.44-1.55-.48-2.04-1.72-1.85-3.23,.1-.8,.35-1.59,.59-2.37,.48-1.56,1.03-3.1,1.48-4.67,.44-1.5,.14-2.61-1.59-3.13-2.08-.63-4.13-1.39-6.16-2.19-1.73-.69-2.38-1.83-2.11-3.36,.25-1.43,1.45-2.4,3.21-2.37,1.83,.03,3.56,.62,5.29,1.18,1.19,.39,2.28,1.14,3.68,1.02,1.08-1.72,1.46-3.7,2.01-5.59,.64-2.25,1.44-4.25,4.16-5.03-7.87-12.14-16.3-23.46-25.67-34.6-1.28,2.74-1.84,5.21-2.69,7.57-.4,1.11-.66,2.27-1.36,3.26-.76,1.09-1.82,1.5-3.09,1.2-1.35-.32-1.88-1.32-1.94-2.63-.04-1.01,.19-1.97,.5-2.94,.96-3.03,1.76-6.12,2.86-9.09,.83-2.24,.38-3.82-1.2-5.62-12.03-13.64-24.58-26.79-37.62-39.47-.56-.55-1.01-1.31-1.94-1.35-.72,1.36-1.52,4.08-1.65,5.13-.09,.75,.15,1.24,.77,1.57,.64,.34,1.32,.62,1.97,.93,1.64,.78,3.34,1.46,4.91,2.36,1.75,1,2.31,2.66,1.59,4.13-.66,1.36-2.21,1.94-3.98,1.45-.78-.22-1.53-.57-2.3-.84-1.52-.53-2.9-1.46-4.56-1.6-.92,1-.87,2.27-1.26,3.36-.39,1.11-.58,2.3-1.07,3.36-.64,1.37-1.8,2.06-3.35,1.64-1.41-.38-2.09-1.39-2.07-2.84,.01-.72,.11-1.45,.26-2.15,.27-1.33,.46-2.7,.92-3.98,.66-1.82-.09-2.64-1.72-3.25-1.71-.64-3.41-1.21-5.19-1.62-1.69-.39-2.6-1.85-2.44-3.45,.16-1.58,1.37-2.68,3.14-2.84,1.59-.14,3.03,.45,4.52,.87,1.18,.34,2.27,1.12,3.63,.96,.97-1.96,1.09-4.11,1.91-6.01,.84-1.98,.35-3.3-1.18-4.76-8.67-8.3-17.38-16.55-26.34-24.53-11.2-9.98-22.36-20.01-34.77-28.51-6-4.11-3.52-3.63-10.85-1.53-.09,.02-.18,.05-.26,.07-1.48,.33-1.83,1.21-1.44,2.63,.45,1.65,1.06,3.3,.88,5.07-.14,1.33-.87,2.2-2.15,2.49-1.19,.28-2.14-.25-2.84-1.2-.5-.66-.67-1.47-.93-2.25-.46-1.35-.51-2.86-1.44-4.15-2.06-.1-3.85,.83-5.69,1.55-1.55,.6-2.75,1.77-4.18,2.54-1.3,.69-2.68,.73-3.72-.49-1.03-1.21-.83-2.56,.07-3.76,.48-.64,1.11-1.2,1.75-1.7,2.11-1.63,4.54-2.63,7.05-3.47,1-.34,2.2-.32,2.88-1.31,.03-.21,.12-.41,.08-.57-.45-1.85-1.06-3.68-1.36-5.55-.28-1.75-1.24-2.69-2.74-3.41-18.68-8.85-38.13-13.97-59.01-12.72-23.13,1.38-42.96,10.08-59.36,26.42-10.18,10.14-18.35,21.82-25.53,34.21-9.6,16.59-16.52,34.35-22.83,52.38-.75,2.14-1.47,4.29-2.19,6.45-.3,.89-.51,1.79,.52,2.4,2.09,1.23,4.03,2.75,6.35,3.6,.87-.76,1.23-1.71,1.7-2.58,2.15-3.9,4.25-7.83,6.83-11.47,1.7-2.4,3.38-3.04,4.94-1.97,1.6,1.1,1.68,2.81,.1,5.29-2.39,3.76-4.52,7.67-6.58,11.62-.45,.85-1.19,1.64-.87,2.89,.52,.35,1.11,.76,1.72,1.15,.92,.59,1.9,1.09,2.76,1.76,1.55,1.21,1.92,2.7,1.12,4.04-.79,1.33-2.28,1.76-4.08,1.06-.93-.36-1.77-.92-2.67-1.35-.71-.34-1.33-.98-2.46-.71-.41,.74-.91,1.59-1.36,2.47-2.13,4.11-4.25,8.24-6.37,12.36-.46,.89-.88,1.8-1.64,2.49-.97,.89-2.08,1.12-3.27,.57-1.12-.51-1.51-1.48-1.51-2.68,0-1.14,.5-2.11,.98-3.08,2.15-4.31,4.31-8.61,6.44-12.93,.43-.88,1.08-1.69,1.03-2.95-1.86-1.37-3.8-2.75-6.02-3.63-.98,1.07-1.14,2.28-1.48,3.39-2.5,8.16-5.07,16.3-7.43,24.5-11.82,41.06-22.47,82.37-26.12,125.13-.8,9.33-1.29,18.68-1.3,28.05,0,1.38,.43,2.35,1.53,3.26,2.98,2.48,6.6,3.8,9.93,5.64,.45,.25,.94,.59,1.55,.2,.55-.73,.62-1.65,.82-2.53,.65-2.83,1.32-5.67,2.43-8.36,.72-1.77,2.23-2.58,3.62-2.17,1.51,.44,2.19,1.67,1.95,3.72-.09,.8-.35,1.59-.56,2.38-.71,2.63-1.27,5.29-1.88,7.95-.46,1.98,.25,2.83,1.93,3.5,1.43,.57,2.9,1.1,4.12,2.08,1.1,.89,1.52,2.07,1.03,3.41-.51,1.39-1.69,1.82-3.07,1.78-.92-.03-1.76-.38-2.62-.69-.83-.3-1.59-.91-2.73-.6-.99,2.57-1.1,5.4-1.73,8.12-.45,1.94-.71,3.94-1.26,5.85-.42,1.45-1.56,2.27-3.13,2.06-1.59-.21-2.32-1.35-2.42-2.85-.05-.8,.11-1.62,.24-2.43,.66-4.03,1.32-8.06,2.03-12.09,.17-.98,.21-1.79-.82-2.31-3.38-1.73-6.74-3.48-10.2-5.26Zm120.32-329.47c.2-.22,.41-.34,.42-.48,.08-.9,.15-1.81,.18-2.71,.2-8.37,.92-16.69,2.27-24.95,.49-2.99,1.84-4.54,3.83-4.58,2.06-.05,3.55,1.62,4.06,4.69,.45,2.69,.74,5.4,1.21,8.08,.66,3.82,1.09,7.69,2.35,11.62,1.04-.94,1.24-2.04,1.63-3,3.4-8.42,6.67-16.9,10.48-25.14,.8-1.73,1.58-3.48,2.85-4.94,1.14-1.31,2.6-1.67,4.2-1.17,1.55,.48,2.31,1.7,2.47,3.27,.23,2.36,.04,4.72-.11,7.08-.38,5.89-.82,11.78-1.19,17.68-.06,.9-.43,1.91,.41,2.79,1.01-.93,1.4-2.07,1.97-3.09,4.9-8.81,9.75-17.66,15.42-26.02,.82-1.2,1.61-2.45,2.84-3.28,2.54-1.73,5.53-.29,5.78,2.76,.08,1,0,2-.3,2.97-.58,1.91-1.13,3.83-1.73,5.73-3.19,10.04-6.71,19.97-9.58,30.11-.29,1.03-.8,2.03-.28,3.38,2.8,.65,5.72,1.25,8.59,2.03,2.51,.68,4.84,.48,7.13-.71,1.13-.59,2.27-1.14,3.4-1.73,4.54-2.35,8.6-5.37,12.55-8.62,12.5-10.28,25.07-20.46,37.41-30.92,3.74-3.17,7.42-6.43,10.58-10.22,.79-.94,1.75-1.84,1.79-3.33-1.62-.89-3.34-.93-5.03-.95-4.01-.06-7.98,.44-11.97,.73-3.17,.23-6.35,.61-9.5-.17-4.62-1.14-6.47-4.63-4.88-9.14,.49-1.38,1.22-2.64,2.02-3.85,1.46-2.2,3.13-4.24,4.86-6.23,5.02-5.76,10.44-11.14,15.84-16.54,4.57-4.56,9.11-9.14,13.62-13.75,.64-.65,1.54-1.21,1.59-2.31-1.1-.41-1.93,.1-2.75,.39-3.77,1.32-7.54,2.64-11.27,4.08-8.13,3.13-16.13,6.63-24.46,9.23-2.7,.84-5.43,1.51-8.24,1.78-6.56,.64-10.67-3.02-10.76-9.58-.02-1.73,.11-3.44,.43-5.15,.64-3.4,1.57-6.72,2.7-9.98,2.65-7.63,5.37-15.24,8.04-22.87,.35-1,.86-1.99,.61-3.13-1.18,.09-1.85,.9-2.58,1.54-3.09,2.67-6.15,5.39-9.22,8.1-4.08,3.62-8.16,7.24-12.65,10.35-2.99,2.08-6.1,3.95-9.66,4.93-5.41,1.49-10.15-.03-13.61-4.42-1.71-2.16-2.88-4.61-3.83-7.19-2.4-6.53-3.46-13.35-4.31-20.2-1.01-8.12-1.54-16.28-2.29-24.42-.15-1.66-.19-3.38-.94-5.21-2.11,1.79-3.19,3.99-4.43,6.04-5.03,8.32-9.41,17.01-14.22,25.46-2.61,4.58-5.24,9.15-8.45,13.35-1.72,2.25-3.59,4.35-6.02,5.86-4.03,2.51-8.17,2.29-11.92-.63-2.11-1.65-3.67-3.77-5.05-6.03-2.24-3.65-3.97-7.55-5.6-11.5-2.81-6.8-5.04-13.82-7.48-20.76-.3-.86-.35-1.92-1.39-2.44-.79,1.02-.91,2.12-1.18,3.16-3.39,13.1-5.87,26.41-8.7,39.64-1.66,7.72-3.25,15.46-5.87,22.94-.99,2.84-2.15,5.6-3.86,8.1-4.09,5.99-9.9,7.2-16.09,3.35-2.02-1.26-3.8-2.81-5.49-4.46-2.68-2.6-5.1-5.43-7.54-8.25-.49-.56-.83-1.4-1.77-1.4-.4,.69-.11,1.29,.04,1.9,1.08,4.32,2.08,8.65,3.27,12.94,3.75,13.47,7.58,26.92,11.34,40.39,1.08,3.86,1.86,7.79,1.67,11.83-.28,5.87-3.25,9.4-8.99,10.74-4.32,1.01-8.69,.76-13.02,.23-6.67-.81-13.32-1.81-19.98-2.71-.94-.13-1.92-.48-3.07,.19,1.01,1.57,2.32,2.68,3.55,3.82,10.71,9.9,22.2,18.78,34.61,26.45,7.9,4.88,16.06,9.24,24.86,12.31,6.05,2.12,12.24,3.42,18.7,3.04,.9-.05,1.8-.05,2.66-.48,3.91-1.95,8.09-3.23,12.11-4.89,.8-.33,1.8-.38,2.25-1.37-.36-1.54-1.33-2.77-2.13-4.07-5.35-8.65-10.8-17.25-15.7-26.18-.7-1.27-1.41-2.56-1.87-3.93-.68-1.99-.1-3.78,1.25-4.64,1.34-.86,3.29-.71,4.81,.58,1.24,1.05,2.36,2.26,3.46,3.47,6.91,7.6,13.79,15.22,20.71,22.81,.63,.7,1.15,1.63,2.18,1.82Zm19.59,437.92c.31,20.16,3.18,39.41,9.36,58.11,3.87,11.7,8.99,22.82,15.84,33.09,2.32,3.48,4.73,6.94,7.88,9.72,2.4,2.12,5.01,3.45,8.61,2.83,11.37-1.95,22.72-3.99,34.01-6.35,9.06-1.89,18.09-3.96,27.13-5.99,2.71-.61,2.68-.67,2.7-3.45,.02-3.37-.38-6.71-.91-10.03-1.61-10.04-3.58-20.02-5.73-29.96-6.87-31.84-15.77-63.08-27.79-93.39-1.15-2.9-1.17-2.89-4.11-2.27-.27,.06-.53,.12-.8,.18-17.89,4.05-35.81,7.93-53.95,10.7-1.43,.22-2.52,.83-3.52,1.85-3.09,3.15-4.83,7-5.97,11.17-2.18,7.95-2.62,16.11-2.74,23.79Zm152.87-66.6c5.51,4.46,8.89,9.92,11.74,15.75,3.33,6.8,5.74,13.96,7.69,21.25,6.83,25.55,12.48,51.36,17.38,77.34,1.12,5.97,2.06,12.01,1.61,18.14-.04,.6-.39,1.25,.25,1.81,1.3,.12,2.43-.53,3.62-.94,24.77-8.6,48.31-20.03,71.9-31.34,1.24-.59,1.9-1.51,2.48-2.72,2.82-5.88,2.44-12,1.58-18.18-1.44-10.35-3.44-20.6-5.85-30.77-3.43-14.51-7.14-28.94-12.6-42.85-1.9-4.83-4.12-9.51-7.15-13.76-2.79-3.92-6.43-6.61-11.1-7.89-2.11-.58-4.27-1.24-6.41-1.18-2.79,.08-5.49-1.03-8.33-.24-18.83,5.18-37.95,9.12-57.03,13.23-3.08,.66-6.23,1.09-9.78,2.34Zm-40.3,155.28c.66,.31,1.28,.11,1.89-.04,21.44-5.16,42.87-10.36,64.1-16.41,4.03-1.15,5.44-3.35,5.87-6.95,.1-.81,.12-1.63,.12-2.45,0-4.19-.66-8.32-1.34-12.44-1.97-12.01-4.69-23.87-7.4-35.73-3.54-15.49-6.77-31.06-11.45-46.26-2.11-6.87-4.55-13.61-8.09-19.9-1.39-2.46-2.83-4.89-4.76-6.96-4.03-4.34-8.92-6.28-14.86-4.94-18.86,4.26-37.71,8.53-56.56,12.8-1.22,.28-2.52,.31-3.63,1.24,17.81,44.45,29.56,90.48,36.12,138.05Zm-85.1,16.95c.12-.75-.14-1.03-.39-1.29-7.22-7.61-12.51-16.49-16.92-25.91-11.95-25.56-16.89-52.61-16.71-80.69,.05-7.28,.63-14.51,2.36-21.61,.88-3.61,2.29-7.03,3.86-10.56-1.39-.44-2.53-.14-3.67,.01-4.77,.65-9.53,1.35-14.3,1.98-13.68,1.82-27.32,3.92-40.95,6.14-3.36,.55-5.87,2.26-7.3,5.45-.89,1.99-1.71,4.01-2.26,6.12-3.74,14.26-4.01,28.75-2.48,43.28,1.7,16.15,5.61,31.82,11.3,47.03,3.47,9.29,7.38,18.36,12.77,26.76,3.5,5.46,8.47,7.74,14.69,7.69,16.09-.13,32.15-1.04,48.14-2.76,3.95-.43,7.95-.68,11.85-1.63Zm210.26-192.5c.31,.17,.53,.35,.78,.43,7.81,2.72,12.58,8.63,16.38,15.58,2.58,4.72,4.66,9.65,6.43,14.72,7.12,20.37,12.03,41.31,15.65,62.56,.99,5.81,1.8,11.66,1.74,17.6-.02,1.79-.75,3.54-.41,5.39,1.12,.2,1.88-.39,2.65-.79,5.59-2.84,11.2-5.63,16.72-8.59,10.26-5.5,20.04-11.77,29.44-18.65,3.55-2.6,6.27-5.75,7.82-9.88,.32-.85,.69-1.68,1.1-2.49,.89-1.74,1.24-3.56,1.12-5.53-.49-8.53-1.08-17.05-2.28-25.5-2.28-16.07-6.56-31.61-12.43-46.74-3.51-9.05-8.14-17.43-14.22-25-1.37-1.7-2.77-3.38-4.61-4.61-2.01-1.34-3.47-.91-4.17,1.39-1.36,4.44-4.36,7.45-8.17,9.8-2.55,1.57-5.32,2.76-8.08,3.92-13.99,5.87-28.39,10.6-42.85,15.16-.83,.26-1.74,.34-2.62,1.26Zm-288.51,196.06c-3.17-4.38-5.97-8.95-8.22-13.82-13.38-29.05-21.42-59.25-19.29-91.55,.59-8.99,1.87-17.89,5.46-26.28,.17-.4,.42-.82,0-1.41-1.34-.11-2.75,.17-4.17,.42-14.08,2.49-28.22,4.22-42.56,3.46-3.38-.18-6.69,.3-9.99,1.05-2.65,.6-4.29,2.07-5.08,4.7-1.56,5.17-2.39,10.42-2.32,15.83,.14,11.03,1.91,21.87,3.8,32.7,2.93,16.71,7.89,32.81,14.5,48.41,2.19,5.17,5.07,9.88,9.47,13.48,6.65,5.45,14.15,9.15,22.66,10.72,11.21,2.07,22.56,2.48,33.91,2.96,.53,.02,1.1,.08,1.84-.67Zm60.24-545.27c-3.07-7.49-1.02-15.02-1.49-22.49-3.61,7.62-6.09,15.66-9.79,23.59,4.01-.39,7.57-.74,11.28-1.1Zm15.33-14.86c-3.11,4.68-5.36,9.78-8.63,14.45,1.13,.68,2.13,.48,3.09,.53,1.06,.06,1.73-.42,1.96-1.45,1.02-4.55,2.58-8.96,3.58-13.52Zm-36.34,12.24c-.12,1.87-.31,3.67,.53,5.35,1.03,.08,1.84-.06,2.62-.82-1.38-1.41-2.05-3.09-3.15-4.53Zm88.64,29.37c.06,2.4,.07,2.4,2.19,1.29-.52-.81-1.22-1.26-2.19-1.29Z"/><path d="M559.11,647.65c-1.61-1.39-3.37-1.92-5-2.65-2.48-1.11-4.99-2.16-7.52-3.17-2.14-.85-3.14-2.16-2.71-3.76,.48-1.79,2.43-2.81,4.62-2.28,2.56,.63,4.97,1.71,7.4,2.71,1.92,.79,3.83,1.61,5.64,2.38,1.12-.65,1.32-1.7,1.74-2.57,1.42-2.94,2.86-5.87,4.6-8.65,.73-1.16,1.51-2.27,2.77-2.93,1.44-.75,3.06-.58,4.01,.47,1.06,1.17,1.09,2.46,.25,3.75-2.09,3.21-3.55,6.74-5.16,10.19-.41,.89-.97,1.75-.97,2.81,.54,.96,1.57,1.18,2.45,1.6,4.17,2,8.36,3.97,12.54,5.95,.98,.47,2.01,.88,2.74,1.74,.81,.96,1.19,2.05,.6,3.27-.57,1.17-1.54,1.72-2.85,1.73-1.04,0-1.95-.41-2.86-.81-4.23-1.88-8.45-3.77-12.68-5.65-.9-.4-1.82-.76-2.63-1.1-1.2,.55-1.36,1.63-1.77,2.5-1.53,3.19-2.98,6.42-4.48,9.63-.34,.74-.69,1.49-1.17,2.14-1.06,1.45-2.69,1.92-4.06,1.21-1.51-.79-2-2.17-1.59-3.69,.45-1.65,1.17-3.24,1.83-4.83,1.38-3.33,2.81-6.64,4.23-9.99Z"/><path d="M496.65,517.71c1.73,1.3,3.74,1.94,5.59,2.88,2.7,1.37,3.64,3,2.76,4.81-.79,1.63-2.66,1.94-5.31,.96-1.94-.72-3.74-1.83-5.86-2.29-1.5,1.86-2.03,4.1-2.99,6.13-.7,1.48-1.25,3.02-1.97,4.49-1.02,2.09-2.46,2.87-4.07,2.32-1.63-.55-2.35-2.36-1.56-4.62,.95-2.74,2.14-5.4,3.19-8.11,.39-1,1.04-1.92,.93-3.21-1.38-1.27-3.22-1.85-4.9-2.7-1.94-.98-3.94-1.87-5.9-2.82-.98-.48-1.94-1.02-2.7-1.82-.95-1-1.42-2.13-.72-3.46,.7-1.33,1.91-1.62,3.26-1.36,.79,.15,1.57,.45,2.31,.77,3.17,1.37,6.32,2.77,9.48,4.15,.65,.28,1.27,.77,2.12,.5,.98-.94,1.26-2.32,1.9-3.51,1.07-2,2.06-4.05,3.17-6.03,.53-.94,1.18-1.85,1.93-2.62,1.37-1.43,2.89-1.64,4.14-.73,1.23,.89,1.55,2.46,.58,4.16-1.72,3-3.21,6.11-4.58,9.27-.36,.82-.88,1.59-.82,2.84Z"/><path d="M609.73,747.72c-3.14-2.54-6.05-4.84-8.92-7.21-1.54-1.27-3.07-2.57-4.46-4-1.54-1.59-1.66-3.12-.58-4.36,1.1-1.26,2.65-1.46,4.41-.16,3.52,2.58,6.91,5.32,10.37,7.97,.78,.6,1.46,1.38,2.6,1.56,1.59-1.76,2.59-3.93,3.98-5.82,1.46-1.98,2.84-4.01,4.58-5.75,1.77-1.77,3.45-1.98,4.78-.73,1.26,1.19,1.29,2.75-.2,4.63-2.54,3.22-4.82,6.6-6.91,10.11-.37,.61-.85,1.2-.76,2.07,.61,1.1,1.81,1.66,2.73,2.51,.8,.74,1.7,1.38,2.42,2.19,1.17,1.33,1.23,2.8,.3,3.97-.94,1.18-2.35,1.48-3.92,.66-.88-.45-1.66-1.11-2.48-1.66-.82-.55-1.48-1.34-2.55-1.61-1.15,.39-1.41,1.55-1.97,2.43-1.21,1.92-2.27,3.94-3.55,5.81-1.06,1.55-2.69,1.95-4.03,1.26-1.29-.67-1.86-2.33-1.15-4.06,.62-1.5,1.5-2.9,2.28-4.33,.95-1.74,1.93-3.48,3.04-5.49Z"/><path d="M706.41,681.41c-1.23,1.54-1.82,3.47-2.7,5.24-1.16,2.36-2.21,4.79-3.47,7.1-.86,1.58-2.55,2.1-3.95,1.54-1.3-.52-1.93-1.86-1.56-3.68,.2-.96,.61-1.9,1-2.81,1.46-3.4,2.95-6.79,4.4-10.1-1.1-1.31-2.48-1.61-3.66-2.24-2.64-1.43-5.32-2.77-7.97-4.17-1.05-.55-2.05-1.2-2.79-2.15-.97-1.26-1.22-2.65-.35-4.05,.75-1.19,2.24-1.49,3.92-.69,3.69,1.75,7.34,3.61,11.02,5.39,.88,.42,1.7,1.09,3.04,.9,1.09-2.12,2.23-4.38,3.39-6.62,.75-1.45,1.47-2.93,2.59-4.15,1.29-1.41,2.84-1.72,4.14-.92,1.27,.78,1.75,2.37,.96,4.12-1.23,2.73-2.65,5.38-3.95,8.08-.39,.81-.91,1.58-.95,2.57,.53,1.06,1.73,1.19,2.61,1.77,1.84,1.22,2.49,2.8,1.72,4.35-.71,1.43-2.26,1.93-4.24,1.43-1.05-.26-1.95-1-3.21-.9Z"/><path d="M422.6,647.24c.84-2.27,.88-4.75,1.57-7.09,.33-1.13,.57-2.29,1.22-3.29,.78-1.2,1.92-1.67,3.29-1.32,1.47,.37,2.09,1.5,1.92,2.89-.33,2.69-.86,5.36-1.24,8.05-.32,2.3-.28,2.31,2.04,2.8,2.48,.52,4.97,1.01,7.45,1.55,1.32,.29,2.33,.99,2.68,2.4,.57,2.3-1.22,4.03-3.98,3.71-2.43-.28-4.84-.72-7.26-1.11-.63-.1-1.24-.3-2.08,.19-.8,3.06-.92,6.42-1.47,9.7-.24,1.43-.34,2.89-.68,4.29-.43,1.79-1.79,2.7-3.38,2.47-1.49-.21-2.3-1.23-2.34-3.15-.06-3.1,.59-6.13,.89-9.2,.18-1.79,.36-3.58,.54-5.44-2.89-1.23-5.83-1.2-8.62-1.86-1.06-.25-2.15-.34-3.2-.63-1.87-.51-2.84-1.74-2.6-3.28,.26-1.7,1.41-2.45,3.03-2.58,3.29-.26,6.5,.46,9.72,.91,.71,.1,1.41,.38,2.5,0Z"/><path d="M463.12,750.92c1.15-1.72,1.33-3.48,1.97-5.06,.65-1.59,1.18-3.24,1.9-4.8,1.21-2.59,2.85-3.5,4.58-2.72,1.63,.73,2.01,2.41,1.06,5.01-.93,2.56-1.76,5.14-2.47,7.77-.77,2.89-.79,2.88,1.75,4.18,1.29,.66,2.63,1.25,3.86,2.01,1.7,1.05,2.31,2.69,1.71,4.14-.61,1.45-2.17,2.02-4.2,1.51-1.84-.46-3.39-1.72-5.29-1.99-1.08,.85-1.03,2.14-1.36,3.23-.78,2.6-1.44,5.24-2.13,7.87-.21,.8-.46,1.57-.97,2.23-.81,1.04-1.87,1.43-3.13,1.1-1.18-.3-1.76-1.17-2-2.33-.25-1.21,.09-2.36,.36-3.49,.74-3.18,1.52-6.35,2.37-9.5,.42-1.57,.11-2.53-1.49-3.21-2.67-1.14-5.27-2.43-7.86-3.74-2.56-1.3-3.46-2.88-2.78-4.61,.71-1.8,2.76-2.38,5.43-1.33,2.86,1.12,5.65,2.41,8.69,3.72Z"/><path d="M573.5,533.46c2.04-.62,3.9-.17,5.75,.77,3.13,1.59,6.3,3.11,9.53,4.69,1.13-1.5,1.36-3.15,2.02-4.61,.64-1.4,1.19-2.86,1.97-4.17,1.13-1.92,2.8-2.54,4.31-1.83,1.51,.71,1.96,2.36,1.04,4.5-.96,2.25-1.82,4.54-2.56,6.88-.76,2.37-.74,2.38,1.36,3.65,.08,.05,.16,.08,.24,.13,2.3,1.41,3.06,2.97,2.21,4.6-.64,1.24-2.52,2.24-4.78,.99-.38-.21-.81-.43-1.52-.18-.99,1.55-1.21,3.55-1.78,5.41-.61,1.99-1.08,4.03-1.77,5.99-.7,2-2.09,2.83-3.69,2.43-1.62-.4-2.52-2.06-2.02-4.15,.86-3.61,1.86-7.19,2.79-10.79,.61-2.37,.59-2.4-1.62-3.57-2.97-1.57-5.95-3.09-8.91-4.69-3.24-1.75-3.53-2.52-2.52-6.11l-.05,.04Z"/><path d="M551.09,786.07c1.24,.7,2.23,1.16,3.12,1.77,1.28,.88,1.66,2.19,1.15,3.6-.55,1.5-1.88,1.95-3.33,1.71-1.15-.19-2.29-.58-3.36-1.05-1.42-.62-2.35-.26-3.22,.99-1.56,2.23-3.25,4.37-4.88,6.54-.65,.87-1.29,1.76-1.98,2.6-1.51,1.83-3.29,2.33-4.71,1.38-1.41-.95-1.56-2.86-.21-4.85,1.57-2.33,3.28-4.57,4.91-6.86,.57-.81,1.31-1.51,1.63-2.69-.78-1.11-2.2-1.34-3.34-1.99-1.49-.85-3.12-1.5-4.22-2.91-1.19-1.53-1.26-3.32-.2-4.49,1-1.1,2.52-1.21,4.2-.09,1.83,1.22,3.89,1.95,5.81,2.96,1.52,.8,2.6,.64,3.71-.81,2.1-2.74,4.57-5.16,7.2-7.41,.83-.71,1.66-1.41,2.8-1.59,1.17-.19,2.2,.03,2.9,1.03,.68,.98,.67,2.04,.1,3.09-.54,.98-1.43,1.63-2.2,2.39-2.04,2.02-4.24,3.91-5.85,6.68Z"/><path d="M754.96,727.06c.09-1.18,.6-2.17,1.82-2.7,1.15-.5,2.33-.3,2.98,.61,3.24,4.54,7.88,7.74,11.4,12,.17,.21,.34,.42,.48,.66,.81,1.35,1.1,2.7-.08,4-1.06,1.16-2.81,1.41-4.17,.15-3.78-3.51-7.84-6.74-11.02-10.85-.85-1.1-1.26-2.4-1.41-3.86Z"/><path d="M650.65,689.9c-1.48-.02-2.89-.36-4.15-1.15-1.6-1.01-2.2-2.73-1.56-4.21,.66-1.54,2.28-2.35,4.07-1.93,1.05,.25,2.09,.63,3.09,1.07,1.83,.8,2.73,2.33,2.36,3.83-.38,1.57-1.73,2.41-3.81,2.38Z"/><path d="M502.2,620.79c2.07-.03,3.2,.54,3.73,2.03,.53,1.49,0,2.71-1.14,3.62-1.13,.91-2.45,1.54-3.83,2.01-1.39,.46-2.53-.02-3.36-1.11-.83-1.08-1.02-2.32-.3-3.56,1.22-2.08,3.22-2.77,4.9-2.99Z"/><path d="M690.35,743.02c-.03-2.26,2.1-4.24,4.68-4.36,2.01-.09,3.65,1.3,3.72,3.16,.08,1.96-2.75,4.62-4.95,4.66-1.87,.03-3.42-1.52-3.45-3.45Z"/><path d="M533.55,708.76c.04,2.08-1.65,3.87-3.68,3.89-1.98,.02-3.66-1.77-3.64-3.9,.02-2.15,1.65-3.89,3.66-3.9,1.99,0,3.62,1.73,3.67,3.9Z"/><path d="M602.21,772.82c-2.2-.04-3.27-.84-3.48-2.35-.21-1.48,.6-2.83,2.2-3.29,1.11-.32,2.31-.53,3.46-.5,1.35,.03,2.44,.75,2.76,2.18,.32,1.45-.44,2.47-1.64,3.1-1.12,.59-2.36,.89-3.3,.86Z"/><path d="M482.19,684.56c-.59-.05-1.14-.05-1.67-.14-1.18-.21-1.96-.92-2.2-2.09-.26-1.28,.23-2.33,1.35-2.98,1.48-.86,3.11-.9,4.71-.45,1.32,.37,2.21,1.33,2.18,2.75-.03,1.42-.96,2.3-2.29,2.67-.68,.19-1.42,.18-2.09,.25Z"/><path d="M478.84,549.18c-1.68,0-2.88-1.31-2.72-2.98,.14-1.56,2.16-4.01,3.62-4.41,1.65-.45,3.18,.47,3.49,2.08,.39,2.04-2.32,5.31-4.4,5.3Z"/><path d="M630.48,587.02c1.94,.12,3.33,1.85,3.2,3.99-.11,1.89-1.33,3.04-3.17,2.97-1.95-.07-3.49-1.8-3.4-3.83,.08-1.9,1.52-3.24,3.37-3.13Z"/><path d="M586.4,579.13c-2.15,0-4.56-2.11-4.48-3.95,.06-1.53,1.26-2.51,2.98-2.46,2.22,.06,4.36,1.9,4.33,3.73-.02,1.51-1.26,2.68-2.83,2.69Z"/><path d="M541.86,566.14c-1.6,.02-2.78-1.06-2.86-2.6-.09-1.81,2.04-4.05,3.94-4.16,1.5-.08,2.71,1.08,2.77,2.67,.07,2.02-1.85,4.07-3.85,4.09Z"/><path d="M391.38,637.22c2.09,.02,3.82,1.61,3.79,3.47-.03,1.66-1.23,2.77-3.03,2.79-2.15,.02-3.93-1.46-3.94-3.29-.01-1.73,1.33-2.99,3.18-2.97Z"/><path d="M610.5,552.91c-.05,1.49-1.32,2.71-2.82,2.72-1.87,.01-3.96-1.99-3.95-3.78,.01-1.64,1.32-2.74,3.1-2.62,1.96,.14,3.72,1.91,3.66,3.68Z"/><path d="M551.68,671.92c1.85,.02,3.07,1.15,3,2.77-.08,1.76-2,3.26-4.09,3.19-1.63-.06-2.81-1.16-2.84-2.68-.04-1.84,1.72-3.31,3.92-3.28Z"/><path d="M536.76,635.34c-1.86-.03-3-1.09-2.98-2.77,.03-1.81,1.63-3.07,3.79-3,1.74,.06,3.09,1.28,3.07,2.78-.02,1.67-1.77,3.02-3.88,2.99Z"/><path d="M473.37,724.57c-.05-2.16,1.43-3.94,3.24-3.9,1.51,.03,2.52,1.13,2.61,2.84,.11,2.26-1.2,4-3.04,4.02-1.62,.02-2.77-1.2-2.81-2.96Z"/><path d="M469.22,461.04c1.71-.02,2.92,1.17,2.93,2.89,0,1.77-1.46,3.32-3.22,3.4-1.73,.07-3.18-1.33-3.13-3.04,.05-1.68,1.68-3.22,3.42-3.24Z"/><path d="M420.08,683.21c-1.69,0-2.98-1.25-2.93-2.84,.06-1.76,1.66-3,3.82-2.96,1.76,.03,2.91,.97,2.98,2.45,.09,1.72-1.8,3.35-3.87,3.35Z"/><path d="M676.35,666.56c-1.6,0-2.75-1.17-2.72-2.75,.03-1.8,1.76-3.62,3.43-3.62,1.46,0,2.73,1.32,2.72,2.82,0,1.83-1.67,3.55-3.43,3.54Z"/><path d="M530.97,462.01c-.02,1.85-1.22,3.13-2.96,3.17-1.85,.05-3.25-1.4-3.16-3.26,.09-1.68,1.53-3.07,3.18-3.06,1.74,0,2.97,1.32,2.94,3.16Z"/><path d="M581.27,619.23c.03,1.8-1.59,3.48-3.41,3.53-1.59,.04-2.72-1.07-2.73-2.69-.01-1.79,1.63-3.51,3.41-3.55,1.55-.04,2.71,1.11,2.73,2.72Z"/><path d="M623.66,631.96c.03,1.7-1.08,2.85-2.83,2.91-1.83,.07-3.36-1.3-3.42-3.07-.06-1.57,1.21-2.86,2.88-2.92,1.87-.07,3.34,1.27,3.37,3.07Z"/><path d="M428.71,626.41c-1.61,.01-2.82-1.08-2.88-2.6-.07-1.74,1.6-3.34,3.52-3.39,1.55-.03,2.8,1.11,2.87,2.63,.09,1.78-1.54,3.34-3.51,3.36Z"/><path d="M489.68,765.75c1.61-.05,2.83,1.06,2.9,2.62,.07,1.71-1.49,3.34-3.23,3.4-1.64,.05-2.84-1.04-2.88-2.6-.04-1.76,1.48-3.37,3.21-3.42Z"/><path d="M447.38,542.9c-1.74,.02-3.12-1.3-3.14-3-.02-1.7,1.34-3.03,3.11-3,1.68,.02,3.17,1.42,3.21,3.02,.04,1.58-1.43,2.96-3.18,2.98Z"/><path d="M412.15,738.23c0,1.63-1.27,2.85-2.98,2.89-1.75,.04-3.23-1.33-3.23-2.99,0-1.59,1.28-2.79,3.02-2.83,1.88-.04,3.2,1.17,3.19,2.93Z"/><path d="M511.16,532.1c-.03,1.68-1.71,3.37-3.33,3.35-1.47-.02-2.76-1.35-2.74-2.83,.02-1.64,1.74-3.37,3.34-3.36,1.45,0,2.75,1.36,2.73,2.84Z"/><path d="M625.65,719.49c1.59,.01,2.78,1.2,2.74,2.73-.06,1.76-1.83,3.33-3.68,3.25-1.58-.06-2.53-1.03-2.54-2.56-.02-1.81,1.64-3.44,3.48-3.42Z"/><path d="M402.64,797.45c1.74-.06,2.85,1.04,2.89,2.84,.04,1.86-1.16,3.19-2.89,3.22-1.65,.03-2.9-1.19-2.94-2.87-.05-1.79,1.2-3.14,2.95-3.19Z"/><path d="M739.6,692.64c-1.77,.03-3.02-1.25-3.03-3.09,0-1.67,1.22-2.97,2.84-3.01,1.63-.04,3.07,1.43,3.07,3.14,0,1.64-1.25,2.93-2.89,2.96Z"/><path d="M402.09,758.4c-1.82-.1-3.17-1.47-3.08-3.12,.09-1.65,1.33-2.61,3.22-2.48,1.76,.12,2.98,1.31,2.97,2.9-.02,1.61-1.38,2.8-3.1,2.71Z"/><path d="M444.75,744.13c0,1.54-.98,2.57-2.51,2.63-1.82,.07-3.36-1.4-3.33-3.19,.02-1.49,1.08-2.62,2.51-2.68,1.73-.08,3.33,1.49,3.33,3.25Z"/><path d="M467.7,504.24c.02,1.57-1.12,2.73-2.71,2.75-1.79,.02-3.42-1.51-3.38-3.19,.04-1.55,1.2-2.56,2.89-2.53,1.84,.03,3.17,1.27,3.2,2.97Z"/><path d="M464.36,786.42c-1.58,.02-2.76-1.11-2.77-2.65-.02-1.65,1.41-3.08,3.08-3.1,1.51-.02,2.79,1.2,2.81,2.67,.02,1.6-1.46,3.07-3.12,3.09Z"/><path d="M699.88,703.67c1.82-.02,3,1.07,2.98,2.74-.02,1.57-1.09,2.59-2.79,2.66-1.82,.08-3.08-.97-3.13-2.6-.05-1.64,1.15-2.79,2.94-2.8Z"/><path d="M574.01,768.19c.04,1.64-1,2.87-2.53,2.96-1.64,.11-2.86-1.11-2.9-2.89-.04-1.71,.96-2.88,2.51-2.96,1.66-.08,2.88,1.12,2.92,2.88Z"/><path d="M584.69,726.91c-1.52-.02-2.85-1.48-2.77-3.03,.07-1.47,1.42-2.71,2.85-2.62,1.43,.09,2.65,1.43,2.64,2.9,0,1.5-1.27,2.78-2.72,2.75Z"/><path d="M456.22,657.19c.06,1.66-1.17,3.02-2.74,3.03-1.51,.01-2.63-1.17-2.63-2.79,0-1.64,1.03-2.77,2.59-2.84,1.59-.07,2.72,.99,2.78,2.6Z"/><path d="M385.92,722.07c-1.62-.01-2.7-1.13-2.65-2.73,.05-1.58,1.17-2.61,2.82-2.6,1.67,.01,2.71,1.08,2.64,2.7-.06,1.57-1.21,2.64-2.81,2.63Z"/><path d="M719.67,652.04c0,1.57-1.22,2.79-2.74,2.72-1.39-.06-2.53-1.22-2.59-2.64-.07-1.57,1.1-2.85,2.61-2.86,1.51,0,2.72,1.23,2.72,2.78Z"/><path d="M596.1,656.65c1.53-.03,2.59,.97,2.64,2.49,.05,1.55-1.15,2.84-2.65,2.85-1.37,0-2.63-1.19-2.7-2.55-.08-1.5,1.15-2.77,2.71-2.8Z"/><path d="M636.7,766.47c-.04,1.56-1.27,2.66-2.85,2.56-1.49-.09-2.44-1.17-2.4-2.7,.05-1.59,1.27-2.7,2.82-2.59,1.42,.11,2.47,1.28,2.43,2.72Z"/><path d="M688,576.46c.04,1.5-.99,2.61-2.48,2.67-1.6,.07-2.78-1.09-2.75-2.7,.03-1.47,1.13-2.52,2.63-2.53,1.49-.01,2.56,1.05,2.6,2.56Z"/><path d="M573.56,533.42c-.7,.16-1.38,.43-2.12,.28-1.53-.33-2.45-1.73-2.1-3.23,.32-1.36,1.66-2.17,3.12-1.89,1.43,.27,2.26,1.51,2.03,3-.12,.75-.59,1.3-.98,1.9l.05-.04Z"/><path d="M599.09,521.78c-1.41-.03-2.52-1.16-2.53-2.6-.02-1.48,1-2.53,2.51-2.56,1.58-.04,2.79,1.16,2.7,2.67-.08,1.37-1.3,2.52-2.67,2.49Z"/><path d="M506.1,485.7c1.21,.03,2.39,1.29,2.37,2.52-.02,1.23-1.26,2.46-2.45,2.43-1.24-.02-2.35-1.22-2.33-2.52,.02-1.3,1.18-2.47,2.41-2.44Z"/><path d="M472.55,344.23c.08,1.95-.49,3.14-2.04,3.53-1.4,.36-2.47-.29-3.2-1.5-.19-.31-.37-.63-.47-.98-2.41-7.89-5.39-15.59-7.39-23.61-.18-.71-.35-1.42-.25-2.15,.18-1.26,.8-2.23,2.12-2.53,1.27-.29,2.35,.09,3.08,1.19,.29,.44,.5,.96,.66,1.48,2.39,7.71,4.77,15.42,7.14,23.13,.18,.6,.28,1.23,.33,1.44Z"/><path d="M449.63,367.48c-.03,2.18-2.08,3.41-4.02,2.39-.83-.43-1.37-1.17-1.88-1.93-3.64-5.42-7.29-10.84-10.92-16.27-.7-1.05-1.41-2.12-1.61-3.42-.19-1.26,.02-2.4,1.2-3.07,1.26-.72,2.46-.41,3.48,.56,.33,.31,.6,.68,.85,1.06,3.92,5.89,7.84,11.78,11.74,17.68,.6,.9,1.19,1.84,1.15,3Z"/><path d="M504.29,326.87c-.56,2.61-.61,5.23-.67,7.86,0,.36-.01,.73-.05,1.08-.28,2.39-1.5,3.76-3.24,3.63-1.64-.12-2.55-1.41-2.56-3.83-.02-5.89,.32-11.76,.69-17.63,.03-.53,.16-1.08,.34-1.58,.5-1.43,1.48-2.29,3.07-2.1,1.61,.2,2.38,1.27,2.4,2.8,.05,3.26,.02,6.51,.02,9.77Z"/><path d="M543.48,330c.03,.74-.19,1.43-.5,2.09-1.3,2.79-2.59,5.59-3.93,8.36-.27,.56-.66,1.1-1.13,1.51-.86,.76-1.86,1.12-3,.58-1.09-.52-1.66-1.37-1.63-2.59,.01-.45-.01-.94,.14-1.34,1.33-3.46,2.77-6.89,4.49-10.18,.24-.46,.69-.86,1.13-1.15,.99-.65,2.06-.67,3.08-.06,1.04,.62,1.42,1.6,1.33,2.78Z"/></svg>