<?xml version="1.0" encoding="UTF-8"?><svg id="Layer_1" xmlns="http://www.w3.org/2000/svg" viewBox="0 0 1200 1200"><path d="M465.42,530.35c13.95-5.03,28.01-9.53,41.78-13.88,.49-.81,.38-1.26,.24-1.69-2.21-6.83-2.01-13.8-1.15-20.79,.93-7.48,2.6-14.85,3.27-22.37,.3-3.37,.29-6.72-.3-10.05-.74-4.14-2.58-7.72-5.5-10.76-2.09-2.17-4.49-3.97-6.88-5.78-2.47-1.86-4.96-3.69-7.34-5.66-7.07-5.88-10.43-13.56-10.82-22.65-.3-7.04,.71-13.96,1.95-20.85,1.33-7.42,3.04-14.77,3.8-22.28,.46-4.54,.55-9.07-.29-13.58-.93-5.04-3.15-9.48-6.49-13.32-3.22-3.7-6.59-7.28-9.87-10.93-5.52-6.14-10.17-12.82-12.74-20.76-3.83-11.85-4.09-23.91-1.92-36.09,.11-.62,.3-1.24,.54-1.83,.69-1.7,1.92-2.48,3.32-2.18,1.42,.3,2.27,1.55,2.17,3.33-.05,.9-.24,1.8-.37,2.7-1.28,9.58-.7,19.04,1.83,28.36,1.87,6.87,5.33,12.93,10,18.26,3.83,4.37,7.87,8.56,11.78,12.87,5.06,5.58,8.46,12.01,9.64,19.51,.92,5.89,.6,11.78-.15,17.66-1.1,8.66-3.18,17.14-4.41,25.78-.75,5.32-1.19,10.65-.5,16.02,.74,5.69,3.39,10.3,7.75,13.95,1.6,1.34,3.27,2.61,4.93,3.88,1.51,1.16,3.05,2.3,4.59,3.42,10.58,7.68,14.41,18.22,13.31,30.97-.68,7.98-2.34,15.81-3.32,23.74-.61,4.89-.81,9.79,.26,14.65,.23,1.04,.33,2.16,1.37,3.11,25.31-6.34,50.72-12.71,76.41-17.25,.64-1.28,.31-2.35,.15-3.41-1.16-7.8-4.61-14.48-9.95-20.23-2.85-3.07-6-5.82-9.21-8.5-3.28-2.74-6.56-5.47-9.64-8.44-8.78-8.49-11.64-18.74-9.41-30.62,1.16-6.18,3.08-12.14,4.91-18.13,1.33-4.34,2.53-8.71,3.15-13.23,.78-5.69-.26-11.03-2.59-16.18-1.61-3.58-3.6-6.97-5.96-10.07-11.76-15.46-17.21-33.45-21.02-52.1-1.02-4.98-1.75-10.02-2.56-15.03-.19-1.16-.23-2.36-.19-3.53,.05-1.43,.84-2.39,2.27-2.68,1.52-.31,2.68,.29,3.39,1.66,.42,.81,.58,1.71,.73,2.61,2.33,13.53,5.42,26.86,10.12,39.8,2.66,7.32,6.1,14.16,10.55,20.53,2.29,3.28,4.48,6.62,6.65,9.99,6.57,10.21,8.1,21.19,5.05,32.91-1.62,6.25-3.79,12.33-5.42,18.56-.99,3.78-1.8,7.59-1.99,11.52-.3,6.11,1.57,11.44,5.52,16.09,2.42,2.85,5.21,5.32,8.05,7.74,3.73,3.18,7.52,6.31,11,9.78,7.71,7.7,12.69,16.75,13.79,27.73,.06,.62,.08,1.28,.81,1.87,3.48,.02,7.02-.85,10.61-1.28,9.83-1.19,19.67-2.15,29.56-2.76,14.52-.89,29.03-1.65,43.58-1.54,11.47,.09,22.88,.78,34.12,3.28,4.53,1.01,8.96,2.37,13.16,4.38,3.48,1.66,6.62,3.8,9.09,6.81,.46,.56,.92,1.12,1.6,1.45,2.6,1.24,3.97,3.45,4.53,6.13,2.27,10.84,5.88,21.37,7.4,32.37,.46,3.33,.94,6.65,1.4,9.98,.12,.89,.03,1.83,.82,2.67,1.07-.27,1.69-1.21,2.46-1.9,10.12-9.16,21.15-16.92,34.01-21.76,6.78-2.55,13.75-3.92,21.08-3.3,11.51,.96,20.18,6.58,26.77,15.79,4.51,6.3,7.21,13.42,9.18,20.84,3.68,13.84,4.36,27.96,3.64,42.18-1.36,26.73-8.05,52.37-15.86,77.78-2.56,8.34-5.48,16.55-8.91,24.58-6.15,14.39-14.67,27.14-25.79,38.16-2,1.98-3.96,4.01-5.95,6.01-2.96,2.95-5.02,6.39-6.06,10.48-1.6,6.28-4.71,11.78-8.9,16.69-2.44,2.87-5.22,5.34-8.72,6.84-1.6,.68-2.31,1.73-2.63,3.43-2.05,10.91-5.29,21.49-8.82,32.02-7.16,21.35-21.32,36.69-40.35,47.91-12.7,7.49-26.12,13.6-39.76,19.12-25.35,10.26-51.1,19.43-77.62,26.25-13.03,3.35-26.22,5.91-39.61,7.24-22.53,2.24-44.45-.09-65.46-8.98-9.31-3.94-17.52-9.56-24.93-16.39-10.64-9.81-19.25-21.28-27.12-33.34-32.13-49.28-57.48-101.82-75.75-157.77-8.18-25.03-16.96-49.86-24.23-75.18-.66-2.28-1.43-4.52-.43-6.91,.16-.38,.08-.91-.01-1.34-1.27-5.62,.16-10.82,2.5-15.85,2.79-5.98,6.67-11.24,11.02-16.17,7.14-8.08,15.31-15,24.06-21.27,21.33-15.29,44.44-27.2,69.03-36.31,.17-.06,.35-.11,.52-.17,3.95-1.49,3.85-1.48,3.36-5.84-.82-7.25-.63-14.52,.03-21.78,.34-3.8,.7-7.6,.98-11.4,.45-6.18-1.07-11.88-4.23-17.19-1.92-3.21-4.11-6.21-6.35-9.19-2.67-3.57-5.3-7.16-8.02-10.69-7.96-10.34-12.22-22.15-14.23-34.95-2.04-12.99-2.41-26.04-1.96-39.14,.29-8.54,.61-17.08,.9-25.62,.05-1.46,.09-2.92,.56-4.31,.49-1.48,1.58-2.19,3.14-2.05,1.45,.13,2.37,.97,2.58,2.38,.17,1.16,.15,2.35,.13,3.53-.18,12-.71,23.99-.57,35.99,.13,11.48,1.2,22.85,3.66,34.08,1.85,8.47,5.13,16.27,10.27,23.25,3.56,4.83,7.19,9.6,10.8,14.4,1.97,2.62,3.86,5.28,5.57,8.08,4.54,7.39,6.23,15.39,5.38,24.02-.61,6.24-1.41,12.46-1.6,18.74-.1,3.46,.13,6.91,.35,10.35,.06,.89,.13,1.81,.91,3.01Zm277.09-5.32c-.44,.59-.65,.78-.75,1.01-4.01,9.36-10.32,17.06-17.39,24.22-9.36,9.48-20.36,16.71-32,22.98-32.46,17.47-66.83,30.26-102.18,40.35-26.1,7.45-52.63,13.27-79.02,19.61-25.08,6.03-50.31,11.29-76.1,13.35-15.81,1.26-31.59,1.52-47.33-.65-11.21-1.54-22.22-3.87-32.08-9.85-.2-.12-.5-.1-.84-.16-.34,1.3,.33,2.37,.67,3.45,4.95,15.86,10.38,31.57,15.62,47.33,8.54,25.69,17.4,51.26,28.09,76.15,14.01,32.65,31.21,63.6,50.21,93.57,6.73,10.61,14.01,20.79,22.39,30.19,13.42,15.04,29.99,24.34,49.66,28.6,17.61,3.82,35.19,3.48,52.82,.66,17.7-2.83,35.01-7.27,52.02-12.89,26.49-8.76,52.76-18.04,77.86-30.39,11.48-5.65,22.38-12.06,31.73-20.93,5.94-5.63,10.89-11.97,14.33-19.4,8.94-19.33,14.02-39.72,15.87-60.88,1.56-17.8,.32-35.61-.6-53.4-.74-14.43-1.68-28.84-2.57-43.26-.64-10.34-1.69-20.64-2.96-30.91-1.22-9.82-2.37-19.65-3.57-29.48-1-8.2-1.96-16.41-3.05-24.6-1.27-9.54-2.87-19.03-4.1-28.58-1.18-9.18-2.19-18.4-4.29-27.44-.65-2.8-1.17-5.65-2.43-8.65Zm-283.67,14.59c-.96-.07-1.7,.32-2.45,.6-16.36,6.12-32.25,13.27-47.27,22.24-13.05,7.79-25.69,16.17-36.8,26.64-5.57,5.25-10.69,10.91-14.71,17.47-2.09,3.42-3.86,6.98-4.65,10.98-.9,4.57,.53,8.22,4.05,11.14,2.26,1.87,4.82,3.24,7.51,4.36,8.55,3.58,17.59,5.1,26.71,6.25,1.11,.14,1.88-.19,2.58-1.09,6.08-7.82,13.68-14.05,21.41-20.1,23.41-18.33,49.26-32.47,76.52-44.12,38.55-16.48,78.4-28.67,119.76-35.73,13.8-2.36,27.7-3.82,41.69-4.47,14.26-.66,28.29,1.1,42.22,3.93,8.15,1.66,16.59,2.36,23.54,7.24,.72-.07,1.04-.41,1.35-.73,5.09-5.23,9.73-10.81,13.18-17.28,1.63-3.06,2.92-6.26,3.56-9.68,.84-4.52-.03-8.49-3.8-11.5-1.43-1.14-2.96-2.11-4.6-2.9-3.53-1.71-7.26-2.89-11.07-3.77-10.68-2.48-21.56-3.13-32.48-3.24-17.18-.17-34.33,.83-51.46,2.05-9.52,.68-18.99,1.73-28.42,3.15-5.17,.77-5.14,.88-5.54,6.06-.34,4.36-1.14,8.64-2.18,12.87-.56,2.29-2.17,3.25-3.96,2.5-1.45-.61-1.88-1.86-1.89-3.32-.02-2.65,.64-5.23,.84-7.85,.2-2.67,.73-5.35,.32-8.2-3.85,.27-7.37,1.14-10.94,1.69-7.82,1.22-15.38,3.54-23.09,5.24-12.05,2.67-24.18,4.94-36.1,8.19-1.06,.29-2.36,.24-3.12,1.51,1.02,1.48,2.44,2.48,3.78,3.54,1.78,1.41,3.67,2.69,5.38,4.17,1.61,1.39,1.83,3.19,.83,4.62-.95,1.35-2.6,1.84-4.38,.9-4.59-2.41-9.18-4.93-12.54-8.99-1.48-1.79-2.76-2.06-4.88-1.38-12.79,4.13-25.59,8.2-38.23,12.78-1.01,.37-2.11,.56-2.9,1.28-.38,.79-.15,1.51,.06,2.18,.93,3.05,2.05,6.01,3.69,8.77,.85,1.43,1.72,2.63,3.63,2.92,1.67,.26,2.44,1.84,2.16,3.54-.44,2.75-3.08,4.14-5.81,3.05-1.74-.7-3.03-1.98-4.19-3.39-2.69-3.27-4.49-7.02-5.93-10.97-.37-1.01-.5-2.13-1.38-3.15Zm306.88,88.87c1.29-.04,1.7-1.05,2.24-1.84,1.12-1.67,1.89-3.51,2.63-5.37,3.81-9.54,4.38-19.41,3.01-29.48-1.14-8.34,1.65-14.97,8.59-19.84,4.53-3.17,9.52-5.31,14.9-6.45,11.8-2.48,21.51,2.48,26.47,13.48,.74,1.65,1.35,3.38,1.85,5.12,1.61,5.54,2.06,11.27,2.09,16.99,.1,15.92-2.27,31.51-6.69,46.79-5.85,20.18-14.67,39.08-24.73,57.44-5.37,9.8-10.89,19.52-17.53,28.55-.86,1.17-1.56,2.63-2.83,3.27-1.98,1-2.01,2.54-1.92,4.34,.57,12,.44,23.98-.77,35.95-.06,.58-.38,1.26,.33,1.77,1.06-.2,1.6-1.11,2.25-1.81,3.73-4.07,6.73-8.6,8.08-14.03,1.47-5.92,4.54-10.84,8.85-15.07,1.75-1.72,3.44-3.5,5.18-5.23,10.51-10.45,18.79-22.45,24.28-36.21,11.5-28.8,19.84-58.46,23.33-89.35,1.62-14.33,1.57-28.66-1.12-42.89-1.63-8.61-4.04-16.98-8.89-24.42-6.39-9.81-15.4-14.62-27.17-13.95-2.81,.16-5.6,.62-8.31,1.42-16.19,4.8-29.42,14.36-41.4,25.9-1.11,1.07-1.28,2.28-1.05,3.72,2.78,17.67,5.28,35.37,7.1,53.17,.27,2.67,.31,5.42,1.22,8.03Zm1.12,7.56c-.42,.97-.25,1.78-.14,2.59,2.06,14.67,3.23,29.42,4.11,44.19,.85,14.33,1.58,28.66,2.39,42.99,.05,.91-.14,1.96,.8,2.7,1.21-1.08,1.83-2.41,2.57-3.64,10.38-17.31,19.83-35.11,27.77-53.68,6.06-14.15,10.79-28.73,13.34-43.95,2.02-12.05,3-24.16,1.44-36.36-.53-4.18-1.71-8.19-3.98-11.78-2.57-4.08-6.19-6.74-11.09-6.96-7.72-.35-14.41,2.38-20.13,7.51-2.29,2.05-3.28,4.69-3.29,7.78-.01,3.02,.5,5.97,.8,8.95,1.09,10.66-.67,20.82-5.13,30.52-1.97,4.29-4.35,8.26-9.46,9.13Z"/><path d="M462.05,826.37c-3.08-.06-6.16,.23-9.22-.42-1.09-.23-2.12-.54-2.93-1.31-.92-.87-1.39-1.94-.91-3.19,.47-1.2,1.43-2.04,2.72-1.87,6.32,.82,12.68,.11,19.01,.52,1.89,.12,2.95,1.32,2.96,2.93,0,1.54-.85,2.53-2.68,2.89-2.96,.58-5.97,.33-8.95,.46Z"/><path d="M469.3,843.1c-1.99-.12-3.99-.25-5.98-.34-1.28-.06-2.54-.28-3.72-.75-1.54-.61-2.37-2.09-2.01-3.46,.41-1.55,1.56-2.18,3.08-2.11,1.99,.1,3.98,.36,5.97,.42,3.09,.1,6.17,.17,9.23,.64,2.11,.33,3.2,1.78,2.74,3.58-.4,1.56-1.56,2.17-3.05,2.19-2.09,.04-4.17,0-6.26,0,0-.06,0-.13,0-.19Z"/><path d="M483.6,861.69c-3.52-.65-7.36-.13-11.11-.91-1.35-.28-2.64-.65-3.65-1.65-1-.98-1.33-2.18-.73-3.47,.57-1.24,1.73-1.63,2.97-1.35,4.08,.91,8.25,.88,12.38,1.27,.36,.03,.72,.1,1.07,.18,2.48,.51,3.57,1.67,3.28,3.48-.27,1.62-1.72,2.53-4.21,2.45Z"/></svg>