<?xml version="1.0" encoding="UTF-8" standalone="no"?>
<!DOCTYPE svg PUBLIC "-//W3C//DTD SVG 1.1//EN" "http://www.w3.org/Graphics/SVG/1.1/DTD/svg11.dtd">
<svg width="100%" height="100%" viewBox="0 0 1749 1749" version="1.1" xmlns="http://www.w3.org/2000/svg" xmlns:xlink="http://www.w3.org/1999/xlink" xml:space="preserve" xmlns:serif="http://www.serif.com/" style="fill-rule:evenodd;clip-rule:evenodd;stroke-linecap:round;stroke-linejoin:round;stroke-miterlimit:1.5;">
    <g id="Слой1">
        <path d="M925.551,1479.45C1004.35,1547.99 1060.14,1533.83 1093.38,1438.65L1089.95,1387.41L1102.47,1327.55L1101.77,1283.1C1068.49,1198.87 1022.92,1143.09 967.493,1104.57C828.607,1011.34 692.792,1023.4 558.468,1086.6C434.226,1148.65 334.973,1231.38 326.146,1370.45C325.346,1495.62 376.662,1578.21 477.894,1628.96C566.231,1656.31 653.878,1671.74 740.323,1666.43C858.524,1654.97 860.119,1569.83 778.651,1529.49L741.563,1511.61C652.637,1503.79 585.27,1474.18 581.712,1400.37C622.878,1315.65 679.528,1276.1 756.097,1278.74C819.567,1262.25 855.039,1276.49 868.21,1315.47C877.33,1349.02 894.19,1376.96 916.708,1400.8C907.937,1432.04 912.369,1457.62 925.551,1479.45Z" style="fill:none;stroke:black;stroke-width:8.33px;"/>
        <path d="M511.581,1372.59C474.929,1143.78 889.847,1104.79 938.75,1260.67" style="fill:none;stroke:black;stroke-width:8.33px;"/>
        <path d="M949.12,883.603C1045.54,1003.05 1066.5,1076.49 924.089,1050.31L866.469,1017.88C837.325,979.504 793.332,956.604 759.204,918.666C724.679,863.128 711.269,804.488 710.639,743.847C726.131,648.291 769.301,590.584 835.303,564.099C913.32,547.795 986.479,548.485 1050.3,581.833L1084.75,600.339C1118.99,620.164 1152.94,635.188 1186.1,636.359C1227.45,671.633 1265.39,711.154 1289.17,768.296C1313.09,829.317 1312.26,893.6 1303.04,958.99C1293.54,1029.07 1256.77,1063.92 1190.55,1060.7L1167.23,1045.31L1148.14,1044.13L1126.69,1040.15L1109.17,1032.41C1097.96,1010.23 1099.29,981.981 1110.71,948.854L1105.66,931.816C1132.53,881.749 1127.75,842.301 1096.4,810.588C1056.22,761.49 1005.77,747.694 949.413,754.297C897.799,760.843 913.141,814.901 949.12,883.603Z" style="fill:none;stroke:black;stroke-width:8.33px;"/>
        <path d="M1166.89,772.56C1159.99,672.756 989.135,611.352 930.517,678.82" style="fill:none;stroke:black;stroke-width:8.33px;"/>
        <path d="M1168.67,855.36C1136.17,949.698 1148.73,1025.05 1232.23,985.445" style="fill:none;stroke:black;stroke-width:8.33px;"/>
        <path d="M1187.87,630.275L1186.01,607.588L1190.87,576.383L1177.3,548.754C963.51,394.464 940.036,368.808 1102.47,468.806" style="fill:none;stroke:black;stroke-width:8.33px;"/>
        <path d="M1030.52,567.959L902.138,473.771C853.725,428.171 878.675,398.597 951.33,378.656L1009.84,387.373C1090.28,418.27 1162.05,463.547 1221.22,519.791L1269.02,561.852C1330.81,590.12 1377.88,631.13 1404.54,689.813L1414.98,727.336C1421.09,780.031 1414.86,781.118 1366.42,772.56C1315.29,763.525 1283.81,715.375 1262.94,711.495" style="fill:none;stroke:black;stroke-width:8.33px;"/>
        <path d="M1273.5,667.709C1306.62,642.49 1253.82,583.799 1213.96,565.805" style="fill:none;stroke:black;stroke-width:8.33px;"/>
        <path d="M984.504,921.185C1041.79,897.942 1058.67,845.57 1052.11,775.968" style="fill:none;stroke:black;stroke-width:8.33px;"/>
        <path d="M693.849,800.072C707.069,907.949 705.739,958.653 572.391,935.719" style="fill:none;stroke:black;stroke-width:8.33px;"/>
        <path d="M572.391,935.719C633.885,890.418 675.919,845.196 693.849,800.072L709.857,755.67C718.675,698.17 709.772,649.772 672.076,616.757C674.386,593.528 567.727,590.636 571.157,604.929C576.333,601.996 545.314,624.219 545.314,624.219L538.925,651.447L549.735,685.503L567.222,640.957C560.423,676.569 543.63,701.73 519.891,729.27C512.875,752.425 494.559,762.652 473.687,769.955C446.065,774.081 420.248,787.461 395.738,807.541C369.818,816.178 330.043,809.172 309.15,797.937L326.313,804.925C336.989,796.224 342.448,784.28 341.254,769.095C357.806,755.695 363.39,739.557 362.506,721.66C402.363,684.717 379.819,660.923 337.333,641.332C257.367,620.296 189.526,673.518 130.135,777.274L118.418,855.606C101.316,942.908 126.704,992.105 182.756,1010.75C264.04,1047.4 337.506,1055.19 399.295,1019.84L423.439,1022.25C485.978,999.034 534.395,969.652 572.391,935.719Z" style="fill:none;stroke:black;stroke-width:8.33px;"/>
        <path d="M473.687,769.955C464.028,724.309 487.85,685.213 538.925,651.447" style="fill:none;stroke:black;stroke-width:8.33px;"/>
        <path d="M344.76,638.805C538.042,566.103 680.341,447.002 685.226,364.13C669.944,305.318 624.812,298.266 565.734,315.396C510.253,332.488 459.549,359.419 417.792,404.78L381.262,469.274C429.412,420.442 481.374,383.127 538.706,362.039" style="fill:none;stroke:black;stroke-width:8.33px;"/>
        <path d="M381.262,469.274L358.026,497.601C358.026,497.601 333.632,527.182 330.377,523.617C322.458,514.94 166.83,593.567 174.437,605.925C160.682,641.801 163.291,673.46 189.824,692.458" style="fill:none;stroke:black;stroke-width:8.33px;"/>
        <path d="M681.771,621.129L695.465,614.71C719.251,622.733 742.156,622.134 764.391,614.97" style="fill:none;stroke:black;stroke-width:8.33px;"/>
        <path d="M957.256,548.91L960.097,522.108" style="fill:none;stroke:black;stroke-width:8.33px;"/>
        <path d="M547.106,619.648C535.363,625.728 518.655,626.333 495.953,620.332C481.183,609.126 481.417,593.593 490.016,575.647" style="fill:none;stroke:black;stroke-width:8.33px;"/>
        <path d="M592.141,498.01C709.755,512.821 817.234,512.955 897.245,473.307" style="fill:none;stroke:black;stroke-width:8.33px;"/>
        <path d="M863.272,472.862C699.213,491.304 715.181,423.704 877.375,418.083" style="fill:none;stroke:black;stroke-width:8.33px;"/>
        <path d="M612.21,485.265C799.007,485.992 714.002,431.785 652.985,441.853" style="fill:none;stroke:black;stroke-width:8.33px;"/>
        <path d="M1405.29,1520.43L1671.04,944.36L1306.63,814.262" style="fill:none;stroke:black;stroke-width:8.33px;"/>
        <path d="M1405.29,1520.43L1295.96,1747.96" style="fill:none;stroke:black;stroke-width:8.33px;"/>
        <path d="M-21.879,1544.27L660.729,1802.48L-21.879,1544.27Z" style="fill:none;stroke:black;stroke-width:8.33px;"/>
        <path d="M151.464,1002.83L-21.879,1544.27L92.766,1585.64L276.538,1046.79" style="fill:none;stroke:black;stroke-width:8.33px;"/>
        <path d="M196.539,1612.23L391.578,1030.63" style="fill:none;stroke:black;stroke-width:8.33px;"/>
        <path d="M297.239,1656.84L353.411,1512.01" style="fill:none;stroke:black;stroke-width:8.33px;"/>
        <path d="M509.814,1110.58L582.103,934.703" style="fill:none;stroke:black;stroke-width:8.33px;"/>
        <path d="M416.583,1707.57L454.508,1616.74" style="fill:none;stroke:black;stroke-width:8.33px;"/>
        <path d="M691.126,1038.09L743.737,893.435" style="fill:none;stroke:black;stroke-width:8.33px;"/>
        <path d="M541.21,1770.59L585.166,1660.42" style="fill:none;stroke:black;stroke-width:8.33px;"/>
        <path d="M656.124,1491.54L746.834,1281.46" style="fill:none;stroke:black;stroke-width:8.33px;"/>
        <path d="M846.068,1046.18L861.643,1015.85" style="fill:none;stroke:black;stroke-width:8.33px;"/>
        <path d="M679.953,1759.28L720.788,1672.22" style="fill:none;stroke:black;stroke-width:8.33px;"/>
        <path d="M786.029,1523.15C781.285,1527.18 868.748,1324.93 868.748,1324.93" style="fill:none;stroke:black;stroke-width:8.33px;"/>
        <path d="M965.866,1103.92L983.659,1059.99" style="fill:none;stroke:black;stroke-width:8.33px;"/>
        <path d="M1018.22,980.508L1087.53,807.517" style="fill:none;stroke:black;stroke-width:8.33px;"/>
        <path d="M812.966,1758.3L940.631,1488.2" style="fill:none;stroke:black;stroke-width:8.33px;"/>
        <path d="M1063.35,1199.12L1134.28,1037.82" style="fill:none;stroke:black;stroke-width:8.33px;"/>
        <path d="M924.554,1748.61L1030.38,1521.5" style="fill:none;stroke:black;stroke-width:8.33px;"/>
        <path d="M1090.74,1392.12L1253.61,1047.36" style="fill:none;stroke:black;stroke-width:8.33px;"/>
        <path d="M1304.85,940.288L1350.81,837.43" style="fill:none;stroke:black;stroke-width:8.33px;"/>
        <path d="M1037.71,1756.75L1457.61,874.214" style="fill:none;stroke:black;stroke-width:8.33px;"/>
        <path d="M1157.54,1767.95L1564.47,910.835" style="fill:none;stroke:black;stroke-width:8.33px;"/>
        <path d="M21.092,1418.31L384.398,1564.87" style="fill:none;stroke:black;stroke-width:8.33px;"/>
        <path d="M644.317,1663.62L899.032,1754.03" style="fill:none;stroke:black;stroke-width:8.33px;"/>
        <path d="M52.519,1305.64L323.466,1415.16" style="fill:none;stroke:black;stroke-width:8.33px;"/>
        <path d="M837.581,1619.68L1274.3,1766.31" style="fill:none;stroke:black;stroke-width:8.33px;"/>
        <path d="M93.352,1190.59L342.761,1284.51" style="fill:none;stroke:black;stroke-width:8.33px;"/>
        <path d="M592.504,1384.06L1328.44,1670.06" style="fill:none;stroke:black;stroke-width:8.33px;"/>
        <path d="M127.639,1094.72L410.738,1191.13" style="fill:none;stroke:black;stroke-width:8.33px;"/>
        <path d="M670.102,1295.25L910.209,1392.29" style="fill:none;stroke:black;stroke-width:8.33px;"/>
        <path d="M1088.13,1462.44L1370.14,1572.87" style="fill:none;stroke:black;stroke-width:8.33px;"/>
        <path d="M274.407,1043.09L505.625,1116.24" style="fill:none;stroke:black;stroke-width:8.33px;"/>
        <path d="M1102.62,1332.6L1422.21,1459.21" style="fill:none;stroke:black;stroke-width:8.33px;"/>
        <path d="M494.725,991.126L660.973,1047.28" style="fill:none;stroke:black;stroke-width:8.33px;"/>
        <path d="M1061.45,1200.47L1469.76,1358.85" style="fill:none;stroke:black;stroke-width:8.33px;"/>
        <path d="M650.067,939.104L917.858,1048.21" style="fill:none;stroke:black;stroke-width:8.33px;"/>
        <path d="M1525.41,1255.98L917.858,1048.21" style="fill:none;stroke:black;stroke-width:8.33px;"/>
        <path d="M690.34,823.375L722.013,837.435" style="fill:none;stroke:black;stroke-width:8.33px;"/>
        <path d="M994.522,946.451L1090.75,980.538" style="fill:none;stroke:black;stroke-width:8.33px;"/>
        <path d="M1274.44,1037.46L1564.74,1149.96" style="fill:none;stroke:black;stroke-width:8.33px;"/>
        <path d="M1046.31,864.277L1110.34,888.39" style="fill:none;stroke:black;stroke-width:8.33px;"/>
        <path d="M1310.91,948.796L1620.8,1055.52" style="fill:none;stroke:black;stroke-width:8.33px;"/>
    </g>
</svg>
