<?xml version="1.0" encoding="UTF-8" standalone="no"?>
<!DOCTYPE svg PUBLIC "-//W3C//DTD SVG 1.1//EN" "http://www.w3.org/Graphics/SVG/1.1/DTD/svg11.dtd">
<svg width="100%" height="100%" viewBox="0 0 1749 1749" version="1.1" xmlns="http://www.w3.org/2000/svg" xmlns:xlink="http://www.w3.org/1999/xlink" xml:space="preserve" xmlns:serif="http://www.serif.com/" style="fill-rule:evenodd;clip-rule:evenodd;stroke-linecap:round;stroke-linejoin:round;stroke-miterlimit:1.5;">
    <g id="Слой1">
        <path d="M432.409,696.71C388.692,1078.36 959.342,924.897 744.711,642.954C900.516,584.041 769.262,435.787 683.182,566.873C672.059,582.234 659.46,573.499 647.276,556.055C674.046,528.732 687.989,509.268 694.567,477.292C722.827,452.325 721.867,395.158 676.023,393.463C643.382,392.257 625.153,393.26 589.258,383.518C529.159,380.655 477.976,400.295 431.808,433.801C355.289,494.994 391.876,537.907 433.045,511.247C445.085,493.107 461.352,477.859 479.386,467.185C492.029,459.702 505.54,454.466 519.072,452.058C539.412,442.918 559.552,440.985 579.584,442.985C632.09,440.306 668.367,453.642 694.567,477.292" style="fill:none;stroke:black;stroke-width:8.33px;"/>
        <path d="M646.306,392.483C658.745,344.61 646.925,321.541 602.949,316.249C555.832,305.557 503.272,319.872 446.511,353.482C416.761,375.834 432.096,400.009 453.502,418.701" style="fill:none;stroke:black;stroke-width:8.33px;"/>
        <path d="M493.494,572.872C462.54,565.835 435.54,552.423 443.041,501.027" style="fill:none;stroke:black;stroke-width:8.33px;"/>
        <path d="M493.494,572.872L539.604,572.751L584.21,587.018L582.437,603.138C556.004,614.359 531.424,608.397 508.48,587.265" style="fill:none;stroke:black;stroke-width:8.33px;"/>
        <path d="M508.48,587.265L493.494,572.872" style="fill:none;stroke:black;stroke-width:8.33px;"/>
        <path d="M579.372,578.303L638.437,543.482L649.632,557.741C649.632,557.741 651.42,558.542 646.299,567.567C633.915,589.395 623.157,603.767 589.428,597.745" style="fill:none;stroke:black;stroke-width:8.33px;"/>
        <path d="M488.991,572.421L486.462,595.905C474.072,604.582 460.631,597.858 447.35,592.305C306.113,533.26 307.372,729.88 429.582,687.099L432.993,696.468" style="fill:none;stroke:black;stroke-width:8.33px;"/>
        <path d="M440.61,804.449C494.09,836.451 530.588,833.062 536.043,764.972C527.575,717.082 490.401,702.869 470.992,724.663C451.302,755.631 452.688,777.185 488.162,783.517L501.411,774.754C505.424,757.986 497.863,752.206 480.714,755.531" style="fill:none;stroke:black;stroke-width:8.33px;"/>
        <path d="M785.585,725.447C771.013,781.713 747.831,791.507 705.084,755.868C686.193,737.219 681.215,706.048 697.211,688.745C723.277,660.55 750.483,668.692 756.57,702.279C760.555,718.5 756.995,726.257 741.108,730.739C729.073,734.134 719.426,722.852 719.426,722.852C717.031,712.446 720.081,711.653 735.374,709.271" style="fill:none;stroke:black;stroke-width:8.33px;"/>
        <path d="M585.877,631.772C585.379,631.093 584.818,630.506 584.176,630.047C580.53,627.432 574.147,624.282 568.105,623.635C564.148,623.211 560.34,623.856 557.368,626.136C555.367,627.671 553.716,629.953 552.698,633.242C548.443,646.987 553.854,656.548 562.945,663.458C571.543,669.992 583.567,674.067 593.313,677.084C594.905,677.577 596.048,679.359 597.063,681.424C598.925,685.213 600.023,690.137 600.51,693.092C600.715,694.33 601.123,696.807 601.123,696.807C601.294,697.845 602.212,698.592 603.262,698.55C604.313,698.507 605.168,697.689 605.255,696.641C605.255,696.641 605.476,693.735 605.241,692.311C604.441,687.461 607.327,682.831 610.58,678.294C615.535,671.381 621.439,661.651 624.31,651.158C627.272,640.33 627.02,628.716 619.545,618.402C615.632,613.002 608.246,612.23 601.378,614.38C594.709,616.466 588.725,621.267 587.172,626.285C586.538,628.333 586.11,630.07 585.877,631.772ZM602.512,683.824C603.655,681.124 605.33,678.466 607.193,675.866C611.909,669.288 617.559,660.044 620.291,650.058C622.931,640.408 622.833,630.039 616.171,620.847C613.274,616.849 607.707,616.765 602.623,618.356C597.341,620.009 592.382,623.543 591.152,627.517C589.609,632.499 589.493,635.391 590.47,641.315C590.486,641.41 590.509,641.528 590.539,641.663C590.928,642.464 591.47,643.766 591.788,644.546C592.509,644.985 592.919,645.839 592.751,646.716C592.594,647.541 592.226,648.01 591.833,648.279C591.29,649.337 589.913,649.473 589.75,649.456C589.547,649.434 588.49,649.32 587.98,648.058C587.748,647.485 587.022,644.902 586.613,643.182C585.581,641.615 584.864,639.482 584.087,637.432C583.482,635.836 582.902,634.259 581.749,633.433C578.549,631.139 572.962,628.346 567.662,627.778C564.814,627.473 562.043,627.801 559.904,629.442C558.497,630.521 557.394,632.162 556.678,634.474C553.06,646.161 557.736,654.266 565.466,660.141C573.69,666.391 585.223,670.218 594.545,673.104C597.046,673.878 599.209,676.343 600.802,679.586C601.453,680.91 602.022,682.359 602.512,683.824ZM587.887,647.394C587.89,647.417 587.893,647.44 587.897,647.465L587.887,647.394Z"/>
        <path d="M613.198,740.057C613.087,739.815 612.975,739.565 612.859,739.31C611.506,736.319 610.163,732.691 608.829,730.849C605.695,726.525 597.706,720.631 590.214,718.844C584.668,717.521 579.43,718.404 576.159,722.966C562.322,742.269 559.677,759.264 565.962,773.15C572.189,786.906 587.375,797.769 609.914,804.746C621.668,808.385 624.934,816.616 631.505,825.685C632.786,827.452 634.204,831.648 634.204,831.648C634.576,832.723 635.74,833.301 636.821,832.948C637.902,832.594 638.499,831.44 638.164,830.353C638.164,830.353 636.847,826.106 636.486,823.919C634.971,814.731 639.607,809.949 645.037,802.375C658.659,783.372 663.112,769.859 666.853,746.428C668.426,736.576 663.645,721.022 654.956,712.583C648.832,706.635 640.879,704.077 631.899,708.811C624.707,712.603 614.793,722.14 612.481,729.611C612.181,730.578 612.15,732.232 612.363,734.249C612.543,735.963 612.876,738 613.198,740.057ZM632.062,819.209C632.501,811.963 636.631,806.948 641.65,799.947C654.838,781.55 659.117,768.455 662.738,745.771C664.143,736.974 659.812,723.108 652.053,715.572C647.212,710.87 640.94,708.755 633.842,712.497C627.455,715.865 618.515,724.208 616.461,730.843C616.187,731.73 616.433,733.452 616.714,735.49C617.225,739.205 618.1,743.774 618.202,747.024C618.257,748.788 618.057,750.236 617.633,751.171C617.087,752.378 616.207,753.043 615.084,753.229C613.949,753.416 612.876,752.647 612.689,751.512C612.621,751.1 612.68,750.695 612.836,750.339C612.671,750.128 612.526,749.877 612.407,749.582C612.203,749.08 612.072,748.314 612.014,747.474C611.976,746.914 611.907,746.015 611.874,745.595C610.922,744.64 609.946,742.979 609.063,741.028C607.831,738.304 606.67,734.971 605.455,733.294C602.731,729.535 595.76,724.45 589.247,722.897C585.454,721.992 581.782,722.274 579.546,725.394C566.828,743.135 563.981,758.669 569.758,771.432C575.593,784.324 590.023,794.227 611.146,800.766C622.144,804.17 626.503,811.067 632.062,819.209Z"/>
        <ellipse cx="523.649" cy="490.931" rx="10.109" ry="9.545" style="fill:rgb(235,235,235);stroke:black;stroke-width:8.33px;"/>
        <g transform="matrix(1,0,0,1,1.23599,-6.50953)">
            <ellipse cx="589.345" cy="485.512" rx="10.074" ry="9.531" style="fill:rgb(235,235,235);stroke:black;stroke-width:8.33px;"/>
        </g>
        <g transform="matrix(-0.238077,-0.971246,1.28956,-0.316103,-35.3217,1213.4)">
            <path d="M525.843,517.684C509.728,517.684 496.645,538.787 496.645,564.779C496.645,590.772 509.728,611.874 525.843,611.874C521.008,600.885 517.083,583.566 517.083,564.779C517.083,545.993 521.008,528.673 525.843,517.684Z" style="fill:none;stroke:black;stroke-width:7.09px;"/>
        </g>
        <path d="M530.248,869.799C530.843,870.727 532.071,871.036 533.038,870.481C534.036,869.909 534.381,868.635 533.809,867.637C533.515,867.124 532.844,866.522 532.106,865.91C531.936,865.769 531.682,865.511 531.542,865.365C531.932,864.155 533.059,863.446 534.346,862.993C536.984,862.063 540.426,862.233 542.453,863.126C546.345,864.84 548.456,866.889 551.951,869.722C552.978,870.555 553.288,871.797 553.295,873.096C553.307,875.618 552.186,878.387 551.13,880.152C549.087,883.566 545.345,886.494 541.2,888.034C537.203,889.519 532.797,889.727 529.205,887.578C520.888,882.601 511.052,873.611 511.276,862.451C511.353,858.615 513.736,854.179 516.951,850.424C520.205,846.625 524.352,843.501 528.156,842.545C532.526,841.447 539.882,843.647 543.626,845.296C544.678,845.76 545.909,845.282 546.372,844.229C546.836,843.177 546.358,841.947 545.306,841.483C540.92,839.551 532.26,837.218 527.141,838.504C522.636,839.636 517.64,843.214 513.786,847.714C509.893,852.26 507.203,857.722 507.11,862.367C506.856,875.031 517.628,885.506 527.065,891.153C531.735,893.947 537.454,893.87 542.651,891.94C547.699,890.065 552.218,886.45 554.706,882.292C556.082,879.991 557.478,876.362 557.461,873.075C557.449,870.501 556.609,868.134 554.575,866.486C550.745,863.382 548.396,861.191 544.132,859.313C541.339,858.082 536.596,857.781 532.961,859.063C530.156,860.052 528.019,861.938 527.402,864.73C527.109,866.056 527.581,867.245 528.51,868.25C529.042,868.825 530.131,869.704 530.248,869.799Z"/>
        <path d="M667.223,889.556L667.211,889.555C665.55,889.417 657.007,888.256 655.906,888.013C649.308,886.555 640.611,886.042 634.383,883.298C628.006,880.49 619.832,877.914 612.934,876.389C602.618,874.11 592.332,868.062 582.482,864.362C574.378,861.317 567.295,855.926 560.591,850.959C553.477,845.69 546.746,840.909 539.819,839.378C538.696,839.13 537.584,839.84 537.335,840.963C537.087,842.086 537.797,843.199 538.92,843.447C545.342,844.866 551.515,849.421 558.11,854.307C565.116,859.497 572.548,865.081 581.017,868.262C591.044,872.029 601.533,878.137 612.035,880.458C618.682,881.927 626.559,884.405 632.704,887.112C639.163,889.957 648.164,890.569 655.007,892.081C656.162,892.337 665.124,893.563 666.866,893.707C667.813,893.786 668.34,893.46 668.42,893.411C668.976,893.066 669.216,892.609 669.33,892.2C669.449,891.776 669.445,891.328 669.257,890.859C668.917,890.014 668.084,889.514 667.223,889.556ZM665.354,892.314C665.365,892.348 665.378,892.381 665.391,892.414L665.354,892.314ZM665.283,891.22C665.209,891.569 665.221,891.933 665.353,892.311C665.229,891.949 665.21,891.573 665.283,891.22ZM665.318,891.076L665.317,891.082L665.321,891.066L665.318,891.076ZM665.983,890.043C665.643,890.32 665.46,890.646 665.357,890.955C665.478,890.604 665.692,890.287 665.983,890.043Z"/>
        <path d="M666.219,893.356C699.661,885.636 735.618,867.22 751.351,835.981C753.245,832.22 753.883,828.551 754.277,824.903C754.633,821.603 754.775,818.324 755.687,815.017C756.35,812.613 755.657,810.111 754.211,807.797C752.426,804.941 749.491,802.365 747.706,800.759C743.403,796.887 736.117,794.696 728.773,794.788C721.391,794.881 714.015,797.277 709.565,802.222C702.951,809.571 702.838,818.73 706.697,825.385C710.583,832.087 718.504,836.321 728.055,833.665C733.195,832.235 735.382,827.681 735.027,823.515C734.784,820.657 733.329,818.016 730.911,816.601C728.457,815.166 724.875,814.88 720.362,817.442C719.362,818.01 719.011,819.282 719.578,820.282C720.146,821.282 721.418,821.633 722.418,821.066C725.168,819.505 727.312,819.323 728.807,820.198C730.073,820.938 730.748,822.372 730.876,823.869C731.077,826.235 729.859,828.838 726.939,829.65C719.513,831.716 713.323,828.506 710.302,823.295C707.253,818.038 707.437,810.815 712.662,805.009C716.391,800.866 722.639,799.032 728.825,798.954C735.049,798.876 741.272,800.575 744.918,803.856C746.488,805.268 749.108,807.495 750.678,810.005C751.468,811.27 752.033,812.595 751.67,813.909C750.697,817.438 750.515,820.933 750.134,824.456C749.791,827.631 749.278,830.834 747.629,834.107C732.438,864.272 697.574,881.842 665.282,889.296C664.162,889.555 663.462,890.674 663.721,891.795C663.979,892.915 665.099,893.615 666.219,893.356Z"/>
        <path d="M717.198,798.122C716.673,798.9 716.725,799.964 717.384,800.689C718.158,801.539 719.477,801.602 720.328,800.828C721.447,799.809 721.766,798.753 721.713,797.818C721.646,796.633 720.833,795.336 719.135,794.356C716.792,793.004 712.416,791.976 708.685,791.575C706.059,791.293 703.742,791.343 702.578,791.666C691.644,794.707 681.777,802.663 680.907,814.764C680.53,820.02 683.44,826.791 687.877,832.369C692.327,837.965 698.269,842.296 703.541,842.97C707.271,843.448 712.265,843.206 715.71,841.792C717.849,840.914 719.429,839.573 720.166,837.86C720.912,836.125 720.898,833.902 719.338,831.154C718.77,830.154 717.498,829.803 716.498,830.371C715.498,830.938 715.147,832.211 715.714,833.211C716.422,834.458 716.677,835.426 716.338,836.214C715.991,837.022 715.137,837.523 714.128,837.937C711.283,839.105 707.151,839.232 704.07,838.837C699.669,838.274 694.853,834.447 691.138,829.776C687.408,825.086 684.746,819.481 685.063,815.063C685.802,804.791 694.414,798.262 703.695,795.681C705.66,795.134 711.788,795.906 715.548,797.288C716.122,797.499 716.774,797.866 717.198,798.122Z"/>
        <path d="M711.247,843.913C711.669,843.937 712.103,843.834 712.486,843.588C713.455,842.969 713.738,841.679 713.119,840.711C712.709,840.07 712.148,839.732 711.492,839.612C710.977,839.517 710.3,839.575 709.558,839.981C708.838,840.375 707.841,841.293 706.889,842.343C705.809,843.534 704.765,844.9 704.388,845.226C700.676,848.44 697.102,852.116 692.864,854.521C684.164,859.459 673.444,866.391 662.593,870.123C655.693,872.496 648.747,873.579 642.283,871.796C621.509,866.066 601.389,855.39 580.291,846.968C575.97,845.243 569.292,841.733 563.068,839.508C558.525,837.884 554.187,836.985 550.996,837.614C545.683,838.661 537.814,837.416 531.018,838.284C525.833,838.946 521.249,840.78 518.383,845.053C517.742,846.008 517.997,847.303 518.952,847.944C519.907,848.584 521.202,848.329 521.843,847.374C524.625,843.227 529.64,842.366 534.863,842.151C540.894,841.902 547.258,842.597 551.802,841.702C554.417,841.187 557.942,842.101 561.665,843.432C567.839,845.639 574.46,849.127 578.746,850.838C599.99,859.318 620.258,870.043 641.175,875.813C648.42,877.811 656.215,876.723 663.948,874.063C675.044,870.247 686.025,863.194 694.921,858.145C699.393,855.606 703.199,851.768 707.116,848.375C707.542,848.007 708.753,846.489 709.975,845.142C710.353,844.726 710.903,844.219 711.247,843.913ZM709.664,843.037L709.609,842.956C709.627,842.984 709.645,843.011 709.664,843.037Z"/>
        <path d="M395.447,691.396C372.074,658.19 373.344,622.014 399.548,582.832" style="fill:none;stroke:black;stroke-width:8.33px;"/>
        <path d="M788.801,614.289C789.06,577.149 776.269,545.296 740.114,523.171" style="fill:none;stroke:black;stroke-width:8.33px;"/>
        <path d="M1373.27,553.104C1222.06,574.043 1092.5,514.551 982.165,384.355C953.799,354.436 1046.47,326.233 1087.34,261.66C1138.65,180.565 1172.56,73.304 1235.5,97.693L1284.56,98.172L1306.88,98.026C1334.67,67.763 1358.53,69.98 1358.01,115.753L1372.73,127.947C1407.35,150.144 1424.59,178.811 1430.31,211.767C1435.82,222.784 1422.41,231.829 1402.43,374.402C1389.47,466.955 1436.15,563.073 1373.27,553.104Z" style="fill:none;stroke:black;stroke-width:8.33px;"/>
        <path d="M1109.38,497.315C1050.1,620.365 1171.93,656.723 1208.82,542.286" style="fill:none;stroke:black;stroke-width:8.33px;"/>
        <path d="M1093.69,550.149C1137.47,541.058 1167.28,553.813 1182.32,589.667" style="fill:none;stroke:black;stroke-width:8.33px;"/>
        <path d="M1291.99,101.847L1269.59,116.69C1276.62,200.453 1307.46,219.454 1368.49,156.38L1360.29,122.042" style="fill:none;stroke:black;stroke-width:8.33px;"/>
        <path d="M1311.63,112.233C1316.4,146.895 1323.47,146.495 1342.85,124.681" style="fill:none;stroke:black;stroke-width:8.33px;"/>
        <path d="M1159.9,178.517L1195.6,165.609L1197.63,199.078L1230.72,187.013L1236.43,224.419L1277.5,207.715L1281.43,239.345L1321.47,221.17L1327.27,251.51L1356.54,232.959L1361.72,265.62L1403.24,245.101L1403.21,271.047" style="fill:none;stroke:black;stroke-width:8.33px;"/>
        <path d="M1135.89,234.562C1135.94,234.52 1136.01,234.458 1136.07,234.417C1136.28,234.256 1136.54,234.113 1136.84,233.977C1137.84,233.526 1139.18,233.194 1140.75,232.953C1149.26,231.644 1164.05,233.08 1170.4,237.601C1174.61,240.606 1176.33,245.407 1178.19,250.17C1180.34,255.692 1182.62,261.183 1187.67,264.782C1190.27,266.636 1193.35,267.39 1196.76,267.409C1201.35,267.434 1206.59,266.087 1211.96,264.676C1216.17,263.571 1220.46,262.433 1224.56,262.025C1228.34,261.648 1231.96,261.887 1235.13,263.527C1240.65,266.382 1242.87,272.443 1245.59,278.58C1248.71,285.586 1252.32,292.731 1260.26,296.834C1261.11,297.273 1262.81,297.342 1263.76,297.491C1268.48,298.231 1273.51,296.723 1278.55,294.742C1283.1,292.957 1287.66,290.798 1292.02,290.067C1293.23,289.863 1294.32,290.279 1295.34,291.012C1296.66,291.961 1297.85,293.405 1298.99,295.054C1301.26,298.373 1303.26,302.498 1305.17,305.753C1306.65,308.253 1308.13,310.266 1309.59,311.307C1315.46,315.49 1321.68,313.693 1327.74,310.782C1330.38,309.513 1332.99,308.057 1335.52,307.011C1337.69,306.111 1339.77,305.494 1341.75,305.803C1342.15,305.867 1343.52,305.991 1343.89,306.024C1344.4,306.494 1344.97,307.474 1345.57,308.549C1346.78,310.69 1347.91,313.279 1348.29,314.474C1350.2,320.468 1352.43,323.184 1354.5,324.148C1356.91,325.274 1359.51,324.476 1362.16,322.558C1364.1,321.153 1366.13,319.153 1368.27,317.596C1369.86,316.446 1371.47,315.485 1373.21,315.641C1373.31,315.937 1373.56,316.706 1373.65,317.31C1373.92,319.15 1374,321.429 1374.36,323.369C1374.88,326.148 1376.1,328.247 1378.14,328.938C1379.91,329.535 1382.76,329.125 1387.06,325.995C1387.99,325.318 1388.19,324.013 1387.52,323.084C1386.84,322.155 1385.53,321.951 1384.6,322.628C1383.15,323.688 1381.96,324.381 1380.97,324.754C1380.36,324.982 1379.89,325.102 1379.52,325.002C1379.1,324.893 1378.98,324.45 1378.81,323.994C1378.44,322.968 1378.29,321.674 1378.16,320.371C1377.9,317.757 1377.67,315.12 1376.89,313.65C1376.26,312.447 1375.33,311.746 1374.13,311.557C1372.18,311.252 1370.3,311.683 1368.48,312.586C1366.2,313.714 1364.03,315.623 1361.96,317.379C1360.85,318.325 1359.77,319.219 1358.72,319.84C1358.02,320.256 1357.36,320.576 1356.69,320.497C1356.07,320.424 1355.54,319.961 1354.95,319.173C1354.03,317.925 1353.15,315.997 1352.26,313.21C1351.76,311.633 1350.11,307.898 1348.52,305.337C1347.69,304.013 1346.83,302.987 1346.14,302.498C1345.8,302.254 1345.25,302.021 1344.57,301.901C1343.84,301.772 1342.85,301.759 1342.39,301.687C1340.21,301.345 1337.92,301.72 1335.56,302.536C1332.47,303.604 1329.23,305.447 1325.94,307.027C1321.28,309.264 1316.52,311.129 1312.01,307.914C1310.91,307.127 1309.88,305.529 1308.76,303.638C1306.8,300.307 1304.75,296.091 1302.42,292.695C1299.33,288.198 1295.61,285.239 1291.33,285.958C1286.71,286.733 1281.85,288.971 1277.03,290.863C1272.71,292.559 1268.44,294.008 1264.4,293.375C1263.98,293.309 1263.4,293.28 1262.82,293.223C1262.58,293.199 1262.33,293.214 1262.17,293.133C1255.17,289.512 1252.15,283.07 1249.4,276.888C1246.27,269.835 1243.39,263.106 1237.05,259.826C1229.58,255.963 1220.05,258.243 1210.9,260.647C1206.71,261.748 1202.6,262.839 1198.86,263.155C1195.54,263.435 1192.52,263.121 1190.09,261.389C1185.73,258.28 1183.93,253.428 1182.07,248.658C1179.92,243.131 1177.71,237.695 1172.82,234.207C1168.69,231.271 1161.4,229.384 1154.14,228.674C1146.91,227.967 1139.73,228.421 1135.85,229.882C1133.39,230.805 1132.06,232.271 1131.76,233.771C1131.47,235.247 1132.06,237.216 1134.64,239.255C1135.54,239.969 1136.85,239.816 1137.56,238.915C1138.28,238.013 1138.12,236.702 1137.22,235.988C1136.69,235.57 1136.3,235.187 1136.04,234.818C1135.99,234.744 1135.93,234.636 1135.89,234.562Z"/>
        <g transform="matrix(1,0,0,1,-44.5278,-6.98152)">
            <path d="M1160.56,289.135C1160.56,284.347 1164.54,280.46 1169.44,280.46C1174.34,280.46 1178.32,284.347 1178.32,289.135C1180.77,284.989 1186.21,283.566 1190.45,285.96C1194.69,288.354 1196.15,293.663 1193.7,297.81C1197.94,295.416 1203.38,296.839 1205.83,300.985C1208.28,305.131 1206.83,310.441 1202.58,312.835C1207.48,312.835 1211.46,316.722 1211.46,321.51C1211.46,326.297 1207.48,330.184 1202.58,330.184C1206.83,332.578 1208.28,337.888 1205.83,342.034C1203.38,346.181 1197.94,347.603 1193.7,345.21C1196.15,349.356 1194.69,354.666 1190.45,357.06C1186.21,359.453 1180.77,358.031 1178.32,353.884C1178.32,358.672 1174.34,362.559 1169.44,362.559C1164.54,362.559 1160.56,358.672 1160.56,353.884C1158.11,358.031 1152.67,359.453 1148.43,357.06C1144.18,354.666 1142.73,349.356 1145.18,345.21C1140.93,347.603 1135.5,346.181 1133.05,342.034C1130.6,337.888 1132.05,332.578 1136.3,330.184C1131.4,330.184 1127.42,326.297 1127.42,321.51C1127.42,316.722 1131.4,312.835 1136.3,312.835C1132.05,310.441 1130.6,305.131 1133.05,300.985C1135.5,296.839 1140.93,295.416 1145.18,297.81C1142.73,293.663 1144.18,288.354 1148.43,285.96C1152.67,283.566 1158.11,284.989 1160.56,289.135Z" style="fill:none;stroke:black;stroke-width:8.33px;"/>
        </g>
        <g transform="matrix(1,0,0,1,53.0223,55.0259)">
            <path d="M1160.56,289.135C1160.56,284.347 1164.54,280.46 1169.44,280.46C1174.34,280.46 1178.32,284.347 1178.32,289.135C1180.77,284.989 1186.21,283.566 1190.45,285.96C1194.69,288.354 1196.15,293.663 1193.7,297.81C1197.94,295.416 1203.38,296.839 1205.83,300.985C1208.28,305.131 1206.83,310.441 1202.58,312.835C1207.48,312.835 1211.46,316.722 1211.46,321.51C1211.46,326.297 1207.48,330.184 1202.58,330.184C1206.83,332.578 1208.28,337.888 1205.83,342.034C1203.38,346.181 1197.94,347.603 1193.7,345.21C1196.15,349.356 1194.69,354.666 1190.45,357.06C1186.21,359.453 1180.77,358.031 1178.32,353.884C1178.32,358.672 1174.34,362.559 1169.44,362.559C1164.54,362.559 1160.56,358.672 1160.56,353.884C1158.11,358.031 1152.67,359.453 1148.43,357.06C1144.18,354.666 1142.73,349.356 1145.18,345.21C1140.93,347.603 1135.5,346.181 1133.05,342.034C1130.6,337.888 1132.05,332.578 1136.3,330.184C1131.4,330.184 1127.42,326.297 1127.42,321.51C1127.42,316.722 1131.4,312.835 1136.3,312.835C1132.05,310.441 1130.6,305.131 1133.05,300.985C1135.5,296.839 1140.93,295.416 1145.18,297.81C1142.73,293.663 1144.18,288.354 1148.43,285.96C1152.67,283.566 1158.11,284.989 1160.56,289.135Z" style="fill:none;stroke:black;stroke-width:8.33px;"/>
        </g>
        <g transform="matrix(1,0,0,1,167.811,86.2694)">
            <path d="M1160.56,289.135C1160.56,284.347 1164.54,280.46 1169.44,280.46C1174.34,280.46 1178.32,284.347 1178.32,289.135C1180.77,284.989 1186.21,283.566 1190.45,285.96C1194.69,288.354 1196.15,293.663 1193.7,297.81C1197.94,295.416 1203.38,296.839 1205.83,300.985C1208.28,305.131 1206.83,310.441 1202.58,312.835C1207.48,312.835 1211.46,316.722 1211.46,321.51C1211.46,326.297 1207.48,330.184 1202.58,330.184C1206.83,332.578 1208.28,337.888 1205.83,342.034C1203.38,346.181 1197.94,347.603 1193.7,345.21C1196.15,349.356 1194.69,354.666 1190.45,357.06C1186.21,359.453 1180.77,358.031 1178.32,353.884C1178.32,358.672 1174.34,362.559 1169.44,362.559C1164.54,362.559 1160.56,358.672 1160.56,353.884C1158.11,358.031 1152.67,359.453 1148.43,357.06C1144.18,354.666 1142.73,349.356 1145.18,345.21C1140.93,347.603 1135.5,346.181 1133.05,342.034C1130.6,337.888 1132.05,332.578 1136.3,330.184C1131.4,330.184 1127.42,326.297 1127.42,321.51C1127.42,316.722 1131.4,312.835 1136.3,312.835C1132.05,310.441 1130.6,305.131 1133.05,300.985C1135.5,296.839 1140.93,295.416 1145.18,297.81C1142.73,293.663 1144.18,288.354 1148.43,285.96C1152.67,283.566 1158.11,284.989 1160.56,289.135Z" style="fill:none;stroke:black;stroke-width:8.33px;"/>
        </g>
        <path d="M1370.29,455.573C1371.91,455.33 1373.1,453.87 1372.98,452.204C1372.86,450.456 1371.33,449.14 1369.58,449.266C1367.95,449.385 1366.51,450.149 1365.33,451.582C1364.23,452.925 1363.35,455.039 1362.79,457.661C1361.03,466.062 1362.33,480.316 1363.53,483.941C1366.33,492.327 1372.44,498.369 1377.9,504.131C1382.02,508.484 1385.81,512.581 1386.36,517.989C1386.71,521.499 1385.62,525.494 1382.6,530.43C1381.75,531.808 1380.35,534.181 1378.85,536.092C1378.15,536.975 1377.51,537.802 1376.85,538.106C1361.6,545.143 1344.93,536.285 1337.57,525.591C1333.25,519.322 1332.04,512.262 1337.84,508.033C1343.25,504.09 1347.9,503.068 1351.72,504.007C1357.31,505.383 1360.87,510.742 1362.01,515.476C1362.37,516.953 1362.5,518.373 1362.31,519.587C1362.2,520.313 1362.03,520.963 1361.57,521.348C1360.93,521.89 1359.95,521.669 1358.6,521.173C1356.96,520.567 1355.13,521.41 1354.53,523.055C1353.92,524.7 1354.76,526.527 1356.41,527.133C1360.32,528.574 1363.22,527.984 1365.21,526.56C1367.22,525.124 1368.49,522.627 1368.71,519.478C1368.99,515.496 1367.58,510.331 1364.59,506.014C1361.55,501.626 1356.94,498.141 1351.1,497.454C1346.29,496.887 1340.54,498.204 1334.1,502.899C1325.39,509.247 1325.85,519.786 1332.34,529.194C1341.16,542.009 1361.24,552.306 1379.51,543.873C1380.58,543.38 1381.78,542.411 1382.92,541.122C1384.92,538.869 1386.9,535.559 1388.01,533.752C1392.16,526.993 1393.24,521.492 1392.6,516.744C1391.97,511.981 1389.56,507.897 1386.31,503.995C1380.86,497.43 1372.73,491.437 1369.56,481.932C1368.5,478.765 1367.46,466.31 1369.01,458.97C1369.23,457.91 1369.5,456.971 1369.87,456.225C1369.98,455.998 1370.19,455.703 1370.29,455.573Z"/>
        <path d="M1279.69,516.582C1279.18,516.29 1278.6,515.914 1278.05,515.477C1276.68,514.382 1274.68,514.604 1273.59,515.973C1272.49,517.342 1272.72,519.342 1274.08,520.437C1276.18,522.114 1277.9,523.002 1279.22,523.371C1280.74,523.797 1281.98,523.658 1282.96,523.261C1284.26,522.739 1285.25,521.739 1285.82,520.231C1286.5,518.432 1286.44,515.421 1285.45,512.026C1283.96,506.885 1280.53,500.703 1276.47,497.297C1273.95,495.178 1271.17,494.082 1268.43,494.312C1265.71,494.541 1262.84,496.037 1260.28,499.796C1250.91,513.549 1256.22,528.871 1267.2,538.46C1278.09,547.969 1294.4,551.566 1306.66,542.628C1318.12,534.274 1318.11,523.083 1315.21,510.981C1312.7,500.523 1307.86,489.383 1308.95,479.326C1309.39,475.242 1313.35,468.142 1316.34,463.864C1316.97,462.964 1317.76,462.03 1318.23,461.491C1318.48,461.443 1318.72,461.364 1318.96,461.253C1320.55,460.51 1321.23,458.617 1320.49,457.03C1319.74,455.434 1316.91,453.682 1313.82,456.86C1310.44,460.331 1303.3,472.455 1302.63,478.641C1301.47,489.369 1306.36,501.307 1309.03,512.462C1311.32,521.975 1311.93,530.928 1302.92,537.495C1293.1,544.652 1280.1,541.29 1271.38,533.676C1262.75,526.141 1258.16,514.178 1265.52,503.372C1266.67,501.693 1267.75,500.744 1268.96,500.642C1270.16,500.541 1271.29,501.233 1272.39,502.158C1274.49,503.927 1276.33,506.691 1277.69,509.507C1278.76,511.724 1279.39,514.828 1279.69,516.582ZM1314.88,460L1314.88,460.001L1314.85,459.945L1314.88,460ZM1314.81,459.869L1314.74,459.725C1314.76,459.774 1314.78,459.822 1314.81,459.869Z"/>
        <path d="M1260.77,442.093C1262,442.326 1263.31,441.816 1264.03,440.702C1264.98,439.232 1264.56,437.264 1263.09,436.309C1261.52,435.29 1259.11,435.273 1256.51,437.293C1251.51,441.175 1243.63,454.203 1242.31,456.652C1240.1,460.743 1239.23,468.225 1239.06,476.98C1238.82,489.093 1239.73,503.8 1238.8,514.364C1238.49,517.808 1238.01,520.777 1237.16,522.976C1236.67,524.225 1236.26,525.25 1235.32,525.474C1230.06,526.734 1224.01,525.719 1218.06,523.313C1208.7,519.526 1199.58,512.255 1193.87,504.025C1188.03,495.592 1185.66,486.102 1191.6,478.686C1196.08,473.08 1200.33,471.124 1204.24,471.871C1210.43,473.054 1215.15,480.107 1217.34,486.809C1218.53,490.443 1218.99,494.033 1218.24,496.636C1218,497.437 1217.66,498.126 1217.07,498.546C1216.47,498.97 1215.66,499.068 1214.66,498.959C1212.02,498.673 1209.96,498.556 1208.34,496.33C1207.31,494.914 1205.32,494.602 1203.9,495.634C1202.49,496.666 1202.17,498.655 1203.21,500.071C1206.04,503.961 1209.37,504.774 1213.97,505.274C1217.43,505.649 1219.97,504.634 1221.77,502.867C1224.13,500.552 1225.25,496.572 1224.86,491.868C1224.31,485.378 1221.01,477.421 1216.04,472.02C1212.44,468.098 1207.96,465.529 1203.11,465.374C1198.02,465.211 1192.3,467.645 1186.64,474.718C1178.94,484.334 1181.08,496.709 1188.65,507.643C1195.03,516.841 1205.22,524.97 1215.68,529.202C1222.95,532.142 1230.37,533.192 1236.8,531.651C1239.07,531.108 1240.95,529.55 1242.32,526.952C1243.78,524.183 1244.68,519.987 1245.12,514.921C1246.07,504.235 1245.17,489.357 1245.41,477.103C1245.56,469.613 1246.01,463.169 1247.9,459.668C1248.95,457.726 1254.48,448.39 1258.88,443.731C1259.47,443.105 1260.35,442.417 1260.77,442.093Z"/>
        <path d="M1190.79,421.632C1182.85,420.94 1177,422.59 1172.66,425.708C1168.57,428.642 1165.78,432.929 1163.96,438.119C1161.47,445.217 1160.81,454.082 1160.75,463.106C1160.66,475.242 1161.66,487.672 1160.02,495.943C1159.22,499.924 1158.03,502.903 1154.77,503.265C1150.97,503.687 1146.12,502.03 1141.01,499.257C1132.71,494.748 1123.91,487.159 1117.83,478.96C1114.58,474.565 1112.1,470.005 1111.01,465.652C1110.05,461.828 1110.17,458.19 1112.06,455.118C1113.89,452.134 1115.86,450.192 1117.97,449.164C1121.09,447.638 1124.39,448.29 1127.45,449.952C1132.83,452.882 1137.51,458.872 1139.79,464.304C1140.65,466.365 1141.18,468.332 1141.16,469.992C1141.15,470.861 1141.07,471.638 1140.48,472.051C1140.02,472.371 1139.37,472.448 1138.56,472.428C1137.2,472.394 1135.54,472.009 1133.52,471.264C1131.87,470.658 1130.04,471.502 1129.44,473.146C1128.83,474.791 1129.67,476.618 1131.32,477.224C1137.59,479.536 1141.72,478.926 1144.11,477.263C1145.92,476.002 1147.03,474.088 1147.39,471.658C1147.78,468.968 1147.17,465.487 1145.64,461.847C1143.22,456.064 1138.52,449.798 1132.99,445.932C1128.96,443.112 1124.5,441.568 1120.12,442.029C1115.41,442.525 1110.65,445.277 1106.65,451.796C1101.42,460.315 1104.8,472.034 1112.73,482.741C1119.35,491.67 1128.94,499.927 1137.98,504.838C1144.43,508.345 1150.67,510.112 1155.47,509.577C1160.41,509.029 1163.55,505.895 1165.31,500.719C1167.37,494.692 1167.4,485.436 1167.23,475.364C1167.02,463.661 1166.58,450.776 1169.66,441.117C1171.02,436.84 1173.08,433.23 1176.36,430.866C1179.67,428.488 1184.18,427.432 1190.24,427.96C1191.98,428.112 1193.52,426.818 1193.68,425.072C1193.83,423.325 1192.53,421.784 1190.79,421.632Z"/>
        <path d="M1144.39,390.345C1141.77,388.621 1139.56,388.563 1137.33,389.154C1135.83,389.551 1134.31,390.381 1132.49,391.026C1124.74,393.782 1118.52,399.356 1113.25,406.273C1105.85,415.999 1100.35,428.417 1094.71,438.505C1091.8,443.71 1088.88,448.27 1085.54,451.329C1082.75,453.89 1079.67,455.314 1075.96,454.732C1063.43,452.766 1053.62,440.63 1050.75,428.178C1049.08,420.935 1049.76,413.512 1053.97,407.959C1056.76,404.281 1061.09,401.478 1067.17,400.023C1071.93,398.882 1075.51,399.399 1078.04,401.205C1080.37,402.866 1081.75,405.528 1082.48,408.522C1083.71,413.568 1083.09,419.568 1081.24,424.336C1080.41,426.468 1079.34,428.351 1078.03,429.736C1077.03,430.801 1075.91,431.568 1074.64,431.717C1072.77,431.935 1070.8,430.845 1068.6,428.502C1067.4,427.224 1065.39,427.162 1064.11,428.362C1062.83,429.562 1062.77,431.573 1063.97,432.851C1068,437.141 1071.95,438.426 1075.37,438.026C1080.32,437.448 1084.69,432.983 1087.16,426.637C1089.45,420.722 1090.18,413.276 1088.65,407.018C1087.54,402.475 1085.26,398.553 1081.73,396.033C1077.98,393.36 1072.74,392.158 1065.69,393.846C1057.92,395.705 1052.47,399.421 1048.91,404.121C1043.59,411.133 1042.45,420.459 1044.56,429.605C1047.99,444.472 1060.01,458.659 1074.98,461.007C1080.69,461.904 1085.53,459.959 1089.83,456.012C1093.6,452.562 1096.97,447.476 1100.25,441.605C1104.87,433.356 1109.36,423.507 1114.93,414.932C1120.15,406.909 1126.28,399.976 1134.62,397.01C1136.01,396.518 1137.21,395.902 1138.37,395.481C1139.18,395.186 1139.95,395.028 1140.89,395.649C1142.36,396.613 1144.33,396.207 1145.3,394.744C1146.26,393.28 1145.85,391.309 1144.39,390.345Z"/>
        <path d="M1086.57,358.764C1082.07,359.16 1076.56,358.36 1070.8,358.367C1064.36,358.374 1057.67,359.334 1051.54,363.302C1044.23,368.028 1041.24,374.979 1038.61,381.526C1036.71,386.235 1035.17,390.755 1031.13,393.195C1028.51,394.781 1024.87,395.385 1019.54,394.808C1017.37,394.572 1013.92,394.346 1010.92,393.44C1009.44,392.993 1008.04,392.436 1007.22,391.418C1001.31,384.07 1000.92,371.095 1004.62,362.008C1006.31,357.871 1008.83,354.501 1012.33,353.205C1015.81,351.919 1020.05,352.857 1025.08,356.536C1029.77,359.963 1032.26,366.316 1031.9,371.369C1031.71,373.982 1030.78,376.295 1028.46,377.045C1026.77,377.594 1024.57,377.358 1021.79,376.334C1020.15,375.728 1018.32,376.572 1017.71,378.216C1017.11,379.861 1017.95,381.688 1019.6,382.294C1026.62,384.883 1031.46,383.546 1034.45,380.697C1037.22,378.052 1038.55,373.793 1038.24,369.077C1037.83,362.696 1034.46,355.526 1028.83,351.409C1021.52,346.06 1015.18,345.379 1010.13,347.248C1005.1,349.109 1001.16,353.669 998.738,359.612C994.229,370.68 995.074,386.449 1002.27,395.399C1003.82,397.323 1006.28,398.677 1009.08,399.521C1012.49,400.549 1016.39,400.855 1018.86,401.122C1026.34,401.934 1031.31,400.665 1034.89,398.337C1038.51,395.982 1040.77,392.464 1042.62,388.388C1045.57,381.88 1047.23,373.655 1054.99,368.634C1060.01,365.382 1065.53,364.725 1070.81,364.718C1076.76,364.711 1082.47,365.501 1087.13,365.091C1088.88,364.937 1090.17,363.395 1090.02,361.649C1089.86,359.903 1088.32,358.61 1086.57,358.764Z"/>
        <path d="M1327.29,401.159C1324.67,404.216 1323.84,408.459 1325.98,411.668C1327.56,414.04 1329.87,414.917 1332.5,414.645C1333.66,414.525 1334.92,414.125 1336.17,413.51C1336.38,413.498 1336.59,413.477 1336.79,413.449C1340.68,412.911 1344.07,409.232 1344.67,404.766C1345.17,403.606 1345.48,402.465 1345.53,401.426C1345.65,398.83 1344.61,396.591 1341.88,395.225C1337.64,393.105 1332.51,394.666 1329.44,397.918C1328.52,398.892 1327.79,399.99 1327.29,401.159Z"/>
        <path d="M1228.16,368.462C1228.07,368.239 1227.97,368.013 1227.86,367.784C1226.89,365.854 1225.57,365.042 1224.35,364.75C1223.02,364.43 1221.54,364.695 1220.13,365.729C1218.16,367.165 1216.07,370.72 1215.22,374.175C1214.57,376.813 1214.7,379.349 1215.51,380.985C1217.24,384.435 1220.92,384.763 1224.54,381.973C1226.84,380.195 1229.02,377.111 1229.68,374.499C1230.11,372.809 1229.96,371.248 1229.34,370.004C1228.99,369.323 1228.59,368.825 1228.16,368.462Z"/>
        <path d="M1119.45,306.727C1119.23,306.807 1119.01,306.904 1118.81,307.018C1117.48,307.75 1116.01,309.43 1116.01,312.962C1116.01,313.428 1116.04,313.86 1116.09,314.261C1115.89,315.924 1115.96,317.659 1116.36,319.02C1116.86,320.745 1117.85,321.99 1119.11,322.648C1120.39,323.317 1122.11,323.563 1124.31,322.463C1126.67,321.282 1127.91,319.612 1128.48,317.874C1128.84,316.754 1128.89,315.563 1128.7,314.393C1129.54,313.115 1130.12,311.76 1130.25,310.585C1130.45,308.889 1129.96,307.406 1128.84,306.276C1126.33,303.766 1122.89,304.02 1120.11,306.164C1119.89,306.34 1119.67,306.528 1119.45,306.727Z"/>
        <path d="M609.3,1536.02C615.684,1560.76 759.651,1619.25 717.892,1467.79C778.035,1459.19 827.207,1428.02 867.664,1378.93C890.814,1333.88 856.128,1323.23 792.616,1329.72C758.586,1340.86 723.654,1335.97 687.607,1311.24C754.986,1261.09 791.675,1218.02 728.955,1198.51C682.86,1181.04 638.599,1177.62 594.276,1173.72L532.246,1144.3L515.959,1145.44C589.781,1111.79 583.154,1076.61 534.367,1045.23L415.384,1006.02L363.035,983.196C300.842,963.285 306.073,958.547 313.878,1031.25C317.954,1084.96 318.464,1140.79 310.316,1201.75C300.663,1281.08 351.578,1268.07 400.578,1212.89C411.422,1248.23 410.785,1269.18 389.307,1304.93C363.205,1349.83 344.629,1394.77 344.859,1439.82C354.089,1491.05 381.571,1475.53 466.605,1429.22C475.35,1470.61 463.411,1503.11 426.867,1538.07C355.197,1633.74 382.293,1663.86 483.967,1623.88C532.375,1600.53 609.3,1536.02 609.3,1536.02Z" style="fill:none;stroke:black;stroke-width:8.33px;"/>
        <path d="M375.436,1181.1C375.529,1181.39 375.667,1181.89 375.707,1182.32C376.206,1187.77 376.639,1192.58 375.655,1198.14C375.295,1200.18 373.929,1202.62 372.049,1205.11C368.954,1209.19 364.411,1213.3 359.674,1215.82C355.221,1218.18 350.589,1219.33 347.215,1216.52C344.906,1214.6 343.968,1211.39 343.497,1207.95C342.645,1201.73 343.534,1194.65 343.752,1190.35C344.324,1179.06 347.728,1168.45 350.681,1157.66C353.793,1146.28 356.418,1134.71 355.26,1122.06C353.801,1106.12 351.32,1092.71 349.937,1077.6C349.829,1076.42 348.947,1074.04 347.574,1071.24C345.107,1066.21 340.356,1057.62 339.747,1056.52C339.713,1056.34 339.663,1056.17 339.598,1056C338.972,1054.36 337.135,1053.54 335.497,1054.16C334.859,1054.41 334.328,1054.82 333.935,1055.44C333.736,1055.76 333.042,1057.06 333.857,1058.93C334.756,1061 339.186,1068.56 341.871,1074.03C342.78,1075.89 343.54,1077.4 343.612,1078.18C344.995,1093.29 347.475,1106.69 348.935,1122.64C350.02,1134.49 347.47,1145.33 344.555,1155.98C341.48,1167.22 338.004,1178.28 337.408,1190.03C337.176,1194.62 336.295,1202.17 337.204,1208.81C337.907,1213.95 339.71,1218.54 343.151,1221.4C348.425,1225.79 355.694,1225.12 362.653,1221.43C372.1,1216.41 380.726,1205.95 381.91,1199.25C382.999,1193.09 382.584,1187.77 382.032,1181.74C381.673,1177.82 379.943,1175.95 378.083,1175.15C376.287,1174.38 373.909,1174.56 371.394,1175.84C368.317,1177.41 364.817,1180.67 362.405,1183.79C360.592,1186.13 359.422,1188.45 359.151,1189.98C358.846,1191.71 359.999,1193.36 361.725,1193.66C363.451,1193.97 365.1,1192.81 365.406,1191.09C365.526,1190.4 366.113,1189.5 366.837,1188.47C368.253,1186.47 370.33,1184.25 372.417,1182.69C373.044,1182.22 373.668,1181.81 374.275,1181.51C374.618,1181.33 375.13,1181.18 375.436,1181.1ZM339.622,1058.19C339.322,1059.04 338.668,1059.75 337.765,1060.1C338.554,1059.8 339.294,1059.25 339.622,1058.19Z"/>
        <path d="M385.891,1020.26C388.838,1022.81 396.342,1029.28 398.029,1030.65C408.351,1039.05 418.662,1047.3 430.392,1054.35C452.265,1067.49 478.934,1067.53 502.441,1075.58C506.808,1077.07 511.463,1077.54 515.812,1078.38C521.084,1079.4 525.899,1081.01 528.391,1087.46C531.188,1094.7 526.71,1102.06 519.824,1107.87C513.057,1113.59 503.784,1117.8 495.187,1118.89C489.839,1119.57 484.758,1119.06 480.858,1116.72C478.815,1115.49 477.731,1114.15 477.623,1112.62C477.433,1109.96 479.616,1107.35 482.281,1105.24C484.802,1103.24 487.908,1101.75 490.754,1101.34C492.767,1101.06 494.675,1101.25 495.68,1102.83C496.62,1104.31 498.584,1104.75 500.063,1103.81C501.543,1102.87 501.981,1100.9 501.04,1099.42C499.11,1096.38 495.989,1094.95 492.318,1094.89C487.868,1094.83 482.493,1096.97 478.34,1100.26C473.875,1103.79 470.97,1108.61 471.287,1113.08C471.517,1116.3 473.257,1119.56 477.586,1122.16C482.605,1125.18 489.106,1126.07 495.986,1125.2C505.731,1123.96 516.252,1119.21 523.923,1112.73C533.083,1104.99 538.037,1094.8 534.315,1085.17C531.375,1077.56 526.289,1074.53 520.346,1072.91C515.379,1071.55 509.718,1071.36 504.499,1069.57C492.731,1065.54 480.167,1063.52 467.804,1060.89C455.91,1058.35 444.199,1055.24 433.663,1048.91C422.197,1042.02 412.128,1033.93 402.038,1025.72C399.913,1024 390.193,1015.47 388.621,1014.24C385.74,1011.97 378.684,1013.67 385.072,1019.7C385.321,1019.94 385.598,1020.12 385.891,1020.26Z"/>
        <path d="M338.897,1001.2C339.171,1000.09 338.842,998.88 337.938,998.068C336.635,996.896 334.625,997.003 333.454,998.306C332.871,998.955 332.39,999.937 332.47,1001.35C332.528,1002.38 333.026,1004.05 334.014,1006.12C338.404,1015.3 352.821,1035.22 356.667,1038.87C371.034,1052.52 391.28,1060.31 409.302,1069.94C426.272,1079.01 441.265,1089.74 446.263,1109.79C450.399,1126.37 437.227,1137.83 422.359,1141.4C407.479,1144.97 390.376,1140.83 386.404,1124.9C385.801,1122.48 384.451,1120.1 383.369,1117.66C382.639,1116.02 381.992,1114.34 382.403,1112.5C383.896,1105.8 387.305,1101.37 391.586,1098.93C398.007,1095.26 406.221,1095.97 412.206,1099.62C416.307,1102.12 419.377,1106.05 419.886,1111.01C420.278,1114.82 416.9,1116.91 413.782,1117.53C412.677,1117.75 411.574,1117.79 410.611,1117.6C410.019,1117.48 409.475,1117.32 409.141,1116.94C408.8,1116.55 408.933,1115.98 409.186,1115.23C409.573,1114.09 410.37,1112.78 411.608,1111.26C412.714,1109.9 412.509,1107.9 411.149,1106.79C409.789,1105.69 407.787,1105.89 406.681,1107.25C401.309,1113.86 402.114,1118.57 404.377,1121.14C406.497,1123.54 410.712,1124.62 415.02,1123.76C421.112,1122.55 426.97,1117.8 426.205,1110.36C425.486,1103.36 421.3,1097.73 415.513,1094.2C407.655,1089.4 396.865,1088.59 388.433,1093.41C382.812,1096.63 378.164,1102.32 376.203,1111.11C375.481,1114.35 376.282,1117.35 377.564,1120.24C378.495,1122.34 379.722,1124.35 380.241,1126.43C385.106,1145.95 405.616,1151.95 423.842,1147.57C442.08,1143.19 457.499,1128.6 452.426,1108.25C446.955,1086.3 430.87,1074.27 412.296,1064.34C394.774,1054.98 375.01,1047.54 361.041,1034.27C357.86,1031.25 347.082,1016.42 341.648,1006.95C340.317,1004.63 339.203,1001.96 338.897,1001.2Z"/>
        <path d="M418.112,1306.58C418.164,1306.24 418.161,1305.89 418.097,1305.54C417.786,1303.81 416.133,1302.66 414.408,1302.98C413.563,1303.13 412.922,1303.54 412.433,1304.11C411.985,1304.63 411.6,1305.37 411.597,1306.42C411.595,1307.16 412.071,1308.76 413.034,1310.66C414.425,1313.4 416.886,1317.33 417.293,1319.14C419.977,1331.12 422.542,1339.91 418.211,1351.16C415.492,1358.22 408.792,1365.89 401.63,1373.99C394.035,1382.58 385.897,1391.59 380.749,1400.69C376.295,1408.55 374.066,1416.52 375.765,1424.36C376.909,1429.64 379.822,1434.91 385.208,1440.05C387.193,1441.94 389.946,1443.24 393.255,1443.92C397.573,1444.81 402.917,1444.65 408.476,1443.72C416.527,1442.38 425.045,1439.42 431.395,1435.98C436.03,1433.47 439.532,1430.62 441.2,1427.99C442.683,1425.65 443.511,1422.47 443.872,1419.04C444.344,1414.54 444.058,1409.59 443.976,1406.05C443.757,1396.58 440.101,1391.9 435.71,1390.06C432.977,1388.92 429.8,1388.85 426.57,1389.66C422.266,1390.75 417.846,1393.43 414.534,1396.76C410.489,1400.82 408.224,1405.84 408.937,1410.07C409.467,1413.2 411.459,1416.14 415.826,1418.11C417.424,1418.83 419.306,1418.11 420.026,1416.51C420.745,1414.91 420.032,1413.03 418.433,1412.31C416.932,1411.64 415.928,1410.83 415.454,1409.83C414.942,1408.73 415.117,1407.49 415.588,1406.24C416.241,1404.51 417.486,1402.79 419.033,1401.24C421.543,1398.72 424.864,1396.64 428.124,1395.82C429.937,1395.36 431.725,1395.28 433.259,1395.92C435.982,1397.06 437.49,1400.32 437.626,1406.2C437.703,1409.52 437.998,1414.16 437.555,1418.37C437.306,1420.75 436.859,1422.98 435.835,1424.59C434.588,1426.56 431.835,1428.52 428.369,1430.4C422.568,1433.54 414.784,1436.23 407.429,1437.46C402.718,1438.25 398.191,1438.45 394.531,1437.7C392.522,1437.29 390.8,1436.61 389.594,1435.45C375.899,1422.38 381.948,1408.6 391.954,1395.29C403.183,1380.35 419.348,1365.88 424.139,1353.44C428.965,1340.9 426.482,1331.1 423.491,1317.76C422.946,1315.32 419.268,1309.4 418.112,1306.58ZM416.824,1308.68C416.496,1308.92 416.117,1309.1 415.702,1309.19C416.137,1309.09 416.51,1308.92 416.824,1308.68Z"/>
        <path d="M599.711,1198.61C607.111,1203.86 625.156,1217.04 635.333,1219.67C645.392,1222.28 658.869,1228.38 669.291,1227.66C676.826,1227.15 687.651,1224.36 697.223,1224.68C702.226,1224.85 706.879,1225.84 710.238,1228.93C712.419,1230.94 714.002,1233.83 714.855,1237.82C716.172,1243.99 714.188,1249.97 710.337,1255.24C706.212,1260.89 699.964,1265.73 692.972,1269.2C684.571,1273.38 675.076,1275.61 666.778,1274.74C661.609,1274.2 656.918,1272.45 653.391,1269.1C649.424,1265.32 649.339,1260.67 651.211,1256.58C653.293,1252.03 657.612,1248.1 662.137,1246.36C663.644,1245.78 665.381,1245.96 667.081,1246.41C669.664,1247.1 672.173,1248.49 673.95,1249.83C673.461,1250.77 673.452,1251.93 674.028,1252.91C674.835,1254.28 675.831,1254.76 676.547,1254.94C677.65,1255.23 678.677,1255.02 679.569,1254.36C680.239,1253.87 680.951,1252.94 681.175,1251.59C681.444,1249.97 680.996,1247.49 679.027,1245.77C676.691,1243.73 672.77,1241.36 668.713,1240.28C665.669,1239.47 662.558,1239.4 659.859,1240.43C653.883,1242.73 648.185,1247.93 645.436,1253.94C642.476,1260.4 642.743,1267.73 649.013,1273.7C659.913,1284.07 679.622,1282.93 695.8,1274.89C712.096,1266.79 724.357,1251.91 721.066,1236.49C719.886,1230.96 717.559,1227.04 714.539,1224.26C710.097,1220.17 704.047,1218.55 697.432,1218.33C687.642,1218.01 676.564,1220.8 668.857,1221.33C659.037,1222 646.403,1215.98 636.926,1213.53C625.584,1210.59 604.159,1193.75 600.39,1191.37C599.032,1190.52 597.985,1190.59 597.713,1190.62C596.747,1190.75 596.103,1191.22 595.65,1191.78C595.207,1192.33 594.877,1193.04 594.944,1194.02C594.966,1194.34 595.036,1194.78 595.312,1195.31C595.449,1195.57 596.067,1196.4 597.45,1197.73C598.081,1198.34 598.899,1198.63 599.711,1198.61Z"/>
        <path d="M452.574,1178.47C453.001,1177.73 453.131,1176.82 452.861,1175.95C452.347,1174.27 450.569,1173.33 448.893,1173.84C446.674,1174.52 445.896,1175.67 445.568,1176.51C445.262,1177.29 445.203,1178.13 445.496,1179.07C445.635,1179.52 445.887,1180.03 446.277,1180.6C446.66,1181.16 447.283,1181.89 447.874,1182.89C459.29,1202.29 474.977,1209.68 493.229,1221.51C509.823,1232.27 526.103,1240.66 539.456,1250.53C558.741,1264.77 571.691,1282.2 569.839,1315.22C569.715,1317.43 569.645,1320.88 569.141,1323.99C568.871,1325.66 568.518,1327.23 567.832,1328.29C551.522,1353.45 522.863,1355.57 500.161,1344.41C477.351,1333.19 460.375,1308.55 467.798,1279.88C469.431,1273.58 473.999,1269.44 479.862,1267.05C486.199,1264.47 494.01,1263.89 501.651,1264.93C510.83,1266.18 519.797,1269.74 525.67,1275.22C529.262,1278.58 531.667,1282.65 531.99,1287.37C532.276,1291.55 531.271,1294.61 529.352,1296.69C527.562,1298.64 525.052,1299.71 522.375,1300.19C518.002,1300.98 513.151,1300.19 509.657,1298.43C507.613,1297.41 505.915,1296.2 505.806,1294.52C505.763,1293.85 506.059,1293.18 506.596,1292.46C507.47,1291.29 508.902,1290.12 510.937,1288.92C512.447,1288.03 512.952,1286.08 512.063,1284.57C511.174,1283.06 509.225,1282.56 507.715,1283.45C501.221,1287.27 499.245,1291.49 499.468,1294.93C499.701,1298.52 502.432,1301.91 506.806,1304.11C514.628,1308.04 527.479,1308.11 534.027,1300.99C536.938,1297.83 538.761,1293.27 538.327,1286.93C537.894,1280.61 534.818,1275.07 530.003,1270.58C523.265,1264.29 513.035,1260.07 502.505,1258.64C484.417,1256.18 465.827,1262.16 461.65,1278.29C453.402,1310.14 472.014,1337.64 497.359,1350.11C522.812,1362.62 554.875,1359.95 573.162,1331.74C574.246,1330.07 574.984,1327.64 575.411,1325.01C575.953,1321.66 576.047,1317.96 576.181,1315.58C578.189,1279.76 564.144,1260.87 543.23,1245.42C529.783,1235.48 513.396,1227.02 496.684,1216.18C479.321,1204.93 464.208,1198.12 453.348,1179.67C453.111,1179.27 452.838,1178.85 452.574,1178.47Z"/>
        <path d="M499.685,1392.11C500.164,1394.55 501.668,1396.8 504.064,1398.91C506.869,1401.38 511.021,1403.75 515.588,1406.46C525.755,1412.5 538.366,1420.43 539.538,1437.55C539.837,1441.92 538.176,1448.81 536.05,1456.82C532.652,1469.64 527.97,1485.14 526.763,1498.21C525.252,1514.57 529.261,1527.18 544.894,1528.93C555.865,1530.16 575.211,1524.42 588.149,1514.6C597.348,1507.62 603.207,1498.59 601.72,1488.85C598.916,1470.48 576.413,1458.38 561.784,1475.15C557.549,1480.01 558.107,1485.75 560.936,1489.46C563.843,1493.27 569.213,1495.14 574.801,1491.86C576.311,1490.97 576.816,1489.02 575.926,1487.51C575.037,1486 573.089,1485.49 571.579,1486.38C569.337,1487.7 567.153,1487.13 565.987,1485.61C564.742,1483.97 564.708,1481.47 566.572,1479.33C577.214,1467.12 593.401,1476.45 595.441,1489.81C596.598,1497.39 591.469,1504.11 584.309,1509.54C572.709,1518.35 555.438,1523.72 545.601,1522.62C533.808,1521.3 531.947,1511.14 533.087,1498.8C534.265,1486.05 538.876,1470.95 542.19,1458.45C544.539,1449.59 546.205,1441.94 545.875,1437.11C544.528,1417.44 530.521,1407.94 518.832,1401C515.301,1398.9 512.022,1397.05 509.522,1395.16C507.683,1393.78 506.237,1392.51 505.919,1390.88C505.582,1389.16 503.911,1388.04 502.191,1388.38C500.471,1388.72 499.348,1390.39 499.685,1392.11Z"/>
        <path d="M680.032,1427.63C678.352,1427.22 676.647,1428.24 676.212,1429.92C675.772,1431.61 676.793,1433.35 678.49,1433.79C681.147,1434.48 682.085,1433.76 684.341,1432.43C686.653,1431.07 687.922,1429.37 688.493,1427.6C689.326,1425.01 688.689,1422.05 686.618,1419.22C682.717,1413.89 673.295,1408.84 664.676,1408.85C659.5,1408.85 654.64,1410.6 651.211,1414.78C648.042,1418.65 646.027,1424.8 646.665,1434.12C646.987,1438.81 649.573,1442.85 653.845,1446C659.422,1450.11 668.043,1452.7 677.376,1453.36C688.854,1454.17 701.371,1452.07 710.366,1446.71C720,1440.98 725.824,1431.67 722.97,1418.29C722.121,1414.31 719.687,1410.48 715.975,1406.86C710.979,1401.99 703.59,1397.42 695.191,1393.16C675.191,1382.99 649.275,1374.46 638.732,1366.3C632.635,1361.59 629.255,1354.9 625.346,1348.26C623.734,1345.52 618.554,1330.78 616.68,1322.1C616.351,1320.57 616.172,1318.85 616.1,1318.04C616.548,1317.45 616.79,1316.69 616.73,1315.89C616.597,1314.14 615.07,1312.83 613.322,1312.96C612.046,1313.06 610.972,1313.68 610.275,1315.02C609.85,1315.84 609.559,1317.48 609.823,1319.72C610.776,1327.84 617.884,1348.11 619.872,1351.49C624.198,1358.83 628.099,1366.11 634.846,1371.33C645.589,1379.63 671.934,1388.46 692.314,1398.82C700.067,1402.76 706.929,1406.91 711.541,1411.41C714.235,1414.03 716.142,1416.73 716.759,1419.62C718.933,1429.81 714.456,1436.88 707.115,1441.26C699.136,1446.01 688.006,1447.75 677.823,1447.03C669.827,1446.46 662.39,1444.4 657.612,1440.88C654.981,1438.94 653.2,1436.58 653.002,1433.68C652.338,1423.99 654.766,1418.67 659.007,1416.46C661.459,1415.17 664.384,1414.97 667.297,1415.39C672.04,1416.06 676.785,1418.38 679.815,1421.14C680.891,1422.12 681.745,1423.14 682.211,1424.17C682.451,1424.7 682.613,1425.22 682.429,1425.7C682.24,1426.19 681.77,1426.58 681.119,1426.96C680.748,1427.18 680.274,1427.47 680.032,1427.63ZM614.039,1319.27L614.031,1319.27L614.039,1319.27Z"/>
        <path d="M718.658,1344.08C719.626,1342.9 719.628,1341.16 718.592,1339.97C717.439,1338.65 715.431,1338.52 714.111,1339.67C711.454,1342 711.312,1345.33 714.346,1349.09C718.458,1354.17 729.878,1360.94 739.773,1365.52C746.55,1368.66 752.635,1370.75 755.22,1370.89C760.552,1371.19 766.711,1369.91 773.235,1367.93C782.383,1365.15 792.313,1361.01 801.624,1358.63C810.896,1356.27 819.517,1355.49 825.684,1360.87C835.98,1369.84 834.158,1383.93 827.185,1394.35C820.216,1404.76 807.911,1411.89 796.314,1406.27C792.366,1404.36 790.226,1402.46 789.727,1400.32C789.333,1398.62 790.162,1396.98 791.418,1395.44C793.979,1392.3 798.435,1389.69 802.73,1388.27C804.725,1387.6 806.687,1387.19 808.416,1387.15C809.212,1387.13 809.949,1387.19 810.592,1387.36C811.086,1387.49 811.529,1387.65 811.76,1388.03C812.122,1388.63 812.01,1389.47 811.723,1390.58C811.283,1392.28 812.304,1394.01 814.001,1394.45C815.698,1394.89 817.432,1393.87 817.872,1392.17C818.781,1388.66 818.18,1386.1 816.913,1384.31C815.676,1382.56 813.687,1381.4 811.112,1380.98C808.249,1380.51 804.521,1380.98 800.727,1382.24C795.294,1384.04 789.734,1387.45 786.495,1391.42C783.883,1394.63 782.72,1398.22 783.541,1401.75C784.344,1405.21 787.183,1408.91 793.547,1411.99C808.053,1419.01 823.747,1410.9 832.464,1397.88C841.177,1384.86 842.725,1367.3 829.858,1356.08C822.197,1349.4 811.575,1349.54 800.055,1352.48C790.655,1354.87 780.625,1359.04 771.389,1361.85C765.657,1363.59 760.261,1364.81 755.576,1364.55C754.19,1364.47 751.608,1363.6 748.417,1362.34C740.232,1359.09 728.519,1353.08 722.117,1347.83C721.398,1347.24 720.75,1346.66 720.191,1346.09C719.547,1345.44 718.935,1344.52 718.658,1344.08Z"/>
        <path d="M477.572,1478.9C477.831,1480.83 478.222,1483.56 478.567,1485.29C479.668,1490.79 481.357,1498.34 481.564,1505.4C481.69,1509.67 481.304,1513.75 479.705,1516.95C473.364,1529.63 460.186,1541.35 449.99,1553.96C438.942,1567.63 431.36,1582.31 437.179,1599.76C438.874,1604.85 441.735,1607.96 445.213,1609.65C450.121,1612.03 456.546,1611.47 463.298,1608.69C472.391,1604.96 482.196,1597.29 489.165,1589.35C493.996,1583.85 497.445,1578.18 498.591,1573.6C499.688,1569.21 498.968,1565.59 497.251,1562.77C494.753,1558.65 489.96,1556.17 484.858,1555.71C476.305,1554.93 467.268,1559.7 467.268,1570.23C467.268,1571.99 468.691,1573.41 470.444,1573.41C472.197,1573.41 473.62,1571.99 473.62,1570.23C473.62,1564.02 479.242,1561.58 484.287,1562.03C487.344,1562.31 490.325,1563.6 491.823,1566.06C492.77,1567.62 493.035,1569.63 492.429,1572.06C491.47,1575.89 488.436,1580.55 484.391,1585.16C478.048,1592.39 469.161,1599.42 460.885,1602.82C456.056,1604.8 451.492,1605.63 447.982,1603.93C445.849,1602.9 444.244,1600.87 443.205,1597.75C438.128,1582.52 445.292,1569.88 454.929,1557.95C465.418,1544.98 478.863,1532.84 485.386,1519.79C487.408,1515.75 488.072,1510.61 487.913,1505.21C487.695,1497.78 485.954,1489.83 484.795,1484.04C484.171,1480.92 483.705,1475.91 483.338,1474.74C482.778,1472.96 481.472,1472.5 480.934,1472.37C480.158,1472.18 479.379,1472.25 478.608,1472.68C478.195,1472.91 477.631,1473.31 477.223,1474.16C477.088,1474.45 476.851,1475.14 476.72,1476.39C476.619,1477.35 476.957,1478.25 477.572,1478.9Z"/>
        <path d="M626.495,1551.13C668.331,1542.65 699.366,1520.16 721.532,1486.18" style="fill:none;stroke:black;stroke-width:8.33px;"/>
        <path d="M1072.48,887.389C1040.26,786.653 1018.7,794.918 986.494,890.173C973.501,911.072 946.634,907.265 915.109,893.06C850.633,872.701 876.335,915.325 911.239,979.255C919.557,993.503 901.82,1007.77 873.458,1025.48C812.334,1062.41 826.264,1065.59 895.741,1082.37C939.273,1100.66 924.575,1090.75 927.314,1134.79C916.45,1235.23 946.662,1196.56 984.609,1173.35C1015.88,1148.12 1004.76,1156.68 1033.93,1195.34C1060.88,1248.67 1086.22,1246.62 1110.05,1192.19C1126.02,1156.71 1121.68,1126.6 1148.58,1137.1C1198.74,1147.03 1239.85,1153.73 1220.27,1108.91C1205.35,1084.83 1186.44,1068.92 1164.8,1058.62C1146.29,1043.4 1180.82,1030.91 1211.56,1018.23C1286.17,1003.63 1353.91,1008.27 1417.46,1024.96C1514.92,1050.79 1547.18,1012.06 1485.06,967.338C1441.21,948.149 1452.66,952.676 1503.89,931.738C1563.83,910.407 1557.91,869.58 1499.96,856.583C1450.32,862.314 1431.74,856.879 1476.42,828.706C1510.76,774.65 1481,753.472 1424.44,746.796C1327.99,741.235 1246.97,770.062 1177.64,825.878L1108.49,884.325C1084.29,905.147 1072.09,906.48 1072.48,887.389Z" style="fill:none;stroke:black;stroke-width:8.33px;"/>
        <path d="M1038.71,933.107L1059.3,1097.18" style="fill:none;stroke:black;stroke-width:8.33px;"/>
        <path d="M1000.01,1082.24L1092.86,951.912" style="fill:none;stroke:black;stroke-width:8.33px;"/>
        <path d="M1117.01,1071.02L985.107,969.762" style="fill:none;stroke:black;stroke-width:8.33px;"/>
        <path d="M962.662,1018.48L1123.56,1008.78" style="fill:none;stroke:black;stroke-width:8.33px;"/>
        <path d="M1114.11,983.078L1121.45,924.531L1066.56,929.411L1037.82,873.509L1003.53,936.917L942.731,939.736L952.199,991.342L891.969,1041.55L960.68,1072.91L957.308,1137.41L1020.11,1124.69L1071.85,1180.67L1089.65,1112.05L1159.6,1106.36L1130.68,1041.62L1184.06,986.792L1114.11,983.078Z" style="fill:none;stroke:black;stroke-width:8.33px;"/>
        <path d="M1163.6,927.484C1163.9,927.161 1165.83,925.039 1168.15,922.691C1180.39,910.303 1210.93,880.937 1215.78,875.703C1265.23,822.277 1312.83,774.322 1388.81,771.392C1406.32,770.716 1428.9,767.851 1445.11,776.747C1454.24,781.754 1458.82,788.08 1459.89,794.887C1460.97,801.76 1458.53,808.976 1454.08,815.521C1444.84,829.15 1426.89,839.977 1411,838.83C1404.77,838.379 1396.94,836.051 1391,831.873C1385.57,828.061 1381.69,822.654 1382.83,815.536C1383.44,811.759 1385.86,807.799 1389.23,804.133C1394.6,798.28 1402.43,793.235 1410.18,791.069C1417.99,788.887 1425.79,789.615 1430.23,796.414C1432.92,800.536 1432.89,804.378 1431.02,807.231C1428.04,811.763 1421.08,813.703 1414.75,810.839C1413.15,810.116 1411.27,810.825 1410.55,812.422C1409.82,814.019 1410.53,815.902 1412.13,816.625C1421.59,820.906 1431.87,817.494 1436.33,810.721C1439.4,806.039 1439.97,799.703 1435.55,792.939C1429.5,783.689 1419.1,781.983 1408.47,784.952C1399.63,787.423 1390.68,793.158 1384.55,799.837C1380.24,804.526 1377.33,809.699 1376.56,814.531C1375.3,822.401 1378.27,828.852 1383.38,833.805C1390.46,840.677 1401.82,844.535 1410.55,845.165C1428.49,846.461 1448.9,834.481 1459.34,819.087C1464.75,811.12 1467.48,802.27 1466.17,793.903C1464.84,785.469 1459.47,777.382 1448.17,771.178C1430.99,761.754 1407.12,764.329 1388.56,765.045C1310.76,768.045 1261.76,816.684 1211.11,871.388C1206.28,876.606 1175.84,905.878 1163.63,918.227C1161.07,920.819 1159.29,922.708 1158.63,923.535C1158.03,924.283 1157.83,924.878 1157.77,925.13C1157.33,926.828 1158.36,928.559 1160.06,928.993C1161.47,929.355 1162.91,928.699 1163.6,927.484Z"/>
        <path d="M1177.23,960.224C1180.17,959.307 1194.03,954.94 1196.82,953.399C1209,946.663 1228.16,941.8 1241.77,938.178C1263.82,932.312 1283.15,919.154 1302.56,906.365C1321.33,894.002 1340.17,881.978 1361.92,877.948C1395.27,871.768 1433.86,868.113 1467.53,877.811C1472.62,879.277 1482.39,880.022 1489.85,882.909C1493.76,884.423 1497.1,886.423 1497.77,890.07C1499.82,901.135 1492.02,910.119 1481.12,916.335C1470.62,922.318 1457.11,925.704 1445.3,925.604C1437.77,925.541 1430.94,924.098 1426.18,920.824C1424.69,919.801 1423.83,918.725 1423.67,917.494C1423.39,915.294 1424.93,913.052 1427.04,910.83C1431.02,906.628 1437.4,902.875 1443.15,900.899C1446.56,899.73 1449.69,899.099 1451.82,899.712C1455.2,900.687 1457.5,902.283 1457.9,904.393C1458.27,906.358 1456.69,908.21 1453.73,909.849C1452.19,910.697 1451.64,912.631 1452.48,914.165C1453.33,915.699 1455.27,916.256 1456.8,915.408C1462.94,912.012 1464.91,907.288 1464.14,903.215C1463.4,899.289 1459.87,895.422 1453.58,893.608C1450.52,892.729 1445.97,893.215 1441.09,894.892C1434.42,897.184 1427.05,901.587 1422.43,906.461C1418.79,910.292 1416.89,914.505 1417.37,918.297C1417.72,921.06 1419.24,923.765 1422.58,926.058C1428.24,929.949 1436.3,931.881 1445.24,931.956C1458.12,932.064 1472.83,928.371 1484.26,921.853C1497.73,914.177 1506.55,902.578 1504.02,888.912C1502.95,883.166 1498.3,879.371 1492.14,876.986C1484.5,874.028 1474.51,873.21 1469.29,871.707C1434.69,861.742 1395.04,865.352 1360.76,871.703C1338.18,875.887 1318.55,888.226 1299.07,901.061C1280.23,913.471 1261.54,926.348 1240.14,932.04C1226.08,935.78 1206.33,940.885 1193.74,947.84C1190.63,949.563 1174.81,954.18 1173.64,954.82C1172.4,955.496 1172.13,956.448 1172.03,956.816C1171.76,957.801 1171.94,958.671 1172.46,959.442C1172.63,959.696 1173.52,961.118 1175.78,960.81C1176.32,960.736 1176.82,960.528 1177.23,960.224ZM1175.11,954.497L1175.1,954.498L1175.12,954.497L1175.11,954.497Z"/>
        <path d="M1195.09,977.958C1226.87,982.766 1267.95,972.389 1308.48,963.153C1347.99,954.154 1386.96,946.179 1415.88,955.741C1438.86,963.336 1455.42,965.526 1473.65,983.039C1477.88,987.101 1479.98,994.187 1479.48,1000.56C1479.01,1006.44 1476.27,1011.84 1470.18,1013.07C1461.58,1014.82 1451.34,1014.97 1442.73,1012.02C1434.62,1009.25 1427.99,1003.63 1425.99,993.736C1425.69,992.261 1425.24,990.403 1425.25,988.628C1425.25,987.613 1425.34,986.585 1426.17,985.939C1431.11,982.078 1437.88,984.055 1442.59,987.965C1447.16,991.77 1450.1,997.684 1446.71,1002.79C1445.75,1004.25 1446.15,1006.22 1447.61,1007.19C1449.07,1008.16 1451.04,1007.76 1452.01,1006.3C1457.25,998.393 1453.74,988.972 1446.64,983.08C1439.68,977.293 1429.57,975.221 1422.26,980.935C1420.25,982.503 1419.28,984.654 1418.99,987.045C1418.67,989.708 1419.3,992.714 1419.76,994.997C1424.66,1019.19 1451.66,1023.31 1471.45,1019.3C1478.79,1017.81 1483.19,1012.53 1484.98,1005.9C1487.49,996.648 1484.62,984.772 1478.05,978.458C1459.02,960.179 1441.86,957.637 1417.88,949.711C1388.05,939.848 1347.82,947.678 1307.07,956.96C1267.37,966.006 1227.16,976.387 1196.04,971.678C1194.3,971.415 1192.68,972.61 1192.42,974.343C1192.16,976.076 1193.35,977.696 1195.09,977.958Z"/>
    </g>
</svg>
