<?xml version="1.0" encoding="UTF-8"?><svg id="Layer_1" xmlns="http://www.w3.org/2000/svg" viewBox="0 0 1200 1200"><path d="M836.13,712.31c-.05,.91,.65,1.3,1.12,1.82,8.17,8.91,15.66,18.43,24.34,26.88,1.36,1.33,2.55,2.85,3.44,4.55,.8,1.54,1,3.13-.01,4.65-1.05,1.57-2.66,1.84-4.36,1.53-2.6-.46-5.08-1.38-7.55-2.3-7.66-2.87-15.23-5.98-22.52-9.69-10.29-5.23-19.42-12.15-27.58-20.26-8.14-8.09-13.39-18.04-17.24-28.76-5.42-15.11-8.88-30.68-11.09-46.55-1.22-8.73-2.01-17.51-2.79-26.29-.1-1.07-.09-2.18-.85-3.42-5.26,4.05-10.26,8.47-16.5,10.89-6.07,2.35-12.2,4.53-19.02,7.05,3,1.39,5.43,2.46,7.68,3.89,.79,.5,1.46-.49,2.1-.94,3.55-2.48,7.39-3.34,11.64-2.29,5.44,1.34,9.01,4.55,10.09,10.18,.73,3.79,.86,7.58-.5,11.29-1,2.72-2.51,5.03-5.23,6.1-.15,1.85,.62,3.27,.72,4.81,.24,3.68-.14,7.28-1.34,10.75-.75,2.17-.5,4.06,.62,5.98,7.04,12,10.15,25.18,11.64,38.85,.72,6.59,1.36,13.19,3.11,19.62,.42,1.56,1.18,2.72,2.39,3.81,3.82,3.44,8.15,6.09,12.61,8.53,3.12,1.71,6.13,3.54,8.87,5.82,2.93,2.44,6.51,3.59,10.06,4.68,10.54,3.24,21.33,5.26,32.27,6.45,8.02,.87,15.72,2.81,22.96,6.43,2.44,1.22,4.85,2.49,7.31,3.67,9.72,4.64,17.27,11.68,22.86,20.81,2.62,4.29,6.05,7.95,8.93,12.03,.89,1.26,2.14,2.21,3.33,3.21,2.3,1.93,1.81,4.44-1.06,5.36-2.53,.81-5.19,.92-7.81,1.11-3.99,.3-7.99,.39-11.98,.59-6.87,.35-13.6-.47-20.2-2.4-3.05-.89-6.13-1.67-9.21-2.46-7.67-1.95-14.69-5.28-20.98-10.09-3.1-2.37-6.19-4.77-9.24-7.21-3.57-2.86-6.63-6.2-9.3-9.91-2.92-4.06-6.06-7.96-8.84-12.11-5.82-8.67-13.82-14.84-22.55-20.22-2.06-1.27-4.14-2.51-6.43-3.9-.35,2.25,.42,4.05,.69,5.88,.72,4.85,2.44,9.5,3.13,14.36,.16,1.11,.88,1.72,1.72,2.32,10.46,7.48,20.03,15.95,28.72,25.45,6.13,6.71,12.85,12.86,18.95,19.6,1.96,2.17,4.35,3.85,6.71,5.56,1.77,1.29,3.45,2.68,4.69,4.52,2.51,3.72,1.94,7.87-1.56,10.67-3.76,3.01-8.24,4.11-12.92,4.53-3.76,.34-7.45-.14-11.01-1.38-4.12-1.43-8.22-2.9-12.31-4.42-5.16-1.92-9.82-4.71-14.09-8.17-4.53-3.66-8.82-7.59-13.03-11.6-.64-.61-1.15-1.42-2.09-1.71-.91,.45-.86,1.34-.92,2.11-1.2,14.74-7.51,27.35-16.15,39-2.33,3.14-4.77,6.2-7.12,9.32-.7,.93-1.56,1.78-1.93,2.97,.41,1.24,1.61,1.68,2.53,2.35,12.23,8.77,22.81,19.15,31.25,31.67,2.08,3.09,4.07,6.24,5.69,9.61,3.76,7.77,7.16,15.7,10.42,23.69,1.38,3.38,2.28,6.9,2.91,10.48,.22,1.24,.28,2.54,.24,3.8-.12,3.45-2.14,5.42-5.59,5.22-4.63-.27-9.17-1.27-13.71-2.18-7.74-1.56-15.54-2.82-23.19-4.87-16.52-4.43-30.32-12.9-40.6-26.79-2.76-3.72-5.69-7.32-8.58-10.95-.54-.69-.93-1.57-2.06-1.88-1.43,2.96-4.2,4.36-7,5.66-5.22,2.43-10.17,.89-13.13-4.08-2.13-3.56-3.14-7.53-3.79-11.58-1.33-8.25-.77-16.49,.27-24.72,.2-1.62,.52-3.23,.75-4.85,.16-1.17,.31-2.36-.11-3.51-1.49-4.1-2.63-8.31-3.69-12.54-.07-.26-.21-.48-.72-.56-.81,1.26-.91,2.81-1.06,4.27-.95,9.13-1.82,18.26-2.73,27.39-1.92,19.17-3.61,38.36-6.1,57.46-.6,4.59-1.54,9.14-2.9,13.57-2.89,9.38-6.27,18.58-10.11,27.62-1.71,4.03-3.81,7.86-6.53,11.3-5.43,6.86-11.56,13.07-18.1,18.86-1.57,1.39-3.31,2.55-5.23,3.43-6.05,2.78-12.11,.95-15.59-4.74-1.93-3.16-2.81-6.68-3.42-10.28-1.67-9.93-1.67-19.9-.61-29.89,1.2-11.3,3-22.5,6.03-33.47,1.6-5.79,3.69-11.42,6.28-16.83,6.48-13.52,12.4-27.28,18.28-41.07,4.54-10.65,10.14-20.72,16.81-30.2,.99-1.41,1.99-2.83,3.06-4.18,4.27-5.35,8.66-10.57,15.56-13.08-.37-3.02-.69-5.98-1.12-8.92-1.28-8.76-1.4-17.56-1.23-26.39,.07-3.64-.02-7.28,.24-10.9,.17-2.35-.35-3.99-2.53-5.14-1.26-.67-2.35-1.7-3.43-2.67-3.3-2.96-5.44-6.54-5.69-11.09-.04-.7,.04-1.47-.53-2.09-.79-.28-1.37,.27-1.96,.62-1.87,1.12-3.78,2.19-5.55,3.46-9.24,6.67-19.25,12.04-29.37,17.22-2.45,1.25-2.53,1.26-1.71,3.96,2.41,7.95,4.02,15.99,3.75,24.38-.23,6.92-1.59,13.51-4.39,19.81-.88,1.96-1.22,3.93-1.15,6.07,.27,7.21-.4,14.34-1.97,21.38-2.22,9.96-6.88,18.71-13.29,26.57-3.68,4.52-7.74,8.68-11.97,12.68-3.39,3.2-6.24,2.89-8.72-1.06-5.87-9.32-10.83-19.12-15.39-29.14-7.52-16.56-14.21-33.42-19.59-50.8-1.37-4.44-2.42-8.95-2.94-13.55-.19-1.7-.89-2.26-2.53-2.47-6.3-.81-12.6-1.71-18.88-2.72-7.3-1.17-14.23-3.66-21.2-6.01-4.48-1.51-9.05-2.71-13.73-3.38-1.06-.15-2.13-.47-3.32,.09-.43,1.64,.25,3.19,.65,4.72,1.25,4.8,3.6,9.12,6.21,13.28,7.52,11.97,16.02,23.15,26.32,32.92,10.96,10.39,21.21,21.42,30.88,33.05,16.03,19.27,23.02,41.5,23.23,66.22,.09,10.48-1.11,20.86-2.57,31.21-.51,3.6-.87,7.22-.83,10.86,.02,1.55,0,3.09,.01,4.64,.01,1.86-.52,3.42-2.38,4.21-1.78,.76-3.24,.03-4.44-1.19-2.77-2.8-5.94-5.08-9.21-7.23-18.77-12.38-29.9-30.04-35.6-51.46-2.68-10.08-3.51-20.39-3.89-30.75-.32-8.45-.97-16.88-2.8-25.16-1.92-8.73-5.01-17.07-8.89-25.11-3.35-6.96-7.15-13.69-10.82-20.48-.28-.53-.43-1.23-1.38-1.46-.34,2.38-.15,4.82-.8,7.14-.15,.53,.12,1.08,.42,1.54,3.44,5.29,4.56,11.45,6.42,17.31,3.93,12.42,5.66,25.15,4.49,38.2-.77,8.53-2.48,16.88-4.91,25.08-2.13,7.18-3.77,14.4-3.01,21.99,.24,2.44-.8,3.81-2.59,4.2-1.75,.39-3.3-.44-4.15-2.72-6.08-16.32-13.2-32.3-15.79-49.75-2.27-15.22-1.8-30.24,2.57-45.06,.13-.43,.32-.86,.13-1.47-.61-.74-1.66-.76-2.59-1.03-2.54-.74-5.01-1.63-7.3-2.98-3.25-1.91-5.67-4.52-6.78-8.2-.16-.52-.22-1.09-.86-1.33-.97,.42-1.33,1.41-1.9,2.19-5.54,7.62-11.99,14.36-19.29,20.3-14.91,12.13-32.19,18.13-51.17,19.29-14.58,.89-27.56-3.59-38.9-12.86-11.78-9.62-18.93-22.07-22.83-36.6-3.01-11.18-4.97-22.51-5.28-34.1-.04-1.45-.04-2.9,.5-4.3,1.18-3.1,3.93-4.12,6.81-2.47,1.28,.73,2.27,1.81,3.24,2.9,1.93,2.18,3.79,4.41,5.76,6.55,14.99,16.27,33.38,25.5,55.56,27.39,15.43,1.32,30.46,.17,45.14-4.96,8.59-3,16.21-7.73,23.5-13.05,.28-.21,.49-.51,.63-.65,.25-.76-.11-1.22-.31-1.72-2.36-6.04-.94-11.44,2.99-16.28,2.63-3.24,6.12-4.03,10.04-2.8,3.24-4.36,4.69-40.32,2.47-47.79-1.11,.1-1.77,.58-1.81,1.8-.3,10.42-3.33,20.19-7.12,29.77-4.67,11.82-10.63,22.9-18.8,32.71-1.57,1.89-2.9,3.95-4.19,6.04-.96,1.55-2.19,2.74-4.21,2.39-2.05-.35-2.71-1.94-3.09-3.71-2.15-10.14-3.92-20.34-3.72-30.77,.09-4.54-.09-9.09,.47-13.62,.09-.71,.2-1.45-.19-2.15-1.28-.31-2.29,.44-3.35,.85-9.16,3.55-18.45,6.66-28.19,8.2-2.24,.35-4.5,.64-6.76,.8-1.46,.1-2.5,.55-3.43,1.78-7.04,9.28-16.54,14.48-27.88,16.55-1.8,.33-3.62,.37-5.44,.26-4.41-.27-6.34-3.2-4.78-7.31,1.33-3.48,3.11-6.78,4.12-10.37,.38-1.36,1.12-2.71,.63-4.29-1.49-.88-3.24-1.05-4.88-1.48-8.89-2.32-17.05-6.2-24.6-11.41-1.04-.72-2.09-1.48-2.98-2.37-2.8-2.82-2.09-6.14,1.64-7.46,1.79-.63,3.67-1.07,5.55-1.35,10.37-1.57,18.88-6.74,26.57-13.55,.81-.71,1.12-1.53,1.31-2.57,4.65-24.27,14.63-45.74,33.16-62.68,3.91-3.57,8.15-6.68,12.78-9.26,8.51-4.74,17.23-9,26.6-11.78,1.35-.4,2.47-.88,3.04-2.38,2.81-7.29,7.27-13.38,13.55-18.08,.37-.27,.77-.49,.82-.52,.19-1.29-.31-1.87-.63-2.51-2.89-5.76-5.8-11.52-8.69-17.29-.24-.49-.5-.98-.65-1.5-.89-3.09,.63-5.19,3.94-5.25,3.91-.07,7.81-.04,11.72,.22,8.99,.59,17.95,1.35,26.03,5.15,.7-.18,.91-.48,1-.84,1.18-5.13,3.7-9.65,6.39-14.08,4.82-7.93,10.03-15.59,15.41-23.14,.55-.77,1.39-1.43,1.38-2.68-1.1-.02-1.91,.59-2.71,1.08-12.39,7.52-25.94,8.82-39.99,7.54-3.17-.29-6.31-.8-9.38-1.63-1.25-.34-2.27-.1-3.34,.59-5.11,3.3-10.4,6.35-15.36,9.87-5.71,4.05-10.86,8.83-15.83,13.76-5.74,5.7-11.67,11.27-16.85,17.46-15.44,18.44-29.29,37.96-39.63,59.83-7.13,15.08-13.04,30.55-16.82,46.82-.55,2.39-1.28,4.74-2.32,6.97-.94,2.01-2.33,3.59-4.71,3.56-2.25-.02-3.61-1.53-4.55-3.42-1.95-3.92-3.24-8.09-4.57-12.24-2.82-8.84-4.91-17.85-6.45-27-.1-.6,.02-1.29-.56-1.75-.78-.09-1.11,.54-1.51,.99-5.17,5.74-10.52,11.32-15.4,17.32-2.64,3.25-5.04,6.67-7.24,10.23-.33,.54-.64,1.1-.99,1.63-1.47,2.26-3.07,3.02-4.95,2.37-1.76-.61-2.63-2.35-2.12-5.04,.89-4.63,1.81-9.27,2.99-13.84,5.29-20.3,15.65-37.81,29.57-53.35,12.09-13.49,26.42-24.05,42.06-33.02,16.16-9.27,32.75-17.76,48.87-27.09,2.2-1.27,4.33-2.7,6.6-3.83,7.37-3.65,13.12-9.39,19.13-14.77,.19-.17,.31-.43,.45-.63-.05-.83-.75-.98-1.26-1.31-.53-.35-1.1-.65-1.64-.98-9.44-5.77-26.58-23.85-31.84-33.6-1.17-2.16-2.27-4.36-2.96-6.72-1.04-3.58,.9-5.78,4.55-5.18,.97,.16,1.91,.55,2.84,.91,6.6,2.57,13.22,5.11,20.17,6.6,8.73,1.87,17.52,1.57,26.31,.45,5.86-.75,11.64-1.96,17.31-3.62,6.22-1.82,12.08-4.42,17.37-8.23,2.31-1.66,4.21-3.7,5.99-5.91,16.6-20.53,30.56-42.92,45.62-64.54,2.81-4.03,5.17-8.34,7.31-12.76,2.18-4.5,4.51-8.92,7.06-13.22,3.58-6.05,5.84-12.7,8.72-19.06,.1-.23,.06-.52,.11-1-1.16,0-1.8,.82-2.5,1.39-6.46,5.32-12.68,10.9-18.52,16.9-4.37,4.5-8.73,9.01-13.17,13.44-5.68,5.65-10.97,11.62-16.06,17.81-13.61,16.58-30.26,29.01-50.68,35.98-10.89,3.72-22.2,5.5-33.67,6.15-5.47,.31-10.89-.27-16.22-1.6-2.51-.62-4.66-1.82-6.7-3.46-5.2-4.18-9.88-8.85-14.27-13.84-7.8-8.87-15.67-17.68-23.06-26.92-4.01-5.01-7.31-10.41-9.86-16.26-1.35-3.08-1.75-6.47-2.02-9.83-.68-8.6,1.1-16.79,4.12-24.8,4.03-10.71,10.3-19.96,17.96-28.39,18.65-20.53,41.88-32.73,68.87-38.15,14.9-2.99,29.9-3.35,45.02-1.89,17.9,1.73,35.27,5.8,52.49,10.76,7.24,2.09,14.53,4.02,22.14,4.32,1.79,.07,2.9-.3,3.66-1.99,.61-1.36,1.83-2.22,3.13-2.94,.78-.43,1.75-.55,2.38-1.51-.7-2.98-1.56-6.03-2.12-9.13-1.97-10.9-3.78-21.83-5.75-32.73-2.7-14.94-6.85-29.53-10.9-44.14-3.27-11.81-6.41-23.66-9.42-35.54-.24-.97-.51-1.94-.59-2.93-.15-1.68,.75-3.01,2.14-3.39,1.49-.41,2.81,.18,3.62,1.71,.34,.63,.57,1.34,.75,2.04,5.46,20.82,11.97,41.34,17.39,62.16,3.57,13.73,5.84,27.71,7.97,41.72,.79,5.21,1.54,10.42,2.71,15.56,.18,.79,.4,1.59,.73,2.33,.38,.84,1.15,1.06,2.05,.99,1.04-.08,1.38-.73,1.45-1.63,.1-1.18,.24-2.35,.29-3.53,.61-16.73,.01-33.44-.85-50.15-.59-11.53-1.26-23.05-1.77-34.58-.85-19.16-1.89-38.31-1.74-57.5,0-1-.03-2.01,.07-3,.18-1.9,1.24-2.98,2.87-3.03,1.55-.05,2.61,.79,3,2.57,.23,1.06,.33,2.16,.35,3.24,.54,23.27,1.79,46.5,3,69.74,.99,18.97,2.05,37.94,2.06,56.95,0,6.37-.33,12.72-.87,19.06-.05,.54-.15,1.09,.31,1.79,2.1,.81,4.54,.9,6.9,1.6,1.09-2.53,1.05-5.03,1.36-7.42,2.16-17.04,3.43-34.17,4.51-51.31,1.15-18.33,2.1-36.66,2.15-55.03,0-.63,.01-1.29,.16-1.89,.42-1.72,1.75-2.75,3.34-2.59,1.68,.17,2.65,1.19,2.84,2.81,.22,1.89,.34,3.8,.39,5.71,.39,15.55-.33,31.08-1.15,46.6-.58,10.89-1.43,21.76-2.47,32.62-.95,9.95-1.99,19.9-4.11,29.67-.67,3.1,0,5.1,2.85,6.54,8.87-9.41,20.33-14.84,31.88-20.2,13.18-6.12,26.19-12.62,39.8-17.77,14.2-5.38,28.61-10.16,43.64-12.56,23.91-3.83,47.22-2.27,69.57,8.1,10.84,5.03,17.94,13,21.39,24.36,.67,2.19,.97,4.44,1.03,6.71,.51,19.63,1.61,39.24,1.53,58.88-.04,9.45,.26,18.91-.89,28.32-.21,1.71-.5,3.42-.86,5.1-.36,1.65-1.15,3.07-2.79,3.82-1.38,.64-2.07,2.02-3.18,2.95-1.68,1.41-3.53,2.57-5.41,3.67-4.39,2.58-8.65,5.35-12.81,8.29-7.46,5.25-15.96,8.2-24.64,10.66-10.54,2.99-21.29,4.62-32.26,4.7-.91,0-1.82,.06-2.72,.14-.24,.02-.47,.21-.69,.31-.12,.89,.5,1.38,.9,1.94,9.05,12.76,16,26.58,21.28,41.3,3.55,9.91,7.81,19.58,10.47,29.8,.85,3.25,1.65,6.51,2.46,9.77,.15,.61,.12,1.29,.75,1.68,.55,.2,.84-.22,1.15-.52,8.1-7.65,17.74-12.92,27.61-17.81,1.95-.96,4.09-1.95,6.17-.36,2.17,1.66,1.97,4.05,1.74,6.48-.67,6.96-1.38,13.92-1.79,20.9-.68,11.44-3.96,22.12-8.97,32.33-4.26,8.67-9.14,16.96-15.36,24.4-1.05,1.26-1.33,2.42-.85,3.97,2.53,8.06,4.92,16.17,9.34,23.48,1.65,2.72,2.95,5.64,4.19,8.56,4.77,11.29,11.36,21.29,20.57,29.48,2.58,2.29,5.08,4.68,7.59,7.06,7.59,7.17,16.65,11.92,26.14,15.98,6.76,2.9,13.61,5.59,20.5,8.16,2.47,.92,4.88,1.96,7.06,3.48,1.79,1.25,3.25,2.69,2.84,5.15-.38,2.27-2.21,2.96-4.04,3.58-6.58,2.22-13.38,2.36-20.22,2.07-6.08-.26-12.17-.51-18.16-1.77-.24-.05-.51,.08-.77,.13Zm-364.24-165.97l-.04-.04c.2-.21,.4-.42,.61-.63,.71-.06,1.3-.34,1.74-.92,.21-.15,.43-.29,.64-.44,4.64-3.04,8.94-6.54,13.29-9.97,22.46-17.75,43.26-37.21,60.95-59.82,9.57-12.23,17.76-25.22,23.03-39.95,5.02-14.04,8.68-28.47,12.72-42.79,.06-.22-.1-.51-.17-.85-1.81-.58-3.59-1.24-5.42-1.73-1.96-.52-3,.24-3.3,2.34-.17,1.2-.65,2.26-1.12,3.34-5.09,11.55-10.13,23.09-16.14,34.23-4.49,8.32-9.03,16.58-14.29,24.44-6.52,9.74-13.62,19.08-19.8,29.05-3.4,5.49-7.22,10.69-11.15,15.81-9.23,12.05-18.72,23.89-29.05,35.03-3.27,3.53-6.63,6.98-9.93,10.48-.18,.18-.36,.36-.54,.55-.48,.41-.95,.82-1.43,1.23-.2,.21-.4,.42-.6,.63Zm133.07-154.34l-.05-.2,.08,.16c-.47,3.21,.19,6.34,.7,9.46,1.51,9.13,3.11,18.24,4.7,27.35,1.98,11.35,4.21,22.65,7.59,33.69,.33,1.08,.39,2.35,1.46,3.1,3.61-1.86,3.69-2.07,2.74-5.86-2.01-8.01-4.62-15.85-6.5-23.9-2.99-12.81-6.8-25.41-9.28-38.35-.35-1.85-.37-3.8-1.44-5.47Zm-33.24,278.12c-.66,.16-1.05,.69-1.51,1.12-10.7,10.36-21,21.15-32.54,30.63-.67,.55-1.52,1.05-1.55,2.32,8.35,6.63,17.23,12.61,26.61,17.86,.65-.93,.74-1.56,.8-2.18,.56-5.88,1.26-11.74,1.63-17.63,.63-10.04,2.51-19.79,5.86-29.27,.33-.93,.86-1.82,.66-2.88l.03,.04Zm-159.72-144.67h-.23s0,.25,0,.25c.75,2.3,2.26,4.14,3.74,5.96,5.69,6.98,11.78,13.6,18.45,19.66,2.97,2.7,6.27,4.95,9.84,6.81,3.24,1.69,3.31,1.77,5.8-.77,6.67-6.83,13.65-13.33,20.78-19.68,2.92-2.6,5.52-5.53,8.1-8.47,.45-.52,1.15-.93,.99-2.18-1.88,.92-3.87,.41-5.82,.96-5.25,1.47-10.59,2.56-16,3.25-12.58,1.61-25,1.31-37.14-2.94-2.82-.99-5.56-2.23-8.5-2.85Zm83.89,248.8c1.32-.6,1.92-1.9,2.74-2.95,9.06-11.78,20.36-20.39,34.77-24.59,.6-.17,1.28-.22,1.54-1-2.03-7.17-3.39-14.57-6.05-22.02-1.89,2.4-3.52,4.55-5.23,6.63-1.5,1.83-3.03,3.67-5.22,4.71-1.82,.86-3.75,1.03-5.4-.31-1.64-1.34-1.94-3.17-1.4-5.2,.37-1.42,.95-2.74,1.59-4.05,1.52-3.1,3.28-6.07,5.12-8.99,.46-.73,1.24-1.35,1.12-2.46-.94-.21-1.75,.22-2.59,.49-6.39,2.04-12.02,5.51-17.59,9.15-1.5,.98-2.03,2.1-1.82,3.84,1.07,8.67,1,17.41,1.3,26.12,.12,3.36-.21,6.7-.63,10.05-.45,3.62-1.65,7.05-2.22,10.63l-.04-.04Zm-90.54-176.71c-.75,.06-1.36,.49-1.99,.83-12.91,6.87-25.77,13.84-38.39,21.22-14.86,8.68-28.1,19.33-39.22,32.58-10.16,12.11-17.97,25.51-23,40.5-.32,.96-.92,1.92-.57,3.04,.77-.08,1.01-.63,1.36-1.02,5.48-6.07,10.94-12.16,16.43-18.22,.79-.87,1.62-1.75,2.57-2.42,2.59-1.82,5.49-.94,6.65,2.01,.42,1.08,.63,2.27,.81,3.43,1.73,11.42,4.3,22.64,8.02,33.59,.28,.83,.36,1.76,1.19,2.42,1.04-.85,1-2.14,1.28-3.23,1.49-5.71,2.86-11.45,4.83-17.02,12.33-34.93,31.68-65.62,56.3-93.12,1.32-1.47,3.06-2.59,3.81-4.54l.06-.1-.11,.05Zm100.39,244.95l.03-.03c.26,1.86,1.4,3.33,2.25,4.92,5.77,10.88,10.47,22.16,13.16,34.22,2.05,9.18,2.62,18.51,3.01,27.87,.37,8.82,1.19,17.58,3.26,26.19,5.34,22.25,17.31,39.77,36.91,51.86,.37,.23,.73,.55,1.27,.38,.61-.63,.53-1.49,.57-2.28,.22-4.64,1.06-9.2,1.62-13.8,1.62-13.3,2.4-26.58,.21-39.92-2.47-15.06-7.66-28.92-17.17-41.01-3.82-4.86-7.68-9.69-11.72-14.37-7.19-8.34-15.22-15.87-23.05-23.6-3.49-3.44-6.91-6.95-10.36-10.43Zm-91.2-364.26c.59-.58,.44-.95,.4-1.3-.78-6.16,.04-12.12,2.13-17.95,3.8-10.57,8.75-20.55,14.98-29.89,4.82-7.24,10.6-13.61,17.32-19.12,19.29-15.81,41.57-24.14,66.22-26.64,13.21-1.34,26.47-1.67,39.73-1.62,4.55,.01,9.08-.3,13.61-.57,.71-.04,1.47,.06,2.2-.82-2.46-11.71,.05-23.61,.28-35.58-.56-.15-.89-.31-1.23-.32-7.6-.18-14.95-1.82-22.21-3.86-16.62-4.67-33.33-8.84-50.58-10.58-14.72-1.49-29.35-1.5-43.95,1.25-26.98,5.09-49.9,17.28-68.01,38.18-7.93,9.15-13.76,19.36-16.97,31.06-1.8,6.57-2.42,13.2-1.29,19.95,.96,5.76,4.01,10.48,7.6,14.87,9.96,12.16,20.44,23.88,31.1,35.44,2.58,2.8,5.56,5.16,8.66,7.52Zm201.79-132.69c-.19,1.61,.08,2.94,.24,4.28,.85,7.16,.95,14.33,.14,21.49-.24,2.14-.2,3.85,.95,5.88,5.83,10.23,12.45,19.88,20.67,28.32,11.91,12.23,25.58,22.03,41.18,29.09,4.4,1.99,8.84,3.79,13.51,5.02,9.95,2.62,20.02,4.47,30.32,5.01,1.12,.06,2.15,0,3.12-.66,1.19-.82,2.42-.74,3.55,.12,.93,.71,1.96,.84,3.08,.87,16.95,.53,33.31-2.35,48.99-8.75,9.75-3.98,17.93-10.66,26.76-16.2,3.19-2,5.23-5.47,5.15-9.71-.04-2.08,.39-4.17,.41-6.25,.12-17.27,.24-34.54-.37-51.81-.02-.56,.25-1.3-.67-1.63-.37,.39-.75,.77-1.1,1.18-11.56,13.63-26.07,22.89-43.05,27.99-16.64,5-33.74,6.29-50.99,3.79-12.22-1.77-23.95-5.11-34.55-11.81-6.76-4.27-13.7-8.24-20.54-12.39-6.53-3.97-13.33-7.41-20.36-10.41-8.44-3.6-17.22-4.13-26.44-3.4Zm180.16,11.26c3.71-2.97,7.06-6.13,10.02-9.71,2.47-2.99,4.15-6.38,5.11-10.13,2.11-8.33,1.96-16.31-3.01-23.81-3.66-5.52-8.65-9.11-14.57-11.84-20.98-9.67-42.88-11.09-65.32-7.37-14.29,2.37-28,6.93-41.51,12.05-17.44,6.6-33.98,15.19-50.82,23.11-4.19,1.97-8.1,4.5-11.82,7.28-.67,.5-1.67,.81-1.69,1.92,.68,.49,1.43,.32,2.13,.31,7.37-.08,14.4,1.45,21.25,4.14,8.74,3.43,17,7.8,24.95,12.76,1.74,1.09,3.16,1.19,5.02,.26,6.18-3.08,12.45-5.95,18.81-8.65,12.02-5.1,24.55-7.75,37.59-8,13.01-.25,25.69,1.89,38.14,5.47,9.11,2.62,17.94,5.9,25.74,12.21Zm-230.98,31.23c-.24-.38-.61-.3-.96-.29-8.72,.26-17.44,.53-26.16,.78-12.37,.35-24.68,1.32-36.8,3.88-20.02,4.22-37.64,13.2-52.5,27.32-9.31,8.85-15.61,19.78-20.95,31.31-4.24,9.15-7.68,18.48-6.36,29.14,2.11,.45,4.55,.63,6.97,.54,13.07-.48,25.87-2.58,38.09-7.29,17.69-6.82,32.35-17.9,44.31-32.57,4.31-5.29,8.79-10.41,13.64-15.22,5.29-5.25,10.49-10.59,15.78-15.84,7.56-7.5,15.4-14.67,24.16-20.77,.35-.24,.86-.4,.78-.99Zm112.3,350.78c-3.17,.95-6.41,1.45-9.31,3.28-9.71,6.13-20.28,9.1-31.82,8.73-9-.29-17.97-.86-26.95-1.49-3.14-.22-6.3-1.08-9.45,0-.62,.21-1.29,0-1.84-.33-1.39-.84-2.93-.86-4.47-.98-16.7-1.24-33.21,.34-49.64,3.26-15.85,2.82-29.03,10.14-38.95,22.99-3.83,4.96-7.62,9.96-11.43,14.94-.28,.37-.53,.74-.46,1.38,.72,.19,1.49,.48,2.28,.6,3.78,.56,7.51,1.43,11.1,2.7,11.52,4.09,23.37,6.7,35.5,8.13,5.97,.71,11.96,1.33,17.93,.37,15.89-2.56,31.49-6.48,46.91-10.95,15.15-4.39,28.56-12.53,41.61-21.19,4.63-3.07,9.25-6.11,14.34-8.35,.94-.41,1.77-.85,2.14-1.92,2.53-7.26,7.35-13.11,11.83-19.17,.37-.49,.94-.9,.69-2Zm-264.47,22.55c5.05-1.36,9.92-3.05,14.75-5.27-1.19-2.22-2.55-3.99-2.92-6.18-.35-2.02,.41-3.55,1.92-4.02,1.59-.49,2.91,.28,3.65,2.37,.7,1.98,1.81,3.7,2.79,5.4,.38,0,.57,.05,.74,0,.6-.2,1.2-.41,1.79-.65,12.22-5.04,23.78-11.29,34.71-18.73,12.09-8.23,24.02-16.71,36.83-23.82,.1-.06,.1-.3,.14-.46-.25-.43-.68-.56-1.12-.7-10.12-3.29-20.39-5.96-30.92-7.55-9.21-1.39-18.43-1.83-27.69-.34-13.22,2.13-26.1,5.6-38.77,9.8-13.69,4.54-26.76,10.39-38.05,19.63-3.66,2.99-7.31,5.99-10.98,8.97-6.87,5.59-14.49,9.65-23.24,11.44-.61,.13-1.28,.16-1.58,.86,12.34,10.42,57.01,17.76,72.76,10.28-.06-.59-.57-.91-.85-1.36-1.93-3.11-3.55-6.36-4.1-10.01-.31-2.04,.48-3.34,1.92-3.75,1.4-.4,2.95,.36,3.56,2.23,1.3,3.96,3.54,7.53,4.65,11.85Zm214.02-273.16c.34-.48,.59-.74,.74-1.05,4.71-9.11,9.71-18.09,12.59-28.02,.53-1.84,1.22-3.69,3.65-3.82,4.19-.22,4.96,.17,6.29,3.24,3.19,7.33,6.25,14.71,9.61,21.96,5.03,10.86,8.54,22.15,10.73,33.92,2.41,12.95,5.59,25.74,10.24,38.1,5.08,13.49,12.92,25.16,23.75,34.75,.93,.82,1.86,1.68,3.29,2.29-.02-1.57-.24-2.99,.76-4.08,1.83-2.01,3.62-4.07,5.58-5.97,1.29-1.25,2.84-1.2,3.93-.21,1.08,.98,1.36,2.57,.23,3.95-2.41,2.95-4.52,6.3-8.46,7.63,3.32,3.11,26.67,15.31,30.2,15.73-.36-10.19-.65-20.33-3.12-30.27-5.49-22.1-14.5-42.81-25.17-62.82-4.45-8.34-9.82-16.21-16.88-22.64-8.26-7.52-16.57-15.01-25.57-21.67-3.14-2.32-6.23-4.71-9.28-7.16-7.69-6.19-13.84-13.6-17.88-22.68-2.25-5.07-5-9.88-7.79-14.67-.4-.68-.63-1.5-1.52-1.98-.12,.93,.31,1.66,.57,2.4,1.49,4.2,2.73,8.47,3.8,12.79,.57,2.29,.83,4.74,1.86,6.81,1.18,2.36,.88,4.26-.2,6.43-3.82,7.7-9.04,14.23-15.86,19.48-2.2,1.7-2.23,1.69-1.36,4.2,1.25,3.6,2.52,7.19,3.81,10.78,.3,.83,.46,1.75,1.42,2.58Zm51.45,358.22c-1.6-.69-2.54,.35-3.5,1.09-3.48,2.7-6.26,6.07-8.86,9.58-6.99,9.47-12.76,19.66-17.46,30.44-5.73,13.16-11.22,26.42-17.55,39.31-3.61,7.36-6.48,15-8.36,23-1.33,5.66-2.35,11.38-3.24,17.13-1.8,11.71-2.92,23.45-1.34,35.29,.46,3.42,.91,6.86,2.42,10.02,1.68,3.54,4.17,4.31,7.57,2.43,1.68-.93,3.17-2.14,4.54-3.47,2.81-2.72,5.52-5.54,8.35-8.23,6.91-6.59,11.85-14.43,14.96-23.44,.47-1.37,.99-2.73,1.54-4.08,5.4-13.39,8.98-27.19,10.12-41.65,.89-11.32,2.36-22.59,3.51-33.88,1.03-10.12,2.01-20.25,2.97-30.38,.67-7.07,1.73-14.06,4.05-20.8,.24-.68,.48-1.38,.29-2.34Zm10.55-.99c-.42,.48-.21,1.01-.11,1.53,1.09,5.8,2.56,11.51,4.32,17.15,2.97,9.5,7.93,18.11,12.34,26.95,2.11,4.23,4.5,8.31,7.28,12.13,5.55,7.64,11.4,15.06,17.42,22.34,3.6,4.36,7.73,8.18,12.46,11.32,6.58,4.36,13.81,7.27,21.38,9.31,9.99,2.69,20.23,4.31,30.34,6.47,.68,.15,1.44,.34,2.1-.42-.22-2.95-1.16-5.79-2.29-8.55-2.95-7.22-6.1-14.37-9.42-21.43-1.66-3.54-3.73-6.85-5.91-10.1-10.11-15.08-23.57-26.61-38.82-36.1-16.42-10.22-33.04-20.1-49.58-30.13-.46-.28-.9-.64-1.52-.46Zm-362.99-45.55c-.52,.38-.54,.75-.5,1.1,.28,2.71,.49,5.43,.86,8.12,1.46,10.74,3.75,21.27,8.03,31.28,9.92,23.21,30.9,35.85,55.9,33.18,13.72-1.47,26.5-5.99,37.91-14.03,15.35-10.81,26.18-25.23,33.97-42.13,.1-.22,.04-.51,.06-.94-1.12,.2-1.84,.91-2.62,1.45-4.7,3.29-9.54,6.34-14.81,8.62-25.03,10.82-50.67,11.18-76.42,3.41-16.15-4.88-29.1-14.97-40.03-27.7-.7-.81-1.26-1.78-2.34-2.38Zm226.98-273.54c-.44,1.16-.26,2.26-.25,3.33,.12,12-.51,23.95-1.49,35.91-.99,12.05-1.07,24.1,.84,36.13,2.65,16.71,8.87,31.92,18.36,45.86,1.02,1.5,2.24,2.86,3.38,4.27,.55,.68,1.18,1.1,2.12,.67,1.96-.91,3.93-1.64,5.52-3.33,9.11-9.64,17.71-19.74,26.81-29.38,1.69-1.79,1.86-3.35,1.13-5.58-3.01-9.16-7.51-17.55-13.33-25.16-10.11-13.21-19.1-27.19-28.58-40.84-4.77-6.86-9.52-13.73-13.52-21.08-.17-.32-.38-.61-1-.79Zm38.25,374.2c.33-.21,.59-.32,.78-.49,15.26-13.87,23.51-30.83,23.05-51.74-.35-15.89-2.79-31.43-7.21-46.67-.2-.67-.28-1.44-1.07-2.04-17.33,3.63-34.33,9.3-52.29,10.99-.23,2.14,.27,3.99,.66,5.82,1.7,8.01,4.54,15.68,7.37,23.33,7.43,20.12,15.84,39.79,26.78,58.3,.5,.84,.82,1.84,1.92,2.49Zm-22.86-244.26c-7.38-9.93-13.05-20.23-17.16-31.34-4.13-11.18-5.98-22.88-7.12-34.89-4.62,1.52-8.91,2.6-13.4,2.72-4.28,.11-5.74-1.38-5.37-5.73,.37-4.34,.81-8.67,1.35-13,2.22-17.86,7.9-34.46,18.01-49.41,2.28-3.37,1.56-6.74,1.3-10.28-2.36,3.51-4.74,6.97-6.36,10.75-.97,2.27-2.03,4.42-3.39,6.45-1.26,1.89-2.56,3.75-3.87,5.61-9.28,13.12-18.6,26.23-27.86,39.37-4.03,5.72-7.86,11.57-11.43,17.58-2.17,3.65-3.96,7.47-5.1,11.46,.27,.29,.37,.46,.52,.54,1.75,.97,3.48,1.96,5.26,2.86,9.84,4.97,17.37,12.43,23.22,21.67,1.8,2.84,3.51,5.73,5.23,8.62,4.4,7.37,10.79,12.38,18.58,15.78,8.87,3.87,17.94,2.59,27.58,1.23Zm47.64,20.75c-6.24,.09-10.78,.11-15.31-.21-1.37-.1-2.73-.04-4.07,.21-2.17,.4-3.17,1.37-3.59,3.52-.23,1.16-.3,2.33-.14,3.52,.97,7.21,3.57,13.66,8.69,18.97,2.59,2.69,5.44,5.08,8.25,7.52,15.82,13.7,34.21,21.19,55.01,23.17,3.85,.37,6.61-1.45,9.61-3.07,1.86-1.01,.89-3.18,1.69-4.66,.34-.63,.43-1.39,.73-2.05,.51-1.11,.65-2.26,.6-3.45-.46-10.89-.58-21.79-1.39-32.66-.24-3.3-.24-3.27-3.48-4.16-7.72-2.13-15.62-3.21-23.56-4.19-11.54-1.43-23.04-3.18-33.03-2.46Zm129.42,193.44c3.02-4.07,5.75-7.92,8.67-11.62,10.11-12.83,15.24-27.5,16.44-43.68,.1-1.4-.24-2.46-1.21-3.42-1.87-1.85-3.65-3.8-5.57-5.61-4.7-4.44-10.07-8-15.09-11.71-1.24,.29-1.85,.99-2.55,1.56-8.49,7.01-16.41,14.63-24.07,22.52-6.85,7.05-13.04,14.66-18.3,22.99-1.57,2.49-1.44,2.84,.93,4.27,11.11,6.72,22.22,13.45,33.33,20.17,2.4,1.45,4.79,2.92,7.42,4.52Zm-25.41-265.42c-.34-.35-.44-.52-.59-.6-.86-.5-1.73-1-2.61-1.46-8.15-4.3-15.9-9.16-22.21-16.03-8.82-9.62-15.73-20.41-20.18-32.72-4.2-11.64-7.26-23.6-9.7-35.72-1.65-8.19-2.96-16.47-6.12-24.26-3.93-9.68-8.07-19.26-12.14-28.88-.15-.35-.24-.91-1.07-.77-.64,1.58-1.3,3.26-2,4.92-.74,1.76-1.32,3.62-2.32,5.22-2.14,3.42-1.77,6.8-1.14,10.63,1.89,11.54,5.36,22.57,9.44,33.47,5.65,15.06,10.6,30.33,14.37,45.99,3.57,14.83,7.77,29.51,8.39,44.88,.04,.87,.36,1.52,.97,2.16,1.53,1.6,3.26,2.89,5.32,3.72,4.1,1.65,8.39,2.48,12.79,2.13,9.36-.75,17.86-3.95,25.49-9.42,1.24-.89,2.52-1.77,3.32-3.25Zm-137.54-47.5c1.07-.33,1.75-1.22,2.5-1.98,11.24-11.41,20.68-24.11,27.42-38.71,2.77-6.01,5.17-12.2,8.53-17.91,.75-1.27,.83-2.2,.35-3.5-2-5.36-3.9-10.75-5.88-16.12-.3-.82-.37-1.81-1.52-2.45-4.18,2.2-8.47,4.47-12.99,6.34-7.24,2.99-13.76,7.35-20.05,12.02-8.28,6.15-15.7,13.2-22.35,21.09-1.31,1.55-1.52,2.88-.48,4.61,1.36,2.25,2.47,4.65,3.86,6.89,6.02,9.74,12.75,19.01,19.22,28.45,.35,.52,.67,1.1,1.4,1.27Zm161.98,20.27c2.11-3.13,3.12-6.24,4.21-9.29,1.7-4.72,3.58-9.34,6.43-13.49,1.05-1.52,1.16-2.8,.38-4.49-3.54-7.67-6.92-15.41-10.44-23.09-5.82-12.69-12.95-24.56-21.71-35.47-6.74-8.39-14.26-16.01-21.97-23.46-11.58-11.18-24.23-21.17-35.86-32.29-.45-.43-.99-.82-1.54-1.11-9.17-4.83-17.01-11.45-24.68-18.31-.58-.52-1.06-1.23-1.98-1.41-.25,.97,.43,1.57,.81,2.22,3.79,6.63,7.59,13.24,10.85,20.15,3.12,6.6,7.61,12.15,13.13,16.87,2.48,2.13,5.01,4.22,7.67,6.12,9.78,6.99,18.71,15.01,27.77,22.86,4.21,3.65,7.85,7.81,11.19,12.25,7.59,10.09,13.38,21.16,18.35,32.73,6.64,15.46,13.08,30.97,16.69,47.49,.09,.43,.32,.82,.68,1.71Zm-288.03,42.86c3.49-1.47,6.69-1.38,9.88-.26,.25,.09,.54,.09,.81,.12,5.2,.5,9.04,3.1,11.46,7.69,.69,1.3,1.42,1.89,2.96,1.68,7.06-.95,12.78,4.79,14.37,10.16,1.38,4.68,1.12,9.34-.52,13.92-1.77,4.92-5.01,8.33-10.2,9.72-1.97,.53-3.92,.2-5.87,.09-.04,.53,.22,.8,.48,1.05,3.72,3.55,7.83,6.44,12.73,8.18,8.48,3.01,17.18,4.49,26.18,4.34,13.8-.23,26.79-4.51,39.93-7.96,2.68-.7,4.58-2.96,6.66-4.88-1.81,.29-3.27-.83-4.92-.7-1.72,.14-3.45,.24-5.17,.28-15.83,.38-27.96-6.51-37.17-19.03-1.56-2.11-2.91-4.4-4.14-6.73-9.06-17.09-24.41-25.81-41.93-31.66-1.37-.46-2.81-.73-4.24-.97-5.56-.93-11.19-1.27-16.81-1.54-.78-.04-1.64-.29-2.57,.63,2.31,5.27,5.06,10.43,8.07,15.87Zm333.93-260.22c-19.17-10.46-39.36-14.78-60.59-14.37-17.66,.34-33.51,6.95-49.13,14.81,30.91,23.32,85.5,19.09,109.72-.44Zm75.14,345.48c-3.06-1.17-5.75-2.18-8.44-3.22-26.12-10.12-32.91-14.6-50.7-32.27-7.35-7.3-12.78-15.8-17.08-25.07-2.48-5.36-4.9-10.74-7.84-15.86-.33-.57-.34-1.46-1.45-1.64,.03,.58,.04,1.11,.08,1.63,.37,4.89,1.01,9.75,1.68,14.61,2.17,15.6,5.6,30.9,11.05,45.7,4.14,11.27,10.36,21.15,19.58,29.05,10.96,9.39,23.29,16.38,36.76,21.43,.53,.2,1.09,.69,1.73-.02-.23-.31-.4-.62-.64-.87-8.6-9.13-16.28-19.08-25.41-27.72-.92-.87-1.78-1.85-2.43-2.92-1.86-3.06-.15-6.18,3.41-6.4,1.66-.1,3.28,.21,4.83,.7,10.37,3.29,21.07,3.66,31.81,3.63,.87,0,1.81,.22,3.07-.75Zm-27.52,131.06c-.53-1.31-1.74-2-2.83-2.77-2.68-1.88-5.35-3.78-7.65-6.12-6.81-6.94-13.75-13.75-20.36-20.87-6.58-7.08-13.75-13.49-21.3-19.47-9.07-7.19-19.17-12.36-30.4-15.42-11.84-3.23-23.9-5.37-35.91-7.8-.4-.08-.87-.23-1.19,.29,.57,.9,1.57,1.2,2.42,1.66,7.58,4.15,14.84,8.8,21.73,14.03,5.71,4.34,11.42,8.7,17.22,12.92,5.23,3.81,10.11,8,14.55,12.71,5.23,5.56,10.77,10.8,16.22,16.14,9.07,8.88,20.13,13.77,32.03,17.24,4.34,1.27,8.62,.96,12.82-.64,.99-.38,2.08-.68,2.65-1.89Zm-195.39-269.38c1.17-2.14,1.94-3.89,3.02-5.43,1.52-2.18,1.45-4.21,.45-6.61-6.63-15.93-13.16-31.9-19.73-47.86-.27-.65-.38-1.43-1.18-1.79-.92,.4-1.14,1.34-1.51,2.12-1.56,3.28-3.17,6.54-4.59,9.88-3.86,9.1-8.93,17.49-15.01,25.23-2.09,2.66-3.03,5.49-3.31,8.67-.68,7.7-1.92,15.32-3.85,22.8-.64,2.47-.17,4.23,1.4,6.2,6.84,8.57,12.52,17.84,16.31,28.19,.2,.55,.24,1.3,1.32,1.6,3.63-4.57,6.72-9.62,10-14.66-2.45-2.28-4.46-4.49-5.89-7.16-3.65-6.83-4.49-14.12-3.51-21.69,.41-3.19,1.34-6.22,3.29-8.84,2.6-3.49,6.85-5.22,10.54-3.96,3.57,1.21,6.83,3.04,8.72,6.56,1.11,2.07,2.17,4.16,3.52,6.75Zm85.37,190.74c.99,.23,2.02,.54,3.06,.7,9.53,1.45,18.86,3.77,28.16,6.21,2.61,.69,2.61,.66,4.19-1.64,3.1-4.5,4.66-9.59,5.85-14.85,.37-1.64,.42-3.17-.1-4.81-.87-2.77-1.4-5.63-1.9-8.49-1.25-7.16-1.43-14.46-2.68-21.62-1.27-7.25-2.89-14.42-5.86-21.2-.36-.83-.45-1.95-1.75-2.32-.81,2.8-1.64,5.48-2.34,8.19-1.36,5.25-4.12,9.64-7.93,13.44-2.72,2.71-5.67,5.1-8.95,7.09-5.99,3.64-12.26,6.7-18.79,9.26-.8,.31-1.78,.36-2.24,1.28,.5,.95,1.46,1.15,2.2,1.61,4.3,2.64,8.2,5.74,10.98,10.02,3.3,5.07,3.03,10.2-.62,14.92-.48,.62-1.31,1.04-1.29,2.22Zm-173.45-247.78c1.16-.38,1.64-1.32,2.29-2.04,9.95-11.02,21.36-20.2,34.31-27.47,1.86-1.04,2.99-1.94,3.43-4.49,1.03-5.94,1.51-11.87,1.41-17.86-.12-7.36-.33-14.71-.68-22.06-.28-5.71-.65-11.42-1.22-17.12-.85-8.49-2.04-16.95-2.37-25.49-.02-.46,.22-1.11-.62-1.35-.3,.55-.67,1.07-.88,1.65-.37,1.02-.69,2.06-.94,3.12-3.1,12.89-6.67,25.63-10.88,38.21-3.18,9.48-7.95,18.27-11.3,27.7-4.1,11.52-8.39,23.02-13.45,34.19-.99,2.18-1.35,4.29-.8,6.56,.52,2.15,.4,4.5,1.71,6.45Zm153.02,258.04c-.9,1.46-.84,2.57-.96,3.64-.45,3.92-1.46,7.67-3.36,11.14-3.38,6.15-8.59,9.42-15.62,9.75-.71,.03-1.47-.16-2.12,.42-.48,1.34-.65,2.77-.77,4.22-.34,4.36-.32,8.71-.01,13.06,.5,6.97,1.05,13.94,2.2,20.84,.22,1.33,.2,2.88,1.35,3.75,2.51,1.88,5.22,3.46,7.92,4.96,11.82-20.45,28.91-35.62,46.66-50.59-11.14-8.41-22.21-16.37-35.29-21.19Zm-339.57-45.24c1.04-.1,1.57-.62,2.15-1.05,5.75-4.34,12.01-7.81,18.53-10.85,8.99-4.19,18.3-7.46,27.82-10.2,1.17-.34,2.54-.35,3.48-1.46-.61-2.64,.3-5.03,1.17-7.42,3.48-9.6,8.11-18.63,13.55-27.25,.94-1.49,1.15-2.66,.3-4.23-1.08-2.02-1.46-4.27-1.53-6.57-.02-.78,.23-1.64-.47-2.36-1.12-.2-2.1,.38-3.1,.76-4.85,1.81-9.48,4.13-14.12,6.4-17.68,8.67-30.11,22.45-38.75,39.87-3.31,6.67-5.93,13.64-8.17,20.75-.35,1.11-.86,2.18-.86,3.62Zm445.41,49.49c-.11,.73,.39,1.19,.75,1.69,3.37,4.62,6.76,9.24,10.15,13.85,1.4,1.91,2.98,3.67,4.75,5.24,4.63,4.1,9.48,7.93,14.61,11.38,3.56,2.4,7.38,4.31,11.51,5.49,5.76,1.64,11.52,3.27,17.32,4.78,7.78,2.02,15.7,1.19,23.59,.95,.13,0,.25-.22,.37-.33,.1-.86-.48-1.38-.96-1.88-2.92-3.03-5.23-6.51-7.53-10-4.74-7.22-10.87-12.88-18.68-16.68-2.94-1.43-5.83-2.97-8.77-4.39-5.53-2.67-11.37-4.28-17.46-5.02-9.38-1.13-18.7-2.61-27.85-5.04-.6-.16-1.2-.49-1.81-.04Zm-137.05-141.43c-.36,.41-.23,.86-.15,1.3,2.81,14.71,5.31,29.47,6.9,44.38,.14,1.34,.62,2.12,2,2.5,4.99,1.38,9.76,3.41,14.66,5.05,8.68,2.89,17.53,4.7,26.76,3.48,1.23-.16,2.48-.2,3.89-.89-2.26-1.96-4.58-3.54-6.02-6.03-1.49-2.58-1.68-5.46-1.99-8.21-1.01-.23-1.67,.18-2.35,.37-5.93,1.65-10.65-1.45-11.14-7.62-.82-10.39,1.69-19.81,8.7-27.79,.45-.52,1.18-.9,1.14-1.75-.17-.09-.32-.25-.46-.24-.54,.04-1.09,.1-1.62,.22-7.33,1.69-14.72,1.93-22.19,1.1-5.75-.64-11.27-1.87-16.22-5.05-.58-.37-1.08-1-1.91-.81Zm-216.18-67.99c3.28,1.19,6.12,1.04,8.9,1.13,10.4,.35,20.47-.96,29.69-6.31,2.59-1.5,5.32-2.77,7.92-4.25,6.14-3.52,11.57-7.87,15.45-13.9,8-12.45,16.02-24.9,22.22-38.39,3.03-6.59,5.82-13.3,8.7-19.96,.24-.55,.71-1.09,.16-2.06-26.16,33.12-58.39,59.35-93.03,83.74Zm299.06-2.94c-1.05,.83-1.46,2.07-1.94,3.21-1.19,2.85-2.25,5.75-3.37,8.62-1.72,4.41-3.47,8.83-6.66,12.42-1.21,1.36-1.62,2.74-1.41,4.46,.82,6.76,.47,13.6,1.51,20.36,.81,5.26-2.22,7.29-7.07,5.06-1.57-.72-3.1-1.51-4.65-2.27-2.53-1.24-5.08-2.44-7.58-3.72-1.15-.59-1.94-.45-2.85,.53-6.52,7.03-14.83,10.93-23.89,13.45-6.03,1.67-12.13,2.15-18.33,1.03-2.29-.42-4.46-1.31-6.74-1.84-.04,.28-.09,.39-.05,.45,.14,.23,.27,.48,.46,.65,3.48,3.15,7.33,5.69,11.96,6.78,6.97,1.64,14.1,2.12,21.12,1.02,11.83-1.85,23.51-4.38,34.88-8.43,9.03-3.22,16.8-8.06,23.73-14.52,1.4-1.3,1.97-2.6,1.75-4.52-1.57-14.05-4.49-27.77-9.74-40.94-.26-.66-.36-1.41-1.14-1.8Zm7.17-4.16c.52-.7,.21-1.41,.11-2.1-1.22-8.92-3.23-17.68-5.56-26.36-3.11-11.61-7.89-22.63-12.05-33.86-3.22-8.7-7.23-17.04-12.02-25.02-3-5-6.54-9.62-9.58-14.57-.86-1.41-1.81-2.03-3.44-2.1-11.76-.56-23.26-2.67-34.59-5.83-.69-.19-1.45-.79-2.3-.21,.48,1.11,1.49,1.63,2.31,2.31,8.63,7.12,16.93,14.61,24.91,22.45,12.52,12.3,23.35,25.92,31.67,41.44,7.17,13.39,12.97,27.42,19.11,41.28,.39,.89,.53,1.93,1.43,2.57Zm-16.29,131.25c-3.89,1.32-7.21,1.81-10.22,3.44-9.3,5.04-19.27,5.38-29.43,3.81-7.57-1.17-14.75-3.78-21.88-6.51-1.32-.51-2.64-1.16-4.12-1.05-.48,2.83,.51,24.74,1.19,26.32,.84-.33,1.66-.7,2.51-.99,2.12-.72,4.37-1.03,6.37,.03,4.63,2.44,8.84,5.42,10.96,10.53,.27,.65,.46,1.39,1.11,1.84,.18,.03,.36,.11,.53,.08,.62-.13,1.24-.27,1.85-.46,9.25-2.88,17.9-7.03,26-12.34,3.21-2.11,6-4.7,8.47-7.64,4.04-4.78,4.79-10.77,6.65-17.07Zm-140.07-326.95c-.24-4.83-.38-9.63-1.4-14.36-.55-2.57-1.81-4.53-4.2-5.67-7.58-3.62-15.35-3.78-23.28-1.34-1.26,.39-1.96,1.25-2.22,2.5-.2,.97-.46,1.95-.56,2.93-.49,4.96-1.04,9.92-1.37,14.9-.36,5.34-.44,10.68,.2,16.03,.5,4.12,2.57,6.45,6.61,7.55,6.31,1.72,12.13,.6,18-1.87,4.41-1.86,6.68-4.99,7.37-9.59,.55-3.69,.7-7.4,.86-11.09Zm191.05,164.84c-3.95,1.79-7.39,3.78-10.77,5.87-6.04,3.72-12.02,7.48-16.59,13.11-1,1.23-1.27,2.23-1,3.65,.71,3.84,1.23,7.71,1.51,11.61,.75,10.6,1.81,21.17,3.37,31.68,.22,1.45,.03,3.09,1.11,4.31,.8-.2,1.11-.8,1.47-1.31,7.15-10.16,13.05-20.95,16.74-32.87,2.72-8.77,2.9-17.88,3.61-26.92,.23-2.87,.93-5.73,.56-9.13Zm-313.3,324.92c-3.63,.9-5.64,3.03-6.5,6.6-2.6,10.87-3.38,21.85-2.43,32.97,1.06,12.49,4.35,24.44,8.74,36.12,.66,1.76,1.13,3.62,2.16,5.37,10.46-27.36,9.67-54.3-1.97-81.05Zm64.6-171.88c-.92-.66-1.76-.07-2.6,.13-6.08,1.47-12.1,3.18-18.3,4.17-16,2.57-31.48,1.15-46.24-5.91-.4-.19-.79-.51-1.41,.14,1.77,6.82,4.4,13.44,7.83,19.75,.46,.85,1.28,1.24,2.18,1.51,5.9,1.8,11.79,3.63,17.69,5.43,4.72,1.44,9.54,.89,14.33,.62,.99-.06,2.19-.16,2.76-1.41,1.46-3.23,4.07-5.52,6.6-7.87,5.12-4.76,10.62-9.11,15.43-14.2,.66-.7,1.58-1.25,1.73-2.36Zm104.52,61.52c-4.5-.78-8.39-1.14-12.15-2.23-17.94-5.2-33.3-14.65-46.54-27.76-6.02-5.96-9.81-12.98-11.53-21.21-1.09-5.21-1.15-10.28,1.84-14.99,.07-.11-.04-.33-.1-.68-1-.32-1.95-1.08-3.2-.93-.62,.72-.44,1.58-.46,2.37-.14,6.2,.46,12.35,1.49,18.45,2.06,12.16,6.13,23.71,10.92,35.02,1.56,3.68,3.29,7.3,4.29,11.18,.46,1.78,1.38,2.43,3.21,2.59,11.77,.99,23.53,2.06,35.37,2,3.29-.02,6.54-.4,9.72-1.17,2.26-.54,4.57-1.03,7.15-2.64Zm-37.08-91.31c12.23-14.97,26.01-27.64,43.57-35.46-.19-3.29-1.24-7.08-2.49-8.9-.89,1.18-1.69,2.37-2.62,3.47-4.66,5.53-11.09,5.23-15.31-.68-1.83-2.57-2.73-5.51-3.27-8.57-.12-.68,.06-1.5-.88-1.88-1.05,.4-2.12,.98-3.25,1.2-1.39,.27-2.23,1.05-2.95,2.16-4.05,6.26-8.65,12.11-13.62,17.67-.98,1.1-1.3,2.16-1.01,3.69,1.56,8.23,2.41,16.51,1.37,24.9-.08,.61-.2,1.27,.46,2.41Zm79.56,117.78c.45-7.61-1.44-13.95-3.6-20.23-.38-1.11-1.07-2.1-1.83-3.01-.41-.49-.84-1.11-1.49-1.1-2.87,.05-5.89-.37-8.19,1.99-.89,.91-1.82,1.81-2.51,2.86-3.02,4.65-5.77,9.44-6.81,15-.1,.52-.27,1.1-.59,1.49-1.45,1.73-1.81,3.93-2.67,5.91-1.41,3.25-.45,5.87,1.93,8.1,3.14,2.94,6.7,5.3,10.73,6.83,4.11,1.56,8.22,.33,10.94-3.14,1.31-1.67,2.12-3.58,2.75-5.59,1.02-3.24,1.16-6.6,1.34-9.11Zm-248.77-103.99c.45-.02,.91-.02,1.36-.07,14.33-1.67,22.3-12.44,22.23-25.5-.05-9.2-8.71-11.76-15.44-8.47-.76,.37-1.48,.75-2.3,.64-1.71-.23-2.95,.63-4.16,1.64-4.27,3.56-7.38,7.98-9.55,13.07-1.22,2.86-2.06,5.83-2.23,8.94-.25,4.54,1.68,7.62,5.55,8.97,1.47,.51,2.99,.77,4.54,.77Zm164.99,6.82c.63,.76,1.19,.78,1.73,.79,4.27,.05,8.54,.13,12.81,.11,1.84,0,3.58-.51,5.12-1.61,4.44-3.18,8.62-6.67,12.62-10.39,1.18-1.1,1.59-2.21,1.15-3.86-1.11-4.15-1.43-8.41-1.18-12.7,.14-2.49,.73-4.86,2.13-6.95,1.89-2.83,4.97-3.87,8.09-2.83,1.58,.53,2.91,1.47,4.19,2.5,.68,.55,1.15,1.45,2.71,1.4-.06-5.28,1.57-10.53,.17-15.83-1.5-.12-2.33,.51-3.17,.99-7.5,4.31-14.8,8.93-21.1,14.92-8.11,7.7-16.15,15.48-21.62,25.43-.17,.31-.38,.67-.67,.85-2.89,1.78-2.28,4.82-2.98,7.19Zm-174.38,132.16c10.12-8.74,26.81-45.87,25.14-55.55-.39-.1-.71,.08-1.02,.26-7.77,4.72-15.85,8.87-24.24,12.37-1.37,.57-1.87,1.49-1.98,2.91-.79,10.62-.98,21.23,.47,31.81,.37,2.68,.58,5.4,1.62,8.19Zm153.59-60.62c0-2.37-.94-4.15-1.73-5.93-2.35-5.32-4.61-10.66-6.58-16.13-5.29-14.65-8.58-29.63-8-45.31,.02-.44,.09-.91-.24-1.29-.15,.08-.37,.12-.44,.25-.25,.48-.49,.97-.67,1.48-2.2,6.08-3.78,12.31-4.8,18.69-1.16,7.28-1.26,14.65-2.13,21.96-.39,3.24-.71,6.5-1.08,9.74-.23,1.95,.39,3.48,1.88,4.83,3.23,2.93,6.64,5.66,9.9,8.55,4.09,3.63,8.95,3.09,13.9,3.17Zm-8.29-86.26q1.34,2.92,.31,5.2c-1.59,3.5-1.13,4.72,2.38,6.37,.49,.23,.99,.47,1.51,.62,1.9,.55,3.95,.78,5.1,2.75,.23,.4,.77,.45,1.23,.46,3.54,.05,7.08,.09,10.62,.16,1.22,.02,1.76-.52,1.96-1.74,.83-5.19,1.82-10.36,2.59-15.55,1.11-7.47,1.67-14.97,.65-22.51-.16-1.19-.2-2.44-1.08-4.03-7.92,10.22-16.8,19.02-25.27,28.25Zm-13.99,86.12c.07-.22,.13-.44,.2-.66-5.44-4.33-10.11-9.59-16.32-13-7.03-3.86-13.49-8.56-19.78-13.5-.52-.41-.93-1.18-1.93-.84-.51,1.78-.12,3.59,.27,5.32,1.81,8.15,4.46,16.08,6.25,24.23,.5,2.27,.65,2.22,3.03,1.82,6.35-1.09,12.72-2.03,19.15-2.54,3.05-.24,6.09-.55,9.13-.83Zm181.8-73.04c.09-2.61-.76-5-1.8-7.34-.26-.59-.63-1.23-1.24-1.39-3.31-.86-6.66-2.2-10.06-.54-5.7,2.79-9.41,7.33-11.07,13.44-.73,2.71-.27,5.28,2.08,7.15,2.89,2.31,6.23,3.41,9.91,2.86,7.93-1.19,12.08-6.09,12.18-14.19Zm-273.71,118.17c1.02-.29,1.23-1.27,1.69-2,1.54-2.46,2.88-5.06,4.58-7.4,2.42-3.32,3.71-7.02,4.42-11,.88-4.93,1.35-9.89,1.01-14.9-.35-5.17-.39-10.34-.52-15.51-.05-1.88-.18-3.76-.72-5.73-2.08,.69-3.5,2.18-5.25,3.08-3.57,1.83-5.87,4.18-4.03,8.54,.03,.08,.02,.18,.02,.27,1.14,14.25,.8,28.46-1.37,42.61-.1,.67-.46,1.38,.16,2.05Zm-39.68-118.42c-4.18,4.64-14.53,26.39-14.73,30.79,.07,.05,.16,.15,.22,.14,5.96-1.07,11.78-2.83,17.78-3.77,.8-.13,1.2-.67,1.29-1.51,.75-7.1,3.35-13.69,5.53-20.4,.27-.84,.83-1.63,.36-2.93-3.57-.05-7.19-.65-10.45-2.3Zm103.24-83.71c-.24-16.25,2.73-32.18,1.77-48.29-9.19,15.63-12.93,32.68-14.1,50.77,4.42,.15,8.07-1.63,12.34-2.48Zm68.26-189.4c-.21,.09-.43,.18-.64,.28,4.73,20.89,10.28,41.57,15.81,62.46,2.1-1.88,5.14-6.47,5.71-8.29,.21-.67,.05-1.23-.09-1.85-3.74-16.65-9.69-32.46-17.95-47.4-.95-1.73-1.89-3.46-2.84-5.19Zm103.48,267.47c0,.73-.06,1.46,.01,2.18,.27,2.61,1.21,3.13,3.62,2.05,2.12-.95,3.82-2.45,5.27-4.22,2.07-2.53,4.08-5.11,6.1-7.68,1.31-1.66,2.72-3.2,4.79-3.9,1.07-.36,1.61-1.14,1.95-2.11,.38-1.11,.65-2.27,1.05-3.37,.61-1.68-.08-2.75-1.47-3.64-5.63-3.62-10.67-2.87-14.97,2.27-4.46,5.33-6.16,11.62-6.34,18.42Zm-230.31,176.24c-.09-2.89-.78-5.45-2.55-7.7-2.89-3.69-6.4-6.35-11.05-7.41-1.95-.45-3.39,.16-4.12,2.06-1.21,3.15-1.97,6.42-2.16,9.8-.19,3.4,1.15,5.98,4.25,7.58,2.86,1.47,5.9,2.35,9.06,2.81,1.6,.24,3.06-.23,4.29-1.31,1.8-1.58,2.15-3.71,2.28-5.82Zm221.24-82.47c3.22-.45,6.43-.9,9.64-1.34,1.53-.21,3.05-.48,4.44-1.17,3.65-1.8,4.5-5.01,2.11-8.3-2.38-3.27-5.48-5.76-9.02-7.7-1.13-.62-2.36-.94-3.66-.76-2.75,.38-5.17,1.59-7.48,3.05-1,.63-1.24,1.43-.64,2.52,1.48,2.73,2.08,5.77,2.95,8.72,.48,1.62,.58,3.38,1.66,4.97Zm-240.62-90.19c-2.49,1.06-4.56,1.94-6.62,2.83-.75,.32-.96,1.05-1.19,1.74-2.2,6.73-4.6,13.39-6.24,20.29-.23,.96-.6,1.92,.18,3.34,5.15-.61,10.52-.34,16.15,.04-2.4-9.45-2.3-18.69-2.29-28.24Zm163.42-75.26c2.69-4.52,5.16-8.63,7.58-12.77,.64-1.09,.37-2.31,.07-3.46-.97-3.8-2.16-7.41-5.26-10.21-1.27-1.14-2.01-1.24-3.17-.27-1.11,.93-2.17,2.02-3.78,1.92-1.44-.09-1.81,.72-2.05,1.95-.81,4.1-.47,8.14,.47,12.15,.93,3.96,2.61,7.5,6.14,10.68Zm-17.24-119.74c-6.22-18.05-8.49-36.61-11.85-54.97,1.39,19.91,2.81,39.8,1.2,60.25,3.77-1.87,6.99-3.47,10.65-5.28Zm33.62,122.09c0,.73-.11,2.01,.02,3.27,.3,2.91,.85,5.78,2.88,8.07,1.36,1.53,2.56,1.6,3.91,.08,3.28-3.69,4.95-8.12,4.57-13-.32-4.07-2.01-7.89-3.21-11.79-.46-1.51-1.6-1.79-2.77-1-2.28,1.53-4.39,3.28-4.81,6.26-.36,2.51-.82,5.02-.59,8.12Zm26.53,68.43c-1.9,4.45-4.23,8.34-9.49,8.83-5.13,.47-8.27-2.88-11.13-6.64-1.72,1.5-3.27,2.75-4.7,4.13-1.45,1.39-3.42,2.26-4.58,4.41,10.83,1.48,21.5,2.16,32.2,5.25-.24-5.66-1.13-10.77-2.3-15.98Zm20.92,223.42c-.89,.83-.83,1.6-.88,2.3-.27,3.8-.36,7.62-.01,11.42,.42,4.53,1.21,8.99,3.19,13.14,1.52,3.17,3.6,3.63,6.55,1.27,1.52-1.21,2.64-2.92,4.14-4.65-5.12-7.33-9-15.37-12.99-23.48Zm-329.24-114.05c-.75,2.62-1.41,4.95-2.08,7.28-.66,2.28-1.95,4.38-2.45,6.79,7.03,.54,21.51-6.69,23.49-11.71-6.28-.47-12.46-1.31-18.96-2.37Zm269.62-280.18c-1.33,1.36-1.75,2.88-2.6,4.13-1.15,1.67-1.09,3.23-.31,5.1,7.14,16.89,14.2,33.82,21.3,50.74,.27,.64,.35,1.44,1.19,1.92-.09-1.53-.61-2.87-1.02-4.22-3.24-10.7-7.23-21.14-10.82-31.72-2.85-8.41-6.05-16.73-7.75-25.94Zm21.98,148.49c-.89,.62-1.06,1.67-1.17,2.76-.6,6,.48,11.72,2.86,17.22,.62,1.42,1.48,2.72,2.81,3.59,1.68,1.1,3.12,.82,4.16-.87,.37-.61,.59-1.31,.85-1.99,1.08-2.78,.1-5.5-.13-8.27-.26-3.14-1.64-5.59-3.8-7.54-1.77-1.59-3.75-2.94-5.17-4.9-.03-.04-.17,0-.42,0Zm-165.64,7.28c-.13-3.79-1.41-7.12-5.11-9.1-1.06-.57-2.32-1.01-3.36-.28-1.11,.78-.92,2.2-.47,3.25,.83,1.95,.34,3.69-.29,5.53-.74,2.14-1.52,4.29-1.42,6.61,.1,2.13,.42,4.28,2.58,5.3,1.52,.72,4.31-.82,5.72-2.88,.36-.52,.66-1.09,.91-1.67,.93-2.1,1.39-4.3,1.44-6.76Zm-6.41,49.64c.12-.86-.33-1.58-.63-2.33-2.96-7.42-5.99-14.81-7.57-22.69-.31-1.56-1.32-2.45-2.9-3.5-.59,9.36,.47,18.21,1.73,27.12,2.19,.82,7.55,1.64,9.36,1.4Zm201.59,38.15c2.78-.76,5.69,.04,8.45-.3,4.76-.59,6.64-2.93,4.07-7.68-1.61-2.98-3.87-4.87-7.5-4.93-2.92-.05-4.86,1.35-4.99,4.26-.13,2.7-.03,5.4-.03,8.65Zm60.4-85.56c.27,.13,.57,.4,.9,.42,3.49,.26,6.42,1.61,8.69,4.3,.17,.2,.44,.32,.67,.46,1.71,1.05,2.3,.89,3.09-.92,.94-2.16,.83-4.43,.58-6.7-.41-3.7-2.59-5.68-6.31-5.76-4.24-.09-7.69,3.56-7.62,8.19Zm-124.91,177.66c1.49-10.32-.39-20.02-3.59-29.58-3.82,.82-3.95,1-2.92,4.3,2.35,7.53,4.29,15.15,5.51,22.95,.12,.78,.18,1.6,.99,2.33Zm-29.41-254.74c1.08-5.11,2.28-9.67,2.44-15.12-2.95,2.77-5.4,5.07-7.9,7.41,1.74,2.63,3.11,5.16,5.46,7.71Zm-117.26,241.37c-.06,2.82,1.28,4.11,3.94,4.02,.77-.03,1.12-.47,1.4-1.08,.74-1.65-.44-6.47-1.87-7.62-1.31-1.05-2.46-.78-2.89,.82-.35,1.31-.63,2.65-.58,3.87Zm301.25-41.03c-.86-3.92-1.59-7.29-2.46-11.26-1.78,3.03-3.21,5.47-4.71,8.02,2.29,1.29,4.41,2.38,7.17,3.24Zm-309.18,32.71c3.73-1.48,5.23-3.6,4.37-6.28-1.48,.15-2.98,.31-4.44,.46-.89,2.05-1.14,3.94,.06,5.82Zm133.73-391.74c.02-.15,.04-.25,.05-.36-.04,.04-.1,.07-.11,.11,0,.06,.03,.13,.06,.24Z"/><path d="M387.96,395.35c-.06-2.94,.56-5.77,1.39-8.55,1.98-6.66,5.12-12.76,9.03-18.48,.92-1.35,1.92-2.66,3.41-3.45,1.49-.79,3.03-.57,3.94,.58,1,1.26,.82,2.56-.13,3.73-3.52,4.35-5.74,9.42-7.98,14.47-1.81,4.07-3.09,8.31-3.35,12.81-.04,.72-.2,1.44-.41,2.13-.56,1.87-1.73,2.72-3.33,2.51-1.47-.19-2.39-1.24-2.54-3.04-.08-.9-.01-1.81-.01-2.72Z"/><path d="M402.22,393.48c-.05-.65,.27-1.32,.51-1.99,2.34-6.61,5.53-12.79,9.41-18.63,1.62-2.44,3.26-3.06,4.88-2,1.63,1.07,1.71,2.66,.15,5.27-3.21,5.38-6.07,10.92-8.44,16.72-.37,.91-.81,1.84-1.4,2.62-.76,1.01-1.86,1.48-3.13,1.04-1.34-.47-1.99-1.5-1.98-3.03Z"/><path d="M790.45,419.57c-1.4,.01-2.35-.48-2.92-1.5-.62-1.12-.52-2.27,.19-3.35,.52-.78,1.3-1.25,2.04-1.78,3.11-2.18,6.4-4.12,8.3-7.66,.73-1.36,2.51-1.64,3.86-1.01,1.29,.6,2.14,2.17,1.88,3.61-.18,.99-.59,1.91-1.22,2.71-2.84,3.64-6.41,6.4-10.51,8.48-.56,.28-1.15,.56-1.62,.5Z"/><path d="M786.27,409.25c-1.71,.05-2.92-1.15-2.91-2.86,0-.96,.4-1.78,1.03-2.45,3.39-3.55,7.15-6.68,11.17-9.48,1.7-1.18,3.27-.86,4.37,.51,1,1.25,.91,2.69-.35,4.19-.52,.62-1.16,1.14-1.79,1.66-2.88,2.35-5.77,4.68-8.65,7.02-.85,.69-1.69,1.39-2.86,1.41Z"/><path d="M528.12,787.91c-1.05,1.51-1.39,3.33-2.17,4.96-.54,1.13-1.27,1.98-2.61,2.09-1.7,.14-2.95-.98-2.82-2.84,.22-3.02,1.4-5.8,2.85-8.41,.7-1.26,2.04-1.51,3.35-1,1.23,.48,1.73,1.56,1.67,2.84-.03,.81-.21,1.61-.32,2.42l.04-.06Z"/><path d="M528.07,787.97c.53-.73,.99-1.5,1.59-2.17,.86-.95,1.96-1.34,3.19-.8,1.21,.53,1.88,1.58,1.61,2.84-.5,2.38-1.1,4.75-1.86,7.06-.48,1.45-1.97,2-3.33,1.57-1.27-.4-2.18-1.85-2-3.49,.19-1.7,.56-3.38,.85-5.07l-.04,.06Z"/><path d="M535.88,794.58c.26-1.56,.53-3.36,1.2-5.05,.65-1.62,2.03-2.34,3.45-1.96,1.35,.37,2.27,1.8,2.03,3.43-.24,1.61-.6,3.21-1.02,4.79-.5,1.92-1.76,2.94-3.2,2.72-1.58-.24-2.55-1.69-2.46-3.94Z"/><path d="M422.89,754.69c0,1.44-.26,2.41-1.26,2.91-1.13,.56-2.36,.57-3.28-.35-2.17-2.16-3.1-5.03-4.03-7.83-.37-1.1,.4-2.15,1.46-2.63,1.23-.55,2.58-.52,3.5,.55,1.91,2.23,2.71,5.02,3.61,7.35Z"/><path d="M714.15,572.89c-.07,2.16-5.73,7.83-7.91,7.92-2.11,.09-3.68-2.02-2.59-3.88,1.66-2.83,4.04-5.13,6.92-6.69,1.8-.97,3.65,.56,3.58,2.65Z"/><path d="M706.92,563.38c.08,.97-.4,1.83-1.16,2.52-1.59,1.47-3.18,2.94-4.83,4.35-1.17,1-2.47,1.07-3.72,.12-1.12-.85-1.49-2.6-.61-3.92,1.64-2.43,3.89-4.3,6.48-5.6,1.87-.94,3.76,.4,3.83,2.52Z"/><path d="M621.44,981.53c.28-5.35,.97-10.64,2.2-15.86,.29-1.24,.61-2.49,1.35-3.54,.86-1.23,2.05-1.81,3.54-1.24,1.49,.57,2.02,1.8,1.75,3.28-.43,2.41-1,4.79-1.47,7.19-.82,4.19-1.2,8.43-1.55,12.67-.04,.54-.06,1.1-.22,1.61-.45,1.42-1.32,2.42-2.94,2.3-1.59-.11-2.48-1.1-2.64-2.62-.12-1.26-.03-2.53-.03-3.8Z"/><path d="M638.08,967.85c-.72,4.38-1.48,9.03-2.84,13.54-.51,1.69-1.93,2.44-3.33,2.13-1.48-.33-2.5-1.76-2.18-3.57,.8-4.45,1.7-8.89,2.69-13.31,.4-1.79,1.64-2.59,3.11-2.42,1.49,.18,2.52,1.52,2.55,3.62Z"/></svg>