<?xml version="1.0" encoding="UTF-8" standalone="no"?>
<svg
   width="100%"
   height="100%"
   viewBox="0 0 420 420"
   version="1.1"
   xml:space="preserve"
   style="fill-rule:evenodd;clip-rule:evenodd;stroke-linecap:round;stroke-linejoin:round;stroke-miterlimit:1.5;"
   id="svg171"
   sodipodi:docname="svacina.svg"
   inkscape:version="1.1.2 (0a00cf5339, 2022-02-04)"
   xmlns:inkscape="http://www.inkscape.org/namespaces/inkscape"
   xmlns:sodipodi="http://sodipodi.sourceforge.net/DTD/sodipodi-0.dtd"
   xmlns="http://www.w3.org/2000/svg"
   xmlns:svg="http://www.w3.org/2000/svg"><defs
   id="defs175" /><sodipodi:namedview
   id="namedview173"
   pagecolor="#ffffff"
   bordercolor="#666666"
   borderopacity="1.0"
   inkscape:pageshadow="2"
   inkscape:pageopacity="0.0"
   inkscape:pagecheckerboard="0"
   showgrid="false"
   inkscape:zoom="2.8284271"
   inkscape:cx="286.55502"
   inkscape:cy="290.97444"
   inkscape:window-width="3840"
   inkscape:window-height="2091"
   inkscape:window-x="0"
   inkscape:window-y="32"
   inkscape:window-maximized="1"
   inkscape:current-layer="svg171" />
    <g
   transform="matrix(1.49544,0,0,1.49544,-35.1079,-78.193264)"
   id="g14">
        <g
   id="Слой1">
            <path
   d="m 110.98,153.379 c -1.797,-2.114 -0.073,-5.236 -4.346,-6.304 -5.786,-1.447 -24.859,3.717 -21.901,12.593 1.013,3.037 3.372,4.942 5.749,6.844 3.28,2.624 8.367,2.89 12.32,3.285 11.844,1.184 26.971,-0.444 37.505,-6.297 4.805,-2.669 13.947,-7.969 10.403,-15.057 -4.763,-9.527 -16.416,-10.965 -26.007,-11.498 -20.204,-1.122 -38.978,0.95 -57.217,10.677 -9.718,5.183 -22.378,14.057 -13.414,26.008 1.228,1.637 3.07,3.113 4.654,4.38 3.026,2.421 6.285,4.005 9.855,5.475 6.068,2.499 12.798,3.755 19.164,5.202 11.621,2.641 23.456,2.7 35.315,3.285 17.138,0.845 34.561,-7.724 50.646,-12.32"
   style="fill:none;stroke:#000000;stroke-width:3.47px"
   id="path2" />
            <path
   d="m 170.805,180.332 c -0.448,-0.03 -0.437,0.219 0,0 1.194,-0.597 5.889,-1.967 7.057,-2.746 0.18697,-0.12467 0.38318,-0.26082 0.58645,-0.4076 m -2.92701,-18.84411 c -0.0191,-0.007 -0.0382,-0.0136 -0.0573,-0.0204 -6.91465,-2.45244 -15.75843,-3.02691 -20.64714,-3.02691"
   style="fill:none;stroke:#000000;stroke-width:3.47px"
   id="path4"
   sodipodi:nodetypes="cccccsc" />
        </g>
        <g
   id="Слой2">
            <path
   d="m 49.282,166.993 c -5.103,4.494 -9,9.133 -9.818,14.141 l 1.856,38.202 c 4.157,5.614 13.322,9.813 18.847,8.635 10.692819,1.74567 21.516601,3.02766 32.37217,3.80803 m 91.49299,-6.5582 c 2.2591,-1.28906 3.97056,-3.94987 5.08063,-7.02493"
   style="fill:none;stroke:#000000;stroke-width:1.34px"
   id="path7"
   sodipodi:nodetypes="ccccccc" />
            <path
   d="m 103.767,154.289 c -0.64,0.004 -4.483,3.589 -3.919,4.152 1.373,1.373 3.03,3.306 4.874,3.767 7.394,1.848 14.21,0.83 21.27,-1.994 5.371,-2.149 8.412,-6.881 4.875,-12.187 -2.881,-4.321 -10.483,-3.925 -14.845,-4.652 -14.105,-2.351 -27.776,-1.055 -40.325,7.311 -6.936,4.624 -15.614,12.427 -8.98,20.009 5.211,5.955 16.55,9.476 23.825,10.567 19.04,2.856 39.891,2.536 58.805,-3.482 9.156,-2.914 16.834,-2.631 23.022,-9.995 3.824,-4.551 -13.855,-11.319 -11.923,-11.319"
   style="fill:none;stroke:#000000;stroke-width:1.34px"
   id="path9" />
            <path
   d="m 180.07776,188.88079 c -2.83392,0.0229 -5.79938,0.35821 -7.99976,0.35821 -1.916,0 -4.562,-0.466 -6.425,0 -15.591,3.897 -33.782,9.343 -50.074,7.533 -8.391,-0.932 -17.246,-3.533 -25.259,-6.204"
   style="fill:none;stroke:#000000;stroke-width:1.34px"
   id="path11"
   sodipodi:nodetypes="csccc" />
        </g>
    </g>
    <g
   id="Слой3"
   transform="translate(0,-26.630464)">
        <g
   transform="matrix(1.09366,0.311498,-0.311498,1.09366,81.3684,-20.026)"
   id="g24">
            <path
   d="M 184.21861,329.42185 169.35,341.802 c -7.032,13.474 -7.479,14.669 1.214,23.362 0.651,0.651 5.406,2.895 9.963,2.052 6.449,-1.191 12.856,-5.784 11.739,-5.784 l 97.702,-108.559 c 14.042,0.689 26.79,-1.602 34.564,-5.484 23.028,-12.883 26.136,-30.378 25.599,-48.032 -12.689,-25.859 -63.846,-12.237 -66.903,47.626 l -75.94438,63.23407"
   style="fill:none;stroke:#000000;stroke-width:1.88px"
   id="path16"
   sodipodi:nodetypes="ccsccccccc" />
            <path
   d="m 293.622,249.195 c -0.107,-0.018 2.201,-0.33 3.131,-0.33 2.249,0 5.01,0.127 7.094,-0.568 6.331,-2.11 12.046,-4.887 18.163,-7.946 11.347,-5.674 17.549,-18.546 20.433,-30.081 1.361,-5.446 -1.987,-10.239 -1.987,-13.338"
   style="fill:none;stroke:#000000;stroke-width:1.88px"
   id="path18" />
            <path
   d="m 286.058,251.715 c 0.336,-0.021 -2.582,0.494 -5.197,3.109"
   style="fill:none;stroke:#000000;stroke-width:1.88px"
   id="path20" />
            <path
   d="m 278.218,260.729 c -2.802,0.784 -5.468,5.611 -8.141,8.285 -5.626,5.625 -10.127,12.964 -15.892,18.73 -6.92,6.919 -13.215,14.066 -20.149,21 -6.368,6.368 -15.899,13.068 -19.866,21 -2.836,5.674 -10.344,9.337 -13.054,14.757 -1.206,2.413 -4.576,3.885 -5.959,5.96 -4.272,6.407 -20.028,17.553 -25.257,7.095"
   style="fill:none;stroke:#000000;stroke-width:1.88px"
   id="path22" />
        </g>
        
        
        
    </g>
    <g
   transform="matrix(1.60661,0,0,1.53218,-141.04,-215.74446)"
   id="g49">
        <g
   transform="matrix(2.63534,0,0,2.49794,-353.767,-222.949)"
   id="g35">
            <ellipse
   cx="237.74001"
   cy="155.946"
   rx="21.414"
   ry="7.1090002"
   style="fill:none;stroke:#000000;stroke-width:0.53px"
   id="ellipse33" />
        </g>
        <path
   d="m 216.326,166.594 c -6.594,5.97 -6.554,5.537 -3.512,15.734 9.845,0.836 12.886,-2.537 22.766,-2.537"
   style="fill:none;stroke:#000000;stroke-width:1.36px"
   id="path37" />
        <path
   d="m 221.95,181.812 15.497,118.85 c 28.056,12.25 45.201,13.475 68.707,1.394 l 19.648,-128.795"
   style="fill:none;stroke:#000000;stroke-width:1.36px"
   id="path39" />
        <path
   d="m 237.957,201.1 c -0.219,-0.235 -0.389,-0.414 -0.466,-0.491 -1.041,-1.041 -3.062,-3.757 -5.095,-5.181 -1.51,-1.058 -3.031,-1.401 -4.241,-0.192 -0.283,0.283 -0.513,0.76 -0.666,1.364 -0.206,0.812 -0.288,1.865 -0.254,2.917 0.035,1.051 0.185,2.1 0.433,2.907 0.183,0.594 0.425,1.063 0.702,1.34 0.6,0.599 1.551,1.057 2.615,1.422 1.506,0.516 3.24,0.858 4.41,1.248 0.663,0.221 1.762,0.503 2.498,0.685 -0.815,0.72 -2.216,2.042 -2.719,3.049 -0.646,1.291 -1.976,4.173 -2.252,6.615 -0.202,1.783 0.166,3.331 1.565,4.03 1.068,0.534 2.061,0.037 2.914,-1.049 1.718,-2.186 2.884,-6.843 3.195,-7.775 0.105,-0.315 0.169,-0.737 0.206,-1.175 0.199,0.532 0.413,1.062 0.604,1.443 0.568,1.135 3.276,3.894 5.534,5.101 1.067,0.571 2.049,0.773 2.703,0.446 0.469,-0.234 0.756,-0.542 0.911,-0.887 0.226,-0.506 0.171,-1.117 -0.113,-1.774 -0.918,-2.117 -4.344,-4.853 -4.998,-5.508 -0.176,-0.176 -0.988,-0.694 -1.564,-1.185 0.336,0.194 0.685,0.423 0.924,0.543 0.241,0.12 0.634,0.181 1.088,0.182 0.941,0.002 2.17,-0.224 2.629,-0.377 1.733,-0.578 6.246,-3.09 8.173,-5.797 0.905,-1.271 1.246,-2.591 0.644,-3.794 -0.357,-0.714 -0.795,-1.118 -1.271,-1.319 -0.477,-0.201 -1.003,-0.198 -1.557,-0.06 -0.968,0.241 -2.034,0.915 -3.044,1.42 -3.434,1.717 -5.81,3.065 -7.818,4.835 -0.022,-1.174 -0.021,-4.101 -0.021,-5.121 0,-1.649 -0.499,-6.288 -2.021,-9.172 -0.651,-1.234 -1.494,-2.148 -2.532,-2.457 -0.711,-0.211 -1.521,-0.149 -2.437,0.309 -0.618,0.309 -0.931,0.92 -1.059,1.653 -0.161,0.925 -0.017,2.052 -0.017,2.79 0,2.754 1.352,5.674 1.947,8.053 0.073,0.292 0.239,0.619 0.45,0.962 z m 4.98,3.642 c -0.014,-0.043 -0.03,-0.11 -0.035,-0.201 -0.035,-0.617 -0.035,-4.388 -0.035,-5.579 0,-1.58 -0.469,-6.024 -1.926,-8.787 -0.541,-1.025 -1.212,-1.82 -2.075,-2.076 -0.556,-0.166 -1.187,-0.096 -1.904,0.262 -0.393,0.197 -0.557,0.61 -0.638,1.077 -0.153,0.877 -0.005,1.947 -0.005,2.647 0,2.687 1.342,5.53 1.922,7.851 0.164,0.658 0.881,1.495 1.416,2.273 0.432,0.628 0.745,1.234 0.745,1.696 0,0.118 -0.043,0.202 -0.094,0.263 -0.048,0.057 -0.109,0.1 -0.188,0.122 -0.017,0.005 -0.182,0.073 -0.353,-0.091 -0.006,-0.005 -0.035,-0.036 -0.085,-0.089 -0.395,-0.426 -2.387,-2.598 -2.715,-2.925 -1.022,-1.022 -2.997,-3.697 -4.993,-5.095 -1.176,-0.824 -2.353,-1.22 -3.295,-0.278 -0.204,0.204 -0.346,0.559 -0.457,0.993 -0.189,0.747 -0.26,1.716 -0.228,2.685 0.032,0.972 0.167,1.943 0.396,2.69 0.136,0.442 0.298,0.801 0.504,1.008 0.532,0.531 1.384,0.918 2.327,1.241 1.504,0.516 3.235,0.857 4.404,1.246 1.044,0.348 3.191,0.851 3.191,0.851 0.144,0.033 0.256,0.151 0.288,0.302 0.032,0.151 -0.022,0.307 -0.139,0.402 0,0 -2.441,1.952 -3.119,3.308 -0.619,1.238 -1.906,3.997 -2.17,6.339 -0.159,1.406 0.034,2.666 1.137,3.218 0.747,0.373 1.406,-0.078 2.002,-0.837 1.662,-2.115 2.764,-6.63 3.065,-7.532 0.324,-0.972 0.194,-3.069 0.194,-3.069 -0.012,-0.199 0.12,-0.377 0.307,-0.414 0.187,-0.038 0.372,0.076 0.432,0.265 0,0 0.727,2.304 1.265,3.379 0.533,1.065 3.09,3.63 5.207,4.762 0.434,0.232 0.848,0.403 1.221,0.481 0.311,0.064 0.588,0.067 0.81,-0.044 0.277,-0.139 0.459,-0.304 0.551,-0.508 0.105,-0.235 0.083,-0.507 -0.005,-0.801 -0.109,-0.365 -0.323,-0.755 -0.597,-1.155 -1.271,-1.857 -3.802,-3.867 -4.346,-4.411 -0.194,-0.194 -1.164,-0.802 -1.728,-1.329 -0.176,-0.164 -0.317,-0.324 -0.403,-0.465 -0.096,-0.155 -0.136,-0.303 -0.136,-0.428 0,-0.216 0.072,-0.358 0.164,-0.455 0.125,-0.133 0.325,-0.207 0.59,-0.154 0.451,0.091 1.276,0.67 1.723,0.894 0.235,0.118 0.671,0.121 1.141,0.094 0.785,-0.044 1.661,-0.209 2.02,-0.329 1.42,-0.473 4.793,-2.303 6.888,-4.445 0.672,-0.687 1.213,-1.405 1.496,-2.122 0.255,-0.646 0.294,-1.289 -0.009,-1.895 -0.253,-0.505 -0.545,-0.808 -0.882,-0.95 -0.337,-0.142 -0.708,-0.122 -1.098,-0.025 -0.922,0.23 -1.932,0.883 -2.893,1.364 -3.856,1.928 -6.351,3.369 -8.498,5.517 -0.152,0.151 -0.392,0.145 -0.537,-0.013 -0.145,-0.159 -0.139,-0.412 0.013,-0.563 0.055,-0.056 0.111,-0.111 0.167,-0.165 z m 0.126,-0.46 c -0.044,0.033 -0.095,0.086 -0.126,0.181 0.025,-0.074 0.07,-0.136 0.126,-0.181 z"
   id="path41" />
        <path
   d="m 290.891,283.927 c -0.05,-0.186 -0.101,-0.393 -0.142,-0.59 -0.306,-1.482 -0.619,-3.63 -0.709,-4.078 -0.291,-1.455 -1.543,-4.995 -3.379,-7.154 -1.315,-1.546 -2.923,-2.382 -4.678,-1.505 -1.001,0.501 -1.234,1.677 -0.911,3.155 0.656,3.007 3.551,7.323 4.466,8.238 0.346,0.346 0.807,0.909 1.189,1.394 -0.629,-0.174 -1.389,-0.391 -1.887,-0.557 -2.048,-0.682 -5.422,-1.851 -7.752,-1.074 -0.641,0.214 -2.967,1.77 -3.821,3.17 -0.461,0.757 -0.512,1.477 0.021,2.01 1.393,1.394 2.967,1.732 4.666,1.634 1.607,-0.093 3.331,-0.587 5.112,-0.884 0.78,-0.13 1.974,-0.371 2.909,-0.565 -0.555,0.527 -1.186,1.163 -1.548,1.645 -0.844,1.125 -3.296,5.955 -3.643,9.276 -0.166,1.594 0.172,2.851 1.199,3.365 0.47,0.235 0.979,0.219 1.509,-0.007 0.46,-0.197 0.94,-0.561 1.418,-1.042 2.083,-2.1 4.181,-6.51 4.679,-7.753 0.179,-0.448 0.288,-1.099 0.355,-1.736 0.152,0.418 0.314,0.823 0.463,1.122 1.277,2.554 2.968,4.477 5.594,5.352 0.295,0.099 1.24,0.609 1.941,0.747 0.441,0.087 0.808,0.014 1.015,-0.193 0.881,-0.881 0.855,-2.23 0.322,-3.616 -0.733,-1.905 -2.397,-3.869 -3.389,-4.53 -0.518,-0.345 -1.314,-0.857 -1.959,-1.268 0.196,-0.019 0.402,-0.043 0.61,-0.075 0.671,-0.101 1.354,-0.281 1.779,-0.564 1.354,-0.903 5.004,-3.753 6.543,-6.442 0.725,-1.268 0.978,-2.512 0.467,-3.535 -0.425,-0.849 -1.183,-1.136 -2.047,-1.108 -1.112,0.036 -2.408,0.623 -3.153,0.921 -1.522,0.609 -4.686,3.256 -6.443,5.25 -0.315,0.358 -0.586,0.695 -0.796,0.997 z m -0.498,0.988 c -0.044,-0.093 -0.09,-0.216 -0.135,-0.366 -0.366,-1.216 -0.846,-4.553 -0.961,-5.126 -0.276,-1.381 -1.461,-4.741 -3.203,-6.789 -1.071,-1.259 -2.354,-2.03 -3.784,-1.315 -0.386,0.192 -0.562,0.556 -0.607,1.014 -0.035,0.367 0.009,0.788 0.109,1.244 0.624,2.862 3.379,6.969 4.25,7.84 0.734,0.734 1.972,2.409 1.972,2.409 0.099,0.134 0.107,0.319 0.018,0.461 -0.088,0.142 -0.253,0.209 -0.41,0.168 0,0 -2.034,-0.534 -3.031,-0.866 -1.177,-0.392 -2.808,-0.965 -4.408,-1.198 -1.021,-0.149 -2.029,-0.162 -2.885,0.123 -0.494,0.165 -2.093,1.228 -3.025,2.318 -0.284,0.333 -0.508,0.664 -0.594,0.974 -0.058,0.207 -0.041,0.4 0.113,0.554 1.222,1.223 2.609,1.501 4.1,1.415 1.583,-0.091 3.28,-0.583 5.035,-0.875 1.435,-0.239 4.281,-0.856 4.281,-0.856 0.17,-0.037 0.343,0.052 0.419,0.217 0.075,0.165 0.034,0.362 -0.1,0.479 0,0 -1.81,1.568 -2.523,2.518 -0.807,1.076 -3.153,5.695 -3.485,8.871 -0.066,0.634 -0.053,1.207 0.086,1.673 0.119,0.399 0.334,0.711 0.685,0.886 0.279,0.14 0.581,0.109 0.895,-0.025 0.384,-0.165 0.78,-0.477 1.179,-0.879 2.01,-2.026 4.025,-6.287 4.505,-7.487 0.435,-1.089 0.4,-3.495 0.4,-3.495 -0.002,-0.198 0.135,-0.368 0.322,-0.398 0.186,-0.03 0.366,0.088 0.421,0.277 0,0 0.582,2.01 1.047,2.94 1.18,2.36 2.726,4.155 5.152,4.964 0.246,0.082 0.955,0.462 1.582,0.653 0.175,0.054 0.342,0.093 0.485,0.096 0.055,10e-4 0.106,0.017 0.135,-0.013 0.666,-0.666 0.545,-1.694 0.142,-2.742 -0.671,-1.744 -2.184,-3.551 -3.092,-4.156 -0.99,-0.66 -3.001,-1.929 -3.001,-1.929 -0.146,-0.093 -0.216,-0.276 -0.17,-0.448 0.045,-0.172 0.195,-0.291 0.366,-0.291 0,0 0.862,0 1.754,-0.135 0.557,-0.084 1.129,-0.213 1.48,-0.448 1.12,-0.746 3.87,-2.866 5.568,-5.09 0.545,-0.715 0.981,-1.438 1.205,-2.128 0.2,-0.617 0.23,-1.203 -0.028,-1.718 -0.276,-0.552 -0.789,-0.699 -1.351,-0.681 -1.026,0.033 -2.217,0.593 -2.905,0.868 -1.458,0.583 -4.474,3.137 -6.157,5.047 -0.42,0.478 -0.756,0.913 -0.957,1.266 -0.016,0.028 -0.031,0.056 -0.046,0.083 0.014,0.125 -0.03,0.25 -0.119,0.336 -0.005,0.215 -0.173,0.387 -0.379,0.387 -0.209,0 -0.379,-0.179 -0.379,-0.398 0,-0.069 0.009,-0.145 0.029,-0.229 z"
   id="path43" />
        <g
   transform="matrix(0.83126,0.00462051,-0.00429094,0.771969,73.9003,61.8944)"
   id="g47">
            <circle
   cx="250.11099"
   cy="224.927"
   r="36.132999"
   style="fill:none;stroke:#000000;stroke-width:1.69px"
   id="circle45" />
        </g>
    </g>
    <g
   transform="matrix(1.38365,0,0,1.31954,-85.8697,-163.42946)"
   id="g67">
        <path
   d="m 260.383,231.687 c -0.029,0.141 -0.034,0.393 -0.008,0.697 0.054,0.613 0.212,1.485 0.305,1.858 0.33,1.32 0.244,4.235 -0.347,5.418 -0.145,0.289 -0.6,1.005 -1.117,1.443 -0.144,0.121 -0.29,0.222 -0.437,0.27 -0.083,0.028 -0.166,0.039 -0.243,0.001 -0.19,-0.096 -0.255,-0.264 -0.339,-0.422 -0.096,-0.182 -0.198,-0.364 -0.349,-0.526 -0.032,-0.06 -0.123,-0.229 -0.191,-0.328 -0.072,-0.104 -0.152,-0.184 -0.22,-0.23 -0.23,-0.154 -0.442,-0.123 -0.621,0.055 -0.062,0.062 -0.133,0.174 -0.187,0.319 -0.052,0.14 -0.091,0.338 -0.129,0.414 -0.449,0.898 -0.515,1.515 -0.396,1.951 0.127,0.462 0.458,0.777 0.931,1.01 0.517,0.254 1.232,0.409 1.889,0.737 0.26,0.131 0.616,0.151 0.983,0.087 0.448,-0.078 0.914,-0.271 1.159,-0.393 1.755,-0.878 2.503,-2.445 2.795,-4.278 0.271,-1.706 0.139,-3.649 0.139,-5.415 0,-0.372 0.041,-0.835 0.015,-1.264 -0.021,-0.349 -0.086,-0.677 -0.219,-0.943 -0.016,-0.033 -0.058,-0.125 -0.106,-0.235 0.055,0.006 0.106,0.012 0.147,0.015 0.184,0.013 0.341,-0.015 0.449,-0.069 0.709,-0.354 1.681,-0.551 2.33,-0.947 0.429,-0.261 0.735,-0.604 0.853,-1.06 0.109,-0.424 0.059,-0.973 -0.3,-1.691 -0.118,-0.236 -0.443,-0.442 -0.914,-0.506 -0.69,-0.094 -1.758,0.029 -2.159,0.029 -1.848,0 -3.592,0.116 -5.293,0.797 -0.222,0.089 -0.572,0.122 -0.875,0.198 -0.301,0.076 -0.564,0.194 -0.729,0.359 -0.141,0.142 -0.223,0.391 -0.173,0.7 0.051,0.318 0.254,0.749 0.291,0.86 0.169,0.507 0.386,0.812 0.626,1 0.263,0.206 0.564,0.285 0.913,0.281 0.415,-0.003 0.919,-0.148 1.527,-0.192 z m 6.031,-3.044 c -0.07,-0.019 -0.337,-0.085 -0.544,-0.095 -0.64,-0.031 -1.443,0.06 -1.774,0.06 -1.737,0 -3.379,0.096 -4.979,0.736 -0.215,0.086 -0.531,0.136 -0.835,0.2 -0.134,0.028 -0.267,0.048 -0.369,0.094 0.019,0.077 0.047,0.183 0.073,0.252 0.07,0.182 0.143,0.343 0.163,0.403 0.107,0.32 0.215,0.513 0.376,0.601 0.164,0.09 0.36,0.069 0.585,0.041 0.448,-0.055 0.982,-0.185 1.613,-0.185 0.243,0 0.441,0.207 0.441,0.462 0,0.042 -0.006,0.083 -0.016,0.122 0.047,0.033 0.094,0.076 0.141,0.135 0.156,0.193 0.135,0.481 -0.046,0.646 0.002,0.06 0.005,0.124 0.01,0.184 0.05,0.564 0.194,1.366 0.28,1.709 0.37,1.482 0.245,4.753 -0.42,6.081 -0.205,0.41 -0.933,1.52 -1.686,1.984 -0.431,0.265 -0.874,0.333 -1.27,0.135 -0.333,-0.167 -0.514,-0.411 -0.663,-0.682 -0.073,-0.133 -0.132,-0.277 -0.232,-0.403 -0.177,0.36 -0.281,0.652 -0.318,0.895 -0.025,0.171 -0.016,0.306 0.038,0.414 0.057,0.112 0.155,0.191 0.271,0.262 0.169,0.105 0.375,0.187 0.599,0.268 0.45,0.162 0.966,0.316 1.451,0.558 0.121,0.061 0.288,0.039 0.459,0.01 0.358,-0.063 0.729,-0.219 0.925,-0.316 1.466,-0.734 2.06,-2.064 2.304,-3.596 0.265,-1.658 0.128,-3.547 0.128,-5.263 0,-0.301 0.028,-0.663 0.023,-1.017 -0.004,-0.279 -0.022,-0.552 -0.126,-0.761 -0.066,-0.132 -0.39,-0.837 -0.424,-1.006 -0.053,-0.257 0.069,-0.405 0.127,-0.463 0.118,-0.119 0.328,-0.199 0.596,-0.181 0.185,0.012 0.568,0.07 0.63,0.079 0.56,-0.272 1.274,-0.45 1.863,-0.707 0.338,-0.147 0.638,-0.306 0.771,-0.582 0.124,-0.259 0.067,-0.595 -0.165,-1.074 z"
   id="path51" />
        <path
   d="m 269.093,229.797 c -0.889,3.435 -1.693,7.443 -0.781,11.092 0.168,0.672 0.431,1.679 0.902,2.436 0.551,0.885 1.361,1.454 2.561,1.054 0.834,-0.278 1.403,-0.842 1.863,-1.52 0.409,-0.605 0.728,-1.304 1.103,-1.929 2.157,-3.594 2.594,-9.312 0.252,-12.825 -0.832,-1.248 -2.328,-1.741 -3.619,-1.521 -1.347,0.229 -2.46,1.208 -2.46,2.841 0,0.152 0.07,0.287 0.179,0.372 z m 1.144,-1.622 c 0.092,0.113 0.13,0.271 0.088,0.425 -0.967,3.577 -2.164,8.04 -1.16,12.055 0.149,0.595 0.37,1.494 0.787,2.165 0.338,0.542 0.821,0.923 1.556,0.678 0.637,-0.212 1.06,-0.657 1.411,-1.175 0.401,-0.591 0.71,-1.274 1.076,-1.885 1.985,-3.308 2.432,-8.57 0.276,-11.804 -0.632,-0.948 -1.775,-1.305 -2.756,-1.138 -0.499,0.085 -0.959,0.312 -1.278,0.679 z"
   id="path53" />
        <path
   d="m 271.602,229.993 c -0.046,0.01 -0.091,0.029 -0.134,0.057 -0.541,0.349 -0.895,1.081 -1.073,2.028 -0.355,1.886 -0.074,4.67 -0.074,6.055 0,0.372 0.248,1.579 0.637,2.149 0.296,0.432 0.673,0.567 1.049,0.379 0.224,-0.111 0.422,-0.336 0.572,-0.635 0.253,-0.505 0.386,-1.246 0.461,-1.622 0.358,-1.789 0.801,-3.818 0.801,-5.636 0,-0.283 0.089,-0.816 0.08,-1.236 -0.005,-0.262 -0.05,-0.491 -0.13,-0.65 -0.121,-0.242 -0.374,-0.859 -0.655,-1.226 -0.251,-0.327 -0.554,-0.471 -0.814,-0.432 -0.224,0.034 -0.516,0.211 -0.72,0.769 z m 0.853,0.263 c -0.017,0.036 -0.033,0.075 -0.046,0.113 -0.052,0.158 -0.179,0.268 -0.325,0.3 -0.036,0.067 -0.088,0.125 -0.154,0.168 -0.229,0.147 -0.379,0.419 -0.498,0.755 -0.145,0.412 -0.23,0.917 -0.28,1.463 -0.159,1.755 0.05,3.918 0.05,5.078 0,0.244 0.143,0.955 0.37,1.428 0.034,0.071 0.09,0.153 0.13,0.208 0.072,-0.081 0.12,-0.211 0.173,-0.345 0.162,-0.417 0.247,-0.931 0.303,-1.21 0.345,-1.729 0.782,-3.689 0.782,-5.446 0,-0.244 0.065,-0.674 0.079,-1.058 0.005,-0.159 0.017,-0.308 -0.029,-0.399 -0.087,-0.175 -0.247,-0.57 -0.438,-0.891 -0.031,-0.052 -0.076,-0.112 -0.117,-0.164 z"
   id="path55" />
        <path
   d="m 285.417,239.81 c 0.548,-0.03 1.257,-0.252 1.707,-0.609 0.315,-0.251 0.51,-0.569 0.542,-0.916 0.031,-0.336 -0.082,-0.731 -0.493,-1.142 -0.053,-0.053 -0.228,-0.155 -0.516,-0.202 -0.625,-0.101 -2.101,-0.167 -3.098,-0.115 -0.493,0.025 -0.881,0.093 -1.049,0.176 -0.149,0.072 -0.231,0.174 -0.274,0.261 -0.117,0.234 -0.485,0.766 -0.681,1.316 -0.174,0.485 -0.21,0.982 -0.01,1.382 0.056,0.112 0.184,0.253 0.368,0.381 0.121,0.085 0.313,0.201 0.476,0.296 -0.039,0.028 -0.08,0.05 -0.123,0.064 -0.249,0.08 -0.526,-0.048 -0.794,-0.216 -0.562,-0.353 -1.073,-0.96 -1.218,-1.25 -0.428,-0.856 -0.506,-1.877 -0.399,-2.91 0.169,-1.631 0.804,-3.292 1.386,-4.455 0.099,-0.2 0.206,-0.323 0.341,-0.356 0.144,-0.035 0.295,0.022 0.45,0.107 0.659,0.363 1.31,1.308 1.446,1.81 -0.007,0.055 -0.066,0.551 -0.07,0.793 -0.006,0.294 0.086,0.515 0.197,0.627 0.146,0.146 0.347,0.231 0.587,0.242 0.354,0.016 0.829,-0.151 1.204,-0.374 0.263,-0.156 0.475,-0.339 0.582,-0.483 0.111,-0.15 0.148,-0.297 0.148,-0.41 0,-0.216 -0.141,-0.397 -0.331,-0.448 0.05,-0.055 0.088,-0.124 0.107,-0.203 0.039,-0.16 -0.006,-0.323 -0.108,-0.434 -0.005,-0.041 -0.012,-0.105 -0.015,-0.158 -0.007,-0.15 -0.003,-0.328 0.004,-0.515 0.027,-0.661 0.083,-1.412 0.032,-1.616 -0.178,-0.715 -0.859,-1.6 -1.737,-2.178 -0.904,-0.595 -1.998,-0.854 -2.924,-0.391 -2.411,1.206 -3.834,4.49 -4.013,7.795 -0.181,3.329 0.905,6.631 3.322,7.84 0.724,0.361 1.597,0.232 2.427,-0.187 1.142,-0.576 2.195,-1.686 2.593,-2.483 0.147,-0.293 0.148,-0.537 0.087,-0.742 -0.032,-0.107 -0.084,-0.206 -0.153,-0.297 z m -0.457,-9.132 c -0.14,-0.542 -0.686,-1.183 -1.351,-1.62 -0.644,-0.424 -1.415,-0.67 -2.076,-0.34 -2.156,1.078 -3.352,4.058 -3.512,7.014 -0.16,2.932 0.692,5.888 2.822,6.952 0.498,0.249 1.094,0.103 1.665,-0.185 0.961,-0.485 1.859,-1.407 2.195,-2.079 0.006,-0.012 0.012,-0.029 0.016,-0.041 -0.015,-0.016 -0.041,-0.042 -0.06,-0.057 -0.074,-0.056 -0.16,-0.104 -0.242,-0.152 -0.171,-0.099 -0.331,-0.199 -0.435,-0.306 -0.147,-0.151 -0.218,-0.324 -0.218,-0.512 0,-0.255 0.198,-0.462 0.441,-0.462 h 1.085 c 0.398,0 0.958,-0.152 1.301,-0.425 0.099,-0.079 0.188,-0.159 0.198,-0.268 0.009,-0.104 -0.053,-0.204 -0.164,-0.323 -0.618,-0.139 -2.983,-0.23 -3.68,-0.053 -0.147,0.25 -0.414,0.659 -0.565,1.083 -0.075,0.209 -0.138,0.421 -0.068,0.598 0.045,0.031 0.24,0.169 0.372,0.245 0.301,0.173 0.589,0.354 0.665,0.452 0.164,0.208 0.135,0.406 0.062,0.552 -0.239,0.477 -0.552,0.726 -0.885,0.834 -0.327,0.105 -0.686,0.072 -1.045,-0.069 -0.889,-0.35 -1.783,-1.401 -2.008,-1.851 -0.506,-1.013 -0.621,-2.217 -0.494,-3.439 0.181,-1.75 0.857,-3.536 1.481,-4.785 0.251,-0.502 0.58,-0.742 0.921,-0.826 0.334,-0.082 0.7,-0.01 1.06,0.189 0.877,0.482 1.731,1.758 1.894,2.412 0.024,0.094 0.031,0.238 0.016,0.409 -0.012,0.139 -0.034,0.387 -0.048,0.543 0.061,-0.006 0.126,-0.021 0.192,-0.041 0.288,-0.087 0.688,-0.382 0.772,-0.446 0.02,-0.065 0.055,-0.124 0.099,-0.173 v 0 c -0.171,-0.046 -0.389,-0.237 -0.446,-0.638 -0.052,-0.371 -0.008,-1.046 0.024,-1.59 0.015,-0.252 0.016,-0.57 0.016,-0.602 z"
   id="path57" />
        <path
   d="m 288.55,228.219 c -0.02,0.027 -0.036,0.061 -0.048,0.103 -0.005,0.004 -0.008,0.006 -0.008,0.008 -0.001,0.014 -0.002,0.028 -0.003,0.042 -0.002,0.012 -0.004,0.025 -0.005,0.039 -0.045,0.462 -0.282,2.918 -0.282,3.936 0,2.363 -0.057,4.567 0.508,6.826 0.114,0.455 0.112,0.983 0.207,1.444 0.083,0.407 0.233,0.768 0.507,1.043 0.237,0.236 0.425,0.649 0.676,0.96 0.374,0.465 0.842,0.759 1.538,0.527 1.447,-0.482 2.315,-1.471 2.899,-2.673 0.547,-1.125 0.836,-2.442 1.143,-3.669 0.133,-0.532 0.085,-1.14 0.035,-1.745 -0.039,-0.483 -0.084,-0.964 0.053,-1.377 0.372,-1.114 0.419,-2.598 0.164,-3.836 -0.18,-0.875 -0.515,-1.626 -0.966,-2.077 -0.244,-0.245 -0.735,-0.344 -1.199,-0.25 -0.253,0.051 -0.493,0.153 -0.666,0.283 -0.168,0.125 -0.281,0.281 -0.335,0.444 -0.243,0.729 -0.02,2.021 0.197,2.673 0.449,1.347 0.124,4.75 -0.296,6.01 -0.082,0.246 -0.228,0.915 -0.449,1.428 -0.038,0.086 -0.077,0.168 -0.12,0.24 -0.024,0.041 -0.063,0.09 -0.092,0.124 v 0 c -1.104,-1.104 -0.967,-2.786 -0.732,-4.532 0.266,-1.981 0.685,-4.049 0.153,-5.647 -0.239,-0.718 -0.807,-1.254 -1.434,-1.359 -0.441,-0.073 -0.921,0.05 -1.358,0.487 -0.145,0.145 -0.175,0.37 -0.087,0.548 z m 5.042,0.357 c -0.174,0.567 0.039,1.542 0.205,2.04 0.494,1.482 0.167,5.231 -0.296,6.619 -0.071,0.214 -0.191,0.737 -0.364,1.215 -0.139,0.383 -0.317,0.735 -0.514,0.942 -0.175,0.185 -0.374,0.279 -0.578,0.286 -0.198,0.007 -0.419,-0.062 -0.645,-0.287 -1.305,-1.305 -1.275,-3.267 -0.997,-5.33 0.246,-1.83 0.686,-3.738 0.194,-5.213 -0.128,-0.382 -0.406,-0.695 -0.74,-0.751 -0.176,-0.029 -0.36,0.026 -0.537,0.174 0.027,0.04 0.043,0.092 0.045,0.16 0.003,0.003 0.005,0.005 0.004,0.007 -0.001,0.009 -0.002,0.019 -0.004,0.028 0,0.013 -0.001,0.026 -0.002,0.04 -0.044,0.45 -0.277,2.848 -0.277,3.841 0,2.281 -0.067,4.411 0.479,6.592 0.1,0.4 0.119,0.852 0.18,1.274 0.042,0.299 0.095,0.584 0.29,0.778 0.214,0.214 0.402,0.55 0.612,0.858 0.179,0.262 0.366,0.537 0.726,0.417 1.192,-0.397 1.9,-1.222 2.381,-2.212 0.519,-1.067 0.785,-2.319 1.076,-3.483 0.109,-0.437 0.05,-0.936 0.009,-1.432 -0.05,-0.618 -0.077,-1.232 0.099,-1.761 0.323,-0.969 0.357,-2.259 0.135,-3.336 -0.138,-0.67 -0.368,-1.258 -0.713,-1.604 -0.024,-0.023 -0.064,-0.021 -0.105,-0.026 -0.099,-0.014 -0.211,-0.007 -0.319,0.015 -0.087,0.018 -0.171,0.045 -0.244,0.081 -0.035,0.018 -0.083,0.055 -0.1,0.068 z"
   id="path59" />
        <path
   d="m 298.156,226.292 c -0.166,0.067 -0.282,0.235 -0.282,0.431 v 1.282 c 0,0.927 0.099,1.831 0.099,2.763 0,1.386 -0.223,3.172 -0.246,4.844 -0.017,1.175 0.067,2.296 0.369,3.202 0.038,0.115 0.031,0.278 0.02,0.462 -0.024,0.385 -0.095,0.841 -0.125,1.252 -0.023,0.328 -0.019,0.631 0.033,0.872 0.051,0.234 0.148,0.421 0.282,0.556 0.049,0.048 0.128,0.105 0.246,0.14 0.134,0.038 0.414,0.057 0.726,0.046 0.42,-0.015 0.907,-0.072 1.123,-0.131 0.153,-0.042 0.247,-0.112 0.29,-0.154 0.05,-0.051 0.138,-0.163 0.148,-0.364 0.013,-0.271 -0.195,-1.356 -0.223,-1.469 -0.143,-0.572 -0.114,-1.223 -0.055,-1.871 0.05,-0.553 0.122,-1.104 0.153,-1.612 0.072,0.19 0.125,0.34 0.145,0.398 0.331,0.994 1.034,1.98 1.505,2.924 0.122,0.244 0.122,0.646 0.185,0.996 0.066,0.369 0.189,0.694 0.395,0.9 0.07,0.07 0.218,0.155 0.437,0.178 0.353,0.036 1.073,-0.051 1.248,-0.051 0.227,0 0.492,0.1 0.726,0.119 0.297,0.025 0.56,-0.044 0.762,-0.246 0.287,-0.287 0.356,-0.673 0.26,-1.109 -0.094,-0.427 -0.37,-0.918 -0.568,-1.315 -0.715,-1.43 -1.312,-3.001 -2.09,-3.967 0.166,-0.097 0.376,-0.22 0.409,-0.236 0.629,-0.315 1.311,-1.14 1.582,-1.683 0.96,-1.919 0.538,-4.189 -0.394,-6.053 -0.374,-0.748 -1.276,-1.447 -2.306,-1.835 -1.032,-0.389 -2.179,-0.461 -3.01,-0.045 -0.135,0.067 -0.31,0.092 -0.487,0.119 -0.246,0.038 -0.497,0.072 -0.704,0.139 -0.306,0.099 -0.537,0.26 -0.653,0.518 z m 7.36,14.79 c 0.023,-0.03 0.021,-0.07 0.019,-0.11 -0.005,-0.083 -0.028,-0.172 -0.059,-0.264 -0.108,-0.319 -0.305,-0.658 -0.448,-0.944 -0.746,-1.493 -1.325,-3.166 -2.183,-4.024 -0.114,-0.114 -0.162,-0.242 -0.172,-0.37 -0.009,-0.11 0.012,-0.229 0.075,-0.347 0.061,-0.115 0.187,-0.249 0.351,-0.365 0.247,-0.174 0.59,-0.33 0.65,-0.36 0.473,-0.237 0.976,-0.869 1.181,-1.278 0.824,-1.649 0.406,-3.594 -0.395,-5.195 -0.292,-0.583 -1.02,-1.092 -1.823,-1.394 -0.8,-0.302 -1.688,-0.403 -2.333,-0.081 -0.313,0.157 -0.772,0.188 -1.156,0.267 -0.076,0.016 -0.148,0.034 -0.21,0.06 -0.027,0.011 -0.06,0.012 -0.06,0.046 0,0.135 -0.056,0.257 -0.145,0.342 0.023,0.146 0.051,0.301 0.081,0.408 0.049,0.179 -0.009,0.363 -0.134,0.478 v 0.054 c 0,0.927 0.099,1.831 0.099,2.763 0,1.389 -0.223,3.181 -0.246,4.858 -0.015,1.057 0.048,2.067 0.32,2.883 0.126,0.379 0.045,1.08 -0.027,1.753 -0.029,0.27 -0.053,0.534 -0.039,0.758 0.003,0.066 0.002,0.128 0.012,0.179 l 1.034,-0.068 c -0.053,-0.332 -0.13,-0.813 -0.145,-0.872 -0.32,-1.278 0.084,-2.911 0.084,-4.163 0,-0.171 -0.082,-0.84 -0.047,-1.17 0.024,-0.223 0.11,-0.373 0.184,-0.447 0.163,-0.163 0.523,-0.26 0.825,0.167 0.301,0.425 0.808,1.769 0.882,1.988 0.318,0.954 1.001,1.894 1.454,2.8 0.134,0.267 0.184,0.673 0.241,1.069 0.02,0.144 0.043,0.286 0.082,0.411 0.011,0.036 0.021,0.07 0.035,0.101 0.081,0.004 0.213,0.008 0.316,0.003 0.331,-0.016 0.693,-0.056 0.81,-0.056 0.185,0 0.391,0.047 0.592,0.089 0.08,0.017 0.158,0.032 0.232,0.035 0.019,0 0.051,-0.003 0.063,-0.004 z"
   id="path61" />
        <path
   d="m 300.476,228.905 c -0.058,0.092 -0.109,0.198 -0.151,0.318 -0.197,0.569 -0.198,1.493 0.016,2.18 0.148,0.477 0.408,0.838 0.72,0.993 0.254,0.125 0.553,0.145 0.897,-0.027 0.955,-0.478 1.365,-1.503 1.346,-2.419 -0.021,-1.027 -0.594,-1.857 -1.39,-1.866 -0.375,-0.005 -0.837,0.171 -1.338,0.672 -0.044,0.044 -0.077,0.095 -0.1,0.149 z m 0.758,0.477 c -0.008,0.011 -0.037,0.053 -0.051,0.082 -0.032,0.07 -0.056,0.153 -0.076,0.245 -0.087,0.414 -0.063,0.975 0.072,1.407 0.038,0.123 0.085,0.235 0.144,0.326 0.037,0.054 0.072,0.104 0.123,0.122 0.039,0.014 0.082,-0.004 0.132,-0.029 0.738,-0.369 0.945,-1.259 0.806,-1.909 -0.069,-0.323 -0.208,-0.615 -0.48,-0.618 -0.145,-0.002 -0.302,0.066 -0.478,0.201 -0.045,0.074 -0.111,0.136 -0.192,0.173 z"
   id="path63" />
        <path
   d="m 307.096,227.19 c -0.058,0.028 -0.145,0.086 -0.209,0.217 -0.076,0.156 -0.375,1.744 -0.418,2.803 -0.014,0.353 0.002,0.652 0.049,0.839 0.042,0.172 0.116,0.291 0.19,0.365 0.189,0.189 0.442,0.285 0.744,0.295 0.309,0.012 0.683,-0.073 1.055,-0.167 0.251,-0.063 0.501,-0.13 0.719,-0.148 0.062,-0.005 0.121,-0.006 0.174,0.001 l 0.016,0.002 c 0.005,0.064 0.011,0.165 0.008,0.244 -0.023,0.608 -0.222,1.502 -0.271,1.698 -0.259,1.034 -0.177,2.179 -0.104,3.314 0.065,1.02 0.127,2.032 -0.171,2.925 -0.057,0.17 -0.421,0.871 -0.532,1.38 -0.089,0.41 -0.004,0.741 0.168,0.914 0.033,0.032 0.113,0.105 0.266,0.132 0.174,0.03 0.931,0.038 1.682,0.03 0.727,-0.007 1.448,-0.024 1.59,-0.033 0.204,-0.013 0.293,-0.119 0.303,-0.129 0.175,-0.176 0.301,-0.488 0.349,-0.887 0.077,-0.649 -0.022,-1.577 -0.022,-2.11 0,-1.832 0.106,-4.169 0.556,-5.967 0.028,-0.114 0.039,-0.278 0.029,-0.474 -0.017,-0.323 -0.087,-0.765 -0.118,-1.154 -0.012,-0.153 -0.002,-0.356 0.003,-0.446 0.017,-0.006 0.035,-0.012 0.05,-0.016 0.102,-0.024 0.223,-0.034 0.356,-0.037 0.48,-0.012 1.083,0.069 1.529,0.11 0.328,0.031 0.589,0.032 0.718,-0.001 0.121,-0.03 0.203,-0.087 0.258,-0.142 0.014,-0.014 0.146,-0.135 0.137,-0.391 -0.008,-0.217 -0.096,-1.266 -0.096,-1.464 0,-0.189 0.005,-0.552 -0.031,-0.834 -0.022,-0.175 -0.064,-0.325 -0.114,-0.427 -0.126,-0.252 -0.421,-0.434 -0.834,-0.473 -0.551,-0.052 -1.374,0.131 -1.648,0.131 -1.316,0 -2.755,0.182 -4.101,-0.087 -0.634,-0.127 -1.516,-0.477 -1.685,-0.532 -0.202,-0.067 -0.329,0.006 -0.349,0.015 -0.13,0.065 -0.196,0.166 -0.23,0.271 -0.021,0.068 -0.032,0.146 -0.016,0.233 z m 0.642,0.476 c -0.002,0.097 -0.032,0.187 -0.083,0.261 -0.015,0.063 -0.032,0.143 -0.047,0.222 -0.099,0.529 -0.231,1.432 -0.258,2.1 -0.008,0.191 0.009,0.422 0.018,0.524 0.025,0.007 0.052,0.008 0.08,0.011 0.079,0.006 0.164,0 0.254,-0.012 0.295,-0.04 0.625,-0.14 0.935,-0.211 0.31,-0.072 0.604,-0.113 0.846,-0.086 0.238,0.027 0.437,0.117 0.59,0.27 0.07,0.07 0.133,0.168 0.174,0.3 0.047,0.15 0.068,0.373 0.058,0.633 -0.027,0.68 -0.245,1.677 -0.3,1.895 -0.235,0.942 -0.143,1.985 -0.077,3.018 0.074,1.148 0.117,2.286 -0.218,3.292 -0.047,0.14 -0.314,0.652 -0.456,1.103 -0.012,0.037 -0.022,0.08 -0.031,0.122 0.655,0.018 2.015,-0.005 2.568,-0.022 l 0.005,-0.021 c 0.031,-0.127 0.046,-0.28 0.053,-0.444 0.026,-0.589 -0.049,-1.307 -0.049,-1.746 0,-1.904 0.118,-4.332 0.585,-6.201 0.022,-0.089 0.002,-0.238 -0.016,-0.412 -0.038,-0.378 -0.107,-0.837 -0.114,-1.199 -0.007,-0.415 0.098,-0.735 0.252,-0.888 0.182,-0.182 0.54,-0.301 0.99,-0.317 0.51,-0.018 1.342,0.055 1.791,0.1 -0.028,-0.396 -0.065,-0.94 -0.065,-1.065 0,-0.141 0.005,-0.394 -0.014,-0.617 -0.005,-0.06 -0.006,-0.118 -0.015,-0.164 -0.067,-0.012 -0.23,-0.041 -0.348,-0.039 -0.514,0.006 -1.139,0.141 -1.369,0.141 -1.369,0 -2.866,0.177 -4.266,-0.103 -0.448,-0.09 -1.095,-0.309 -1.473,-0.445 z"
   id="path65" />
    </g>
    <g
   transform="matrix(1.60661,0,0,1.53218,-141.04,-215.74446)"
   id="g77">
        <path
   d="m 246.316,175.405 c 1.396,-0.142 5.057,-1.957 7.683,-2.762 0.637,-0.194 1.208,-0.328 1.663,-0.353 0.244,-0.013 0.447,0.001 0.594,0.075 0.332,0.165 0.525,0.441 0.659,0.764 0.16,0.387 0.239,0.839 0.325,1.292 0.208,1.085 0.476,2.155 1.502,2.668 2.378,1.188 4.516,0.431 6.556,-0.489 0.956,-0.432 1.889,-0.895 2.817,-1.171 0.87,-0.26 1.735,-0.353 2.611,-0.061 0.808,0.27 1.272,1.034 1.797,1.709 0.642,0.826 1.35,1.542 2.544,1.542 0.21,0 0.38,-0.178 0.38,-0.398 0,-0.219 -0.17,-0.398 -0.38,-0.398 -0.931,0 -1.456,-0.606 -1.956,-1.249 -0.618,-0.795 -1.204,-1.647 -2.156,-1.964 -1.983,-0.661 -3.926,0.343 -5.957,1.258 -1.846,0.833 -3.777,1.578 -5.929,0.502 -0.793,-0.396 -0.924,-1.267 -1.084,-2.106 -0.208,-1.089 -0.448,-2.141 -1.402,-2.618 -0.239,-0.119 -0.565,-0.172 -0.959,-0.151 -0.503,0.027 -1.135,0.169 -1.837,0.384 -2.581,0.791 -6.172,2.595 -7.544,2.734 -0.208,0.021 -0.361,0.215 -0.341,0.434 0.02,0.219 0.206,0.379 0.414,0.358 z"
   id="path69" />
        <path
   d="m 263.669,160.054 c 0.016,-0.044 0.055,-0.143 0.092,-0.207 0.099,-0.17 0.23,-0.349 0.338,-0.523 0.298,-0.483 0.372,-0.951 0.042,-1.282 -0.237,-0.237 -0.708,-0.328 -1.281,-0.249 -1.04,0.144 -2.48,0.754 -2.855,0.915 -1.041,0.446 -5.028,2.258 -7.874,2.757 -0.691,0.121 -1.311,0.165 -1.794,0.08 -0.215,-0.039 -0.4,-0.1 -0.54,-0.204 0.047,-0.056 0.121,-0.141 0.192,-0.202 0.31,-0.268 0.766,-0.553 1.159,-0.821 0.452,-0.309 0.815,-0.623 0.92,-0.853 0.117,-0.257 0.083,-0.483 -0.111,-0.677 -0.238,-0.238 -0.558,-0.388 -0.947,-0.452 -0.495,-0.081 -1.116,-0.021 -1.803,0.14 -2.458,0.575 -5.846,2.459 -7.031,2.696 -0.37,0.074 -2.004,0.686 -3.145,0.852 -0.215,0.031 -0.41,0.047 -0.57,0.033 -0.064,-0.005 -0.12,-0.002 -0.158,-0.022 -0.02,-0.061 -0.089,-0.276 -0.128,-0.442 -0.114,-0.483 -0.24,-1.082 -0.387,-1.351 -0.188,-0.347 -0.451,-0.395 -0.677,-0.282 -0.654,0.327 -1.333,0.932 -1.992,1.63 -0.936,0.992 -1.837,2.171 -2.582,2.917 -0.152,0.151 -0.158,0.404 -0.013,0.563 0.145,0.158 0.385,0.164 0.537,0.013 0.749,-0.75 1.656,-1.936 2.597,-2.933 0.51,-0.54 1.028,-1.025 1.536,-1.336 0.02,0.057 0.041,0.118 0.056,0.174 0.103,0.382 0.193,0.868 0.287,1.173 0.065,0.215 0.151,0.366 0.221,0.435 0.115,0.115 0.286,0.201 0.509,0.239 0.229,0.037 0.53,0.027 0.868,-0.023 1.155,-0.167 2.809,-0.784 3.183,-0.859 1.189,-0.237 4.588,-2.123 7.055,-2.7 0.488,-0.115 0.937,-0.177 1.318,-0.153 0.214,0.013 0.405,0.051 0.56,0.132 -0.204,0.163 -0.613,0.483 -0.933,0.698 -0.312,0.21 -0.62,0.424 -0.847,0.626 -0.193,0.171 -0.332,0.343 -0.404,0.496 -0.136,0.294 -0.107,0.563 0.129,0.799 0.241,0.241 0.585,0.402 1.015,0.478 0.55,0.098 1.257,0.059 2.045,-0.079 2.904,-0.509 6.975,-2.35 8.037,-2.805 0.349,-0.15 1.694,-0.728 2.666,-0.863 0.18,-0.025 0.346,-0.034 0.485,-0.017 0.062,0.008 0.118,0.013 0.156,0.04 -0.003,0.013 -0.007,0.031 -0.011,0.043 -0.02,0.054 -0.049,0.109 -0.081,0.166 -0.098,0.171 -0.228,0.348 -0.336,0.52 -0.119,0.191 -0.212,0.38 -0.249,0.549 -0.06,0.274 -0.01,0.518 0.196,0.724 0.335,0.335 0.838,0.416 1.467,0.233 1.132,-0.328 2.775,-1.541 4.387,-2.791 1.328,-1.028 2.636,-2.076 3.609,-2.611 0.287,-0.158 0.54,-0.271 0.751,-0.311 0.097,-0.019 0.177,-0.041 0.229,0.01 0.313,0.313 0.747,0.48 1.175,0.622 0.303,0.1 0.604,0.177 0.797,0.356 0,0.021 -10e-4,0.068 -0.007,0.099 -0.01,0.062 -0.028,0.129 -0.051,0.199 -0.094,0.294 -0.26,0.639 -0.404,0.987 -0.169,0.409 -0.303,0.824 -0.312,1.179 -0.012,0.469 0.155,0.862 0.641,1.105 1.385,0.692 3.525,0.57 5.796,0.073 3.278,-0.717 6.841,-2.183 8.655,-2.788 0.628,-0.209 2.159,-0.455 3.423,-0.344 0.399,0.036 0.77,0.106 1.071,0.231 0.237,0.099 0.429,0.225 0.525,0.416 0.065,0.129 0.051,0.267 -0.002,0.408 -0.078,0.213 -0.236,0.428 -0.433,0.643 -0.672,0.735 -1.794,1.44 -2.499,1.895 -0.345,0.223 -0.6,0.398 -0.695,0.494 -0.27,0.276 -0.137,0.531 -0.026,0.641 0.067,0.067 0.156,0.117 0.276,0.124 0.078,0.005 0.197,-0.015 0.34,-0.083 0.245,-0.117 0.654,-0.411 1.016,-0.656 0.196,-0.132 0.372,-0.25 0.485,-0.288 1.107,-0.369 2.424,-0.23 3.615,-0.23 3.53,0 5.248,1.921 7.296,2.945 0.713,0.356 5.699,3.38 7.361,4.88 0.13,0.117 0.239,0.224 0.32,0.318 -0.088,0.048 -0.193,0.094 -0.312,0.138 -0.399,0.151 -0.938,0.274 -1.553,0.376 -2.452,0.404 -6.082,0.449 -7.074,0.251 -0.026,-0.005 -2.127,-0.301 -2.966,-0.31 -0.271,-0.003 -0.455,0.049 -0.52,0.091 -0.152,0.097 -0.197,0.233 -0.197,0.361 0,0.225 0.066,0.463 0.183,0.711 0.139,0.294 0.357,0.61 0.58,0.947 0.454,0.683 0.984,1.465 0.524,2.384 -0.351,0.702 -1.16,1.002 -2.081,1.089 -1.512,0.142 -3.343,-0.325 -4.341,-0.991 -0.151,-0.1 -0.395,-0.382 -0.682,-0.673 -0.34,-0.344 -0.729,-0.699 -1.09,-0.882 -0.442,-0.224 -0.855,-0.214 -1.18,0.111 -0.618,0.617 -1.117,1.952 -1.655,3.052 -0.301,0.615 -0.596,1.159 -0.982,1.352 -0.129,0.065 -0.298,0.027 -0.499,-0.038 -0.439,-0.143 -0.974,-0.467 -1.548,-0.858 -0.913,-0.624 -1.914,-1.419 -2.787,-2.01 -0.626,-0.424 -1.194,-0.743 -1.628,-0.851 -1.231,-0.308 -2.036,-0.218 -2.624,0.08 -0.597,0.303 -0.985,0.831 -1.351,1.46 -0.414,0.714 -0.806,1.571 -1.614,2.269 -0.162,0.14 -0.185,0.391 -0.052,0.56 0.133,0.17 0.373,0.194 0.534,0.054 0.884,-0.763 1.327,-1.688 1.781,-2.468 0.285,-0.491 0.567,-0.922 1.032,-1.158 0.475,-0.241 1.125,-0.271 2.118,-0.023 0.44,0.11 1.029,0.487 1.682,0.946 1.056,0.742 2.256,1.707 3.252,2.292 0.465,0.274 0.892,0.467 1.247,0.537 0.306,0.061 0.57,0.033 0.784,-0.073 0.501,-0.251 0.941,-0.91 1.331,-1.707 0.497,-1.018 0.932,-2.269 1.503,-2.84 0.058,-0.059 0.133,-0.045 0.21,-0.02 0.114,0.038 0.231,0.11 0.351,0.197 0.582,0.423 1.179,1.176 1.459,1.363 1.109,0.739 3.139,1.27 4.817,1.112 1.207,-0.114 2.225,-0.592 2.685,-1.512 0.521,-1.042 0.191,-1.968 -0.302,-2.785 -0.211,-0.351 -0.451,-0.679 -0.637,-0.985 -0.055,-0.09 -0.106,-0.175 -0.148,-0.258 0.789,0.075 2.647,0.252 2.669,0.256 1.028,0.206 4.792,0.172 7.334,-0.247 1.172,-0.193 2.093,-0.496 2.447,-0.851 0.137,-0.136 0.197,-0.322 0.12,-0.564 -0.059,-0.185 -0.277,-0.475 -0.645,-0.807 -1.701,-1.534 -6.8,-4.63 -7.53,-4.994 -2.135,-1.068 -3.942,-3.023 -7.622,-3.023 -0.833,0 -1.723,-0.054 -2.57,0.02 0.286,-0.24 0.548,-0.49 0.754,-0.741 0.505,-0.612 0.688,-1.248 0.411,-1.801 -0.245,-0.49 -0.804,-0.817 -1.531,-0.972 -1.452,-0.309 -3.592,0.014 -4.39,0.28 -1.799,0.6 -5.33,2.057 -8.58,2.768 -2.082,0.456 -4.045,0.622 -5.314,-0.012 -0.207,-0.104 -0.229,-0.294 -0.196,-0.505 0.057,-0.365 0.25,-0.779 0.416,-1.165 0.163,-0.376 0.302,-0.73 0.336,-1.008 0.039,-0.311 -0.035,-0.558 -0.209,-0.732 -0.219,-0.22 -0.535,-0.362 -0.885,-0.481 -0.382,-0.131 -0.817,-0.227 -1.104,-0.514 -0.274,-0.273 -0.744,-0.324 -1.357,-0.072 -1.026,0.423 -2.606,1.68 -4.207,2.92 -1.318,1.022 -2.651,2.031 -3.685,2.494 -0.304,0.136 -0.577,0.224 -0.812,0.237 -0.141,0.008 -0.264,-0.01 -0.356,-0.086 z"
   id="path71" />
        <path
   d="m 245.805,175.252 v 0.004 c 0,0.219 0.17,0.398 0.38,0.398 0.209,0 0.379,-0.179 0.379,-0.398 0,-0.343 -0.106,-0.54 -0.229,-0.657 -0.181,-0.172 -0.473,-0.212 -0.826,-0.096 -0.241,0.079 -0.529,0.228 -0.803,0.311 -0.08,0.024 -0.157,0.043 -0.23,0.045 -0.046,0.002 -0.091,0.002 -0.124,-0.031 -0.221,-0.221 -0.526,-0.339 -0.88,-0.384 -0.412,-0.053 -0.899,-0.005 -1.337,-0.005 -1.142,0 -3.389,-0.207 -4.743,-0.415 -0.313,-0.048 -0.631,-0.119 -0.811,-0.162 -0.094,-0.144 -0.271,-0.21 -0.436,-0.15 -0.26,0.094 -0.305,0.287 -0.311,0.395 -0.006,0.111 0.02,0.257 0.174,0.376 0.082,0.064 0.342,0.161 0.735,0.237 1.238,0.239 4.054,0.515 5.392,0.515 0.346,0 0.725,-0.034 1.068,-0.016 0.248,0.012 0.478,0.038 0.625,0.185 0.203,0.203 0.46,0.274 0.749,0.246 0.292,-0.029 0.627,-0.174 0.928,-0.299 0.093,-0.038 0.217,-0.076 0.3,-0.099 z"
   id="path73" />
        <path
   d="m 229.703,168.607 c -0.029,0.026 -0.064,0.052 -0.102,0.079 -0.13,0.096 -0.294,0.189 -0.477,0.282 -0.605,0.306 -1.4,0.594 -1.958,0.844 -0.333,0.148 -0.59,0.294 -0.718,0.416 -0.147,0.141 -0.195,0.293 -0.195,0.419 0,0.013 0.055,0.395 0.42,0.4 0.248,0.003 1.491,-0.024 1.565,-0.009 1.433,0.287 2.898,0.341 4.312,0.694 0.449,0.113 0.715,0.281 0.856,0.509 0.227,0.364 0.148,0.827 0.116,1.249 -0.058,0.746 -0.003,1.39 0.629,1.706 0.345,0.172 0.73,0.103 1.106,-0.108 0.387,-0.215 0.763,-0.594 1.036,-0.73 0.087,-0.044 0.403,-0.143 0.546,-0.21 0.125,-0.058 0.196,-0.135 0.222,-0.173 0.129,-0.187 0.095,-0.353 -0.009,-0.491 -0.032,-0.043 -0.127,-0.163 -0.364,-0.163 -0.12,0 -0.227,0.059 -0.297,0.15 -0.149,0.056 -0.365,0.139 -0.425,0.168 -0.241,0.121 -0.562,0.415 -0.899,0.643 -0.126,0.086 -0.254,0.162 -0.382,0.198 -0.071,0.021 -0.142,0.03 -0.208,-0.003 -0.159,-0.079 -0.2,-0.224 -0.213,-0.388 -0.024,-0.293 0.03,-0.636 0.045,-0.979 0.019,-0.44 -0.022,-0.878 -0.237,-1.254 -0.216,-0.379 -0.609,-0.714 -1.346,-0.898 -1.425,-0.356 -2.901,-0.413 -4.346,-0.702 -0.018,-0.004 -0.099,-0.006 -0.217,-0.007 0.555,-0.227 1.163,-0.475 1.599,-0.731 0.347,-0.205 0.593,-0.432 0.698,-0.641 0.139,-0.278 0.074,-0.573 -0.196,-0.832 -0.159,-0.152 -0.407,-0.299 -0.637,-0.422 -0.147,-0.078 -0.347,-0.193 -0.364,-0.203 -0.497,-0.497 -1.91,-1.923 -2.714,-3.054 -0.139,-0.196 -0.26,-0.382 -0.351,-0.551 0.387,0.032 0.885,0.075 1.03,0.095 l 0.011,0.002 c 0.931,0.313 2.687,1.073 4.046,1.342 0.668,0.133 1.251,0.139 1.639,-0.025 0.194,-0.082 0.288,-0.314 0.21,-0.517 -0.078,-0.204 -0.299,-0.303 -0.494,-0.221 -0.398,0.168 -1.061,0.042 -1.791,-0.156 -1.231,-0.333 -2.623,-0.93 -3.403,-1.19 -0.064,-0.021 -1.472,-0.172 -1.753,-0.165 -0.362,0.007 -0.417,0.35 -0.417,0.405 0,0.336 0.249,0.872 0.664,1.456 0.834,1.173 2.298,2.654 2.805,3.161 0.089,0.09 0.349,0.226 0.62,0.375 0.107,0.059 0.25,0.163 0.338,0.23 z"
   id="path75" />
    </g>
    <g
   transform="matrix(1.41917,-0.380958,0.380958,1.41917,-170.238,42.866436)"
   id="g169">
        <path
   d="m 193.601,209.786 c -0.623,0.131 0.73,-1.787 0.917,-2.161 0.603,-1.206 2.775,-3.551 4.19,-4.023 1.748,-0.583 3.329,-2.107 5.365,-2.515 2.848,-0.569 5.361,2.176 7.04,3.856 7.505,7.505 8.703,28.169 -2.011,33.526 -6.586,3.293 -15.766,-5.044 -18.44,-10.393 -0.766,-1.532 -3.036,-4.991 -2.012,-7.04 1.117,-2.234 1.142,-6.338 2.85,-8.047 0.686,-0.685 2.179,-2.6 2.179,-3.688"
   style="fill:none;stroke:#000000;stroke-width:1.45px"
   id="path79" />
        <path
   d="m 192.176,194.976 c 2.789,-4.12 13.636,-4.019 16.926,0.915 2.182,3.273 2.682,5.259 2.682,9.052"
   style="fill:none;stroke:#000000;stroke-width:1.45px"
   id="path81" />
        <path
   d="m 164.726,182.207 c -0.112,0.252 -0.433,-0.951 -0.55,-1.068 -0.512,-0.512 -1.269,-1.436 -1.844,-2.011 -1.049,-1.05 -3.176,-1.5 -4.358,-2.682 -0.795,-0.795 -1.283,-2.121 -2.18,-3.018 -1.717,-1.717 3.356,-4.355 1.844,-5.867 -0.621,-0.621 -2.113,2.245 -3.017,1.341 -0.529,-0.529 -0.67,-1.458 -0.67,-2.514 0,-0.562 0.167,-1.677 0.167,-1.677 0,0 -0.105,1.048 -0.335,1.509 -0.525,1.049 -0.699,2.375 -1.509,3.185 -0.622,0.622 -5.148,2.898 -3.855,4.191 2.741,2.741 7.394,4.712 10.393,7.711 0.639,0.639 2.011,1.974 2.011,2.682"
   style="fill:none;stroke:#000000;stroke-width:1.45px"
   id="path83" />
        <path
   d="m 154.338,179.432 c -1.181,0.164 -2.42,1.896 -3.237,2.713 -2.655,2.655 -4.686,5.509 -5.867,9.052 -0.211,0.633 0.071,3.785 -0.336,4.191 -0.449,0.45 -1.88,-0.485 -2.514,-0.168 -0.326,0.163 -1.63,1.053 -1.174,1.509 0.43,0.43 1.873,-0.517 2.18,-0.67 1.328,-0.665 3.669,-0.205 4.358,1.173 0.136,0.271 -1.994,-1.333 -2.682,-1.676 -0.422,-0.211 -1.672,-0.003 -2.012,0.167 -0.357,0.179 -1.005,1.276 -1.005,1.006"
   style="fill:none;stroke:#000000;stroke-width:1.45px"
   id="path85" />
        <path
   d="m 189.263,227.049 c -1.641,0.316 -3.775,-1.429 -4.971,-2.325 -0.335,-0.252 -1.45,-1.903 -1.844,-1.509 -0.177,0.177 0.839,1.258 1.006,1.509 1.258,1.887 2.583,2.464 4.358,3.352 0.186,0.093 2.821,0.03 2.682,0.168 -1.764,1.765 -8.549,-3.057 -8.549,-5.364"
   style="fill:none;stroke:#000000;stroke-width:1.45px"
   id="path87" />
        <path
   d="m 180.3,224.876 c -0.031,0.179 -4.058,2.826 -4.557,3.2 -0.824,0.618 -1.816,1.481 -2.515,2.18 -0.253,0.253 -0.838,1.028 -0.838,0.67 0,-0.671 2.754,-2.17 3.185,-2.514 0.507,-0.406 5.131,-5.095 5.364,-4.862 0.299,0.299 0.27,0.773 0.503,1.006 0.306,0.306 0.816,-0.526 1.174,-0.168 0.426,0.427 -1.037,0.336 -1.174,0.336 -0.732,0 -1.24,0.435 -1.844,0.838 -1.763,1.175 -4.213,2.704 -5.364,3.855 -0.477,0.478 -1.844,0.839 -1.844,0.839 0,0 1.621,-0.928 2.347,-1.509 1.198,-0.958 4.861,-3.409 4.861,-5.029"
   style="fill:none;stroke:#000000;stroke-width:1.45px"
   id="path89" />
        <path
   d="m 180.966,224.205 c -1.098,0.088 -0.825,1.772 -0.362,2.698 1.199,2.397 2.107,5.052 3.353,7.543 0.374,0.75 2.338,5.038 2.347,5.029 0.227,-0.227 -1.251,-2.734 -1.341,-3.185 -0.509,-2.541 -6.262,-9.693 -2.85,-11.399 0.265,-0.132 0.167,1.123 0.167,1.341 0,0.823 0.303,1.88 0.503,2.682 0.579,2.316 1.767,4.463 2.515,6.706 0.395,1.184 1.3,2.097 1.844,3.185 0.129,0.259 0.603,1.609 0.503,1.508 -2.477,-2.477 -3.462,-6.854 -5.197,-9.89 -0.633,-1.108 -1.442,-2.214 -2.012,-3.353 -0.081,-0.163 -0.838,-1.724 -0.838,-1.676 0,1.389 1.287,3.105 1.844,4.359 1.395,3.137 3.697,9.228 5.532,11.063 0.53,0.53 -1.3,0.769 -2.011,1.006 -0.999,0.333 -2.189,2.018 -3.185,2.682 -0.661,0.441 -1.844,1.509 -1.844,1.509 0,0 1.867,-1.365 2.682,-2.179 1.247,-1.248 1.917,-3.427 3.017,-4.526 0.858,-0.858 2.179,3.003 2.179,2.682"
   style="fill:none;stroke:#000000;stroke-width:1.45px"
   id="path91" />
        <path
   d="m 187.907,240.501 c -0.692,-0.149 -0.598,2.338 -0.598,2.83 0,1.727 -0.586,4.862 0.168,6.37 0.375,0.75 0,2.514 0,2.514 0,0 0.168,-2.681 0.168,-4.023 v -6.035 c 0,-0.226 0.213,-1.798 0.167,-1.844 -0.128,-0.128 -1.436,1.772 -1.508,1.844 -0.97,0.97 -2.829,1.488 -4.024,2.683"
   style="fill:none;stroke:#000000;stroke-width:1.45px"
   id="path93" />
        <path
   d="m 188.153,241.165 c -0.947,0.844 2.319,1.32 3.347,1.663 2.087,0.695 4.136,1.945 6.203,3.185 1.094,0.657 3.52,1.509 3.52,1.509 0,0 -2.281,-1.034 -3.353,-1.677 -2.204,-1.322 -4.431,-2.107 -6.705,-3.017 -1.23,-0.492 -3.52,-1.844 -3.52,-1.844 0,0 2.506,1.58 3.855,2.179 2.392,1.063 4.804,2.178 7.041,3.52 0.812,0.488 4.133,0.839 3.352,0.839"
   style="fill:none;stroke:#000000;stroke-width:1.45px"
   id="path95" />
        <path
   d="m 187.749,239.838 c -0.236,-0.061 0.847,0.438 1.74,0.14 1.492,-0.497 2.818,-1.341 4.526,-1.341 0.901,0 2.682,-0.335 2.682,-0.335 0,0 -1.959,0.962 -3.018,1.173 -1.936,0.387 -4.048,0.193 -5.531,1.677"
   style="fill:none;stroke:#000000;stroke-width:1.45px"
   id="path97" />
        <path
   d="m 178.765,222.696 c -0.003,0.101 0.537,-0.255 1.001,-0.487 0.552,-0.276 2.09,0.257 2.514,-0.167 2.09,-2.09 5.385,-2.556 7.209,-6.203 2.128,-4.258 3.185,-7.915 3.185,-13.746 0,-1.701 0.25,-4.194 -0.503,-5.699 -0.961,-1.921 -1.809,-3.617 -2.85,-5.7 -0.759,-1.518 -2.304,-4.001 -4.023,-4.861 -1.23,-0.615 -2.866,-0.092 -4.023,-0.671 -1.117,-0.558 -3.522,-1.047 -5.029,-0.67 -13.434,3.358 -14.266,21.82 -8.047,32.185 2.128,3.546 8.313,8.451 12.237,4.526"
   style="fill:none;stroke:#000000;stroke-width:1.45px"
   id="path99" />
        <path
   d="m 175.827,188.552 c 0.258,0.404 0.475,0.634 1.592,0.634"
   style="fill:none;stroke:#000000;stroke-width:1.45px"
   id="path101" />
        <path
   d="m 177.833,189.286 c -0.026,0.022 -0.052,0.045 -0.079,0.067"
   style="fill:none;stroke:#000000;stroke-width:1.45px"
   id="path103" />
        <path
   d="m 177.964,189.202 c 0.422,-0.024 0.933,-0.184 1.131,-0.184"
   style="fill:none;stroke:#000000;stroke-width:1.45px"
   id="path105" />
        <path
   d="m 179.368,188.957 c 0.021,0.02 0.042,0.041 0.063,0.061"
   style="fill:none;stroke:#000000;stroke-width:1.45px"
   id="path107" />
        <path
   d="m 179.541,188.908 c 0.509,-0.131 1.032,-0.529 1.398,-0.896"
   style="fill:none;stroke:#000000;stroke-width:1.45px"
   id="path109" />
        <path
   d="m 178.006,185.98 c 0.138,0.034 -0.034,0.021 -0.084,0.021"
   style="fill:none;stroke:#000000;stroke-width:1.45px"
   id="path111" />
        <path
   d="m 177.964,185.98 c -0.014,0.007 -0.028,0.014 -0.042,0.021"
   style="fill:none;stroke:#000000;stroke-width:1.45px"
   id="path113" />
        <path
   d="m 177.943,185.98 c -0.831,-5.842 -4.338,-10.024 -9.911,-11.881 -2.601,-0.867 -6.602,-0.439 -8.382,1.341 -0.215,0.214 -1.676,0.381 -1.676,0.838"
   style="fill:none;stroke:#000000;stroke-width:1.45px"
   id="path115" />
        <path
   d="m 173.757,184.583 c -0.008,0.025 -0.017,0.051 -0.026,0.077"
   style="fill:none;stroke:#000000;stroke-width:1.45px"
   id="path117" />
        <path
   d="m 173.626,184.715 c -0.301,0.536 -1.83,-1.152 -2.074,-1.397 -0.74,-0.74 -2.893,-0.524 -3.856,-1.005 -3.366,-1.684 -8.128,2.342 -9.387,4.861 -2.527,5.053 -5.772,19.577 1.006,22.966 2.129,1.064 4.403,0.67 6.537,0.67"
   style="fill:none;stroke:#000000;stroke-width:1.45px"
   id="path119" />
        <path
   d="m 171.671,230.899 c 0.569,-0.704 -4.514,-2.076 -5.291,-2.27 -4.834,-1.209 -9.453,0.2 -13.746,2.346 -10.267,5.134 -16.278,16.485 -9.387,26.822 1.632,2.448 5.475,2.57 7.711,3.688 1.264,0.632 3.23,0.335 4.693,0.335 7.764,0 14.283,-8.785 17.434,-15.087 0.865,-1.729 1.426,-4.025 2.179,-5.532 1.837,-3.674 -0.345,-10.058 -3.855,-10.058"
   style="fill:none;stroke:#000000;stroke-width:1.45px"
   id="path121" />
        <path
   d="m 142.215,196.929 c -2.661,0.315 -3.921,2.12 -5.674,3.873 -4.547,4.546 -6.754,11.708 -5.029,18.607 0.838,3.352 3.215,7.97 6.873,8.884 7.079,1.77 14.472,-0.586 18.775,-7.04 1.528,-2.293 3.017,-5.598 3.017,-8.382 0,-1.266 -0.409,-1.583 -1.005,-2.179 -0.157,-0.157 1.005,1.256 1.005,2.179"
   style="fill:none;stroke:#000000;stroke-width:1.45px"
   id="path123" />
        <path
   d="m 154.604,202.436 c -0.106,0.065 -0.323,-0.578 -0.39,-0.712 -0.205,-0.411 -0.761,-0.819 -1.077,-1.292 -0.892,-1.338 -3.423,-3.015 -4.737,-3.015"
   style="fill:none;stroke:#000000;stroke-width:1.45px"
   id="path125" />
        <path
   d="m 143.946,199.757 c 0.13,0.437 1.763,0.997 2.517,0.244"
   style="fill:none;stroke:#000000;stroke-width:1.45px"
   id="path127" />
        <path
   d="m 143.325,196.51 c -1.079,0.26 1.251,1.338 1.471,1.558 0.531,0.531 2.105,-0.467 2.454,-0.467"
   style="fill:none;stroke:#000000;stroke-width:1.45px"
   id="path129" />
        <path
   d="m 167.795,232.387 c -0.322,-0.054 -0.567,0.498 -0.274,0.791 0.957,0.957 1.415,2.917 3.506,2.22"
   style="fill:none;stroke:#000000;stroke-width:1.45px"
   id="path131" />
        <path
   d="m 192.448,224.404 c -0.395,0.029 0.607,-0.043 1.362,0.713 0.641,0.64 1.286,1.884 1.286,2.804"
   style="fill:none;stroke:#000000;stroke-width:1.45px"
   id="path133" />
        <path
   d="m 186.975,253.321 c 0.129,-0.361 -2.231,-0.63 -2.746,-0.63 -2.213,0 -4.281,0.776 -5.958,2.453 -1.487,1.487 -3.027,2.711 -4.323,4.44 -3.631,4.841 -3.735,12.859 -0.468,17.76 1.053,1.579 2.604,3.688 4.674,4.206 2.415,0.604 5.935,0.97 8.412,0.35 2.507,-0.626 4.137,-2.524 5.492,-4.556 0.853,-1.28 1.994,-2.407 2.804,-3.622 1.271,-1.906 1.317,-4.835 1.752,-7.011 0.75,-3.75 2.029,-10.37 -1.869,-12.969 -2.838,-1.892 -5.788,-0.701 -8.529,-0.701"
   style="fill:none;stroke:#000000;stroke-width:1.45px"
   id="path135" />
        <path
   d="m 184.062,256.955 c 1.685,1.938 3.836,1.881 5.659,0.059"
   style="fill:none;stroke:#000000;stroke-width:1.45px"
   id="path137" />
        <path
   d="m 197.94,262.63 c 0.022,-0.019 0.043,-0.037 0.065,-0.056"
   style="fill:none;stroke:#000000;stroke-width:1.45px"
   id="path139" />
        <path
   d="m 197.819,262.749 c -0.176,-0.113 0.597,0.803 1.216,1.113 1.128,0.564 2.323,0.602 3.608,1.031 3.178,1.059 8.725,-2.056 10.565,-4.51 3.055,-4.072 3.686,-10.975 2.062,-15.848 -0.446,-1.339 -0.785,-3.362 -1.804,-4.381 -0.882,-0.883 -1.81,-1.552 -2.448,-2.19"
   style="fill:none;stroke:#000000;stroke-width:1.45px"
   id="path141" />
        <path
   d="m 191.099,251.249 c -0.09,0.199 -0.181,-1.851 -0.181,-2.333 0,-1.405 0.879,-4.381 1.933,-4.381"
   style="fill:none;stroke:#000000;stroke-width:1.45px"
   id="path143" />
        <path
   d="m 194.059,242.918 c -0.153,-0.592 0.958,-1.298 1.24,-1.862 0.715,-1.431 3.093,-3.221 4.767,-3.221"
   style="fill:none;stroke:#000000;stroke-width:1.45px"
   id="path145" />
        <path
   d="m 203.187,249.745 c -0.16,0.413 0.734,-0.502 1.131,-0.7 0.656,-0.328 1.164,-2.573 0.515,-3.222"
   style="fill:none;stroke:#000000;stroke-width:1.45px"
   id="path147" />
        <path
   d="m 216.712,249.353 c -0.129,0.418 1.624,-1.055 2.037,-1.468 1.332,-1.332 2.999,-2.941 3.608,-4.767 1.784,-5.354 2.078,-11.193 -2.191,-15.462 -0.747,-0.748 -1.596,-1.546 -2.706,-1.546"
   style="fill:none;stroke:#000000;stroke-width:1.45px"
   id="path149" />
        <path
   d="m 194.671,242.048 c -0.577,0.155 -1.482,-0.83 -1.82,-1.507 -1.025,-2.049 -2.033,-4.181 -0.902,-6.443 0.32,-0.641 0.687,-1.675 1.417,-1.675"
   style="fill:none;stroke:#000000;stroke-width:1.45px"
   id="path151" />
        <path
   d="m 184.053,251.657 c 0.658,-0.655 0.758,-6.091 -0.479,-6.091"
   style="fill:none;stroke:#000000;stroke-width:1.45px"
   id="path153" />
        <path
   d="m 182.772,242.902 c -0.775,-0.322 -1.164,-2.314 -2.291,-2.877 -1.392,-0.696 -2.563,-0.902 -3.994,-0.902"
   style="fill:none;stroke:#000000;stroke-width:1.45px"
   id="path155" />
        <path
   d="m 170.89,264.811 c -0.014,-0.009 -0.75,0.485 -0.974,0.597 -0.696,0.348 -2.25,-0.094 -2.835,-0.386 -1.318,-0.659 -5.02,-3.999 -3.35,-5.67"
   style="fill:none;stroke:#000000;stroke-width:1.45px"
   id="path157" />
        <path
   d="m 153.737,226.385 c -0.485,-0.046 0.244,0.581 0.331,0.756 0.392,0.784 1.202,1.417 2.19,1.417"
   style="fill:none;stroke:#000000;stroke-width:1.45px"
   id="path159" />
        <path
   d="m 175.231,233.346 c -0.105,0.351 1.458,0.299 2.029,0.108 1.97,-0.656 3.248,-1.959 4.51,-3.221"
   style="fill:none;stroke:#000000;stroke-width:1.45px"
   id="path161" />
        <path
   d="m 224.383,234.259 c -0.017,0.027 -0.033,0.053 -0.05,0.08"
   style="fill:none;stroke:#000000;stroke-width:1.45px"
   id="path163" />
        <path
   d="m 224.274,234.464 c -0.001,0 1.474,-0.749 2.275,-1.55 1.299,-1.299 1.998,-3.077 3.007,-4.59 2.546,-3.818 2.85,-12.18 1.741,-16.617 -1.868,-7.472 -4.546,-12.843 -10.921,-17.093 -1.601,-1.068 -7.264,-2.707 -8.862,-1.108 -0.469,0.469 -2.216,-0.191 -2.216,0.791"
   style="fill:none;stroke:#000000;stroke-width:1.45px"
   id="path165" />
        <path
   d="m 211.172,192.272 c 1.275,-9.827 -10.512,-15.226 -18.65,-15.226 -4.077,0 -6.418,3.886 -8.388,5.856 -0.344,0.344 -1.583,1.541 -1.583,1.899"
   style="fill:none;stroke:#000000;stroke-width:1.45px"
   id="path167" />
    </g>
</svg>
