<?xml version="1.0" encoding="UTF-8"?><svg id="Layer_1" xmlns="http://www.w3.org/2000/svg" viewBox="0 0 1200 1200"><path d="M402.88,494.63c-.44-.82-.98-.98-1.47-1.2-20.6-9.3-38.11-22.86-53.76-38.97-6.03-6.2-11.73-12.67-16.45-19.96-.44-.69-.85-1.4-1.32-2.07-4.37-6.15-4.82-12.57-2.11-19.62,13.24-34.52,25.15-69.55,39-103.84,.79-1.95,1.22-3.99,1.82-5.99,3.11-10.47,11.43-16.76,22.34-17.14,9.63-.34,18.23,2.74,26.36,7.52,9.69,5.7,17.54,13.49,24.76,21.98,8.97,10.54,16.89,21.86,24.84,33.16,15.18,21.57,31.26,42.45,48.03,62.79,.12,.14,.23,.28,.35,.42,4.12,4.76,4.1,4.72,9.34,1.41,7.63-4.81,15.63-8.9,23.96-12.36,3.54-1.47,7.21-2.52,11.03-2.91,1.5-.15,2.25-.84,2.67-2.23,1.24-4.08,2.48-8.17,3.86-12.21,10.41-30.45,21.47-60.64,35.9-89.47,5.98-11.95,12.49-23.63,20.16-34.6,4.02-5.75,8.42-11.18,13.72-15.83,4.37-3.83,9.24-6.69,15.04-7.85,6.14-1.23,11.76-.03,16.89,3.42,10.17,6.85,20.3,13.75,29.87,21.46,12.54,10.12,24.43,20.94,35.97,32.15,8.41,8.17,16.86,16.3,25.55,24.17,8.43,7.63,10.6,17.22,9.25,28.01-1.15,9.27-4.75,17.68-9.34,25.7-12.12,21.18-27.98,39.11-47.14,54.17-14.19,11.15-29.47,20.63-45.29,29.26-.88,.48-1.75,.97-2.6,1.48-.12,.07-.16,.3-.29,.57,2.41,.44,4.69-.26,6.96-.59,19.94-2.94,39.81-6.35,59.65-9.94,18.76-3.39,37.55-6.61,56.46-9.14,14.4-1.92,28.82-3.64,43.27-5.21,2.98-.32,5.98-.55,8.97-.6,4.42-.09,6.41,1.46,7.29,5.68,3.15,15.11,6.17,30.25,8.44,45.53,2.89,19.4,5.9,38.78,9.09,58.13,.9,5.46,1.7,10.95,2.59,16.41,.23,1.4,.35,2.86,1.66,3.89,1.04,.82,1.22,2.15,.57,3.23-1.01,1.67-.6,3.3-.36,5.01,2.11,14.93,4.56,29.8,7.78,44.53,1.94,8.87,4.33,17.64,5.58,26.65,.22,1.58,.74,2.87,2.45,3.57,1.82,.74,2.5,2.55,3.05,4.31,1.1,3.49,1.49,7.11,1.89,10.72,1.55,14.08,2.93,28.18,4.51,42.25,.9,8.03,2.27,16.01,2.12,24.13-.04,2.31-.21,4.54-1.6,6.5-.77,1.08-.55,2.24-.29,3.41,2.28,10.47,4.41,20.97,5.97,31.58,1.79,12.12,3.48,24.26,5.2,36.4,1.22,8.63,2.26,17.29,3.06,25.97,.53,5.79,.84,11.59,1.27,17.39,.52,7.06,1.1,14.12,2.09,21.14,.46,3.26-.16,4.47-3.32,5.58-4.14,1.45-8.52,1.82-12.81,2.55-17.73,3-35.34,6.65-52.95,10.25-27.76,5.67-55.51,11.34-83.35,16.61-25.51,4.83-51.06,9.53-76.59,14.28-1.96,.36-3.83,1.17-5.87,1.14-.72,0-1.14,.42-1.54,.96-.64,.88-1.36,1.71-1.98,2.6-1.09,1.57-2.53,2.47-4.41,2.93-9.71,2.38-19.55,4.09-29.4,5.75-12.81,2.17-25.45,5.13-38.22,7.49-6.43,1.19-12.89,2.18-19.39,2.91-2.06,.23-3.81-.2-4.77-2.28-.54-1.17-1.47-1.46-2.69-1.3-10.27,1.31-20.55,2.52-30.81,3.9-12.51,1.68-25.01,3.44-37.5,5.25-13.03,1.88-26.04,3.88-39.07,5.77-12.04,1.75-24.1,3.38-36.14,5.14-12.76,1.86-25.5,3.85-38.25,5.72-8.8,1.29-17.59,2.81-26.54,2.53-1.54-.05-3.07-.13-4.61-.38-5.36-.86-8.32-4.2-9.52-9.23-2.06-8.66-3.29-17.49-4.82-26.25-2.13-12.16-4.59-24.27-6.29-36.51-1.38-9.98-2.79-19.96-4.14-29.95-1.7-12.6-3.74-25.15-5.8-37.69-.32-1.97-.63-3.95-.91-5.92-.2-1.41-.79-2.35-2.36-2.53-.89-.1-1.78-.38-2.62-.71-2.12-.81-3.48-2.31-3.75-4.61-.51-4.23-.97-8.48-1.44-12.72-1.04-9.39-2.75-18.68-4.13-28.02-1.67-11.32-3.3-22.64-4.72-33.99-.33-2.61-.69-5.23-1.31-7.79-.73-3.01,0-5.59,2.35-7.31,2.09-1.52,1.94-3.2,1.52-5.23-1.7-8.18-3.5-16.34-4.93-24.57-1.67-9.58-2.91-19.21-4.13-28.85-1.21-9.55-2.45-19.09-3.57-28.65-1.07-9.11-2.08-18.22-2.98-27.35-1.11-11.2-2.16-22.42-3.11-33.64-.94-11.04-2.24-22.04-3.47-33.05-.8-7.22-1.65-14.43-2.48-21.65-.03-.27-.08-.54-.1-.81-.56-5.83,.13-6.67,5.82-7.78,18.99-3.72,38.18-6.21,57.36-8.62,15.4-1.94,30.83-3.68,46.25-5.51,1.59-.19,3.27,.08,4.88-.84Zm265.97,422.06c-.19-1.79-.3-3.32-.53-4.83-1.14-7.54-2.34-15.08-3.46-22.62-3.12-20.93-6.7-41.78-10.16-62.66-2.78-16.75-5.48-33.52-7.85-50.34-2.23-15.83-4.28-31.68-6.22-47.54-2.02-16.49-4.24-32.97-6.3-49.46-1.94-15.5-3.8-31.01-5.95-46.48-3.63-26.09-8.39-52-12.5-78.01-2.24-14.17-4.53-28.33-6.75-42.51-.23-1.44-.75-2.55-1.94-3.42-7.88-5.73-16.08-10.91-24.98-14.97-2.25-1.03-4.23-1.01-6.52-.16-9.22,3.42-18.62,6.26-28.37,7.66-5.08,.73-10.41,1.55-14.54-2.96-.09-.1-.34-.05-.58-.07-2.36,2.58-4.74,5.2-7.14,7.8-.93,1-1.29,2.13-1.1,3.5,.93,6.56,1.67,13.16,2.78,19.69,3.52,20.78,6.66,41.61,8.94,62.56,2.18,19.95,4.97,39.83,7.32,59.77,1.94,16.51,3.82,33.02,5.84,49.52,1.83,14.96,3.71,29.92,5.75,44.86,1.94,14.22,4.17,28.39,6.2,42.6,2.46,17.17,4.64,34.38,6.77,51.59,2.31,18.66,4.54,37.33,7.5,55.89,1.75,10.97,2.64,22.15,7.15,32.54,1.13,2.61,1.47,3.13,4.09,2.93,9.97-.78,19.87-2.01,29.68-3.98,13.71-2.75,27.42-5.49,41.13-8.22,3.82-.76,7.69-1.3,11.73-2.68Zm-27.46-239.22c19.44-3.81,38.88-6.91,58.34-9.94,19.46-3.04,38.93-6.09,58.42-8.94,19.58-2.86,39.18-5.64,58.81-8.15,19.5-2.49,39.05-4.61,58.22-6.85,.61-1.03,.43-1.56,.35-2.1-1.26-8.17-3.14-16.22-5.01-24.27-3.54-15.31-6.05-30.82-8.3-46.37-.17-1.14-.19-2.35-.87-3.1-2.32,0-4.41,.06-6.49-.01-8.77-.31-17.21-7.7-18.7-16.35-2.01-11.65,4.88-24.75,15.77-29.68,1.77-.8,2.16-1.67,1.87-3.52-2.52-16.05-4.85-32.14-7.42-48.18-1.65-10.31-3.63-20.56-5.41-30.85-.29-1.7-1.06-2.27-2.78-2.08-3.52,.38-7.07,.46-10.59,.88-11.36,1.33-22.71,2.76-34.06,4.15-17.13,2.11-34.15,4.85-51.14,7.89-24.22,4.33-48.41,8.8-72.83,11.9-.75,.1-1.66,.01-2.07,.93,.36,.84,1.17,1.16,1.82,1.62,3.05,2.15,5.95,4.48,8.76,6.93,16.56,14.44,30.32,31.28,42.69,49.35,16.72,24.41,25.3,51.52,27.07,80.91,.23,3.8,.28,7.63-.41,11.42-.46,2.52-1.19,4.89-3.95,5.68-2.73,.78-4.73-.69-6.4-2.65-1.41-1.66-2.79-3.35-4.1-5.09-10.11-13.41-21.69-25.43-34.13-36.67-.83-.75-1.53-1.83-2.86-1.83-.65,.99-.4,2.01-.34,2.98,.18,3.08,.42,6.16,.68,9.24,1.09,13.23,1.81,26.47,1.46,39.75-.03,1.09-.13,2.18-.3,3.25-.38,2.34-1.12,4.48-3.82,5.06-2.06,.44-3.93-.74-5.43-3.68-1.4-2.75-2.65-5.58-3.86-8.42-8-18.74-16.78-37.09-27.1-54.67-10.42-17.74-22.69-34-38.24-47.62-.78-.69-1.39-1.71-2.7-1.73-.36,.63-.13,1.24-.02,1.85,.98,5.36,2,10.71,2.9,16.08,3.45,20.51,6.86,41.02,10.29,61.53,.52,3.11,.55,3.08,3.74,3.27,8.85,.53,15.18,4.8,18.36,13.1,3.16,8.26,2.05,15.88-4.48,22.32-2.54,2.5-5.38,4.62-8.34,6.57-1.65,1.09-2.25,2.34-1.99,4.31,1.17,8.82,2.18,17.66,3.36,26.48,.22,1.66,.02,3.47,1.25,5.31Zm-125.79-157.55c-1.34,1.08-1.86,2.37-2.49,3.54-9.59,17.84-17.13,36.49-22.08,56.17-5.63,22.4-7.87,45.24-9.21,68.22-.38,6.53-.75,13.06-1.18,19.59-.11,1.63-.39,3.26-1.03,4.78-1.43,3.36-4.71,4.19-7.56,1.93-1.45-1.15-2.44-2.69-3.41-4.22-3.65-5.77-6.74-11.85-9.65-18.01-8.05-17.04-13.73-34.79-15.71-53.61-.06-.61-.02-1.31-.81-1.61-.99,.43-1.32,1.44-1.85,2.25-3.5,5.43-6.61,11.08-9.53,16.84-6.78,13.33-11.91,27.3-16.31,41.56-.8,2.6-1.59,5.22-2.81,7.67-.94,1.89-2.27,3.43-4.56,3.33-2.41-.11-3.64-1.81-4.38-3.92-.91-2.59-1.32-5.29-1.64-7.99-1.42-11.95-1.5-23.92-.71-35.92,.86-13.08,2.58-26.03,5.62-38.78,6.49-27.23,16.77-52.78,33.83-75.28,.47-.63,1.16-1.19,1.02-2.08-.23-.41-.59-.49-.95-.52-6.72-.57-13.3-1.89-19.79-3.7-1.43-.4-2.9-.32-4.33-.05-7.95,1.51-16.03,2.06-24.04,3.09-12.7,1.64-25.43,3.01-38.13,4.59-13.78,1.72-27.56,3.53-41.33,5.36-5.04,.67-10.06,1.48-15.09,2.27-2.72,.43-2.97,.83-2.59,3.62,.17,1.26,.3,2.53,.47,3.78,2.3,16.82,4.5,33.66,6.01,50.58,1.34,15.01,2.81,30.02,4.33,45.01,.25,2.47,.1,5.06,1.23,7.45,1.05-.06,1.94-.16,2.84-.16,.91,0,1.83,0,2.71,.19,10.31,2.16,17.74,7.96,21.23,17.97,3.78,10.87,1.53,23.43-10.5,30.54-2.66,1.57-5.34,3.16-8.34,3.97-1.41,.38-1.68,1.18-1.49,2.41,.23,1.44,.45,2.87,.67,4.31,1.82,11.85,4.65,23.51,6.82,35.3,.11,.62,.13,1.28,1.04,1.71,.33-.04,.87-.07,1.39-.18,14.22-3.08,28.64-4.84,43.07-6.58,17.49-2.1,34.9-4.83,52.36-7.14,2.7-.36,2.65-.4,2.82-2.94,.45-6.88,3.32-12.58,8.57-17.03,2.71-2.29,5.87-3.53,9.48-3.64,6.32-.19,10.9,2.9,14.65,7.59,2.05,2.57,3.6,5.45,5.04,8.4,1.37,2.81,1.38,2.87,4.3,2.56,6.86-.73,13.73-1.46,20.57-2.3,12.17-1.5,24.3-3.22,36.39-5.26,5.37-.91,10.74-1.85,16.1-2.83,2.01-.37,2.23-.77,1.98-2.8-.18-1.44-.37-2.88-.6-4.32-2.02-12.46-4.72-24.79-6.09-37.36-1.03-9.48-2.36-18.92-3.5-28.38-.86-7.12-1.57-14.26-2.47-21.38-1.26-10-2.9-19.96-3.91-29.98-1.43-14.1-3.11-28.16-5.2-42.17-.3-2.03-.08-4.18-1.24-6.44Zm159.51,391.83c1.86-.5,3.41-.98,4.98-1.33,17.38-3.83,34.91-6.92,52.38-10.33,10.96-2.14,21.92-4.31,32.89-6.38,1.73-.33,2.39-1.09,2.59-2.84,.68-5.99,2.79-11.46,6.68-16.14,3.53-4.25,8.08-6.84,13.56-7.31,12.1-1.05,21,4.48,27.58,14.18,.98,1.44,1.83,1.72,3.31,1.41,5.51-1.15,11.03-2.27,16.55-3.38,17.35-3.51,34.68-7.17,52.13-10.19,5.01-.87,10.02-1.76,15.04-2.53,1.6-.25,2.28-.9,2.01-2.51-.08-.45-.07-.91-.13-1.36-1.1-7.37-1.56-14.82-1.98-22.24-.67-11.8-2.03-23.52-3.6-35.22-1.66-12.33-3.44-24.64-5.23-36.95-1.43-9.79-3.13-19.55-5.11-29.24-.57-2.77-.81-2.83-3.71-2.45-6.48,.86-12.97,1.68-19.45,2.47-11.18,1.37-22.35,2.71-33.49,4.35-.62,.09-1.29,.06-1.65,.57,0,1.81-.02,3.52,0,5.24,.05,2.74,0,5.46-1.07,8.04-3.53,8.49-9.54,14.36-18.5,16.72-13.95,3.68-28.93-4.92-33.19-18.81-.31-1.01-.27-2.18-1.15-3.02-2.31-.22-4.51,.45-6.73,.83-19.78,3.43-39.45,7.39-59.15,11.24-18.09,3.53-36.11,7.42-54.06,11.65-2.91,.69-2.94,.71-2.55,3.59,2.33,17.01,5.12,33.94,7.99,50.86,3.91,23.1,7.6,46.24,11.19,69.39,.59,3.83,1.23,7.66,1.87,11.68Zm-197.21,30.74c.14-.52,.23-.7,.22-.87-.01-.36-.07-.72-.11-1.08-1.13-9.56,2.25-17.08,10.22-22.49,3.45-2.34,7.33-3.65,11.44-4.13,9.04-1.06,18.56,2.02,23.42,12.22,1.14,2.39,2.11,4.84,2.69,7.41,.37,1.62,1.14,1.98,2.7,1.75,4.76-.71,9.53-1.32,14.3-1.92,8.83-1.11,17.66-2.21,26.49-3.24,1.71-.2,2.2-.97,1.82-2.54-.13-.53-.11-1.09-.24-1.62-4.46-18.41-6.07-37.25-8.57-55.97-1.79-13.41-3.74-26.79-5.71-40.18-1.85-12.57-4.19-25.07-5.77-37.69-.2-1.58-.77-2.35-2.43-2.03-.71,.14-1.43,.23-2.15,.35-9.03,1.57-18.04,3.33-27.13,4.55-14.03,1.87-28.16,3.05-42.12,5.51-7.51,1.32-15.07,2.35-22.6,3.57-2.65,.43-2.8,.67-2.38,3.16,1.53,9.09-1.43,16.52-8.51,22.24-8.7,7.04-18.69,9.1-29.49,6.54-9.22-2.19-16.21-7.53-20.6-16.06-1.09-2.11-1.55-4.42-2.14-6.65-1.27-.54-2.44-.24-3.59-.07-8.98,1.35-18.03,2.1-27.06,3.08-7.13,.77-14.27,1.48-21.33,2.77-3.13,.57-3.23,.7-2.64,3.95,2.55,14.12,4.88,28.27,6.75,42.5,1.53,11.7,2.96,23.42,4.94,35.06,2.98,17.54,6.12,35.06,9.19,52.59,.63,3.58,1.95,4.9,5.55,5.18,3.44,.26,6.91,.24,10.35-.12,7.59-.77,15.13-1.97,22.65-3.2,24.01-3.95,48.09-7.42,72.17-10.89,3.21-.46,6.49-.69,9.65-1.7Zm174.36-176.31c1.32,.55,2.26,.11,3.23-.11,10.9-2.43,21.85-4.6,32.82-6.71,16.32-3.13,32.72-5.73,49.09-8.56,15.02-2.6,30.05-5.21,45.09-7.71,16.47-2.74,32.99-5.17,49.55-7.33,12.96-1.69,25.9-3.5,38.84-5.32,4.49-.63,9.03-1.19,13.41-2.31,4.85-1.24,4.67-1.23,4.58-5.86-.1-5.82-.87-11.59-1.67-17.34-2.28-16.46-3.57-33.03-5.37-49.54-.22-2.02-.11-4.16-1.35-6.06-1.95,.37-3.8,.84-5.67,1.06-11.08,1.33-22.18,2.58-33.26,3.92-13.7,1.66-27.4,3.3-41.07,5.12-15.02,2-30.03,4.17-45.03,6.34-15.27,2.21-30.54,4.44-45.79,6.77-15.88,2.42-31.75,4.94-47.61,7.47-6.01,.95-12,1.98-17.98,3.07-2.32,.42-2.47,.72-2.21,2.87,1.05,8.47,2.11,16.94,3.18,25.4,1.76,13.96,3.5,27.93,5.33,41.88,.56,4.31,.96,8.64,1.88,12.94Zm-100.07,13.71c.5-.8,.4-1.35,.33-1.89-.66-4.67-1.35-9.34-2-14.02-1.72-12.41-3.47-24.82-5.13-37.24-1.18-8.82-2.21-17.66-3.32-26.49-.28-2.22-.51-2.36-2.85-1.88-1.78,.37-3.54,.81-5.32,1.17-18.51,3.82-37.15,6.76-55.93,8.87-13.8,1.55-27.59,3.21-41.4,4.73-12.09,1.34-24.15,2.93-36.19,4.68-14.29,2.08-28.59,4.04-42.92,5.7-13.09,1.52-26.06,3.69-38.91,6.63-2,.46-2.19,.74-1.85,2.84,2.07,13,4.19,25.99,6.2,39,1.77,11.48,3.87,22.92,4.62,34.54,.17,2.59,.49,2.9,3.12,3.1,8.1,.59,16.17-.06,24.21-.79,12.65-1.16,25.26-2.8,37.91-4.08,15-1.52,29.86-4.04,44.73-6.43,11.92-1.91,23.86-3.68,35.84-5.21,9.45-1.21,18.91-2.36,28.3-4.06,13.93-2.53,27.84-5.23,41.83-7.46,2.94-.47,5.96-.62,8.75-1.72Zm45.29-303.49c1.73,.24,2.81-.32,3.91-.71,33.11-11.85,64.33-27.44,93.34-47.35,19.59-13.45,36.61-29.54,50.13-49.18,4.65-6.75,8.9-13.72,12.15-21.27,2.91-6.76,4.81-13.68,4.39-21.12-.24-4.31-1.44-7.96-4.68-11.19-12.18-12.12-24.74-23.84-37.02-35.86-12.48-12.22-25.81-23.49-39.59-34.22-.74-.57-1.4-1.39-2.52-1.31-.3,.64-.12,1.17-.09,1.71,.47,9.82,.56,19.61-.88,29.38-3.97,26.92-14.74,50.59-33.32,70.62-18.78,20.24-40.99,36.28-63.6,52.24,6.99,9.8,11.19,20.99,14.22,32.64,3.03,11.62,5.29,23.37,3.56,35.62Zm-229.25-153.6c-.97,.68-1.1,1.83-1.47,2.82-7.86,21.4-15.69,42.82-23.52,64.23-3.24,8.87-6.4,17.78-9.7,26.63-1.41,3.8-.98,7.21,1.15,10.63,3,4.79,6.29,9.35,10,13.6,7.18,8.24,14.95,15.88,23.36,22.86,18.38,15.28,38.73,26.66,62.37,31.51,5.32,1.09,10.64,2.4,16.15,.9,1.63-.45,3.02-1,4.22-2.26,16.43-17.28,36.06-29.79,58.06-38.74,4.04-1.64,8.14-3.14,12.33-4.36,1.35-.39,2.05-1.04,1.52-2.56-2.56-7.36-5.09-14.74-7.58-21.98-.74-.45-1.39-.33-2.02-.31-7.3,.28-14.52-.43-21.67-1.9-14.8-3.04-28.73-8.49-42.07-15.47-25.51-13.34-47.28-31.17-64.54-54.3-6.78-9.08-12.37-18.83-15.58-29.8-.18-.6-.24-1.27-1.02-1.51Zm40.03,330.95c.98-1.01,1.12-1.92,1.41-2.76,1.8-5.24,3.46-10.53,5.45-15.7,6.55-17.02,14.6-33.26,25.35-48.07,.8-1.1,1.56-2.25,2.62-3.13,2.32-1.9,5.12-1.09,6.11,1.71,.4,1.14,.4,2.32,.39,3.5-.05,4.65,.58,9.25,1.3,13.82,3.27,20.81,10.89,40.06,21.02,58.4,.42,.76,.66,1.71,1.77,2.14,.5-1.11,.6-2.28,.64-3.44,.23-6.81,.68-13.6,1.11-20.4,.78-12.51,2-24.97,3.86-37.37,4.31-28.77,13.53-55.89,27.46-81.41,4.28-7.84,9.14-15.3,15.51-21.64,3.04-3.03,5.59-6.45,8.29-9.76,.8-.99,1.07-1.99,.9-3.27-1.19-9.39-3.05-18.63-5.6-27.74-.26-.93-.32-2-1.54-2.63-4.01,1-7.95,2.65-11.89,4.26-34.5,14.11-61.71,36.65-79.47,69.74-19.47,36.27-27.2,75.23-25.65,116.18,.09,2.38-.02,4.86,.98,7.56Zm179.1-164.94c.58,1.1,1.42,1.3,2.14,1.66,13.98,6.85,26.49,15.84,37.93,26.34,15.75,14.47,28.06,31.62,38.57,50.14,8.53,15.03,16.05,30.56,22.91,46.41,.4,.94,.54,2.1,1.65,2.7,.58-1.08,.34-2.09,.31-3.07-.09-2.72-.28-5.44-.39-8.17-.3-7.62-.85-15.23-1.5-22.83-.4-4.61-.98-9.22-.72-13.87,.3-5.39,4.18-7.53,8.86-4.85,2.14,1.23,3.98,2.86,5.82,4.49,12.95,11.48,24.98,23.83,35.34,37.74,.54,.72,.9,1.76,2.37,1.88,0-1.04,0-1.93,0-2.83-.02-5.92-.73-11.78-1.62-17.62-3.1-20.48-9.91-39.59-21.01-57.13-6.28-9.92-13.19-19.37-20.7-28.4-8.33-10.01-17.26-19.44-27.41-27.63-5.38-4.34-11.05-8.26-17.59-10.77-1.33-.51-2.38-.4-3.6,.17-4.68,2.2-9.37,4.41-14.11,6.48-12.16,5.31-24.44,10.37-37.31,13.67-3.9,1-6.79,3.18-9.94,5.45Zm2.69-21.13c.2-4.02-.39-7.97-1.07-11.92-1.97-11.42-5.07-22.51-9.89-33.07-2.12-4.65-4.67-9.04-8.24-12.77-3.93-4.11-8.58-5.62-14.12-3.99-1.31,.38-2.63,.73-3.9,1.22-8.92,3.47-17.41,7.81-25.42,13.04-5.18,3.38-5.32,3.97-3.19,9.8,7.38,20.12,13.24,40.59,14.22,62.17,.08,1.73,.89,2.22,2.43,2.01,.45-.06,.9-.12,1.35-.19,11.3-1.58,22.23-4.59,32.91-8.52,3.24-1.19,6.37-2.65,9.4-4.32,3.51-1.93,5.24-4.93,5.49-8.84,.1-1.54,.02-3.09,.02-4.63Zm-144.02,343.42c0-.73,.05-1.46,0-2.18-.29-3.28-.59-3.49-3.82-3.07-10.35,1.33-20.71,2.63-31.06,3.99-3.87,.51-7.73,1.08-11.58,1.69-2.08,.33-2.4,.93-1.83,3.01,.51,1.86,1.44,3.54,2.55,5.09,10.55,14.72,31.89,13.76,41.9,2.21,2.67-3.08,4.06-6.63,3.85-10.74Zm377.89-65.74c-1.04-.39-1.66-.22-2.29-.13-4.22,.62-8.45,1.19-12.66,1.84-7.8,1.2-15.6,2.41-23.4,3.68-2.8,.46-3.02,.93-1.93,3.59,1.33,3.24,3.3,6.06,5.86,8.44,10.26,9.54,25.68,7.24,32.62-4.86,2.27-3.95,2.76-8.15,1.79-12.56Zm-516.68-113.9c1.56,13.88,3.21,27.52,5.08,40.96,1.1,.48,1.73,.04,2.35-.3,1.83-1.01,3.69-1.97,5.45-3.09,7.11-4.53,9.93-11.05,8.7-19.34-1.49-10.06-11.1-18.36-21.57-18.24Zm212.58,304.73c.02-2.37-1.21-4.21-2.16-6.12-3.63-7.32-8.6-10.13-16.67-9.54-9.58,.7-16.87,8.17-16.95,17.37-.03,3.32,.53,3.79,3.78,3.3,7.98-1.19,15.98-2.3,23.95-3.55,2.66-.42,5.4-.47,8.05-1.46Zm334.97-408.64c-.83-.13-1.39,.21-1.9,.57-5.91,4.21-9.7,9.77-10.5,17.08-1.12,10.38,7.96,16.98,15.23,16.14,2.6-.3,2.98-.66,2.58-3.2-1.5-9.5-3.03-18.99-4.56-28.48-.11-.71-.26-1.43-.86-2.11Zm-44.93,357.32c.1-.97-.17-1.34-.47-1.67-3.53-3.89-7.61-6.98-12.7-8.57-2.54-.79-5.11-1.2-7.78-.75-7.73,1.3-14.1,8.79-14.53,17.13,0,.14,.18,.29,.52,.8,11.59-2.3,23.35-4.64,34.96-6.94Zm-173.86-249.09c3.65-2.55,6.82-5.07,9.06-8.57,1.1-1.72,1.64-3.62,1.74-5.65,.38-7.95-4.45-14.22-12.3-15.95-2.92-.65-3.45-.14-3.01,2.78,1.05,6.99,2.02,13.99,3.15,20.96,.33,2.02,.17,4.16,1.36,6.44Zm-208.01,71.27c8.66-.99,17.14-1.96,25.7-2.94-1.31-4.14-5.28-9.56-8.23-11.43-2.69-1.7-5.52-2.22-8.57-.97-4.93,2.02-9.37,9.33-8.9,15.35Zm149.15-302.43c0-.07,0-.16-.03-.2-.04-.05-.16-.09-.2-.06-.17,.11-.16,.24,.02,.32,.05,.02,.14-.04,.2-.06Z"/><path d="M593.74,885.94c-1.43-.11-2.45-.46-2.92-1.6-.49-1.18-.38-2.45,.64-3.23,2.42-1.83,5.23-2.83,8.25-3.06,1.14-.09,2.12,.55,2.49,1.73,.36,1.11,.2,2.28-.78,2.95-2.4,1.66-5.15,2.52-7.68,3.21Z"/><path d="M596.51,897.21c-2.06,0-3.43-.95-3.63-2.51-.18-1.43,.76-2.69,2.62-3.3,1.8-.59,3.61-1.19,5.53-1.25,1.95-.06,3.09,.62,3.41,1.98,.35,1.49-.4,2.83-2.21,3.55-1.84,.73-3.68,1.5-5.72,1.53Z"/><path d="M592.2,859.78c.16-1.87,1.87-2.61,3.56-3.25,1.8-.68,3.65-1.94,5.58-.35,1.28,1.05,1.3,2.89-.11,4-1.78,1.4-3.87,2.36-6.13,2.63-1.86,.23-2.99-.94-2.9-3.03Z"/><path d="M743.8,505.15c.06-6.49,1.79-11.45,5.15-15.86,1-1.31,2.17-2.45,3.61-3.27,2.42-1.37,3.48-1.33,5.51,.63,.85,.82,1.62,.66,2.47,.38,1.73-.57,3.48-.94,5.32-1.04,3.25-.18,5.81,1.09,7.97,3.41,7.49,8.08,6.44,22.85-2,29.94-7.65,6.43-22.08,4.95-26.75-7.4-.94-2.49-1.39-5.07-1.28-6.8Zm6.27-.77c-.1,2.18,.52,4.8,2.01,7.17,3.7,5.93,11.86,6.78,16.61,1.73,4.24-4.5,4.9-12.87,1.43-17.98-1.83-2.69-3.31-3.31-6.47-2.46-2.89,.77-5.68,2.12-8.61,2.45-3.3,.37-4.15,2.29-4.63,4.97-.21,1.17-.3,2.33-.34,4.12Z"/><path d="M797.99,624.46c-1.18-.09-2.37-.08-3.52-.28-11.03-1.91-16.28-10.97-12.33-21.48,2.46-6.56,7.05-11.33,13.14-14.73,2.63-1.47,5.59-1.41,8.43-1.93,.82-.15,1.61,.27,2.34,.62,2.53,1.24,4.99,2.6,7.35,4.14,5.73,3.74,7.54,9.1,6.35,15.59-1.99,10.84-10.72,18.01-21.75,18.07Zm15.7-21.22c.03-2.74-.72-4.39-2.82-6.19-1.73-1.48-3.75-2.56-5.63-3.83-2.11-1.42-4.36-1.5-6.47-.4-5.93,3.1-10.01,7.8-11.39,14.47-.87,4.21,1,7.66,4.75,9.42,9.61,4.52,21.46-2.89,21.56-13.48Z"/><path d="M373.22,564.33c-.18,4.76-1.32,9.26-4.07,13.31-8.07,11.88-23.98,12.16-32.53,.58-3.74-5.06-4.86-10.77-3.95-16.8,1.31-8.67,5.83-15.36,13.56-19.67,2.36-1.32,4.88-2.3,7.05,.54,.55,.72,1.51,.46,2.32,.44,7.73-.22,11.99,2.52,14.96,9.65,1.59,3.81,2.52,7.76,2.65,11.96Zm-19.99,15.73c5.43-.05,10.43-4.07,12.54-10.08,1.71-4.88,1.04-9.64-.76-14.34-2.08-5.43-4.55-7.02-10.32-6.66-1.91,.12-3.82,.29-5.37-1.24-.88-.87-1.67-.19-2.42,.32-5.78,4-9.38,13.12-7.91,19.99,1.49,6.94,7.56,12.06,14.24,12Z"/><path d="M717.74,836.72c-11.08-.12-19.95-7.12-22.09-17.45-1.76-8.48,3.16-19.37,10.69-23.69,1.71-.98,3.49-1.51,5.48-1.12,2.77,.54,5.59,.76,8.39,.82,15.42,.34,24.5,16.49,16.57,30.39-4.12,7.22-10.54,11.09-19.04,11.04Zm-4.83-35.68c-1.69-.09-3.46-.67-4.93,.72-4.17,3.94-6.59,8.75-6.2,14.52,.48,6.96,5.67,12.14,13.13,13.7,6.51,1.36,13.11-1.66,16.31-7.65,4.97-9.29-.41-19.01-9.4-20.3-2.97-.43-5.93-.77-8.92-.99Z"/><path d="M851.21,821.29c-3.89-.03-6.98-.7-9.92-2.01-8.81-3.91-12.73-12.75-9.63-21.87,1.81-5.33,5.15-9.55,9.73-12.8,.37-.26,.87-.4,1.14-.73,2.41-2.91,5.39-2.4,8.47-1.48,3.04,.91,6.11,1.72,9,3.1,8.62,4.13,11.78,12.02,11.05,18.97-.88,8.33-7.07,14.61-15.64,16.33-1.61,.32-3.22,.55-4.2,.51Zm13.42-18.35c-.12-4.78-2.18-8.23-5.96-10.67-2.78-1.79-5.89-2.83-9.04-3.71-1.96-.55-3.81,0-5.37,1.27-3.54,2.91-6.06,6.49-7,11.06-.95,4.59,.51,8.35,4.32,10.94,5.32,3.61,11.05,3.97,16.78,1.01,4.02-2.08,6.13-5.55,6.26-9.89Z"/><path d="M852.17,863.26c.03,1.7-.37,2.93-2,3.34-1.45,.37-2.87-.3-3.41-1.99-1.29-4.06-2.61-8.12-3.15-12.37-.1-.81-.1-1.64,.19-2.42,.75-2.05,3.08-2.54,4.62-.99,.46,.46,.79,1.01,.93,1.64,.93,3.97,1.85,7.95,2.76,11.93,.08,.35,.06,.72,.07,.87Z"/><path d="M874.98,860.4c0,1.74-.41,2.99-2,3.43-1.47,.41-2.95-.28-3.43-1.93-1.09-3.74-2.1-7.53-2.35-11.43-.13-2.05,.82-3.2,2.38-3.37,1.6-.18,2.83,.71,3.25,2.62,.8,3.63,1.48,7.29,2.16,10.68Z"/><path d="M862.41,863.54c-.07,1.25-.66,2.21-1.88,2.7-1.3,.52-2.49,0-3.07-1.07-1.98-3.67-3.73-7.46-4.02-11.71-.09-1.36,.4-2.55,1.88-2.93,1.39-.36,2.66,.08,3.19,1.4,1.46,3.61,2.76,7.28,3.84,11.02,.05,.17,.03,.36,.05,.59Z"/><path d="M414.42,910.38c-2.51,.03-5.37-.35-8.15-1.33-10.44-3.69-15.76-13.7-12.85-24.39,1.45-5.34,4.4-9.72,8.78-13.12,1.39-1.09,2.95-1.96,4.71-1.93,3.47,.06,6.86-.62,10.31-.8,7.69-.41,17.33,5.23,20.17,12.39,3.15,7.95,1.17,15.26-4.32,21.49-4.75,5.4-11.03,7.79-18.64,7.68Zm.75-6.42c5.12-.08,9.7-1.67,13.16-5.52,3.61-4.01,5.26-8.77,3.49-14.1-1.69-5.07-9.43-9.74-14.81-9.26-2.26,.2-4.52,.7-6.77,.62-4.1-.14-6.62,1.94-8.52,5.23-.77,1.34-1.46,2.71-1.94,4.19-2.54,7.94,1.07,15.12,8.95,17.79,2.08,.71,4.21,1.11,6.43,1.03Z"/><path d="M513.8,866.14c-8.5-.06-13.83-6.57-12.45-15.14,.84-5.17,3.11-9.64,6.49-13.58,2.19-2.56,4.56-2.86,7.4-.99,.85,.56,1.8,.83,2.75,1.14,2.15,.71,4.36,1.3,6.43,2.22,4.83,2.15,7.23,6.57,6.34,11.74-1.25,7.31-8.59,14.98-16.97,14.61Zm-6.35-13.76c-.07,5.46,3.65,8.4,8.49,7.04,4.05-1.13,6.73-3.85,8.09-7.78,.97-2.79,.13-4.86-2.57-6.04-2.65-1.16-5.43-2.01-8.17-2.98-1.19-.42-2.08-.09-2.75,1.03-1.71,2.84-2.91,5.83-3.09,8.73Z"/><path d="M701.41,311.09c1.32-4.5,1.8-9.7,3.7-14.55,.78-1.99,2.24-2.79,3.76-2.27,1.38,.48,2.28,2.03,1.82,3.82-1.22,4.74-2,9.6-3.57,14.25-.06,.17-.1,.35-.17,.52-.79,1.79-2.09,2.57-3.6,2.16-1.38-.37-2.09-1.6-1.94-3.94Z"/><path d="M732.68,314.06c-.48,3.74-1.34,7.9-2.43,12.01-.46,1.72-1.79,2.45-3.27,2.19-1.45-.26-2.4-1.39-2.12-3.26,.66-4.38,1.49-8.73,2.4-13.06,.37-1.74,1.77-2.64,3.12-2.42,1.39,.23,2.21,1.37,2.29,3.23,.01,.27,0,.54,0,1.3Z"/><path d="M720.09,304.64c-.11,.43-.25,1.24-.51,2-1.08,3.18-2.19,6.35-3.29,9.52-.09,.26-.2,.51-.31,.75-.94,2-2.27,2.85-3.74,2.41-1.58-.47-2.31-2.07-1.61-4.32,1.18-3.81,2.53-7.57,3.87-11.33,.45-1.26,1.3-2.21,2.74-2.35,1.56-.15,2.83,1.18,2.86,3.33Z"/><path d="M379.65,454.22c-1.89,.03-2.89-1-2.89-2.71,0-1.27,.66-2.24,1.42-3.15,2.43-2.93,4.89-5.84,7.34-8.76,.23-.28,.48-.55,.75-.79,1.5-1.33,2.99-1.51,4.16-.53,1.1,.92,1.37,2.71,.3,4.22-2.74,3.84-5.71,7.51-9.06,10.84-.59,.59-1.35,.91-2.01,.88Z"/><path d="M362.5,443.81c0-1.03,.37-1.95,.81-2.85,1.82-3.66,4.11-7.04,6.42-10.39,.35-.51,.81-1,1.33-1.33,1.07-.7,2.23-.76,3.31,0,1.02,.72,1.21,1.8,.91,2.92-.2,.77-.57,1.53-.98,2.22-2,3.34-4.02,6.67-6.07,9.98-.38,.61-.85,1.19-1.39,1.65-.91,.77-2.01,.82-3.06,.31-1.02-.49-1.29-1.45-1.28-2.51Z"/><path d="M365.63,421.3c.01,.94-.35,1.77-.83,2.55-1.85,3-3.72,6-5.59,8.99-.24,.38-.53,.74-.84,1.06-1.03,1.07-2.25,1.58-3.66,.84-1.44-.76-1.52-2.13-1.3-3.54,.06-.35,.18-.71,.35-1.02,1.94-3.69,4.3-7.12,6.75-10.48,.89-1.22,2.21-1.58,3.64-1.02,1.15,.45,1.54,1.45,1.49,2.64Z"/></svg>