<?xml version="1.0" encoding="UTF-8"?><svg id="Layer_1" xmlns="http://www.w3.org/2000/svg" viewBox="0 0 1200 1200"><path d="M238.94,967.29c-.33-.5-.93-.51-1.4-.76-2.16-1.14-3.4-2.79-3.5-5.38-.64-16.36-.5-32.7,.35-49.06,.68-13.16,.99-26.34,1.2-39.52,.24-15.18,.6-30.35,1.31-45.52,.73-15.61,1.8-31.2,2.99-46.79,.87-11.42,1.57-22.84,2.44-34.26,1.75-23.03,4.47-45.93,8.72-68.65,8.24-44.05,18.14-87.72,31.1-130.64,9.03-29.91,17.89-59.88,28.83-89.17,8.65-23.17,18.93-45.62,29.68-67.88,8.55-17.7,20.7-32.12,36.48-43.68,7.63-5.59,15.41-10.95,23.46-15.92,15.17-9.35,30.63-18.17,46.52-26.25,4.45-2.26,8.9-4.56,13.72-5.97,1.28-.38,1.89-1.25,2.44-2.34,14.2-28.07,30.37-55.04,45.91-82.37,2.52-4.43,5.37-8.65,8.32-12.8,.75-1.05,1.59-1.93,2.73-2.59,14.43-8.28,29.71-14.43,45.91-18.25,6.46-1.52,12.96-2.62,19.66-2.59,4.71,.02,9.42-.78,14.13-.86,17.98-.3,35.42,2.76,52.35,8.83,5.82,2.09,11.7,3.98,17.34,6.54,6.59,2.99,12,7.29,15.97,13.48,6.67,10.42,12.6,21.26,18.72,31.99,10.58,18.54,21.42,36.95,30.96,56.07,1.47,2.94,3.21,4.77,6.44,5.88,6.63,2.26,12.72,5.79,18.9,9.08,18.3,9.75,36.25,20.07,53.38,31.78,7.67,5.24,14.91,11.01,21.78,17.26,6.86,6.23,12.59,13.33,17.18,21.37,8.22,14.38,15.03,29.45,21.79,44.54,12.46,27.82,22.2,56.63,31.28,85.69,10.19,32.61,20.09,65.29,27.92,98.55,6.96,29.54,13.33,59.21,18.07,89.2,2.06,13.01,3.48,26.11,4.63,39.24,1.59,18.29,2.81,36.6,4.11,54.91,1,14.14,1.86,28.29,2.45,42.45,.85,20.35,.99,40.71,1.61,61.06,.36,11.63,.94,23.25,1.38,34.87,.26,6.81,.19,13.63-.02,20.45-.11,3.45-.42,6.91-.29,10.35,.14,3.77-1.23,6.32-5.05,7.48-.17,3.6,.55,7.08,.82,10.57,.73,9.25,1.08,18.5,.88,27.78-.09,4.23-2.15,6.99-6.15,8.36-5.19,1.78-10.58,2.64-15.96,3.46-15.63,2.37-31.34,4.14-47.05,5.9-7.42,.83-14.87,.74-22.33,.71-4.87-.02-8.09-2.15-10.09-6.41-1.01-2.13-2.02-4.27-2.9-6.46-3.53-8.77-6.48-17.75-9.16-26.81-.58-1.96-1.32-3.27-3.57-3.28-1.72,0-2.81-1.04-3.56-2.54-12.12-24.01-23.84-48.21-33.5-73.34-4.57-11.88-8.2-24.07-11.8-36.26-.1-.35-.18-.7-.29-1.05-.82-2.69-.9-2.82-3.57-2.52-12.37,1.41-24.79,2.13-37.2,3.04-7.07,.52-14.15,.85-21.23,1.2-14.52,.72-29.04,1.41-43.57,2.08-5.9,.27-11.81,.51-17.71,.62-19.45,.37-38.88,1.53-58.34,1.17-.62-.01-1.28-.11-1.9,.41,.04,.3,.03,.67,.15,.99,3.65,9.44,5.62,19.34,8.03,29.12,1.58,6.44,3.21,12.86,4.85,19.28,.27,1.07,.46,2.13,.41,3.23-.06,1.44-.76,2.42-2.17,2.77-1.4,.34-2.51-.19-3.28-1.37-.56-.84-.77-1.83-1.05-2.79-3.65-12.46-6.52-25.13-9.75-37.7-.97-3.76-1.98-7.52-3.72-11.3-3.77,1.79-7.28,2.07-10.28-1.56-1.97,3.89-2.75,7.81-3.6,11.69-2.18,10.04-3.28,20.25-4.92,30.37-.64,3.94-1.17,7.9-1.8,11.85-.14,.89-.34,1.81-.72,2.61-.54,1.13-1.5,1.89-2.83,1.72-1.42-.18-2.28-1.1-2.53-2.49-.11-.61-.11-1.28-.01-1.9,2.39-14.78,3.76-29.73,6.97-44.38,.56-2.57,1.27-5.11,2.07-7.62,.27-.84,.81-1.66,.48-2.63-.81-.6-1.75-.34-2.63-.33-16,.3-31.99-.33-47.97-.91-6.36-.23-12.72-.4-19.08-.58-18.35-.53-36.68-1.53-55.01-2.45-13.97-.7-27.93-1.73-41.88-2.7-4.89-.34-9.76-.95-14.64-1.43-3.07-.31-3.26-.25-4.03,2.61-9.93,37.08-25.97,71.66-43.21,105.76-.45,.89-1,1.75-1.34,2.68-1.05,2.85-2.65,4.93-6.04,4.94-1.46,0-1.57,1.32-1.89,2.32-1.5,4.67-2.93,9.36-4.47,14.02-1.73,5.26-3.61,10.48-5.79,15.58-.71,1.67-1.52,3.3-2.35,4.92-1.83,3.59-4.59,5.68-8.8,5.75-5.64,.09-11.28,.35-16.9-.13-17.75-1.5-35.4-3.82-53.03-6.35-3.95-.57-7.87-1.38-11.79-2.2-1.77-.37-3.51-.95-5.21-1.57-3.56-1.29-5.4-3.95-5.5-7.67-.18-6.27-.13-12.54,.23-18.81,.35-6.17,.82-12.33,1.49-18.47,.05-.45,.12-.91-.15-1.32ZM832.22,363.73c-.38-1.18-1.27-1.72-2-2.38-5.84-5.35-12.03-10.27-18.53-14.79-14.94-10.39-30.6-19.6-46.44-28.53-8.47-4.77-16.91-9.6-25.79-13.6-2.71-1.22-2.75-1.17-4.33,1.29-17.14,26.69-38.14,49.93-62.69,69.99-12.58,10.28-25.85,19.42-40.92,25.76-8.71,3.66-17.52,7.05-26.51,9.96-1.49,.48-2.48,1.04-2.54,2.93-.2,6.27-.65,12.52-.93,18.79-.78,17.44-1.12,34.89-1.1,52.34,0,9.82-.39,19.63-.81,29.44-.88,20.52-2.2,41.03-1.99,61.58,.13,12.91,.31,25.81,.41,38.72,.18,24.18,.85,48.35,1.62,72.51,.49,15.26,1.36,30.51,1.95,45.76,.51,13.08,.9,26.16,1.18,39.25,.49,22.26,.95,44.53,1.42,66.79,.11,5.36,.21,10.72,.34,16.08,.02,.9-.09,1.86,.5,2.63,1.31,1.73,1.84,3.73,2.03,5.84,.14,1.65,1.03,2.3,2.68,2.38,5.72,.28,11.44,.65,17.17,.33,8.08-.45,16.17-.44,24.26-.7,20.07-.64,40.15-1.27,60.21-2.25,13.61-.67,27.22-1.35,40.83-2.16,17.41-1.04,34.81-2.2,52.11-4.49,11-1.46,21.83-3.6,32.35-7.32,4.11-1.45,6.86-3.33,6.88-7.97,0-.09,.05-.17,.07-.26,2.27-9.55,4.37-19.12,5.06-28.95,1.06-14.88,1.34-29.78,1.06-44.69-.25-12.93-1.55-25.76-3.91-38.47-4.2-22.6-9.96-44.83-15.59-67.1-.2-.79-.31-1.61-1.09-2.19-2.54,.89-4.72-.67-7.04-1.27-12.76-3.32-25.79-5.24-38.73-7.64-4.73-.88-9.46-1.74-14.17-2.73-2.07-.44-3.06-1.86-2.73-3.43,.31-1.52,1.88-2.41,3.87-2.18,.36,.04,.71,.17,1.07,.23,5.63,.99,11.27,1.95,16.9,2.95,12.69,2.25,25.45,4.18,37.85,7.8,.52,.15,1.04,.39,1.54-.16,.1-.99-.27-1.92-.52-2.87-2.36-8.68-4.92-17.29-7.59-25.87-6.74-21.67-13.9-43.21-19.6-65.2-6.13-23.67-10.36-47.56-9.58-72.13,.02-.52,.12-1.1-.58-1.57-1.56,.84-3.22,.47-4.9-.08-4.67-1.52-9.43-2.67-14.21-3.79-29.85-6.97-60.18-10.96-90.61-14.27-2.25-.25-4.52-.47-6.73-.95-1.8-.39-2.66-1.68-2.38-3.11,.31-1.59,1.41-2.26,2.95-2.27,1.09,0,2.19,0,3.27,.12,8.39,.92,16.79,1.81,25.18,2.83,13.34,1.63,26.65,3.47,39.87,5.86,16.23,2.93,32.45,5.98,48.38,11.43,.27-2.46,.54-4.94,.81-7.43,.93-8.49,2.17-16.93,4.02-25.27,.21-.96,.4-1.97,1.01-2.8,.77-1.04,1.78-1.58,3.07-1.24,1.27,.33,2.01,1.19,2.08,2.54,.06,1.19-.09,2.35-.3,3.52-1.86,10.19-3.26,20.45-3.97,30.79-1.22,17.71,.55,35.22,3.97,52.58,3.6,18.28,8.49,36.25,14.32,53.93,13.54,41.08,25.16,82.67,34.25,124.97,2.9,13.51,5.2,27.11,6.21,40.91,.93,12.71,.84,25.44,.51,38.16-.23,8.81-.66,17.62-1.61,26.39-1.04,9.61-3.71,18.87-6.28,28.14-.94,3.4-2.96,5.69-6.4,7.14-10.39,4.35-21.19,7.01-32.27,8.75-2.75,.43-5.57,.53-8.57,1.59,3.77,11.71,7.23,23.39,11.67,34.81,1.3-.65,2.24-1.2,3.24-1.61,8.74-3.59,17.64-6.74,26.74-9.3,1.13-.32,2.29-.6,3.45-.75,2.6-.35,4.05,.41,4.33,2.13,.26,1.6-.81,2.8-3.14,3.46-1.4,.4-2.81,.73-4.21,1.12-9.61,2.71-18.86,6.48-28.25,9.84-.3,.87,.21,1.59,.51,2.32,9.17,22.57,19.55,44.59,30.6,66.29,.62,1.22,1.42,1.69,2.76,1.7,3.09,.03,6.18,.23,9.26,.3,15.8,.38,31.36-1.88,46.86-4.56,16.2-2.8,32.38-5.7,48.56-8.63,1.82-.33,3.82-.1,5.54-1.23,.92-26.8-1.19-53.41-1.75-80.26-4.08-.27-7.74-.88-11.47-.9-6.47-.02-12.9,.55-19.3,1.27-14.79,1.67-29.56,3.62-44.33,5.46-.54,.07-1.08,.2-1.62,.16-1.7-.11-2.95-1.18-3.02-2.6-.07-1.61,.86-2.55,2.31-2.95,1.04-.29,2.13-.43,3.21-.57,10.35-1.37,20.7-2.75,31.05-4.09,8.74-1.13,17.49-2.13,26.3-2.45,5.43-.19,10.88-.26,16.15,.91,.8-1.1,.46-2.12,.45-3.09-.18-17.27-.68-34.53-1.71-51.77-.62-10.25-1.19-20.5-1.89-30.75-.97-14.05-2.07-28.09-3.07-42.14-.4-5.61-.26-4.51-4.84-5.36-9.12-1.69-18.34-2.67-27.59-3.13-10.08-.49-20.16-.48-30.22,.72-8.84,1.06-17.64,2.34-26.4,3.91-.79,.14-1.64,.15-2.44,.05-1.19-.15-1.99-.88-2.27-2.05-.28-1.19,.17-2.15,1.16-2.84,.68-.47,1.46-.69,2.28-.85,10.79-2.07,21.64-3.87,32.59-4.77,16.93-1.39,33.76-.2,50.51,2.41,1.93,.3,3.84,1.07,5.84,.68,.53-1.15,.26-2.25,.16-3.3-1.15-12.12-2.48-24.23-4.46-36.25-6.17-37.5-14.27-74.6-23.8-111.38-.22-.86-.32-1.79-1.01-2.52-1.07,0-2.19,.18-3.22-.03-6.08-1.27-12.24-1.57-18.41-1.83-10.11-.43-20.16,.12-30.16,1.64-10.71,1.63-21.15,4.35-31.41,7.81-1.11,.38-2.23,.77-3.45,.71-1.33-.06-2.26-.66-2.67-1.93-.38-1.2,.16-2.13,1.05-2.88,1-.84,2.27-1.12,3.47-1.54,15.62-5.4,31.62-8.96,48.16-9.72,8.81-.4,17.63-.3,26.4,.78,2.84,.35,5.67,.76,8.51,1.14,.39-1.37-.11-2.37-.39-3.4-8.87-32.24-18.86-64.14-29.52-95.82-10.07-29.93-22.73-58.78-37.11-86.88-3.44-6.72-7.18-13.27-12-19.14-.73-.89-1.3-2-2.65-2.4-1.64,2.3-2.51,5-3.77,7.49-2.59,5.1-5.14,10.23-7.81,15.29-1,1.89-2.61,2.45-4.05,1.79-1.39-.64-1.92-2.33-1.21-4.28,.37-1.02,.92-1.97,1.4-2.95,3.61-7.42,7.22-14.84,10.79-22.17ZM250.26,735.52c1.21,.18,2.09,.03,2.98-.13,12-2.23,24.12-3.26,36.3-3.53,16.89-.38,33.49,2.25,50.02,5.37,.53,.1,1.06,.26,1.55,.48,1.28,.59,2.04,1.56,1.77,3.03-.27,1.43-1.25,2.16-2.68,2.23-.72,.04-1.46,0-2.17-.11-3.58-.58-7.15-1.26-10.74-1.8-11.32-1.71-22.66-3.24-34.15-3.08-5.82,.08-11.63,.16-17.43,.66-8.05,.7-16.07,1.65-24.03,3.11-1.71,.31-2.33,1.12-2.4,2.67-.03,.73-.09,1.45-.14,2.18-.78,10.88-1.52,21.76-2.35,32.63-1.18,15.49-2.24,31-3.01,46.52-.77,15.43-1.23,30.88-1.36,46.33,0,.78-.31,1.64,.56,2.35,3.15-.52,6.38-.88,9.65-.94,5.65-.1,11.27,.22,16.88,.75,14.83,1.4,29.56,3.63,44.33,5.49,1.89,.24,3.79,.49,5.64,.93,1.77,.42,2.63,1.68,2.44,3.11-.2,1.41-1.44,2.42-3.15,2.47-.54,.02-1.08-.13-1.62-.2-5.94-.76-11.88-1.56-17.83-2.29-12.98-1.6-25.93-3.36-38.99-4.22-6-.4-11.94-.12-17.76,.81-.67,1.09-.48,2.11-.51,3.09-.08,2.91-.08,5.82-.19,8.72-.79,21.25-1.99,42.49-1.61,63.78,.09,4.78,.02,4.77,4.78,5.62,17.62,3.12,35.23,6.28,52.86,9.35,17.32,3.02,34.73,4.88,52.36,3.71,1.47-.1,2.48-.35,3.23-1.84,10.92-21.47,21.18-43.24,30.27-65.55,.39-.96,1.1-1.9,.71-3.12-1.82-.38-3.49-1.05-5.18-1.69-8.92-3.37-17.84-6.73-27.12-9.05-.61-.15-1.23-.37-1.77-.68-1.1-.65-1.75-1.63-1.43-2.96,.31-1.3,1.21-1.99,2.55-2.06,1.19-.06,2.34,.11,3.5,.41,10.79,2.87,21.29,6.58,31.8,11.23,4.24-11.45,7.91-23.06,11.54-34.83-3.14-.86-5.95-1.07-8.71-1.5-10.99-1.73-21.7-4.37-32-8.68-3.43-1.43-5.51-3.64-6.48-7.07-3.21-11.28-6.11-22.61-6.9-34.38-.94-13.88-1.28-27.78-1.17-41.69,.13-15.58,1.51-31.06,4.62-46.31,7.16-35.06,15.57-69.82,26.31-103.98,7-22.26,14.42-44.38,20.16-67.02,4.03-15.88,7.09-31.91,8.29-48.26,1.18-16.14-.37-32.12-2.86-48.05-.49-3.14-1.34-6.22-1.41-9.42-.03-1.57,.72-2.64,2.28-2.94,1.43-.27,2.52,.4,3.1,1.68,.44,.98,.73,2.05,.96,3.11,2.15,9.86,3.48,19.85,4.41,29.9,.07,.76-.2,1.67,.71,2.17,1.37-.55,2.69-1.14,4.05-1.61,1.37-.47,2.78-.85,4.18-1.23,19.74-5.41,39.85-8.93,60.06-11.93,14.64-2.17,29.37-3.68,44.07-5.37,1.44-.16,2.9-.18,4.35-.13,1.32,.05,2.22,.83,2.47,2.14,.28,1.46-.45,2.46-1.76,3.02-.84,.36-1.73,.5-2.65,.6-6.95,.75-13.91,1.48-20.85,2.32-16.05,1.94-32.06,4.15-47.97,7.01-13.23,2.38-26.39,5.09-39.32,8.8-2.17,.62-4.26,1.54-6.5,.52-.6,1.14-.34,2.15-.32,3.13,.36,15.69-1.22,31.21-4.18,46.61-3.67,19.11-8.99,37.79-14.72,56.37-6.02,19.52-12.55,38.89-17.89,58.61-.28,1.02-.66,2.03-.57,3.01,.94,.55,1.6,.05,2.27-.12,2.91-.71,5.79-1.53,8.71-2.21,13.63-3.16,27.5-5.04,41.23-7.64,1.69-.32,3.39-.66,5.09-.91,2.01-.29,3.57,.58,3.93,2.09,.37,1.56-.64,2.91-2.64,3.51-.52,.16-1.05,.29-1.59,.39-8.4,1.52-16.79,3.05-25.19,4.55-9.39,1.68-18.77,3.37-27.95,5.97-1.8,.51-3.52,1.48-5.37,.74-.81,.85-.88,1.78-1.11,2.65-4.2,16.08-8.09,32.23-11.78,48.42-2.95,12.94-5.34,25.97-6.6,39.2-1.35,14.15-1.27,28.33-.92,42.51,.23,9.36,.68,18.71,1.87,28.01,.99,7.77,3.2,15.28,4.61,22.95,.51,2.8,1.86,4.06,4.41,5.06,15.5,6.09,31.82,8.04,48.18,9.75,10.03,1.05,20.09,1.69,30.15,2.39,14.78,1.03,29.57,1.69,44.36,2.49,10.71,.58,21.43,.82,32.14,1.3,19.98,.89,39.97,1.28,59.95,1.91,5.1,.16,10.17-.26,15.26-.51,1.15-.06,2.37-.05,3.38-.9,.12-1.16,.21-2.34,.37-3.5,.14-1,.37-2.07,1.31-2.59,1.82-1.01,1.93-2.6,1.92-4.42-.13-24.73-1.15-49.43-1.45-74.16-.23-18.63-.72-37.27-1.73-55.87-1.09-20.15-1.89-40.31-2.44-60.48-.82-29.9-1.18-59.8-1.31-89.71-.05-12.09,.22-24.18,.82-36.26,.84-16.79,1.79-33.59,1.9-50.4,.13-20.27,.3-40.54,1.66-60.77,.29-4.26,.45-8.53,.6-12.8,.09-2.56,.02-2.54-2.48-3.42-3.85-1.36-7.71-2.72-11.55-4.12-14.48-5.27-28.44-11.62-40.96-20.73-24.57-17.87-46.25-38.71-64.36-63.17-4.27-5.77-8.43-11.62-12.32-17.67-1.34-2.08-1.41-2.13-3.71-1.13-2.25,.98-4.48,2.01-6.65,3.15-19.82,10.37-39.17,21.55-57.95,33.7-9.55,6.18-18.69,12.92-27.05,20.67-2.3,2.13-2.31,2.12-.59,4.63,3.7,5.4,7.39,10.8,11.08,16.21,.56,.82,1.21,1.61,1.46,2.6,.33,1.31,.34,2.61-.93,3.42-1.3,.83-2.64,.63-3.74-.43-.65-.62-1.18-1.38-1.7-2.12-3.47-5-6.91-10.03-10.39-15.02-.54-.78-.82-1.86-1.97-2.11-1.03,.52-1.61,1.48-2.29,2.31-4.66,5.75-8.3,12.15-11.68,18.7-10.51,20.36-20.02,41.19-28.22,62.58-15.2,39.65-27.09,80.38-38.74,121.17-.21,.74-.61,1.54-.15,2.26,.5,.37,.95,.27,1.39,.18,13.6-2.6,27.31-2.53,41.01-1.33,14.36,1.27,28.26,4.78,41.84,9.58,.95,.34,1.89,.66,2.61,1.4,.75,.77,1.12,1.67,.72,2.73-.38,1.01-1.11,1.65-2.22,1.77-.92,.1-1.81-.01-2.69-.3-1.73-.56-3.46-1.11-5.19-1.67-12.32-3.96-24.9-6.72-37.8-7.77-10.8-.88-21.61-.7-32.39,.47-3.04,.33-6,1.39-9.26,.92-.31,1.09-.6,2.04-.85,2.99-6.6,24.96-12.16,50.15-17.27,75.45-4.38,21.65-8.11,43.41-10.26,65.41-.31,3.14-.9,6.28-.69,9.69ZM517.85,211.47c-1.1,.73-1.52,1.87-2.1,2.88-5.07,8.82-10.12,17.65-15.16,26.49-10.61,18.62-21.32,37.19-31.38,56.12-1.02,1.91-1.07,3.33,.2,5.19,13.1,19.31,27.57,37.46,44.67,53.41,11.65,10.86,23.78,21.11,37.25,29.68,13.44,8.56,28.32,13.91,43.2,19.22,.48,.17,1.02,.45,1.55,.08,.63-2.23,1.25-44.24,.61-45.98-2.37,0-4.82,.14-7.25-.03-3.51-.25-5.43-2.18-5.88-5.65-.4-3.1,.02-6.17,.39-9.23,.91-7.48,2.38-14.88,3.67-22.3,.79-4.55,1.26-9.19,2.76-13.58,.4-1.17,.37-1.99-.15-3.04-1.41-2.84-2.01-5.85-1.26-8.98,.36-1.49-.12-2.4-1.39-3.14-3.3-1.92-6.54-3.94-9.84-5.84-11.71-6.75-22.64-14.48-31.66-24.7-6.57-7.45-12.55-15.33-17.72-23.8-4.85-7.95-8.88-16.26-9.84-25.73-.03-.34-.12-.73-.68-1.04Zm164.13,.02c-.14,.13-.33,.22-.39,.37-.13,.33-.26,.69-.29,1.04-.67,7.3-3.32,13.98-6.87,20.24-11.74,20.7-26.56,38.58-47.49,50.73-4.87,2.83-9.66,5.8-14.52,8.65-1.37,.8-1.91,1.77-1.46,3.35,.64,2.27,.17,4.51-.4,6.72-.42,1.62-.65,5.79-.35,7.38,2.11,11.42,4.25,22.85,5.84,34.36,.38,2.78,.68,5.6,.31,8.42-.47,3.61-2.39,5.49-6.06,5.8-1.35,.11-2.72,.03-4.08,.05-.89,.02-1.82-.25-3.01,.63v45.68c1.17,.02,2.08-.4,3-.73,5.2-1.91,10.41-3.77,15.58-5.77,12.85-4.97,24.97-11.27,36.11-19.46,28.87-21.25,52.85-47.08,72.66-76.88,1.17-1.76,1.22-3.12,.23-4.95-15.12-28.18-31.2-55.82-47.11-83.56-.44-.77-.74-1.68-1.68-2.06Zm230.91,764.48c1.41,6.81,2.13,13.21,3.05,19.58,.21,1.44,.38,2.89,.3,4.34-.07,1.43-.81,2.42-2.27,2.66-1.44,.23-2.47-.45-3.03-1.77-.25-.58-.42-1.2-.52-1.82-.58-3.68-1.07-7.37-1.7-11.03-.61-3.55-.72-7.19-1.96-10.85-3.15,.48-6.18,.65-9.26,1.8,.71,4.41,1.38,8.61,2.05,12.81,.43,2.69,.91,5.37,1.26,8.07,.26,2.01-.7,3.51-2.23,3.86-1.58,.35-2.88-.62-3.48-2.66-.21-.69-.36-1.41-.48-2.12-.94-5.64-1.87-11.28-2.8-16.93-.36-2.2-.56-2.36-2.88-2.11-1.99,.21-3.98,.4-5.95,.74-2.21,.38-4.54,.03-6.8,1.03,.07,.76,.09,1.48,.21,2.18,1.17,6.62,2.37,13.23,3.52,19.84,.2,1.16,.31,2.34,.34,3.52,.04,1.58-.81,2.64-2.33,2.91-1.55,.28-2.65-.56-3.16-1.99-.42-1.19-.69-2.44-.92-3.69-1.28-6.87-2.55-13.75-3.77-20.63-.22-1.22-.51-2.01-1.98-1.99-4.09,.04-8.18-.04-12.26-.05-.35,0-.73,.1-.9,.52-.01,.16-.08,.35-.03,.5,3.6,11.06,7.41,22.03,12.07,32.7,.52,1.19,1.29,1.58,2.52,1.59,8.73,.07,17.44-.37,26.12-1.32,11.73-1.29,23.46-2.69,35.17-4.13,7.21-.89,14.43-1.79,21.47-3.64,3.28-.86,3.44-1.11,3.5-4.48,.16-9.82-.17-19.63-.8-29.42-.12-1.84,0-3.78-.95-5.71-2.69,.5-5.36,.74-8.01,1.77,.53,4.55,1.06,8.86,1.53,13.18,.48,4.42,.97,8.85,1.31,13.28,.17,2.21-1.03,3.67-2.69,3.77-1.51,.09-2.72-1.11-3.03-3.24-.43-2.96-.75-5.94-1.09-8.92-.57-5.05-1.12-10.11-1.69-15.16-.09-.81-.16-1.89-1.25-1.76-2.56,.32-5.17,.55-7.69,1.69,1.55,7.42,2.49,14.71,3.64,21.96,.16,.99,.32,1.99,.12,2.98-.26,1.28-1.06,2.13-2.38,2.3-1.32,.17-2.32-.41-2.84-1.63-.28-.66-.47-1.37-.59-2.08-.71-4.21-1.34-8.43-2.09-12.63-.58-3.28-.76-6.65-2.04-10.1-4.09,.76-8.06,1.49-12.36,2.29Zm-625.91,.05c-4.33-.89-8.28-1.73-12.2-2.21-.78,1.08-.9,2.09-1.06,3.05-.77,4.66-1.48,9.32-2.25,13.98-.38,2.33-.72,4.67-1.27,6.96-.42,1.73-1.76,2.55-3.2,2.31-1.46-.24-2.32-1.38-2.38-3.18-.01-.45,0-.91,.08-1.36,1.18-6.98,1.95-14.03,3.45-20.95,.13-.62,.34-1.24-.19-2.06-2.42-.7-5.05-1.18-7.9-1.45-.83,2.29-.83,4.56-1.1,6.78-.76,6.22-1.4,12.45-2.16,18.67-.32,2.58-1.5,3.85-3.16,3.7-1.8-.16-2.75-1.73-2.63-4.38,0-.09,0-.18,.01-.27,.82-7.31,1.64-14.61,2.46-21.92,.14-1.24,.51-2.48,0-3.93-2.58-.52-5.13-1.34-7.8-1.35-.18,.52-.33,.77-.35,1.02-1.09,11.59-1.33,23.22-1.23,34.85,.02,2.03,.99,2.93,2.78,3.42,4.65,1.28,9.41,2,14.17,2.72,9.61,1.46,19.3,2.31,28.93,3.54,13.07,1.68,26.16,3.03,39.37,3.03,2.18,0,3.19-.71,4.04-2.68,4.25-9.95,7.72-20.19,11.23-30.41,.22-.63,.69-1.33,0-2.18-3.97,0-8.05,.09-12.11-.04-1.81-.06-2.51,.48-2.81,2.33-1.12,6.81-2.43,13.58-3.69,20.37-.25,1.34-.42,2.7-1.05,3.93-.64,1.25-1.67,1.97-3.1,1.66-1.38-.3-2.24-1.23-2.25-2.7,0-1.09,.05-2.19,.23-3.26,.78-4.56,1.7-9.11,2.39-13.68,.44-2.93,1.4-5.8,1.38-9.1-5.02-.56-9.93-1.1-14.59-1.62-.75,.8-.85,1.42-.95,2.05-.93,5.64-1.85,11.29-2.8,16.93-.18,1.07-.4,2.15-.79,3.16-.5,1.31-1.53,2.07-2.99,1.85-1.44-.21-2.2-1.22-2.42-2.59-.1-.61-.04-1.27,.06-1.9,.78-4.93,1.67-9.85,2.36-14.79,.26-1.84,1.11-3.67,.43-5.83-2.87-.55-5.75-1.19-8.8-1.35-.54,1.24-.75,2.38-.92,3.54-.76,5.21-1.5,10.42-2.3,15.63-.22,1.43-.5,2.87-.92,4.25-.46,1.48-1.59,2.23-3.16,1.95-1.44-.26-2.15-1.29-2.2-2.72-.05-1.46,.12-2.9,.32-4.34,.91-6.37,1.65-12.76,3.03-19.45ZM605.44,346.88c0-.27,.03-.55,0-.82-1.27-11.27-2.55-22.54-3.83-33.81-.13-1.11-.49-1.94-1.83-1.84-1.41,.1-1.42,1.18-1.54,2.16-1.24,10.72-2.5,21.45-3.7,32.18-.66,5.91,.59,7.13,6.51,6.6,.18-.02,.36-.04,.54-.07,3.68-.45,3.97-.78,3.85-4.41Zm-8.38-49.08c-.04,1.84,.37,3.39,1.46,4.71,.41,.5,.94,1.06,1.6,.84,1.66-.58,2.26-2.1,2.51-3.62,.24-1.45,.85-3.24-.66-4.29-1.12-.78-2.65-.6-3.95-.1-1.19,.46-.86,1.65-.95,2.46Z"/><path d="M710.81,642.84c-4.38,.62-8.63-.07-12.85-.44-21.38-1.87-42.78-3.15-64.24-2.39-6.35,.22-12.71,.47-19.02,1.39-.63,.09-1.27,.12-1.9,.08-1.83-.12-2.89-1.02-3.02-2.52-.14-1.53,.67-2.74,2.46-3.08,2.76-.52,5.56-.94,8.36-1.17,15.97-1.27,31.96-1.45,47.94-.47,12.6,.77,25.18,1.9,37.76,2.87,.8,.06,1.62,.37,2.37-.23,.28-1.06-.28-1.95-.6-2.87-1.55-4.46-3.17-8.9-4.7-13.37-1.96-5.73-1.22-7.02,4.69-8.21,7.21-1.45,14.44-2.8,21.65-4.28,1.87-.39,3.63,.01,5.38,.4,1.76,.39,2.19,2.06,2.64,3.53,1.99,6.42,3.96,12.84,5.89,19.28,9.8,32.83,21.5,65.02,32.72,97.37,1.16,3.35,2.35,6.68,3.5,10.03,1.02,2.96,.48,4.19-2.34,5.34-4.46,1.81-8.93,3.6-13.4,5.38-2.51,1-5.01,1.18-7.72,.58-2.31-.52-3.69-1.64-4.58-3.74-2.74-6.53-5.64-13-8.3-19.57-10.91-27.04-21.92-54.04-31.49-81.59-.27-.76-.44-1.58-1.19-2.33Zm62.09,96.33c.14-1.57-.43-2.54-.8-3.55-8.49-23.2-16.88-46.44-24.53-69.93-5.18-15.89-9.94-31.91-14.42-48.01q-1.01-3.63-4.75-2.65c-5.02,1.3-10.11,2.2-15.22,3.07-1.21,.21-2.52,.18-3.62,1.04,.22,1.71,1.02,3.16,1.56,4.68,10.66,30.14,21.75,60.11,33.79,89.73,3.9,9.59,7.89,19.14,11.96,28.66,.55,1.29,1.1,2.31,2.77,1.78,4.49-1.43,8.9-3.04,13.26-4.83Z"/><path d="M638.83,460.02c5.8,.13,11.61-.14,17.39,.61,2.82,.37,4.31,1.48,4.15,3.32-.16,1.8-1.6,2.71-4.42,2.43-8.87-.87-17.76-.57-26.64-.4-5.25,.1-10.5,.63-15.76,.57-1-.01-2.01,.02-2.98-.16-1.39-.26-2.27-1.15-2.27-2.63,0-1.35,.77-2.21,2.04-2.54,.87-.22,1.79-.39,2.68-.4,8.61-.07,17.2-1.09,25.83-.8Z"/><path d="M916.49,636.14c-1.99-.14-3.99-.2-5.96-.45-2.03-.25-2.97-1.27-2.94-2.9,.03-1.55,1.1-2.72,2.98-2.96,3.81-.49,7.59,.21,11.36,.63,1.62,.18,2.59,1.67,2.42,3.12-.19,1.58-1.18,2.45-2.71,2.53-1.71,.1-3.44,.02-5.16,.02Z"/><path d="M918.91,623.42c-.63-.14-1.34-.27-2.04-.46-2.53-.69-4.99-1.66-7.61-2.03-1.45-.21-2.31-1.11-2.42-2.53-.11-1.54,.76-2.57,2.14-3.15,.86-.36,1.8-.34,2.69-.21,3.08,.43,5.95,1.57,8.77,2.81,1.37,.6,2.02,1.85,1.64,3.38-.39,1.55-1.62,2.07-3.17,2.2Z"/><path d="M921.43,652.47c-2.11-.37-4.71-.72-7.25-1.32-2.12-.5-3.07-2.02-2.69-3.74,.35-1.56,1.77-2.41,3.85-2.08,2.67,.41,5.35,.87,7.97,1.5,1.79,.43,2.7,1.95,2.4,3.41-.3,1.42-1.42,2.19-3.26,2.23-.18,0-.36,0-1.03,0Z"/><path d="M723.04,855.18c.02,1.65-.57,2.62-1.74,3.15-1.24,.57-2.42,.21-3.15-.82-1.41-2-2.47-4.2-2.46-6.75,0-1.33,.73-2.23,1.94-2.66,1.15-.4,2.23-.04,2.9,.91,1.37,1.94,2.11,4.17,2.51,6.16Z"/><path d="M734.72,853.45c0,.12,0,.58-.06,1.03-.16,1.3-.81,2.22-2.15,2.46-1.31,.24-2.38-.29-2.96-1.44-.87-1.72-1.21-3.63-1.16-5.53,.04-1.35,.78-2.42,2.27-2.66,1.43-.23,2.49,.34,3.16,1.59,.7,1.31,.81,2.77,.9,4.55Z"/><path d="M491.27,637.23c2.98-.21,5.94-.38,8.9-.62,8.06-.63,16.11-1.37,24.17-1.92,6.25-.42,12.52-.74,18.78-.9,14.45-.35,28.89-.17,43.24,1.84,.45,.06,.91,.1,1.34,.23,1.73,.51,2.56,1.62,2.39,3.15-.17,1.49-1.24,2.49-3.08,2.44-2.45-.07-4.88-.38-7.33-.59-15.33-1.3-30.67-1.29-46.03-.62-9.44,.41-18.86,1.2-28.28,1.86-3.62,.25-7.25,.52-10.87,.85-1.81,.16-3.61,.19-5.33-.17-1.03,.81-1.17,1.95-1.52,2.95-11.8,33.32-24.93,66.12-38.76,98.64-.11,.25-.23,.5-.3,.76-1.4,5.12-5.87,5.86-10.25,5.06-3.94-.72-7.51-2.69-11.24-4.11-1.53-.58-3.01-1.28-4.52-1.89-3.03-1.24-3.59-2.4-2.52-5.47,3.34-9.61,6.64-19.23,10.06-28.81,11.29-31.66,21.88-63.55,31.4-95.79,.1-.35,.23-.69,.34-1.04,1.43-4.48,3.54-5.81,8.11-4.93,7.76,1.5,15.5,3.05,23.24,4.63,4.13,.84,5.03,2.25,3.74,6.36-1.58,5.02-3.43,9.96-5.15,14.94-.32,.92-.82,1.82-.53,3.16Zm-1.12-18.19c-.14-.11-.27-.28-.43-.31-6.84-1.41-13.79-2.33-20.52-4.31-.95-.28-1.58,.12-1.85,1.08-.2,.7-.41,1.39-.6,2.09-2.89,10.41-5.93,20.78-9.09,31.12-8.94,29.29-19.37,58.07-29.85,86.83-.4,1.09-1.07,2.12-.78,3.62,3.75,1.76,7.83,2.99,11.81,4.46,2.91,1.07,3.18,.83,4.45-2.06,7.79-17.81,14.76-35.95,21.99-53.99,8.82-22.01,16.34-44.49,24.6-66.71,.21-.57,.6-1.15,.27-1.82Z"/><path d="M561.19,460.02c8.63-.28,17.21,.74,25.83,.81,.89,0,1.81,.18,2.67,.43,1.26,.37,1.97,1.28,1.91,2.63-.06,1.36-.89,2.22-2.14,2.46-1.14,.22-2.35,.19-3.52,.19-8.44,.04-16.84-.92-25.28-.72-5.44,.13-10.88-.16-16.3,.53-.89,.11-1.83,.11-2.7-.08-1.13-.23-1.95-.96-2.11-2.2-.16-1.22,.38-2.11,1.4-2.73,.88-.53,1.87-.61,2.87-.74,5.78-.77,11.59-.46,17.39-.6Z"/><path d="M332.7,476.82c-2.58-.58-5.63-1.04-8.45-2.31-1.95-.88-2.76-2.53-2.23-4.12,.53-1.61,2.19-2.43,4.25-1.89,2.53,.67,5.03,1.48,7.52,2.27,.59,.19,1.19,.47,1.68,.85,1.08,.83,1.67,1.9,1.17,3.31-.49,1.37-1.65,1.99-3.94,1.9Z"/><path d="M427.06,854c-.05,.89-.03,1.44-.12,1.97-.24,1.32-1.05,2.08-2.4,2.17-1.46,.1-2.47-.63-2.9-1.97-.77-2.41-1.48-4.86-1.56-7.4-.07-2.14,.86-3.39,2.5-3.61,1.71-.23,2.88,.66,3.35,2.77,.47,2.11,.81,4.26,1.14,6.07Z"/><path d="M461.25,857.77c.04,1.38-.5,2.31-1.58,2.79-1.19,.53-2.43,.35-3.21-.69-1.64-2.17-3.05-4.53-3.63-7.21-.43-1.99,.46-3.5,2-3.95,1.39-.4,2.68,.38,3.58,2.22,.76,1.55,1.5,3.1,2.2,4.67,.33,.74,.71,1.48,.65,2.17Z"/><path d="M334.89,455.56c2.14,.09,3.92,.42,5.58,1.19,1.71,.79,2.39,2.17,1.92,3.71-.4,1.33-1.77,2.17-3.48,1.93-1.53-.22-3.01-.47-4.58-.31-2.32,.24-3.61-.85-3.73-2.89-.12-2,1.05-3.29,3.25-3.58,.45-.06,.9-.06,1.04-.07Z"/><path d="M441.93,854.86c.03,1.91-.74,3.09-2.16,3.4-1.44,.31-2.68-.38-3.37-2.05-.73-1.75-1.11-3.61-1.44-5.48-.13-.73,.07-1.43,.31-2.12,.39-1.13,1.16-1.81,2.37-1.91,1.32-.11,2.37,.45,2.8,1.68,.74,2.13,1.21,4.34,1.5,6.49Z"/><path d="M670.96,276.7c-1.09,.02-1.94-.5-2.58-1.3-1.64-2.05-3.3-4.09-4.82-6.23-1.09-1.54-.94-2.88,.14-3.94,1.14-1.11,2.74-1.23,4.17,.02,2.41,2.1,4.32,4.66,5.65,7.55,.96,2.09-.4,3.96-2.57,3.9Z"/><path d="M688.32,253.02c-.06,2.15-2.06,3.55-3.79,2.44-2.77-1.78-4.92-4.26-6.27-7.31-.44-1,0-1.98,.76-2.72,.88-.85,2.06-1.11,3.01-.47,2.74,1.84,4.83,4.31,6.21,7.35,.11,.23,.07,.54,.09,.72Z"/><path d="M679.46,263c0,1.81-1.41,3.15-3.22,2.68-2.55-.66-4.46-2.41-5.66-4.69-.84-1.6,.27-3.4,1.97-3.74,2.44-.48,6.9,3.22,6.9,5.74Z"/></svg>