<?xml version="1.0" encoding="UTF-8"?><svg id="Layer_1" xmlns="http://www.w3.org/2000/svg" viewBox="0 0 1200 1200"><path d="M611.74,299.31c10.19,.57,19.81,1.09,29.43,1.67,9.6,.58,19.07-.22,28.43-2.37,17.09-3.93,33.76-2.35,50.13,3.66,5.46,2,10.92,4.03,16.25,6.35,14.93,6.52,30.15,12.23,45.83,16.65,16.15,4.55,31.18,11.5,45.14,20.77,10.48,6.96,21.57,12.78,33.12,17.76,8.27,3.56,16.31,7.6,24.09,12.16,12.23,7.16,22.72,16.3,31.4,27.5,3.12,4.02,6.17,8.1,9.17,12.21,5.92,8.11,12.56,15.55,20.11,22.18,2.05,1.8,3.98,3.73,6.01,5.55,12.51,11.18,21.13,24.85,26.2,40.8,7.35,23.1,12.75,46.63,15.01,70.8,1.74,18.55,3.79,37.06,6.77,55.47,5.17,31.92,.1,62.12-15.88,90.3-10.58,18.67-22.01,36.82-34.26,54.45-13.49,19.42-30.13,35.67-49.92,48.58-19.95,13.02-39.5,26.6-59.11,40.12-13.28,9.16-27.17,17.22-42.48,22.61-10.66,3.75-21.58,6.52-32.66,8.63-18.34,3.49-36.27,8.51-53.97,14.37-21.78,7.22-44.19,10.29-67.06,10.5-13.73,.12-27.45,.42-41.15,1.31-10.25,.67-20.48,1.47-30.74,1.99-18.24,.93-36.14-1.16-53.68-6.11-18.3-5.16-36.97-7.74-55.87-9.04-8.52-.59-17.03-1.4-25.44-3.01-11.19-2.15-21.62-6.29-31.41-12.05-4.62-2.72-9.23-5.47-13.76-8.34-11.32-7.17-23.24-13.22-35.5-18.53-20.89-9.05-38.76-22.04-53.76-39.15-10.12-11.54-21.92-21.22-34.45-30.06-6.76-4.77-13.28-9.84-19.29-15.57-8.54-8.15-14.65-17.78-18.12-29.06-2.86-9.29-5.5-18.66-8.49-27.91-4.53-14.01-9.88-27.74-14.77-41.62-2.63-7.46-5.18-14.94-6.69-22.73-2.06-10.55-1.11-20.98,1.2-31.37,1.46-6.57,3.25-13.06,5.41-19.43,5.43-16.01,8.9-32.42,10.15-49.27,1.99-26.82,12.21-50.48,27.42-72.26,5.48-7.84,11.69-15.09,18.21-22.07,6.84-7.33,13.11-15.08,18.5-23.55,6.26-9.83,14.11-18.23,23.23-25.47,12.83-10.2,26.43-19.27,40.52-27.63,1.17-.7,2.44-1.28,3.5-2.11,6.1-4.8,13.18-7.56,20.33-10.3,12.22-4.69,24.2-9.97,36.02-15.6,3.03-1.44,6.03-3.02,8.85-4.83,12.59-8.08,26.48-12.2,41.19-14.06,7.67-.97,15.38-1.51,23.09-2.01,7.88-.51,15.43-2.33,22.86-4.84,11.97-4.05,24.02-7.84,36.37-10.57,16.57-3.67,33.34-5.5,50.3-5.75,8.27-.12,16.54,.02,24.24,.3Zm-12.32,5.42c-17.95-.28-35.79,.79-53.46,4.11-14.51,2.73-28.6,6.94-42.54,11.72-8.47,2.9-17.09,4.94-26.06,5.46-5.99,.35-11.97,.84-17.94,1.42-15.39,1.51-30.02,5.37-43.17,13.92-4.42,2.88-9.23,5.1-14.03,7.27-9.11,4.12-18.15,8.48-27.56,11.81-11.28,3.98-21.66,9.32-30.86,16.97-.84,.7-1.75,1.38-2.91,1.36-1.38-.02-2.41,.68-3.48,1.37-9.06,5.91-17.89,12.16-26.45,18.78-9.94,7.69-18.55,16.58-25.24,27.27-5.13,8.2-11.2,15.66-17.78,22.73-5.08,5.46-10.04,11.02-14.55,16.97-17.17,22.64-28.6,47.54-30.56,76.32-1.08,15.84-4.39,31.29-9.41,46.37-2.04,6.12-3.76,12.34-5.41,18.58-3.95,15.01-3.75,29.84,1.51,44.53,1.72,4.79,3.35,9.61,5.03,14.42,5.31,15.18,11.3,30.12,15.8,45.59,1.7,5.85,3.45,11.68,5.15,17.52,3.48,11.94,10.03,21.87,19.3,30.12,5.92,5.27,12.27,9.98,18.72,14.55,12.22,8.65,23.6,18.28,33.48,29.52,14.43,16.41,31.64,28.77,51.69,37.4,14.97,6.44,29.24,14.25,42.98,23.02,3.52,2.25,7.19,4.27,10.87,6.25,8.14,4.38,16.79,7.35,25.88,9.07,8.95,1.7,18.02,2.37,27.08,3.05,17.16,1.29,34.2,3.39,50.79,8.15,21.49,6.17,43.36,7.91,65.6,6.07,18.93-1.57,37.89-2.61,56.91-2.74,9.08-.06,18.17-.44,27.23-1.24,15.49-1.36,30.46-5.06,45.19-9.83,17.74-5.75,35.73-10.5,54.05-14.05,13.94-2.7,27.61-6.44,40.61-12.31,10.98-4.96,21.21-11.22,31.09-18.05,19.07-13.18,38.12-26.37,57.56-39,19.67-12.78,36.17-28.89,49.56-48.17,11.47-16.51,22.1-33.55,32.21-50.91,15.93-27.33,21.51-56.66,16.63-87.94-2.66-17.07-4.8-34.19-6.33-51.4-1-11.23-2.3-22.42-4.68-33.46-3.37-15.64-6.87-31.24-12.47-46.28-4.19-11.26-10.4-21.18-19.04-29.54-3.33-3.22-6.67-6.45-10.13-9.52-7.45-6.6-14.07-13.94-19.95-21.95-3.17-4.32-6.37-8.63-9.65-12.87-8.28-10.7-18.31-19.4-30.01-26.2-7.48-4.34-15.2-8.21-23.13-11.62-11.97-5.15-23.45-11.22-34.28-18.46-13.73-9.17-28.6-15.8-44.47-20.27-13.93-3.93-27.48-8.91-40.76-14.67-7.42-3.22-14.92-6.23-22.56-8.9-14.62-5.11-29.45-6.22-44.56-2.71-11.9,2.77-23.94,3.06-36.06,2.19-11.79-.85-23.58-1.54-35.4-1.77Z"/><path d="M868.14,654.88c1.02-.45,.88-1.53,1.26-2.3,.79-1.61,1.92-2.31,3.17-1.87,1.22,.43,1.84,1.71,1.39,3.42-.77,2.9-1.56,5.8-2.59,8.61-.54,1.48-.55,2.77-.1,4.22,2.19,7.12,4.34,14.26,6.48,21.4,.99,3.29,1.3,6.58-.06,9.88-.45,1.11-1,2.12-1.74,3.06-15.7,19.69-30.92,39.74-45.84,60.03-4.82,6.55-5.04,6.7-13.2,5.78-9.32-1.05-18.5-2.85-27.46-5.65-2-.63-3.23-.22-4.79,1.19-6.42,5.78-13.33,10.96-20.66,15.57-2.15,1.35-4.28,2.75-6.35,4.22-1.96,1.39-4.33,1.83-6.42,2.95-14.4,7.67-29.32,14.08-45.11,18.37-2.45,.67-4.95,1.18-7.43,1.74-.8,.18-1.61,.3-2.43,.08-.95-.26-1.65-.78-1.82-1.8-.17-1,.21-1.84,1.07-2.32,.7-.39,1.5-.64,2.29-.83,19.51-4.67,37.68-12.66,55.32-22.02,8.96-4.76,17.08-10.72,24.98-17,.64-.51,1.26-1.05,1.85-1.61,.18-.17,.25-.47,.37-.7-.56-1.07-1.67-1.06-2.57-1.36-5-1.68-9.95-3.47-14.83-5.47-15.88-6.51-28.46-16.97-37.75-31.4-1.42-2.2-2.6-4.57-4.32-6.51-1.26,.11-1.76,1.09-2.42,1.78-4.41,4.59-8.93,9.06-13.59,13.4-2.79,2.59-5.92,3.71-9.67,3.49-3.09-.18-6.16-.45-9.23-.81-1.44-.17-2.87-.33-4.3-.49-1.05,1.16-.88,2.49-.98,3.71-.86,10.54-.41,21.07,.22,31.6,.36,5.99,.68,11.98,.29,17.98-.16,2.5-1.06,4.6-2.99,6.19-14.77,12.18-30.45,22.8-49.24,27.79-20.8,5.53-41.54,5.13-62.1-1.36-11.03-3.48-19.89-9.97-26.75-19.27-4.17-5.65-7.96-11.51-10.57-18.07-.09-.24-.33-.42-.64-.8-3.21,.59-6.51,1.18-9.87,1.17-13.79-.06-26.83-3.26-39.12-9.47-5.8-2.93-11.02-6.69-15.62-11.3-4.54-4.56-8.18-9.72-10.85-15.58-.4-.89-.59-1.93-1.52-2.58-1.49-.09-2.78,.67-4.11,1.19-8.24,3.19-16.67,5.72-25.4,7.17-9.61,1.6-19.18,1.42-28.73-.5-1.04-.21-2.07-.69-3.16-.39-.47,.71,.08,1.07,.45,1.4,2.77,2.48,5.47,5.04,8.62,7.09,3.2,2.08,6.18,4.48,9.3,6.68,11.06,7.77,23.38,12.86,36.19,16.86,9.45,2.95,18.97,5.7,28.46,8.56,.87,.26,1.76,.51,2.55,.93,1.05,.55,1.63,1.48,1.31,2.71-.32,1.23-1.24,1.75-2.45,1.76-.54,0-1.09-.07-1.61-.22-15.26-4.46-30.8-8.07-45.46-14.36-18.35-7.89-34.39-19.17-48.13-33.69-1.09-1.15-2.26-2.06-3.74-2.63-8.49-3.25-15.56-8.48-21.66-15.2-5.01-5.52-10.31-10.73-13.57-17.62-9.8-20.74-16.81-42.16-17.1-65.41-.19-14.92-.18-29.81,2.06-44.61,2.67-17.64,10.14-32.92,22.94-45.4,6.24-6.08,13.67-10.22,22.43-11.56,1.93-.3,2.59-1.18,3.01-3.1,3.78-17.45,9.95-33.99,19.4-49.21,11.04-17.78,26.89-29.26,46.78-35.38,13.25-4.08,26.68-5.45,40.38-2.74,5.37,1.06,10.53,2.8,15.56,4.96,3.12,1.34,3.15,1.35,4.78-1.53,4.55-8.05,9.97-15.35,17.03-21.45,6.84-5.91,14.7-9.97,23.26-12.14,16.62-4.23,33.5-6.48,50.72-3.69,11.57,1.88,22.62,5.34,33.29,10.1,3.57,1.59,7.08,3.3,10.64,4.93,.81,.37,1.57,.95,3.03,.79,3.9-12.42,8.14-24.95,14.61-36.64-1.94-1.4-3.96-1.52-5.89-1.74-12.03-1.37-24.12-1.7-36.21-1.47-31.02,.6-61.31,5.58-90.72,15.57-8.62,2.93-16.94,6.58-24.86,11.11-.7,.4-1.45,.79-2.23,.98-1.14,.29-2.2,.05-2.82-1.08-.64-1.16-.16-2.15,.74-2.9,.76-.64,1.63-1.16,2.48-1.67,9.97-5.97,20.7-10.18,31.74-13.65,19.75-6.22,39.97-10.12,60.55-12.23,19.33-1.98,38.66-1.84,58-.36,2.9,.22,5.76,.77,8.59,1.45,3.84,.93,3.36,1.11,5.45-2.1,4.94-7.58,10.56-14.57,17.53-20.4,1.53-1.28,3.13-2.49,4.78-3.62,10.52-7.28,21.93-9.23,34.26-5.71,20.8,5.93,37.84,17.3,50.81,34.74,8.33,11.2,15.32,23.2,21.7,35.58,17.86,34.67,32.72,70.52,43.54,108.06,9.89,34.32,20.42,68.45,32.59,102.05,1.24,3.42,2.26,6.91,3.4,10.36,.28,.83,.3,1.8,1.16,2.38Zm-290.24-229.98c-14.21,0-25.94,1.72-37.16,6.12-19.11,7.48-30.96,21.09-34.55,41.51-2.21,12.57-1.12,24.97,2.07,37.27,12.75,49.18,59.93,72.18,97.05,68.41,3.8-.39,7.58-.91,11.38-1.28,3.21-.31,4.53,.71,5.28,3.79,.13,.53,.21,1.07,.31,1.61,1.38,7.42,3.01,14.78,4.98,22.06,4.12,15.29,9.97,29.82,19.3,42.75,6.92,9.6,15.02,18.04,25.3,24.09,14.29,8.4,29.87,10.94,46.22,9.61,10.64-.86,19.47-5.44,26.85-13.03,2.79-2.87,5.35-5.94,7.77-9.13,2.29-3.01,4.49-2.93,6.29,.36,2.22,4.05,5.07,7.51,8.61,10.45,2.59,2.15,5.3,4.14,8.12,5.98,6.17,4.03,12.57,7.66,18.98,11.27,19.96,11.25,41.74,14.9,64.26,15.46,2.93,.07,5.8-.43,8.48-1.71,4.94-2.35,6.4-5.33,4.82-10.6-4.4-14.62-8.42-29.37-13.47-43.76-12.17-34.65-23.29-69.63-33.42-104.92-10.66-37.11-25.42-72.51-43.07-106.76-6.21-12.05-13.01-23.74-21.11-34.65-12.29-16.54-28.48-27.25-48.2-32.84-10.27-2.91-19.77-1.28-28.6,4.65-4.79,3.22-8.99,7.09-12.74,11.44-9.69,11.23-16.44,24.13-21.59,37.95-2.16,5.79-3.85,11.74-5.91,17.57-1.49,4.24-3.7,5.1-7.82,3.23-4.8-2.17-9.57-4.43-14.39-6.55-14.72-6.47-30.01-10.45-44.01-10.37Zm-81.76,40.95c-.57-.96-1.62-1.12-2.52-1.5-15.19-6.47-30.78-7.29-46.73-3.29-20.32,5.1-36.87,15.61-48.23,33.54-9.73,15.37-16.06,32.14-19.91,49.87-.51,2.36-1.55,4.03-4.04,4.54-.62,.13-1.2,.45-1.82,.56-6.26,1.17-11.27,4.6-15.53,9.06-15.26,16-22.67,35.05-21.64,57.21,.57,12.18,3.7,23.85,7.56,35.34,3.35,9.95,7.68,19.43,13.34,28.29,4.5,7.03,10.31,12.66,17.66,16.67,9.16,5.01,18.84,8.58,29.14,10.42,6.39,1.14,12.77,.94,18.77-1.6,15.07-6.39,26.89-16.41,34.08-31.41,.23-.49,.48-.99,.8-1.42,.66-.89,1.59-1.19,2.66-.93,.99,.24,1.67,.95,1.64,1.92-.05,1.5,.76,2.49,1.53,3.63,4.58,6.74,10.02,12.69,16.37,17.76,6.12,4.89,12.87,5.48,19.96,2.19,2.57-1.19,4.9-2.77,7.23-4.37,4.78-3.29,7.26-2.09,7.84,3.76,.98,9.78,3.58,19.08,8.08,27.85,5.42,10.54,12.77,19.41,22.51,26.22,8.22,5.74,16.91,10.68,26.07,14.75,18.79,8.36,37.84,7.42,56.98,1.35,17.98-5.7,31.61-16.79,40.83-33.25,.51-.9,1.36-1.73,1.1-2.86-.76-.67-1.6-.68-2.39-.85-7.84-1.62-15.6-3.48-23.24-5.91-20.17-6.42-36.27-18.19-47.61-36.17-10.94-17.34-16.58-36.07-14.4-56.76,.06-.54,.17-1.09-.17-1.59-.36-.48-.92-.56-1.45-.66-14.05-2.71-26.3-9.31-37.79-17.53-8.37-5.99-16.25-12.57-23.62-19.75-1.22-1.19-2.33-1.54-4.09-1.22-6.59,1.21-12.86,.05-18.66-3.29-3.87-2.23-6.53-5.53-7.45-9.97-1.01-4.87-.57-9.64,1.98-13.99,1-1.71,1.04-2.98,0-4.7-6.12-10.03-10.44-20.77-12.38-32.4-.75-4.5-1.26-9.01,.07-13.5,4.38-14.84,9.27-29.48,16.42-43.27,.45-.87,1.08-1.7,1.03-2.77Zm122.11,126.61c-1.15,.51-1.54,1.48-2.09,2.29-4.33,6.39-8.56,12.85-12.97,19.19-3.94,5.67-7.92,11.37-12.89,16.18-2.2,2.13-2.92,4.29-2.94,7.14-.07,10.77,1.89,21.14,5.98,31.1,9.77,23.8,26.16,40.73,50.89,49.01,15.58,5.22,31.64,8.1,47.92,10.02,4.64,.55,8.06-.85,11.44-4.06,14.39-13.71,27.18-28.8,39.05-44.7,.41-.55,1.03-1.03,.9-2.03-1.14,.24-1.89,1.04-2.73,1.64-5.56,4.02-11.75,6.45-18.51,7.52-6.95,1.1-13.93,1.2-20.92,.49-16.46-1.67-31.18-7.41-43.67-18.48-10.55-9.35-18.78-20.42-25.07-33-6.26-12.52-10.21-25.82-13.32-39.4-.22-.96-.22-2-1.06-2.92Zm245.13,115.19c-41.07,1.49-75.86-13.32-106.36-39.95-.48,.13-.76,.74-1.11,1.26-9.27,13.72-19.27,26.89-30.21,39.33-1.14,1.3-1.08,2.25-.14,3.56,2.33,3.25,4.48,6.63,6.84,9.86,7.5,10.24,16.83,18.41,28.45,23.58,18.27,8.13,37.29,13.82,57.18,16.41,3.24,.42,5.32-.36,7.32-3.14,11.8-16.37,24.23-32.27,36.65-48.18,.54-.69,1.33-1.26,1.37-2.73Zm-188.1,24.88c-.16,.06-.4,.06-.47,.17-.35,.53-.67,1.08-.97,1.64-10.08,19.1-25.63,31.52-46.22,37.73-15.51,4.68-31.28,6.39-47.04,1.93-18.1-5.13-34.05-14.44-48.13-26.93-.74-.66-1.26-1.73-2.43-1.76-.34,.6-.14,1.04-.05,1.47,1.54,7.2,2.98,14.45,3.44,21.8,.59,9.55,4.49,17.54,9.98,25.16,7.29,10.1,16.75,16.72,28.73,19.92,17.66,4.72,35.37,5.03,53.13,.71,18.58-4.52,34.02-14.8,48.58-26.68,1.14-.93,1.63-2.1,1.73-3.54,.18-2.73,.17-5.45,.03-8.18-.73-14.25-1.83-28.5-.04-42.75,.03-.27,0-.54-.27-.7Zm-60.64-149.72c-31.9,4.69-60.05-3.44-83.71-24.9-23.86-21.64-32.87-49.53-31.34-81.38-1.15,.54-1.29,1.52-1.64,2.3-1.83,4.06-3.65,8.12-5.41,12.21-3.37,7.86-6.21,15.9-8.36,24.19-.73,2.79-.72,5.53-.27,8.36,2.53,15.96,9.54,29.86,19.48,42.37,9.99,12.58,21.64,23.53,34.04,33.69,6.61,5.42,13.53,10.44,21.05,14.56,7.61,4.17,15.55,7.45,24.12,9.12,2.09,.41,3.31-.15,4.57-1.84,8.71-11.76,17.51-23.44,25.92-35.42,.56-.8,1.34-1.49,1.55-3.26Zm-284.59,35.03c-.8,1.1-.7,2.3-.77,3.46-.58,9.08-.22,18.16,.02,27.25,.6,22.79,8.03,43.61,18.03,63.72,.97,1.95,2.08,3.87,3.59,5.45,3.57,3.75,7.21,7.44,10.9,11.07,3.45,3.41,7.4,6.16,11.78,8.26,7.25,3.48,14.85,5.9,22.77,7.3,6.75,1.2,13.54,1.46,20.36,.74,10.2-1.08,19.93-3.97,29.45-7.68,5.22-2.04,4.66-.59,5.59-6.97,1.87-12.95,2.8-26.01,4.31-39.01,.21-1.82,.87-3.66,.35-5.6-1.22,.2-1.54,1.16-2.07,1.84-6.21,8.03-13.87,14.34-22.64,19.36-9.71,5.56-20.01,7.3-31.02,4.99-7.42-1.56-14.51-4.01-21.48-6.95-13.49-5.69-23.65-14.93-30.68-27.8-8.23-15.07-13.64-31.08-16.8-47.89-.72-3.82-1.12-7.71-1.67-11.57Zm132.67,67.93c-.77,.42-.74,1-.8,1.53-.36,3.43-.71,6.87-1.07,10.3-1.31,12.74-2.07,25.55-4.26,38.19-.18,1.04,.03,1.94,.4,2.9,4.56,11.88,12.62,20.67,23.64,26.85,8.02,4.49,16.63,7.26,25.67,8.79,6.57,1.11,13.16,1.73,19.79,.52,2.36-.43,2.48-.71,2.24-3.08-1.21-11.68-3.37-23.19-5.8-34.66-.4-1.89-1.06-3.62-2.07-5.29-5.81-9.61-9.6-19.95-11.06-31.11-.12-.94-.05-2-1.05-2.9-1.52,.88-3.06,1.81-4.63,2.68-10.44,5.77-20.18,4.82-29.29-2.86-3.48-2.94-6.6-6.24-9.54-9.71-.63-.75-1.11-1.67-2.17-2.13Z"/><path d="M885.2,583.88c.42,4.11,.49,8.47,.59,12.83,.21,9.39-1.1,18.67-2.05,27.97-.42,4.07-.88,8.13-1.95,12.09-.26,.96-.48,1.95-1.09,2.78-.66,.9-1.56,1.24-2.64,.94-.99-.28-1.48-1.06-1.54-2.03-.04-.72,0-1.46,.16-2.16,1.84-7.82,2.22-15.82,3.14-23.76,1.18-10.14,1.33-20.33,.14-30.46-2.08-17.7-6.39-34.77-14.56-50.79-10.21-20.03-22.37-38.67-37.87-55.04-1.93-2.04-3.71-4.23-5.53-6.39-.46-.55-.85-1.18-1.17-1.82-.45-.91-.27-1.79,.43-2.51,.71-.73,1.6-.78,2.52-.47,.72,.23,1.23,.76,1.72,1.3,10.2,11.23,20.58,22.32,28.85,35.13,7.94,12.3,15.16,25.01,20.91,38.51,4.56,10.7,6.79,22.01,8.74,33.4,.58,3.39,1.63,6.73,1.19,10.48Z"/><path d="M216.87,611.77c.14-1.17,.2-2.35,.45-3.49,.34-1.56,1.19-2.7,3-2.47,.9,.12,1.53-.15,2.21-.69,1.16-.91,2.42-.74,3.49,.16,3.05,2.57,5.06,5.67,4.68,9.88-.3,3.39-2.77,6.3-5.73,6.75-2.85,.44-5.51-1.32-6.95-4.56-.72-1.64-1.07-3.43-1.15-5.57Zm6.87,4.87c2.68-2.19,1.86-5.65-1.49-7.07-.7,2.56-.23,4.78,1.49,7.07Z"/><path d="M955.59,634.34c2.39,3.05,1.79,6.18,.84,9.23-.66,2.1-2.59,3.25-4.59,3.16-2-.09-3.53-1.44-4.16-3.69-1.27-4.48,1.59-11.23,5.69-13.43,1.11-.6,2.29-.87,3.26,.11,1.08,1.09,.8,2.3-.09,3.41-.28,.35-.56,.7-.95,1.19Z"/><path d="M303.33,420.06c-.04-2.27,.66-3.99,2.15-5.35,1.56-1.42,3.22-1.51,4.94-.28,.81,.58,1.59,1.21,2.33,1.88,2.19,2,2.78,4.55,1.64,6.86-.97,1.95-3.4,3.17-5.73,2.88-2.57-.33-4.73-2.34-5.22-4.88-.09-.44-.09-.9-.11-1.11Z"/><path d="M907.09,443.66c-.14,1.32-.56,2.8-1.14,4.22-1.1,2.69-3.11,3.86-5.75,3.41-2.38-.41-4.28-2.56-4.41-5.16-.14-2.81,1.19-4.86,3.58-6.22,2.33-1.33,4.53-.71,6.62,.67,1.05,.69,1.19,1.74,1.1,3.09Z"/><path d="M553.35,320.67c3.94,.56,5.34,4.04,3.02,7.13-1.56,2.08-4.61,3.03-6.8,2.13-2.12-.88-3.59-3.5-3.32-6.03,.15-1.46,.66-2.82,1.54-4.01,2.09-2.81,4.06-2.57,5.56,.78Zm-1.4,3.16c-.06-.06-.12-.11-.18-.17-.07,.13-.16,.25-.2,.39-.01,.04,.1,.11,.16,.17,.07-.13,.14-.26,.22-.39Z"/><path d="M350.05,815.55c.11-2.36,1.22-4.45,3.59-5.7,2.51-1.33,4.61-.33,5.35,2.41,.26,.96,.58,1.92,.75,2.89,.59,3.31-1.34,6.1-4.33,6.31-2.88,.2-5.36-2.4-5.36-5.92Z"/><path d="M692.33,861.39c1.17,.49,2.06,.08,2.94,.11,1.33,.04,2.31,.54,2.6,1.9,.26,1.22-.32,2.21-1.37,2.68-1.9,.86-3.94,1.4-6.05,1.13-2.58-.33-4.28-2.52-4.2-5.16,.07-2.51,2.24-5.13,4.5-5.42,2.06-.27,3.26,1.27,2.47,3.22-.2,.48-.52,.91-.89,1.55Z"/><path d="M457.37,854.15c.63,.6,1.55,.21,2.27,.6,1.18,.63,2.06,1.5,2.17,2.9,.1,1.34-.68,2.18-1.76,2.82-2.55,1.51-5.45,.92-7.22-1.47-1.62-2.2-1.65-5.72-.08-7.9,.73-1,1.65-1.67,2.93-1.7,1.83-.05,2.84,1.23,2.39,3.01-.15,.61-.77,1.03-.71,1.75Z"/><path d="M927.4,734c.06,3.26-3.99,6.45-7.02,5.66-1.57-.41-2.64-1.8-2.8-3.61-.24-2.72,1.93-5.92,4.57-6.7,1.45-.43,2.77-.24,3.52,1.18,.62,1.17,1.81,2.09,1.74,3.47Z"/><path d="M439.64,351.91c-.05,2.03-1.71,3.77-4.39,4.61-2.07,.65-4.21,.05-5.41-1.5-1.23-1.6-1.27-3.88-.09-5.61,1.14-1.68,2.76-2.17,4.45-1.14,.81,.5,1.5,.75,2.49,.69,2.02-.13,3,.96,2.95,2.96Z"/><path d="M571.75,869.91c.33,.26,.45,.4,.61,.47,1.37,.66,2.56,1.47,2.3,3.25-.2,1.38-1.72,2.37-3.75,2.56-2.73,.25-5.11-1.38-5.74-3.91-.66-2.68,.48-5.27,2.85-6.38,1.2-.56,2.45-.83,3.56,.14,.97,.85,.79,1.92,.37,3-.1,.24-.12,.51-.2,.87Z"/><path d="M830.6,813.43c.02,3.21-1.36,4.99-3.85,5.13-2.65,.15-4.67-1.84-4.8-4.79-.1-2.21,.55-4.14,2.42-5.47,1.65-1.17,3.54-.87,4.39,.89,.69,1.42,2.22,2.53,1.84,4.23Z"/><path d="M250.39,513.34c0,1.41-.39,2.68-1.34,3.74-2.08,2.31-5.5,1.59-6.49-1.37-.85-2.55,.47-6.3,2.72-7.71,1.54-.97,2.94-.63,3.91,.93,.75,1.22,1.22,2.94,1.2,4.4Z"/><path d="M260.82,746c-1.4-.03-2.45-.69-2.85-2.23-.92-3.56,2.73-7.95,6.37-7.67,1.18,.09,2.11,.51,2.52,1.69,.37,1.08,0,2.02-.94,2.57-1.09,.63-1.23,1.66-1.54,2.71-.57,1.92-1.79,2.9-3.56,2.94Z"/><path d="M814.66,379.04c.06-.93,.28-1.72,.95-2.28,1.25-1.05,2.53-2.07,4.02-2.78,1.29-.62,2.51-.58,3.35,.72,.78,1.21,.3,2.29-.66,3.15-1.01,.9-2.11,1.67-2.83,2.89-.67,1.13-1.79,1.55-3.06,1.06-1.26-.49-1.62-1.62-1.77-2.75Z"/><path d="M698.84,321.49c-1.58,.04-2.9-1.06-3.23-2.72-.46-2.29,2.58-5.55,4.94-5.28,1.12,.13,2.01,.76,1.93,1.89-.13,1.78-.59,3.55-1.51,5.11-.43,.73-1.27,.98-2.12,1Z"/><path d="M947.11,542.19c0-2.55,2.01-4.76,4.3-4.75,1.88,.01,2.9,1.2,2.46,3.02-.25,1.05-.66,2.08-1.1,3.07-.75,1.69-1.98,2.37-3.41,2.02-1.33-.33-2.25-1.7-2.25-3.36Z"/><path d="M816.84,607.91c-.12,2.67-.71,5.32-1.88,7.82-2.83,6.06-6.99,11.05-12.47,14.86-6.19,4.3-11.52,3.54-16.23-2.35-4.66-5.83-7.7-12.5-9.58-19.7-.5-1.92-.45-3.78,.56-5.54,.65-1.12,.85-2.39,1.18-3.61,1.02-3.79,3.4-6.33,7-7.8,8.72-3.56,21.72-.38,27.78,6.78,2.32,2.74,3.53,5.89,3.65,9.55Z"/><path d="M788.14,486.12c-.03,2.06-.74,5.69-2.37,9.1-3.76,7.87-10.83,8.52-15.88,1.44-2.77-3.89-4.47-8.28-5.81-12.83-.69-2.34-1.47-4.64-1.31-7.17,.1-1.54,.31-2.89,1.86-3.63,.7-.33,1.05-.96,1.38-1.62,.4-.81,.81-1.63,1.26-2.41,3.08-5.35,7.09-6.25,12.24-2.78,5.42,3.65,8.69,10.54,8.63,19.9Z"/><path d="M581.74,465.8c-6.65-.25-12.07-1.32-17.41-2.91-3.69-1.1-6.92-3.15-10.34-4.81-2.29-1.12-3.91-3.11-3.84-5.85,.07-2.88,1.98-4.55,4.38-5.76,4.57-2.3,9.44-2.58,14.37-1.96,6.47,.82,12.55,2.91,18.2,6.2,2.05,1.2,3.97,2.58,5.46,4.46,2.63,3.31,1.79,7.13-2.04,9.05-3.11,1.56-6.49,1.56-8.78,1.57Z"/><path d="M696.85,612.75c.13,2.91-.1,5.8-.8,8.64-.31,1.24-.73,2.44-1.38,3.53-1.87,3.14-4.96,3.98-8.17,2.2-1.86-1.03-3.27-2.57-4.55-4.23-2.4-3.1-4.28-6.51-5.94-10.05-.58-1.23-1.04-2.51-1.97-3.56-.29-.33-.5-.77-.63-1.19-1.83-5.82,1.21-13.32,6.58-16.28,4.77-2.64,10.13-1.09,13.1,3.88,2.52,4.23,3.36,8.96,3.76,13.79,.09,1.08,.01,2.18,.01,3.26Z"/><path d="M711.63,410.69c-.87,3.94-1.64,8.15-3.23,12.12-.52,1.3-1.64,2-3.09,1.54-1.34-.43-1.82-1.55-1.51-2.83,.96-3.97,1.98-7.93,3.07-11.87,.38-1.36,1.37-2.19,2.88-1.86,1.38,.3,1.83,1.36,1.88,2.9Z"/><path d="M697.43,414.96c-.08,1.72-.12,3.45-.24,5.17-.1,1.46-.54,2.73-2.31,2.84-1.46,.09-2.54-.92-2.67-2.83-.26-3.82,.05-7.62,.64-11.4,.2-1.29,1.05-2.15,2.45-2.07,1.4,.07,2.16,1,2.23,2.31,.1,1.99,.03,3.99,.03,5.99h-.14Z"/><path d="M398.81,565.86c.12-4.32,.82-9.88,2.59-15.27,.89-2.71,2.1-5.23,4.63-6.84,.63-.41,.96-1.07,1.4-1.64,2.95-3.81,6.88-5.2,11.55-4.43,3.39,.56,5.37,2.83,6.43,5.97,1.13,3.37,.94,6.83,.22,10.22-1.84,8.68-6.18,16.01-12.47,22.2-1.3,1.28-2.77,2.34-4.43,3.12-4.04,1.89-7.39,.51-8.92-3.67-.98-2.69-1.02-5.51-.99-9.65Zm16.73-16.04c.33,.02,.51-.16,.51-.46,0-.15-.1-.38-.22-.44-.27-.13-.52,0-.61,.28-.09,.28,.03,.5,.31,.62Z"/><path d="M548.62,676.01c.03,3.04-.13,6.31-1.05,9.48-1.51,5.22-5.89,6.51-10.05,2.95-3.32-2.85-5.6-6.43-6.9-10.59-1.3-4.15-2.49-8.34-3.67-12.53-.64-2.24-.83-4.46,.69-6.51,.56-.76,.46-1.74,.63-2.62,.29-1.52,.54-3.04,1.26-4.43,.8-1.55,2.02-2.75,3.78-2.74,4.46,.02,8.44,1.14,10.86,5.4,1.64,2.88,2.63,5.97,3.28,9.19,.8,4.02,1.22,8.07,1.17,12.41Z"/><path d="M356.9,626.81c-2.18,.06-3.48-.22-3.89-1.87-.34-1.38,.5-2.56,2.39-3.07,3.14-.85,6.31-1.56,9.48-2.31,.43-.1,.9-.11,1.35-.11,1.32,0,2.32,.54,2.6,1.89,.27,1.35-.41,2.36-1.62,2.79-2.04,.71-4.14,1.29-6.24,1.83-1.57,.41-3.17,.67-4.07,.85Z"/><path d="M602.16,747.54c1.9,0,3.8-.07,5.69,.02,1.4,.07,2.43,.76,2.52,2.32,.08,1.39-.85,2.42-2.61,2.5-3.52,.16-7.05,.37-10.57,.01-.36-.04-.72-.1-1.07-.2-1.36-.4-2.26-1.19-2.08-2.73,.16-1.4,1.16-2.06,2.43-2.12,1.89-.1,3.79-.03,5.69-.03,0,.08,0,.15,0,.23Z"/><path d="M606.97,743.14c-1-.08-2.64-.11-4.24-.37-1.73-.29-2.71-1.39-2.53-2.65,.24-1.64,1.41-2.25,2.91-2.27,2.8-.05,5.61-.09,8.4,.33,1.47,.22,2.62,.84,2.63,2.55,.01,1.45-1.05,2.3-3.02,2.41-1.17,.06-2.35,.01-4.15,.01Z"/><path d="M361.83,604.98c-2.05,0-3.59,.2-5.08-.38-1.21-.47-2.03-1.27-1.86-2.64,.16-1.37,1.1-2.07,2.42-2.12,2.53-.09,5.06-.16,7.59-.1,1.46,.03,2.71,.66,2.78,2.36,.06,1.7-1.09,2.38-2.58,2.58-1.25,.17-2.52,.23-3.26,.3Z"/><path d="M361.46,610.1c1.08-.06,2.16-.19,3.23,.1,1.07,.28,1.72,.96,1.81,2.09,.09,1.12-.43,2.04-1.46,2.35-2.78,.82-5.65,1.18-8.55,.83-1.21-.15-1.9-1-1.92-2.25-.02-1.25,.69-2.02,1.81-2.41,1.64-.58,3.37-.58,5.08-.69Z"/></svg>