<?xml version="1.0" encoding="UTF-8" standalone="no"?>
<!DOCTYPE svg PUBLIC "-//W3C//DTD SVG 1.1//EN" "http://www.w3.org/Graphics/SVG/1.1/DTD/svg11.dtd">
<svg width="100%" height="100%" viewBox="0 0 1749 1749" version="1.1" xmlns="http://www.w3.org/2000/svg" xmlns:xlink="http://www.w3.org/1999/xlink" xml:space="preserve" xmlns:serif="http://www.serif.com/" style="fill-rule:evenodd;clip-rule:evenodd;stroke-linecap:round;stroke-linejoin:round;stroke-miterlimit:1.5;">
    <g id="Слой1">
        <path d="M1404.93,1015.05C1352.59,993.356 1316.41,956.044 1292.06,907.312C1142.88,709.195 993.594,577.954 821.964,493.662C690.463,437.586 561.443,427.991 434.92,465.15C370.107,457.882 307.753,470.064 246.39,490.08L147.856,515.1L97.764,523.493C74.523,540.03 105.434,552.757 118.76,583.721L110.797,602.653L118.76,583.721C136.596,581.72 145.645,593.271 147.415,616.051L143.663,626.11L150.079,659.621L146.849,671.653L134.584,650.813L131.458,635.393L123.612,647.823L116.255,663.989L101.501,676.521C101.501,676.521 91.969,695.038 83.838,687.099C75.707,679.16 81.389,676.148 81.389,676.148L103.999,659.333L115.512,640.135L118.93,616.896L110.797,602.653L118.93,616.896L117.187,628.743C95.414,602.545 84.367,569.417 89.361,535.67" style="fill:none;stroke:black;stroke-width:6.25px;"/>
        <path d="M91.753,579.788C47.831,551.79 83.602,598.334 105.805,655.469" style="fill:none;stroke:black;stroke-width:6.25px;"/>
        <path d="M93.533,627.069L99.443,640.106L89.558,650.484L73.202,654.509C73.202,654.509 63.216,654.806 64.881,649.919C66.546,645.032 79.664,644.028 79.664,644.028L93.533,627.069Z" style="fill:none;stroke:black;stroke-width:6.25px;"/>
        <path d="M120.235,660.106C176.678,706.125 231.375,728.506 283.753,719.525C334.372,679.441 358.783,628.888 361.814,569.794" style="fill:none;stroke:black;stroke-width:6.25px;"/>
        <path d="M149.838,645.142L154.841,661.666C196.501,687.038 238.611,697.307 281.148,693.291C313.55,672.854 326.751,648.94 336.126,624.335" style="fill:none;stroke:black;stroke-width:6.25px;"/>
        <path d="M288.745,719.475L302.72,725.428C353.206,725.798 397.198,715.334 430.387,686.848C455.063,650.107 454.113,611.803 437.645,572.554" style="fill:none;stroke:black;stroke-width:6.25px;"/>
        <path d="M244.145,724.677C267.78,751.43 295.798,766.87 330.151,765.957" style="fill:none;stroke:black;stroke-width:6.25px;"/>
        <path d="M330.151,765.957C391.261,766.732 422.773,729.964 448.984,686.471C463.092,646.683 467.308,606.015 463.942,564.67" style="fill:none;stroke:black;stroke-width:6.25px;"/>
        <path d="M447.733,503.25L463.942,564.67" style="fill:none;stroke:black;stroke-width:6.25px;"/>
        <ellipse cx="257.575" cy="549.511" rx="30.361" ry="29.415" style="fill:none;stroke:black;stroke-width:6.25px;"/>
        <ellipse cx="253.106" cy="551.58" rx="13.005" ry="12.195" style="stroke:black;stroke-width:6.25px;"/>
        <path d="M336.272,769.395C290.37,785.77 244.579,757.152 198.83,711.549" style="fill:none;stroke:black;stroke-width:6.25px;"/>
        <path d="M292.263,772.216C333.636,836.105 382.379,875.441 436.436,897.074L648.534,1021.09" style="fill:none;stroke:black;stroke-width:6.25px;"/>
        <path d="M440.621,753.401C542.131,803.186 631.098,853.606 657.102,907.212L643.513,911.244L634.748,921.386L615.256,923.171L601.316,927.649L590.653,939.016L574.842,932.903L560.878,940.979L547.238,937.617C510.141,945.702 484.761,900.638 460.194,851.884L440.613,832.742L412.175,808.251" style="fill:none;stroke:black;stroke-width:6.25px;"/>
        <path d="M450.671,820.84C479.536,801.412 476.829,786.372 443.283,775.619" style="fill:none;stroke:black;stroke-width:6.25px;"/>
        <path d="M477.454,787.986C531.956,815.008 584.079,850.199 633.446,894.857" style="fill:none;stroke:black;stroke-width:5.08px;"/>
        <g transform="matrix(1,0,0,1,0,15.1842)">
            <path d="M477.454,787.986C531.956,815.008 584.079,850.199 633.446,894.857" style="fill:none;stroke:black;stroke-width:5.08px;"/>
        </g>
        <g transform="matrix(0.883458,0,0,0.855618,51.4575,143.612)">
            <path d="M477.454,787.986C531.956,815.008 584.079,850.199 633.446,894.857" style="fill:none;stroke:black;stroke-width:5.84px;"/>
        </g>
        <g transform="matrix(0.780498,0,0,0.732082,96.4179,253.316)">
            <path d="M477.454,787.986C531.956,815.008 584.079,850.199 633.446,894.857" style="fill:none;stroke:black;stroke-width:6.72px;"/>
        </g>
        <g transform="matrix(0.780498,0,0,0.732082,96.4179,253.316)">
            <path d="M477.454,787.986C531.956,815.008 584.079,850.199 633.446,894.857" style="fill:none;stroke:black;stroke-width:6.72px;"/>
        </g>
        <path d="M693.479,1005.66C692.619,1002.5 683.011,1006.26 683.011,1006.26L667.706,1005.72L651.24,1006.63L647.699,1022.25C673.698,1084.59 703.647,1141.2 757.54,1163.06L774.219,1170.24L791.656,1166.92L810.07,1170.03L833.022,1166.3L850.006,1158.13L858.041,1142.12L864.421,1125.77L856.908,1103.54L859.005,1089.64L848.232,1075.52L840.305,1067.96C839.63,1078.36 696.124,1015.38 693.479,1005.66Z" style="fill:none;stroke:black;stroke-width:5.08px;"/>
        <path d="M633.805,1015.65C651.693,1082.72 678.423,1143.21 732.73,1183.19L746.699,1182.43L759.59,1178.79L765.846,1167.43" style="fill:none;stroke:black;stroke-width:3.97px;"/>
        <path d="M668.272,1027.47C685.702,1075.46 711.877,1116.8 755.859,1144.61" style="fill:none;stroke:black;stroke-width:3.97px;"/>
        <path d="M675.686,1020.68C706.834,1080.25 750.427,1124.81 806.665,1154.13" style="fill:none;stroke:black;stroke-width:3.97px;"/>
        <path d="M690.22,1021.96C734.16,1075.87 782.019,1119.56 838.072,1141.88" style="fill:none;stroke:black;stroke-width:3.97px;"/>
        <path d="M705.21,1026.29C750.535,1062.89 795.918,1093.38 841.455,1107.71" style="fill:none;stroke:black;stroke-width:3.97px;"/>
        <path d="M860.845,1100.82C930.728,1119.03 1001.03,1130.76 1072.02,1131.79L1151.03,1128.35L1190.76,1130.52C1232.83,1126.02 1262.54,1141 1286.31,1165.34L1332.87,1193.34C1367.73,1222.51 1393.41,1209.6 1414.34,1174.5L1426.56,1146.13L1447.59,1127.74L1459.95,1102.39C1474.98,1057.35 1455.88,1029.53 1406.8,1016.85" style="fill:none;stroke:black;stroke-width:6.25px;"/>
        <path d="M1024.12,1129.51C1081.74,1206.69 1143.57,1264.1 1214.93,1276.79L1215.12,1267.86L1223.46,1261.87L1221,1250.47L1230.08,1249.59L1227.25,1239.84L1237.56,1237.06L1237.95,1224.79L1240.1,1211.04L1249.5,1212.32L1248.52,1201.99L1258.44,1199.15L1253.58,1189.07L1263.99,1177.68C1238.76,1172.39 1221.81,1155.51 1209.12,1132.67" style="fill:none;stroke:black;stroke-width:6.25px;"/>
        <path d="M1052.55,1132.99C1095.75,1189.1 1144.45,1230.71 1199.82,1254.74" style="fill:none;stroke:black;stroke-width:6.25px;"/>
        <path d="M1087.85,1132.33C1079.23,1146.07 1204.73,1246.82 1208.96,1234.67" style="fill:none;stroke:black;stroke-width:6.25px;"/>
        <path d="M1127.42,1131.71C1153.41,1166.8 1184.57,1194.94 1221.2,1215.72" style="fill:none;stroke:black;stroke-width:6.25px;"/>
        <path d="M1167.53,1131.69L1233.59,1193.66" style="fill:none;stroke:black;stroke-width:6.25px;"/>
        <path d="M1302.14,1176.76C1350.2,1294.22 1434.04,1430 1511.73,1449.27L1525.44,1436.08L1537.07,1430.4L1544.63,1415.51L1544.3,1397.54L1557.65,1385.89L1548.7,1361.9L1557.11,1334.21L1550.08,1320.49L1555.49,1300.74L1548.83,1289.92L1553.69,1264.75L1549.86,1247.26L1552.21,1223.43L1569.63,1221.58L1578.74,1206.68L1596.11,1203.38C1596.11,1203.38 1607.13,1196.74 1606.12,1192.66C1605.1,1188.57 1621.32,1193.39 1621.32,1193.39L1637.7,1186.36L1638.41,1174.1L1660.1,1173.22L1680.51,1170.71L1705.42,1161.5L1710.2,1150.13L1728.07,1139.9C1728.07,1139.9 1733.81,1125.62 1730.12,1124.25C1726.43,1122.88 1734.55,1108.82 1734.55,1108.82L1727.17,1097.03C1628.45,1032.6 1509.24,1008.21 1395.06,1010.37" style="fill:none;stroke:black;stroke-width:6.25px;"/>
        <path d="M1339.81,1209.28C1383.15,1307.75 1436.14,1385.62 1507.85,1423.61" style="fill:none;stroke:black;stroke-width:6.25px;"/>
        <g transform="matrix(-1.01919,0.296185,-0.163687,-0.563253,3258.71,1389.8)">
            <path d="M1339.81,1209.28C1383.15,1307.75 1436.14,1385.62 1507.85,1423.61" style="fill:none;stroke:black;stroke-width:7.29px;"/>
        </g>
        <path d="M1378.37,1220.86C1408.02,1295.08 1454.67,1355.85 1521.19,1401.08" style="fill:none;stroke:black;stroke-width:6.25px;"/>
        <g transform="matrix(-1.01919,0.296185,-0.163687,-0.563253,3258.71,1389.8)">
            <path d="M1378.37,1220.86C1408.02,1295.08 1454.67,1355.85 1521.19,1401.08" style="fill:none;stroke:black;stroke-width:7.29px;"/>
        </g>
        <path d="M1406,1210.63C1439.35,1272.35 1477.72,1326.02 1528.11,1360.44" style="fill:none;stroke:black;stroke-width:6.25px;"/>
        <g transform="matrix(-1.01919,0.296185,-0.163687,-0.563253,3258.71,1389.8)">
            <path d="M1406,1210.63C1439.35,1272.35 1477.72,1326.02 1528.11,1360.44" style="fill:none;stroke:black;stroke-width:7.29px;"/>
        </g>
        <path d="M1425.94,1194.37C1455.72,1230.68 1490.8,1282.92 1534,1318.57" style="fill:none;stroke:black;stroke-width:6.25px;"/>
        <g transform="matrix(-1.01919,0.296185,-0.163687,-0.563253,3258.71,1389.8)">
            <path d="M1425.94,1194.37C1455.72,1230.68 1490.8,1282.92 1534,1318.57" style="fill:none;stroke:black;stroke-width:7.29px;"/>
        </g>
        <path d="M1436,1176.45L1530.98,1255.64" style="fill:none;stroke:black;stroke-width:6.25px;"/>
        <g transform="matrix(-1.02495,0.102122,-0.0416552,-0.581433,3091.82,1697.86)">
            <path d="M1436,1176.45L1530.98,1255.64" style="fill:none;stroke:black;stroke-width:7.56px;"/>
        </g>
        <path d="M1440.41,1160.38L1535.82,1217.68" style="fill:none;stroke:black;stroke-width:6.25px;"/>
        <path d="M1452.53,1143.26L1571.88,1193.72" style="fill:none;stroke:black;stroke-width:6.25px;"/>
        <path d="M820.056,493.736L908.643,458.905L1008.71,413.632L1010.37,426.891L1030.11,438.324L1024.18,448.601L1041.37,458.027L1038.57,471.404L1056.73,478.283L1060.95,494.936L1078.78,510.621L1075.23,524.582L1090.91,532.308L1091.31,547.47L1108.25,555.734L1112.92,570.962L1131.06,582.622L1128.2,596.373L1148.4,608.119L1156.29,627.177L1173.22,634.961L1176.09,652.225L1188.35,655.812L1192.82,670.687L1204.87,674.076L1212.25,691.046L1228.91,704.501L1238.17,726.32L1256.58,731.026L1262.45,749.371L1278.2,756.109L1285.92,770.459L1285.01,791.311L1302.46,795.36L1303.79,809.865L1317.47,820.422L1321.64,834.042L1334.04,839.36L1338.29,856.963L1350.48,861.558L1351.33,879.545L1364.16,891.077L1362.53,908.212L1371.25,918.691L1366.3,935.158L1337.77,933.412L1298.01,913.757" style="fill:none;stroke:black;stroke-width:6.25px;"/>
        <path d="M863.069,514.002L998.785,456.21" style="fill:none;stroke:black;stroke-width:6.25px;"/>
        <path d="M905.913,537.224L1019.76,491.2" style="fill:none;stroke:black;stroke-width:6.25px;"/>
        <path d="M949.719,566.647L1042.94,528.174" style="fill:none;stroke:black;stroke-width:6.25px;"/>
        <path d="M987.971,591.318L1067.14,556.781" style="fill:none;stroke:black;stroke-width:6.25px;"/>
        <path d="M1019.11,617.538L1085.05,587.44" style="fill:none;stroke:black;stroke-width:6.25px;"/>
        <path d="M1052.49,641.852L1107.9,616.887" style="fill:none;stroke:black;stroke-width:6.25px;"/>
        <path d="M1083.98,670.952L1134.89,648.68" style="fill:none;stroke:black;stroke-width:6.25px;"/>
        <path d="M488.276,664.799C521.691,645.945 531.172,619.384 518.605,585.724" style="fill:none;stroke:black;stroke-width:6.25px;"/>
        <path d="M491.182,560.849C520.407,538.203 518.349,517.807 504.676,498.247" style="fill:none;stroke:black;stroke-width:6.25px;"/>
        <path d="M547.671,575.912C579.494,554.389 583.05,528.002 576.905,499.945" style="fill:none;stroke:black;stroke-width:6.25px;"/>
        <path d="M467.173,741.94C501.028,723.163 512.027,703.99 504.08,684.491" style="fill:none;stroke:black;stroke-width:6.25px;"/>
        <path d="M519.581,680.793C557.572,664.593 577.174,641.111 574.186,608.683" style="fill:none;stroke:black;stroke-width:6.25px;"/>
        <path d="M592.903,594.985C625.442,579.339 636.957,555.97 624.553,523.813" style="fill:none;stroke:black;stroke-width:6.25px;"/>
        <path d="M608.454,494.784C622.565,477.472 618.563,462.247 609.331,447.625" style="fill:none;stroke:black;stroke-width:6.25px;"/>
        <path d="M537.875,749.962C571.256,733.588 584.978,708.624 588.206,679.075" style="fill:none;stroke:black;stroke-width:6.25px;"/>
        <path d="M639.288,608.089C685.502,586.73 702.157,557.527 691.098,520.968" style="fill:none;stroke:black;stroke-width:6.25px;"/>
        <path d="M652.468,517.703C678.421,492.072 683.884,475.917 669.226,451.465" style="fill:none;stroke:black;stroke-width:6.25px;"/>
        <path d="M729.08,537.595C758.972,517.386 762.632,493.204 753.236,469.438" style="fill:none;stroke:black;stroke-width:6.25px;"/>
        <path d="M635.64,682.483C668.947,673.914 680.495,649.791 677.29,615.122" style="fill:none;stroke:black;stroke-width:6.25px;"/>
        <path d="M589.126,792.816C624.152,779.69 638.328,757.661 637.532,729.24" style="fill:none;stroke:black;stroke-width:6.25px;"/>
        <path d="M711.049,624.741C743.451,613.723 753.547,592.544 748.369,564.409" style="fill:none;stroke:black;stroke-width:6.25px;"/>
        <path d="M682.687,722.273C714.751,709.868 729.606,687.946 726.108,655.871" style="fill:none;stroke:black;stroke-width:6.25px;"/>
        <path d="M773.401,624.909C811.659,608.679 825.921,585.008 807.915,551.328" style="fill:none;stroke:black;stroke-width:6.25px;"/>
        <path d="M756.64,772.276C783.762,753.944 799.587,730.42 801.094,700.314" style="fill:none;stroke:black;stroke-width:6.25px;"/>
        <path d="M876.805,699.908C915.248,682.655 930.52,660.55 913.525,631.686" style="fill:none;stroke:black;stroke-width:6.25px;"/>
        <path d="M898.589,784.376C932.027,765.458 946.586,740.76 937.218,708.739" style="fill:none;stroke:black;stroke-width:6.25px;"/>
        <path d="M987.602,764.816C1021.28,753.437 1031.29,733.105 1017.07,703.608" style="fill:none;stroke:black;stroke-width:6.25px;"/>
    </g>
</svg>
