<?xml version="1.0" encoding="UTF-8"?><svg id="Layer_1" xmlns="http://www.w3.org/2000/svg" viewBox="0 0 1200 1200"><path d="M637.8,834.79c-.53,1.25-.25,2.65-.43,3.99-1.33,10.19-6.06,18.56-13.65,25.34-4.45,3.98-9.73,6.29-15.65,7.12-2.83,.4-2.81,.4-3.46,3.19-2.42,10.34-6.67,19.96-11.6,29.3-4.42,8.37-9.48,16.35-15.3,23.83-.89,1.15-1.35,2.15-.83,3.7,.73,2.19,.1,4.3-1.22,6.19-1.46,2.09-3.17,3.98-4.97,5.78-5.52,5.52-11.48,10.55-17.52,15.48-3.52,2.87-6.95,5.86-10.39,8.83-1.55,1.34-3.16,2.46-5.33,2.37-1.03-.04-1.94,.44-2.87,.78-9.32,3.44-18.95,5.23-28.86,4.58-13.69-.91-23.54-7.81-29.41-20.23-5.16-10.9-8.9-22.26-10.16-34.31-1.2-11.49-1.58-23.03-1.05-34.57,.33-7.08,.74-14.15,1.33-21.21,1.66-20.21,4.07-40.29,8.93-60.02,2.02-8.2,3.67-16.49,5.99-24.61,1.45-5.07,3.12-10.07,5.25-14.9,.53-1.19,.49-2.16-.15-3.31-5.79-10.47-5.49-21.03-.15-31.54,.77-1.51,.55-2.68,.05-4.1-3.81-10.9-8.47-21.45-12.67-32.19-19.72-50.4-40.12-100.54-59.54-151.06-5.96-15.51-12.5-30.8-18.77-46.19-.61-1.51-1.18-3.03-1.8-4.64-1.95-.54-3.78,.19-5.6,.56-8.65,1.75-16.97,4.7-25.46,7.04-10.08,2.78-20.22,5.22-30.63,6.42-11.35,1.31-22.48,.43-33.44-2.81-4.01-1.18-7.97-2.5-11.91-3.87-11.83-4.13-21.25-11.68-29.64-20.71-3.99-4.3-4.74-9.25-2.85-14.68,1.38-3.97,3.43-7.61,5.59-11.2,3.18-5.3,6.62-10.45,10.4-15.34,10.56-13.65,19.2-28.41,26.51-44.04,8.03-17.17,17.63-33.41,30.02-47.9,12.95-15.15,27.88-28.12,43.65-40.19,45.26-34.65,96.27-56.93,151.44-70.13,20.43-4.89,41.2-7.87,62.15-9.52,16.24-1.29,32.48-1.83,48.76-.96,16.93,.91,33.54,3.84,50.03,7.62,37.87,8.69,73.56,22.91,106.6,43.25,33.5,20.62,64.14,44.96,90.39,74.48,19.65,22.1,34.83,46.94,45.06,74.74,4.05,11.02,6.62,22.46,9.3,33.86,3.16,13.43,6.79,26.75,9.72,40.25,4.9,22.6,4.14,45.1-.87,67.58-4.79,21.51-13.06,41.53-24.82,60.15-5.94,9.39-11.32,19.08-14.48,29.81-1.49,5.05-2.82,10.15-4.08,15.26-2.57,10.43-8.14,18.94-16.22,25.9-4.14,3.57-8.53,6.79-13.21,9.62-11.98,7.25-24.2,14.05-37.12,19.52-5.2,2.2-5,2.3-5.52,7.85-1.48,15.64-2.92,31.3-7.05,46.54-1.31,4.84-3.19,9.45-5.62,13.85-3.85,6.96-9.4,11.91-16.88,14.72-8.85,3.33-17.87,6.11-27.1,8.19-17.73,4-35.57,7.39-53.61,9.66-12.53,1.58-25.13,2.53-37.73,3.44-13.05,.94-26.11,1.87-39.16,2.8-.81,.06-1.65,.03-2.37,.65Zm190.57-115.17c.32,.05,.51,.14,.67,.1,.35-.08,.69-.21,1.02-.35,14.66-6.28,28.53-14.02,41.78-22.87,10.98-7.34,18.16-17.24,20.74-30.44,2.89-14.8,8.96-28.36,17.05-41.04,1.22-1.91,2.37-3.88,3.55-5.82,8.99-14.77,15.64-30.51,20.02-47.25,6.43-24.59,7.72-49.28,1.78-74.15-3.4-14.22-7.19-28.35-10.25-42.64-7.36-34.39-22.76-64.78-44.86-91.94-10.3-12.65-21.66-24.27-33.93-35.01-17.18-15.05-35.21-29.01-54.34-41.5-.93-.61-1.78-1.51-3.24-1.46,.33,2.6,1.3,4.87,1.77,7.24,.32,1.6,1.11,2.07,2.65,1.92,1.71-.17,3.45-.15,5.18-.15,1.54,0,2.62,.71,2.95,2.28,.3,1.43-.59,2.61-2.29,3.23-.88,.32-1.79,.27-2.69,.37-1.14,.13-2.38-.03-3.27,.85-.31,.92,.07,1.68,.25,2.46,.21,.88,.46,1.76,.59,2.66,.33,2.23-.49,3.73-2.16,4.12-1.52,.35-2.88-.6-3.55-2.64-.51-1.55-.91-3.14-1.3-4.72-.31-1.26-1.03-1.82-2.34-1.69-1.35,.14-2.72,.19-4.07,.31-2.89,.26-5.78,.67-8.68,.78-2.2,.08-3.63-1.67-3.05-3.45,.43-1.34,1.48-2.03,2.81-2.28,3.04-.58,6.09-1,9.18-1.18,1.23-.07,2.55,.1,3.77-.83-.63-3.69-2.03-7.17-2.72-10.8-.56-2.95-2.12-4.69-4.73-6.12-27.75-15.24-56.74-27.31-87.47-35.23-27.54-7.1-55.4-10.91-83.87-9.77-18.09,.72-36.06,2.43-53.96,5.17-31.41,4.8-61.65,13.68-91.09,25.47-.97,.39-2.09,.58-2.76,1.48,.12,.26,.15,.5,.27,.56,3.74,2.06,7.65,3.78,11.53,5.56,1.13,.52,1.85,.03,2.61-.75,1.65-1.69,3.3-3.39,5.06-4.96,1.95-1.74,3.9-1.92,5.08-.65,1.2,1.29,.78,3.05-1.12,4.96-1.39,1.39-3.02,2.56-3.99,4.3,.69,1.02,1.79,1.12,2.59,1.7,1.39,1,1.96,2.51,1.28,3.78-.74,1.39-1.99,1.84-3.47,1.43-1.22-.34-2.42-.79-3.57-1.32-1.18-.54-2.04-.33-2.88,.64-1.31,1.51-2.69,2.96-4.06,4.41-.81,.86-1.58,1.77-2.49,2.51-1.31,1.06-2.99,1.03-3.98,.04-1.16-1.17-1.02-2.49-.17-3.72,.67-.97,1.51-1.81,2.27-2.72,1.14-1.36,2.54-2.52,3.37-4.05-.77-1.08-1.8-1.28-2.68-1.7-3.77-1.8-7.64-3.44-11.17-5.67-1.78-1.13-3.19-1.02-5.02-.2-35.3,15.79-67.23,36.75-95.93,62.63-13.57,12.24-25.4,25.98-34.88,41.66-.58,.97-1.52,1.83-1.34,3.32,3.36,.33,6.69,.62,10.01,1,9.21,1.06,18.31,2.8,27.46,4.2,6.55,1,13.1,2.01,19.62,3.19,4.01,.72,5.76,3.61,4.39,7.44-2.05,5.73-4.7,11.23-7.76,16.49-1.53,2.62-4.03,3.81-7.13,3.72-2.11-.06-4.16-.46-6.19-.9-17.41-3.74-35.03-6.27-52.56-9.32-1.34-.23-2.05,.19-2.59,1.32-.98,2.05-2.02,4.07-3,6.12-.77,1.6-1.83,3.07-2.22,4.72,.73,.74,1.47,.8,2.17,.98,8.02,1.99,16.04,3.95,24.04,6.02,7.47,1.93,14.93,3.93,22.24,6.38,4.62,1.55,6.07,4.68,4.09,8.92-2.35,5.03-5.28,9.75-8.6,14.19-1.98,2.64-4.71,3.61-7.95,3.01-1.07-.2-2.15-.43-3.16-.8-14.4-5.29-28.89-10.34-43.65-14.59-1.37-.4-2.62-1.24-4.04-1.24-4.93,5.37-15,20.8-17.75,27.19-.36,.83-.67,1.69-.97,2.54-.83,2.36-.43,4.5,1.31,6.3,5.7,5.9,11.52,11.71,19.02,15.31,18.51,8.88,37.75,12.6,58.23,8.27,11.3-2.39,22.42-5.38,33.46-8.71,8.63-2.6,17.34-4.75,26.42-5.01,6.19-.18,12.35,.18,18.51,.75,16.19,1.5,32.26,3.82,48.16,7.28,19.71,4.29,38.55,11.03,56.88,19.37,21.77,9.9,39.33,24.57,52.22,44.79,3.37,5.29,6.93,10.45,10.71,15.46,6.4,8.47,13.75,15.97,22.46,22.09,6.56,4.61,13.7,7.85,21.66,9.11,13.16,2.1,26.42,2.3,39.69,1.68,13.71-.64,27.39-1.73,41.12-1.91,22.64-.29,45.26-.1,67.84,1.7,6.16,.49,12.29,1.2,18.29,2.78,9.58,2.53,16.11,8.42,19.67,17.65,.95,2.46,1.71,4.98,2.3,7.55,2.16,9.49,3.28,19.15,4.55,28.78,2.48,18.84,4.53,37.7,4.3,56.74,0,.8-.16,1.64,.34,2.54Zm-11.93-52.71c.5-.97,.27-1.89,.14-2.76-1.1-7.55-2.15-15.1-3.39-22.63-.85-5.1-1.94-10.16-3.98-14.97-2.59-6.09-7-10.04-13.4-11.78-3.96-1.08-7.99-1.71-12.06-2.14-10.31-1.09-20.66-1.48-31.01-1.82-23.72-.78-47.43-.57-71.12,1.01-13.8,.92-27.6,1.24-41.4,.19-7.53-.57-15.01-1.51-22.14-4.22-.56-.21-1.16-.58-1.88-.19-.69,1.13-.4,2.43-.4,3.67,.06,17.45,.55,34.89,.49,52.34-.1,27.72-.79,55.43-.38,83.15,.27,17.99,.32,35.99-.45,53.97-.11,2.44,1.61,2.68,3.01,3.56,1.33,.84,2.28,.48,3.35-.53,3.18-2.99,6.61-5.69,10.07-8.34,55.86-42.93,113.2-83.77,172.55-121.76,3.89-2.49,7.81-4.94,12-6.76Zm-237.79,142.03c3.45-1.47,6.84-2.97,10.28-4.34,1.56-.62,1.95-1.64,1.78-3.2-.22-1.98-.3-3.99-.4-5.98-.62-12.16-1.16-24.32-1.84-36.48-.81-14.43-1.5-28.86-2-43.3-.45-13.17-.82-26.34-1.31-39.51-.82-22.16-1.98-44.31-1.95-66.49,.01-7-.01-14-.02-21,0-4.99-.96-9.42-4.43-13.52-5.63-6.65-9.9-14.35-14.98-21.44-8.98-12.56-20.21-22.63-33.71-30.04-18.49-10.15-38.13-17.42-58.56-22.59-.74-.19-1.55-.61-2.42,.21,.68,2.48,1.71,4.9,2.81,7.27,7.78,16.75,14.08,34.06,19.83,51.59,3.6,10.96,7.09,21.96,11.4,32.66,13.92,34.57,26,69.76,36.08,105.65,6.36,22.64,12.92,45.23,20.93,67.37,4.73,13.07,9.65,26.07,15.78,38.56,.75,1.53,1.44,3.12,2.73,4.6Zm-52.57-44.82c-.66,.44-.93,1.25-1.34,1.94-2.38,4.02-5.42,7.3-10,8.81-1.46,.48-1.77,1.66-2.14,2.89-8.12,27.53-15.5,55.23-19.2,83.78-1.92,14.8-3.39,29.59-2.11,44.54,.81,9.43,2.38,18.72,4.5,27.93,.29,1.28,.96,1.87,2.18,2.02,2.25,.28,4.5,.58,6.76,.82,4.96,.54,9.99,.56,14.91,1.43,2.2,.39,3.69-.09,5.27-1.74,6.54-6.82,13.46-13.28,20.57-19.51,2.72-2.38,5.74-3.9,9.46-3.01,1.38,.33,1.98-.34,2.64-1.31,6.85-9.98,13.18-20.26,17.92-31.44,2.29-5.41,4.47-10.87,6.74-16.43-.57-.47-.99-.82-1.4-1.17-8.73-7.31-11.87-16.92-11.27-27.94,.28-5.15,2.36-9.86,4.58-14.45,.65-1.35,.82-2.39-.11-3.74-3.84-5.55-6.73-11.63-9.42-17.8-3.05-7-5.85-14.09-8.61-21.21-.39-1-.71-1.94-1.87-2.5-8.76-4.22-17.7-8.02-26.67-11.76-.41-.17-.83-.38-1.37-.17Zm109.03,59.13c.64,2.86,.64,2.87,3.3,2.81,.91-.02,1.82-.09,2.72-.15,14.32-1.04,28.63-2.06,42.95-3.13,10.33-.77,20.65-1.65,30.93-2.89,14.7-1.78,29.25-4.51,43.77-7.39,11.77-2.34,23.35-5.32,34.71-9.23,7.43-2.56,12.6-7.32,15.98-14.28,2.28-4.68,3.84-9.6,5.05-14.65,2.61-10.88,3.91-21.98,5.46-33.04,1.41-10.03,2.1-20.05,1.07-30.15-.09-.87,.17-1.82-.59-2.73-1.08,.11-1.89,.87-2.77,1.46-10.39,7.02-20.75,14.09-31.41,20.69-25.34,15.69-51.24,30.44-76.83,45.71-24.11,14.39-48.13,28.92-71.41,44.64-1.04,.7-2.22,1.25-2.94,2.33Zm182.44-149.63c-.36,.05-.66,.01-.87,.14-2.64,1.6-5.3,3.18-7.88,4.86-44.81,29.27-88.91,59.57-131.94,91.4-16.29,12.05-32.68,23.96-48.64,36.45-.97,.76-2.12,1.4-2.77,2.86,2.45,2.48,4.38,5.39,6.52,8.26,4.5-3.1,8.66-6.02,12.87-8.85,29.43-19.76,59.96-37.73,90.53-55.65,27.98-16.4,55.8-33.06,82.64-51.3,1.82-1.23,2.57-2.48,2.31-4.68-.62-5.23-.94-10.49-1.57-15.72-.31-2.59-.25-5.26-1.21-7.78Zm-208.49,127.22c.47-1.53,.35-2.71,.35-3.88,.02-32.99,0-65.98,.05-98.97,.03-20.63,.5-41.25,.13-61.89-.19-10.17-.48-20.35,.06-30.53,.07-1.3-.51-2-1.53-2.6-6.05-3.6-11.43-8.04-16.53-12.86-.49-.46-.88-1.23-1.89-.88-.05,.41-.15,.85-.15,1.29-.03,16.9,.13,33.81,.8,50.7,.66,16.62,1.33,33.23,1.96,49.85,.62,16.34,1.11,32.7,1.83,49.04,.86,19.42,2.24,38.83,2.61,58.27,.02,.96-.21,2.01,.8,3.13,3.58-1.31,7.45-1.31,11.51-.67Zm18.97,34.84c.27-5.31-2.52-10.84-5.47-16.29-2.19-4.06-5.66-6.52-10.11-7.68-6.58-1.7-12.96-.86-19.26,1.35-5.59,1.97-9.71,5.58-12.2,10.99-.23,.49-.54,.94-.78,1.41-3.82,7.28-4.93,14.84-1.36,22.48,3.64,7.79,10.64,11.37,18.48,13.58,2.09,.59,4.36,.67,6.35,1.48,3.18,1.29,6.03,.52,8.94-.67,2.29-.94,4.33-2.28,6.21-3.89,6.63-5.69,8.97-13.18,9.2-22.77Zm-149.47,102.12c-.06,.25-.19,.51-.16,.76,1.31,9.57,5.89,17.25,13.5,23.13,2.86,2.21,6.16,3.41,9.7,4.09,2.78,.53,5.6,.65,8.4,.84,6.62,.46,13.26,.66,19.72-1.35,.77-.24,1.61-.33,2.2-1.36-.77-1.77-1.61-3.66-2.41-5.58-1.51-3.59-3.63-6.95-4.28-10.86-.32-1.88-1.35-2.47-3.16-2.56-6.07-.32-12.15-.71-18.21-1.22-7.81-.67-15.48-1.98-22.71-5.24-.78-.35-1.54-1.01-2.58-.65Zm-109.85-545.61c-.74-.92-1.5-.87-2.21-.97-9.43-1.34-18.81-3.01-28.19-4.68-8.49-1.51-17-2.85-25.57-3.8-.92-.1-1.89-.25-2.44,.7-2.16,3.74-4.13,7.58-5.9,11.47,.77,.67,1.41,.69,2.03,.79,13.43,2.16,26.89,4.17,40.22,6.92,4.35,.9,8.73,1.68,13.1,2.45,1.14,.2,2.43,.47,3.16-.86,2.16-3.96,3.97-8.08,5.79-12.03Zm218.76,475.84c-6.11,18-14.25,34.55-25.77,49.69,3.49,2.66,6.67,5.09,9.98,7.62,.88-1.14,1.51-1.91,2.09-2.71,3.07-4.29,5.97-8.69,8.68-13.21,6.56-10.95,12.08-22.37,15.65-34.67,.3-1.02,.78-2.04,.26-3.32-3.57-.7-7.11-1.79-10.89-3.39Zm-247.05-433.16c-.8-1.03-1.75-1.09-2.6-1.35-3.82-1.14-7.64-2.3-11.48-3.37-11-3.06-22.01-6.08-33.02-9.13-.97-.27-1.95-.74-2.68,.37-2.03,3.09-4.03,6.2-6,9.23,.79,.85,1.6,1,2.38,1.23,14,4.13,27.71,9.15,41.46,14.03,.85,.3,1.74,.52,2.59,.82,.99,.35,1.83,.13,2.42-.69,2.59-3.59,4.88-7.37,6.94-11.15Zm202.6,494.35c4.52,5.72,8.3,11.5,13.85,16.2,4.33-3.69,8.5-7.35,12.01-11.75-1.34-1.68-2.84-2.57-4.19-3.61-3.31-2.56-6.64-5.08-9.98-7.59-1.06-.8-2.2-1.3-3.48-.35-2.85,2.1-5.45,4.48-8.21,7.1Zm-13.01,11.71c2.97,6.51,5.85,12.83,8.92,19.55,4.07-3.41,7.78-6.53,11.86-9.95-5.71-4.54-9.47-10.3-13.17-16.48-2.77,2.34-5.28,4.49-7.61,6.88Z"/><path d="M630.31,533.76c7.08-.51,11.43,1.41,15.08,5.09,4.29,4.32,7.87,9.02,8.78,15.31,.6,4.17,.09,8.17-1.48,12.02-2.37,5.84-6.05,10.76-11.02,14.65-7.25,5.67-16.11,6.09-23.92,1.24-15.07-9.37-16.33-31.86-2.9-43.43,5.29-4.56,11.32-4.13,15.46-4.87Zm-1.37,7.87c-1.81,.11-3.63,.21-5.44,.33-1.4,.09-2.6,.62-3.7,1.53-9.71,8.03-8.5,25.01,2.26,31.52,4.72,2.85,9.86,2.69,14.3-.59,4.03-2.98,7.04-6.83,8.94-11.47,1.59-3.86,1.72-7.8-.07-11.65-3.35-7.17-8.42-10.15-16.29-9.67Z"/><path d="M780.41,513.82c-.14,2.78,.82,5.47,1.27,8.21,.68,4.11,1.56,8.19,2.35,12.29,.09,.44,.18,.89,.21,1.34,.16,2.12-.66,3.49-2.24,3.81-1.58,.31-2.94-.68-3.48-2.69-.44-1.66-.75-3.36-1.09-5.05-.95-4.8-1.87-9.61-2.82-14.41-.12-.61-.38-1.2-.58-1.83-1.16-.33-2.19,.09-3.23,.33-8.05,1.82-16.03,3.96-24.26,4.87-.9,.1-1.79,.22-2.7,.01-1.47-.34-2.51-1.07-2.54-2.72-.03-1.48,.76-2.37,2.13-2.78,.61-.18,1.23-.34,1.85-.43,8.64-1.19,17.04-3.52,25.54-5.4,1.81-.4,2.06-1.21,1.77-2.86-.93-5.18-1.69-10.38-2.56-15.57-.26-1.53-.3-3.07-.31-4.61,0-1.55,.64-2.65,2.22-2.98,1.4-.29,2.7,.59,3.09,2.39,.65,3.01,1.04,6.07,1.62,9.1,.75,3.99,1.24,8.04,2.3,11.85,1.08,.61,1.93,.2,2.8,0,4.93-1.2,9.87-2.39,14.8-3.6,.8-.2,1.58-.41,2.41-.37,1.43,.06,2.45,.7,2.78,2.13,.32,1.39-.15,2.55-1.42,3.22-.79,.42-1.68,.69-2.55,.92-4.91,1.29-9.83,2.55-14.75,3.81-.87,.22-1.78,.34-2.6,1.04Z"/><path d="M738.96,377.13c-.72,2.89-.64,5.8-1,8.65-.33,2.61-.46,5.24-.71,7.86-.07,.72-.23,1.44-.43,2.13-.44,1.51-1.46,2.28-3.04,2.12-1.51-.15-2.24-1.16-2.32-2.58-.13-2.45,.14-4.89,.35-7.33,.32-3.8,.55-7.6,.98-11.39,.2-1.79-.48-2.6-2.1-3.18-5.47-1.95-10.97-3.82-16.24-6.28-.98-.46-2.02-.85-2.83-1.61-.99-.94-1.57-2.04-.88-3.4,.66-1.29,1.81-1.79,3.18-1.52,.97,.19,1.92,.54,2.84,.92,4.69,1.96,9.52,3.55,14.3,5.26,.65,.23,1.31,.69,2.44,.2,.24-2.57,.57-5.32,.75-8.09,.28-4.17,.44-8.34,.67-12.51,.16-2.9,1.24-4.43,3.06-4.41,1.85,.02,2.9,1.53,2.86,4.48-.07,6.08-.48,12.15-1.09,18.21-.53,5.25-.61,5.27,4.2,7.05,4.51,1.68,9.04,3.28,13.54,4.95,2.72,1.01,3.78,2.47,3.21,4.26-.57,1.78-2.4,2.39-5.08,1.5-4.48-1.48-8.92-3.06-13.39-4.59-.93-.32-1.81-.86-3.28-.71Z"/><path d="M562.99,354.38c.52,1.12,1.39,1.66,2.14,2.3,4.22,3.6,8.45,7.18,12.67,10.78,.76,.65,1.61,1.23,2.11,2.11,.74,1.29,.82,2.63-.24,3.79-.98,1.08-2.25,1.15-3.49,.49-.88-.46-1.7-1.05-2.49-1.66-4.18-3.21-8.29-6.51-12.3-9.94-.82-.7-1.55-1.54-2.63-1.91-1.06,.32-1.49,1.29-2.11,2.04-3.33,4.08-6.64,8.19-9.97,12.28-.57,.7-1.16,1.41-1.85,1.99-1.14,.96-2.44,1.28-3.73,.27-1.26-1-1.32-2.37-.73-3.7,.4-.9,1.07-1.68,1.68-2.47,3.25-4.15,6.53-8.28,9.78-12.43,.6-.77,1.41-1.44,1.54-2.52-.32-1.03-1.25-1.53-1.97-2.19-2.87-2.65-5.76-5.28-8.39-8.18-.61-.67-1.23-1.37-1.66-2.15-.66-1.21-.67-2.49,.4-3.51,1.06-1,2.34-.98,3.53-.29,.77,.45,1.44,1.1,2.12,1.7,2.71,2.42,5.39,4.88,8.11,7.29,.67,.59,1.25,1.34,2.31,1.56,1.22-.9,1.98-2.27,2.9-3.48,3.02-3.99,6.11-7.92,8.6-12.27,.31-.54,.72-1.07,1.19-1.47,.8-.68,1.74-1,2.78-.5,.98,.47,1.5,1.25,1.59,2.35,.11,1.44-.48,2.66-1.13,3.86-2.27,4.16-5.16,7.91-7.93,11.74-.95,1.32-2.08,2.53-2.83,4.15Z"/><path d="M477.66,435.94c-.64-1.04-1.57-1.48-2.38-2.04-4.99-3.49-10.01-6.93-14.99-10.43-1.18-.83-2.33-1.75-3.35-2.78-1.06-1.08-1.26-2.44-.36-3.73,.94-1.34,2.33-1.29,3.68-.75,.66,.26,1.24,.74,1.84,1.15,6.01,4.09,12.01,8.18,18.02,12.27,.52,.35,1.01,.79,1.75,.79,1.13-.62,1.71-1.8,2.52-2.76,1.53-1.8,2.97-3.67,4.52-5.46,.83-.96,1.73-1.88,2.71-2.68,2.11-1.72,4.19-1.84,5.34-.43,1.12,1.38,.66,2.99-1.34,4.9-3.16,3.03-5.61,6.62-8.21,9.85,.2,1.14,.91,1.44,1.49,1.84,2.62,1.8,5.25,3.58,7.88,5.37,.83,.56,1.67,1.1,2.49,1.68,2.47,1.72,3.21,3.52,2.13,5.13-1.05,1.57-2.92,1.54-5.57-.16-3.06-1.97-6.07-3.99-9.11-5.98-1.05-.69-2.12-1.37-3.04-1.97-1.37,.26-1.77,1.26-2.35,2.03-2.94,3.93-5.83,7.89-8.75,11.83-.54,.73-1.07,1.48-1.72,2.11-1.2,1.16-2.86,1.3-3.95,.39-1.24-1.04-1.24-2.37-.64-3.71,.37-.82,.91-1.57,1.44-2.3,2.81-3.91,5.64-7.8,8.45-11.71,.52-.73,1.18-1.38,1.48-2.43Z"/><path d="M865.02,590.53c-1.86,1.48-2.94,3.29-4.25,4.9-1.9,2.32-3.7,4.71-5.56,7.07-.56,.71-1.13,1.43-1.92,1.92-1.12,.69-2.23,.76-3.29-.09-1.04-.83-1.34-1.92-.93-3.17,.34-1.05,1.05-1.9,1.71-2.77,2.92-3.82,5.83-7.64,8.69-11.38-.26-1.29-1.26-1.7-2.01-2.31-4.03-3.25-8.1-6.46-11.67-10.23-.75-.79-1.55-1.55-2.03-2.55-.64-1.35-.64-2.68,.6-3.7,1.14-.94,2.39-.8,3.52,.02,.73,.53,1.36,1.2,2,1.84,4.19,4.17,8.91,7.7,13.42,11.25,1.39-.19,1.8-1.22,2.44-1.93,2.73-3.05,5.4-6.14,8.12-9.19,.97-1.08,2.07-2.05,3.3-2.84,1.9-1.21,3.55-1.09,4.62,.31,1.02,1.32,.84,2.86-.82,4.32-3.85,3.37-6.94,7.43-10.27,11.27-.58,.66-1.37,1.22-1.45,2.41,1.78,1.94,4.14,3.32,6.21,5.05,.83,.7,1.78,1.27,2.42,2.18,.74,1.04,1.01,2.14,.27,3.3-.73,1.15-1.84,1.38-3.1,1.2-1.14-.16-1.97-.89-2.84-1.54-2.4-1.76-4.79-3.54-7.2-5.33Z"/><path d="M632.88,248.66c12.62,.51,25.09,2.22,37.41,5.02,5.22,1.18,10.42,2.4,15.63,3.63,1.05,.25,2.11,.55,3.1,.98,1.39,.6,2.11,1.71,1.88,3.27-.21,1.4-1.55,2.48-3.18,2.44-1.17-.03-2.33-.3-3.48-.54-10.73-2.25-21.44-4.64-32.32-6.15-7.9-1.1-15.82-2.12-23.81-2.29-2.28-.05-3.45-.84-3.65-2.45-.21-1.68,.92-3.03,3.02-3.57,.53-.14,1.06-.3,1.6-.32,1.27-.05,2.54-.02,3.81-.02Z"/><path d="M871.69,413.07c.25-3.3,.03-6.31,.49-9.27,.1-.63,.07-1.29,.26-1.88,.43-1.33,1.37-2.2,2.8-2.16,1.31,.04,2.13,.9,2.57,2.11,.35,.97,.22,1.98,.24,2.97,.04,2.88-.18,5.78,.18,8.8,3.87,.85,7.7,.75,11.46,1.19,1.44,.17,2.9,.22,4.31,.61,1.5,.42,2.27,1.44,2.17,3.02-.09,1.5-1.06,2.27-2.4,2.57-1.16,.26-2.35,.07-3.53-.03-3.16-.27-6.33-.54-9.5-.78-.71-.05-1.45-.18-2.15,.29-.66,.85-.43,1.88-.41,2.85,.07,3.45,.19,6.9,.3,10.35,.04,1.37,.04,2.73-.44,4.03-.42,1.13-1.3,1.78-2.48,1.81-1.19,.03-2.1-.6-2.57-1.69-.51-1.18-.6-2.46-.62-3.74-.08-3.72-.14-7.45-.28-11.17-.13-3.28-.17-3.23-3.33-3.52-3.08-.28-6.16-.47-9.25-.44-.36,0-.73,.01-1.09-.03-1.69-.21-2.86-1.3-2.93-2.7-.07-1.38,.99-2.69,2.63-3.01,2.15-.42,4.34-.28,6.52-.21,2.25,.07,4.5,.31,7.05,.03Z"/><path d="M622.79,456.74c2.43-2.65,4.81-5.27,7.22-7.85,.8-.86,1.64-1.71,2.55-2.46,1.69-1.38,3.49-1.39,4.64-.13,1.14,1.25,1.07,2.73-.4,4.39-1.98,2.25-4.08,4.39-6.09,6.61-.97,1.07-2.03,2.08-2.78,3.41,.67,1.32,1.95,1.91,2.95,2.78,.9,.77,1.88,1.43,2.75,2.23,1.44,1.33,1.76,3.13,.88,4.38-.92,1.32-2.57,1.53-4.38,.39-1.38-.87-2.64-1.92-3.98-2.86-.81-.57-1.5-1.32-2.67-1.61-1.83,1.26-2.97,3.26-4.48,4.92-.92,1.01-1.73,2.11-2.65,3.11-1.67,1.81-3.4,2.14-4.74,.97-1.31-1.15-1.35-2.69,.09-4.62,1.58-2.11,3.3-4.11,4.93-6.17,.55-.7,1.31-1.29,1.44-2.36-1.27-1.62-3.13-2.65-4.66-4.05-1.14-1.04-2.36-2-3.48-3.06-2.14-2.03-2.51-3.74-1.19-5.16,1.23-1.34,2.87-1.17,5.07,.56,2.14,1.68,4.25,3.41,6.4,5.09,.7,.55,1.34,1.24,2.59,1.48Z"/><path d="M421.08,333.72c1.69-2.82,3.26-5.47,4.86-8.1,.9-1.47,1.83-2.94,3.09-4.13,1.33-1.26,3.05-1.44,4.2-.53,1.15,.92,1.36,2.61,.27,4.18-1.82,2.61-3.52,5.29-5.06,8.07-.48,.86-1.11,1.67-1.24,2.71,.54,1,1.62,1.1,2.51,1.47,2.44,.99,4.93,1.84,7.34,2.9,1.87,.83,2.54,2.41,1.93,3.95-.56,1.42-2,2.09-3.91,1.48-3.02-.96-5.98-2.13-8.97-3.2-2.32-.83-2.34-.83-3.58,1.35-1.39,2.45-2.74,4.91-4.13,7.36-.4,.71-.8,1.44-1.35,2.03-1.05,1.13-2.4,1.36-3.71,.56-1.22-.75-1.57-1.99-1.04-3.33,.47-1.18,1.09-2.29,1.65-3.43,1.23-2.5,2.85-4.81,3.85-7.54-1.72-1.39-3.78-1.95-5.52-3.06-1.14-.73-2.34-1.41-3.39-2.26-1.15-.93-1.65-2.18-.92-3.63,.64-1.26,2.21-1.78,3.8-1.14,1.09,.43,2.07,1.12,3.13,1.65,1.93,.97,3.78,2.13,6.2,2.64Z"/><path d="M570.97,246.74c.95,0,1.86-.07,2.76,.02,1.5,.15,2.56,.9,2.82,2.48,.25,1.52-.49,2.74-2.06,3.44-.76,.34-1.57,.41-2.38,.53-11.48,1.72-23.06,2.82-34.41,5.41-4.07,.93-8.14,1.84-11.96,3.63-1.85,.87-3.26,.52-4.11-.78-.82-1.26-.53-2.81,.85-4.16,1.12-1.1,2.53-1.75,3.96-2.35,6.33-2.63,12.98-4.1,19.69-5.24,8.24-1.4,16.56-2.15,24.83-2.99Z"/><path d="M861.51,671.26c-1.75,1.14-2.88,2.93-4.3,4.43-1.94,2.05-3.77,2.56-5.16,1.37-1.44-1.23-1.19-2.88,.74-5.24,1.48-1.82,3.24-3.42,4.45-5.39-.24-1.35-1.25-2.08-1.93-3.02-1.32-1.84-2.71-3.64-3.78-5.65-.6-1.13-1.07-2.29-1.07-3.61,0-2.13,.85-3.43,2.47-3.67,1.59-.23,2.65,.54,3.29,2.55,1.03,3.21,3.3,5.56,5.24,8.07,1.45-.07,1.96-1.17,2.73-1.88,1.34-1.23,2.57-2.57,3.9-3.8,2-1.85,3.73-2.06,4.99-.69,1.21,1.31,.9,3.13-.92,5.03-1.32,1.38-2.7,2.69-4.03,4.06-.69,.71-1.5,1.32-1.99,2.39,.27,1.33,1.46,2.14,2.24,3.22,.58,.81,1.3,1.54,1.78,2.4,.79,1.43,.47,3.14-.59,3.97-1.15,.89-2.54,.76-3.95-.47-.68-.59-1.24-1.32-1.87-1.98-.68-.71-1.19-1.62-2.24-2.07Z"/><path d="M396.79,444.52c-.51-1.06-1.47-1.47-2.23-2.1-.63-.52-1.3-.98-1.94-1.5-2.33-1.89-2.91-3.53-1.8-5.01,1.07-1.44,3.06-1.34,5.34,.24,1.33,.92,2.51,2.09,4.02,2.69,1.17-.26,1.5-1.31,2.06-2.09,1.17-1.61,2.24-3.3,3.43-4.9,1.64-2.21,3.28-2.72,4.77-1.59,1.51,1.14,1.52,2.71-.02,5.07-1.09,1.67-2.25,3.29-3.36,4.95-.5,.75-1.14,1.42-1.38,2.52,.74,1.29,2.22,1.91,3.36,2.89,.83,.7,1.76,1.3,2.52,2.06,1.32,1.33,1.46,2.69,.56,3.9-.91,1.22-2.29,1.51-3.89,.62-1.18-.66-2.25-1.52-3.38-2.28-.88-.6-1.66-1.39-2.83-1.73-1.84,1.72-2.85,3.99-4.28,5.93-.7,.95-1.28,1.99-2.05,2.87-1.15,1.32-2.7,1.57-3.88,.77-1.18-.8-1.59-2.3-.75-3.88,.98-1.84,2.21-3.53,3.28-5.32,.83-1.38,1.99-2.58,2.41-4.13Z"/><path d="M636.2,321.52c-1.91,2.59-3.78,5.15-5.68,7.68-.6,.8-1.19,1.62-1.91,2.29-1.03,.96-2.29,1.15-3.5,.39-1.27-.8-1.34-2.06-1-3.38,.26-.99,.92-1.76,1.49-2.57,1.87-2.65,3.75-5.29,5.67-7.99-1.38-1.57-2.98-2.47-4.37-3.61-1.05-.87-2.17-1.66-2.99-2.77-.87-1.18-1.22-2.45-.19-3.74,.9-1.13,2.46-1.37,3.93-.41,1.67,1.09,3.2,2.38,4.82,3.54,.79,.57,1.5,1.32,2.51,1.47,1.16-.61,1.69-1.72,2.5-2.56,.63-.65,1.18-1.39,1.87-1.97,1.41-1.19,2.83-1.28,3.95-.35,1.14,.95,1.33,2.67,.34,4.2-.53,.84-1.24,1.56-1.85,2.35-.49,.64-1.13,1.19-1.36,2.17,.69,1.25,2.09,1.82,3.17,2.73,.91,.75,1.9,1.42,2.72,2.25,1.04,1.06,1.41,2.33,.5,3.7-.85,1.28-2.26,1.62-3.85,.8-1.12-.58-2.12-1.39-3.18-2.09-1.05-.69-1.95-1.63-3.62-2.14Z"/><path d="M914.54,506.22c.54,1.3,1.84,1.93,2.73,2.94,1.38,1.57,1.59,3.2,.53,4.39-1.07,1.21-2.66,1.19-4.42-.02-1.19-.82-2.06-2.06-3.59-2.69-2.09,1.38-3.62,3.43-5.45,5.14-.99,.93-1.83,2.03-3,2.76-1.2,.75-2.42,.86-3.52-.13-1.18-1.07-1.28-2.41-.47-3.7,.57-.91,1.33-1.72,2.07-2.52,1.79-1.92,3.63-3.79,5.45-5.69-.73-1.77-2.24-2.57-3.35-3.72-.95-.98-2.05-1.82-2.76-3-.77-1.29-.9-2.64,.27-3.74,1.15-1.09,2.55-1.01,3.75-.13,1.31,.97,2.45,2.16,3.71,3.2,.97,.8,1.72,1.88,3.15,2.38,1.47-1.23,2.96-2.53,4.5-3.77,1.2-.97,2.46-1.9,3.99-2.28,1.71-.42,3.1,.15,3.76,1.43,.66,1.29,.28,2.62-1.28,3.74-1.48,1.06-3,2.05-4.32,3.31-.64,.61-1.48,1.08-1.74,2.09Z"/><path d="M705.96,561.63c1.41-.96,2.11-2.26,3.08-3.33,.55-.6,1.05-1.26,1.66-1.8,1.29-1.14,2.87-1.27,3.97-.41,1.08,.84,1.41,2.52,.55,3.95-.74,1.24-1.73,2.32-2.61,3.47-.66,.86-1.44,1.64-1.92,2.78,.38,1.41,1.68,2.21,2.57,3.31,.68,.84,1.54,1.59,2.05,2.53,.69,1.27,.73,2.66-.47,3.74-1.21,1.09-2.54,.86-3.72-.05-.86-.66-1.58-1.49-2.38-2.23-.59-.55-1.02-1.29-1.9-1.53-.91,.17-1.16,1.04-1.65,1.65-.62,.78-1.13,1.65-1.8,2.39-1.21,1.34-2.95,1.6-4.13,.72-1.08-.81-1.38-2.39-.55-3.95,.72-1.36,1.56-2.67,2.51-3.88,1.03-1.33,.97-2.36-.27-3.51-1.13-1.04-2.13-2.23-3.15-3.39-.48-.54-.97-1.11-1.29-1.74-.67-1.3-.83-2.7,.39-3.73,1.19-1,2.58-.81,3.74,.14,.98,.8,1.83,1.76,2.74,2.64,.77,.75,1.44,1.62,2.58,2.23Z"/><path d="M369.57,347.31c-.8,2.07-1.47,4.03-2.31,5.91-.55,1.23-1.57,2.05-3.03,1.83-1.18-.18-1.89-.99-2.23-2.12-.31-1.03,.14-1.96,.37-2.92,.33-1.38,1.23-2.64,.98-4.15-.79-.74-1.82-.83-2.73-1.2-.92-.38-1.88-.7-2.6-1.43-.89-.89-1.41-1.92-.83-3.18,.56-1.21,1.58-1.64,2.89-1.59,.94,.04,1.75,.45,2.61,.72,.95,.29,1.86,.7,3.01,.45,.93-1.28,1.23-2.92,1.98-4.35,1.05-1.99,2.58-2.75,4.13-2.04,1.39,.64,1.87,2.23,1.23,4.24-.36,1.12-.8,2.2-1.32,3.6,1.41,1.34,4.57,1.91,3.25,4.88-1.02,2.29-3.21,1.46-5.39,1.35Z"/><path d="M729.34,525.5c-1.85-.02-3.06-1.15-2.96-2.76,.11-1.76,2.09-3.2,4.4-3.2,1.9,0,3,1.04,2.91,2.75-.1,1.79-2.06,3.25-4.34,3.22Z"/><path d="M595.58,434.84c-.11,2.17-1.28,3.49-3.04,3.43-1.77-.06-2.84-1.52-2.7-3.67,.15-2.16,1.35-3.49,3.08-3.42,1.82,.07,2.77,1.39,2.66,3.67Z"/><path d="M562.8,466.35c.06,2.02-1.72,4.25-3.43,4.31-1.45,.05-2.74-1.25-2.77-2.79-.04-1.96,1.8-4.27,3.45-4.32,1.44-.04,2.7,1.25,2.75,2.8Z"/><path d="M739.5,424.2c-.05,2.23-1.58,4.06-3.29,3.93-1.51-.11-2.5-1.44-2.48-3.32,.03-2.23,1.26-3.85,2.95-3.9,1.65-.05,2.86,1.38,2.82,3.29Z"/><path d="M695.61,363.92c-1.81-.03-2.96-1.14-2.89-2.82,.08-1.83,1.76-3.07,4.09-3.01,1.89,.05,3.01,1.1,2.92,2.76-.09,1.74-1.92,3.1-4.12,3.07Z"/><path d="M441.5,410.45c-2.08,.02-3.35-.98-3.4-2.69-.05-1.8,1.28-2.92,3.48-2.92,2.09,0,3.39,1.01,3.43,2.67,.05,1.75-1.34,2.91-3.51,2.93Z"/><path d="M593.65,523.67c-.06,1.78-1.99,3.72-3.69,3.71-1.49-.01-2.71-1.3-2.67-2.82,.05-1.73,2.02-3.7,3.71-3.71,1.5,0,2.69,1.27,2.65,2.82Z"/><path d="M771.77,469.28c.02,2.12-1.29,3.7-3.09,3.73-1.59,.02-2.66-1.05-2.72-2.72-.08-2.14,1.39-4.07,3.12-4.09,1.55-.02,2.67,1.26,2.69,3.08Z"/><path d="M849.66,617.73c.04,1.56-1.12,2.89-2.57,2.97-1.65,.09-3.18-1.61-3.29-3.65-.09-1.77,.81-2.95,2.34-3.06,1.77-.13,3.47,1.69,3.52,3.75Z"/><path d="M703.42,471.82c-1.94,0-3.48-1.37-3.45-3.06,.03-1.62,1.22-2.65,3.09-2.69,2.03-.04,3.59,1.17,3.64,2.84,.04,1.56-1.48,2.91-3.28,2.92Z"/><path d="M889.99,563.71c-1.6,.05-2.79-1.08-2.79-2.63,0-1.79,1.72-3.66,3.35-3.64,1.46,.02,2.67,1.32,2.65,2.86-.03,1.75-1.54,3.36-3.21,3.41Z"/><path d="M593.92,383.59c.01,1.67-1,2.77-2.59,2.81-1.73,.05-3.16-1.51-3.1-3.36,.05-1.58,1.22-2.71,2.77-2.68,1.66,.03,2.91,1.41,2.92,3.23Z"/><path d="M297.42,461.15c0,1.83-1.06,3.09-2.64,3.15-1.65,.06-2.78-1.1-2.83-2.91-.05-1.84,1.18-3.33,2.78-3.34,1.53-.01,2.69,1.34,2.69,3.11Z"/><path d="M856.16,503.05c-1.63-.02-2.75-1.19-2.68-2.77,.08-1.63,1.56-3.06,3.22-3.1,1.61-.04,2.8,1.09,2.81,2.65,0,1.74-1.56,3.24-3.35,3.22Z"/><path d="M819.3,373.82c.03-1.57,1.01-2.57,2.52-2.59,1.71-.03,3.31,1.58,3.28,3.3-.03,1.55-1.26,2.65-2.87,2.57-1.69-.09-2.97-1.52-2.93-3.27Z"/><path d="M918.73,515.72c-.02-1.64,1.06-2.78,2.64-2.8,1.66-.02,2.99,1.39,3,3.18,.01,1.61-1.1,2.78-2.66,2.8-1.66,.02-2.97-1.37-2.99-3.19Z"/><path d="M605.97,275.69c1.69-.01,3.07,1.44,3.01,3.17-.05,1.46-1.14,2.6-2.55,2.67-1.71,.09-3.07-1.25-3.09-3.06-.02-1.71,.99-2.78,2.63-2.79Z"/><path d="M535.48,384.17c1.61-.05,2.77,1.06,2.77,2.64,0,1.67-1.48,3.2-3.05,3.16-1.36-.03-2.55-1.2-2.64-2.58-.11-1.69,1.24-3.17,2.93-3.22Z"/><path d="M509.4,290.03c1.58-.02,2.75,1.09,2.79,2.65,.04,1.6-1.2,2.89-2.85,2.97-1.64,.08-3.01-1.2-2.98-2.78,.03-1.5,1.45-2.82,3.04-2.84Z"/><path d="M793.67,322.96c-.06,1.62-1.4,2.79-3.07,2.7-1.53-.08-2.77-1.31-2.78-2.75-.01-1.6,1.57-2.98,3.27-2.84,1.55,.13,2.64,1.35,2.58,2.9Z"/><path d="M359.15,449.53c-1.66-.19-2.96-1.77-2.79-3.39,.15-1.43,1.37-2.44,2.81-2.31,1.74,.15,3.16,1.9,2.92,3.58-.21,1.43-1.41,2.3-2.93,2.13Z"/><path d="M503.38,408.98c.04,1.73-1.27,3.31-2.81,3.39-1.44,.07-2.67-1.18-2.71-2.76-.04-1.75,1.27-3.32,2.82-3.38,1.46-.06,2.65,1.17,2.69,2.76Z"/><path d="M665.78,385.36c-1.76-.02-2.98-1.17-2.98-2.81,0-1.6,1.06-2.62,2.76-2.65,1.88-.04,3.19,1.19,3.12,2.94-.06,1.55-1.21,2.55-2.9,2.53Z"/><path d="M651.71,481.96c.03,1.53-1.37,2.88-2.99,2.9-1.57,.02-2.79-1.15-2.81-2.69-.02-1.61,1.29-2.88,2.96-2.88,1.56,0,2.81,1.18,2.84,2.67Z"/><path d="M892.71,490.59c-1.79-.04-3.01-1.15-3.04-2.76-.03-1.61,1.02-2.62,2.73-2.64,1.87-.01,3.23,1.22,3.2,2.91-.03,1.57-1.14,2.53-2.89,2.49Z"/><path d="M927.85,487.95c1.62,.06,2.71,1.25,2.6,2.82-.11,1.56-1.54,2.78-3.17,2.71-1.59-.07-2.71-1.3-2.6-2.85,.12-1.59,1.48-2.74,3.16-2.68Z"/><path d="M903.31,420.32c-.04,1.75-1.39,3.09-3.1,3.06-1.47-.02-2.59-1.11-2.6-2.54-.02-1.69,1.65-3.31,3.32-3.23,1.48,.07,2.41,1.13,2.37,2.71Z"/><path d="M410.18,367.22c-.05,1.48-1.12,2.55-2.57,2.57-1.63,.02-3.24-1.53-3.17-3.05,.07-1.43,1.46-2.64,2.94-2.55,1.62,.09,2.84,1.42,2.79,3.03Z"/><path d="M893.44,603.62c.05,1.65-1.11,2.94-2.75,3.04-1.61,.1-2.83-.98-2.87-2.52-.04-1.6,1.5-3.15,3.09-3.12,1.41,.02,2.48,1.12,2.53,2.61Z"/><path d="M466.42,463.67c-.05,1.52-1.12,2.64-2.5,2.64-1.58,0-2.97-1.6-2.86-3.3,.1-1.51,1.15-2.46,2.68-2.42,1.63,.05,2.75,1.32,2.69,3.07Z"/><path d="M691.69,302.87c-.03,1.68-1.09,2.74-2.7,2.71-1.55-.03-2.66-1.19-2.67-2.79-.02-1.65,1.34-3.03,2.86-2.92,1.45,.1,2.54,1.4,2.5,3Z"/><path d="M327.88,480.59c-.04,1.68-1.08,2.8-2.64,2.83-1.57,.02-2.72-1.18-2.65-2.77,.07-1.6,1.53-3.02,2.99-2.9,1.37,.11,2.34,1.3,2.3,2.84Z"/><path d="M849,649.12c-1.38,0-2.56-1.16-2.62-2.58-.07-1.56,1.32-3.06,2.82-3.04,1.33,.02,2.57,1.24,2.63,2.6,.07,1.56-1.3,3.02-2.84,3.01Z"/><path d="M772.93,388.39c0,1.51-1.03,2.64-2.45,2.69-1.66,.05-3.07-1.43-3.01-3.15,.06-1.53,1.1-2.53,2.6-2.51,1.62,.03,2.86,1.31,2.86,2.97Z"/><path d="M849.29,418.3c.03,1.61-1.12,2.84-2.61,2.8-1.43-.04-2.68-1.34-2.71-2.83-.03-1.53,1.19-2.82,2.66-2.8,1.47,.02,2.64,1.26,2.67,2.83Z"/><path d="M452.02,350.69c-.02,1.48-1.34,2.81-2.76,2.79-1.45-.02-2.66-1.33-2.64-2.88,.02-1.56,1.24-2.81,2.72-2.77,1.45,.04,2.7,1.37,2.68,2.86Z"/><path d="M739.45,332.72c-.06,1.38-1.48,2.69-2.89,2.67-1.46-.03-2.77-1.38-2.71-2.79,.06-1.39,1.46-2.69,2.89-2.67,1.44,.02,2.77,1.39,2.71,2.8Z"/><path d="M490.15,358.51c1.63,0,2.86,1.16,2.81,2.67-.04,1.45-1.43,2.7-2.92,2.63-1.37-.07-2.64-1.29-2.7-2.61-.07-1.46,1.21-2.69,2.81-2.7Z"/><path d="M840.38,556.27c-.06,1.42-1.2,2.47-2.68,2.45-1.54-.01-2.74-1.21-2.76-2.73-.01-1.55,1.22-2.7,2.8-2.6,1.48,.09,2.7,1.42,2.64,2.88Z"/><path d="M759.3,584.72c-.03,1.52-1.24,2.71-2.76,2.71-1.53,0-2.7-1.2-2.68-2.75,.02-1.52,1.22-2.7,2.76-2.7,1.55,0,2.71,1.19,2.68,2.74Z"/><path d="M538.45,328.51c0,1.48-1.03,2.58-2.47,2.63-1.61,.05-2.96-1.26-2.92-2.85,.04-1.45,1.12-2.44,2.65-2.44,1.63,0,2.74,1.07,2.75,2.66Z"/><path d="M580.44,317.15c.04,1.59-1.07,2.85-2.56,2.89-1.46,.04-2.75-1.27-2.71-2.76,.04-1.47,1.34-2.76,2.77-2.75,1.42,.01,2.46,1.1,2.5,2.61Z"/><path d="M819.88,445.87c.02,1.65-1.06,2.73-2.67,2.68-1.55-.04-2.69-1.26-2.63-2.8,.05-1.44,1.14-2.51,2.59-2.55,1.59-.05,2.7,1.05,2.71,2.67Z"/><path d="M790.94,568.38c-1.42,.08-2.57-1.03-2.62-2.52-.05-1.51,.93-2.65,2.39-2.78,1.49-.13,2.7,.88,2.8,2.32,.1,1.49-1.11,2.89-2.56,2.97Z"/><path d="M650.19,432.13c-.08,1.46-1.2,2.58-2.59,2.57-1.44-.01-2.73-1.4-2.64-2.84,.09-1.48,1.45-2.65,2.94-2.52,1.45,.13,2.38,1.26,2.29,2.79Z"/><path d="M599.13,489.08c-1.45-.06-2.48-1.2-2.45-2.71,.03-1.46,1.17-2.66,2.55-2.65,1.45,0,2.71,1.4,2.62,2.9-.09,1.45-1.27,2.52-2.71,2.46Z"/><path d="M726.95,274.53c0,1.39-1.18,2.58-2.57,2.6-1.52,.02-2.69-1.23-2.62-2.79,.07-1.5,1.15-2.49,2.66-2.42,1.44,.06,2.54,1.2,2.54,2.62Z"/><path d="M871.75,391.77c-1.47,.02-2.63-1.05-2.64-2.45,0-1.33,1.21-2.58,2.56-2.62,1.39-.04,2.57,1.1,2.6,2.52,.03,1.46-1.03,2.53-2.52,2.55Z"/><path d="M565,278.86c-1.51,.06-2.59-.93-2.66-2.43-.06-1.46,.95-2.66,2.36-2.78,1.48-.13,2.86,1.12,2.86,2.59,0,1.38-1.15,2.56-2.56,2.62Z"/><path d="M822.4,506.7c.07,1.37-1.06,2.66-2.42,2.77-1.37,.11-2.63-1.03-2.72-2.43-.09-1.43,.98-2.64,2.4-2.73,1.43-.09,2.67,.99,2.74,2.39Z"/><path d="M683.18,515.22c1.44,.05,2.47,1.18,2.42,2.66-.05,1.46-1.21,2.57-2.59,2.49-1.32-.08-2.53-1.39-2.5-2.7,.04-1.38,1.25-2.5,2.67-2.45Z"/><path d="M404.47,317.74c.05,1.41-1.11,2.57-2.55,2.58-1.38,0-2.4-.95-2.49-2.32-.09-1.41,1.02-2.72,2.36-2.8,1.29-.07,2.63,1.2,2.67,2.54Z"/><path d="M437.94,310.59c-.05,1.46-1.26,2.61-2.64,2.49-1.35-.12-2.49-1.47-2.38-2.82,.11-1.32,1.22-2.32,2.55-2.31,1.46,.01,2.51,1.14,2.46,2.64Z"/><path d="M485.14,285.51c-1.44,.06-2.67-1.06-2.7-2.45-.04-1.39,1.15-2.57,2.59-2.56,1.38,0,2.42,.97,2.52,2.32,.11,1.48-.92,2.63-2.4,2.69Z"/><path d="M457.38,298.8c0,1.4-1.22,2.51-2.71,2.45-1.43-.05-2.39-1.03-2.39-2.43,0-1.49,1.11-2.52,2.65-2.45,1.38,.06,2.45,1.12,2.45,2.43Z"/><path d="M891.53,527.66c-1.53-.02-2.51-1.05-2.45-2.58,.05-1.46,1.16-2.54,2.61-2.51,1.43,.03,2.55,1.2,2.5,2.63-.04,1.43-1.18,2.48-2.65,2.47Z"/><path d="M514.65,459.78c-1.18,.07-2.52-1.1-2.64-2.32-.14-1.32,1.12-2.7,2.49-2.71,1.27,0,2.44,1.13,2.48,2.42,.03,1.26-1.1,2.53-2.32,2.61Z"/><path d="M758.54,306.65c-1.46-.02-2.5-1.16-2.42-2.64,.07-1.36,1.12-2.37,2.44-2.35,1.43,.02,2.49,1.19,2.42,2.66-.07,1.39-1.06,2.34-2.44,2.32Z"/><path d="M879.48,450.27c.05,1.24-1.11,2.45-2.36,2.47-1.22,.02-2.55-1.21-2.44-2.39,.12-1.31,.88-2.14,2.24-2.27,1.35-.13,2.51,.89,2.56,2.19Z"/><path d="M366.05,361.92c.06,1.24-.86,2.34-2.06,2.45-1.23,.11-2.56-1.09-2.57-2.3-.01-1.13,1.09-2.23,2.28-2.28,1.26-.05,2.27,.87,2.34,2.14Z"/><path d="M765.5,683.33c-.08,1.71-.62,2.94-2.17,3.29-1.57,.36-2.76-.52-3.2-1.88-1.17-3.6-2.13-7.28-2.69-11.03-.25-1.65,.75-3.03,2.15-3.31,1.59-.32,2.76,.49,3.22,1.86,1.24,3.67,2.1,7.46,2.69,11.07Z"/><path d="M755.9,687.89c.12,2.14-.48,3.18-1.85,3.65-1.27,.44-2.46-.03-3.08-1.11-1.79-3.14-3.24-6.45-4.07-9.98-.3-1.26,.35-2.3,1.53-2.89,1.21-.61,2.28-.21,3.24,.61,.07,.06,.14,.12,.19,.19,2.1,3.12,3.1,6.67,4.03,9.53Z"/><path d="M775.21,677.36c-.1,1.43-.57,2.55-2.05,2.89-1.4,.32-2.61-.19-3.19-1.46-1.42-3.12-2.69-6.31-3.41-9.68-.31-1.44,.19-2.75,1.72-3.28,1.32-.46,2.65-.18,3.31,1.1,1.7,3.3,2.72,6.84,3.62,10.43Z"/><path d="M792.08,668.56c0,1.9-.73,3.08-2.09,3.39-1.39,.32-2.85-.63-3.33-2.49-.77-2.97-1.6-5.95-1.65-9.05-.03-2.03,.86-3.18,2.41-3.35,1.44-.16,2.76,.68,3.12,2.42,.63,3,1.35,6,1.53,9.08Z"/><path d="M590.23,834.64c.16-4.49,3.2-8.91,8.38-12.26,8.89-5.75,19.99,3.8,19.84,11.9-.12,6.59-4.7,13.43-10.93,15.47-8.61,2.82-17.37-3.94-17.29-15.11Zm6.32,1.42c0,3.53,1.67,6.16,4.53,7.36,3.02,1.26,5.49,.12,7.71-1.88,1.24-1.12,2.08-2.53,2.59-4.11,1.33-4.07-.24-7.47-4.42-9.64-2.99-1.56-5.88-.64-8.42,2.69-1.3,1.71-2.09,3.61-1.99,5.58Z"/></svg>