<?xml version="1.0" encoding="utf-8"?>
<!-- Generator: Adobe Illustrator 27.1.1, SVG Export Plug-In . SVG Version: 6.00 Build 0)  -->
<svg version="1.1" id="Layer_1" xmlns="http://www.w3.org/2000/svg" xmlns:xlink="http://www.w3.org/1999/xlink" x="0px" y="0px"
	 viewBox="0 0 1080 1080" style="enable-background:new 0 0 1080 1080;" xml:space="preserve">
<style type="text/css">
	.st0{fill:#FFFFFF;}
</style>
<g>
	<path class="st0" d="M0,1080C0,720,0,360.1,0,0c359.9,0,719.9,0,1080,0c0,359.9,0,720,0,1080C720.1,1080,360.1,1080,0,1080z
		 M806.6,341.2c9.6,15.8,12.5,17.1,12.6,36.5c0,4.7,2.3,9.3,3.5,13.9c0.8,2.9,1.7,5.7,2.3,8.6c1.1,5,1.4,10.3,3,15.1
		c3.1,9.5,10.3,13.3,20,15.5c14.9,3.4,28.8-2,35.5-15.1c2.2-4.4,5.6-8.2,8.1-12.5c4.8-8.2,10.6-17,7.4-26.6
		c-2.8-8.4-6.1-16.5-6.8-25.5c-0.4-5.5-1.9-11-2.7-16.5c-0.6-4.1-1.3-8.2-1.5-12.4c-0.3-6.4-2.2-13.6,0.1-19
		c5.6-13.3,7.3-26.9,7.4-41c0-2.7,0.7-5.9,2.3-7.9c2.1-2.5,5.5-3.9,8.1-6c7.6-6.2,12.6-13.5,9.4-23.8c-1.1-3.5-3.1-6.6-4.3-10.1
		c-1.1-3.1-1.9-6.3-2.6-9.5c-1.3-5.6-1.8-11.5-3.9-16.8c-5.3-13.2-9-26.5-6.6-40.8c0.3-1.9,0.5-3.9,1.4-5.5
		c7.6-12.1,13-24.7,12-39.4c-0.7-9.9-1.4-19.9-2.4-29.8c-0.3-3.1,1.3-8-3-8.4c-2.4-0.2-5.3,3.6-7.9,5.6c-0.2,0.2-0.4,0.5-0.5,0.9
		c-3,7.7-6.4,15.4-8.9,23.3c-3.1,9.8-10,16.8-16.3,24.4c-0.4-9.9-2.1-19.2-6.9-27.6C858,78,848.1,68.4,831.6,68.8
		c-1.6,0-3.6-0.8-4.8-1.9c-4.9-4.4-10.7-5.9-17.1-5.7c-11.2,0.3-22.3,0.9-33.5,0.9c-18.4,0-35.3,4.4-50.1,15.6
		c-8.9,6.7-17.3,14.1-26.2,20.8c-10,7.5-17.4,16.7-23.1,27.8c-6.1,11.7-13,22.8-19.2,34.4c-4.5,8.5-8.6,17.2-12.6,26
		c-3.2,7-4.8,14.8-12.4,19.1c-8.1,4.6-15.9,9.7-23.8,14.7c-18.2,11.7-36.5,23.3-54.4,35.3c-11.5,7.7-23.1,14.4-37.7,14
		c-12.3-0.3-24.6,0-36.9,0.2c-5.9,0.1-11.1-0.5-14.9-5.9c-1.8-2.5-4.6-4.3-7-6.4c-10.9-9.3-21.9-18.5-32.6-27.9
		c-3.6-3.1-6.6-6.9-10.3-10.9c13.2-2.9,25.6-2.7,37.7,0.8c20.1,5.7,39.7,5.9,58.5-4.8c1-0.6,1.9-1.4,2.8-2.1c-0.1-0.5-0.1-1-0.2-1.6
		c-3.8-0.8-7.6-1.5-11.3-2.5c-7.8-2.2-16.3-3.3-23.2-7.1c-13.1-7.2-25.7-15.4-37.9-24.1c-13.3-9.5-25.2-20.4-33.6-35
		c-6.2-10.8-12.9-22-25.1-27.8c-6.9-3.2-14-6-21-9.2c-9-4.2-18.3-3.3-27.3-1c-14.4,3.8-23.3,14.8-30.3,26.8
		c-4.8,8.1-8.5,17.6-9.8,26.9c-1.7,11.6-0.4,23.6-0.5,35.4c0,3.3-0.4,6.7-1.1,9.9c-2.6,11.2-5.7,22.2-8.2,33.4
		c-2.6,11.7-2.1,23.2,4.3,33.8c0.9,1.5,1.6,3.2,1.8,3.5c-7.3,5.8-14.3,10.7-20.5,16.5c-4.7,4.4-8,10.2-12.5,14.8
		c-8.2,8.4-15.9,16.9-19.6,28.5c-2.9,8.9-8.5,16.9-9,26.8c-0.2,4.2-1.5,8.6-3.2,12.5c-7.3,16.2-12.6,32.7-12.2,50.8
		c0.5,27.2-3.5,54.1-7.3,81c-2.2,15.7-4.2,31.4-1.3,47.2c1.4,7.3,4.3,14.6,4.3,22c-0.1,13.2-0.6,26.7-3.2,39.6
		c-2.6,12.4-6.9,24.8-12.7,36.1c-9.1,17.7-10.1,36.3-10.3,55.3c0,1.6,0.8,3.2,1,4.9c0.4,4,1,8,0.9,12c-0.4,11.9-2.7,24-1.4,35.7
		c1.9,15.6,1,31.1-0.9,46.2c-1.8,13.8-7.5,27.2-11.4,40.7c-1.8,6.2-4.2,12.4-5,18.7c-1.3,10.7,0.7,20.6,10.8,27.1
		c1.1,0.7,1.6,2.7,1.8,4.3c1.4,8.3-1.1,16.1-3.4,24c-1,3.5-0.5,7.7,0.4,11.4c1.5,6.2,3.6,12.4,5.8,18.4c0.8,2.2,2.4,5.2,4.3,5.7
		c3.7,1.1,7.9,1,11.9,1.1c13.1,0.3,26.2,0.5,39.3,0.8c4.4,0.1,5.9-2.2,4.7-6c-2.3-7.4-4.9-14.7-7.4-22.1c-1.1-3.3-3-6.4-3.5-9.8
		c-1.5-10.8-6.2-19.7-14.7-26.4c-4.3-3.4-6.7-7.6-7.1-12.7c-0.5-6.2,0-12.5,0.1-18.8c0-5.9,0.8-12-0.2-17.8
		c-1.6-8.9-2.7-17.6-1-26.7c2.2-11.8,3.4-23.7,5.1-35.6c1.5-10.3,2-20.9,6.7-30.5c3.5-7.1,6.3-14.6,9.5-21.9c0.9-2,1.5-4.2,2.8-5.8
		c7.7-9.7,8.8-21.2,9.9-32.9c0.6-6.4,1.6-12.8,3-19c1.7-7.3,3.8-14.4,6.2-21.5c0.9-2.7,2.7-5.3,4.4-7.7c4-5.7,9.1-10.8,12.2-16.9
		c9.2-18.8,17.1-38.3,30-55.1c2.2-2.9,3.6-6.3,5.4-9.5c1.6-2.9,2.6-6.2,4.6-8.7c10.1-12.7,21.9-24.2,29.4-39
		c0.9-1.9,2.5-4.4,4.2-4.8c4.5-1.2,11-3.7,13.7-1.6c10.2,7.6,19.6,16.4,28.5,25.5c7.9,8,14.5,17.4,22.3,25.5
		c5.5,5.7,8.5,11.8,7.7,19.6c-1.1,11.3-2.1,22.5-3.2,33.8c-0.3,2.5-0.6,5.1-1.8,7.3c-5.7,11.1-11,22.4-17.7,32.9
		c-7.9,12.3-14.4,25.1-18.6,39.1c-1.9,6.3-1.5,13.1,3.7,17.7c8.1,7.3,15.5,14.9,21.1,24.3c0.1,0.1,0.2,0.3,0.3,0.4
		c5.4,7.9,11.6,15.5,16.1,23.9c8.2,15.4,14.5,32.1,27,44.7c9.9,9.8,14.8,21.8,19.6,34.3c3.7,9.9,8.5,19.4,13.3,28.9
		c1.7,3.4,6.9,6.3,6.7,9.3c-0.2,3.4-4.5,6.6-7,9.9c-3.4,4.6-4.5,9-1.7,14.8c2.5,5.3,3.9,11.3,4.6,17.1c1.1,9.7,4.9,17.2,12.7,23.3
		c8.9,6.8,19.1,9.3,29.7,10.6c9.4,1.1,14.9-4,15.7-13.4c0.4-5.1-0.1-10.3-0.5-15.4c-0.6-7.1-1.4-14.2-2.5-21.3
		c-1.4-9.6-3.4-18.9-10-26.7c-5.1-6-8.4-13-8.4-21.4c0.1-6.1-1-12.2-0.9-18.3c0.1-9.9-4.2-17.6-10.5-24.6
		c-6.7-7.6-14.2-14.6-20-22.8c-8.7-12.3-16.8-25.2-24.3-38.3c-7.2-12.5-10.1-25.7-4.6-40.2c3.1-8,3.9-16.8,6.2-25.1
		c1.4-5.1,2.5-10.5,5.3-14.9c8-12.4,16.6-24.5,25.4-36.4c10.7-14.4,18.6-30.4,25.4-46.9c1.1-2.8,2.4-3.5,5.1-3.2
		c14.8,1.9,29.6,4.3,44.5,5.5c7.5,0.6,15.3-0.2,22.7-1.7c13.5-2.9,26.7-6.8,40.1-10.2c1.2-0.3,3.1-0.6,3.7,0
		c5.7,5.6,13.5,9.5,15.9,18.1c3,10.6,6.5,21,9.3,31.6c4.2,16.1,8.1,32.3,11.9,48.4c0.6,2.5,0.8,5.3,0.3,7.8
		c-3.1,17.4-6.7,34.7-9.4,52.1c-4.3,27.6-8.3,55.3-11.7,83.1c-1.8,14.3-3.2,28.4-11.1,41c-7.3,11.5-8.2,23.6-2.3,36.2
		c3.4,7.4,6.1,15.1,9.5,22.6c4.2,9.5,2.9,17.8-3.2,26.2c-4.1,5.7-7,12.3-3.5,19.6c2.7,5.7,5.3,11.5,8.6,16.8c1.8,2.9,4.8,6.7,7.6,7
		c9.7,1.2,19.5,1.4,29.2,1.1c7.1-0.2,14.2-1.8,21.2-3c2.3-0.4,4.6-1.5,6.8-2.3c-0.9-2-1.5-4.3-2.8-6.1c-5.6-7.8-10-15.9-10.9-25.8
		c-1.2-12.9-5.4-24.6-15-34c-6.3-6.2-6.7-13.7-5.6-22.2c1.5-11.6,1.8-23.4,2.6-35.2c0.3-4.2,0.1-8.7,1.2-12.7
		c4.6-16.1,9.4-32.2,14.5-48.2c2.4-7.6,5.6-15,8.4-22.5c2.7,7,4.7,13.9,5.5,20.9c0.7,6.8,3.5,12.3,7.5,17.6c2.5,3.4,5.3,7,6.7,10.9
		c10.4,27.8,14.8,56.4,9.8,85.8c-2.4,14.2,2.8,23.8,14.3,31.2c1.5,1,2.8,3.2,3.2,5c0.8,4.4,0.8,8.9,1.6,13.3
		c0.7,3.8,0.5,7.2-2.1,10.3c-8.4,10.1-6.2,21.2-2.2,32c1.1,3,3.7,6.2,6.5,7.7c4.9,2.7,10.3,5.1,15.8,5.9c10.7,1.4,21.5,1.5,32.3,2.2
		c6.5,0.4,12.9,1.1,19.4,1.6c3,0.2,4.1-1.1,4.8-4.2c2.1-9.1-1.5-16.1-6.5-23.2c-4.8-6.8-8.7-14.2-13.3-21.1
		c-4.8-7.3-9.2-15.2-15.2-21.4c-7.2-7.5-9.6-15.6-8.3-25.4c1.2-8.7,0.2-17-5-24.4c-8.5-12.1-14.3-25.1-15.6-40
		c-0.7-8.1-1-16.4-2.8-24.3c-3.2-14.5-2.7-28.6,1.4-42.9c3.9-13.7,2.9-27.5-3-40.5c-5.1-11.4-10.6-22.5-12.8-35
		c-1.1-6.3-3.3-12.5-5.6-18.5c-4.5-11.3-8.8-22.6-9.5-34.8c-0.1-1.1,0.2-2.3,0.7-3.3c2.2-4.1,4.5-8.2,6.8-12.2
		c7.9-13.7,16.5-27,23.6-41c9.9-19.8,20.1-39.6,20-62.7c0-1.5,0.3-3,0.8-4.4c0.5-1.3,1.3-2.7,2.3-3.4c9.2-6.5,16.7-14.5,21.9-24.7
		c2.5-5,5.6-9.8,8.2-14.8c7.1-13.5,13.3-27.3,12.2-43c-0.8-11.6-1.8-23.3-4-34.6c-2.9-14.8-5.9-29.8-11.2-43.9
		C806.8,362.6,804.2,352.6,806.6,341.2z"/>
	<path d="M806.6,341.2c-2.4,11.4,0.2,21.3,4.2,31.8c5.2,14.1,8.3,29.1,11.2,43.9c2.2,11.4,3.1,23.1,4,34.6
		c1.1,15.7-5.1,29.6-12.2,43c-2.6,5-5.7,9.8-8.2,14.8c-5.1,10.2-12.6,18.2-21.9,24.7c-1.1,0.8-1.8,2.2-2.3,3.4
		c-0.5,1.4-0.8,2.9-0.8,4.4c0.1,23.1-10.2,42.9-20,62.7c-7,14.1-15.7,27.4-23.6,41c-2.3,4-4.6,8.1-6.8,12.2c-0.5,1-0.8,2.2-0.7,3.3
		c0.8,12.3,5.1,23.5,9.5,34.8c2.4,6,4.5,12.2,5.6,18.5c2.2,12.5,7.6,23.6,12.8,35c5.9,13,6.9,26.8,3,40.5
		c-4.1,14.3-4.6,28.4-1.4,42.9c1.7,7.9,2.1,16.2,2.8,24.3c1.3,14.9,7.1,27.9,15.6,40c5.2,7.4,6.1,15.7,5,24.4
		c-1.3,9.8,1.1,17.9,8.3,25.4c6,6.3,10.4,14.1,15.2,21.4c4.6,6.9,8.5,14.3,13.3,21.1c5,7.1,8.6,14.1,6.5,23.2
		c-0.7,3.1-1.8,4.5-4.8,4.2c-6.5-0.5-12.9-1.2-19.4-1.6c-10.8-0.7-21.6-0.8-32.3-2.2c-5.5-0.7-10.9-3.2-15.8-5.9
		c-2.8-1.5-5.4-4.7-6.5-7.7c-4.1-10.9-6.3-21.9,2.2-32c2.6-3.1,2.8-6.5,2.1-10.3c-0.8-4.4-0.8-8.9-1.6-13.3c-0.4-1.8-1.6-4.1-3.2-5
		c-11.5-7.4-16.7-17-14.3-31.2c5-29.4,0.6-58-9.8-85.8c-1.5-3.9-4.2-7.5-6.7-10.9c-3.9-5.3-6.7-10.8-7.5-17.6
		c-0.7-7-2.8-14-5.5-20.9c-2.8,7.5-6,14.9-8.4,22.5c-5.1,16-9.9,32.1-14.5,48.2c-1.1,4-0.9,8.4-1.2,12.7
		c-0.8,11.7-1.1,23.5-2.6,35.2c-1.1,8.4-0.7,16,5.6,22.2c9.5,9.4,13.8,21.1,15,34c0.9,9.9,5.3,18,10.9,25.8c1.3,1.8,1.9,4,2.8,6.1
		c-2.3,0.8-4.5,1.9-6.8,2.3c-7,1.2-14.1,2.7-21.2,3c-9.7,0.3-19.6,0-29.2-1.1c-2.8-0.3-5.8-4.1-7.6-7c-3.3-5.3-5.9-11.2-8.6-16.8
		c-3.5-7.3-0.6-14,3.5-19.6c6-8.4,7.4-16.7,3.2-26.2c-3.3-7.4-6-15.2-9.5-22.6c-5.9-12.6-5-24.6,2.3-36.2c8-12.6,9.4-26.7,11.1-41
		c3.4-27.8,7.4-55.4,11.7-83.1c2.7-17.4,6.4-34.7,9.4-52.1c0.4-2.5,0.3-5.3-0.3-7.8c-3.8-16.2-7.7-32.4-11.9-48.4
		c-2.8-10.6-6.2-21.1-9.3-31.6c-2.5-8.6-10.2-12.4-15.9-18.1c-0.6-0.6-2.5-0.3-3.7,0c-13.4,3.4-26.6,7.3-40.1,10.2
		c-7.4,1.6-15.2,2.3-22.7,1.7c-14.9-1.2-29.7-3.5-44.5-5.5c-2.7-0.4-4,0.4-5.1,3.2c-6.8,16.5-14.6,32.4-25.4,46.9
		c-8.8,11.9-17.4,24-25.4,36.4c-2.8,4.3-4,9.8-5.3,14.9c-2.2,8.3-3.1,17.1-6.2,25.1c-5.5,14.5-2.7,27.7,4.6,40.2
		c7.6,13.1,15.6,26,24.3,38.3c5.8,8.2,13.3,15.3,20,22.8c6.3,7,10.6,14.7,10.5,24.6c-0.1,6.1,1,12.2,0.9,18.3
		c-0.1,8.4,3.2,15.4,8.4,21.4c6.6,7.8,8.6,17.1,10,26.7c1.1,7.1,1.8,14.2,2.5,21.3c0.4,5.1,1,10.3,0.5,15.4
		c-0.8,9.4-6.2,14.5-15.7,13.4c-10.5-1.2-20.8-3.7-29.7-10.6c-7.9-6-11.6-13.6-12.7-23.3c-0.7-5.8-2.1-11.9-4.6-17.1
		c-2.7-5.8-1.7-10.2,1.7-14.8c2.5-3.3,6.8-6.5,7-9.9c0.2-2.9-5-5.8-6.7-9.3c-4.8-9.5-9.5-19-13.3-28.9c-4.7-12.5-9.7-24.4-19.6-34.3
		c-12.5-12.5-18.8-29.3-27-44.7c-4.5-8.4-10.6-16-16.1-23.9c-0.1-0.1-0.2-0.2-0.3-0.4c-5.5-9.4-13-17-21.1-24.3
		c-5.1-4.6-5.6-11.4-3.7-17.7c4.2-13.9,10.8-26.7,18.6-39.1c6.7-10.5,12-21.8,17.7-32.9c1.1-2.2,1.5-4.8,1.8-7.3
		c1.2-11.3,2.2-22.5,3.2-33.8c0.7-7.9-2.2-13.9-7.7-19.6c-7.8-8.1-14.4-17.5-22.3-25.5c-8.9-9.1-18.3-17.9-28.5-25.5
		c-2.7-2-9.2,0.4-13.7,1.6c-1.7,0.4-3.2,2.9-4.2,4.8c-7.4,14.8-19.3,26.2-29.4,39c-2,2.5-3,5.8-4.6,8.7c-1.7,3.2-3.2,6.7-5.4,9.5
		c-12.9,16.8-20.8,36.3-30,55.1c-3,6.2-8.1,11.3-12.2,16.9c-1.7,2.4-3.5,4.9-4.4,7.7c-2.3,7.1-4.5,14.3-6.2,21.5
		c-1.4,6.2-2.5,12.6-3,19c-1,11.7-2.2,23.2-9.9,32.9c-1.3,1.6-1.9,3.8-2.8,5.8c-3.2,7.3-6,14.8-9.5,21.9c-4.8,9.7-5.3,20.2-6.7,30.5
		c-1.7,11.9-2.9,23.8-5.1,35.6c-1.7,9.1-0.6,17.8,1,26.7c1,5.8,0.2,11.8,0.2,17.8c0,6.3-0.6,12.6-0.1,18.8c0.4,5,2.9,9.3,7.1,12.7
		c8.5,6.7,13.2,15.6,14.7,26.4c0.5,3.3,2.4,6.5,3.5,9.8c2.5,7.3,5.2,14.7,7.4,22.1c1.1,3.8-0.3,6.1-4.7,6
		c-13.1-0.3-26.2-0.5-39.3-0.8c-4-0.1-8.1,0-11.9-1.1c-1.9-0.6-3.5-3.5-4.3-5.7c-2.2-6-4.3-12.1-5.8-18.4c-0.9-3.7-1.4-7.9-0.4-11.4
		c2.3-7.9,4.7-15.6,3.4-24c-0.2-1.5-0.7-3.6-1.8-4.3c-10.1-6.5-12.1-16.4-10.8-27.1c0.8-6.4,3.2-12.5,5-18.7
		c3.9-13.6,9.7-26.9,11.4-40.7c1.9-15.2,2.8-30.6,0.9-46.2c-1.4-11.7,0.9-23.8,1.4-35.7c0.1-4-0.5-8-0.9-12c-0.2-1.6-1-3.3-1-4.9
		c0.2-19,1.2-37.6,10.3-55.3c5.8-11.3,10.1-23.7,12.7-36.1c2.7-12.9,3.2-26.4,3.2-39.6c0-7.3-2.9-14.6-4.3-22
		c-3-15.8-1-31.6,1.3-47.2c3.9-26.9,7.8-53.8,7.3-81c-0.3-18.1,5-34.6,12.2-50.8c1.7-3.9,3-8.3,3.2-12.5c0.5-9.9,6.1-17.8,9-26.8
		c3.7-11.5,11.4-20.1,19.6-28.5c4.5-4.6,7.8-10.4,12.5-14.8c6.2-5.8,13.2-10.7,20.5-16.5c-0.2-0.4-0.9-2-1.8-3.5
		c-6.4-10.6-6.9-22.1-4.3-33.8c2.5-11.2,5.6-22.2,8.2-33.4c0.8-3.2,1.1-6.6,1.1-9.9c0.1-11.8-1.2-23.8,0.5-35.4
		c1.3-9.3,5-18.8,9.8-26.9c7-11.9,15.9-23,30.3-26.8c9.1-2.4,18.3-3.2,27.3,1c6.9,3.2,14.1,6,21,9.2c12.2,5.7,18.9,16.9,25.1,27.8
		c8.4,14.6,20.2,25.6,33.6,35c12.2,8.7,24.8,16.9,37.9,24.1c7,3.8,15.4,4.9,23.2,7.1c3.7,1,7.6,1.7,11.3,2.5c0.1,0.5,0.1,1,0.2,1.6
		c-0.9,0.7-1.8,1.5-2.8,2.1c-18.8,10.7-38.4,10.4-58.5,4.8c-12.2-3.4-24.5-3.7-37.7-0.8c3.7,4,6.7,7.8,10.3,10.9
		c10.7,9.4,21.7,18.6,32.6,27.9c2.4,2.1,5.2,3.9,7,6.4c3.8,5.4,9,6,14.9,5.9c12.3-0.3,24.6-0.5,36.9-0.2c14.5,0.3,26.2-6.3,37.7-14
		c18-12,36.2-23.6,54.4-35.3c7.8-5,15.7-10.1,23.8-14.7c7.6-4.3,9.2-12.1,12.4-19.1c4-8.7,8.1-17.5,12.6-26
		c6.2-11.6,13.1-22.8,19.2-34.4c5.7-11,13.2-20.3,23.1-27.8c8.9-6.7,17.3-14.1,26.2-20.8c14.8-11.2,31.7-15.7,50.1-15.6
		c11.2,0,22.3-0.6,33.5-0.9c6.4-0.2,12.2,1.4,17.1,5.7c1.2,1.1,3.2,1.9,4.8,1.9c16.5-0.4,26.4,9.2,33.8,22.4
		c4.7,8.5,6.4,17.7,6.9,27.6c6.2-7.7,13.2-14.6,16.3-24.4c2.5-7.9,5.9-15.5,8.9-23.3c0.1-0.3,0.3-0.7,0.5-0.9c2.6-2,5.4-5.9,7.9-5.6
		c4.3,0.4,2.7,5.3,3,8.4c0.9,9.9,1.7,19.9,2.4,29.8c1.1,14.6-4.3,27.3-12,39.4c-1,1.5-1.1,3.6-1.4,5.5c-2.4,14.3,1.3,27.6,6.6,40.8
		c2.1,5.3,2.6,11.2,3.9,16.8c0.7,3.2,1.5,6.4,2.6,9.5c1.2,3.4,3.2,6.6,4.3,10.1c3.2,10.4-1.9,17.7-9.4,23.8c-2.6,2.1-6.1,3.5-8.1,6
		c-1.6,2-2.3,5.2-2.3,7.9c-0.1,14.1-1.7,27.7-7.4,41c-2.3,5.4-0.4,12.6-0.1,19c0.2,4.1,0.8,8.3,1.5,12.4c0.9,5.5,2.3,11,2.7,16.5
		c0.7,9,4,17.1,6.8,25.5c3.2,9.5-2.6,18.3-7.4,26.6c-2.5,4.3-5.9,8.1-8.1,12.5c-6.7,13.1-20.6,18.5-35.5,15.1
		c-9.7-2.2-16.9-6.1-20-15.5c-1.6-4.8-1.9-10.1-3-15.1c-0.6-2.9-1.5-5.7-2.3-8.6c-1.2-4.6-3.5-9.3-3.5-13.9
		C819.1,358.3,816.2,357,806.6,341.2z M806,109.9c0,0-0.5-0.3-1.1-0.5c-16.2-6.1-33.5-4.3-50.2-6.8c-18.7-2.8-32.8,5-46.7,15.5
		c-14,10.7-25.8,22.9-32.6,39.5c-7.1,17.2-19.6,30.6-32.8,42.9c-9.3,8.6-20.9,14.7-31.5,21.8c-18.4,12.2-37.3,23.8-55.3,36.6
		C543,268,529.7,273.1,514,272c-7-0.5-14-0.7-21-0.6c-11.3,0-22.6,1.2-33.8,0.4c-18.2-1.3-36.3-4-54.5-5.9
		c-5.3-0.5-10.6-0.5-15.9-0.6c-8.6-0.2-17.2-0.5-25.8-0.4c-7.5,0.1-14.9,0.8-22.4,0.9c-13.3,0.1-26.3,1.4-38.2,8
		c-10.8,6-23,10-31.2,20.1c-3.7,4.5-6.8,9.5-10.9,13.6c-8.2,8.4-16.1,16.8-19.7,28.4c-2.3,7.4-5.6,14.5-7.9,21.9
		c-2.4,7.6-3.2,15.8-6.6,22.9c-7,14.3-9.7,29.4-9.6,45c0.2,27.8-3.8,55.1-7.7,82.5c-2.6,18.3-3.3,36.4,1.2,54.6
		c1.5,5.9,2.6,12.1,2.1,18.1c-2,24.4-4.2,48.8-7.2,73c-1.6,12.8-4.2,25.6-7.3,38.1c-2.7,11.1-7.4,21.7-10,32.8
		c-2.6,11-2.7,22.3-1.2,33.6c6.2-0.9,8,0.2,9.2,6.4c3.2,17,1.7,33.9-2.9,50.4c-2.8,10.1-7.1,19.7-10.8,29.5
		c-3.8,9.9-7.2,20.2-4.3,30.7c4.4,15.8,6.5,31.2-0.3,46.9c-0.8,1.9-0.1,4.5-0.1,6.8c0.5,0,1,0.1,1.6,0.1c0.3-0.9,0.6-1.7,0.9-2.6
		c2.4-6.9,8.2-12.1,15.3-11.4c10.7,1.2,21.9-3.5,32.4,3.6c-0.8-10.4-5.4-17.8-12.5-23.4c-6.1-4.7-8.6-11-9.2-18.1
		c-0.5-5.4,0.5-10.9,0.5-16.4c0-6.2,0.6-12.7-0.6-18.7c-1.8-9.1-2.3-18-0.5-27.2c2.1-11.4,2.9-23.1,4.7-34.6
		c1.7-10.8,1.8-21.9,7.1-32c3.3-6.3,5.8-13.1,8.6-19.6c1-2.3,1.5-4.9,3-6.8c8.4-10.9,9.7-23.7,10.1-36.8c0.2-4.8,1.7-9.7,3.1-14.5
		c1.9-6.5,4-13,6.4-19.3c1.6-4.2,3.5-8.6,6.2-12.2c5.2-6.9,10-13.9,13.7-21.9c7.3-15.6,16-30.7,24.2-45.9c2.3-4.2,5.1-8.1,7.5-12.3
		c1.9-3.3,2.9-7.1,5.2-10.1c9.7-12.8,21.8-23.9,29-38.6c1.2-2.5,3.5-4.5,5.5-6.5c3.7-3.6,12.1-5.6,14.8-3.4c7,5.6,14.1,11,20.7,17
		c6.8,6.2,14.1,11.2,22.3,15.6c8.2,4.4,15.4,10.9,23.2,16.1c4.9,3.3,9.9,7.1,15.4,8.7c12.6,3.7,25.6,6.1,38.4,9.1
		c12.7,3,26.3,1.8,38.5,7.7c0.5,0.3,1.3,0.1,1.9,0.2c16.6,2.1,33.2,4.6,49.9,6.3c6.2,0.6,12.8,0.5,18.8-0.8
		c13.9-3.1,27.6-7.3,41.4-11c2.3-0.6,3.2-1.5,2.9-4.1c-1.7-15.7-6.7-29.7-17.8-41.4c-6.6-6.9-10.7-15.4-12.4-24.9
		c0.7,0.3,1,0.8,1.3,1.3c4.5,7.5,7.9,16,13.6,22.4c10.1,11.5,15.5,24.5,17.9,39.3c0.7,4.2,3.1,9.2,6.4,11.6
		c8,5.9,12.7,13.4,15.1,22.7c1.1,4.4,2.6,8.6,3.8,12.9c1.1,4.4,3.2,7.8,6.9,10.5c13.9,10.3,23.4,23.9,29.4,40.1
		c5.3,14.2,9.8,28.7,15.4,42.7c4.1,10.2,5.9,20.6,4.9,31.3c-0.8,8.4-2.4,17-5.6,24.7c-2,4.9-1.7,8.7-0.6,13.2
		c1.8,7.1,4.1,14.2,4.9,21.4c0.7,6.2,3.4,11,6.6,15.8c2.6,3.8,5.2,7.8,6.9,12.1c5.5,13.9,10.5,28,16,41.9c4.4,11,7.1,22,5,34.1
		c-1,5.8,0,11.9,0.1,17.9c0.1,4.2,0.5,8.4,0.2,12.6c-0.3,4.1-0.7,7.7,3.9,10.1c1.5,0.8,2.3,3.8,2.6,5.9c0.7,3.7,0.3,7.7,1.3,11.3
		c1.6,5.9,0.9,10.8-3.1,15.8c-3,3.7-5.6,8.3-3.3,13.8c16.2-12.1,32.4-23.4,55.2-17.9c-4.9-6.1-8.7-12.2-13.8-17.1
		c-8.5-8-11-17.6-9.3-28.6c1.3-8.3-0.1-16-4.9-22.8c-9-12.6-14.5-26.4-15.8-42c-0.6-7.8-1.2-15.7-2.8-23.3
		c-3.2-14.8-2.6-29.3,1.6-43.9c3.5-12.3,2.7-24.8-2.3-36.7c-4.9-11.6-10.8-22.7-13.2-35.4c-1.5-8.1-5-15.7-7.6-23.6
		c-0.4-1.3-0.9-2.5-1.3-3.8c-2.5-8.3-6.3-16.4-5.4-25.5c0.2-1.7-0.9-3.5-1.6-5.2c-1.9-5.3-4.2-10.5-5.9-15.9
		c-4.9-15.6-6.4-31.1-3.4-47.7c3.7-20.7,9.8-41.2,8.7-62.7c-0.1-1.1,0.8-2.3,1.3-3.5c0.4,0.1,0.8,0.2,1.2,0.3c0,9.8,0,19.6,0,29.8
		c4.3-1.8,8.9-3.4,13-5.7c11.7-6.4,23.1-13.6,35-19.7c11.4-6,20.2-14.3,26.3-25.6c2.8-5.1,5.5-10.2,8.4-15.3
		c6.5-11.2,11.6-23.2,12.1-36.1c0.4-11.2-1.4-22.6-2.9-33.7c-2.8-20.3-7.9-40-15-59.4c-2.6-7.1-1.2-15.7-1.1-23.6
		c0-3.8-0.6-6.7-3.8-9c-5.5-4-10.6-8.5-16-12.6c-6.7-5.1-10.5-11.9-14-19.5c-3.7-8.3-5.7-16.6-5.7-25.5c-0.1-10.5-0.5-21-0.7-31.5
		c0-2.8-0.2-5.8,0.7-8.4c3.7-10.1,7.3-20.4,12-30.1c4.7-9.7,8.6-19.4,9.8-30.2c0.4-3.7,2.4-7.3,3.7-11c-0.4,6.7-1.5,13.1-3,19.4
		c-1,4.2-2,8.4-3.5,12.4c-2.8,7.5-5.5,15.1-9.2,22.1c-7.3,13.6-8.5,27.7-7.3,42.9c1.1,14.4-0.6,28.8,7.1,42.3
		c3.6,6.4,7.6,11.9,13.5,16.2c3.8,2.7,7.4,5.6,11,8.5c1.3,1.1,2.6,2.2,3.9,3.3c0.5-0.2,1-0.5,1.5-0.7c-1.9-10.3-3.9-20.5-5.8-30.8
		c0.6-0.1,1.2-0.3,1.8-0.4c1.9,8.7,4.8,17.3,5.4,26c0.6,8.7,3.2,16.4,8.1,23.2c6.2,8.7,7.5,18.3,8.7,28.6c1.6,13.6,5,27.1,9.1,40.2
		c4.1,13,15.7,12.8,30.1,12.2c-4.3-1-8.5-2.1-12.9-2.4c-10.3-0.9-15.6-6.2-16.3-17.2c1.8,2.7,3.2,5.6,4.9,8.4c1.8,3,3.6,5.9,7.8,6.2
		c5.1,0.3,10.2,1.1,15.3,1.8c11.2,1.5,22-5.8,24.3-16.6c0.1-0.7,0.1-1.8-0.3-2.1c-3.8-3.4-2.3-7.4-1.2-11.1c0.9-3.2,2.9-6.1,3.6-9.3
		c1.2-5.4,3.4-9.6,9.6-11.2c-4.3-5.9-6.5-11.8-5.4-18.6c0.2-1-0.6-2.2-0.8-3.4c-1-5.5-1.9-11-2.8-16.5c-0.6-3.9-0.8-7.9-1.5-11.9
		c-1.4-7.4-3.2-14.8,0-22.1c4-9.1,7.4-18.3,6.7-28.4c-0.7-9.6,4.5-19,0.8-28.8c-1-2.6,0.1-6.4,1.2-9.2c3-7.4,8.6-12.3,16.1-14.4
		c-1.6-4.7-3.3-9.2-4.5-13.8c-1.6-6.2-2.2-12.7-4.3-18.7c-3.7-10.4-8.5-20.8-7.1-31.9c1.2-9.6-0.4-17.6-5.7-25.4
		c-1.2-1.8-1.1-4.6-1.6-6.9c0.4-0.1,0.9-0.2,1.3-0.2c0.6,1.9,1.1,3.8,1.7,5.7c4.9-14.3,9.8-28.2,14.6-42.2
		c2.3-6.7,1.6-13.4,0.1-20.3c-2.1,1.6-3.8,3.2-4.8,5.2c-2.6,5.4-5.6,10.8-6.9,16.5c-2.3,9.9-7.3,18.1-13.4,25.9
		c-6.7,8.5-8.5,9.2-18.4,4.8c-5.1-2.3-10.2-4.4-15.4-6.6c-2,15.5-8.5,23.4-16.3,20.3c0.3-0.4,0.4-1,0.8-1.2c10.4-5.1,12.4-9,12-20.6
		c-0.3-9.7-6.9-18.7-2.6-29.3c-1.6,0.8-2.4,2.1-3.2,3.3c-4.2,6.2-7.2,12.7-7.3,20.4c-0.1,7.9-1.2,15.6-6.6,22
		c-1.5,1.8-3.1,4.4-3,6.6c0.1,1.7,2.6,3.2,4,4.8c-4.4,1-7.5-1.6-6.5-5.9c0.4-1.7,1.2-3.5,2.3-4.9c5.2-6.4,7.4-13.6,7.2-21.8
		c-0.3-8,2.5-15,6.8-21.6c0.5-0.7,0.8-1.5,1.2-2.3c-8.5,5.7-13.7,14-19.5,21.8c-6.6,8.9-9,17.5-3.7,27.8c3.1,6.1,3.1,12.3-2.1,17.5
		c-1.3,1.4-3.3,2.1-5,3.1c-0.9-2.1-2.8-4.3-2.6-6.4C802.8,134.5,804.5,122.4,806,109.9z M528.1,901.3c-0.6-9-2-18.3-8.3-26
		c-7.3-8.9-11.3-18.6-10.1-30.3c1.4-14.3-2.5-26.9-12.7-37.5c-6.1-6.4-12.6-12.5-17.6-19.7c-8.6-12.2-16.5-25-24.1-37.9
		c-8.5-14.6-12.5-29.8-5.6-46.7c3-7.3,4.1-15.4,5.5-23.2c1.2-7.1,3.4-13.5,7.9-19.1c3.8-4.7,7.9-9.1,11.2-14
		C486,629,499,612,507.7,592.4c1.9-4.3,3.9-8.7,6-13.6c-5.2-1.8-9.5-3.7-14-4.6c-14.5-2.9-29.1-5.5-43.6-7.9
		c-17-2.9-32.7-7.7-45.2-21c-5.7-6.1-14.3-9.5-21.6-14.1c-0.5,0.6-1,1.2-1.4,1.8c6.7,7.3,13.2,14.8,20.3,21.8
		c6.3,6.2,9.4,13.2,8.5,21.9c-0.7,6.8-2.8,13.6-2.4,20.3c1,20.7-9.4,37.2-19.5,53.5c-7.5,12.1-14.2,24.5-18.7,37.9
		c-3.4,10.1,1.3,19.5,11.7,23.8c0-10.3,3-19.7,8-28.6c2.3-4.2,3.4-9,5-13.6c4-11.4,8-22.7,12.2-34.7c0.3,1.1,0.6,1.5,0.6,1.9
		c-0.1,1.2-0.2,2.3-0.6,3.4c-6.1,17.4-11.8,35-18.6,52.1c-5.8,14.5-4.4,25.9,6.2,37.5c4.3,4.8,8.2,10.1,11.5,15.6
		c4.7,8,8.5,16.6,12.7,24.9c6.2,12,13.7,23.1,23.4,32.8c9.5,9.5,12.4,22.6,16.6,34.8c4.1,11.8,9.1,22.9,18.7,31.3
		c2.1,1.8,1.6,2.9-0.3,5.1c-4.1,5-9.8,9.1-10.8,15.4C491.1,893.9,509.4,897.6,528.1,901.3z M637.8,952.8c0.5,0.3,1,0.6,1.4,0.9
		c16.2-8.4,32.4-16.9,51.7-15.3c-0.9-8.5-5.4-14.8-10.7-20.6c-6.3-7-10.3-14.6-8.3-24.5c1.1-5.4,1.8-10.8,2.5-16.3
		c1.3-9.8,1.9-19.3-1.6-29c-2-5.8-2.7-12.5-2-18.6c0.9-8.6,3.6-16.9,5.5-25.4c2.7-12.3,5.7-24.7,8.1-37.1c2.3-11.4,4-22.9,5.9-34.4
		c0.2-1.4,0-3-0.5-4.3c-5.4-14-10.9-27.9-16.3-41.9c-0.8-2-1.6-4-2.9-7.1c-4,22.4-8.3,43.3-11.4,64.4c-4.2,28.3-7.5,56.8-10.9,85.2
		c-1.1,9.1-3.9,17.5-8.6,25.3c-6.7,11.4-9.4,22.8-3.2,35.5c3.8,7.9,6.7,16.3,10.1,24.4c4.1,9.8,2.3,18.7-3.8,27.3
		C640.6,944.7,639.5,949,637.8,952.8z M777.6,537.7c-5.8,2.8-11.6,5.5-17.2,8.5c-10,5.4-18.3,14.1-30.1,16c-4.3,0.7-5.5,3.5-6.1,7.2
		c-1.9,12-4.2,24-5.7,36c-0.7,5.9-0.9,12,0,17.8c1.4,8.7,3.9,17.2,6.1,25.7c0.6,2.2,1.6,4.3,2.6,6.9c1.1-1.2,1.9-1.8,2.4-2.6
		c5.4-8.6,11.2-17,15.9-25.9c7.9-15,15.4-30.3,22.5-45.7C774.2,567.9,778.2,553.4,777.6,537.7z M302,179.6c1.5-2.2,2.2-3.5,3-4.6
		c8.5-12.2,19.3-19.4,34.9-17.2c15.1,2.1,29.9,5.3,43.4,12.5c20.1,10.8,39.2,23.4,56.2,38.7c7.5,6.7,15.9,7,25.4,9.3
		c-8.1-7.6-15.8-14-22.6-21.2c-24.3-25.9-52.4-46.1-85.7-58.6c-15.8-5.9-30.6-1.3-43.6,7.1C301.7,152.9,301.7,166,302,179.6z
		 M492.2,219.5c0.2-0.8,0.3-1.6,0.5-2.4c-9.6-6.6-19.1-13.3-28.7-19.9c-8.4-5.7-17.4-10.7-25.1-17.2c-17.4-14.5-33.7-30.2-51.3-44.3
		c-11.5-9.2-23.6-18-39-20.1c-9-1.2-17.2,0.6-24.9,4.9c-4.2,2.3-8.2,5.1-12.1,8c-2.1,1.5-4,3.5-5.3,5.7c-7.1,12.3-9.6,25.7-9,39.8
		c0.2,4.4,0,8.9,0,13.3c1.2-0.8,1.7-1.7,1.7-2.6c0.3-6.6,0.2-13.4,1-19.9c1.3-9.9,4.8-19.3,14.3-23.8c7.8-3.7,16.5-6.1,25.1-7.6
		c5.5-1,12-0.4,17.1,1.6c25.2,9.9,48.9,22.6,68.8,41.6c11.8,11.3,23.6,22.5,35.6,33.6c3.5,3.3,7,7.8,11.2,8.8
		C478.5,220.6,485.4,219.5,492.2,219.5z M703.1,758.1c4.5-14,9.7-28.1,5.1-42.5c-6.7-21.4-14-42.6-22.5-63.3
		c-5.3-13-14.5-23.9-26.9-32.3c3.1,19.8,7.4,38.5,14.4,56.5c7.6,19.5,15.1,39,22.5,58.6C698.5,742.7,700.6,750.5,703.1,758.1z
		 M305.4,180.7c1.8-0.8,3.3-1.1,4.2-2c8.7-8.1,18.5-6,28-2.7c5.3,1.8,10.1,5,14.9,8c12.8,7.9,26.1,14.2,41.1,17.4
		c12.6,2.7,24.8,7.4,37.2,11c2.5,0.7,5.2,0.6,8.8,0.9c-1.3-1.5-1.5-2-1.9-2.3c-18-14.9-37-28.5-57.9-38.8
		c-15.6-7.7-32.4-12.2-50.1-11.1C320.9,161.5,308.6,171.2,305.4,180.7z M792.2,967.5c11.7,14.1,20.3,28.5,26.8,44.1
		c-2-0.9-3.1-2.3-4.1-3.9c-7-11.3-13.6-22.8-21.1-33.8c-5.2-7.6-11.3-7.5-19.5-0.7c6.7,12,13.4,24.2,20.4,36.3
		c0.7,1.2,2.6,2.1,4,2.2c7.6,0.8,15.2,1.3,22.7,1.9c3.3-8.2,0.2-14.6-4.1-20.8c-3.7-5.3-7.1-10.8-10.7-16.2
		C803.4,972,799,969.2,792.2,967.5z M322,263.5c-1.9-5.6-4.5-10.9-5.3-16.4c-1.7-13.2-2.3-26.5-3.7-39.7c-0.9-8.2-3.3-15.9-7.7-23.2
		c-0.6,0.7-1,0.9-1,1.1c-1.7,15.5-3.5,31-5,46.5c-1.1,11.4-0.4,22.6,4.9,33.1c0.6,1.2,3,2.5,4.3,2.2
		C313.3,266.2,318,264.6,322,263.5z M500.4,897.9c-0.3,0.8-0.6,1.3-0.5,1.6c5.4,12.8,7.1,26.3,7.4,40c0,1.1,0.9,2.9,1.7,3.2
		c5.4,1.8,10.9,3.7,16.4,0.9c5.2-2.6,5.7-7.8,5.5-12.5c-0.4-7.4-1.4-14.9-2.6-22.2c-0.2-1.5-2.4-3.2-4-3.7
		C516.5,902.5,508.5,900.3,500.4,897.9z M218,953.7c-2.7-9-5-17.5-7.8-25.7c-3.5-10.2-3.7-10.1-14.3-10.1
		c-10.5,0-16.8,8.3-14.1,18.5c0.9,3.4,1.9,6.7,2.3,10.1c0.7,4.9,2.5,7,7.6,7.1C200.2,953.8,208.6,953.7,218,953.7z M790.9,1011.4
		c-5.9-12.1-11.6-23.7-17.2-35.4c-1.1-2.3-2.3-3.7-4.9-2.1c-6.5,4.3-12.9,8.6-19.2,13.1c-1.2,0.9-2.3,3.3-2,4.8
		c0.9,5.8,2.8,11,8.9,14C767.5,1011.3,779.1,1011.9,790.9,1011.4z M674.5,845.5c0.5,0.1,0.9,0.2,1.4,0.2c4.5-14.5,9-29.1,13.6-43.6
		c1.9-6.2,3.4-12.5,5.8-18.4c4.3-10.6,7.6-21.1,2.6-32.5c-1.5-3.3-2.1-7-3.2-10.5c-0.4-1.3-1.2-2.4-2.5-4.8
		c-1.2,6-2.7,10.7-3.1,15.4c-1.5,20.9-7.1,40.9-12.4,61C673.9,823.1,670.7,834.1,674.5,845.5z M318.2,176.7c8.2,5,16.1,9.9,24,14.8
		c5.3,3.3,10.5,6.8,15.8,10.1c1.8,1.1,3.9,1.8,5.8,2.8c12.1,6.6,24.6,11.8,38.8,11.1c7.2-0.4,14.5-1.1,21.7-1.6
		c0-0.5,0.1-1.1,0.1-1.6c-7.5-2-14.9-4.5-22.5-6c-19.4-3.7-37.3-10.6-53.7-21.7C339.4,178.7,329.9,174.1,318.2,176.7z M328,187.6
		c4.5,7.9,8.2,16.5,13.7,23.6c9.8,12.8,19.9,25.4,31.3,36.8c8.9,8.9,19.3,17.5,34.6,14c-2-1.7-3.8-3-5.4-4.5
		c-14.2-12.3-28.7-24.3-42.4-37.2c-7.1-6.7-13.2-14.5-18.7-22.6C337.8,192.7,333.6,189.7,328,187.6z M659.3,947
		c-5.9,2.7-11.9,5.2-17.6,8.1c-0.9,0.4-1.5,3-1.1,4.1c2.2,5.3,4.7,10.6,7.4,15.7c0.9,1.8,2.4,4,4.1,4.6c8.7,3.2,17.7,2.6,27.6,1.9
		C672.7,969.7,666.2,958.8,659.3,947z M345.6,199.7c-0.3,0.2-0.6,0.4-0.8,0.6c6.7,7.3,13,15.1,20.3,21.7
		c15.1,13.6,30.7,26.6,46.3,39.6c4.6,3.8,10.6,4.6,18,3.7c-2.7-2.1-4.3-3.2-5.8-4.4c-7.6-6.2-15.4-12.1-22.7-18.7
		c-14.1-12.8-26.8-27.3-43.7-36.8C353.5,203.3,349.5,201.6,345.6,199.7z M319.7,180.9c-0.5,0.4-1,0.8-1.4,1.2
		c7.7,19.7,16.6,38.7,28.7,56.1c4.5,6.5,10.5,12,15.4,18.2c5.8,7.3,13.4,3.4,19.8,4.5c-8.3-8.3-16.6-16.3-24.6-24.7
		c-13-13.6-22.8-29.4-30.9-46.3C325.1,186.6,322.1,183.9,319.7,180.9z M176.8,887.4c0.4-0.8,0.7-1.1,0.7-1.4
		c-0.2-1.3-0.3-2.7-0.8-3.9c-3.7-11.2-1.9-22.1,1.6-32.8c2.8-8.5,6.1-16.9,9.3-25.3c7-18.7,8.3-37.9,5.5-57.5
		c-0.3-1.9-1.4-3.7-2.2-5.5c-0.5,0-1,0.1-1.5,0.1c-0.5,1.6-1.3,3.2-1.4,4.8c-0.4,5.6-0.6,11.3-0.7,16.9c-0.1,22.1-5.8,43-13.4,63.6
		c-2.6,7.1-4.2,14.7-4.9,22.3C168.4,875.7,171.2,882.2,176.8,887.4z M310.6,182.8c-0.6,0.3-1.3,0.5-1.9,0.8
		c1.4,3.8,3.6,7.5,4.2,11.5c1.8,11.8,2.9,23.7,4.5,35.5c1.1,8.2,2,16.5,3.9,24.5c0.7,3,3.8,7.1,6.3,7.5c6.7,1.1,13.7,0.4,21.2,0.4
		C329,238.9,317.8,211.8,310.6,182.8z M446.6,267.3c-1-1.4-1.5-2.5-2.3-3.2c-6-5.5-12-10.9-18-16.3c-7.7-6.9-15.4-13.7-23.1-20.6
		c-8-7.2-17.7-10.2-28.5-12.4c6.6,5.8,12.7,11.2,18.8,16.6c8.9,8,17.8,16,26.8,23.9c2.6,2.3,6.3,3.5,8.5,6
		C433.4,266.5,439.2,267.9,446.6,267.3z M302.4,189.4c-0.8-0.2-1.5-0.4-2.3-0.6c-0.9,3-2,6-2.8,9.1c-0.9,3.7-1.6,7.4-2.5,11.1
		c-2.7,12-5.8,23.8-7.9,35.9c-1.3,7.5-0.2,15.2,3.8,22.2c4.1,7.3,3.9,7.5,10.9,3.2c0.4-0.2,0.6-0.7,0.6-0.8c-1.6-5-3.4-9.7-4.6-14.5
		c-3.3-12.6-0.6-25.1,0.7-37.6C299.4,208,301.1,198.7,302.4,189.4z M465.4,268.2c-2.6-2.3-4.6-4-6.5-5.7
		c-14-12.5-28.6-24.4-41.6-37.8c-6.6-6.9-12.9-5.6-21-5.2c4.5,3.4,8.5,6.2,12.2,9.3c10.6,8.8,21.1,17.8,31.5,26.7
		c1.6,1.4,3.3,2.9,4.4,4.7C449,267.5,455.4,270.5,465.4,268.2z M187.6,710.9c12.4-24,14.8-49.5,15.9-74.7
		C190.5,659,182.3,683.4,187.6,710.9z M404.2,143.9c0.2-0.2,0.5-0.4,0.7-0.6c-4.8-6.3-8.5-14-14.5-18.8
		c-14.1-11.3-29.9-19.1-48.9-17.7c-7.5,0.6-20.8,6.2-24.7,14.9c3.7-2.2,7.3-5.1,11.5-6.6c16.2-5.9,31.1-2.1,44.9,7.1
		C383.7,129.3,393.9,136.7,404.2,143.9z M781.3,96c3.1-4.6,0.9-9.1-3-11.7c-6.5-4.4-13.7-8-20.9-11.2c-12.7-5.7-22.1,1.3-31.3,8.8
		c6.6,0,13-0.6,19.2,0.1c13.1,1.5,25.9,3.9,32.6,17.6c0.5,1.1,2.6,1.6,4.1,2c0.5,0.1,1.8-1,1.8-1.1C783.2,99.2,782.5,98,781.3,96z
		 M362.9,261.1c-24.1-22.3-35.9-51.4-49-79.7c-0.8,1-1.1,1.6-0.9,2.1c5.8,15.6,10.8,31.5,17.8,46.5c4.7,10.1,12.2,18.9,18.4,28.4
		C352.6,263.8,357.2,262.9,362.9,261.1z M775.4,100.9c-2.5-7.1-7.4-10.1-12.9-12.4c-12.9-5.5-26.4-5.7-39.8-2.9
		c-4.5,0.9-8.2,5.2-12.3,8c10.2,0.1,19.7-1.2,29.1-1c5.6,0.1,11.8,1.6,16.6,4.4C762.2,100.6,768.3,100.2,775.4,100.9z M734.2,857.8
		c0.7,7.4,2,14.9,1.9,22.3c-0.2,11.8-1.3,23.5-2.2,35.3c-0.5,7.4,3.2,12.4,9.1,16.7c0.7-5.3,0.8-10.5,0.7-15.8
		c-0.2-6.3-1.8-12.8-0.7-18.8C745.4,882.9,740.4,870.3,734.2,857.8z M705,977.6c0-0.6,0.1-1,0-1.2c-6.8-9-11.8-18.7-13.1-30.2
		c-0.2-1.8-3-4.3-4.9-4.6c-3.5-0.6-7.2,0.2-12.1,0.6c6.6,13.2,12.5,25,18.3,36.8C697.3,978.4,701.2,978,705,977.6z M475.5,894.7
		c1.6,8.6,3.1,16.9,4.6,25.1c1.3,7,5.4,11.8,13,15.9c-1.5-10.4-2.6-19.6-4-28.7c-1.8-11.5-1.8-11.5-13.2-12.3
		C475.5,894.6,475.2,894.8,475.5,894.7z M661.7,945.7c1.2,2.6,1.9,4.3,2.8,5.8c4.8,8,9.7,15.9,14.5,23.9c3.9,6.5,4.4,6.6,11.2,3.5
		c-5.3-11.1-10.5-22.2-15.9-33.2c-0.5-1-2.2-2.3-3.1-2.2C668.2,943.9,665.4,944.8,661.7,945.7z M504.5,940.8
		c-0.1-13.4-1.5-26.2-6-38.6c-1.6-4.4-3.8-6.1-8.7-5.6c0.3,1.9,0.7,3.6,1,5.4c1.4,10.2,3.1,20.4,4.2,30.6
		C495.7,938.9,496.8,940.4,504.5,940.8z M231.4,953.7c-4.5-11-8.7-21.1-12.8-31.2c-1.7-4.3-4.4-5.5-8.6-3.8
		c3.6,11.7,7.3,23.4,10.9,35C223.9,953.7,226.8,953.7,231.4,953.7z M827,72.1c2.9,1.4,6.6,4.5,10.5,4.8c6.5,0.5,10,4.8,13.4,8.8
		c7.2,8.4,12.2,18.1,13.5,29.5c0.1,1.3,1.3,2.6,2,3.9c0.6-0.3,1.1-0.5,1.7-0.8c1-13.8-3.9-25.7-12.9-36.1
		C847.3,73.2,837,70.4,827,72.1z M751.8,69c12.5,4.3,25.8,6.7,33.3,19.8c2.3-2.7,4.2-5.1,6.1-7.4C783.2,69.1,765,63.3,751.8,69z
		 M722.4,103.7c-22.2-0.1-38.7,11-41.2,22.9C694.5,117.5,711.3,115.9,722.4,103.7z M755,99.8c-12.2-9.5-48.9-4.9-58.1,6.2
		C715.4,100.5,734.6,97.9,755,99.8z M861.6,116.3c-2.1-13.5-7.7-24.5-17.4-34.1c-2.8,4.4-3.2,7,0.1,10.8c4.3,5.1,7.5,11.3,10.2,17.5
		C855.9,113.7,857.1,116,861.6,116.3z M907.8,103.4c-0.5-0.2-1-0.4-1.5-0.6c-4,9.5-8.2,19-11.7,28.7c-0.8,2.3,0.6,5.4,1.1,9.1
		C903.6,132.1,909.1,114.2,907.8,103.4z M239.1,952.6c-2-13.9-6-25.8-18.6-34.3c4.8,12.5,9,23.7,13.4,35.2
		C235.1,953.3,236.8,953,239.1,952.6z M794,92c3.9,5.3,6.8,9.6,10,13.5c1,1.1,4,2.2,4.5,1.7c1.8-1.7,4.5-4.9,3.9-6.1
		c-2-4.1-4.7-8.3-8.2-10.9C802.5,88.9,798.2,91.2,794,92z M898.1,382.6c-1.5-2.1-2.2-4.1-3.3-4.3c-1.2-0.3-3.6,0.9-4,1.9
		c-2.5,6.5-4.6,13.1-6.6,19.8c-0.3,0.9,0.7,3.2,1.3,3.2c1.2,0.1,3.3-0.4,3.8-1.3C892.4,395.6,895.2,389.1,898.1,382.6z M773.3,65.3
		c6.8,4.4,13.6,8.8,20.8,13.4c1.3-1,3.1-2.3,4.6-3.4C793,63.4,782.9,64.7,773.3,65.3z M679.9,140.4c-12.5,5.4-15.8,17.7-22.3,27.5
		C668.8,161.9,676.1,152.7,679.9,140.4z M647.2,190.8c8.8-8,15.4-16.5,20.2-26.4C658.3,171,649.8,178,647.2,190.8z M673.9,140.3
		c0.3,0.4,0.6,0.8,0.9,1.2c8.1-6.7,16.3-13.3,24.4-20c-0.3-0.3-0.5-0.7-0.8-1C688.6,125.1,677.6,128.1,673.9,140.3z M820.3,72.9
		c-11.6-0.9-25.8,6-30.6,15.4C800.1,83.1,810.3,78,820.3,72.9z M824.1,87.1c-9.6-6.4-19.1-5.9-26.5,1.1c8.3-2.6,13.1-2.3,17.4,0.8
		C820,92.7,820,92.7,824.1,87.1z M833.3,78.3c-5.4-4.3-13.1-3.8-19.2,1.6C820.8,80.8,827.4,88.6,833.3,78.3z M793.7,65.2
		c7.5,9.5,8.1,9.7,17.6,4.9C805.7,63.9,804,63.4,793.7,65.2z M806.1,127c-0.5,7.6-1.1,15.5-1.7,24
		C813.2,144.1,812.6,139.4,806.1,127z M909.4,237.6c-1.8-2-2.7-3.7-3.8-3.9c-3-0.5-6.4,3.9-6.1,8.3c0.1,1.7,1.8,3.3,2.8,4.9
		C904.5,243.9,906.8,241,909.4,237.6z M853.4,112c-3.5-6.2-7-12.3-10.5-18.5c-0.5,0.2-0.9,0.4-1.4,0.6c0.9,3.5,2.3,7,2.5,10.5
		C844.5,110,847.4,112.1,853.4,112z M792.4,94.1c-1.4,0.8-2.2,1.1-2.7,1.6c-1.1,1.2-2,2.5-3,3.8c1.4,1.1,2.7,2.6,4.3,3.1
		c2.6,0.9,5.3,1.2,9,1.9C797.2,100.7,794.9,97.5,792.4,94.1z M504.3,213c-5.9-1.3-11.7-2.5-17.7-3.9
		C496.2,218.3,497,218.6,504.3,213z M808.8,64.4c4.3,5.8,9.4,6.3,15.8,4.4C819.9,64.5,814.9,63.4,808.8,64.4z M904.1,228.8
		c3.4,3,5.7,5.1,8.1,7.2c1.2-3.4,2-7.4-1.7-10.2C909.6,225.1,906.3,227.7,904.1,228.8z M899.2,110.4c0.2,0,0.4,0.1,0.6,0.1
		c1.8-3.1,3.1-6.7,5.4-9.3c3-3.3,2.3-6,0.1-10.5C903.1,98,901.2,104.2,899.2,110.4z M807.2,89c2.9,3.9,5.2,7,7.5,10.2
		C818.3,94.7,816.2,91.7,807.2,89z M899.7,231.9c-6.4,7.1-6.4,16.6,0.2,18.6C894.8,244.1,896.4,238,899.7,231.9z"/>
	<path class="st0" d="M806,109.9c-1.5,12.5-3.2,24.6-4.4,36.7c-0.2,2,1.7,4.2,2.6,6.4c1.7-1,3.7-1.7,5-3.1
		c5.2-5.2,5.2-11.4,2.1-17.5c-5.3-10.3-2.9-18.9,3.7-27.8c5.8-7.9,11-16.1,19.5-21.8c-0.4,0.8-0.7,1.6-1.2,2.3
		c-4.3,6.5-7.1,13.6-6.8,21.6c0.3,8.2-1.9,15.4-7.2,21.8c-1.1,1.4-2,3.2-2.3,4.9c-0.9,4.3,2.1,6.9,6.5,5.9c-1.4-1.5-4-3.1-4-4.8
		c-0.1-2.2,1.5-4.8,3-6.6c5.4-6.4,6.5-14.1,6.6-22c0.1-7.7,3.1-14.2,7.3-20.4c0.8-1.2,1.6-2.5,3.2-3.3c-4.3,10.5,2.3,19.6,2.6,29.3
		c0.4,11.6-1.6,15.5-12,20.6c-0.4,0.2-0.5,0.8-0.8,1.2c7.8,3.1,14.3-4.9,16.3-20.3c5.2,2.2,10.4,4.4,15.4,6.6
		c9.8,4.4,11.6,3.7,18.4-4.8c6.2-7.8,11.1-16,13.4-25.9c1.3-5.7,4.4-11.1,6.9-16.5c0.9-2,2.7-3.6,4.8-5.2c1.5,6.9,2.2,13.7-0.1,20.3
		c-4.8,14-9.7,27.9-14.6,42.2c-0.5-1.9-1.1-3.8-1.7-5.7c-0.4,0.1-0.9,0.2-1.3,0.2c0.5,2.3,0.4,5,1.6,6.9c5.2,7.8,6.9,15.9,5.7,25.4
		c-1.4,11.1,3.4,21.5,7.1,31.9c2.1,6,2.7,12.5,4.3,18.7c1.2,4.6,2.9,9,4.5,13.8c-7.4,2.1-13.1,7-16.1,14.4c-1.1,2.8-2.2,6.6-1.2,9.2
		c3.7,9.9-1.5,19.2-0.8,28.8c0.8,10.1-2.7,19.3-6.7,28.4c-3.2,7.3-1.4,14.7,0,22.1c0.7,3.9,0.9,7.9,1.5,11.9
		c0.8,5.5,1.8,11,2.8,16.5c0.2,1.1,1,2.3,0.8,3.4c-1.1,6.8,1.1,12.7,5.4,18.6c-6.2,1.6-8.5,5.8-9.6,11.2c-0.7,3.2-2.6,6.1-3.6,9.3
		c-1.1,3.8-2.7,7.8,1.2,11.1c0.4,0.4,0.5,1.5,0.3,2.1c-2.3,10.8-13.1,18.1-24.3,16.6c-5.1-0.7-10.2-1.5-15.3-1.8
		c-4.2-0.3-6-3.2-7.8-6.2c-1.7-2.8-3.1-5.7-4.9-8.4c0.7,11,6,16.3,16.3,17.2c4.3,0.4,8.6,1.4,12.9,2.4c-14.4,0.6-26,0.9-30.1-12.2
		c-4.1-13.1-7.5-26.6-9.1-40.2c-1.2-10.3-2.5-19.9-8.7-28.6c-4.9-6.8-7.4-14.5-8.1-23.2c-0.7-8.8-3.5-17.4-5.4-26
		c-0.6,0.1-1.2,0.3-1.8,0.4c1.9,10.3,3.9,20.5,5.8,30.8c-0.5,0.2-1,0.5-1.5,0.7c-1.3-1.1-2.5-2.3-3.9-3.3c-3.6-2.9-7.3-5.7-11-8.5
		c-5.9-4.3-9.8-9.8-13.5-16.2c-7.7-13.5-6-27.9-7.1-42.3c-1.2-15.2,0-29.3,7.3-42.9c3.7-7,6.4-14.6,9.2-22.1c1.5-4,2.6-8.2,3.5-12.4
		c1.4-6.3,2.6-12.6,3-19.4c-1.3,3.7-3.3,7.2-3.7,11c-1.1,10.8-5,20.5-9.8,30.2c-4.7,9.7-8.3,20-12,30.1c-0.9,2.5-0.8,5.6-0.7,8.4
		c0.1,10.5,0.6,21,0.7,31.5c0.1,9,2,17.2,5.7,25.5c3.4,7.6,7.3,14.4,14,19.5c5.4,4.1,10.5,8.6,16,12.6c3.2,2.4,3.8,5.2,3.8,9
		c-0.1,7.9-1.5,16.5,1.1,23.6c7.1,19.4,12.2,39.1,15,59.4c1.6,11.2,3.4,22.5,2.9,33.7c-0.5,12.9-5.5,24.9-12.1,36.1
		c-2.9,5-5.7,10.1-8.4,15.3c-6.1,11.3-14.9,19.6-26.3,25.6c-11.9,6.2-23.3,13.3-35,19.7c-4.2,2.3-8.7,3.8-13,5.7c0-10.3,0-20,0-29.8
		c-0.4-0.1-0.8-0.2-1.2-0.3c-0.5,1.2-1.4,2.3-1.3,3.5c1.1,21.4-5,42-8.7,62.7c-2.9,16.6-1.4,32.1,3.4,47.7
		c1.7,5.4,3.9,10.6,5.9,15.9c0.6,1.7,1.8,3.6,1.6,5.2c-1,9.1,2.9,17.2,5.4,25.5c0.4,1.3,0.8,2.5,1.3,3.8c2.6,7.9,6.1,15.5,7.6,23.6
		c2.4,12.6,8.4,23.8,13.2,35.4c5,11.9,5.8,24.4,2.3,36.7c-4.1,14.6-4.7,29-1.6,43.9c1.6,7.6,2.2,15.5,2.8,23.3
		c1.2,15.5,6.8,29.3,15.8,42c4.8,6.8,6.2,14.5,4.9,22.8c-1.7,11,0.8,20.5,9.3,28.6c5.1,4.8,9,11,13.8,17.1
		c-22.8-5.5-39,5.8-55.2,17.9c-2.3-5.6,0.3-10.1,3.3-13.8c4-5,4.6-9.9,3.1-15.8c-1-3.6-0.6-7.6-1.3-11.3c-0.4-2.1-1.1-5.1-2.6-5.9
		c-4.6-2.4-4.1-6-3.9-10.1c0.3-4.2-0.1-8.4-0.2-12.6c-0.1-6-1.1-12.1-0.1-17.9c2.1-12.1-0.6-23.1-5-34.1c-5.5-13.9-10.5-28-16-41.9
		c-1.7-4.3-4.3-8.2-6.9-12.1c-3.3-4.9-5.9-9.7-6.6-15.8c-0.8-7.2-3.1-14.3-4.9-21.4c-1.1-4.5-1.4-8.3,0.6-13.2
		c3.2-7.7,4.8-16.3,5.6-24.7c1.1-10.7-0.8-21.1-4.9-31.3c-5.6-14-10.2-28.5-15.4-42.7c-6-16.1-15.4-29.8-29.4-40.1
		c-3.7-2.7-5.8-6.2-6.9-10.5c-1.1-4.3-2.7-8.6-3.8-12.9c-2.4-9.4-7.1-16.8-15.1-22.7c-3.3-2.4-5.7-7.5-6.4-11.6
		c-2.4-14.9-7.8-27.8-17.9-39.3c-5.7-6.5-9.1-14.9-13.6-22.4c-0.3-0.5-0.6-1-1.3-1.3c1.8,9.5,5.9,18,12.4,24.9
		c11.1,11.7,16.1,25.7,17.8,41.4c0.3,2.7-0.6,3.5-2.9,4.1c-13.8,3.7-27.5,7.8-41.4,11c-6,1.4-12.6,1.5-18.8,0.8
		c-16.7-1.7-33.3-4.1-49.9-6.3c-0.6-0.1-1.4,0.1-1.9-0.2c-12.2-5.9-25.7-4.7-38.5-7.7c-12.8-3-25.8-5.4-38.4-9.1
		c-5.5-1.6-10.5-5.5-15.4-8.7c-7.8-5.3-15-11.7-23.2-16.1c-8.1-4.4-15.5-9.4-22.3-15.6c-6.6-6-13.7-11.4-20.7-17
		c-2.7-2.2-11.1-0.2-14.8,3.4c-2,2-4.3,4-5.5,6.5c-7.3,14.7-19.3,25.8-29,38.6c-2.2,3-3.3,6.8-5.2,10.1c-2.4,4.2-5.2,8.1-7.5,12.3
		c-8.2,15.2-16.9,30.2-24.2,45.9c-3.7,8-8.5,15-13.7,21.9c-2.7,3.6-4.5,8-6.2,12.2c-2.4,6.3-4.5,12.8-6.4,19.3
		c-1.4,4.7-2.9,9.6-3.1,14.5c-0.4,13.2-1.7,25.9-10.1,36.8c-1.5,1.9-2,4.5-3,6.8c-2.8,6.6-5.3,13.3-8.6,19.6
		c-5.3,10.1-5.5,21.2-7.1,32c-1.8,11.5-2.5,23.2-4.7,34.6c-1.7,9.2-1.3,18.1,0.5,27.2c1.2,6,0.6,12.5,0.6,18.7c0,5.5-1,11-0.5,16.4
		c0.6,7.1,3.1,13.3,9.2,18.1c7.2,5.6,11.7,13,12.5,23.4c-10.6-7.2-21.8-2.5-32.4-3.6c-7.2-0.8-12.9,4.5-15.3,11.4
		c-0.3,0.9-0.6,1.7-0.9,2.6c-0.5,0-1-0.1-1.6-0.1c0-2.3-0.7-4.9,0.1-6.8c6.7-15.7,4.7-31.1,0.3-46.9c-2.9-10.5,0.5-20.8,4.3-30.7
		c3.7-9.8,8-19.5,10.8-29.5c4.5-16.5,6-33.4,2.9-50.4c-1.2-6.3-3-7.3-9.2-6.4c-1.5-11.3-1.4-22.7,1.2-33.6
		c2.6-11.1,7.3-21.7,10-32.8c3.1-12.6,5.8-25.3,7.3-38.1c2.9-24.3,5.2-48.7,7.2-73c0.5-5.9-0.7-12.2-2.1-18.1
		c-4.6-18.1-3.8-36.3-1.2-54.6c3.9-27.4,7.9-54.7,7.7-82.5c-0.1-15.6,2.6-30.6,9.6-45c3.4-7,4.1-15.3,6.6-22.9
		c2.4-7.4,5.6-14.5,7.9-21.9c3.6-11.6,11.5-20,19.7-28.4c4-4.1,7.2-9.1,10.9-13.6c8.2-10.1,20.3-14.1,31.2-20.1
		c11.9-6.6,24.9-7.9,38.2-8c7.5,0,14.9-0.8,22.4-0.9c8.6-0.1,17.2,0.2,25.8,0.4c5.3,0.1,10.6,0.1,15.9,0.6
		c18.2,1.9,36.3,4.5,54.5,5.9c11.2,0.8,22.6-0.4,33.8-0.4c7,0,14,0.2,21,0.6c15.7,1,29-4,41.7-13.1c18-12.8,36.9-24.4,55.3-36.6
		c10.7-7.1,22.3-13.2,31.5-21.8c13.2-12.3,25.8-25.8,32.8-42.9c6.8-16.6,18.6-28.9,32.6-39.5c13.8-10.5,28-18.3,46.7-15.5
		c16.7,2.5,34,0.7,50.2,6.8C805.5,109.6,806.1,109.9,806,109.9z M736.4,215.1c-0.5,4.2-1.3,8.4-1.3,12.6
		c-0.1,14.8,0.9,29.7-0.1,44.4c-1.7,25.6-4.8,51-7,76.5c-1.6,19.1-2.8,38.2-4.1,57.3c-0.2,3.1-0.4,6.2-0.7,10.2
		C728.6,410.9,739.3,251,736.4,215.1z M823.3,240c0.4-0.2,0.9-0.3,1.3-0.5c-2.3-5.8-3.8-12.1-7.2-17.1c-2.5-3.6-7.3-6.3-11.6-7.8
		c-2.4-0.8-6.9,0.7-8.7,2.7c-8.3,9.6,0.1,32.6,13.9,32.9C819.9,250.5,823.2,248.8,823.3,240z M853,372.2c-5.5-0.2-8.5,3.2-11.3,6.7
		c-4.8,6.1-5,12.9-4,20.4c0.9,6.5,5,8.2,10.4,9.2c0.2,0,0.3,0.2,0.4,0.2c5.4,2.4,7.5,1.3,8.9-4.5c2-8.3-1-15.5-5.5-22.1
		C849.4,378.5,847.3,375.2,853,372.2z M313.2,358.4c-6.8,14.3-4.2,61.7,4.5,70C312.2,404.6,308.7,381.7,313.2,358.4z M812.4,280.2
		c-0.5,0.1-1,0.1-1.5,0.2c0,0.6-0.2,1.2-0.1,1.7c2.3,13.5,4.3,27,4.5,40.9c0.1,5.7,3.4,11.3,5.2,16.9c0.7-0.2,1.4-0.4,2.1-0.6
		c-0.3-1.4-0.5-2.9-1-4.3c-3.3-7.6-4.2-15.5-4.6-23.8C816.4,300.8,814,290.5,812.4,280.2z M839.3,366.9
		c-10.8,9.5-12.8,29.8-3.8,36.2C830.3,390.3,832.6,378.4,839.3,366.9z"/>
	<path class="st0" d="M528.1,901.3c-18.8-3.7-37.1-7.3-55.7-11c1.1-6.3,6.7-10.4,10.8-15.4c1.9-2.3,2.3-3.3,0.3-5.1
		c-9.7-8.4-14.7-19.5-18.7-31.3c-4.2-12.2-7.1-25.3-16.6-34.8c-9.7-9.7-17.1-20.8-23.4-32.8c-4.3-8.3-8.1-16.8-12.7-24.9
		c-3.2-5.6-7.1-10.9-11.5-15.6c-10.6-11.7-12-23-6.2-37.5c6.9-17.1,12.5-34.7,18.6-52.1c0.4-1.1,0.5-2.3,0.6-3.4
		c0-0.4-0.2-0.8-0.6-1.9c-4.2,12-8.2,23.4-12.2,34.7c-1.6,4.6-2.7,9.4-5,13.6c-4.9,8.9-8,18.2-8,28.6c-10.5-4.4-15.2-13.7-11.7-23.8
		c4.6-13.4,11.2-25.8,18.7-37.9c10.1-16.3,20.5-32.8,19.5-53.5c-0.3-6.7,1.7-13.5,2.4-20.3c0.9-8.7-2.3-15.7-8.5-21.9
		c-7.1-7-13.6-14.5-20.3-21.8c0.5-0.6,1-1.2,1.4-1.8c7.3,4.6,15.8,8.1,21.6,14.1c12.5,13.2,28.2,18.1,45.2,21
		c14.6,2.4,29.1,5.1,43.6,7.9c4.5,0.9,8.8,2.9,14,4.6c-2.2,4.9-4.1,9.2-6,13.6C499,612,486,629,474.4,646.8c-3.3,5-7.4,9.4-11.2,14
		c-4.5,5.6-6.7,12.1-7.9,19.1c-1.3,7.8-2.5,16-5.5,23.2c-7,16.9-3,32.1,5.6,46.7c7.6,12.9,15.5,25.7,24.1,37.9
		c5,7.2,11.5,13.3,17.6,19.7c10.1,10.6,14.1,23.2,12.7,37.5c-1.2,11.7,2.8,21.5,10.1,30.3C526.1,883,527.5,892.3,528.1,901.3z"/>
	<path class="st0" d="M637.8,952.8c1.7-3.9,2.8-8.1,5.2-11.5c6.1-8.6,7.8-17.4,3.8-27.3c-3.4-8.1-6.3-16.5-10.1-24.4
		c-6.1-12.7-3.5-24.1,3.2-35.5c4.6-7.8,7.5-16.2,8.6-25.3c3.4-28.4,6.7-56.9,10.9-85.2c3.1-21.1,7.4-42,11.4-64.4
		c1.3,3.2,2.1,5.1,2.9,7.1c5.5,14,10.9,27.9,16.3,41.9c0.5,1.3,0.7,2.9,0.5,4.3c-1.9,11.5-3.7,23-5.9,34.4
		c-2.5,12.4-5.4,24.7-8.1,37.1c-1.9,8.5-4.6,16.8-5.5,25.4c-0.6,6.1,0,12.9,2,18.6c3.5,9.7,2.9,19.3,1.6,29
		c-0.7,5.4-1.4,10.9-2.5,16.3c-2,9.8,2,17.5,8.3,24.5c5.3,5.9,9.8,12.2,10.7,20.6c-19.3-1.6-35.5,6.9-51.7,15.3
		C638.7,953.4,638.3,953.1,637.8,952.8z"/>
	<path class="st0" d="M777.6,537.7c0.6,15.7-3.4,30.2-9.7,44c-7.1,15.4-14.6,30.6-22.5,45.7c-4.7,8.9-10.5,17.3-15.9,25.9
		c-0.5,0.8-1.3,1.4-2.4,2.6c-1-2.6-2.1-4.7-2.6-6.9c-2.2-8.6-4.7-17.1-6.1-25.7c-0.9-5.8-0.7-12,0-17.8c1.5-12,3.8-24,5.7-36
		c0.6-3.7,1.8-6.5,6.1-7.2c11.8-1.9,20.1-10.6,30.1-16C766,543.2,771.8,540.6,777.6,537.7z"/>
	<path class="st0" d="M302,179.6c-0.2-13.5-0.3-26.7,11-34c12.9-8.4,27.8-13,43.6-7.1c33.4,12.5,61.4,32.7,85.7,58.6
		c6.8,7.2,14.4,13.6,22.6,21.2c-9.5-2.3-17.9-2.6-25.4-9.3c-16.9-15.3-36-27.9-56.2-38.7c-13.4-7.2-28.3-10.5-43.4-12.5
		c-15.6-2.2-26.5,5.1-34.9,17.2C304.2,176.1,303.4,177.3,302,179.6z"/>
	<path class="st0" d="M492.2,219.5c-6.7,0-13.7,1.1-20.1-0.4c-4.2-1-7.7-5.5-11.2-8.8c-11.9-11.1-23.8-22.3-35.6-33.6
		c-19.8-19-43.5-31.7-68.8-41.6c-5.2-2-11.6-2.6-17.1-1.6c-8.6,1.5-17.3,3.9-25.1,7.6c-9.5,4.5-13,13.9-14.3,23.8
		c-0.8,6.6-0.7,13.3-1,19.9c0,0.9-0.5,1.8-1.7,2.6c0-4.4,0.1-8.9,0-13.3c-0.6-14.1,1.9-27.5,9-39.8c1.3-2.2,3.2-4.2,5.3-5.7
		c3.9-2.9,7.9-5.6,12.1-8c7.7-4.3,16-6.2,24.9-4.9c15.4,2.1,27.6,10.9,39,20.1c17.6,14.1,33.9,29.9,51.3,44.3
		c7.8,6.5,16.8,11.4,25.1,17.2c9.6,6.6,19.1,13.2,28.7,19.9C492.5,218,492.3,218.8,492.2,219.5z"/>
	<path class="st0" d="M703.1,758.1c-2.5-7.7-4.7-15.5-7.5-23c-7.3-19.6-14.9-39.1-22.5-58.6c-7-18-11.3-36.7-14.4-56.5
		c12.4,8.4,21.6,19.4,26.9,32.3c8.5,20.7,15.8,42,22.5,63.3C712.8,730,707.6,744.1,703.1,758.1z"/>
	<path class="st0" d="M305.4,180.7c3.2-9.5,15.5-19.1,24.4-19.7c17.8-1,34.5,3.5,50.1,11.1c21,10.3,40,23.9,57.9,38.8
		c0.4,0.3,0.6,0.7,1.9,2.3c-3.6-0.4-6.3-0.2-8.8-0.9c-12.4-3.6-24.6-8.3-37.2-11c-15-3.2-28.3-9.5-41.1-17.4c-4.8-3-9.7-6.2-14.9-8
		c-9.5-3.3-19.4-5.4-28,2.7C308.7,179.5,307.2,179.9,305.4,180.7z"/>
	<path class="st0" d="M792.2,967.5c6.8,1.7,11.2,4.5,14.4,9.2c3.6,5.4,7,10.9,10.7,16.2c4.3,6.2,7.4,12.6,4.1,20.8
		c-7.5-0.6-15.1-1.1-22.7-1.9c-1.4-0.2-3.3-1.1-4-2.2c-6.9-12.1-13.7-24.3-20.4-36.3c8.2-6.8,14.3-6.8,19.5,0.7
		c7.5,10.9,14.1,22.5,21.1,33.8c1,1.5,2.1,3,4.1,3.9C812.5,996,803.9,981.6,792.2,967.5z"/>
	<path class="st0" d="M322,263.5c-3.9,1.1-8.7,2.7-13.5,3.7c-1.3,0.3-3.6-1-4.3-2.2c-5.3-10.4-6-21.7-4.9-33.1
		c1.5-15.5,3.3-31,5-46.5c0-0.3,0.4-0.5,1-1.1c4.4,7.3,6.9,15.1,7.7,23.2c1.4,13.2,2,26.5,3.7,39.7
		C317.4,252.6,320.1,257.9,322,263.5z"/>
	<path class="st0" d="M500.4,897.9c8.1,2.4,16.1,4.6,24,7.2c1.6,0.5,3.7,2.3,4,3.7c1.2,7.4,2.3,14.8,2.6,22.2
		c0.2,4.8-0.3,9.9-5.5,12.5c-5.6,2.8-11.1,1-16.4-0.9c-0.9-0.3-1.7-2.1-1.7-3.2c-0.4-13.7-2-27.2-7.4-40
		C499.8,899.2,500.1,898.7,500.4,897.9z"/>
	<path class="st0" d="M218,953.7c-9.4,0-17.8,0.1-26.2,0c-5-0.1-6.9-2.2-7.6-7.1c-0.5-3.4-1.5-6.8-2.3-10.1
		c-2.7-10.2,3.6-18.5,14.1-18.5c10.6,0,10.8-0.1,14.3,10.1C213.1,936.2,215.4,944.7,218,953.7z"/>
	<path class="st0" d="M790.9,1011.4c-11.8,0.5-23.4-0.1-34.4-5.5c-6.1-3-8-8.2-8.9-14c-0.2-1.5,0.8-3.9,2-4.8
		c6.3-4.6,12.7-8.8,19.2-13.1c2.5-1.7,3.8-0.3,4.9,2.1C779.3,987.7,785,999.3,790.9,1011.4z"/>
	<path class="st0" d="M674.5,845.5c-3.8-11.4-0.6-22.4,2.3-33.2c5.3-20.1,10.8-40.1,12.4-61c0.4-4.7,1.8-9.4,3.1-15.4
		c1.2,2.4,2.1,3.5,2.5,4.8c1.1,3.5,1.7,7.2,3.2,10.5c5,11.4,1.7,21.9-2.6,32.5c-2.4,6-3.9,12.3-5.8,18.4c-4.5,14.5-9,29.1-13.6,43.6
		C675.4,845.6,674.9,845.6,674.5,845.5z"/>
	<path class="st0" d="M318.2,176.7c11.7-2.6,21.2,2,29.9,7.9c16.5,11.1,34.4,18,53.7,21.7c7.6,1.5,15,4,22.5,6
		c0,0.5-0.1,1.1-0.1,1.6c-7.2,0.5-14.5,1.2-21.7,1.6c-14.2,0.8-26.7-4.4-38.8-11.1c-1.9-1-4-1.7-5.8-2.8
		c-5.3-3.3-10.5-6.8-15.8-10.1C334.3,186.6,326.4,181.8,318.2,176.7z"/>
	<path class="st0" d="M328,187.6c5.6,2.1,9.8,5.1,13.1,10.1c5.4,8.1,11.6,16,18.7,22.6c13.7,12.9,28.2,24.8,42.4,37.2
		c1.7,1.5,3.4,2.9,5.4,4.5c-15.3,3.5-25.7-5.1-34.6-14c-11.4-11.3-21.5-24-31.3-36.8C336.2,204.1,332.5,195.5,328,187.6z"/>
	<path class="st0" d="M659.3,947c7,11.7,13.5,22.7,20.5,34.5c-9.9,0.6-18.9,1.3-27.6-1.9c-1.7-0.6-3.2-2.8-4.1-4.6
		c-2.7-5.1-5.2-10.4-7.4-15.7c-0.5-1.1,0.2-3.7,1.1-4.1C647.4,952.2,653.3,949.7,659.3,947z"/>
	<path class="st0" d="M345.6,199.7c3.9,1.9,7.9,3.6,11.6,5.7c16.9,9.5,29.6,24,43.7,36.8c7.3,6.6,15.1,12.5,22.7,18.7
		c1.5,1.2,3.1,2.4,5.8,4.4c-7.4,0.9-13.4,0.1-18-3.7c-15.6-12.9-31.2-26-46.3-39.6c-7.3-6.6-13.6-14.4-20.3-21.7
		C345.1,200.1,345.3,199.9,345.6,199.7z"/>
	<path class="st0" d="M319.7,180.9c2.4,3,5.4,5.7,7,9c8.2,16.9,18,32.6,30.9,46.3c8,8.4,16.3,16.4,24.6,24.7
		c-6.4-1.1-14,2.8-19.8-4.5c-5-6.2-10.9-11.7-15.4-18.2c-12.2-17.3-21.1-36.4-28.7-56.1C318.7,181.8,319.2,181.4,319.7,180.9z"/>
	<path class="st0" d="M176.8,887.4c-5.6-5.2-8.3-11.7-7.7-18.7c0.7-7.5,2.3-15.2,4.9-22.3c7.6-20.6,13.3-41.5,13.4-63.6
		c0-5.6,0.3-11.3,0.7-16.9c0.1-1.6,0.9-3.2,1.4-4.8c0.5,0,1-0.1,1.5-0.1c0.8,1.8,1.9,3.6,2.2,5.5c2.7,19.6,1.5,38.8-5.5,57.5
		c-3.2,8.4-6.5,16.8-9.3,25.3c-3.5,10.7-5.3,21.7-1.6,32.8c0.4,1.2,0.6,2.6,0.8,3.9C177.5,886.2,177.2,886.5,176.8,887.4z"/>
	<path class="st0" d="M310.6,182.8c7.2,29,18.4,56.1,38.1,80.1c-7.5,0-14.5,0.7-21.2-0.4c-2.5-0.4-5.6-4.6-6.3-7.5
		c-1.9-8-2.8-16.3-3.9-24.5c-1.5-11.8-2.7-23.7-4.5-35.5c-0.6-3.9-2.7-7.6-4.2-11.5C309.3,183.3,310,183,310.6,182.8z"/>
	<path class="st0" d="M446.6,267.3c-7.5,0.6-13.2-0.8-17.9-6.1c-2.2-2.5-5.9-3.8-8.5-6c-9-7.8-17.9-15.9-26.8-23.9
		c-6.1-5.4-12.2-10.8-18.8-16.6c10.8,2.2,20.5,5.2,28.5,12.4c7.7,6.9,15.4,13.7,23.1,20.6c6,5.4,12.1,10.8,18,16.3
		C445.1,264.8,445.6,265.9,446.6,267.3z"/>
	<path class="st0" d="M302.4,189.4c-1.4,9.3-3,18.6-4,28c-1.3,12.5-4,25.1-0.7,37.6c1.3,4.8,3,9.5,4.6,14.5c0,0-0.2,0.5-0.6,0.8
		c-7.1,4.2-6.8,4.1-10.9-3.2c-4-7.1-5.1-14.7-3.8-22.2c2-12.1,5.2-24,7.9-35.9c0.8-3.7,1.5-7.4,2.5-11.1c0.8-3.1,1.9-6.1,2.8-9.1
		C300.9,189,301.7,189.2,302.4,189.4z"/>
	<path class="st0" d="M465.4,268.2c-10.1,2.2-16.4-0.7-21-8c-1.1-1.8-2.7-3.3-4.4-4.7c-10.5-9-21-17.9-31.5-26.7
		c-3.7-3.1-7.6-5.8-12.2-9.3c8-0.4,14.4-1.6,21,5.2c13,13.5,27.6,25.3,41.6,37.8C460.9,264.3,462.9,266,465.4,268.2z"/>
	<path class="st0" d="M187.6,710.9c-5.3-27.5,2.9-51.8,15.9-74.7C202.4,661.4,200,686.9,187.6,710.9z"/>
	<path class="st0" d="M404.2,143.9c-10.3-7.2-20.5-14.6-31-21.6c-13.8-9.2-28.7-13-44.9-7.1c-4.1,1.5-7.8,4.4-11.5,6.6
		c3.9-8.8,17.2-14.4,24.7-14.9c19-1.4,34.8,6.4,48.9,17.7c6,4.8,9.8,12.4,14.5,18.8C404.7,143.6,404.5,143.7,404.2,143.9z"/>
	<path class="st0" d="M781.3,96c1.1,2,1.9,3.2,2.5,4.5c0.1,0.1-1.3,1.3-1.8,1.1c-1.5-0.4-3.5-0.9-4.1-2
		c-6.7-13.7-19.6-16.1-32.6-17.6c-6.2-0.7-12.6-0.1-19.2-0.1c9.3-7.5,18.6-14.5,31.3-8.8c7.2,3.2,14.4,6.8,20.9,11.2
		C782.2,86.9,784.5,91.4,781.3,96z"/>
	<path class="st0" d="M362.9,261.1c-5.7,1.9-10.3,2.8-13.8-2.7c-6.1-9.5-13.7-18.3-18.4-28.4c-7-15-12-31-17.8-46.5
		c-0.2-0.5,0.1-1.2,0.9-2.1C327,209.7,338.8,238.8,362.9,261.1z"/>
	<path class="st0" d="M775.4,100.9c-7.1-0.7-13.2-0.3-19.3-3.9c-4.8-2.8-11-4.3-16.6-4.4c-9.4-0.2-18.9,1.1-29.1,1
		c4.1-2.7,7.8-7,12.3-8c13.4-2.8,26.9-2.6,39.8,2.9C768,90.8,772.9,93.8,775.4,100.9z"/>
	<path class="st0" d="M734.2,857.8c6.2,12.5,11.2,25.1,8.7,39.6c-1,6.1,0.5,12.5,0.7,18.8c0.2,5.2,0,10.4-0.7,15.8
		c-5.9-4.3-9.6-9.3-9.1-16.7c0.8-11.8,2-23.5,2.2-35.3C736.3,872.7,734.9,865.2,734.2,857.8z"/>
	<path class="st0" d="M705,977.6c-3.8,0.4-7.7,0.8-11.7,1.3c-5.9-11.8-11.7-23.5-18.3-36.8c4.9-0.3,8.6-1.1,12.1-0.6
		c1.9,0.3,4.7,2.8,4.9,4.6c1.3,11.5,6.3,21.2,13.1,30.2C705.2,976.6,705,977,705,977.6z"/>
	<path class="st0" d="M475.5,894.7c-0.3,0.1,0-0.1,0.3-0.1c11.4,0.9,11.5,0.9,13.2,12.3c1.4,9.1,2.6,18.3,4,28.7
		c-7.6-4.1-11.7-8.8-13-15.9C478.6,911.5,477.1,903.3,475.5,894.7z"/>
	<path class="st0" d="M661.7,945.7c3.7-0.9,6.5-1.8,9.4-2.2c1-0.1,2.6,1.1,3.1,2.2c5.4,11,10.6,22.1,15.9,33.2
		c-6.8,3.1-7.3,2.9-11.2-3.5c-4.8-8-9.7-15.9-14.5-23.9C663.5,950,662.9,948.3,661.7,945.7z"/>
	<path class="st0" d="M504.5,940.8c-7.6-0.4-8.8-1.9-9.5-8.2c-1.1-10.2-2.8-20.4-4.2-30.6c-0.2-1.7-0.6-3.5-1-5.4
		c4.9-0.5,7.1,1.3,8.7,5.6C502.9,914.7,504.4,927.4,504.5,940.8z"/>
	<path class="st0" d="M231.4,953.7c-4.6,0-7.4,0-10.5,0c-3.6-11.6-7.3-23.3-10.9-35c4.2-1.7,6.9-0.5,8.6,3.8
		C222.6,932.6,226.9,942.7,231.4,953.7z"/>
	<path class="st0" d="M827,72.1c10.1-1.7,20.3,1,28.2,10.1c9,10.3,13.8,22.3,12.9,36.1c-0.6,0.3-1.1,0.5-1.7,0.8
		c-0.7-1.3-1.9-2.5-2-3.9c-1.2-11.3-6.2-21.1-13.5-29.5c-3.4-4-7-8.2-13.4-8.8C833.6,76.6,829.9,73.6,827,72.1z"/>
	<path class="st0" d="M751.8,69c13.2-5.7,31.4,0.1,39.4,12.4c-1.9,2.3-3.8,4.6-6.1,7.4C777.6,75.7,764.3,73.3,751.8,69z"/>
	<path class="st0" d="M722.4,103.7c-11.1,12.2-28,13.9-41.2,22.9C683.8,114.6,700.2,103.6,722.4,103.7z"/>
	<path class="st0" d="M755,99.8c-20.4-1.8-39.6,0.8-58.1,6.2C706.1,94.8,742.8,90.3,755,99.8z"/>
	<path class="st0" d="M861.6,116.3c-4.5-0.4-5.7-2.6-7.1-5.8c-2.7-6.2-5.9-12.4-10.2-17.5c-3.3-3.8-2.8-6.4-0.1-10.8
		C853.9,91.8,859.6,102.8,861.6,116.3z"/>
	<path class="st0" d="M907.8,103.4c1.3,10.8-4.2,28.7-12.2,37.2c-0.5-3.7-1.9-6.8-1.1-9.1c3.5-9.7,7.8-19.2,11.7-28.7
		C906.8,103,907.3,103.2,907.8,103.4z"/>
	<path class="st0" d="M239.1,952.6c-2.3,0.4-4,0.7-5.2,0.9c-4.4-11.5-8.7-22.7-13.4-35.2C233.1,926.8,237.1,938.7,239.1,952.6z"/>
	<path class="st0" d="M794,92c4.2-0.9,8.5-3.1,10.2-1.9c3.6,2.6,6.3,6.9,8.2,10.9c0.6,1.2-2.1,4.4-3.9,6.1c-0.5,0.5-3.5-0.6-4.5-1.7
		C800.7,101.6,797.9,97.4,794,92z"/>
	<path class="st0" d="M898.1,382.6c-2.9,6.5-5.7,13-8.8,19.4c-0.4,0.9-2.5,1.4-3.8,1.3c-0.6-0.1-1.6-2.3-1.3-3.2
		c2-6.7,4.2-13.3,6.6-19.8c0.4-1.1,2.8-2.2,4-1.9C895.9,378.5,896.7,380.6,898.1,382.6z"/>
	<path class="st0" d="M773.3,65.3c9.6-0.6,19.8-1.8,25.4,10c-1.5,1.1-3.2,2.4-4.6,3.4C786.9,74.1,780.1,69.7,773.3,65.3z"/>
	<path class="st0" d="M679.9,140.4c-3.8,12.3-11,21.5-22.3,27.5C664,158.1,667.4,145.8,679.9,140.4z"/>
	<path class="st0" d="M647.2,190.8c2.6-12.8,11.1-19.8,20.2-26.4C662.6,174.3,656,182.8,647.2,190.8z"/>
	<path class="st0" d="M673.9,140.3c3.8-12.2,14.8-15.2,24.5-19.8c0.3,0.3,0.5,0.7,0.8,1c-8.1,6.7-16.3,13.3-24.4,20
		C674.4,141.2,674.1,140.7,673.9,140.3z"/>
	<path class="st0" d="M820.3,72.9c-10,5-20.2,10.2-30.6,15.4C794.5,79,808.7,72,820.3,72.9z"/>
	<path class="st0" d="M824.1,87.1c-4.1,5.6-4.1,5.6-9.1,1.9c-4.3-3.2-9.1-3.4-17.4-0.8C805,81.2,814.5,80.7,824.1,87.1z"/>
	<path class="st0" d="M833.3,78.3c-5.9,10.3-12.5,2.5-19.2,1.6C820.2,74.6,827.8,74,833.3,78.3z"/>
	<path class="st0" d="M793.7,65.2c10.3-1.9,12.1-1.4,17.6,4.9C801.8,74.9,801.1,74.7,793.7,65.2z"/>
	<path class="st0" d="M806.1,127c6.5,12.4,7.1,17.1-1.7,24C805,142.5,805.6,134.6,806.1,127z"/>
	<path class="st0" d="M909.4,237.6c-2.6,3.4-4.9,6.4-7.1,9.3c-1-1.6-2.6-3.2-2.8-4.9c-0.3-4.4,3-8.8,6.1-8.3
		C906.7,233.8,907.5,235.6,909.4,237.6z"/>
	<path class="st0" d="M853.4,112c-6,0.1-9-2.1-9.3-7.4c-0.2-3.5-1.6-7-2.5-10.5c0.5-0.2,0.9-0.4,1.4-0.6
		C846.4,99.7,849.9,105.9,853.4,112z"/>
	<path class="st0" d="M792.4,94.1c2.5,3.4,4.8,6.6,7.6,10.5c-3.7-0.7-6.5-1-9-1.9c-1.6-0.6-2.9-2.1-4.3-3.1c1-1.3,1.9-2.6,3-3.8
		C790.2,95.2,791,94.9,792.4,94.1z"/>
	<path class="st0" d="M504.3,213c-7.4,5.6-8.1,5.3-17.7-3.9C492.7,210.4,498.4,211.7,504.3,213z"/>
	<path class="st0" d="M808.8,64.4c6.1-0.9,11,0.2,15.8,4.4C818.2,70.7,813.1,70.2,808.8,64.4z"/>
	<path class="st0" d="M904.1,228.8c2.2-1.1,5.5-3.7,6.4-3c3.7,2.7,2.9,6.8,1.7,10.2C909.8,233.9,907.5,231.8,904.1,228.8z"/>
	<path class="st0" d="M899.2,110.4c1.9-6.2,3.9-12.4,6.2-19.7c2.1,4.4,2.9,7.2-0.1,10.5c-2.4,2.6-3.7,6.2-5.4,9.3
		C899.6,110.5,899.4,110.4,899.2,110.4z"/>
	<path class="st0" d="M807.2,89c8.9,2.7,11,5.7,7.5,10.2C812.4,96.1,810.1,92.9,807.2,89z"/>
	<path class="st0" d="M899.7,231.9c-3.3,6.1-4.9,12.2,0.2,18.6C893.3,248.5,893.3,239,899.7,231.9z"/>
	<path d="M736.4,215.1c2.9,35.9-7.8,195.8-13.2,201.1c0.3-4,0.4-7.1,0.7-10.2c1.4-19.1,2.5-38.2,4.1-57.3c2.2-25.5,5.3-51,7-76.5
		c1-14.7,0-29.6,0.1-44.4C735.1,223.5,736,219.3,736.4,215.1z"/>
	<path d="M823.3,240c-0.1,8.8-3.4,10.5-12.3,10.3c-13.8-0.3-22.2-23.3-13.9-32.9c1.8-2,6.3-3.6,8.7-2.7c4.3,1.5,9.1,4.1,11.6,7.8
		c3.4,5,4.9,11.3,7.2,17.1C824.2,239.7,823.8,239.9,823.3,240z M799.2,218.8c2.4,0.5,3.8,0.8,5.2,1.1c8,1.8,14.8,10.4,14.7,18.5
		c0,4.3-1.8,7-6.5,7c-3,0-6,0-8.9,0c3.1,1,6.2,1.9,9.4,2.3c5.2,0.7,7.5-1,7.6-6.4c0.2-8.5-2.5-16.1-9.3-21.6
		C808.2,217.1,804.3,215.7,799.2,218.8z M807.2,241.9c3.2,0.4,5.6-0.7,5.4-4.1c-0.2-3.4-1.3-6.6-5.7-6.8c-3.9-0.2-7,1.7-7.2,5.3
		C799.6,240.7,803.8,241.2,807.2,241.9z M814.7,232.7c-2.2-4.4-5.2-8.3-10.2-9.3c-2.3-0.5-6.2-0.3-7.1,1.1c-1.2,1.9-0.3,5.2-0.3,8.9
		C803.6,227.8,808.5,226.3,814.7,232.7z"/>
	<path d="M853,372.2c-5.7,3-3.6,6.3-1.1,9.9c4.5,6.6,7.5,13.8,5.5,22.1c-1.4,5.8-3.5,6.9-8.9,4.5c-0.2-0.1-0.3-0.2-0.4-0.2
		c-5.3-0.9-9.4-2.6-10.4-9.2c-1.1-7.4-0.9-14.3,4-20.4C844.5,375.4,847.5,372.1,853,372.2z M854.3,395.1c0.4-0.3,0.8-0.5,1.2-0.8
		c-2.9-5.4-5.8-10.8-8.8-16.3c-6.8,5.8-8.8,14.1-5.4,20.6C845.6,391.8,848.2,391.1,854.3,395.1z M842.5,404.2c2.3,0.5,4.1,0.9,6,1.3
		c1.5,0.3,3,0.5,4.6,0.7c0.2-1.7,1-3.8,0.4-5.1c-1.2-2.3-3.3-4-5-6c-1.7,1.6-3.6,3.1-4.9,4.9C842.8,400.9,842.8,402.6,842.5,404.2z"
		/>
	<path d="M313.2,358.4c-4.5,23.3-1,46.2,4.5,70C309,420.1,306.3,372.7,313.2,358.4z"/>
	<path d="M812.4,280.2c1.6,10.3,4.1,20.6,4.7,31c0.5,8.3,1.4,16.2,4.6,23.8c0.6,1.3,0.7,2.8,1,4.3c-0.7,0.2-1.4,0.4-2.1,0.6
		c-1.8-5.6-5.1-11.2-5.2-16.9c-0.2-13.8-2.2-27.3-4.5-40.9c-0.1-0.6,0-1.2,0.1-1.7C811.4,280.3,811.9,280.3,812.4,280.2z"/>
	<path d="M839.3,366.9c-6.7,11.5-9.1,23.4-3.8,36.2C826.5,396.7,828.6,376.3,839.3,366.9z"/>
	<path class="st0" d="M799.2,218.8c5.1-3,9-1.6,12.2,0.9c6.8,5.5,9.5,13.1,9.3,21.6c-0.1,5.4-2.4,7.1-7.6,6.4
		c-3.2-0.4-6.4-1.3-9.4-2.3c3,0,6,0,8.9,0c4.7,0,6.4-2.7,6.5-7c0.1-8.1-6.8-16.7-14.7-18.5C802.9,219.5,801.5,219.2,799.2,218.8z"/>
	<path class="st0" d="M807.2,241.9c-3.4-0.6-7.6-1.2-7.4-5.6c0.1-3.6,3.3-5.4,7.2-5.3c4.4,0.2,5.5,3.4,5.7,6.8
		C812.7,241.2,810.3,242.3,807.2,241.9z"/>
	<path class="st0" d="M814.7,232.7c-6.1-6.3-11.1-4.8-17.6,0.6c0-3.7-0.9-7,0.3-8.9c0.9-1.4,4.8-1.5,7.1-1.1
		C809.5,224.4,812.4,228.3,814.7,232.7z"/>
	<path class="st0" d="M854.3,395.1c-6.2-4-8.7-3.3-13.1,3.5c-3.3-6.5-1.3-14.8,5.4-20.6c3,5.6,5.9,10.9,8.8,16.3
		C855.1,394.6,854.7,394.9,854.3,395.1z"/>
	<path class="st0" d="M842.5,404.2c0.4-1.6,0.3-3.3,1.1-4.3c1.4-1.8,3.3-3.3,4.9-4.9c1.7,2,3.8,3.7,5,6c0.7,1.3-0.2,3.4-0.4,5.1
		c-1.5-0.2-3-0.4-4.6-0.7C846.6,405.1,844.8,404.6,842.5,404.2z"/>
</g>
</svg>
