<?xml version="1.0" encoding="UTF-8"?><svg id="Layer_1" xmlns="http://www.w3.org/2000/svg" viewBox="0 0 1200 1200"><path d="M553.46,846.92c-.28-6.51-.54-12.72-.81-19.04-2.47-.19-4.53,.64-6.65,.97-9.08,1.42-18.23,2.14-27.4,2.54-20.93,.91-41.81,.43-62.56-2.67-23.31-3.48-45.3-11.01-66.11-22.04-.93-.5-1.78-1.28-2.9-1.27-.74,.5-.41,1.17-.38,1.77,.24,5.63,.89,11.24,.73,16.88-.04,1.48,.41,2.44,1.73,3.03,.83,.37,1.61,.87,2.46,1.17,10.23,3.55,17.31,20.54,7.72,32.54-5.96,7.45-13.99,10.04-23.27,9.25-3.09-.27-6.08-1.04-8.9-2.38-12.21-5.77-15.02-18.14-10.44-28.43,2.66-5.98,7.12-10.38,13.24-12.68,3.4-1.28,6.67-3.55,10.43-2.36,.94-.9,.7-1.76,.62-2.54-.69-6.42-1.2-12.85-1.03-19.31,.04-1.37-.79-1.9-1.71-2.52-3.02-2.02-6.07-4.01-9.03-6.11-16.95-12.01-29.8-27.59-39.6-45.78-10.6-19.68-18.28-40.53-24.6-61.92-.72-2.45-1.14-4.96-1.11-7.52,.07-5.08,2.73-7.5,7.78-7.12,2.48,.19,4.77,1.09,7.06,1.96,6.63,2.49,13.24,5.03,20.12,6.78,32.54,8.3,62.48,2.72,89.84-16.75,13.62-9.69,25.25-21.33,34.34-35.41,.68-1.06,1.5-2.06,1.78-3.31-.29-.88-1.1-.94-1.76-1.18-20.39-7.54-35.53-21.22-46.41-39.82-7.79-13.33-12.45-27.81-15.36-42.89-2.33-12.06-3.72-24.24-3.89-36.54-.03-2.19,.08-4.36,.55-6.51,.94-4.32,4.55-5.87,8.24-3.41,1.65,1.1,3.12,2.49,4.64,3.79,8.01,6.83,16.93,11.92,27.32,14.08,11.37,2.37,22.46,1,33.19-3.13,16.56-6.38,30.84-16.18,42.64-29.49,3.99-4.5,7.36-9.46,9.95-14.92,.23-.48,.56-.95,.3-1.83-21.95-1.12-37.46-13.55-50.96-30.42-.37,3.2,.41,5.72,.48,8.26,.02,.9,.44,1.84,.29,2.69-.47,2.59,.67,4.22,2.65,5.7,2.11,1.58,3.9,3.55,5.44,5.71,4.18,5.85,4.05,12.94-.33,19.33-3.87,5.64-10.1,7.87-17.02,6.11-10.92-2.78-17.74-14.25-14.95-25.17,.9-3.53,2.72-6.53,5.51-8.9,2.43-2.07,5.19-3.3,8.44-3.32,1.25,0,2.56,.14,3.77-.82,.29-1.47-.19-2.98-.38-4.47-.58-4.52-.66-9.06-.69-13.6-.01-1.86-.44-3.55-1.27-5.22-2.74-5.55-5.19-11.21-6.35-17.34-.1-.53-.22-1.07-.25-1.61-.31-4.57,2.85-7.01,7.17-5.54,.69,.23,1.37,.5,2.01,.84,15.37,8.13,31.31,8.31,47.61,3.38,11.26-3.41,21.41-8.99,30.92-15.81,23.98-17.18,40.91-39.74,51.22-67.31,.95-2.54,2.61-5.02,2.6-7.68,0-2.67-1.78-5.09-2.71-7.64-1.56-4.26-3.25-8.48-4.7-12.78-.58-1.71-1.5-2.66-3.15-3.37-12.98-5.58-26.52-9.39-40.14-12.97-2.72-.72-5.44-1.43-8.15-2.2-1.04-.3-2.08-.67-3.06-1.13-1.84-.85-3.17-2.17-3.27-4.32-.1-2.16,1.17-3.56,2.9-4.59,2.29-1.37,4.83-2.09,7.38-2.76,12.67-3.29,25.52-5.68,38.45-7.67,2.6-.4,5.2-.87,7.82-1.1,2.36-.21,3.63-1.22,4.38-3.59,4.41-14.03,9.4-27.87,14.23-41.77,.6-1.71,1.24-3.42,1.99-5.07,.9-1.99,2.19-3.7,4.68-3.49,2.47,.2,3.47,2.05,4.08,4.17,.87,3.07,1.2,6.25,1.55,9.4,1.18,10.56,2.26,21.14,3.41,31.71,.23,2.07,.73,4.12,.92,6.2,.15,1.77,1.08,2.29,2.68,2.34,8.83,.27,17.55,1.51,26.27,2.83,7.99,1.21,15.92,2.76,23.82,4.5,1.14,.25,2.3,.62,3.33,1.17,2.99,1.58,3.34,4.93,.8,7.23-1.36,1.24-3.04,1.97-4.7,2.73-7.87,3.59-16.13,6.09-24.4,8.55-7.57,2.26-15.15,4.47-22.56,7.23-1.41,.52-2.22,1.16-2.54,2.75-1.95,9.82-5.15,19.29-8.15,28.81-.57,1.81-.67,3.56-.3,5.36,2.63,12.52,6.6,24.61,13.14,35.64,12.52,21.1,30.38,35.45,54.48,41.32,15.1,3.67,29.76,2.17,43.82-4.6,1.8-.87,3.58-1.78,5.52-2.31,4.11-1.11,7.29,1.02,7.76,5.24,.28,2.48-.15,4.92-.77,7.29-3.77,14.57-9.8,28.14-18.83,40.22-7.74,10.36-17.58,18.06-30.04,22.11-2.6,.85-5.28,1.31-7.96,1.84-.59,.12-1.3-.04-1.79,.75,.64,1.19,1.86,1.87,2.91,2.65,13.48,10.06,28.53,16.57,44.99,19.87,21.33,4.27,42.3,2.13,63.08-3.55,3.76-1.03,7.48-2.23,11.38-2.72,5.16-.65,8.63,1.51,10.24,6.44,1.11,3.42,1.29,6.98,1.33,10.51,.28,25.25-3.24,49.83-13.58,73.1-5.82,13.09-13.61,24.85-24.33,34.51-12.74,11.47-27.78,17.99-44.6,20.65-.54,.08-1.07,.19-1.59,.34-.24,.07-.45,.27-.71,.43,.72,1.02,1.87,1.14,2.85,1.49,14.65,5.31,29.71,8.91,45.14,11.09,12.11,1.71,24.26,2.26,36.43,1.46,20.71-1.36,40.84-5.41,59.87-14.06,2.82-1.28,5.53-2.74,8.16-4.38,.69-.43,1.39-.87,2.13-1.22,1.58-.75,3.2-.87,4.62,.28,1.39,1.13,1.85,2.67,1.34,4.41-.56,1.92-1.14,3.83-1.8,5.71-6.26,17.82-11.88,35.87-18.65,53.51-4.79,12.5-10.35,24.63-17.3,36.09-.77,1.27-1.28,2.55-1.33,4.08-.32,9.45-.7,18.89-1.04,28.34,0,.26,.08,.53,.13,.81,.79,.75,1.84,.74,2.79,.93,8.84,1.78,14.26,9.6,12.29,18.41-1.62,7.24-5.55,12.84-13.15,14.94-7.18,1.99-16.56-1.53-20.79-7.66-2.61-3.78-3.15-8-1.91-12.25,2.02-6.92,5.97-12.41,12.88-15.28,.94-.39,1.5-.83,1.53-1.93,.16-5.36,.37-10.72,.54-16.08,0-.25-.13-.51-.2-.77-.85-.1-1.09,.61-1.44,1.08-25.73,33.84-59.62,55.92-99.68,69.05-4.74,1.55-9.57,2.83-14.37,4.23-2.48,.72-2.65,.88-2.3,3.4,.35,2.52,.89,5,1.29,7.51,.19,1.19,.79,1.89,1.89,2.41,2.79,1.32,5.59,2.65,8.25,4.2,6.82,3.97,9.39,9.33,8.15,16.58-1.16,6.77-6.91,12.68-13.7,13.94-6.62,1.23-12.67-.24-18.01-4.29-5.64-4.28-7.32-11.09-4.43-17.56,2.04-4.56,5.39-7.92,9.77-10.29,2.41-1.31,2.44-1.32,1.93-4.01-.58-3.1-1.24-6.19-1.92-9.59-29.81,7.22-59.46,14.45-90.11,14.02-.47,.34-.64,.67-.6,1.05,.55,5.53,.23,11.08,.34,16.62,.05,2.67,.12,2.67,2.76,2.91,9.97,.88,19.85,2.29,29.42,5.35,2.17,.69,4.28,1.53,6.22,2.74,1.82,1.14,2.83,2.9,4.05,4.63,2.55,3.61,2.26,7.54,2.1,11.49-.36,9.08-.13,18.18-.76,27.25-.14,2-.75,3.4-2.46,4.79-1.94,1.58-3.59,3.53-5.83,4.79-.75,.42-.64,1.24-.71,1.95-.5,5.06-1.02,10.12-1.5,15.18-.84,8.86-1.72,17.72-2.49,26.59-.69,7.87-1.2,15.76-1.9,23.63-.31,3.52-.83,7.03-1.34,10.54-.22,1.52-.61,2.99-.28,4.57,.34,1.61-.6,2.75-1.8,3.71-2.22,1.77-4.71,3.08-7.33,4.15-6.01,2.45-12.31,3.85-18.69,4.79-12.4,1.83-24.86,3.04-37.41,3.55-17.53,.71-34.34-2.78-50.89-8.02-3.2-1.01-6.31-2.3-9.5-3.37-2.31-.78-3.5-2.36-4.06-4.68-2.39-9.89-4.46-19.84-5.85-29.92-1.75-12.69-4.41-25.21-6.87-37.77-.56-2.85-1.09-5.71-1.54-8.57-.23-1.43-.66-2.55-2.15-3.16-1.74-.72-3.15-2.04-5.1-2.49-1.87-.42-2.15-2.27-2.37-3.93-.71-5.4-1.47-10.8-2.09-16.21-.9-7.94-1.76-15.89-1.85-23.9-.07-6.28,1.53-8.6,7.54-10.69,6.89-2.39,14.06-3.59,21.22-4.84,6.43-1.12,12.91-1.99,19.94-2.33Zm77.86,19.34c-1.28-1.88-1.56-3.27-1.7-4.74-.39-4.25-.96-8.49-1.3-12.74-.67-8.33-1.06-16.69-1.27-25.04-.09-3.53,1.73-5.14,5.27-5.02,2.63,.09,5.24,.54,7.89,.49,9.37-.18,18.68-1.09,27.95-2.33,13.15-1.77,26.11-4.54,39.03-7.49,15.58-3.56,31.18-7.04,46.24-12.5,31.05-11.25,58.17-28.51,80.29-53.19,14.43-16.09,24.74-34.71,32.76-54.68,7.11-17.71,12.79-35.93,19.19-53.9,.17-.48,.55-1,.04-1.5-.71-.22-1.23,.23-1.79,.49-22.06,10.38-45.47,14.89-69.66,15.75-17.53,.63-34.82-1.56-51.87-5.52-13.39-3.11-26.49-7.12-38.85-13.27-1.71-.85-3.38-1.77-5.01-2.76-2.35-1.42-3.12-2.95-2.59-4.87,.5-1.83,2.15-2.74,4.83-2.62,.91,.04,1.8,.12,2.72-.02,4.04-.6,8.09-1.16,12.13-1.76,12.68-1.88,24.47-6.04,34.95-13.61,10.6-7.66,18.66-17.51,24.78-28.96,13.49-25.23,17.56-52.47,16.94-80.68-.03-1.44-.36-2.88-.61-4.31-.26-1.52-1.18-2.21-2.72-1.87-1.95,.43-3.9,.86-5.82,1.41-10.41,2.95-20.94,5.29-31.73,6.43-20.9,2.21-41.16-.26-60.67-8.19-11.27-4.58-21.7-10.61-30.86-18.7-1.36-1.2-2.68-2.47-3.64-4.04-2.06-3.37-.88-6.83,2.82-8.12,1.19-.42,2.46-.67,3.72-.8,13.71-1.36,24.95-7.54,33.91-17.8,10.29-11.8,16.51-25.76,20.71-40.7,.19-.67,.53-1.38-.12-2.04-1.07-.09-1.89,.57-2.77,.99-15.52,7.5-31.69,8.85-48.36,5-20.57-4.75-36.93-16.17-50.17-32.29-9.77-11.89-15.36-25.84-19.23-40.56-.23-.87-.29-1.79-.93-2.5-5.92,.11-8.65-1.65-10.23-6.84-.38-1.26-.72-2.62-1.71-3.63-.23,.16-.43,.22-.49,.35-.36,.83-.72,1.67-1.03,2.52-10.6,29.65-29.13,53.16-55.05,70.92-8.89,6.09-18.38,11.03-28.7,14.24-16.76,5.21-33.4,5.69-49.81-1.44-.39-.17-.82-.46-1.22,0-.24,.67,.07,1.25,.29,1.83,6.08,15.81,15.48,29.15,29.29,39.17,6.25,4.54,13.12,7.78,20.73,9.29,3.24,.65,6.48,.9,9.59-.71,1.95-1.01,4-1.49,5.85,.14,1.76,1.54,1.5,3.59,1,5.58-.31,1.23-.74,2.43-1.17,3.63-1.97,5.41-4.6,10.5-7.99,15.14-14.28,19.59-33.23,32.84-56.12,40.43-10.15,3.36-20.66,4.01-31.24,2.01-11.25-2.13-21.01-7.36-29.83-14.51-.8-.65-1.45-1.6-2.82-1.75-.4,1.56-.23,3-.14,4.42,.54,8.62,1.53,17.19,3.04,25.7,2.59,14.57,6.59,28.69,13.64,41.78,10.69,19.86,26.12,34.24,47.99,41.07,.43,.14,.86,.29,1.28,.46,3.53,1.41,4.6,3.89,3.13,7.42-.94,2.27-2.23,4.37-3.54,6.44-9.25,14.62-21.05,26.84-34.95,37.09-29.21,21.52-61.4,28.29-96.74,19.66-7.97-1.94-15.58-4.91-23.2-7.87-1.32-.51-2.62-1.21-3.98-1.09-.43,.42-.44,.8-.38,1.15,.17,.98,.28,1.99,.57,2.94,7.1,23.84,15.81,47,28.84,68.33,8.34,13.66,18.89,25.33,31.91,34.69,24.78,17.82,52.38,28.93,82.41,33.95,19.97,3.34,40.14,3.89,60.34,3.16,10.89-.4,21.78-1.1,32.55-2.95,1.42-.24,2.94-.39,4.34-.15,5.34,.91,7.62,1.33,8.17,7.45,.43,4.88,1,9.76,1.4,14.64,.64,7.61,.93,15.23,1.1,22.87,.01,.63-.02,1.29,.87,1.98,22.1,.34,44.49,.38,67.48-.96Zm-106.53,48.87c.29,1.31,.54,2.53,.82,3.75,2.89,12.66,5.6,25.35,7.44,38.21,1.46,10.15,3.2,20.26,5.2,30.32,.33,1.69,1.11,2.49,2.65,2.98,5.45,1.74,10.94,3.38,16.48,4.78,9.79,2.47,19.64,4.58,29.8,4.71,6.54,.08,13.08-.02,19.61-.56,10.77-.89,21.52-1.94,32.15-3.97,5.27-1.01,10.42-2.46,15.25-4.9,1.43-.72,2.37-1.57,2.11-3.35-.11-.7,.04-1.45,.1-2.17,.87-10.77,1.8-21.54,2.61-32.32,.84-11.14,2.16-22.23,3.36-33.34,.28-2.57,1.05-5.14,.62-7.71-.7-.34-1.21-.04-1.71,.11-18.06,5.3-36.58,7.7-55.3,8.66-13.16,.68-26.33,.94-39.51,.27-13.11-.67-26.05-2.31-38.81-5.36-.78-.19-1.56-.5-2.87-.11Zm-13.36-47.55c-.5,.84-.29,1.77-.22,2.65,.82,10.23,2.04,20.42,3.19,30.61,.11,.99,.61,1.61,1.27,2.29,2.48,2.53,5.7,3.52,8.95,4.39,13.04,3.49,26.34,5.33,39.8,6.05,11.35,.61,22.7,.63,34.07,.14,13.71-.6,27.4-1.39,40.91-3.97,10.61-2.03,21.22-4.07,30.94-9.22,1.85-.98,2.41-1.99,2.42-3.95,.04-9.09-.1-18.18,.42-27.26,.03-.6,.2-1.29-.47-1.73-.57-.2-1.07,.05-1.58,.23-4.3,1.54-8.78,2.3-13.27,2.96-14.32,2.1-28.75,2.85-43.19,3.19-23.99,.55-47.99,.9-71.94-1-9.97-.79-19.89-2.03-29.45-5.19-.59-.19-1.17-.51-1.84-.19Zm100.65-556.62c.6-.26,.72-.59,.83-.94,3.16-10.41,7.78-20.36,9.95-31.09,.46-2.27,1.68-3.84,3.97-4.34,5.25-1.15,10.23-3.16,15.37-4.66,8.63-2.51,17.31-4.86,25.76-7.93,.86-.31,1.91-.39,2.36-1.33-.47-.7-1.05-.66-1.57-.76-7.76-1.51-15.57-2.7-23.39-3.8-6.48-.91-13.01-1.31-19.52-1.98-4.03-.42-5.3-1.76-5.98-5.81-1.91-11.39-2.56-22.92-3.8-34.39-.18-1.63-.42-3.25-.63-4.87-1.74,2.55-2.42,5.28-3.32,7.92-3.5,10.32-7.14,20.59-9.98,31.11-1.04,3.84-3.26,5.87-7.21,6.26-3.07,.3-6.12,.8-9.18,1.24-11.51,1.63-22.94,3.76-34.27,6.37-.72,.17-1.72-.04-2.01,1.04,.15,.12,.26,.29,.42,.34,.6,.21,1.21,.4,1.82,.57,14.12,3.81,28.2,7.75,41.42,14.18,.33,.16,.67,.32,1.02,.39,2.46,.49,3.8,2.13,4.94,4.26,4.4,8.17,8.06,16.68,11.46,25.3,.39,.99,.6,2.09,1.53,2.92Zm-232.76,551.65c2.82-.1,5.88-.47,8.68-1.92,5.31-2.75,8.78-6.95,8.68-13.09-.1-6.07-2.85-10.79-8.71-13.27-1.84-.78-3.69-1.52-5.52-2.31-1.38-.6-2.82-.74-4.27-.5-7.06,1.13-12.32,4.72-15.04,11.46-2.77,6.87-.23,13.65,6.22,17.2,3.02,1.66,6.29,2.26,9.96,2.43Zm90.43-389.02c.8,0,2.04-.22,3.2-.82,4.61-2.37,6.48-9.04,3.69-13.4-2.13-3.34-5.13-5.88-8.06-8.46-2.31-2.02-4.57-2.19-7.27-.72-1.83,.99-3.09,2.52-3.99,4.35-4.04,8.24,2.75,19.05,12.44,19.04Zm383.69,309.56c4.78,0,8.36-2.78,10.26-7.65,2.34-6.03-.34-11.15-6.65-12.62-2.03-.47-4.1-.77-6.09-1.33-1.21-.34-2.1-.09-2.97,.7-2.89,2.61-4.99,5.69-5.92,9.53-.72,2.93,.1,5.4,2.2,7.42,2.66,2.55,5.96,3.68,9.18,3.96Zm-119.43,68.04c1.73-.13,3.51-.37,5.18-1.19,6.68-3.31,7.4-11.36,1.35-15.61-1.85-1.3-3.86-2.37-5.78-3.58-1-.63-2.01-.73-3.11-.31-4.14,1.59-7.41,4.2-9.31,8.28-1.75,3.75-.78,7.16,2.64,9.54,2.68,1.86,5.7,2.71,9.03,2.87Z"/><path d="M463.02,700.68c15.65,.26,26.14,13,28.02,25.75,2.39,16.2-8.28,35.48-29.13,40.71-5.18,1.3-10.41,1.55-15.65,.3-11.31-2.69-19.38-11.89-21.06-23.75-1.57-11.16,1.3-21.09,8.2-29.84,4.33-5.49,9.7-9.56,17.02-10.21,1.02-.09,1.89-.62,2.8-1.01,3.71-1.59,5.91-2.03,9.78-1.95Zm21.3,29.6c-.08-6.38-2.63-12.42-7.85-17.22-6.38-5.86-14.69-7.03-22.47-3.18-4.64,2.3-9.16,4.82-13.74,7.24-1.24,.65-2.19,1.58-2.93,2.77-4.44,7.15-6.39,14.82-4.69,23.17,1.76,8.6,6.44,14.72,15.26,17.02,3.3,.86,6.63,.77,10,.27,14.54-2.17,26.15-15.02,26.4-30.07Z"/><path d="M600.89,708.49c-4.91-.01-9.56-1.09-13.93-3.31-10.98-5.58-16.45-16.95-13.76-28.95,1.66-7.4,5.41-13.63,11.16-18.61,2.01-1.74,4.22-3.14,6.83-3.85,.9-.24,1.88-.56,2.67-.21,2.35,1.03,4.55,.38,6.86-.12,4.12-.89,8.16-.17,12.03,1.3,5.58,2.12,10.1,5.72,13.63,10.51,3.67,4.99,4.33,10.72,3.56,16.64-.69,5.29-2.53,10.23-5.56,14.65-5.64,8.24-13.66,11.9-23.49,11.95Zm.54-7.45c6.75-.09,12.44-2.44,16.54-7.95,3-4.03,4.64-8.63,5.12-13.61,.37-3.81-.3-7.46-2.71-10.57-2.49-3.21-5.57-5.76-9.31-7.37-4.23-1.82-8.54-2.33-12.94-.4-2.24,.99-4.56,1.79-6.86,2.66-.93,.35-1.86,.84-2.87,.76-1.38-.1-2.17,.63-2.91,1.64-2.33,3.19-4.07,6.68-4.97,10.52-2.42,10.3,2.62,19.43,12.61,22.94,2.68,.94,5.45,1.38,8.3,1.37Z"/><path d="M624.31,447.82c-.03,5.29-1.35,10.27-4,14.82-5.56,9.51-14.31,12.88-24.86,12.52-2.27-.08-4.51-.46-6.71-1.09-12.54-3.6-19.52-14.89-16.67-27.8,2.12-9.62,7.59-17.18,15.89-22.57,2.57-1.66,5.23-2.57,8.49-1.54,2.17,.68,4.65-.01,7.01,.46,11.94,2.39,20.97,13.23,20.85,25.19Zm-27.18,20.16c7.14-.12,13.17-2.44,16.95-8.91,2.19-3.75,3.27-7.84,3.15-12.22-.09-3.57-1.21-6.74-3.41-9.56-5.84-7.5-15.55-10.04-24.5-6.36-.65,.27-1.26,.74-1.77,1.24-4.12,4.13-7.14,8.93-8.55,14.62-2.39,9.67,2.82,18.24,12.45,20.54,1.85,.44,3.74,.76,5.68,.66Z"/><path d="M479.63,575.08c-.05-3.37,.92-6.84,2.41-10.19,.77-1.73,2.01-3.24,2.23-5.22,.07-.62,.54-1.2,1.1-1.51,3.51-1.94,6.36-5.24,10.88-5.13,.94,.02,1.9-.54,2.85-.86,3.59-1.21,7.12-1.01,10.64,.34,11.25,4.32,17.37,15.75,14.55,27.47-2.17,9.07-8.59,13.52-17.22,15.3-4.88,1-9.76,.75-14.48-1.01-8.18-3.04-13.07-10.18-12.96-19.2Zm22.46,13.55c.75-.05,1.75-.06,2.74-.18,7.16-.86,11.89-4.97,12.95-11.21,1.4-8.19-3.64-16.15-11.67-18.5-1.53-.45-2.99-.49-4.54-.08-2.11,.55-4.09,1.51-6.19,2.04-3.84,.97-5.9,3.59-7.24,7.07-.66,1.7-1.16,3.44-1.4,5.24-1,7.31,3.07,13.23,10.26,15.06,1.6,.41,3.22,.51,5.1,.55Z"/><path d="M746.82,760.13c-12.51,.05-21.25-7.95-22.44-19.33-1.13-10.78,6.29-21.14,16.66-23.3,1.8-.37,3.66-.54,5.4-.07,2.58,.69,5.17,.88,7.81,.82,2.85-.07,5.36,.93,7.5,2.74,8.43,7.14,11.79,18.61,3.37,28.92-5.06,6.19-11.45,9.93-18.31,10.22Zm-15.4-22.66c-.1,7.8,4.01,13.3,10.38,15,8.41,2.24,19.34-4.85,21.06-13.41,1.08-5.39-4.45-14.92-11.02-14.17-2.44,.28-5.12,.24-7.53-.66-1.53-.57-2.82-.37-4.15,.31-5.71,2.92-8.42,7.73-8.73,12.93Z"/><path d="M654.67,580.75c-5.25-.03-10.06-1.46-14.12-4.85-5.34-4.46-7-10.21-5.39-16.89,1.57-6.54,5.36-11.64,10.7-15.61,2.22-1.65,4.62-2.19,7.44-1.46,1.9,.5,3.96,.38,5.95,.48,12.43,.61,19.76,10.86,16.34,22.9-2.71,9.54-10.72,15.45-20.91,15.43Zm-.28-7.06c8.08-.05,13.63-4.82,14.79-12.3,.93-5.96-2.78-11.19-8.7-12.03-3.14-.45-6.33-.57-9.49-.87-1.19-.11-2.11,.3-2.92,1.13-3.1,3.18-5.45,6.8-6.35,11.22-.88,4.29,.69,7.92,4.37,10.33,2.67,1.75,5.64,2.41,8.29,2.52Z"/><path d="M772.36,528c2.02-.02,3.72,0,5.42,.45,6.6,1.77,10.7,8,9.65,14.74-1.3,8.32-8.38,14.81-16.53,15.12-9.71,.37-15.75-7.03-13.29-16.42,1.33-5.08,4.23-9.2,8.25-12.54,2.02-1.68,4.46-1.24,6.5-1.36Zm-.63,6.52c-1.22-.08-2.4,.06-3.23,1.08-2.33,2.86-4.18,5.96-4.38,9.77-.16,3.07,1.12,4.77,4.06,5.58,4.71,1.3,10.42-2.05,12-7.04,1.49-4.71-1.05-8.57-6.02-9.14-.81-.09-1.63-.16-2.44-.24Z"/><path d="M563.14,545.71c-.1-2.2,.48-4.96,.67-7.76,.14-2.17,1.49-3.47,3.14-3.38,1.6,.09,2.62,1.3,2.71,3.45,.17,3.99-.48,7.93-.85,11.88-.04,.44-.23,.88-.4,1.29-.56,1.33-1.58,1.94-3.02,1.76-1.35-.17-2.04-1.02-2.29-2.31-.29-1.45,0-2.88,.04-4.94Z"/><path d="M505.27,799.35c.01,2.64-2.03,3.9-4.12,2.8-.62-.33-1.2-.82-1.68-1.34-2.14-2.32-4.45-4.52-6.06-7.27-1.02-1.74-.78-3.51,.44-4.42,1.24-.92,3.01-.66,4.34,.83,2.1,2.36,4.11,4.81,6.14,7.23,.6,.71,.98,1.52,.94,2.17Z"/><path d="M584.38,549.95c.03,2.27-.75,3.51-2.16,3.76-1.55,.28-2.69-.48-3.28-1.83-1.26-2.89-2.3-5.87-3.14-8.92-.14-.51-.1-1.08-.08-1.62,.05-1.45,.83-2.37,2.2-2.73,1.3-.33,2.43,.21,3.01,1.31,1.74,3.29,2.81,6.82,3.44,10.02Z"/><path d="M515.44,800c-.85,.04-1.61-.21-2.27-.75-1.97-1.6-3.94-3.18-5.87-4.82-.47-.4-.86-.96-1.1-1.53-.52-1.26-.45-2.5,.64-3.47,1-.89,2.17-.96,3.26-.26,2.68,1.71,5.18,3.65,7.22,6.12,.78,.95,1.16,2.05,.53,3.27-.51,.98-1.33,1.44-2.42,1.44Z"/><path d="M744.86,679.58c-.04-.93,.11-1.81,.58-2.62,.59-1,1.45-1.65,2.64-1.59,1.18,.06,2.11,.7,2.45,1.83,.81,2.67,1.61,5.36,2.2,8.08,.4,1.87-.47,3.27-1.89,3.75-1.41,.47-2.99-.23-3.68-1.98-.96-2.42-2.05-4.82-2.29-7.47Z"/><path d="M563.14,409.61c.02,1.94-1.57,3.35-3.45,2.64-2.88-1.09-5.43-2.87-7.58-5.07-1.03-1.05-1.13-2.47-.16-3.73,.9-1.17,2.25-1.37,3.44-.82,2.64,1.22,5,2.9,7.04,4.99,.53,.54,.69,1.26,.72,2Z"/><path d="M546.65,418.23c-2.56-.81-5.52-1.94-7.6-4.5-.85-1.05-.78-2.43,.13-3.54,.84-1.03,2-1.3,3.19-.69,2.18,1.12,4.4,2.18,6.35,3.68,1.12,.86,1.5,2.08,1.04,3.41-.4,1.15-1.36,1.65-3.11,1.64Z"/><path d="M738.1,684.02c.08,3.19-.63,4.47-2.46,4.69-1.95,.24-2.96-.89-3.57-3.86-.33-1.61-.5-3.23-.36-4.86,.15-1.88,1.24-3.01,2.81-3.1,1.6-.08,2.64,.85,3.03,2.82,.3,1.51,.59,3.02,.54,4.31Z"/><path d="M639.67,956.4c-1.52,0-2.66-.5-3.17-1.84-.55-1.46,.04-2.64,1.24-3.55,1.05-.8,2.32-1.07,3.56-1.21,2.78-.32,5.58-.5,8.37-.7,.53-.04,1.1,0,1.61,.14,1.32,.36,2.27,1.12,2.32,2.62,.05,1.46-.68,2.41-2.01,2.88-1.82,.64-3.75,.52-5.62,.77-2.14,.29-4.33,.3-6.3,.89Z"/><path d="M639.09,984.91c-.71-.05-1.26-.02-1.79-.13-1.26-.25-2.15-.99-2.44-2.26-.29-1.3,.24-2.5,1.34-3.01,3.23-1.5,6.65-2.33,10.24-2.04,1.28,.11,2.12,1.02,2.28,2.34,.19,1.53-.48,2.71-1.9,3.24-2.54,.96-5.18,1.59-7.73,1.85Z"/><path d="M643.11,970.16c-1.15,0-2.15,.08-3.13-.02-1.4-.14-2.35-.94-2.56-2.38-.21-1.43,.47-2.57,1.73-3.07,2.84-1.12,5.82-1.18,8.78-.56,1.27,.27,2.06,1.24,2.11,2.52,.06,1.39-.7,2.38-2.01,2.92-1.64,.67-3.38,.47-4.93,.6Z"/></svg>