<svg id="Vrstva_1" data-name="Vrstva 1" xmlns="http://www.w3.org/2000/svg" xmlns:xlink="http://www.w3.org/1999/xlink" viewBox="0 0 2230.89 2234.61"><defs><style>.cls-1{fill:none;}.cls-2{fill:#fff;}.cls-3{clip-path:url(#clip-path);}.cls-4{clip-path:url(#clip-path-2);}</style><clipPath id="clip-path" transform="translate(77.89 93.74)"><polygon class="cls-1" points="720.19 772.94 585.06 827.23 585.06 737.98 720.19 737.98 720.19 772.94"/></clipPath><clipPath id="clip-path-2" transform="translate(77.89 93.74)"><polygon class="cls-1" points="720.19 772.94 585.06 827.23 646.81 891.68 744.38 798.19 720.19 772.94"/></clipPath></defs><rect class="cls-2" y="3.71" width="2230.89" height="2230.89"/><path d="M901.86,1613.3c.14-66.36,20.64-131.77,59.32-185.81a321.58,321.58,0,0,1,509.85-16.3c41.63,50.71,67.34,113.75,72.35,179.22a319.41,319.41,0,0,1-187.88,317.06c-61.43,27.63-131.57,35-197.47,21.12A321.77,321.77,0,0,1,901.86,1613.3c0-6.22-8.55-2.56-8.54,2.28.14,68.33,21.34,135.69,61.15,191.3A330.44,330.44,0,1,0,1358.69,1313c-62.76-28.23-134.07-35.69-201.43-21.83-65.86,13.55-126.44,47.75-172.77,96.37a331.25,331.25,0,0,0-87.22,177,339.89,339.89,0,0,0-3.95,51C893.3,1621.81,901.85,1618.14,901.86,1613.3Z" transform="translate(77.89 93.74)"/><path d="M1077.82,1838c.16-3.14,1.81-6.74,5.5-6.5s6.12,3.92,6.2,7.26c.22,9.19-11.27,7.37-11.7-.76-.29-5.36-10.08-4-9.82.76a14.66,14.66,0,0,0,15.4,14.23c8.08-.29,15.82-6.52,15.94-15,.11-8.13-6.94-14.14-14.77-14.21-8.57-.07-16.1,6.3-16.57,15C1067.71,1844.07,1077.56,1842.77,1077.82,1838Z" transform="translate(77.89 93.74)"/><path d="M1001.54,1430.43c.64-16.5,27.74-17.87,27.42-1-.32,16.7-26.82,16.39-27.47-.36-.08-2.13-2.08-4.76-4.4-4.44-2.62.36-3.11,3.36-3,5.47.46,11.74,9.77,22.11,21.89,21.92,11.89-.19,20.68-10.75,20.54-22.28s-8.73-22-20.54-22.54c-12.35-.57-21.48,9.68-21.94,21.56C993.8,1434.44,1001.29,1437,1001.54,1430.43Z" transform="translate(77.89 93.74)"/><path d="M1002.59,1428.55c.27-7.15,5.76-13.29,13.24-12.35,7,.89,12.24,7.53,12.11,14.48-.12,7.14-5.82,13.28-13.24,12.34s-11.85-7.51-12.11-14.47c-.21-5.29-9.8-2.66-9.62,2.13a21.19,21.19,0,0,0,22.69,20.35c11.75-.7,21.94-10.5,21.9-22.48s-11-21-22.69-20.36a23.29,23.29,0,0,0-21.9,22.49C992.77,1435.88,1002.4,1433.32,1002.59,1428.55Z" transform="translate(77.89 93.74)"/><path d="M1168.93,1296.32c-.68-22.66-7.81-45.81-.68-68.08l-3.12,2.62c24.51-6.39,49.66-11.68,75.11-11.34,22,.28,43.23,5.38,64.1,12l-4.11-3.73c-.06,23.67-1.93,47.3-2,71,0,4.72,9.83,5.53,9.84.14.06-23.67,1.94-47.3,2-71,0-2.05-2.54-3.23-4.11-3.73-25-7.87-50.41-13.2-76.71-12.14a269.18,269.18,0,0,0-44.42,5.89q-5.64,1.18-11.25,2.53c-4,1-8.8,1.51-12.54,3.18-5.27,2.37-5.38,14.24-5.68,19.24-1.07,17.88,3.18,35.5,3.71,53.32.14,4.74,10,5.52,9.85.14Z" transform="translate(77.89 93.74)"/><path d="M1203.16,1216.08a82.82,82.82,0,0,1-1.39-46.46c3.25-12.18,10.29-31.52,25.65-31.35,15.72.17,25.13,16.3,30,29.24a87.2,87.2,0,0,1,4,47c-1.14,6.15,6.31,7,7.44,1a98.8,98.8,0,0,0-1.93-44.68c-3.61-12.88-9.91-27-20.65-35.49-10.34-8.18-24.5-9.6-34.69-.44-9.82,8.82-15,23.33-17.77,35.85a95.35,95.35,0,0,0,2.28,49.6c2,6.22,8.65.76,7.07-4.18Z" transform="translate(77.89 93.74)"/><path d="M1226.81,1868.63l1.33-67.9,2.14-108.8.49-24.86c.1-5.22-9.5-2.56-9.59,2.22l-1.34,67.9L1217.71,1846l-.49,24.87c-.11,5.22,9.5,2.55,9.59-2.22Z" transform="translate(77.89 93.74)"/><path d="M1267.08,1857.44l-41.71-27.18c-1.27-.82-3.47-.47-4.7.2l-38.55,20.86c-5.44,2.94-2.27,9.74,3.25,6.75l38.55-20.85-4.69.2,41.71,27.17c4,2.58,11-4,6.14-7.15Z" transform="translate(77.89 93.74)"/><path d="M1305.11,1826.29l-71.34-38.24c-2.57-1.38-5.7-3.87-8.62-4.5s-7.46,2.36-10,3.55l-43.41,20.08-34.67,16c-5.18,2.4-3.57,10.08,2.37,7.33l74.08-34.27,10.61-4.91-4.36.09,69,37,10,5.35c4.21,2.25,11-5,6.36-7.52Z" transform="translate(77.89 93.74)"/><path d="M1314,1794.83l-76.91-37.29c-4-1.93-8.13-4.94-12.6-3.15-3,1.17-5.81,2.78-8.68,4.15l-46.2,22.14L1133.51,1798a3.38,3.38,0,0,0-1.28,5.28c1.7,1.94,4.85,1.67,6.94.67l79.69-38.19,11.32-5.42h-6.09l73,35.37,10.46,5.08c2.19,1.06,5.17,1.13,7-.69,1.53-1.5,1.68-4.21-.52-5.28Z" transform="translate(77.89 93.74)"/><path d="M1265.7,1745.46l-34.32-20.71c-2-1.23-3.81-2.54-6.35-2.07-1.84.33-3.67,1.55-5.32,2.4l-21.37,11-16.91,8.72c-5.84,3-.42,8.75,4.63,6.15l41.71-21.49-5.9,0,36.66,22.12c4,2.41,12-3.17,7.17-6.11Z" transform="translate(77.89 93.74)"/><path d="M1020.14,1772.58l53.92-41.3,86.39-66.16L1180.2,1650c5-3.81-.19-9.26-5.07-5.53l-53.92,41.29-86.39,66.17-19.75,15.12c-5,3.81.19,9.26,5.07,5.53Z" transform="translate(77.89 93.74)"/><path d="M1054.42,1796.66l-4.76-49.56c-.12-1.31-.39-3.35-1.84-4L1007.48,1726c-5-2.1-8.29,7.18-4,9l40.35,17.14-1.84-4,4.76,49.56c.62,6.45,8.17,4.63,7.62-1.1Z" transform="translate(77.89 93.74)"/><path d="M1103.17,1806.09l-14.53-79.3c-.51-2.83-.53-6.71-1.78-9.34s-6.06-4-8.45-5.2l-43-21.51-33.72-16.89c-4.21-2.11-10.92,4.89-5.73,7.49l73,36.54,10.46,5.24-1.84-2.29,14.11,77,2,11.13c1,5.25,10.27,1.81,9.41-2.91Z" transform="translate(77.89 93.74)"/><path d="M1133.58,1792.67l-18.67-82.82c-.63-2.82-.87-8.23-3.4-10s-6.11-3-8.93-4.32l-46.28-22.39-35.62-17.24c-4.3-2.09-10.26,5.87-5.45,8.2l79.55,38.5,11.29,5.46-1.68-2.4,17.84,79.1,2.56,11.34c1.27,5.66,9.83,1.23,8.79-3.39Z" transform="translate(77.89 93.74)"/><path d="M1141.61,1723.5l-5.14-39.22c-.26-2-.15-3.9-1.87-5.23a20.49,20.49,0,0,0-4.22-2l-21.67-9.73-17.36-7.79c-4.34-1.95-9.58,6.47-4.67,8.67l42.8,19.21-1.88-2.24,5.56,42.45c.73,5.63,9.06.46,8.45-4.17Z" transform="translate(77.89 93.74)"/><path d="M965.9,1552l65.89,16.41,105.6,26.29,24.13,6c4.61,1.15,9.84-7.34,4.78-8.6l-65.9-16.41-105.59-26.3-24.13-6c-4.62-1.14-9.84,7.35-4.78,8.61Z" transform="translate(77.89 93.74)"/><path d="M969.82,1594.31l35.78-34.62c1.53-1.48,1.57-4.1,1-6l-11.76-42.22a3.39,3.39,0,0,0-5-2.19c-2.21,1.35-2.48,4.5-1.86,6.72l11.75,42.23,1.05-6-35.78,34.62c-3.49,3.38.26,11.8,4.75,7.46Z" transform="translate(77.89 93.74)"/><path d="M991.64,1637.43l53.15-61c2.08-2.39,4.92-4.83,6.5-7.63,1.81-3.19,0-7.43-.66-10.73l-9.92-46.79-7.92-37.37c-1.3-6.1-9.18-1.37-8.17,3.39l16.93,79.84,2.43,11.45,1.65-4.68-51.44,59.07-7.43,8.53c-3.71,4.27.56,10.93,4.88,6Z" transform="translate(77.89 93.74)"/><path d="M1021.75,1653.8l53.29-66.46c2.69-3.35,6-6,5.19-10.56-.53-3.14-1.41-6.26-2.12-9.37L1066.7,1517l-8.73-38.6c-1.38-6.12-8.52-3.78-7.16,2.23l19.5,86.2,2.77,12.24.48-4.68-50.73,63.27-7.27,9.07c-2.95,3.68,2.56,11.64,6.19,7.11Z" transform="translate(77.89 93.74)"/><path d="M1080.31,1617.58l27.65-28.66c1.59-1.64,3.12-2.9,3.13-5.44a22.41,22.41,0,0,0-1.19-5.34l-5.9-23-4.73-18.42c-1.54-6-8.89-4.48-7.33,1.59l11.67,45.45.89-4.62L1074.78,1610c-3.27,3.39,1.5,11.81,5.53,7.63Z" transform="translate(77.89 93.74)"/><path d="M1107.93,1372.7l28.25,61.75,45.28,99,10.35,22.61c2.73,6,8.91,1.11,6.53-4.08l-28.25-61.76-45.28-99-10.35-22.61c-2.72-5.95-8.91-1.11-6.53,4.09Z" transform="translate(77.89 93.74)"/><path d="M1076.36,1401.59l49.38,6.39c1.54.2,2.89-1.24,3.68-2.34l25.69-35.52c3.36-4.64-2-10.34-5.82-5l-25.69,35.51,3.69-2.33-49.37-6.39c-4.7-.61-6.9,9-1.56,9.72Z" transform="translate(77.89 93.74)"/><path d="M1055.33,1444.78l80.86,3.5c3.33.15,7.36.92,10.68.31,3.47-.63,6.06-5.11,8.16-7.66l30.39-36.92,24.28-29.5c3.6-4.37-5.91-6.8-8.87-3.2l-51.87,63-7.43,9,5.52-2.1-78.25-3.38-11.31-.49c-2.2-.09-5.29.49-6,3-.59,2.26,1.64,4.27,3.8,4.36Z" transform="translate(77.89 93.74)"/><path d="M1062.13,1477.71l85.19.22c3.39,0,9.29.94,12-1.49,2.27-2.07,4.09-5.12,6-7.51l32.32-40.37,24.74-30.9c3.62-4.52-5.35-8.15-8.31-4.45l-55.23,69L1151,1472l4.45-1.51-81.09-.22-11.63,0c-6.14,0-6.88,7.46-.59,7.48Z" transform="translate(77.89 93.74)"/><path d="M1126,1501l39.91,3.77c2.4.23,4.89.7,7.07-.69,1.55-1,2.59-2.78,3.68-4.23l14.48-19.2,11.46-15.19c3.75-5-5.27-7.2-8.19-3.34l-28.26,37.46,5.72-2.1-42.63-4c-2.31-.22-5.35.62-6.28,3a3.37,3.37,0,0,0,3,4.51Z" transform="translate(77.89 93.74)"/><path d="M1334.37,1371.19l-30.66,60.59-49.13,97.1-11.23,22.19c-2.81,5.54,6.51,5.92,8.69,1.61l30.66-60.59,49.13-97.1,11.23-22.19c2.81-5.55-6.51-5.92-8.69-1.61Z" transform="translate(77.89 93.74)"/><path d="M1292.45,1363.48l25.79,42.59a3.86,3.86,0,0,0,3.5,2.09l43.78-2.07c2.33-.11,5.23-1.25,5.86-3.78a3.36,3.36,0,0,0-3.57-4.1l-43.78,2.06,3.5,2.09-25.79-42.58c-2.6-4.28-11.81-.45-9.29,3.7Z" transform="translate(77.89 93.74)"/><path d="M1244.84,1374.7l47.68,65.4c1.77,2.42,3.47,5.83,5.74,7.85,2.45,2.18,7.48,1.38,10.47,1.43l47.83.74,38.19.59c5.62.09,8.28-7.42,1.7-7.52l-81.61-1.26-11.7-.18,3.81,2.14-46.15-63.29-6.66-9.14c-2.79-3.82-12.35-.94-9.3,3.24Z" transform="translate(77.89 93.74)"/><path d="M1223.37,1400.91l52.76,66.52c2,2.58,4.25,6.92,7.81,7.41,3.17.44,6.72,0,9.91,0l51.41.1,39.58.08c2.33,0,5.26-1.19,5.93-3.67a3.36,3.36,0,0,0-3.48-4.17l-88.37-.17-12.55,0,2.94,1.29-50.39-63.53-7.23-9.11c-3-3.74-11.65,1.06-8.32,5.26Z" transform="translate(77.89 93.74)"/><path d="M1246.33,1467.11l21.64,33.1c1.08,1.65,1.86,3.48,3.9,4,1.43.34,3.22,0,4.66,0l23.74-.64,19-.51c4.7-.13,7.83-9.36,2.07-9.2l-46.91,1.26,2.63,1.3-23.43-35.83c-2.91-4.45-9.94,2.57-7.32,6.59Z" transform="translate(77.89 93.74)"/><path d="M1479.66,1546.3l-66.49,13.8-106.55,22.13-24.35,5.06c-4.74,1-6.39,10.1-.28,8.83l66.49-13.81L1455,1560.19l24.35-5.06c4.74-1,6.39-10.1.28-8.83Z" transform="translate(77.89 93.74)"/><path d="M1458.34,1509.31,1441.13,1556a6.29,6.29,0,0,0,.81,6l28.92,33c4.11,4.68,8.23-3.63,5-7.27l-28.92-33,.82,6,17.21-46.71c1.78-4.82-4.4-10.93-6.66-4.8Z" transform="translate(77.89 93.74)"/><path d="M1419.41,1480.68l-21.4,78.06c-.83,3-2.41,6.53-2.51,9.71-.11,3.38,3.45,6.61,5.37,9.09l29.24,37.85,23.35,30.23c3.52,4.56,8.73-3.66,5.85-7.39l-49.9-64.59-7.15-9.26.7,4.65,20.72-75.54,3-10.91c1.65-6-5.61-7.91-7.26-1.9Z" transform="translate(77.89 93.74)"/><path d="M1385.54,1480.07l-19.11,82.72c-.64,2.77-2.83,8-1.48,10.82s4.28,5.4,6.17,7.77l32,40.25,24.62,31c3.34,4.21,10.61-2.47,7.67-6.18l-55-69.2-7.8-9.83.27,3.2,18.25-79,2.62-11.32c1.47-6.37-7-5.3-8.21-.22Z" transform="translate(77.89 93.74)"/><path d="M1348.78,1537.66l-12.47,37.82c-.7,2.11-1.69,4.32-.75,6.54.65,1.54,2.16,2.87,3.21,4.12l15.31,18.16,12.25,14.55c3.73,4.42,8.86-3.81,5.81-7.43l-30.23-35.88.73,4.64,13.41-40.66c2-6-5.34-7.72-7.27-1.86Z" transform="translate(77.89 93.74)"/><path d="M1430.72,1768.34,1378.47,1725l-83.73-69.5-19.13-15.89c-3.84-3.18-10.14,4.58-6.28,7.79l52.25,43.37,83.73,69.51,19.13,15.88c3.84,3.19,10.14-4.58,6.28-7.78Z" transform="translate(77.89 93.74)"/><path d="M1446.6,1729.26l-47.26,15.67c-2,.66-3.15,2.79-3.5,4.75l-7.73,43.14c-1.16,6.47,6.71,5.47,7.7-.1l7.74-43.14-3.51,4.75,47.26-15.67c4.46-1.48,4.78-11.22-.7-9.4Z" transform="translate(77.89 93.74)"/><path d="M1443.47,1681.68l-74.09,31.81c-2.7,1.16-6.37,2-8.74,3.84s-2.65,6.65-3.32,9.37l-11.41,46.65-9,36.63c-1.18,4.83,8.6,6.94,9.79,2.06l19.39-79.28,2.78-11.36-2,2.29,72-30.9,10.39-4.47c5.7-2.44-1.41-8.54-5.82-6.64Z" transform="translate(77.89 93.74)"/><path d="M1425.48,1654.33l-76.85,36.76c-3.48,1.66-8.57,3.1-10,7-1.07,2.94-1.46,6.33-2.16,9.37l-11.61,50.4-8.88,38.57c-1.4,6.07,7.75,4.46,8.83-.26l19.84-86.12,2.81-12.23-3.2,3.79,73.15-35,10.49-5c5.14-2.46,3.49-10.14-2.43-7.31Z" transform="translate(77.89 93.74)"/><path d="M1357.81,1660.88l-37.59,13.92c-2.26.84-4.57,1.46-5.9,3.69-1,1.63-1.15,3.69-1.52,5.53l-4.72,23.58-3.73,18.65c-1.28,6.41,7.19,5,8.21-.15l9.2-46-4.1,4.5,40.15-14.87c2.28-.85,4.33-3.09,4.24-5.66-.07-2.18-2-4-4.24-3.18Z" transform="translate(77.89 93.74)"/><path d="M1217.83-89.67,1218-56.8l.52,88.68.78,132,1,159.92,1,176.35,1,176.81,1,166,.82,139.33.59,100.88c.1,15.82.09,31.65.28,47.48,0,.69,0,1.38,0,2.07,0,5.62,7.59,8.1,7.55,1.52l-.19-32.87-.53-88.68-.78-132-.94-159.92-1-176.35-1-176.81-1-166-.82-139.33-.6-100.88c-.09-15.82-.08-31.65-.28-47.48,0-.69,0-1.38,0-2.07,0-5.62-7.59-8.1-7.55-1.52Z" transform="translate(77.89 93.74)"/><path d="M1164.13,1881.13c.56-10.24,16.53-7.28,16.11,2.12-.2,4.38-4.71,6.54-8.68,5.83-4.66-.83-7.24-4.61-7.49-9.12-.13-2.41-2.79-3.28-4.71-2.42-2.43,1.09-3.36,3.85-3.23,6.29.48,8.86,8.06,16,17.11,14.81,8.79-1.13,15.17-9.45,15.08-18.09s-7.08-15.84-15.83-15.46c-9.33.4-15.94,8.63-16.42,17.57C1155.72,1889.19,1163.86,1886.3,1164.13,1881.13Z" transform="translate(77.89 93.74)"/><path d="M1482.18,1682c.69-17.87,25.38-14.53,25.7,1.69.13,7.16-5.48,13-12.77,12.41s-12.66-7-12.93-14.1c-.22-5.8-9.46-3-9.28,1.69.47,12,9.77,21.36,22,20.76,11.7-.57,22.13-10.52,22.2-22.45a20.87,20.87,0,0,0-22-20.77,23.58,23.58,0,0,0-22.21,22.46C1472.68,1689.44,1482,1686.7,1482.18,1682Z" transform="translate(77.89 93.74)"/><path d="M1213,1607.79c.27-7,5.62-13.74,13-13.89s12.32,6.55,12.18,13.41-5.69,13.74-13,13.89c-7.48.16-11.92-6.57-12.19-13.41-.18-4.76-10-5.85-9.83-.48.47,12.12,10.78,21.38,22.79,21.56,11.79.17,22.1-9.07,22-21.08s-11.08-21.39-22.79-21.56a21.48,21.48,0,0,0-22,21.08C1203,1612,1212.83,1613.17,1213,1607.79Z" transform="translate(77.89 93.74)"/><path d="M1433.47,1430.91c.28-7,5.48-13.29,12.94-12.54,7.12.72,12.46,7.41,12.37,14.4s-5.56,13.29-12.93,12.55-12.11-7.4-12.38-14.41c-.2-5.31-9.85-2.93-9.66,1.86a21.23,21.23,0,0,0,22.6,20.47c11.75-.62,22-10.32,22-22.33s-10.87-21.07-22.6-20.46a23.2,23.2,0,0,0-22,22.32C1423.6,1438,1433.29,1435.69,1433.47,1430.91Z" transform="translate(77.89 93.74)"/><path d="M1378.69,1851c.45-8.37,13.38-7.25,13.72.57.35,8.28-13.24,5.85-13.65-1.82-.36-6.53-8.12-2.72-7.84,2.44.43,8.06,6.58,15,15.09,14.34,8.14-.67,14.09-8.25,14.23-16.16s-5.74-15-13.88-15c-8.42,0-14.94,7.54-15.38,15.59C1370.64,1857.4,1378.38,1856.75,1378.69,1851Z" transform="translate(77.89 93.74)"/><path d="M1219.84,1334.43c.17-3.13,2.2-7,5.85-6.9,3.5.11,5.69,4,5.68,7.13s-2.06,6.6-5.36,6.85c-3.87.31-6-3.79-6.17-7.08-.27-5-10.26-4.75-10,.23,1,18.81,31.53,18.72,31.52-.23,0-8.23-7.43-14.18-15.26-14.36-8.63-.21-15.79,5.92-16.26,14.59C1209.58,1339.59,1219.57,1339.45,1219.84,1334.43Z" transform="translate(77.89 93.74)"/><path d="M954.3,1652.54c.43-8,14.46-7.66,14,.19-.2,3.53-4.16,5.53-7.32,5.35a6.86,6.86,0,0,1-6.75-6.87c-.12-2.16-2.19-4.36-4.43-3.73-2.55.71-3,3.82-2.93,6,.43,8,7,15.19,15.35,14.55,8.21-.63,13.7-8.29,13.56-16.17s-6-15.2-14.22-15.28c-8.62-.08-14.33,7.53-14.76,15.56C946.48,1658.37,954,1658.77,954.3,1652.54Z" transform="translate(77.89 93.74)"/><path d="M860,768.05a52.82,52.82,0,0,0,24.42-8.42,60.58,60.58,0,0,0,10.56-8.87c2.88-3,7.41-7.52,8.62-11.64,1.12-3.81-2-9.35-3.57-12.73a93.21,93.21,0,0,0-7.06-13A95.44,95.44,0,0,0,872,690.65c-4.9-3.85-8.09,4.74-4.25,7.75a85.16,85.16,0,0,1,28.86,40.51l.27-4.95c-8.89,13.45-22.06,22.74-38.32,24.19-4.94.44-3.6,10.34,1.41,9.9Z" transform="translate(77.89 93.74)"/><path d="M538.1,911.5a248.73,248.73,0,0,1,50.31-148.76c32.3-42.91,78-75,128.63-92.38a289.89,289.89,0,0,1,168.66-5.42c52.23,14.13,100.15,43.3,135.84,84.06,35,40,57.34,90.57,61.7,143.7a247,247,0,0,1-38.69,153.67c-28.95,44.86-71.89,80-121,100.78a289.16,289.16,0,0,1-167.46,17c-53.48-10.55-103.72-36.41-142.49-74.84-37.61-37.28-63.83-85.81-72.32-138.23a252.73,252.73,0,0,1-3.18-39.62c0-5.31-9.73-3.24-9.72,1.55a255.56,255.56,0,0,0,52.41,153.67c33.59,44.15,80.81,77.07,133.21,94.94a301.51,301.51,0,0,0,174.11,5.53c54.13-14.51,104.1-44.61,141.1-86.86,36.28-41.44,59.24-93.47,63.75-148.48,4.54-55.35-10-111-40-157.53C1023,727.93,978.54,692,927.87,670.43c-54.31-23.08-115.63-29-173.5-17.79C699.11,663.4,647.09,690,606.87,729.52c-39.12,38.41-66.37,88.63-75.16,142.9a258.45,258.45,0,0,0-3.33,40.63C528.37,918.36,538.09,916.3,538.1,911.5Z" transform="translate(77.89 93.74)"/><path d="M737,664.15a377.34,377.34,0,0,1-1-68c.82-10.29,3.92-18.42,14.1-22.38,9.51-3.7,20.26-4.94,30.3-6.33a304,304,0,0,1,67-1.83c9.69.82,19.85,1.55,29.25,4.18s15.59,7.58,17.06,17.49c1.8,12,.59,24.92.66,37l.2,39.62c0,5,10,6.1,9.93,1.19l-.2-39.62c-.07-12.15.64-24.59-.49-36.7-2.16-23.15-25.09-27.15-44.16-29.48a315.75,315.75,0,0,0-75.38-.11c-11.59,1.38-23.63,3-34.84,6.31-9.3,2.79-17.86,7.94-21.19,17.52-1.94,5.57-2.2,11.51-2.53,17.34q-.61,10.59-.65,21.2A413,413,0,0,0,727.19,665c.47,4.71,10.35,4.53,9.81-.83Z" transform="translate(77.89 93.74)"/><path d="M750.56,569.76l2.32,88.49c.07,2.5,3.17,2.93,5,2.21a6.07,6.07,0,0,0,3.71-5.9l-2.32-88.49c-.07-2.51-3.17-2.93-5-2.21a6.07,6.07,0,0,0-3.71,5.9Z" transform="translate(77.89 93.74)"/><path d="M788,563.25l5.86,90.08c.41,6.21,8.91,2.78,8.59-2.08l-5.86-90.08c-.41-6.21-8.91-2.78-8.59,2.08Z" transform="translate(77.89 93.74)"/><path d="M862.19,563.89l-1.17,93c-.08,6.55,7.57,4.73,7.64-1l1.18-93c.08-6.55-7.57-4.72-7.65,1Z" transform="translate(77.89 93.74)"/><path d="M824.93,562.09l-1.17,93a3.38,3.38,0,0,0,4.27,3.36c2.53-.77,3.46-3.72,3.49-6l1.18-93a3.39,3.39,0,0,0-4.28-3.36c-2.53.77-3.46,3.72-3.49,6Z" transform="translate(77.89 93.74)"/><path d="M754.48,762.72Q646.7,801.51,540.75,845.08c-4.45,1.83-4.92,11.17.83,8.8q105.92-43.59,213.73-82.36c4.55-1.64,5-10.91-.83-8.8Z" transform="translate(77.89 93.74)"/><g class="cls-3"><path d="M714.79,737.87a197.21,197.21,0,0,0-13.53,50.71c-.78,6.18,8.22,4.33,8.83-.5a188.83,188.83,0,0,1,12.73-48.5c2.49-6-6-6.53-8-1.71Z" transform="translate(77.89 93.74)"/><path d="M676.8,736.88a124.69,124.69,0,0,0-9,68.12c.7,4.72,10.63,4.78,9.83-.53A117.77,117.77,0,0,1,686,740.29c2.13-4.93-7.35-7.79-9.24-3.41Z" transform="translate(77.89 93.74)"/><path d="M635.58,747.33a116.26,116.26,0,0,0,3,71.35c1.62,4.43,11.28,3.81,9.29-1.64a109.66,109.66,0,0,1-2.53-67.35c1.33-4.79-8.37-7.19-9.72-2.36Z" transform="translate(77.89 93.74)"/><path d="M605.63,761.71A120.65,120.65,0,0,0,609,835.57c2.16,5.77,9.38,3.71,7.18-2.18a108.57,108.57,0,0,1-3.43-66.45c.63-2.36.09-5.31-2-6.77-1.79-1.22-4.44-.82-5.08,1.54Z" transform="translate(77.89 93.74)"/><path d="M581.6,787C583,830.07,592,872.62,606.74,913.06c1.63,4.44,11.16,1.84,9.31-3.22A401.11,401.11,0,0,1,591.51,785.7c-.16-4.92-10.08-3.73-9.91,1.3Z" transform="translate(77.89 93.74)"/></g><g class="cls-4"><path d="M745.45,794.66a188.07,188.07,0,0,1-42.89-26.25c-3.71-3-11.15,3.56-7,6.94a196.87,196.87,0,0,0,44.71,27.2c4.32,1.91,10.48-5.54,5.17-7.89Z" transform="translate(77.89 93.74)"/><path d="M719,820.73a118.74,118.74,0,0,1-51.29-41.08c-2.85-4-10.59,2.28-7.69,6.39a123.1,123.1,0,0,0,52.84,42.38c4.37,1.85,10.93-5.68,6.14-7.69Z" transform="translate(77.89 93.74)"/><path d="M681.85,841.35a109.41,109.41,0,0,1-44.64-50.49c-2.3-5.26-9.28,1.53-7.39,5.85a116.06,116.06,0,0,0,47.34,53.47c4.28,2.52,9-6.28,4.69-8.83Z" transform="translate(77.89 93.74)"/><path d="M648.79,851.8a111.1,111.1,0,0,1-44.89-51.39c-2.28-5.33-9.81.72-7.95,5.07a117.67,117.67,0,0,0,47.28,54.64c4.29,2.58,9.82-5.74,5.56-8.32Z" transform="translate(77.89 93.74)"/><path d="M617.2,852.28A400.24,400.24,0,0,1,549.14,745.8c-2.63-6-8.74.05-6.66,4.81,17.32,39.45,40.37,76.44,69.17,108.55,4.16,4.63,8.81-3.25,5.55-6.88Z" transform="translate(77.89 93.74)"/></g><path d="M606,1083.06c59.62-83,144.74-146.65,239.88-183.44a555.89,555.89,0,0,1,83.58-24.94c5.61-1.21,5.3-9-1.07-7.63A562.72,562.72,0,0,0,780.5,921.5,549,549,0,0,0,654.77,1014a513.42,513.42,0,0,0-56.31,65.73c-3.81,5.31,4.47,7.56,7.5,3.33Z" transform="translate(77.89 93.74)"/><path d="M889.35,826.28A164.83,164.83,0,0,0,866,863.22a129.48,129.48,0,0,0-7.23,20c-1,3.6-.87,4.61,1.61,7.46a80.54,80.54,0,0,0,6.36,6.57c19,17.44,45.17,26.14,70.82,24.54,6.52-.41,2.55-8.11-2.6-7.79-25.34,1.58-51.37-8.42-67.88-28l.49,3c5.42-21.38,16.22-40.74,30.26-57.65,3.4-4.09-5.36-8.78-8.43-5.09Z" transform="translate(77.89 93.74)"/><path d="M825.13,856.65c-11.93,16.84-19,36.15-24.35,55.93a3.56,3.56,0,0,0,1.86,4.44,233.22,233.22,0,0,0,76.61,22.59c4.68.56,8.23-8.41,2.46-9.1a227.79,227.79,0,0,1-74.59-22.25l1.87,4.45c4.92-18,11.09-36,22-51.36,3.57-5-2.21-9.83-5.84-4.7Z" transform="translate(77.89 93.74)"/><path d="M782.29,852.2c-13.9,18-21.76,39.58-23.93,62.11a134.66,134.66,0,0,0-.51,17.62c.08,2.43-.21,5.68.52,8s3.33,3.53,5.37,4.78A86.11,86.11,0,0,0,798,956.46c4.73.6,7.57-8.91,2.25-9.59a81.9,81.9,0,0,1-35.87-13.56l1.89,3.61c-2.23-28.26,3.91-56.57,21.47-79.26,3.49-4.51-1.42-10.64-5.44-5.46Z" transform="translate(77.89 93.74)"/><path d="M711.07,908.86a212.15,212.15,0,0,0-.18,58.86c.69,5.11,8.79,2.23,9.79-1.25l1.24-4.31c1.41-4.94-8.54-4.34-9.85.23l-1.23,4.31,9.79-1.24a204.88,204.88,0,0,1,.28-56.83c.76-5.25-9.16-4.51-9.84.23Z" transform="translate(77.89 93.74)"/><path d="M714.68,972.78a107.1,107.1,0,0,0,59-7.95c4.25-1.88,4.55-11.7-.63-9.41A102.68,102.68,0,0,1,716.07,963c-4.66-.69-6.72,9-1.39,9.75Z" transform="translate(77.89 93.74)"/><path d="M661.94,928.07a135.44,135.44,0,0,0-4.16,47.8,155.47,155.47,0,0,0,4,23.39c1,3.78,2,7.56,3.26,11.24,1.38,4,3.54,4.56,7.37,6.16,28.29,11.81,59.88,14.45,89.87,8.51,4.76-.94,6.3-10.05.18-8.84a149,149,0,0,1-90.45-10.6l2,2.18c-8.69-25.92-11-53.26-3.78-79.82,1.71-6.31-6.86-5-8.21,0Z" transform="translate(77.89 93.74)"/><path d="M625,985.49a149.6,149.6,0,0,0,3.23,38.4c1.27,5.54,2.32,13.15,6.73,17a61.41,61.41,0,0,0,15.06,9.51c25.39,11.54,53.78,7.64,80.59,5.1,1.82-.17,4.14-.74,4.83-2.74l.42-1.24c1.72-5-8.09-6.55-9.64-2l-.42,1.24,4.83-2.74c-24.14,2.28-50.17,6.45-73.33-3.1-4.9-2-10.13-4.61-14-8.27-3.62-3.38-4.51-10.85-5.56-15.61-2.6-11.67-3.07-23.63-2.69-35.54.16-5-9.84-5-10,0Z" transform="translate(77.89 93.74)"/><path d="M786.38,971.42c37.15-4.68,74.78-7.06,112.13-3.48,34,3.26,67.07,11.51,99.12,23,20.92,7.5,41.37,16.25,61.56,25.52,4.88,2.24,8.42-7,4.12-8.94-34.29-15.74-69.39-30.17-106-39.46a393.68,393.68,0,0,0-102.84-11.66,613.1,613.1,0,0,0-67.82,5.17c-4.74.6-5.53,10.51-.24,9.84Z" transform="translate(77.89 93.74)"/><path d="M871.16,991.91c-9-8.67-12.1-21-13.78-33l-.83,2.81A82.51,82.51,0,0,1,917.49,943c6.18.6,7.09-6.85.86-7.45-20.93-2-42.52,2.68-60.26,14.14-2.88,1.86-9.83,5.46-10.58,9.06-.46,2.2.71,5.47,1.14,7.64s1,4.58,1.62,6.82c2.49,8.76,6.65,16.79,13.26,23.13,3.48,3.34,12.12-.15,7.63-4.46Z" transform="translate(77.89 93.74)"/><path d="M949.54,937.68a56.05,56.05,0,0,0-26.9,9.14c-4.13,2.75-9.55,6.5-12.24,10.75-2.4,3.8-.58,9.79.39,13.86,4.61,19.26,18.34,34.88,36.11,43.2,4.41,2.06,7.42-7.45,2.87-9.58-18.1-8.48-31.29-26-32.81-46.14l-1.45,4.84c9.08-9.4,20.08-15.23,33.17-16.26,4.77-.37,6.17-10.22.86-9.81Z" transform="translate(77.89 93.74)"/><path d="M976.79,978.94a39.1,39.1,0,0,1,32.48-7c4.76,1,5.68-8.91.76-10a44.47,44.47,0,0,0-36.35,8.06c-3.71,2.83-1.42,12.36,3.11,8.89Z" transform="translate(77.89 93.74)"/><path d="M964.4,980.8c-.22,11.93,4.91,25.7,17,30.12,4.5,1.65,11.27-4.82,5.44-7-9.19-3.38-12.73-14.84-12.57-23.76.1-5.35-9.74-4.18-9.83.6Z" transform="translate(77.89 93.74)"/><path d="M1056.85,973.11c-11,1.14-20.17,6.08-28.84,12.74-2.89,2.22-6.3,4.54-8.71,7.3s-2.25,6.36-2.25,9.77a55.48,55.48,0,0,0,4.92,22.18c2.26,5.18,8.72-2.2,6.86-6.47a46.18,46.18,0,0,1-3.57-23l-2,4.65c9-8,19.18-16.28,31.63-17.57,4.7-.49,7.06-10.19,1.93-9.65Z" transform="translate(77.89 93.74)"/><path d="M848.89,1086.38c3.29,17.27.36,35.78-2.69,52.88-1.84,10.34-4,20.67-6.82,30.81-1.74,6.29,6.79,5.75,8.18.71,3-10.88,5.36-22,7.34-33.09,3.17-17.8,6.07-37.07,2.65-55-1.08-5.67-9.54-.9-8.66,3.74Z" transform="translate(77.89 93.74)"/><path d="M852.12,1152.71l40.52-31c4.48-3.43-4.29-7.84-8-5l-40.53,31c-4.48,3.43,4.29,7.84,8,5Z" transform="translate(77.89 93.74)"/><path d="M811.5,1133a56.45,56.45,0,0,0,34.88,19c5.08.76,9.79-6.55,3.32-7.5a47.57,47.57,0,0,1-29.33-15.78c-3.11-3.6-12.28.32-8.87,4.27Z" transform="translate(77.89 93.74)"/><path d="M822.9,1111.24c7,7.9,16.26,13.83,26.76,15.66,2.05.36,4,.81,5.84-.23,2.65-1.46,5.14-4.58,7.41-6.6l16.3-14.54c1.82-1.62,3.07-4.29,2.12-6.74-.77-2-3.23-3.23-5.06-1.6l-11.85,10.57c-2.95,2.63-8.48,9.69-12.48,9.47-8.41-.49-17.49-7-22.84-13.09-3.84-4.35-9.33,3.55-6.2,7.1Z" transform="translate(77.89 93.74)"/><path d="M825.43,1079.32a75.79,75.79,0,0,0,27.14,18.09,5.88,5.88,0,0,0,5.86-.72,135.93,135.93,0,0,0,22.14-25c3-4.33-6.44-7.58-9.15-3.64a127.33,127.33,0,0,1-20.83,23.45l5.85-.72a64.4,64.4,0,0,1-23.13-15.43c-3.35-3.43-12.22-.44-7.88,4Z" transform="translate(77.89 93.74)"/><path d="M862.85,740.79c33.91-5.5,69.07,6.38,98.58,22.49,29.19,15.94,54.83,37.58,78.29,61,13.85,13.81,27,28.25,40.25,42.68,3.21,3.51,12.22-.77,8.69-4.63-46.41-50.75-96.29-103.83-164.39-123.83-19.73-5.8-40.46-8.69-60.9-5.38-2.18.35-5.07,1.64-5.17,4.24-.09,2.36,2.52,3.79,4.65,3.45Z" transform="translate(77.89 93.74)"/><path d="M1063,837.09a130.31,130.31,0,0,0-2.1-32.39c-.89-4.66-10.77-6-9.8-.93a130.87,130.87,0,0,1,2.1,32.4c-.28,4.73,9.48,6.3,9.8.92Z" transform="translate(77.89 93.74)"/><path d="M1014.1,855.14a110.68,110.68,0,0,0,47.69-21c4.93-3.81-3-8.59-6.82-5.61a100.33,100.33,0,0,1-43.2,19.32c-6.43,1.19-3.3,8.39,2.33,7.34Z" transform="translate(77.89 93.74)"/><path d="M1053.71,882.48a89.53,89.53,0,0,0,34-21.51c4-4-5.28-7.25-8.56-4a79.61,79.61,0,0,1-30.41,18.89c-6.16,2.16.1,8.26,4.92,6.57Z" transform="translate(77.89 93.74)"/><path d="M973.6,835.38l57.84-25.12a6.27,6.27,0,0,0,3.6-4.91,152.85,152.85,0,0,0-8.23-59.53c-1.67-4.85-9.47,1.36-7.92,5.85a142.86,142.86,0,0,1,7.48,55.41l3.61-4.9L972.14,827.3c-4.74,2.07-4.54,10.69,1.46,8.08Z" transform="translate(77.89 93.74)"/><path d="M931.28,797.46A117.46,117.46,0,0,0,985,773.2c3.9-3.14,3.2-7.53,3.22-12.25a123.23,123.23,0,0,0-1-16.4,131.3,131.3,0,0,0-8.33-31.94c-1.85-4.65-11.27-1.29-9.42,3.34a124.18,124.18,0,0,1,8.69,54.55l1.42-2.88c-14.24,11-30.32,19.11-48.18,22.13-5.57.94-6.58,8.8-.09,7.71Z" transform="translate(77.89 93.74)"/><path d="M882.7,783.59c21.57-6.51,41.5-17.27,59.55-30.69,4.54-3.38,6.82-4.83,6.91-10.65a59.05,59.05,0,0,0-2-15.87,63.88,63.88,0,0,0-15-27.08c-3.23-3.51-11.52,2-7.89,5.89a57.16,57.16,0,0,1,15.23,42.54l2-3.85c-17.89,13.91-37.66,25.45-59.45,32-5.37,1.62-5.64,9.58.66,7.68Z" transform="translate(77.89 93.74)"/><path d="M784.44,701.47c.63-11,16-8.52,16,1.41,0,11.08-15.46,8.39-16-1.41-.3-5.35-10-3.36-9.74,1.41,1.21,21.18,35.53,19.11,35.5-1.41,0-9.17-8.46-15.4-17.11-15.29-9.52.13-17.84,7-18.39,16.7C774.4,708.14,784.17,706.25,784.44,701.47Z" transform="translate(77.89 93.74)"/><path d="M563.26,933.53c.72-23.91,39-20.07,38.7,2.81-.16,10.46-9.88,17.32-19.84,16.58a20.22,20.22,0,0,1-18.86-19.39c-.19-6.21-8.52-2-8.38,2.81A26.39,26.39,0,0,0,573.38,961c11.12,3.5,23.48-.79,30.69-9.77s8.39-21.54,2.31-31.31-18.31-14.1-29.34-11.46c-13,3.1-21.77,14.78-22.16,27.88-.07,2.4,2.27,3.63,4.37,3C561.71,938.61,563.19,936,563.26,933.53Z" transform="translate(77.89 93.74)"/><path d="M759,1081.57c.58-10.5,16.16-8.17,16.41,1.36.11,4.51-4.13,6.87-8.24,6.38a9.2,9.2,0,0,1-8.12-8.9c-.34-6.2-8.53-1.7-8.27,3.11.49,9,7.85,16.06,17.09,15.15,8.78-.87,15.75-9,15.83-17.68A15.51,15.51,0,0,0,768,1065.18c-9.2.2-16.66,8.16-17.15,17.17C750.45,1088.84,758.7,1086.8,759,1081.57Z" transform="translate(77.89 93.74)"/><path d="M922.48,1068.84c.71-20.9,33.36-17.19,33.26,2.45,0,8.81-7.76,14.77-16.23,14.39a17.65,17.65,0,0,1-17-16.84c-.2-5.77-9.27-2.27-9.11,2.45.47,13.74,12.45,23.77,26,22.93,13.26-.83,25.45-11.63,25.45-25.38s-12.78-23.76-26-22.93c-13.6.84-25,11.62-25.44,25.38C913.17,1077,922.31,1073.53,922.48,1068.84Z" transform="translate(77.89 93.74)"/><path d="M815.05,793.62a12.6,12.6,0,0,1,11.08-12.29c6.6-.84,13.15,3.83,13.2,10.76.1,14.82-23.52,15.82-24.25.52-.23-4.74-10.1-5.39-9.84,0,1.15,24.23,43.85,25.44,44,.52.11-24.4-42.76-26.28-44-1.54C805,796.58,814.82,798.48,815.05,793.62Z" transform="translate(77.89 93.74)"/><path d="M989.81,912c.28-9.94,7.14-19.71,17.78-20.07,10.47-.37,18.36,9.25,18.46,19.23s-7.43,19.72-17.79,20.07c-10.59.35-18.17-9.26-18.45-19.23-.15-5-10.11-5.76-10-.84a27.79,27.79,0,0,0,18.07,25.71c10.78,4,23.66,1.29,31.37-7.43a26.91,26.91,0,0,0,2.94-31.38c-5.89-10-18-15.15-29.32-13.25a27.5,27.5,0,0,0-23.06,26.35C979.7,916.12,989.66,916.91,989.81,912Z" transform="translate(77.89 93.74)"/><path d="M782,562.07a107.53,107.53,0,0,1-.89-45c2.8-14.18,8.13-29.72,17.53-41,8.56-10.22,24.53-16.39,35.51-6.07,9.73,9.14,12.55,25.29,15.26,37.71a217.13,217.13,0,0,1,4.61,55.3c-.28,6.43,9.72,6.42,10,0a227.64,227.64,0,0,0-4.77-57c-3.14-14.73-6.87-32.84-18.52-43.49s-29.24-9.66-41.6-.52c-13.48,10-21,27.51-25.44,43.19a119.11,119.11,0,0,0-1.33,59.5c1.45,6.27,11.1,3.61,9.64-2.66Z" transform="translate(77.89 93.74)"/><path d="M821.63,458.28l.57-54.56,1.35-131,1.62-157.85,1.41-136.43c.23-22.07,1.32-44.34.68-66.41,0-.32,0-.64,0-1,.07-6.44-9.93-6.44-10,0l-.56,54.56-1.35,131-1.63,157.85-1.4,136.43c-.23,22.08-1.33,44.35-.69,66.42,0,.32,0,.64,0,1-.06,6.43,9.94,6.44,10,0Z" transform="translate(77.89 93.74)"/></svg>