<?xml version="1.0" encoding="UTF-8" standalone="no"?><!DOCTYPE svg PUBLIC "-//W3C//DTD SVG 1.1//EN" "http://www.w3.org/Graphics/SVG/1.1/DTD/svg11.dtd"><svg width="100%" height="100%" viewBox="0 0 420 420" version="1.1" xmlns="http://www.w3.org/2000/svg" xmlns:xlink="http://www.w3.org/1999/xlink" xml:space="preserve" xmlns:serif="http://www.serif.com/" style="fill-rule:evenodd;clip-rule:evenodd;stroke-linejoin:round;stroke-miterlimit:2;"><rect id="sáňky" x="0.084" y="0.033" width="419.528" height="419.528" style="fill:none;"/><g id="sáňky1" serif:id="sáňky"><path d="M117.274,175.398c-0.025,0.013 -0.053,0.028 -0.076,0.041c-1.928,1.096 -8.778,6.62 -9.636,7.263c-7.077,5.308 -14.971,10.488 -22.666,14.886c-1.489,0.85 -3.901,1.645 -5.958,2.651c-1.101,0.539 -2.106,1.111 -2.647,1.871c-0.48,0.674 -1.417,0.832 -2.092,0.352c-0.674,-0.48 -0.832,-1.418 -0.351,-2.092c0.786,-1.105 2.171,-2.043 3.772,-2.826c1.997,-0.976 4.343,-1.736 5.787,-2.561c7.59,-4.337 15.375,-9.446 22.355,-14.681c0.78,-0.584 6.404,-5.1 9.029,-6.883c0.658,-0.447 1.175,-0.74 1.454,-0.846c0.278,-0.106 0.506,-0.13 0.664,-0.13c0.828,-0 1.5,0.672 1.5,1.5c0,0.702 -0.483,1.292 -1.135,1.455Z"/><path d="M128.692,177.116c0.092,-0.74 0.724,-1.313 1.489,-1.313c0.827,-0 1.5,0.672 1.5,1.5c-0,0.362 -0.096,0.778 -0.332,1.22c-0.294,0.551 -0.879,1.225 -1.658,1.921c-2.069,1.851 -5.658,4.08 -6.598,4.885c-6.808,5.836 -14.981,10.507 -22.7,15.258c-1.238,0.761 -3.635,1.627 -5.657,2.586c-1.052,0.499 -2.009,0.977 -2.439,1.551c-0.497,0.662 -1.438,0.797 -2.1,0.3c-0.663,-0.497 -0.797,-1.438 -0.3,-2.1c0.643,-0.858 1.98,-1.715 3.553,-2.461c1.916,-0.909 4.197,-1.709 5.37,-2.431c7.587,-4.669 15.63,-9.245 22.321,-14.981c0.932,-0.799 4.497,-3.006 6.551,-4.843c0.429,-0.384 0.898,-0.964 1,-1.092Z"/><path d="M143.872,181.172c-0.036,0.065 -0.069,0.126 -0.087,0.161c-0.408,0.817 -2.04,2.371 -2.753,2.8c-2.923,1.753 -5.28,4.529 -8.259,6.231c-4.307,2.461 -11.632,8.221 -18.4,12.448c-4.81,3.003 -9.393,5.194 -12.543,5.222c-0.828,0.008 -1.506,-0.658 -1.513,-1.486c-0.008,-0.828 0.658,-1.506 1.486,-1.514c2.775,-0.025 6.743,-2.12 10.981,-4.767c6.804,-4.249 14.171,-10.034 18.5,-12.507c2.961,-1.692 5.299,-4.457 8.204,-6.2c0.409,-0.245 1.38,-1.1 1.614,-1.568c0.156,-0.312 0.56,-0.972 0.748,-1.147c0.205,-0.192 0.41,-0.29 0.569,-0.345c0.466,-0.161 0.873,-0.089 1.218,0.097c0.276,0.148 0.811,0.477 0.811,1.394c-0,0.479 -0.226,0.906 -0.576,1.181Z"/><path d="M159.213,185.11c-1.382,0.953 -5.649,5.413 -6.758,6.078c-8.05,4.83 -15.775,10.687 -23.626,15.921c-3.106,2.071 -6.416,3.475 -9.851,4.848c-0.034,0.014 -0.097,0.037 -0.156,0.057c-0.404,0.331 -0.97,0.442 -1.492,0.24c-0.772,-0.298 -1.157,-1.167 -0.859,-1.939c0.097,-0.252 0.261,-0.496 0.51,-0.701c0.224,-0.184 0.642,-0.346 0.883,-0.442c3.24,-1.296 6.37,-2.606 9.301,-4.559c7.89,-5.26 15.656,-11.143 23.747,-15.997c0.958,-0.575 4.337,-4.118 5.991,-5.504c0.503,-0.421 0.919,-0.685 1.159,-0.785c0.268,-0.112 0.5,-0.141 0.677,-0.141c0.828,0 1.5,0.672 1.5,1.5c-0,0.663 -0.43,1.225 -1.026,1.424Z"/><path d="M174.68,188.228c-0.23,0.271 -1.085,1.268 -1.434,1.53c-2.59,1.942 -5.52,3.704 -7.987,5.819c-6.832,5.856 -15.931,10.385 -23.739,14.939c-1.075,0.627 -4.73,1.917 -7.048,2.87c-0.603,0.247 -1.324,0.606 -1.435,0.661c-0.561,0.516 -1.435,0.532 -2.015,0.012c-0.616,-0.552 -0.668,-1.501 -0.116,-2.118c0.244,-0.273 1.154,-0.808 2.426,-1.33c2.192,-0.901 5.66,-2.093 6.676,-2.686c7.658,-4.467 16.598,-8.883 23.298,-14.626c2.517,-2.157 5.499,-3.96 8.14,-5.941c0.371,-0.278 0.955,-1.149 1.347,-1.483c0.461,-0.391 0.923,-0.497 1.233,-0.497c0.828,0 1.5,0.672 1.5,1.5c-0,0.594 -0.346,1.107 -0.846,1.35Z"/><path d="M191.786,191.835c-0.007,0.004 -0.014,0.009 -0.021,0.013c-1.649,1.072 -7.508,6.469 -8.713,7.221c-4.296,2.686 -11.604,8.333 -18.377,12.812c-4.699,3.106 -9.167,5.639 -12.277,6.392c-0.804,0.194 -1.616,-0.301 -1.81,-1.106c-0.195,-0.804 0.3,-1.616 1.105,-1.81c2.878,-0.697 6.979,-3.104 11.327,-5.979c6.797,-4.494 14.132,-10.158 18.442,-12.853c1.053,-0.657 5.711,-4.935 7.874,-6.615c0.58,-0.451 1.039,-0.743 1.285,-0.849c0.294,-0.128 0.538,-0.155 0.708,-0.155c0.828,-0 1.5,0.672 1.5,1.5c-0,0.668 -0.438,1.235 -1.043,1.429Z"/><path d="M206.736,195.406c-0.882,0.569 -2.81,2.163 -3.595,2.948c-2.64,2.64 -6.249,4.958 -9.232,7.195c-5.105,3.829 -10.23,7.953 -15.767,11.183c-0.914,0.533 -7.712,3.212 -9.172,3.886c-0.024,0.011 -0.053,0.025 -0.076,0.036c-0.512,0.335 -1.199,0.334 -1.718,-0.053c-0.664,-0.495 -0.801,-1.435 -0.306,-2.099c0.05,-0.067 0.298,-0.357 0.844,-0.608c1.417,-0.654 8.029,-3.236 8.916,-3.753c5.438,-3.173 10.465,-7.232 15.479,-10.992c2.875,-2.156 6.366,-4.372 8.911,-6.916c0.849,-0.849 2.872,-2.521 3.938,-3.246c0.427,-0.29 0.774,-0.456 0.956,-0.512c0.574,-0.177 0.99,-0.022 1.232,0.109c0.469,0.253 0.802,0.665 0.802,1.35c-0,0.729 -0.522,1.337 -1.212,1.472Zm-1.371,-0.435c-0.258,-0.27 -0.417,-0.635 -0.417,-1.037c-0,0.464 0.162,0.796 0.417,1.037Z"/><path d="M223.499,198.674c-0.616,0.659 -4.668,4.958 -6.731,6.137c-6.731,3.846 -12.614,9.249 -19.292,13.256c-2.764,1.658 -5.818,2.841 -8.61,4.392c-0.255,0.142 -1.398,1.022 -2.264,1.697c-0.018,0.587 -0.382,1.135 -0.964,1.357c-0.817,0.312 -1.323,0.297 -1.543,0.256c-0.456,-0.086 -0.743,-0.314 -0.938,-0.552c-0.285,-0.348 -0.673,-1.212 0.109,-2.165c0.672,-0.82 3.606,-2.917 4.143,-3.215c2.764,-1.536 5.789,-2.702 8.524,-4.343c6.695,-4.017 12.597,-9.431 19.346,-13.287c2.17,-1.24 5.687,-5.449 6.574,-6.073c1.028,-0.722 1.83,-0.19 2.119,0.099c0.585,0.585 0.585,1.536 -0,2.121c-0.14,0.14 -0.301,0.247 -0.473,0.32Z"/><path d="M240.328,203.325c-0.105,0.059 -0.744,0.42 -1.173,0.754c-1.849,1.442 -4.204,3.959 -4.936,4.69c-5.322,5.322 -12.311,9.563 -18.784,13.339c-3.47,2.024 -6.869,4.248 -10.594,5.8c-1.969,0.821 -3.79,1.684 -4.277,1.917c-0.296,0.271 -0.698,0.423 -1.129,0.39c-0.951,-0.073 -1.241,-0.697 -1.354,-1.114c-0.085,-0.315 -0.165,-0.873 0.366,-1.44c0.078,-0.083 0.292,-0.271 0.678,-0.478c0.662,-0.356 2.326,-1.112 4.562,-2.044c3.602,-1.501 6.881,-3.665 10.237,-5.623c6.256,-3.649 13.03,-7.724 18.174,-12.868c0.771,-0.771 3.263,-3.415 5.213,-4.935c1.164,-0.907 2.262,-1.384 2.903,-1.384c0.828,0 1.5,0.672 1.5,1.5c-0,0.79 -0.612,1.438 -1.386,1.496Zm-39.78,24.276c-0.186,-0.179 -0.461,-0.344 -0.883,-0.377c0.341,0.026 0.647,0.165 0.883,0.377Z"/><g><path d="M54.454,206.931c0.004,-0.402 0.168,-0.801 0.488,-1.093c0.374,-0.342 0.738,-0.39 0.988,-0.395c0.457,-0.009 0.854,0.154 1.173,0.528c0.133,0.156 0.34,0.444 0.359,0.924c0.002,0.057 -0.031,0.367 -0.041,0.456c-0.007,0.503 -0.011,1.006 -0.022,1.508c-0.031,1.55 -0.007,3.102 -0.078,4.651c1.836,0.251 5.261,0.535 6.252,0.393c0.897,-0.128 2.271,-0.738 3.763,-1.452c2.52,-1.204 5.311,-2.738 6.916,-3.386c0.768,-0.309 1.642,0.063 1.952,0.83c0.31,0.768 -0.062,1.643 -0.83,1.953c-2.721,1.097 -8.809,4.657 -11.375,5.025c-1.516,0.217 -7.833,-0.419 -8.721,-0.714c-0.284,-0.095 -0.88,-0.361 -1.016,-1.205c-0.026,-0.161 0.024,-0.902 0.028,-0.952c0.114,-1.732 0.074,-3.47 0.11,-5.204c0.01,-0.508 0.015,-1.016 0.021,-1.523c0.002,-0.089 0.019,-0.234 0.033,-0.344Zm0.392,1.026c0.111,0.125 0.235,0.22 0.365,0.292c-0.133,-0.075 -0.256,-0.173 -0.365,-0.292Zm0.905,0.475c0.323,0.055 0.76,0.036 1.214,-0.379c-0.342,0.312 -0.788,0.436 -1.214,0.379Z"/><path d="M64.849,213.774c0.273,0.57 0.165,1.275 -0.318,1.735c-0.599,0.571 -1.549,0.549 -2.12,-0.05c-0.236,-0.248 -0.472,-0.671 -0.545,-1.261c-0.101,-0.824 0.147,-2.374 0.173,-2.783c0.188,-3.022 0.579,-6.038 1.271,-8.985c0.189,-0.806 0.997,-1.307 1.803,-1.118c0.806,0.189 1.306,0.997 1.117,1.803c-0.653,2.784 -1.019,5.633 -1.197,8.487c-0.019,0.294 -0.156,1.852 -0.184,2.172Z"/><path d="M66.631,216.364c-0.036,0.035 -0.239,0.232 -0.36,0.387c-0.28,0.359 -0.573,0.826 -0.871,1.356c-1.539,2.73 -3.151,7.01 -3.54,8.149c-2.364,6.927 -2.988,14.161 -3.016,21.435c-0.003,0.906 -0.28,7.127 0.05,9.177c0.244,0.134 0.672,0.363 1.049,0.527c1.769,0.77 4.387,1.644 5.023,1.732c0.054,-0.017 0.435,-0.142 0.634,-0.235c0.347,-0.161 0.679,-0.33 0.96,-0.437c0.198,-0.076 1.11,-0.317 1.671,-0.463c0,-0.161 -0.004,-0.34 -0.018,-0.478c-0.069,-0.699 -0.201,-1.404 -0.227,-1.794c-0.214,-3.167 -0.412,-6.318 -0.44,-9.493c-0.124,-13.967 3.849,-27.424 14.836,-36.698c0.632,-0.534 1.579,-0.454 2.113,0.179c0.534,0.632 0.454,1.579 -0.178,2.113c-10.279,8.677 -13.887,21.311 -13.772,34.38c0.028,3.116 0.224,6.208 0.434,9.317c0.038,0.557 0.281,1.746 0.267,2.662c-0.01,0.702 -0.174,1.3 -0.426,1.697c-0.142,0.223 -0.454,0.547 -0.986,0.768c-0.608,0.253 -1.898,0.495 -2.2,0.611c-0.382,0.146 -0.867,0.422 -1.347,0.603c-0.555,0.208 -1.112,0.308 -1.606,0.255c-0.672,-0.071 -3.828,-1.052 -5.935,-1.968c-1.112,-0.484 -1.95,-1.013 -2.251,-1.354c-0.216,-0.246 -0.535,-0.976 -0.636,-2.075c-0.234,-2.569 -0.018,-8.162 -0.015,-9.037c0.03,-7.601 0.707,-15.156 3.177,-22.393c0.413,-1.21 2.131,-5.753 3.765,-8.653c0.892,-1.582 1.88,-2.682 2.595,-2.996c0.758,-0.333 1.643,0.012 1.976,0.77c0.327,0.743 0.001,1.609 -0.726,1.956Z"/><path d="M79.767,210.776c-0.181,0.174 -2.501,2.409 -2.61,2.531c-2.619,2.904 -4.959,6.066 -6.779,9.532c-3.088,5.881 -3.969,12 -4.166,18.223c-0.204,6.452 0.322,13.018 0.041,19.569c-0.036,0.827 -0.736,1.47 -1.563,1.435c-0.827,-0.036 -1.47,-0.736 -1.434,-1.563c0.28,-6.54 -0.246,-13.095 -0.042,-19.536c0.211,-6.67 1.198,-13.219 4.508,-19.522c1.937,-3.688 4.421,-7.058 7.207,-10.147c0.124,-0.138 2.379,-2.346 2.842,-2.763c1.18,-1.062 2.374,0.283 2.413,0.357c0.342,0.656 0.151,1.449 -0.417,1.884Zm-0.594,0.275c-0.33,0.072 -0.67,0.029 -0.967,-0.113c0.212,0.102 0.534,0.213 0.967,0.113Zm-0.989,-0.123c-0.274,-0.137 -0.508,-0.358 -0.66,-0.649c0.149,0.286 0.368,0.504 0.66,0.649Z"/><path d="M38.985,256.078l-0.091,0.23c-0.095,0.363 -0.179,0.731 -0.26,1.097c-0.261,1.184 -0.429,2.394 -0.562,3.599c-0.091,0.823 -0.832,1.417 -1.655,1.327c-0.823,-0.091 -1.417,-0.833 -1.327,-1.656c0.145,-1.311 0.33,-2.627 0.614,-3.915c0.094,-0.425 0.193,-0.852 0.304,-1.273c0.022,-0.082 0.286,-0.775 0.386,-0.948c0.162,-0.278 0.346,-0.421 0.442,-0.49c0.663,-0.474 1.245,-0.32 1.674,-0.051c0.226,0.142 0.686,0.454 0.705,1.246c0.007,0.306 -0.078,0.593 -0.23,0.834Zm-0.775,0.617c-0.144,0.051 -0.299,0.08 -0.46,0.084c-0.179,0.004 -0.353,-0.024 -0.514,-0.078c0.284,0.108 0.613,0.139 0.974,-0.006Zm-1.467,-0.274c-0.314,-0.267 -0.517,-0.662 -0.527,-1.107c0.014,0.61 0.297,0.93 0.527,1.107Z"/><path d="M43.043,252.831c-0.12,0.088 -0.307,0.225 -0.415,0.307c-0.228,0.174 -1.999,1.439 -2.705,2.169c-0.119,0.327 -0.352,0.614 -0.679,0.797c-0.724,0.402 -1.638,0.141 -2.04,-0.582c-0.201,-0.361 -0.353,-0.935 0.033,-1.624c0.154,-0.276 0.561,-0.738 1.111,-1.217c0.913,-0.795 2.254,-1.771 2.461,-1.928c0.376,-0.288 0.799,-0.618 1.243,-0.794c0.543,-0.215 1.119,-0.262 1.731,-0.048c4.314,1.514 8.805,2.687 13.239,3.796c0.803,0.2 1.292,1.015 1.092,1.818c-0.201,0.804 -1.016,1.293 -1.819,1.092c-4.437,-1.109 -8.928,-2.285 -13.252,-3.786Z"/><path d="M69.718,261.064c-0.763,-0.32 -1.123,-1.2 -0.803,-1.964c0.32,-0.763 1.2,-1.123 1.963,-0.803c3.202,1.342 11.589,4.414 14.85,5.601c9.527,3.466 19.156,6.706 28.789,9.852c20.134,6.574 79.521,26.36 88.927,29.26c0.791,0.244 1.236,1.084 0.992,1.875c-0.244,0.791 -1.084,1.236 -1.876,0.992c-9.411,-2.902 -68.83,-22.698 -88.974,-29.276c-9.665,-3.156 -19.326,-6.406 -28.884,-9.884c-3.291,-1.198 -11.752,-4.299 -14.984,-5.653Z"/><path d="M215.142,251.275c0.702,-0.44 1.628,-0.228 2.068,0.474c0.44,0.701 0.228,1.627 -0.473,2.067c-1.413,0.887 -2.36,2.596 -3.12,4.514c-1.311,3.308 -1.978,7.266 -2.653,9.809c-2.064,7.779 -2.674,15.759 -3.486,23.731c-0.584,5.737 -1.547,11.423 -1.674,17.195c-0.018,0.828 -0.705,1.485 -1.533,1.467c-0.827,-0.018 -1.485,-0.705 -1.466,-1.533c0.128,-5.851 1.097,-11.617 1.689,-17.433c0.828,-8.129 1.465,-16.264 3.57,-24.196c0.699,-2.632 1.408,-6.722 2.764,-10.145c1.018,-2.57 2.422,-4.762 4.314,-5.95Z"/><path d="M233.269,246.653c0.145,-0.198 0.342,-0.364 0.581,-0.474c1.054,-0.486 1.63,0.188 1.79,0.373c0.213,0.246 0.729,0.994 0.065,1.893c-0.087,0.118 -0.621,0.601 -0.686,0.664c-0.407,0.396 -0.792,0.818 -1.169,1.243c-1.044,1.179 -2.017,2.424 -2.938,3.701c-2.788,3.86 -4.955,8.069 -6.455,12.588c-2.276,6.852 -3.125,14.075 -4.035,21.21c-0.96,7.524 -1.933,15.024 -2.06,22.616c-0.014,0.827 -0.698,1.488 -1.525,1.474c-0.828,-0.014 -1.489,-0.697 -1.475,-1.525c0.13,-7.702 1.11,-15.311 2.084,-22.945c0.935,-7.326 1.827,-14.739 4.163,-21.775c1.598,-4.81 3.904,-9.29 6.87,-13.399c0.98,-1.358 2.015,-2.68 3.125,-3.934c0.427,-0.481 0.863,-0.957 1.324,-1.405c0.026,-0.026 0.214,-0.192 0.341,-0.305Zm1.245,2.388c0.154,0.001 0.354,-0.028 0.592,-0.138c-0.192,0.089 -0.393,0.133 -0.592,0.138Z"/><path d="M214.671,313.631c-0.314,0.263 -0.733,0.397 -1.17,0.336c-0.704,-0.098 -1.056,-0.512 -1.222,-1.029c-0.05,-0.159 -0.288,-0.794 0.316,-1.463c0.011,-0.011 0.072,-0.082 0.195,-0.181c0.145,-0.116 0.89,-0.698 1.006,-0.781c0.67,-0.48 1.358,-0.934 2.015,-1.433c0.659,-0.501 1.6,-0.373 2.102,0.286c0.501,0.659 0.372,1.601 -0.287,2.102c-0.679,0.517 -1.39,0.987 -2.084,1.484c-0.1,0.072 -0.871,0.679 -0.871,0.679Z"/><path d="M228.154,245.879c0.535,-0.632 1.482,-0.711 2.114,-0.177c0.632,0.535 0.711,1.482 0.177,2.114c-2.345,2.771 -5.683,7.344 -7.199,10.653c-4.768,10.408 -6.19,21.913 -7.348,33.182c-0.691,6.725 -1.549,13.497 -1.761,20.258c-0.026,0.828 -0.719,1.479 -1.547,1.453c-0.827,-0.026 -1.478,-0.719 -1.452,-1.547c0.214,-6.832 1.078,-13.675 1.776,-20.47c1.191,-11.594 2.7,-23.418 7.604,-34.125c1.613,-3.519 5.144,-8.395 7.636,-11.341Z"/><path d="M209.797,285.345c-0.043,0.033 -0.086,0.071 -0.131,0.114c0.089,-0.085 0.185,-0.156 0.286,-0.215c0.061,-0.034 0.125,-0.064 0.192,-0.09c-0.04,0.016 -0.077,0.031 -0.112,0.048c0.573,-0.286 1.29,-0.181 1.755,0.307c0.571,0.598 0.549,1.549 -0.05,2.12c-0.156,0.149 -0.284,0.235 -0.506,0.321c-0.772,0.3 -1.642,-0.083 -1.942,-0.854c-0.25,-0.646 -0.024,-1.359 0.508,-1.751Zm0,-0c0.071,-0.056 0.145,-0.101 0.235,-0.143c-0.027,0.013 -0.053,0.027 -0.08,0.042c-0.054,0.031 -0.106,0.064 -0.155,0.101Z"/><path d="M220.458,275.465c0.121,-0.163 0.262,-0.343 0.349,-0.423c0.467,-0.428 0.926,-0.865 1.395,-1.291c1.417,-1.288 2.828,-2.582 4.258,-3.855c5.64,-5.02 11.312,-9.975 17.117,-14.804c1.454,-1.209 2.947,-2.368 4.418,-3.556c0.184,-0.149 0.922,-0.871 1.388,-1.132c0.481,-0.269 0.927,-0.296 1.225,-0.247c0.817,0.135 1.371,0.908 1.236,1.725c-0.097,0.587 -0.523,1.037 -1.058,1.195c-0.196,0.173 -0.796,0.704 -0.906,0.793c-1.459,1.178 -2.942,2.329 -4.384,3.529c-5.78,4.807 -11.427,9.74 -17.042,14.738c-1.422,1.266 -2.825,2.554 -4.234,3.834c-0.447,0.406 -0.884,0.821 -1.328,1.229c-0.071,0.105 -0.348,0.505 -0.484,0.644c-0.25,0.258 -0.522,0.399 -0.755,0.47c-0.613,0.184 -1.237,0.118 -1.767,-0.599c-0.492,-0.666 -0.351,-1.606 0.315,-2.098c0.082,-0.06 0.168,-0.111 0.257,-0.152Zm1.516,0.145c0.121,0.088 0.231,0.196 0.325,0.323c-0.102,-0.139 -0.212,-0.244 -0.325,-0.323Z"/><path d="M243.686,238.632c-0.132,0.186 -0.308,0.345 -0.524,0.459c-1.223,0.644 -1.891,-0.29 -2.001,-0.45c-0.194,-0.28 -0.528,-0.899 -0.022,-1.682c0.082,-0.127 0.836,-0.81 1.142,-1.061c0.593,-0.488 1.213,-0.957 1.853,-1.382c2.043,-1.353 4.379,-2.28 6.803,-2.66c6.608,-1.036 11.315,3.97 11.946,10.111c0.085,0.824 -0.515,1.561 -1.339,1.646c-0.823,0.084 -1.561,-0.516 -1.645,-1.339c-0.456,-4.436 -3.725,-8.202 -8.498,-7.454c-1.999,0.313 -3.925,1.08 -5.61,2.197c-0.555,0.368 -1.091,0.776 -1.605,1.199c-0.097,0.079 -0.334,0.277 -0.5,0.416Z"/><path d="M249.929,235.486c-0.794,-0.236 -1.246,-1.072 -1.011,-1.865c0.236,-0.794 1.072,-1.247 1.865,-1.011c0.851,0.252 1.662,0.675 2.327,1.266c1.645,1.461 2.884,4.048 3.231,6.23c0.13,0.818 -0.428,1.587 -1.245,1.717c-0.818,0.13 -1.587,-0.428 -1.717,-1.245c-0.248,-1.555 -1.09,-3.418 -2.261,-4.459c-0.338,-0.3 -0.757,-0.505 -1.189,-0.633Z"/><path d="M254.212,228.151c-0.823,-0.093 -1.416,-0.836 -1.323,-1.659c0.093,-0.823 0.836,-1.415 1.658,-1.323c1.65,0.186 3.302,0.626 4.807,1.329c2.599,1.214 5.199,3.848 6.996,6.954c1.818,3.139 2.798,6.738 2.3,9.753c-0.135,0.816 -0.908,1.37 -1.725,1.235c-0.817,-0.135 -1.37,-0.908 -1.235,-1.725c0.398,-2.406 -0.485,-5.254 -1.936,-7.76c-1.47,-2.54 -3.544,-4.746 -5.67,-5.739c-1.212,-0.566 -2.544,-0.916 -3.872,-1.065Z"/><path d="M257.387,252.562c0.103,0.232 0.249,0.567 0.296,0.713c0.201,0.62 0.384,1.242 0.551,1.872c0.525,1.995 0.856,4.038 0.791,6.107c-0.026,0.827 -0.719,1.478 -1.546,1.452c-0.828,-0.026 -1.479,-0.719 -1.453,-1.546c0.056,-1.779 -0.241,-3.534 -0.693,-5.248c-0.152,-0.576 -0.32,-1.145 -0.504,-1.712c-0.058,-0.179 -0.252,-0.557 -0.33,-0.749c-0.097,-0.238 -0.13,-0.426 -0.14,-0.517c-0.095,-0.855 0.398,-1.265 0.701,-1.453c0.185,-0.116 1.119,-0.68 1.99,0.35c0.184,0.216 0.295,0.47 0.337,0.731Zm-2.182,1.564c-0.165,-0.087 -0.316,-0.206 -0.444,-0.357c0.152,0.18 0.306,0.29 0.444,0.357Z"/><path d="M265.673,254.512c0.083,0.301 0.502,1.842 0.531,1.987c0.463,2.347 0.412,4.669 0.238,7.038c-0.061,0.826 -0.78,1.447 -1.606,1.386c-0.825,-0.06 -1.447,-0.78 -1.386,-1.606c0.154,-2.099 0.221,-4.157 -0.189,-6.237c-0.04,-0.202 -0.583,-2.028 -0.6,-2.484c-0.025,-0.673 0.296,-1.053 0.474,-1.224c0.597,-0.574 1.547,-0.556 2.121,0.041c0.295,0.306 0.433,0.705 0.417,1.099Z"/><path d="M258.116,261.476c0.384,0.109 2.462,0.703 2.666,0.767c1.237,0.388 2.835,1.02 4.413,1.258c1.034,0.156 2.073,0.17 2.886,-0.412c-0.084,-0.954 -0.413,-4.663 -0.489,-5.104c-0.089,-0.511 -0.179,-1.021 -0.269,-1.532c-0.036,-0.096 -0.171,-0.466 -0.204,-0.608c-0.086,-0.377 -0.037,-0.682 0.023,-0.876c0.143,-0.46 0.433,-0.755 0.803,-0.932c0.279,-0.134 0.705,-0.27 1.293,-0.021c0.596,0.252 0.944,0.846 0.913,1.457c0.05,0.149 0.1,0.309 0.114,0.391c0.095,0.536 0.19,1.073 0.283,1.609c0.091,0.524 0.625,4.034 0.571,5.684c-0.03,0.933 -0.361,1.545 -0.597,1.781c-1.271,1.275 -2.892,1.709 -4.621,1.642c-2.09,-0.081 -4.351,-0.952 -6.016,-1.474c-0.278,-0.087 -2.804,-0.744 -3.339,-1.055c-0.623,-0.362 -0.773,-0.872 -0.816,-1.143c-0.13,-0.818 0.428,-1.587 1.246,-1.717c0.419,-0.067 0.826,0.047 1.14,0.285Zm10.195,-4.619c-0.082,-0.019 -0.163,-0.045 -0.243,-0.079c0.085,0.036 0.166,0.062 0.243,0.079Z"/><path d="M232.984,251.102c0.237,0.049 1.19,0.25 1.302,0.278c1.544,0.388 3.083,0.796 4.624,1.195c5.966,1.548 11.872,3.562 17.892,4.887c0.808,0.178 1.32,0.979 1.142,1.787c-0.178,0.809 -0.979,1.321 -1.788,1.143c-6.055,-1.333 -11.997,-3.356 -18,-4.913c-1.533,-0.397 -3.063,-0.803 -4.6,-1.189c-0.174,-0.044 -1.468,-0.299 -1.753,-0.421c-0.614,-0.263 -0.803,-0.716 -0.874,-0.919c-0.27,-0.783 0.145,-1.638 0.927,-1.908c0.385,-0.133 0.786,-0.101 1.128,0.06Z"/><path d="M271.722,262.182c0.103,0.02 0.202,0.043 0.256,0.062c0.55,0.194 1.109,0.369 1.665,0.544c1.673,0.525 3.831,0.812 5.507,1.326c4.992,1.53 9.816,2.881 14.844,4.284c11.652,3.251 23.098,6.487 34.709,9.887c4.062,1.19 7.347,1.42 11.28,3c0.768,0.308 1.142,1.182 0.833,1.951c-0.308,0.768 -1.183,1.141 -1.951,0.833c-3.836,-1.541 -7.044,-1.745 -11.006,-2.905c-11.598,-3.397 -23.032,-6.629 -34.671,-9.876c-5.053,-1.41 -9.901,-2.768 -14.917,-4.306c-1.682,-0.516 -3.848,-0.805 -5.527,-1.332c-0.562,-0.177 -1.126,-0.354 -1.682,-0.548c-0.133,-0.024 -0.473,-0.086 -0.593,-0.13c-0.295,-0.11 -0.499,-0.275 -0.636,-0.426c-0.251,-0.276 -0.372,-0.59 -0.396,-0.925c-0.023,-0.317 0.022,-0.72 0.384,-1.136c0.485,-0.556 1.289,-0.669 1.901,-0.303Zm0.522,2.052c-0.046,0.077 -0.099,0.151 -0.16,0.221c0.065,-0.075 0.117,-0.148 0.16,-0.221Z"/><path d="M207.063,241.975c0.811,0.167 1.334,0.961 1.166,1.772c-0.167,0.811 -0.961,1.333 -1.772,1.166c-9.486,-1.956 -18.979,-6.022 -28.187,-9.01c-17.004,-5.516 -34.637,-10.763 -52.1,-14.651c-0.808,-0.18 -1.318,-0.982 -1.139,-1.79c0.18,-0.808 0.983,-1.318 1.791,-1.139c17.554,3.909 35.281,9.181 52.374,14.727c9.105,2.954 18.486,6.991 27.867,8.925Z"/><path d="M340.341,289.525c-0.272,-0.026 -0.673,-0.071 -0.928,-0.133c-0.959,-0.233 -1.916,-0.475 -2.872,-0.723c-2.793,-0.726 -5.571,-1.531 -8.328,-2.381c-8.767,-2.704 -17.51,-5.483 -26.3,-8.112c-15.781,-4.719 -31.628,-9.17 -47.445,-13.759c-6.056,-1.757 -12.161,-3.305 -18.268,-4.866c-2.78,-0.71 -5.288,-2.187 -8.177,-2.361c-0.826,-0.049 -1.457,-0.761 -1.407,-1.587c0.05,-0.826 0.761,-1.457 1.588,-1.407c3.08,0.185 5.775,1.691 8.738,2.448c6.139,1.569 12.275,3.126 18.362,4.892c15.825,4.591 31.679,9.044 47.469,13.766c8.797,2.631 17.549,5.413 26.324,8.119c2.715,0.837 5.449,1.629 8.199,2.344c0.94,0.244 1.882,0.482 2.826,0.712c0.328,0.08 0.738,0.075 0.948,0.105c0.283,0.041 0.489,0.123 0.615,0.189c0.633,0.331 0.811,0.843 0.83,1.296c0.014,0.326 -0.036,0.791 -0.529,1.228c-0.466,0.413 -1.117,0.483 -1.645,0.23Zm-0.848,-1.432c0.021,-0.387 0.19,-0.766 0.503,-1.042c-0.401,0.355 -0.511,0.72 -0.503,1.042Z"/><path d="M341.506,296.233c-0.283,-0.062 -0.645,-0.143 -0.801,-0.188c-0.956,-0.274 -1.914,-0.543 -2.865,-0.837c-2.986,-0.923 -5.952,-1.903 -8.915,-2.898c-8.518,-2.861 -17.169,-5.271 -25.781,-7.828c-17.405,-5.168 -35.071,-9.584 -52.577,-14.4c-5.064,-1.393 -10.16,-2.714 -15.174,-4.279c-3.029,-0.946 -6.796,-2.705 -9.997,-2.897c-0.826,-0.05 -1.456,-0.761 -1.407,-1.588c0.05,-0.826 0.761,-1.457 1.588,-1.407c3.422,0.206 7.471,2.017 10.71,3.028c4.981,1.556 10.044,2.867 15.075,4.25c17.526,4.822 35.212,9.244 52.636,14.417c8.645,2.567 17.33,4.988 25.882,7.86c2.94,0.988 5.883,1.96 8.846,2.876c0.932,0.288 1.87,0.551 2.807,0.82c0.3,0.086 0.971,0.197 1.295,0.304c0.385,0.127 0.63,0.321 0.755,0.447c0.518,0.524 0.543,1.092 0.353,1.61c-0.093,0.251 -0.299,0.713 -1.01,0.956c-0.502,0.172 -1.033,0.061 -1.42,-0.246Z"/><path d="M344.561,249.408c-0.014,-0.089 -0.061,-0.387 -0.125,-0.606c-0.237,-0.813 -0.707,-1.884 -1.303,-3.093c-2.486,-5.037 -7.131,-12.273 -8.054,-13.874c-8.856,-15.368 -19.49,-32.229 -21.21,-50.244c-0.436,-4.568 0.013,-10.563 2.302,-15.182c1.631,-3.291 4.173,-5.899 7.898,-6.99c7.458,-2.185 13.381,2.717 17.939,7.998c9.007,10.434 15.361,23.335 23.016,34.772c2.148,3.21 4.302,6.412 6.385,9.665c0.679,1.06 1.165,2.09 1.623,2.951c0.174,0.328 0.342,0.626 0.522,0.881c0.14,0.199 0.264,0.379 0.453,0.458c0.164,0.07 0.357,0.028 0.606,-0.041c0.344,-0.097 0.734,-0.272 1.19,-0.524c1.251,-0.692 2.87,-1.738 3.84,-2.913c-0.11,-0.274 -0.327,-0.794 -0.536,-1.173c-0.662,-1.198 -1.53,-2.435 -1.727,-2.781c-3.203,-5.622 -6.763,-11.035 -10.153,-16.545c-5.364,-8.715 -13.089,-22.78 -22.79,-32.043c-6.177,-5.899 -13.145,-9.862 -20.864,-8.829c-4.388,0.587 -8.012,2.217 -11.129,5.394c-5.064,5.164 -6.854,12.671 -6.85,20.712c0.007,12.471 4.366,26.234 8.377,35.138c2.442,5.421 7.19,13.519 10.126,18.681c0.409,0.72 0.158,1.637 -0.562,2.046c-0.72,0.409 -1.636,0.157 -2.046,-0.562c-2.975,-5.231 -7.778,-13.44 -10.253,-18.933c-4.151,-9.214 -8.635,-23.463 -8.642,-36.368c-0.005,-8.876 2.119,-17.115 7.709,-22.814c3.607,-3.679 7.792,-5.588 12.872,-6.267c8.601,-1.151 16.45,3.059 23.334,9.632c9.89,9.444 17.805,23.756 23.273,32.641c3.408,5.538 6.985,10.981 10.204,16.632c0.316,0.554 2.181,3.238 2.6,4.752c0.251,0.907 0.081,1.629 -0.228,2.07c-1.155,1.65 -3.379,3.201 -5.103,4.155c-1.689,0.934 -2.91,1.091 -3.831,0.889c-1.048,-0.229 -1.854,-0.918 -2.545,-2.013c-0.591,-0.938 -1.125,-2.249 -1.996,-3.608c-2.072,-3.236 -4.215,-6.422 -6.353,-9.615c-7.587,-11.336 -13.865,-24.137 -22.793,-34.479c-3.812,-4.418 -8.587,-8.908 -14.824,-7.08c-3.635,1.064 -5.74,4.065 -6.918,7.541c-1.267,3.74 -1.465,8.05 -1.139,11.467c1.679,17.596 12.172,34.021 20.822,49.031c0.934,1.621 5.629,8.947 8.145,14.045c0.817,1.656 1.407,3.102 1.625,4.092c0.15,0.683 0.137,1.235 0.037,1.623c-0.215,0.832 -0.771,1.567 -1.532,2.151c-0.854,0.656 -1.974,1.125 -2.811,1.403c-0.785,0.262 -1.635,-0.163 -1.897,-0.948c-0.262,-0.786 0.163,-1.636 0.949,-1.898c0.489,-0.163 1.122,-0.406 1.665,-0.751c0.293,-0.186 0.597,-0.367 0.702,-0.646Z"/><path d="M338.412,245.228c0.334,-0.192 0.934,-0.537 1.167,-0.667c0.807,-0.448 1.8,-0.937 2.46,-1.598c0.586,-0.585 1.536,-0.585 2.122,0c0.585,0.586 0.585,1.536 -0,2.122c-0.848,0.847 -2.089,1.523 -3.125,2.099c-0.439,0.244 -1.567,0.898 -1.74,0.962c-1.067,0.394 -1.638,-0.353 -1.777,-0.556c-0.066,-0.097 -0.769,-1.219 0.414,-2.118c0.148,-0.113 0.311,-0.193 0.479,-0.244Z"/><path d="M371.201,214.439c-0.801,0.208 -1.621,-0.273 -1.829,-1.075c-0.208,-0.801 0.274,-1.62 1.075,-1.828c3.276,-0.851 5.046,-2.671 7.435,-5.06c0.585,-0.585 1.535,-0.585 2.121,0c0.585,0.586 0.585,1.536 -0,2.122c-2.806,2.806 -4.954,4.842 -8.802,5.841Z"/><path d="M367.366,199.048c0,-0 0.481,0.107 0.692,0.245c0.692,0.455 0.885,1.385 0.431,2.077c-0.361,0.552 -1.025,0.786 -1.63,0.63c-0.755,-0.172 -1.264,-0.9 -1.15,-1.679c0.117,-0.805 0.855,-1.367 1.657,-1.273Z"/><path d="M343.306,240.041c-0.11,0.143 -0.248,0.268 -0.411,0.366c-0.708,0.429 -1.631,0.203 -2.06,-0.506c-0.127,-0.21 -0.481,-0.817 0.028,-1.603c0.044,-0.067 0.308,-0.376 0.8,-0.85c3.477,-3.341 21.472,-19.821 27.456,-25.61c0.595,-0.576 1.545,-0.56 2.121,0.035c0.576,0.595 0.56,1.545 -0.035,2.121c-5.986,5.791 -23.985,22.276 -27.463,25.617c-0.183,0.177 -0.364,0.357 -0.436,0.43Zm0.291,-0.669c0.075,-0.447 -0.048,-0.78 -0.196,-1.025c0.193,0.32 0.253,0.683 0.196,1.025Z"/><path d="M371.237,193.856c-0.55,0.619 -1.498,0.676 -2.118,0.126c-0.619,-0.549 -0.676,-1.498 -0.126,-2.117c0.808,-0.911 1.66,-1.361 2.491,-1.525c1.229,-0.243 2.48,0.145 3.632,0.98c1.458,1.056 2.774,2.865 3.636,4.244c0.439,0.702 0.225,1.628 -0.477,2.067c-0.702,0.438 -1.628,0.225 -2.067,-0.477c-0.685,-1.096 -1.693,-2.565 -2.852,-3.405c-0.42,-0.304 -0.842,-0.554 -1.29,-0.466c-0.287,0.057 -0.55,0.259 -0.829,0.573Z"/><path d="M118.51,223.063c0.064,-0.389 0.222,-1.421 0.212,-2.069c-0.006,-0.372 -0.084,-0.885 -0.108,-1.033c-0.406,-0.584 -0.348,-1.394 0.172,-1.915c0.586,-0.585 1.536,-0.585 2.122,0c0.305,0.305 0.64,0.981 0.75,1.903c0.16,1.341 -0.013,3.352 -0.354,4.292c-0.432,1.193 -1.346,1.477 -1.936,1.413c-0.823,-0.09 -1.419,-0.83 -1.329,-1.653c0.04,-0.374 0.215,-0.701 0.471,-0.938Z"/><path d="M118.063,222.019c0.53,0.588 0.511,1.497 -0.055,2.063c-0.585,0.585 -1.536,0.585 -2.121,0c-0.575,-0.574 -0.844,-1.41 -0.869,-2.37c-0.018,-0.693 0.161,-1.481 0.019,-2.027c-0.207,-0.801 0.275,-1.621 1.077,-1.828c0.801,-0.207 1.62,0.275 1.828,1.076c0.142,0.55 0.13,1.261 0.094,1.985c-0.015,0.279 -0.03,0.561 -0.014,0.825c0.005,0.085 0.03,0.223 0.041,0.276Z"/><path d="M125.213,223.575c0.015,-0.066 0.051,-0.24 0.063,-0.37c0.034,-0.396 0.031,-0.883 0.031,-1.488c-0,-0.828 0.672,-1.5 1.5,-1.5c0.827,-0 1.5,0.672 1.5,1.5c-0,1.097 -0.017,1.885 -0.151,2.469c-0.151,0.659 -0.428,1.151 -0.854,1.555c-0.509,0.483 -1.326,0.859 -2.757,1.113c-0.815,0.145 -1.594,-0.399 -1.739,-1.214c-0.145,-0.815 0.399,-1.594 1.214,-1.739c0.409,-0.073 0.737,-0.145 0.998,-0.238c0.065,-0.023 0.152,-0.066 0.195,-0.088Z"/><path d="M378.794,198.483c-0.218,0.11 -0.604,0.309 -0.837,0.468c-0.532,0.364 -1.013,0.744 -1.293,0.92c-0.195,0.123 -0.675,0.373 -1.013,0.546c-0.273,0.373 -0.713,0.615 -1.21,0.615c-0.778,-0 -1.122,-0.383 -1.277,-0.571c-0.388,-0.471 -0.573,-1.088 -0.093,-1.82c0.09,-0.137 0.287,-0.37 0.626,-0.581c0.336,-0.21 1.063,-0.536 1.37,-0.729c0.517,-0.325 1.698,-1.293 2.667,-1.678c0.882,-0.35 1.69,-0.299 2.276,0.037c1.094,0.625 2.164,2.055 3.055,3.78c1.11,2.149 2.014,4.748 2.656,6.067c5.375,11.048 10.246,23.018 12.128,35.213c3.392,21.985 -3.327,40.707 -23.238,51.384c-5.617,3.012 -11.853,4.968 -18.369,4.968c-0.827,0 -1.5,-0.672 -1.5,-1.5c0,-0.827 0.673,-1.5 1.5,-1.5c6.015,0 11.766,-1.831 16.951,-4.612c18.689,-10.021 24.874,-27.648 21.691,-48.283c-1.837,-11.902 -6.615,-23.575 -11.861,-34.357c-0.635,-1.305 -1.525,-3.878 -2.623,-6.003c-0.505,-0.979 -1.013,-1.878 -1.606,-2.364Z"/><path d="M353.68,280.893c0.223,0.008 0.669,0.024 0.852,0.03c0.651,0.019 1.306,0.049 1.957,0.037c2.024,-0.037 4.015,-0.289 6.002,-0.671c5.857,-1.126 12.711,-2.688 16.129,-7.89c0.455,-0.692 1.386,-0.884 2.078,-0.43c0.692,0.455 0.884,1.386 0.429,2.078c-3.859,5.872 -11.457,7.916 -18.07,9.188c-2.156,0.415 -4.316,0.684 -6.513,0.725c-0.699,0.013 -1.402,-0.018 -2.101,-0.038c-0.297,-0.009 -1.067,-0.037 -1.174,-0.047c-1.251,-0.117 -1.361,-1.3 -1.367,-1.387c-0.023,-0.309 0.04,-0.622 0.237,-0.925c0.102,-0.156 0.323,-0.491 0.882,-0.636c0.025,-0.006 0.163,-0.049 0.445,-0.049c0.073,-0 0.144,0.005 0.214,0.015Zm0.856,2.536c-0.273,0.277 -0.651,0.449 -1.07,0.449c0.526,-0 0.859,-0.195 1.07,-0.449Z"/><path d="M374.468,219.833c-0.179,-0.146 -0.327,-0.334 -0.426,-0.56c-0.333,-0.757 0.012,-1.643 0.77,-1.976c0.624,-0.275 0.963,-0.159 1.177,-0.089c0.144,0.048 0.532,0.119 0.988,0.952c0.551,1.006 1.063,2.429 1.631,3.804c0.462,1.119 0.939,2.217 1.588,2.866c0.585,0.585 0.585,1.536 -0,2.121c-0.586,0.585 -1.536,0.585 -2.122,-0c-0.722,-0.722 -1.347,-1.811 -1.887,-3.021c-0.626,-1.4 -1.149,-2.975 -1.719,-4.097Z"/><path d="M382.137,238.198c-0.443,-0.513 -0.495,-1.281 -0.082,-1.855c0.397,-0.553 0.857,-0.667 1.178,-0.697c0.431,-0.04 0.852,0.074 1.224,0.426c0.164,0.155 0.375,0.433 0.498,0.853c0.107,0.363 0.16,1.091 0.244,1.431c0.403,1.632 0.701,3.297 0.974,4.955c0.718,4.357 0.997,8.754 0.627,13.162c-1.052,12.506 -7.464,25.374 -19.714,30.204c-2.583,1.018 -8.631,2.332 -12.894,1.699c-0.819,-0.121 -1.385,-0.885 -1.263,-1.704c0.121,-0.819 0.885,-1.385 1.704,-1.263c3.754,0.557 9.078,-0.626 11.353,-1.523c11.177,-4.407 16.864,-16.253 17.824,-27.665c0.35,-4.16 0.081,-8.309 -0.597,-12.422c-0.26,-1.58 -0.543,-3.168 -0.927,-4.724c-0.043,-0.173 -0.104,-0.567 -0.149,-0.877Z"/><path d="M322.94,235.638c0.016,0.193 0.076,0.794 0.188,1.172c0.315,1.055 0.821,2.114 0.989,2.626c0.18,0.553 0.386,1.097 0.535,1.66c0.031,0.118 0.075,0.405 0.107,0.621c0.114,0.267 0.152,0.569 0.092,0.875c-0.248,1.275 -1.268,1.272 -1.516,1.269c-0.369,-0.006 -0.936,-0.111 -1.307,-0.795c-0.048,-0.088 -0.134,-0.276 -0.183,-0.547c-0.03,-0.166 -0.055,-0.51 -0.094,-0.658c-0.134,-0.507 -0.324,-0.996 -0.486,-1.494c-0.258,-0.788 -1.203,-2.767 -1.326,-4.25c-0.095,-1.141 0.238,-2.076 0.935,-2.663c3.18,-2.678 5.819,-3.401 7.967,-2.776c2.12,0.616 3.964,2.645 5.454,6.123c0.326,0.761 -0.027,1.643 -0.788,1.969c-0.761,0.326 -1.643,-0.027 -1.969,-0.788c-1.03,-2.401 -2.071,-3.998 -3.535,-4.424c-1.406,-0.408 -3.003,0.367 -5.063,2.08Z"/><path d="M324.052,243.857c-0.825,-0.062 -1.445,-0.783 -1.384,-1.608c0.062,-0.826 0.783,-1.446 1.608,-1.384c3.318,0.249 5.794,-2.092 7.699,-4.436c0.522,-0.643 1.467,-0.74 2.11,-0.218c0.642,0.522 0.74,1.467 0.218,2.11c-2.497,3.073 -5.9,5.862 -10.251,5.536Z"/><path d="M328.852,214.08c0.079,0.013 0.173,0.028 0.185,0.031c1.38,0.278 2.76,0.561 4.139,0.849c3.206,0.668 6.409,1.356 9.619,2.006c12.537,2.539 24.894,5.733 37.343,8.65c2.899,0.679 5.793,1.396 8.667,2.175c0.337,0.091 1.48,0.247 2.202,0.553c0.8,0.338 1.259,0.906 1.405,1.428c0.173,0.617 0.08,1.299 -0.238,1.947c-0.29,0.591 -0.78,1.158 -1.126,1.512c-1.808,1.85 -3.551,1.983 -5.489,1.55c-0.98,-0.219 -2.024,-0.618 -3.185,-0.932c-9.696,-2.622 -19.3,-5.228 -29.078,-7.555c-7.854,-1.868 -15.777,-3.776 -23.68,-5.403c-0.811,-0.167 -1.333,-0.961 -1.166,-1.772c0.167,-0.811 0.961,-1.334 1.771,-1.167c7.933,1.634 15.886,3.548 23.769,5.424c9.808,2.334 19.442,4.947 29.167,7.577c1.115,0.301 2.116,0.69 3.057,0.9c0.945,0.212 1.806,0.184 2.689,-0.719c0.044,-0.045 0.102,-0.115 0.165,-0.195c-0.432,-0.102 -0.903,-0.214 -1.047,-0.253c-2.841,-0.769 -5.702,-1.478 -8.568,-2.149c-12.419,-2.91 -24.746,-6.098 -37.254,-8.631c-3.215,-0.651 -6.424,-1.34 -9.636,-2.009c-1.363,-0.285 -2.728,-0.565 -4.093,-0.84c-0.109,-0.018 -0.45,-0.076 -0.6,-0.124c-0.272,-0.087 -0.462,-0.218 -0.575,-0.313c-0.551,-0.468 -0.612,-1.022 -0.498,-1.508c0.191,-0.805 1,-1.305 1.805,-1.114c0.087,0.021 0.17,0.048 0.25,0.082Z"/><path d="M390.922,231.164c-0.539,-0.572 -0.547,-1.473 -0.002,-2.054c0.381,-0.407 0.781,-0.501 1.107,-0.514c0.334,-0.013 0.658,0.072 0.96,0.284c0.191,0.134 0.416,0.359 0.575,0.709c0.081,0.178 0.219,0.68 0.245,0.777c0.275,0.57 0.59,1.121 0.824,1.71c0.995,2.499 -0.416,5.336 -2.484,6.851c-0.816,0.598 -1.725,0.784 -2.668,0.745c-0.67,-0.027 -1.358,-0.181 -2.006,-0.293c-2.71,-0.467 -5.37,-1.132 -8.029,-1.83c-11.404,-2.993 -22.915,-5.971 -34.489,-8.232c-3.766,-0.736 -7.619,-1.862 -11.45,-2.217c-0.824,-0.077 -1.432,-0.808 -1.355,-1.633c0.076,-0.824 0.808,-1.431 1.632,-1.355c3.93,0.365 7.885,1.506 11.748,2.26c11.637,2.274 23.21,5.266 34.676,8.276c2.576,0.676 5.152,1.322 7.777,1.775c0.439,0.076 0.899,0.181 1.356,0.231c0.359,0.039 0.726,0.08 1.035,-0.147c1.031,-0.755 1.966,-2.076 1.47,-3.322c-0.216,-0.544 -0.516,-1.049 -0.768,-1.576c-0.042,-0.089 -0.102,-0.274 -0.154,-0.445Zm1.531,0.406c0.214,-0.054 0.437,-0.176 0.655,-0.408c-0.186,0.198 -0.413,0.334 -0.655,0.408Z"/><path d="M347.688,261.016c0.341,0.103 0.684,0.2 1.026,0.302c1.181,0.353 2.359,0.728 3.522,1.134c1.002,0.349 2.618,0.724 3.976,1.323c1.184,0.523 2.175,1.234 2.714,2.107c0.907,1.467 0.994,3.636 0.377,5.642c-0.606,1.972 -1.872,3.732 -3.367,4.511c-1.151,0.599 -2.488,0.491 -3.725,0.424c-0.826,-0.046 -1.461,-0.753 -1.416,-1.58c0.046,-0.827 0.753,-1.461 1.58,-1.416c0.719,0.039 1.507,0.259 2.176,-0.089c0.881,-0.459 1.527,-1.569 1.885,-2.732c0.347,-1.129 0.449,-2.357 -0.061,-3.183c-0.262,-0.423 -0.801,-0.686 -1.375,-0.939c-1.279,-0.565 -2.807,-0.907 -3.751,-1.235c-1.121,-0.391 -2.256,-0.753 -3.394,-1.093c-0.368,-0.11 -0.737,-0.214 -1.105,-0.325c-0.052,-0.016 -0.145,-0.055 -0.239,-0.097c-0.585,-0.062 -1.104,-0.465 -1.282,-1.062c-0.18,-0.6 -0.001,-1.003 0.16,-1.263c0.212,-0.344 0.53,-0.597 0.991,-0.692c0.186,-0.039 0.451,-0.057 0.765,0.031c0.117,0.034 0.436,0.182 0.543,0.232Zm0.263,2.033c0.196,-0.272 0.316,-0.653 0.152,-1.202c0.125,0.421 0.058,0.853 -0.152,1.202Z"/><path d="M351.724,268.184c0.843,0.187 1.742,0.336 2.554,-0.028c0.517,-0.232 0.882,-0.688 1.202,-1.146c0.072,-0.102 0.591,-0.952 0.708,-1.078c0.424,-0.456 0.872,-0.483 1.063,-0.49c0.659,-0.023 1.178,0.247 1.454,0.96c0.209,0.54 0.084,1.127 -0.275,1.534c-0.112,0.184 -0.447,0.73 -0.491,0.793c-0.627,0.897 -1.419,1.709 -2.433,2.164c-1.424,0.639 -3,0.54 -4.476,0.21c-0.198,-0.044 -0.945,-0.326 -1.161,-0.409c-0.648,0.017 -1.257,-0.391 -1.467,-1.038c-0.254,-0.788 0.179,-1.634 0.966,-1.889c0.244,-0.079 0.582,-0.119 0.978,-0.047c0.394,0.071 1.277,0.423 1.378,0.464Zm4.901,0.096c-0.318,-0.162 -0.579,-0.437 -0.718,-0.795c0.157,0.406 0.421,0.648 0.718,0.795Z"/><path d="M352.67,269.734c0.302,-0.771 1.173,-1.153 1.944,-0.851c0.771,0.301 1.152,1.172 0.85,1.943c-0.039,0.1 0.031,0.208 0.057,0.326c0.058,0.262 0.141,0.532 0.213,0.802c0.194,0.722 0.296,1.447 0.158,2.109c-0.17,0.811 -0.966,1.331 -1.776,1.161c-0.811,-0.17 -1.331,-0.966 -1.161,-1.776c0.04,-0.189 -0.034,-0.388 -0.086,-0.593c-0.074,-0.294 -0.165,-0.59 -0.236,-0.879c-0.196,-0.799 -0.226,-1.568 0.037,-2.242Z"/><path d="M334.009,253.846c-0.822,-0.008 -1.486,-0.677 -1.486,-1.5c-0,-0.828 0.672,-1.5 1.5,-1.5c-0.078,0 -0.285,0.029 -0.285,0.029c-0,-0 1.866,0.611 1.866,1.474c-0,0.828 -0.672,1.5 -1.5,1.5c-0.032,-0 -0.064,-0.001 -0.095,-0.003Zm-0.76,-0.265c-0.39,-0.271 -0.645,-0.722 -0.645,-1.232c-0,0.609 0.256,0.988 0.645,1.232Z"/><path d="M220.087,234.59c-0.249,-0.005 -0.499,-0.073 -0.729,-0.208c-0.713,-0.421 -0.95,-1.341 -0.529,-2.054c0.165,-0.279 0.438,-0.562 0.904,-0.692c0.137,-0.038 0.343,-0.073 0.59,-0.051c0.174,0.015 0.461,0.087 0.496,0.096c1.883,0.471 3.767,0.937 5.648,1.417c7.076,1.803 14.143,3.63 21.243,5.34c28.065,6.759 57.053,13.18 84.86,20.747c0.798,0.218 1.271,1.043 1.053,1.842c-0.217,0.798 -1.042,1.27 -1.841,1.053c-27.779,-7.559 -56.738,-13.973 -84.774,-20.725c-7.113,-1.713 -14.193,-3.543 -21.282,-5.35c-1.876,-0.478 -3.756,-0.944 -5.634,-1.414c-0.001,0 -0.003,-0 -0.005,-0.001Z"/><path d="M215.643,236.104c1.398,0.46 7.093,1.391 7.768,1.548c7.838,1.828 15.648,3.749 23.468,5.652c18.994,4.624 38.045,9.005 57.033,13.654c9.989,2.446 20.263,6.268 30.49,7.58c0.821,0.105 1.402,0.857 1.297,1.679c-0.105,0.821 -0.858,1.402 -1.679,1.296c-10.336,-1.325 -20.725,-5.169 -30.822,-7.641c-18.986,-4.649 -38.036,-9.03 -57.029,-13.653c-7.81,-1.901 -15.611,-3.819 -23.439,-5.645c-0.612,-0.143 -5.276,-0.919 -7.301,-1.418c-0.943,-0.233 -1.516,-0.595 -1.65,-0.737c-0.567,-0.603 -0.538,-1.553 0.065,-2.12c0.5,-0.47 1.238,-0.531 1.799,-0.195Z"/><path d="M214.497,243.616c-0.791,-0.151 -1.325,-0.905 -1.199,-1.706c0.067,-0.423 0.284,-1.045 1.17,-1.234c0.045,-0.009 0.288,-0.078 0.676,0.01c0.182,0.042 1.099,0.293 1.299,0.345c1.039,0.271 2.08,0.533 3.12,0.797c2.744,0.697 5.489,1.389 8.234,2.082c8.99,2.269 17.996,4.506 27.029,6.599c27.367,6.34 54.821,12.348 81.905,19.828c0.798,0.22 1.267,1.047 1.047,1.845c-0.22,0.798 -1.047,1.267 -1.845,1.047c-27.044,-7.47 -54.458,-13.467 -81.784,-19.798c-9.053,-2.097 -18.077,-4.338 -27.087,-6.612c-2.746,-0.694 -5.493,-1.386 -8.238,-2.083c-1.046,-0.266 -2.093,-0.53 -3.137,-0.802c-0.172,-0.045 -1.049,-0.28 -1.19,-0.318Z"/><path d="M331.716,238.233c-0.465,-0.685 -0.286,-1.618 0.399,-2.083c0.685,-0.465 1.619,-0.286 2.084,0.399c1.5,2.212 4.465,6.878 5.698,9.25c3.371,6.481 6.85,13.031 9.151,19.973c4.168,12.576 8.135,28.846 7.122,43.425c-0.692,9.962 -3.706,19.139 -10.419,25.93c-9.674,9.786 -22.353,13.44 -35.624,13.582c-13.044,0.139 -26.656,-3.122 -38.431,-7.154c-35.836,-12.269 -160.386,-52.1 -212.565,-70.389c-13.284,-4.657 -21.942,-7.994 -23.451,-9.127c-0.662,-0.497 -0.795,-1.438 -0.298,-2.1c0.497,-0.662 1.438,-0.796 2.1,-0.299c1.454,1.092 9.838,4.207 22.642,8.695c52.174,18.287 176.711,58.114 212.543,70.382c11.469,3.927 24.723,7.127 37.428,6.992c12.477,-0.133 24.427,-3.49 33.522,-12.691c6.213,-6.285 8.919,-14.81 9.56,-24.029c0.986,-14.195 -2.919,-30.029 -6.977,-42.273c-2.251,-6.791 -5.667,-13.192 -8.964,-19.533c-1.194,-2.295 -4.068,-6.809 -5.52,-8.95Z"/><path d="M328.433,330.436c0.797,-0.226 1.627,0.238 1.852,1.034c0.226,0.797 -0.238,1.627 -1.034,1.852c-2.507,0.71 -8.421,1.675 -11.021,1.797c-8.093,0.38 -16.132,-0.121 -24.086,-1.471c-26.591,-4.516 -52.313,-14.302 -77.72,-23.01c-0.783,-0.269 -1.201,-1.122 -0.932,-1.905c0.268,-0.784 1.122,-1.201 1.905,-0.933c25.254,8.656 50.817,18.401 77.249,22.89c7.742,1.315 15.566,1.802 23.443,1.432c2.441,-0.114 7.991,-1.02 10.344,-1.686Z"/><path d="M209.225,242.478c-0.028,0.386 -0.22,3.046 -0.247,3.394c-0.099,1.302 -0.118,2.611 -0.199,3.914c-0.003,0.042 -0.009,0.099 -0.018,0.167c0.303,0.023 0.577,0.044 0.647,0.052c2.177,0.263 4.347,0.486 6.534,0.641c0.826,0.059 1.449,0.777 1.39,1.603c-0.058,0.826 -0.776,1.448 -1.602,1.39c-2.237,-0.159 -4.456,-0.387 -6.682,-0.656c-0.219,-0.026 -1.464,-0.05 -2.027,-0.2c-0.704,-0.187 -1.061,-0.629 -1.203,-0.923c-0.139,-0.288 -0.225,-0.688 -0.201,-1.144c0.021,-0.385 0.152,-0.866 0.168,-1.117c0.082,-1.317 0.101,-2.64 0.202,-3.956c0.029,-0.374 0.097,-2.552 0.253,-3.544c0.108,-0.694 0.392,-1.124 0.536,-1.272c0.576,-0.594 1.527,-0.608 2.121,-0.031c0.462,0.449 0.573,1.124 0.328,1.682Z"/><path d="M311.338,210.426c0.724,0.08 1.301,0.679 1.332,1.428c0.016,0.377 -0.091,0.736 -0.376,1.058c-0.119,0.134 -0.401,0.457 -1.015,0.501c-0.024,0.002 -0.16,0.015 -0.382,-0.019c-0.291,-0.045 -1.753,-0.301 -1.853,-0.32c-1.199,-0.233 -2.394,-0.483 -3.594,-0.709c-3.672,-0.692 -7.334,-1.432 -11.005,-2.127c-11.119,-2.105 -22.115,-4.567 -33.357,-6.033c-0.821,-0.107 -1.4,-0.861 -1.293,-1.682c0.107,-0.821 0.86,-1.4 1.681,-1.293c11.299,1.473 22.352,3.944 33.527,6.06c3.671,0.695 7.331,1.435 11.002,2.127c1.206,0.227 2.408,0.478 3.612,0.712c0.089,0.018 1.578,0.273 1.721,0.297Z"/><path d="M262.154,214.579c-0.123,-0.465 -0.02,-0.981 0.32,-1.371c0.545,-0.623 1.493,-0.687 2.117,-0.142c0.117,0.102 0.437,0.405 0.529,1.024c0.095,0.635 0.088,3.404 0.067,3.726c-0.056,0.826 -0.771,1.452 -1.597,1.397c-0.826,-0.055 -1.452,-0.77 -1.397,-1.596c0.017,-0.247 -0.032,-2.669 -0.039,-3.038Z"/><path d="M262.476,217.6c0.103,-0.096 0.365,-0.337 0.442,-0.385c0.163,-0.1 0.313,-0.154 0.433,-0.184c0.702,-0.179 1.194,0.084 1.538,0.5c0.161,0.196 0.455,0.58 0.315,1.279c-0.086,0.429 -0.348,0.779 -0.696,0.989c-0.066,0.064 -0.133,0.126 -0.17,0.154c-0.21,0.161 -0.423,0.318 -0.638,0.473c-0.688,0.497 -1.385,0.981 -2.089,1.454c-1.919,1.289 -3.864,2.539 -5.794,3.81c-5.924,3.898 -11.661,8.071 -17.558,12.002c-0.689,0.459 -1.621,0.273 -2.081,-0.416c-0.459,-0.689 -0.272,-1.621 0.417,-2.08c5.902,-3.934 11.644,-8.111 17.572,-12.012c1.923,-1.266 3.86,-2.511 5.772,-3.794c0.676,-0.454 1.345,-0.92 2.005,-1.396c0.179,-0.13 0.356,-0.26 0.532,-0.394Zm-0.227,1.136c-0.024,-0.166 -0.021,-0.34 0.014,-0.515c-0.041,0.205 -0.037,0.376 -0.014,0.515Z"/><path d="M102.731,221.654c-0.179,0.66 -0.377,1.412 -0.497,2.125c-0.07,0.42 -0.148,0.817 -0.107,1.126c0.163,0.078 0.464,0.217 0.69,0.29c1.142,0.369 2.558,0.59 3.032,0.733c5.004,1.514 10.018,3.006 15.045,4.441c19.411,5.539 38.951,10.638 58.491,15.695c7.571,1.959 15.057,3.998 22.537,6.288c2.454,0.751 4.891,1.559 7.35,2.292c0.852,0.254 1.702,0.515 2.553,0.772c0.361,0.109 1.279,0.445 1.406,0.493c1.03,0.4 0.972,1.376 0.972,1.401c0.001,0.518 -0.199,0.982 -0.746,1.3c-0.069,0.04 -0.457,0.339 -1.149,0.151c-0.01,-0.003 -0.072,-0.02 -0.194,-0.064c-0.03,-0.011 -0.059,-0.022 -0.088,-0.035c-0.253,-0.092 -0.833,-0.303 -1.068,-0.374c-0.848,-0.256 -1.694,-0.516 -2.542,-0.769c-2.467,-0.735 -4.911,-1.545 -7.372,-2.299c-7.438,-2.276 -14.882,-4.304 -22.411,-6.252c-19.564,-5.063 -39.128,-10.169 -58.562,-15.715c-5.043,-1.439 -10.072,-2.935 -15.091,-4.453c-0.579,-0.176 -2.5,-0.476 -3.744,-0.99c-0.98,-0.404 -1.619,-1.023 -1.846,-1.595c-0.228,-0.574 -0.299,-1.355 -0.211,-2.226c0.147,-1.447 0.722,-3.23 0.943,-4.212c0.143,-0.631 0.724,-1.566 2.45,-1.284c1.125,0.184 3.578,1 7.926,2.223c8.926,2.512 17.878,4.937 26.852,7.27c23.575,6.129 46.578,10.574 69.849,17.875c0.789,0.247 1.23,1.09 0.982,1.88c-0.248,0.79 -1.091,1.23 -1.881,0.982c-23.222,-7.286 -46.178,-11.717 -69.705,-17.833c-8.993,-2.338 -17.964,-4.769 -26.909,-7.286c-3.251,-0.914 -5.753,-1.614 -6.955,-1.95Z"/><path d="M107.52,218.735c-0.287,0.196 -0.678,0.456 -0.855,0.549c-0.914,0.477 -1.825,0.96 -2.722,1.467c-2.806,1.588 -5.504,3.345 -8.265,5.007c-8.3,4.995 -16.977,9.51 -25.503,14.107c-0.729,0.393 -1.639,0.121 -2.032,-0.608c-0.393,-0.729 -0.121,-1.639 0.608,-2.032c8.485,-4.576 17.12,-9.067 25.38,-14.037c2.784,-1.676 5.505,-3.447 8.335,-5.048c0.926,-0.524 1.867,-1.023 2.81,-1.515c0.295,-0.155 0.856,-0.601 1.175,-0.773c0.374,-0.202 0.7,-0.25 0.895,-0.25c0.661,-0.003 1.08,0.314 1.342,0.757c0.147,0.248 0.36,0.702 0.105,1.398c-0.206,0.562 -0.714,0.927 -1.273,0.978Zm-1.628,-1.646c0.012,-0.122 0.04,-0.243 0.084,-0.363c-0.048,0.131 -0.074,0.252 -0.084,0.363Z"/><path d="M61.442,242.434c0.698,0.198 1.168,0.879 1.079,1.622c-0.098,0.822 -0.845,1.409 -1.667,1.311c-0.142,-0.017 -0.406,-0.102 -0.406,-0.102c-0.754,-0.277 -1.16,-1.105 -0.908,-1.875c0.257,-0.787 1.105,-1.217 1.892,-0.959c0.003,0.001 0.006,0.002 0.01,0.003Z"/><path d="M314.552,215.632c0.814,0.148 1.355,0.93 1.206,1.744c-0.148,0.815 -0.93,1.356 -1.744,1.207c-9.536,-1.738 -18.947,-4.19 -28.49,-5.922c-9.591,-1.741 -19.315,-2.676 -28.895,-4.459c-0.814,-0.152 -1.351,-0.936 -1.2,-1.75c0.152,-0.814 0.935,-1.351 1.749,-1.2c9.575,1.783 19.295,2.717 28.882,4.457c9.544,1.732 18.955,4.185 28.492,5.923Z"/><path d="M318.09,222.52c0.138,0.003 0.277,0.024 0.416,0.067c1.432,0.44 1.079,1.79 1.047,1.896c-0.066,0.213 -0.367,1.087 -1.481,1.06c-0.105,-0.003 -0.833,-0.131 -1.114,-0.179c-0.603,-0.102 -1.201,-0.233 -1.8,-0.352c-1.535,-0.305 -3.066,-0.624 -4.6,-0.932c-4.474,-0.9 -8.957,-1.759 -13.434,-2.643c-14.099,-2.786 -28.516,-6.538 -42.699,-8.937c-0.817,-0.138 -1.367,-0.913 -1.229,-1.729c0.138,-0.817 0.913,-1.367 1.729,-1.229c14.21,2.404 28.655,6.161 42.78,8.952c4.481,0.885 8.967,1.744 13.444,2.645c1.532,0.308 3.062,0.626 4.595,0.931c0.571,0.114 1.141,0.239 1.716,0.337c0.124,0.021 0.433,0.077 0.63,0.113Zm-0.776,2.799c0.081,0.048 0.182,0.096 0.31,0.135c-0.11,-0.034 -0.214,-0.079 -0.31,-0.135Z"/><path d="M322.972,244.559c-0.392,-0.73 -0.117,-1.64 0.613,-2.031c0.729,-0.391 1.639,-0.117 2.03,0.613c3.177,5.92 6.965,13.853 9.332,20.127c4.306,11.412 10.229,27.015 10.36,41.08c0.091,9.71 -2.551,18.694 -10.114,25.242c-7.783,6.739 -17.765,9.413 -28.411,9.665c-15.601,0.369 -32.637,-4.475 -45.95,-8.893c-42.325,-14.048 -215.632,-69.961 -223.764,-73.847c-0.747,-0.357 -1.063,-1.253 -0.706,-2c0.357,-0.747 1.253,-1.064 2,-0.707c8.119,3.88 181.158,59.681 223.415,73.706c13.021,4.322 29.675,9.103 44.934,8.742c9.927,-0.235 19.261,-2.651 26.518,-8.934c6.863,-5.942 9.161,-14.135 9.079,-22.946c-0.128,-13.717 -5.968,-28.919 -10.168,-40.049c-2.325,-6.162 -6.048,-13.953 -9.168,-19.768Z"/><path d="M56.246,204.362c0.382,0.029 0.753,0.202 1.022,0.514c0.542,0.626 0.473,1.574 -0.153,2.116c-0.145,0.126 -0.54,0.442 -1.226,0.356c-0.273,-0.034 -1.533,-0.415 -1.706,-0.468c-1.695,-0.326 -3.412,-0.526 -5.108,-0.855c-3.026,-0.587 -6.087,-1.246 -9.041,-2.134c-1.166,-0.351 -3.084,-0.782 -4.05,-1.627c-3.81,-3.332 -1.188,-9.046 3.238,-9.943c1.904,-0.386 5.189,0.17 7.08,0.382c2.687,0.3 4.798,0.924 7.466,1.366c4.083,0.676 8.17,1.297 12.236,2.066c0.813,0.154 1.349,0.939 1.195,1.753c-0.154,0.813 -0.939,1.349 -1.753,1.195c-4.044,-0.765 -8.108,-1.382 -12.168,-2.054c-2.612,-0.433 -4.679,-1.051 -7.31,-1.345c-1.644,-0.184 -4.494,-0.759 -6.149,-0.423c-2.158,0.437 -3.717,3.121 -1.86,4.745c0.277,0.242 0.711,0.38 1.143,0.516c0.64,0.2 1.301,0.347 1.796,0.496c2.858,0.859 5.82,1.494 8.748,2.062c1.715,0.332 3.452,0.533 5.166,0.866c0.077,0.015 1.205,0.348 1.434,0.416Z"/><path d="M37.31,195.207c0.197,0.03 1.276,0.195 1.331,0.203c1.62,0.248 3.248,0.463 4.872,0.685c4.083,0.558 8.19,0.95 12.249,1.678c2.849,0.511 5.836,1.46 8.735,1.603c0.826,0.041 1.465,0.745 1.424,1.572c-0.041,0.827 -0.745,1.465 -1.572,1.424c-3.024,-0.149 -6.144,-1.113 -9.117,-1.646c-4.018,-0.721 -8.084,-1.106 -12.125,-1.658c-1.641,-0.225 -3.284,-0.442 -4.92,-0.692c-0.07,-0.011 -1.309,-0.19 -1.557,-0.245c-1.129,-0.25 -1.207,-1.282 -1.214,-1.394c-0.046,-0.826 0.588,-1.535 1.415,-1.58c0.166,-0.01 0.327,0.009 0.479,0.05Z"/><path d="M89.056,171.72l-0.211,0.974c0.002,0.413 0.006,0.863 0.078,1.274c0.016,0.094 0.036,0.185 0.063,0.271c0.018,0.058 -0.006,0.143 0.06,0.156c5.474,1.074 8.331,1.463 13.86,2.22c0.82,0.113 1.395,0.87 1.282,1.69c-0.112,0.82 -0.869,1.395 -1.69,1.282c-5.596,-0.766 -8.487,-1.161 -14.029,-2.248c-1.098,-0.215 -1.774,-0.864 -2.175,-1.752c-0.383,-0.848 -0.442,-2.006 -0.45,-2.995c-0.001,-0.084 0.194,-1.335 0.387,-1.936c0.138,-0.428 0.345,-0.703 0.461,-0.82c0.351,-0.358 0.736,-0.454 1.056,-0.462c0.424,-0.011 0.885,0.112 1.261,0.614c0.391,0.523 0.39,1.218 0.047,1.732Zm-1.308,0.665c-0.435,-0.017 -0.859,-0.224 -1.141,-0.599c0.343,0.457 0.741,0.608 1.141,0.599Z"/><path d="M87.74,172.091c-0.828,-0.007 -1.494,-0.685 -1.487,-1.513c0.008,-0.828 0.686,-1.494 1.514,-1.487c1.521,0.014 3.264,0.548 4.771,0.781c4.719,0.729 9.372,1.805 14.087,2.564c0.817,0.132 1.374,0.902 1.242,1.72c-0.131,0.817 -0.902,1.374 -1.719,1.242c-4.709,-0.758 -9.356,-1.834 -14.068,-2.562c-1.373,-0.212 -2.955,-0.732 -4.34,-0.745Z"/><path d="M89.354,170.645c-0.297,0.525 -0.897,0.841 -1.529,0.746c-0.818,-0.123 -1.384,-0.887 -1.261,-1.705c0.064,-0.428 0.318,-0.918 0.811,-1.32c0.401,-0.327 1.057,-0.628 1.321,-0.789c2.66,-1.624 5.168,-1.811 7.786,-1.444c2.294,0.322 4.682,1.107 7.386,1.545c1.508,0.244 4.884,1.081 6.382,1.392c0.81,0.168 1.332,0.962 1.164,1.773c-0.168,0.811 -0.963,1.332 -1.774,1.164c-1.466,-0.304 -4.773,-1.128 -6.252,-1.368c-2.681,-0.434 -5.048,-1.215 -7.322,-1.535c-1.951,-0.273 -3.826,-0.176 -5.807,1.033c-0.155,0.095 -0.697,0.394 -0.905,0.508Z"/><path d="M66.065,196.822c0.041,-0.039 -0.112,0.014 -0.168,0.023c-1.407,0.242 -11.076,0.326 -11.193,4.904c-0.02,0.786 -0.408,3.204 0.553,3.554c9.047,3.299 19.032,4.871 28.364,7.142c24.339,5.922 48.563,11.092 73.129,15.994c14.615,2.916 29.072,6.407 43.606,9.65c0.35,0.078 0.7,0.158 1.05,0.237c0.333,0.076 0.667,0.146 1,0.22c3.608,0.792 10.124,3.407 12.976,3.693c0.057,0.006 -0.472,-0.894 -0.44,-0.955c0.465,-0.861 -1.578,-4.15 -0.91,-4.641c1.778,-1.305 3.881,-2.363 5.828,-3.39c0.249,-0.132 0.916,-0.083 0.779,-0.33c-0.016,-0.028 -9.085,-2.764 -9.579,-2.925c-10.352,-3.391 -20.851,-6.084 -31.49,-8.413c-23.396,-5.121 -46.218,-10.021 -69.625,-15.093c-16.016,-3.471 -27.829,-6.419 -43.88,-9.67Z"/><path d="M66.366,195.364l-0.003,-0.012c0.023,0.005 0.046,0.009 0.069,0.014c0.038,0.002 0.066,0.005 0.081,0.01c0.018,0.005 0.036,0.011 0.054,0.017c15.954,3.237 27.741,6.175 43.696,9.633c23.408,5.073 46.231,9.972 69.628,15.094c10.689,2.339 21.236,5.046 31.636,8.452c0.444,0.145 7.819,2.371 9.302,2.835c0.829,0.26 1.112,0.771 1.12,0.786c0.443,0.794 0.227,1.387 -0.211,1.862c-0.144,0.157 -0.346,0.314 -0.622,0.424c-0.142,0.057 -0.52,0.134 -0.68,0.165c-1.624,0.856 -3.355,1.732 -4.893,2.77c0.227,0.636 0.658,1.869 0.827,2.533c0.106,0.42 0.141,0.807 0.121,1.144c0.141,0.296 0.338,0.72 0.356,0.798c0.155,0.678 -0.138,1.096 -0.295,1.291c-0.307,0.38 -0.728,0.611 -1.32,0.551c-2.888,-0.289 -9.493,-2.918 -13.148,-3.72c-0.336,-0.074 -0.673,-0.146 -1.01,-0.222c-0.348,-0.079 -0.696,-0.158 -1.045,-0.236c-14.523,-3.241 -28.969,-6.729 -43.572,-9.643c-24.587,-4.906 -48.831,-10.081 -73.191,-16.008c-9.385,-2.283 -19.424,-3.872 -28.523,-7.19c-0.717,-0.262 -1.262,-0.889 -1.49,-1.828c-0.245,-1.005 -0.064,-2.545 -0.048,-3.173c0.049,-1.923 1.205,-3.347 2.988,-4.313c3.128,-1.695 8.413,-1.853 9.449,-2.031c-0.02,0.004 -0.077,0.016 -0.077,0.016c0,-0 0.529,-0.026 0.801,-0.019Zm-1.705,0.93c0.078,-0.207 0.202,-0.398 0.369,-0.557c-0.213,0.203 -0.314,0.4 -0.369,0.557Zm-8.501,7.74c8.893,3.185 18.67,4.728 27.815,6.953c24.319,5.918 48.523,11.083 73.069,15.981c14.625,2.919 29.094,6.411 43.639,9.657c0.351,0.079 0.703,0.159 1.054,0.238c0.33,0.075 0.661,0.145 0.991,0.218c2.798,0.614 7.365,2.352 10.56,3.205c-0.222,-0.648 -0.55,-1.624 -0.708,-2.172c-0.192,-0.668 -0.214,-1.241 -0.127,-1.615c0.111,-0.474 0.359,-0.821 0.691,-1.065c1.084,-0.796 2.284,-1.504 3.499,-2.17c-2.615,-0.794 -5.764,-1.747 -6.05,-1.841c-10.304,-3.375 -20.754,-6.055 -31.344,-8.373c-23.395,-5.121 -46.215,-10.02 -69.622,-15.092c-15.925,-3.451 -27.693,-6.385 -43.609,-9.615c-1.028,0.129 -4.515,0.231 -7.231,1.187c-0.638,0.225 -1.231,0.496 -1.709,0.846c-0.491,0.359 -0.859,0.8 -0.874,1.411c-0.008,0.315 -0.075,0.891 -0.091,1.491c-0.006,0.222 0.024,0.549 0.047,0.756Z"/><path d="M106.775,169.893c0.409,-0.719 1.326,-0.971 2.045,-0.562c0.72,0.409 0.972,1.326 0.563,2.045c-1.637,2.879 -3.381,5.742 -5.667,8.162c-4.758,5.035 -11.267,8.292 -17.443,11.221c-6.347,3.009 -12.947,5.511 -19.805,7.06c-0.807,0.182 -1.611,-0.325 -1.793,-1.133c-0.183,-0.808 0.325,-1.611 1.132,-1.794c6.643,-1.5 13.033,-3.929 19.181,-6.844c5.847,-2.772 12.043,-5.803 16.547,-10.571c2.121,-2.244 3.722,-4.913 5.24,-7.584Z"/><path d="M105.213,174.576c0.199,-0.661 1.583,-1.499 2.071,-1.956c0.579,-0.544 1.506,-1.906 2.865,-2.029c7.567,-0.681 25.463,5.409 32.855,7.134c28.574,6.668 57.567,11.353 86.101,18.173c7.969,1.905 29.311,6.631 32.152,6.885c0.608,0.054 -2.938,2.824 -3.814,3.691c-3.14,3.105 -3.452,3.793 -7.571,2.103c-12.188,-5 -24.925,-8.693 -37.628,-12.116c-24.892,-6.709 -49.934,-11.105 -75.306,-15.479c-5.707,-0.984 -11.42,-1.991 -17.076,-3.24c-4.846,-1.071 -9.607,-3.394 -14.649,-3.166Z"/><path d="M103.777,174.144c0.117,-0.389 0.398,-0.839 0.823,-1.26c0.515,-0.512 1.309,-1.031 1.657,-1.358c0.374,-0.35 0.89,-1.01 1.552,-1.516c0.631,-0.482 1.371,-0.837 2.206,-0.913c7.672,-0.69 25.834,5.418 33.33,7.167c28.577,6.668 57.572,11.354 86.108,18.175c7.917,1.892 29.115,6.598 31.937,6.85c0.618,0.055 0.961,0.369 1.174,0.688c0.213,0.317 0.357,0.747 0.202,1.303c-0.061,0.217 -0.285,0.655 -0.752,1.133c-0.857,0.879 -2.882,2.5 -3.517,3.127c-0.986,0.976 -1.709,1.72 -2.349,2.241c-0.878,0.713 -1.665,1.078 -2.583,1.172c-1.024,0.105 -2.286,-0.177 -4.262,-0.988c-12.13,-4.977 -24.807,-8.649 -37.45,-12.056c-24.846,-6.696 -49.844,-11.082 -75.17,-15.449c-5.73,-0.988 -11.465,-1.999 -17.145,-3.254c-4.719,-1.042 -9.346,-3.353 -14.257,-3.131c-0.486,0.021 -0.952,-0.194 -1.251,-0.577c-0.299,-0.384 -0.393,-0.889 -0.253,-1.354Zm4.944,-0.859c3.883,0.58 7.652,2.15 11.465,2.992c5.633,1.245 11.323,2.247 17.007,3.227c25.418,4.382 50.505,8.788 75.441,15.508c12.764,3.44 25.561,7.153 37.807,12.177c1.321,0.542 2.134,0.85 2.818,0.78c0.363,-0.037 0.649,-0.234 0.996,-0.516c0.583,-0.474 1.235,-1.158 2.133,-2.046c0.3,-0.296 1.044,-0.966 1.78,-1.621c-6.881,-1.31 -22.766,-4.841 -29.412,-6.429c-28.531,-6.819 -57.521,-11.504 -86.093,-18.172c-7.288,-1.7 -24.919,-7.771 -32.379,-7.1c-0.454,0.041 -0.783,0.393 -1.073,0.683c-0.178,0.178 -0.341,0.355 -0.49,0.517Z"/><path d="M95.794,185.569c-0.774,-0.291 -1.167,-1.157 -0.876,-1.932c0.292,-0.775 1.157,-1.168 1.932,-0.876c3.895,1.464 27.975,3.97 36.287,5.71c23.421,4.904 46.706,10.904 70.025,16.534c4.264,1.029 20.15,5.103 30.537,8.644c4.725,1.61 8.343,3.193 9.493,4.297c0.597,0.574 0.617,1.524 0.043,2.121c-0.573,0.597 -1.523,0.617 -2.12,0.043c-1.008,-0.967 -4.243,-2.211 -8.384,-3.622c-10.297,-3.51 -26.046,-7.546 -30.273,-8.567c-23.289,-5.623 -46.545,-11.616 -69.936,-16.513c-8.415,-1.762 -32.784,-4.357 -36.728,-5.839Z"/><path d="M79.959,193.29c-0.794,-0.234 -1.248,-1.069 -1.014,-1.863c0.235,-0.794 1.07,-1.249 1.864,-1.014c2.907,0.858 7.326,0.178 10.545,0.678c9.63,1.498 19.239,2.723 28.806,4.645c22.807,4.582 45.365,11.185 67.787,17.1c4.039,1.065 21.512,5.126 32.747,8.536c3.453,1.047 6.328,2.041 8.086,2.868c0.93,0.437 1.591,0.863 1.961,1.218c0.597,0.573 0.617,1.523 0.043,2.12c-0.573,0.598 -1.523,0.617 -2.121,0.044c-0.31,-0.298 -0.985,-0.61 -1.903,-0.997c-1.691,-0.713 -4.113,-1.526 -6.937,-2.383c-11.198,-3.398 -28.615,-7.444 -32.641,-8.506c-22.365,-5.899 -44.864,-12.488 -67.613,-17.059c-9.524,-1.913 -19.09,-3.131 -28.676,-4.621c-3.338,-0.52 -7.918,0.124 -10.934,-0.766Z"/><path d="M253.749,210.224c0.697,-0.446 1.626,-0.242 2.072,0.456c0.446,0.697 0.242,1.625 -0.456,2.071c-1.087,0.696 -8.489,5.944 -11.049,7.533c-3.596,2.233 -12.894,7.377 -18.63,10.97c-1.429,0.895 -2.63,1.689 -3.45,2.312c-0.386,0.293 -0.674,0.505 -0.789,0.674c-0.466,0.685 -1.399,0.863 -2.084,0.398c-0.685,-0.465 -0.863,-1.399 -0.397,-2.084c0.464,-0.684 2.409,-2.139 5.128,-3.842c5.739,-3.595 15.041,-8.742 18.639,-10.976c2.553,-1.585 9.932,-6.818 11.016,-7.512Z"/></g></g></svg>