<?xml version="1.0" encoding="UTF-8" standalone="no"?><!DOCTYPE svg PUBLIC "-//W3C//DTD SVG 1.1//EN" "http://www.w3.org/Graphics/SVG/1.1/DTD/svg11.dtd"><svg width="100%" height="100%" viewBox="0 0 420 420" version="1.1" xmlns="http://www.w3.org/2000/svg" xmlns:xlink="http://www.w3.org/1999/xlink" xml:space="preserve" xmlns:serif="http://www.serif.com/" style="fill-rule:evenodd;clip-rule:evenodd;stroke-linejoin:round;stroke-miterlimit:2;"><rect id="palčáky" x="0.077" y="0.033" width="419.528" height="419.528" style="fill:none;"/><g id="palčáky1" serif:id="palčáky"><g><path d="M321.665,307.164c6.322,-3.453 13.82,8.319 6.828,15.271c-0.055,0.054 -0.535,0.409 -0.494,0.494c0.956,1.973 10.113,4.364 4.914,12.682c-4.088,6.542 -14.168,3.124 -14.815,3.736c-0.009,0.008 0.783,0.803 0.817,0.84c0.827,0.905 1.449,1.99 1.899,3.16c1.264,3.289 1.004,7.161 -1.584,10.059c-4.372,4.895 -12.801,4.864 -17.457,1.595c-0.703,-0.494 -1.216,-2.394 -1.895,-1.751c-2.254,2.131 -0.049,14.671 -12.749,14.534c-5.06,-0.055 -9.669,-4.447 -11.685,-9.146c-0.06,-0.139 -0.359,-1.345 -0.561,-1.347c-0.714,-0.006 -6.651,10.511 -17.33,5.915c-2.982,-1.283 -5.229,-4.137 -6.591,-7.231c-1.71,-3.883 -0.133,-4.812 -0.887,-4.818c-2.397,-0.021 -7.489,9.342 -16.523,4.394c-3.519,-1.928 -5.253,-5.604 -5.114,-9.994c0.032,-1.014 1.336,-3.235 0.363,-3.044c-5.516,1.082 -9.67,4.867 -16.275,0.564c-2.719,-1.772 -3.008,-6.532 -2.511,-10.097c0.168,-1.207 1.903,-3.587 0.742,-3.597c-0.424,-0.004 -2.347,1.532 -2.976,1.728c-4.668,1.454 -9.651,2.091 -13.381,-0.674c-2.892,-2.144 -5.105,-7.425 -2.865,-10.849c0.709,-1.085 1.726,-2.262 2.867,-2.87c0.049,-0.026 0.199,-0.085 0.145,-0.085c-13.344,-0.114 -12.758,-16.079 0.367,-18.617c0.244,-0.048 1.108,-0.024 1.219,-0.373c0.715,-2.247 -7.031,-6.302 -0.632,-11.927c3.057,-2.687 7.4,-2.727 10.593,-1.127c1.435,0.719 2.793,1.693 3.851,2.918c0.026,0.029 -0.003,0.003 0,-0c1.94,-1.835 2.281,-5.17 5.886,-5.634" style="fill:#fff;"/><path d="M194.292,296.611c-0.329,-0.511 -0.755,-1.073 -1.163,-1.685c-1.084,-1.625 -1.983,-3.551 -1.577,-5.711c0.266,-1.418 1.091,-2.984 2.959,-4.626c3.537,-3.109 8.56,-3.193 12.255,-1.341c1.087,0.545 2.133,1.223 3.062,2.028c0.412,-0.636 0.768,-1.328 1.203,-1.955c1.001,-1.443 2.289,-2.637 4.608,-2.936c0.821,-0.105 1.573,0.475 1.679,1.296c0.106,0.821 -0.475,1.574 -1.296,1.68c-1.606,0.207 -2.287,1.25 -2.928,2.291c-0.645,1.046 -1.249,2.122 -2.118,2.944c0.157,-0.148 0.286,-0.325 0.368,-0.533c-0.449,0.655 -1.58,0.948 -1.67,0.931c-0.119,-0.023 -0.298,-0.069 -0.502,-0.194c-0.095,-0.059 -0.41,-0.34 -0.526,-0.542c-0.155,-0.268 -0.194,-0.523 -0.2,-0.697c-0.004,-0.1 0.001,-0.194 0.014,-0.284c-0.062,0.184 -0.147,0.635 0.35,1.21c-0.929,-1.076 -2.128,-1.925 -3.388,-2.557c-2.691,-1.349 -6.355,-1.352 -8.93,0.912c-1.38,1.213 -1.983,2.284 -2.037,3.304c-0.087,1.635 1.07,2.985 1.875,4.13c0.505,0.718 0.926,1.379 1.141,1.96c0.249,0.673 0.272,1.296 0.092,1.861c-0.127,0.399 -0.386,0.746 -0.795,0.995c-0.389,0.237 -1.447,0.382 -1.594,0.401c-5.693,1.111 -8.766,5.027 -8.87,8.782c-0.099,3.607 2.689,6.81 8.256,6.858c0.46,0.004 0.717,0.175 0.854,0.27c0.339,0.236 0.51,0.535 0.593,0.843c0.092,0.342 0.101,0.769 -0.199,1.221c-0.055,0.084 -0.744,0.597 -0.744,0.597c-0,-0 0.032,-0.016 0.043,-0.022c-0.932,0.496 -1.738,1.481 -2.317,2.367c-0.688,1.052 -0.79,2.338 -0.569,3.601c0.364,2.084 1.606,4.135 3.072,5.222c3.355,2.487 7.843,1.755 12.042,0.447c0.454,-0.141 1.634,-1.094 2.293,-1.454c0.492,-0.268 0.913,-0.344 1.142,-0.342c0.638,0.006 1.055,0.247 1.346,0.537c0.377,0.376 0.631,0.958 0.506,1.749c-0.064,0.411 -0.269,0.963 -0.526,1.541c-0.232,0.522 -0.54,1.075 -0.596,1.477c-0.27,1.939 -0.303,4.27 0.262,6.17c0.307,1.033 0.779,1.939 1.583,2.463c3.469,2.26 6.168,1.959 8.813,1.162c2.061,-0.621 4.097,-1.498 6.354,-1.941c0.645,-0.127 1.092,0.051 1.409,0.274c0.294,0.206 0.52,0.494 0.645,0.88c0.11,0.338 0.128,0.901 -0.056,1.562c-0.162,0.582 -0.557,1.368 -0.573,1.848c-0.119,3.776 1.308,6.972 4.336,8.63c5.552,3.041 9.381,-0.213 11.917,-2.35c0.973,-0.82 1.807,-1.511 2.489,-1.859c0.511,-0.261 0.986,-0.373 1.409,-0.369c0.618,0.005 0.964,0.238 1.19,0.448c0.273,0.254 0.461,0.579 0.507,1.03c0.014,0.142 0.014,0.317 -0.021,0.529c-0.065,0.4 -0.432,1.428 0.571,3.707c1.209,2.747 3.163,5.318 5.811,6.458c7.658,3.295 12.561,-2.193 14.557,-4.472c0.561,-0.64 0.979,-1.085 1.207,-1.245c0.388,-0.273 0.74,-0.323 0.986,-0.321c0.34,0.003 0.747,0.107 1.115,0.478c0.12,0.121 0.269,0.316 0.396,0.579c0.16,0.333 0.396,1.112 0.437,1.25c1.806,4.164 5.817,8.137 10.301,8.186c3.077,0.033 5.16,-0.739 6.582,-1.987c2.205,-1.935 2.839,-4.885 3.336,-7.25c0.252,-1.202 0.463,-2.283 0.742,-3.103c0.27,-0.792 0.627,-1.391 1.042,-1.784c0.473,-0.447 0.956,-0.561 1.4,-0.539c0.396,0.019 0.806,0.166 1.187,0.494c0.263,0.227 0.542,0.601 0.803,1.022c0.134,0.217 0.397,0.603 0.439,0.665c4.136,2.869 11.573,2.928 15.436,-1.396c2.19,-2.453 2.372,-5.737 1.302,-8.521c-0.382,-0.993 -0.904,-1.918 -1.606,-2.685c-0.031,-0.034 -0.679,-0.686 -0.802,-0.822c-0.914,-1.01 0.003,-2.066 0.061,-2.121c0.179,-0.169 0.44,-0.342 0.821,-0.428c0.307,-0.07 0.931,-0.066 1.779,0.032c1.439,0.167 3.837,0.534 6.263,0.227c2.146,-0.272 4.343,-1.082 5.711,-3.272c1.185,-1.895 1.53,-3.391 1.286,-4.628c-0.371,-1.881 -1.997,-3.055 -3.329,-3.997c-0.872,-0.617 -1.67,-1.142 -2.18,-1.617c-0.362,-0.336 -0.616,-0.674 -0.769,-0.991c-0.156,-0.321 -0.242,-0.746 -0.039,-1.249c0.055,-0.136 0.157,-0.325 0.328,-0.517c0.127,-0.141 0.438,-0.403 0.536,-0.485c3.51,-3.532 2.612,-8.511 0.203,-11.307c-1.419,-1.647 -3.407,-2.575 -5.293,-1.545c-0.727,0.397 -1.639,0.129 -2.035,-0.597c-0.397,-0.727 -0.129,-1.639 0.597,-2.036c3.173,-1.732 6.617,-0.55 9.004,2.22c3.153,3.66 4.338,10.068 0.168,14.828c0.707,0.51 1.607,1.089 2.469,1.793c1.409,1.149 2.689,2.611 3.188,4.507c0.495,1.879 0.269,4.238 -1.59,7.211c-2.127,3.404 -5.621,4.544 -8.929,4.758c-1.383,0.089 -2.723,0.011 -3.866,-0.099c0.318,0.554 0.591,1.139 0.824,1.744c1.458,3.793 1.12,8.254 -1.865,11.596c-4.87,5.452 -14.252,5.465 -19.438,1.823c-0.17,-0.119 -0.34,-0.278 -0.504,-0.466c-0.271,1.111 -0.501,2.502 -0.882,3.947c-0.728,2.757 -1.99,5.653 -4.705,7.535c-1.805,1.251 -4.267,2.077 -7.707,2.04c-5.357,-0.058 -10.328,-4.406 -12.718,-9.333c-2.701,2.945 -8.612,8.43 -17.435,4.633c-3.316,-1.427 -5.857,-4.564 -7.371,-8.005c-0.492,-1.118 -0.739,-2.105 -0.85,-2.918c-0.591,0.491 -1.253,1.068 -1.993,1.643c-3.231,2.512 -7.772,4.927 -13.914,1.562c-4.011,-2.197 -6.052,-6.354 -5.893,-11.356c0.009,-0.285 0.078,-0.641 0.184,-1.023c-1.406,0.429 -2.746,0.96 -4.099,1.368c-3.398,1.024 -6.86,1.382 -11.317,-1.521c-1.371,-0.894 -2.297,-2.361 -2.821,-4.123c-0.681,-2.291 -0.683,-5.099 -0.357,-7.438c0.017,-0.122 0.045,-0.253 0.081,-0.391c-0.15,0.074 -0.28,0.129 -0.383,0.161c-5.138,1.601 -10.615,2.143 -14.721,-0.901c-2.004,-1.486 -3.743,-4.266 -4.241,-7.115c-0.354,-2.026 -0.089,-4.073 1.015,-5.76c0.224,-0.344 0.476,-0.693 0.751,-1.034c-5.356,-1.264 -7.842,-5.331 -7.726,-9.541c0.133,-4.811 3.793,-10.052 10.987,-11.581Zm14.517,-10.085c0.033,-0.038 0.068,-0.074 0.105,-0.109c0.008,-0.007 0.016,-0.014 0.023,-0.022c-0.046,0.041 -0.088,0.084 -0.128,0.131Z"/><path d="M313.333,320.519c-0.531,1.661 25.571,-46.876 31.466,-55.908c11.207,-17.172 29.144,-30.61 37.37,-49.593c6.389,-14.743 -4.43,-26.629 -20.039,-22.973c-14.116,3.306 -25.847,20.292 -25.878,20.252c-2.936,-3.828 26.062,-68.863 -8.427,-97.484c-12.799,-10.622 -31.284,-13.624 -39.755,-13.033c-72.668,5.071 -61.425,93.265 -65.597,135.684c-2.125,21.602 -8.076,52.9 -8.076,52.9c-0,0 20.019,19 49.481,27.089c14.421,3.96 34.269,3.804 49.455,3.066Z" style="fill:#fff;"/><path d="M338.138,207.497c4.521,-5.348 13.503,-14.536 23.65,-16.913c8.44,-1.977 15.562,0.341 19.734,5.054c4.193,4.736 5.496,11.963 2.024,19.976c-4.175,9.634 -10.799,17.872 -17.817,25.869c-6.866,7.825 -14.109,15.42 -19.674,23.948c-5.299,8.119 -26.941,48.197 -30.831,54.921c-0.389,0.673 -0.652,1.069 -0.735,1.166c-0.155,0.181 -0.296,0.274 -0.383,0.326c-0.377,0.227 -0.711,0.235 -0.952,0.207c-0.037,-0.004 -0.072,-0.01 -0.108,-0.016c-15.282,0.729 -35.12,0.831 -49.565,-3.135c-29.844,-8.194 -50.117,-27.448 -50.117,-27.448c-0.37,-0.351 -0.536,-0.866 -0.441,-1.368c0,0 5.938,-31.219 8.057,-52.767c2.092,-21.263 0.336,-53.998 7.148,-82.054c6.945,-28.608 22.695,-52.387 59.838,-54.979c8.696,-0.607 27.676,2.47 40.817,13.375c12.415,10.302 16.889,25.167 17.514,40.341c0.614,14.901 -2.483,30.082 -5.183,41.312c-1.197,4.982 -2.316,9.171 -2.976,12.185Zm-25.632,111.56c0.04,-0.067 0.08,-0.136 0.121,-0.207c3.9,-6.742 25.603,-46.919 30.915,-55.059c5.642,-8.644 12.972,-16.354 19.932,-24.287c6.81,-7.76 13.268,-15.734 17.319,-25.083c2.916,-6.729 2.004,-12.817 -1.517,-16.795c-3.543,-4.002 -9.635,-5.8 -16.804,-4.121c-12.301,2.881 -22.681,16.555 -24.666,19.22c-0.25,0.337 -0.399,0.532 -0.428,0.564c-1.04,1.171 -2.194,0.08 -2.316,-0.079c-0.197,-0.258 -0.369,-0.613 -0.455,-1.087c-0.1,-0.552 -0.085,-1.393 0.075,-2.491c0.432,-2.978 1.897,-8.29 3.515,-15.021c2.646,-11.007 5.705,-25.883 5.103,-40.488c-0.591,-14.333 -4.705,-28.424 -16.432,-38.156c-12.459,-10.338 -30.449,-13.266 -38.693,-12.691c-35.526,2.48 -50.489,25.333 -57.132,52.695c-6.777,27.913 -4.996,60.484 -7.077,81.639c-1.927,19.589 -6.991,47.128 -7.941,52.211c3.498,3.138 22.11,19.009 48.25,26.186c14.046,3.857 33.292,3.75 48.231,3.05Z"/><g><path d="M307.362,148.663c0.223,-0.347 0.587,-0.6 1.025,-0.67c0.818,-0.131 1.588,0.427 1.718,1.245c0.046,0.285 0.028,0.652 -0.196,1.045c-0.083,0.147 -0.23,0.342 -0.442,0.536c-0.27,0.246 -0.89,0.67 -0.978,0.729c-3.02,2.455 -6.181,4.74 -9.27,7.107c-11.233,8.61 -22.29,17.48 -33.689,25.869c-0.667,0.49 -1.607,0.347 -2.097,-0.319c-0.491,-0.667 -0.348,-1.607 0.319,-2.098c11.384,-8.376 22.424,-17.235 33.642,-25.833c3.076,-2.357 6.225,-4.631 9.231,-7.076c0.063,-0.051 0.547,-0.399 0.737,-0.535Z"/><path d="M299.354,189.588c0.255,0.302 0.39,0.704 0.344,1.127c-0.089,0.823 -0.829,1.419 -1.652,1.33c-0.307,-0.033 -0.714,-0.162 -1.065,-0.584c-0.135,-0.163 -0.324,-0.491 -0.477,-0.901c-0.185,-0.495 -0.365,-1.173 -0.399,-1.27c-1.523,-4.283 -3.137,-8.532 -4.72,-12.794c-5.274,-14.194 -10.632,-28.353 -16.126,-42.463c-0.301,-0.772 0.082,-1.642 0.853,-1.942c0.772,-0.301 1.642,0.082 1.942,0.853c5.5,14.125 10.864,28.298 16.143,42.508c1.588,4.274 3.207,8.537 4.734,12.834c0.032,0.088 0.327,1.004 0.423,1.302Z"/><g><path d="M319.145,171.579c-0.213,-0.052 -1.375,-0.336 -2.052,-0.49c-1.492,-0.338 -2.99,-0.645 -4.487,-0.954c-4.428,-0.915 -8.873,-1.715 -13.322,-2.513c-13.609,-2.44 -27.362,-4.018 -40.911,-6.79c-0.811,-0.166 -1.335,-0.959 -1.169,-1.77c0.166,-0.811 0.959,-1.335 1.77,-1.169c13.526,2.767 27.255,4.341 40.839,6.776c4.475,0.802 8.946,1.608 13.399,2.528c1.517,0.313 3.034,0.624 4.544,0.966c0.801,0.182 2.068,0.49 2.233,0.536c0.406,0.114 0.581,0.304 0.608,0.328c0.421,0.374 0.491,0.782 0.503,1.058c0.021,0.51 -0.139,1.044 -0.8,1.391c-0.056,0.03 -0.363,0.249 -0.949,0.152c-0.071,-0.011 -0.14,-0.028 -0.206,-0.049Zm-0.761,-0.547c-0.102,-0.14 -0.18,-0.297 -0.229,-0.464c0.04,0.146 0.109,0.305 0.229,0.464Zm0.152,-1.945c0.33,-0.329 0.809,-0.5 1.304,-0.419c-0.638,-0.105 -1.046,0.115 -1.304,0.419Z"/><path d="M318.885,169.373c0.107,-0.162 0.252,-0.32 0.443,-0.47c0.53,-0.417 2.075,-0.96 2.223,-1c2.183,-0.585 4.76,-0.558 6.694,0.773c1.687,1.161 1.98,2.799 1.503,4.074c-0.463,1.241 -1.75,2.293 -3.66,2.228c-1.482,-0.051 -2.78,-0.588 -4,-1.317c-1.001,-0.598 -1.944,-1.332 -2.929,-1.916c-0.712,-0.422 -0.947,-1.343 -0.525,-2.055c0.07,-0.12 0.155,-0.226 0.251,-0.317Zm4.062,1.284c0.225,0.148 0.451,0.292 0.681,0.43c0.786,0.469 1.608,0.86 2.563,0.892c0.355,0.013 0.661,-0.047 0.747,-0.278c0.074,-0.199 -0.13,-0.372 -0.394,-0.553c-1.035,-0.713 -2.375,-0.729 -3.597,-0.491Z"/><path d="M258.344,160.323c-0.189,0.26 -0.462,0.461 -0.794,0.557c-1.616,0.469 -4.059,0.788 -6.091,0.347c-1.641,-0.357 -3.021,-1.194 -3.777,-2.623c-0.785,-1.482 -0.598,-2.57 -0.13,-3.322c0.455,-0.733 1.319,-1.257 2.424,-1.45c1.583,-0.278 3.684,0.12 4.676,0.652c1.528,0.82 2.619,2.315 3.967,3.169c0.699,0.443 0.907,1.37 0.463,2.07c-0.181,0.286 -0.443,0.49 -0.738,0.6Zm-3.455,-1.955c-0.509,-0.467 -1.044,-0.912 -1.655,-1.24c-0.468,-0.251 -1.361,-0.41 -2.175,-0.393c-0.276,0.006 -0.652,0.094 -0.856,0.147c0.032,0.097 0.078,0.219 0.13,0.319c0.341,0.644 1.022,0.933 1.763,1.094c0.888,0.193 1.879,0.183 2.793,0.073Z"/><path d="M314.698,164.596c0.199,-0.804 1.013,-1.295 1.817,-1.096c0.803,0.199 1.294,1.012 1.095,1.816c-0.672,2.717 -0.853,5.582 -1.421,8.327c-0.168,0.811 -0.962,1.333 -1.773,1.165c-0.81,-0.168 -1.332,-0.962 -1.165,-1.773c0.576,-2.782 0.766,-5.686 1.447,-8.439Z"/><path d="M265.864,156.531c-0.015,0.212 -0.038,0.517 -0.053,0.64c-0.076,0.618 -0.179,1.233 -0.265,1.85c-0.238,1.704 -0.473,3.409 -0.723,5.111c-0.121,0.819 -0.884,1.386 -1.703,1.265c-0.819,-0.12 -1.386,-0.883 -1.265,-1.702c0.249,-1.695 0.483,-3.392 0.72,-5.089c0.084,-0.602 0.184,-1.202 0.259,-1.805c0.04,-0.32 0.116,-1.146 0.158,-1.262c0.318,-0.898 1.036,-0.996 1.369,-1.007c0.184,-0.007 1.345,-0.034 1.552,1.334c0.035,0.23 0.015,0.456 -0.049,0.665Z"/></g><path d="M294.088,130.817c-0.095,-0.401 -0.024,-0.84 0.231,-1.204c0.476,-0.678 1.412,-0.842 2.09,-0.367c0.273,0.192 0.654,0.586 0.691,1.322c0.044,0.87 -0.988,4.335 -1.073,4.682c-1.134,4.629 -2.162,9.283 -3.232,13.927c-4.064,17.645 -7.506,35.413 -10.894,53.197c-0.155,0.813 -0.941,1.348 -1.754,1.193c-0.814,-0.155 -1.348,-0.941 -1.193,-1.755c3.395,-17.82 6.845,-35.627 10.918,-53.308c1.073,-4.658 2.104,-9.325 3.241,-13.968c0.054,-0.22 0.556,-1.816 0.838,-3.025c0.057,-0.245 0.111,-0.543 0.137,-0.694Z"/><path d="M302.731,186.336c0.107,0.016 0.612,0.093 0.728,0.127c0.179,0.053 0.31,0.122 0.399,0.178c0.556,0.346 0.69,0.823 0.713,1.19c0.019,0.3 -0.041,0.612 -0.244,0.921c-0.096,0.147 -0.306,0.471 -0.877,0.639c-0.364,0.108 -0.736,0.071 -1.056,-0.078c-0.223,-0.038 -0.507,-0.092 -0.625,-0.134c-0.507,-0.185 -1.008,-0.387 -1.516,-0.571c-0.588,-0.212 -1.654,-0.787 -2.641,-1.13c-0.1,-0.035 -0.223,-0.067 -0.342,-0.095c-0.08,0.254 -0.166,0.529 -0.198,0.621c-0.605,1.783 -1.234,3.561 -1.797,5.359c-0.247,0.79 -1.09,1.231 -1.88,0.983c-0.79,-0.247 -1.23,-1.09 -0.983,-1.88c0.57,-1.82 1.206,-3.621 1.82,-5.427c0.105,-0.31 0.369,-1.328 0.695,-1.817c0.277,-0.415 0.627,-0.657 0.948,-0.773c0.552,-0.2 1.3,-0.205 2.122,0.011c1.155,0.304 2.559,1.067 3.277,1.327c0.488,0.177 0.97,0.371 1.457,0.549Zm-0.343,0.259c0.068,-0.032 0.139,-0.059 0.213,-0.081c-0.08,0.024 -0.15,0.051 -0.213,0.081Z"/><path d="M278.088,137.797c0.304,-0.273 0.534,-0.788 0.785,-1.295c0.415,-0.84 0.782,-1.723 1.102,-2.28c0.121,-0.211 0.792,-1.472 1.043,-1.724c0.435,-0.435 0.894,-0.482 1.166,-0.473c0.828,0.027 1.477,0.721 1.45,1.549c-0.013,0.4 -0.182,0.758 -0.447,1.018c-0.128,0.239 -0.545,1.011 -0.612,1.126c-0.365,0.635 -0.787,1.72 -1.283,2.638c-0.461,0.853 -1.007,1.572 -1.565,1.965c-0.565,0.399 -1.491,0.58 -2.591,0.429c-1.552,-0.215 -3.616,-1.05 -4.456,-1.264c-0.802,-0.205 -1.287,-1.023 -1.082,-1.825c0.205,-0.802 1.023,-1.287 1.825,-1.082c0.685,0.175 2.222,0.797 3.578,1.098c0.375,0.084 0.927,0.113 1.087,0.12Z"/><path d="M264.879,182.751c0.127,0.157 0.222,0.337 0.278,0.53c0.003,0.009 0.007,0.023 0.011,0.034c0.11,0.338 0.52,1.623 0.658,2.715c0.082,0.656 0.057,1.262 -0.069,1.695c-0.463,1.593 -1.374,2.448 -2.383,2.841c-0.992,0.387 -2.15,0.319 -3.256,-0.15c-1.935,-0.821 -3.648,-2.895 -3.768,-5.011c-0.289,-5.066 6.195,-6.722 8.529,-2.654Zm-2.495,1.707c-0.725,-1.617 -3.143,-1.047 -3.039,0.776c0.059,1.048 0.986,2.014 1.944,2.42c0.34,0.144 0.69,0.236 0.995,0.117c0.289,-0.113 0.46,-0.426 0.592,-0.883c0.059,-0.204 -0.023,-0.513 -0.081,-0.83c-0.113,-0.618 -0.3,-1.247 -0.411,-1.6Z"/><path d="M308.367,150.343c-0.431,-0.264 -0.719,-0.739 -0.719,-1.28c-0,-2.012 0.042,-3.579 1.95,-5.048c1.301,-1.002 3.059,-1.183 4.562,-0.656c1.547,0.541 2.794,1.805 3.062,3.543c0.409,2.657 -1.278,4.573 -3.402,5.219c-1.938,0.59 -4.19,0.091 -5.453,-1.778Zm2.265,-2.055c0.035,0.052 0.068,0.107 0.097,0.165c0.445,0.873 1.417,1.042 2.217,0.798c0.785,-0.238 1.462,-0.91 1.311,-1.892c-0.092,-0.593 -0.561,-0.984 -1.088,-1.169c-0.572,-0.2 -1.246,-0.179 -1.741,0.202c-0.726,0.559 -0.804,1.187 -0.796,1.896Z"/><path d="M283.708,199.154c-0.001,0 -0.002,-0 -0.004,-0c-0.534,-0.152 -1.068,-0.308 -1.602,-0.463c-1.121,-0.325 -2.241,-0.657 -3.365,-0.974c-0.797,-0.225 -1.261,-1.055 -1.036,-1.851c0.225,-0.797 1.054,-1.261 1.851,-1.037c1.13,0.319 2.257,0.654 3.385,0.981c0.529,0.153 1.058,0.307 1.588,0.458c0.019,0.005 0.242,0.079 0.281,0.095c1.228,0.501 0.895,1.763 0.85,1.889c-0.115,0.326 -0.341,0.689 -0.862,0.895c-0.363,0.144 -0.748,0.136 -1.086,0.007Z"/><path d="M284.166,194.37c-0.445,-0.126 -4.33,-1.226 -4.818,-1.389c-0.785,-0.263 -1.209,-1.114 -0.946,-1.899c0.263,-0.785 1.114,-1.209 1.899,-0.946c0.543,0.182 4.243,1.127 5.086,1.488c0.531,0.227 0.767,0.552 0.851,0.688c0.434,0.705 0.213,1.63 -0.492,2.063c-0.501,0.308 -1.112,0.286 -1.58,-0.005Z"/><path d="M297.354,133.8c0.231,0.071 0.448,0.198 0.629,0.382c0.581,0.59 0.574,1.54 -0.015,2.121c-0.232,0.229 -0.52,0.376 -0.862,0.421c-0.244,0.032 -0.899,-0.159 -0.899,-0.159c0,0 0.101,0.047 0.134,0.06c-1.151,-0.448 -2.417,-0.627 -3.625,-0.856c-0.814,-0.155 -1.349,-0.94 -1.194,-1.754c0.154,-0.813 0.939,-1.348 1.753,-1.194c1.36,0.258 2.778,0.485 4.079,0.979Z"/><path d="M296.19,139.209c0.289,0.07 0.559,0.226 0.77,0.466c0.547,0.622 0.486,1.571 -0.136,2.117c-0.15,0.132 -0.641,0.541 -1.448,0.311c-0.253,-0.072 -1.338,-0.589 -1.438,-0.628c-1.505,-0.574 -3.018,-1.157 -4.587,-1.528c-0.806,-0.191 -1.305,-1 -1.115,-1.805c0.191,-0.806 1,-1.305 1.805,-1.115c1.698,0.402 3.339,1.024 4.967,1.646c0.074,0.028 0.98,0.443 1.182,0.536Z"/><path d="M303.497,157.968c0.699,0.443 0.906,1.371 0.463,2.07c-0.444,0.699 -1.371,0.907 -2.07,0.463c-0.417,-0.264 -1,-0.887 -1.59,-1.718c-1.042,-1.467 -2.262,-3.654 -2.825,-4.476c-0.468,-0.683 -0.294,-1.617 0.389,-2.085c0.683,-0.468 1.617,-0.294 2.085,0.389c0.484,0.705 1.451,2.415 2.374,3.815c0.462,0.701 0.857,1.341 1.174,1.542Z"/><path d="M276.593,178.16c0.471,0.586 0.437,1.446 -0.104,1.993c-0.358,0.362 -0.731,0.449 -1.043,0.46c-0.305,0.01 -0.601,-0.063 -0.881,-0.243c-0.192,-0.124 -0.704,-1.001 -0.704,-1.001c0,0 0.077,0.168 0.113,0.226c-0.332,-0.52 -0.704,-1.014 -1.066,-1.513c-0.918,-1.268 -1.842,-2.532 -2.775,-3.789c-0.494,-0.664 -0.355,-1.605 0.31,-2.098c0.664,-0.494 1.605,-0.355 2.098,0.309c0.941,1.267 1.871,2.541 2.797,3.818c0.396,0.547 0.802,1.089 1.165,1.659c0.025,0.039 0.057,0.106 0.09,0.179Zm-1.326,-0.553c-0.291,0.015 -0.604,0.126 -0.911,0.437c0.254,-0.257 0.577,-0.403 0.911,-0.437Z"/><path d="M303.573,171.064c0.569,-0.072 1.155,0.189 1.471,0.712c0.37,0.612 0.331,1.196 -0.142,1.752c-0.087,0.102 -0.377,0.462 -1.024,0.525c-0.225,0.022 -1.45,-0.018 -1.558,-0.027c-0.191,-0.016 -0.685,-0.115 -1.241,-0.214c0.5,1.23 1.097,2.714 1.227,3.105c0.26,0.786 -0.166,1.635 -0.951,1.896c-0.786,0.261 -1.636,-0.165 -1.897,-0.951c-0.245,-0.738 -1.845,-4.326 -2.033,-5.171c-0.192,-0.861 0.214,-1.367 0.38,-1.538c0.226,-0.234 0.73,-0.546 1.506,-0.553c0.915,-0.009 2.82,0.4 3.259,0.436c0.061,0.005 0.815,0.023 1.003,0.028Z"/><path d="M275.585,153.668c-0.407,-0.788 -0.944,-1.589 -1.21,-2.068c-0.086,-0.089 -0.509,-0.533 -0.646,-0.737c-0.199,-0.296 -0.292,-0.591 -0.32,-0.846c-0.066,-0.608 0.106,-1.178 0.793,-1.606c0.703,-0.437 1.629,-0.222 2.066,0.481c0.113,0.182 0.183,0.379 0.211,0.579c0.19,0.214 0.422,0.49 0.507,0.651c0.343,0.646 1.243,1.96 1.67,3.049c0.309,0.787 0.382,1.518 0.253,2.052c-0.131,0.544 -0.596,1.182 -1.607,1.409c-1.145,0.257 -3.823,-0.044 -4.369,-0.037c-0.828,0.01 -1.508,-0.654 -1.518,-1.482c-0.01,-0.827 0.653,-1.508 1.481,-1.518c0.293,-0.004 1.687,0.04 2.689,0.073Zm0.381,-2.84c-0.055,0.047 -0.115,0.09 -0.179,0.13c0.066,-0.041 0.126,-0.085 0.179,-0.13Z"/></g><path d="M325.247,222.047c0.268,-0.427 0.744,-0.71 1.284,-0.705c0.354,0.003 0.627,0.117 0.843,0.267c0.278,0.192 0.491,0.462 0.594,0.84c0.036,0.132 0.201,0.647 -0.223,1.268c-0.133,0.195 -1.026,1.215 -1.752,2.03c-0.735,0.825 -1.568,1.86 -2.541,2.584c-0.841,0.624 -1.78,1.034 -2.823,1.077c-1.687,0.069 -2.763,-0.908 -3.368,-2.431c-0.571,-1.438 -0.634,-3.476 -0.796,-4.559c-0.123,-0.819 0.442,-1.583 1.261,-1.706c0.819,-0.123 1.583,0.442 1.706,1.261c0.12,0.8 0.148,2.193 0.451,3.371c0.066,0.261 0.147,0.509 0.256,0.726c0.085,0.169 0.164,0.349 0.367,0.34c0.577,-0.023 1.051,-0.371 1.492,-0.761c0.66,-0.583 1.23,-1.309 1.756,-1.898c0.526,-0.591 1.35,-1.539 1.493,-1.704Zm-0.21,0.56c-0.067,0.377 0.023,0.665 0.121,0.867c-0.091,-0.196 -0.141,-0.415 -0.139,-0.645c0.001,-0.075 0.007,-0.149 0.018,-0.222Zm0.232,1.064c0.25,0.389 0.633,0.666 1.238,0.671c-0.517,-0.005 -0.971,-0.27 -1.238,-0.671Z"/><path d="M309.896,226.564c-0.116,-0.551 -0.806,-3.825 -0.89,-4.124c-0.24,-0.859 -0.497,-1.73 -0.995,-2.48c-0.196,-0.294 -0.414,-0.655 -0.736,-0.82c-0.049,0.02 -0.145,0.061 -0.202,0.097c-0.241,0.148 -0.477,0.363 -0.712,0.609c-1.169,1.221 -2.205,3.117 -2.688,3.863c-0.45,0.695 -1.38,0.893 -2.074,0.443c-0.695,-0.45 -0.894,-1.379 -0.444,-2.074c0.647,-0.999 2.215,-3.752 3.818,-5.024c1.127,-0.896 2.319,-1.156 3.384,-0.716c0.893,0.369 1.633,1.181 2.152,1.961c0.673,1.012 1.061,2.172 1.386,3.333c0.106,0.376 0.974,4.109 1.013,4.85c0.078,1.457 -1.2,1.702 -1.53,1.699c-0.827,-0.007 -1.494,-0.685 -1.486,-1.513c-0,-0.035 0.001,-0.07 0.004,-0.104Zm0.464,-0.972c0.272,-0.258 0.641,-0.414 1.045,-0.411c-0.383,-0.003 -0.743,0.111 -1.045,0.411Z"/><path d="M298.317,215.614c0.089,-0.116 0.197,-0.221 0.323,-0.31c0.753,-0.532 1.36,-0.208 1.548,-0.112c0.458,0.234 0.929,0.668 0.804,1.548c-0.006,0.04 -0.018,0.373 -0.353,0.775c-0.155,0.186 -1.122,1.255 -1.845,1.867c-1.409,1.193 -3.05,2.313 -4.953,2.456c-2.402,0.18 -3.984,-0.909 -5.128,-2.542c-0.915,-1.307 -1.512,-3.015 -2.082,-4.512c-0.294,-0.773 0.095,-1.641 0.868,-1.935c0.774,-0.295 1.641,0.094 1.936,0.868c0.485,1.274 0.956,2.745 1.736,3.858c0.551,0.786 1.289,1.358 2.445,1.271c1.268,-0.095 2.301,-0.959 3.239,-1.753c0.531,-0.45 1.331,-1.333 1.462,-1.479Zm1.601,2.358c0.109,-0.03 0.268,-0.087 0.453,-0.218c-0.142,0.1 -0.295,0.172 -0.453,0.218Z"/><path d="M282.364,219.876c-0.039,-0.17 -0.094,-0.417 -0.117,-0.52c-0.155,-0.683 -0.341,-1.354 -0.556,-2.02c-0.552,-1.714 -1.122,-3.732 -2.465,-5.007c-0.197,-0.187 -0.419,-0.128 -0.632,-0.024c-0.237,0.115 -0.469,0.281 -0.696,0.469c-1.006,0.831 -1.895,2.066 -2.443,2.723c-0.531,0.635 -1.478,0.721 -2.113,0.191c-0.636,-0.531 -0.721,-1.478 -0.191,-2.113c0.78,-0.935 2.192,-2.81 3.668,-3.714c1.505,-0.921 3.068,-1.04 4.472,0.292c1.699,1.612 2.557,4.095 3.255,6.262c0.243,0.753 0.453,1.51 0.627,2.281c0.064,0.283 0.213,1.021 0.215,1.129c0.023,1.09 -0.804,1.395 -1.062,1.474c-0.126,0.039 -1.359,0.392 -1.867,-0.953c-0.058,-0.155 -0.089,-0.313 -0.095,-0.47Z"/><path d="M273.45,210.933c-0.232,0.257 -1.62,1.795 -2.596,2.814c-0.93,0.97 -1.962,1.829 -3.001,2.256c-0.923,0.38 -1.865,0.457 -2.799,0.143c-1.24,-0.416 -2.613,-1.645 -3.753,-4.467c-0.425,-1.053 -0.796,-2.126 -1.149,-3.204c-0.257,-0.787 0.172,-1.635 0.959,-1.892c0.787,-0.258 1.635,0.172 1.892,0.959c0.332,1.014 0.681,2.023 1.08,3.014c0.655,1.622 1.212,2.507 1.925,2.746c0.332,0.111 0.655,-0.027 0.979,-0.207c0.595,-0.329 1.162,-0.862 1.7,-1.424c1.039,-1.084 1.965,-2.284 2.668,-2.907c0.658,-0.585 1.297,-0.795 1.763,-0.79c0.828,0.009 1.492,0.689 1.483,1.517c-0.008,0.701 -0.498,1.286 -1.151,1.442Z"/><path d="M256.513,212.809c-0.033,-0.104 -0.071,-0.225 -0.089,-0.279c-0.216,-0.637 -0.455,-1.267 -0.712,-1.888c-0.606,-1.463 -1.361,-2.908 -2.742,-3.765c-0.795,-0.493 -1.524,0.027 -2.198,0.621c-1.111,0.979 -2.046,2.399 -2.702,3.306c-0.486,0.671 -1.424,0.821 -2.095,0.336c-0.671,-0.486 -0.821,-1.424 -0.336,-2.095c0.933,-1.288 2.393,-3.402 4.055,-4.495c1.511,-0.993 3.168,-1.271 4.858,-0.222c1.925,1.195 3.086,3.127 3.931,5.166c0.283,0.681 0.546,1.374 0.782,2.073c0.099,0.29 0.276,1.058 0.273,1.176c-0.021,0.9 -0.612,1.229 -0.933,1.361c-0.187,0.077 -1.231,0.498 -1.902,-0.681c-0.11,-0.195 -0.173,-0.404 -0.19,-0.614Z"/><path d="M246.098,204.413c-0.118,0.196 -0.267,0.438 -0.345,0.537c-0.369,0.466 -0.752,0.923 -1.166,1.351c-1.47,1.524 -3.397,2.86 -5.607,2.954c-1.817,0.077 -3.283,-1.07 -4.315,-2.865c-1.157,-2.011 -1.782,-4.848 -2.149,-6.308c-0.202,-0.803 0.286,-1.619 1.089,-1.82c0.803,-0.202 1.619,0.286 1.82,1.089c0.322,1.28 0.827,3.781 1.841,5.544c0.417,0.725 0.853,1.394 1.587,1.363c1.435,-0.061 2.62,-1.051 3.575,-2.04c0.345,-0.358 0.664,-0.74 0.972,-1.129c0.113,-0.142 0.285,-0.502 0.398,-0.666c0.204,-0.293 0.425,-0.454 0.553,-0.53c0.726,-0.427 1.319,-0.229 1.767,0.159c0.181,0.157 0.55,0.495 0.529,1.242c-0.012,0.452 -0.224,0.853 -0.549,1.119Z"/><path d="M327.767,228.614c0.081,-0.057 0.543,-0.391 0.825,-0.671c0.628,-0.626 1.297,-1.427 1.99,-2.143c0.759,-0.785 1.556,-1.467 2.341,-1.854c0.737,-0.364 1.483,-0.497 2.218,-0.371c0.716,0.123 1.452,0.491 2.15,1.28c0.727,0.82 1.474,2.213 2.145,4.437c0.355,1.176 0.608,2.382 0.786,3.597c0.12,0.819 -0.448,1.581 -1.267,1.701c-0.82,0.12 -1.582,-0.448 -1.702,-1.267c-0.156,-1.069 -0.377,-2.13 -0.689,-3.164c-0.425,-1.409 -0.851,-2.397 -1.308,-3.046c-0.223,-0.317 -0.393,-0.542 -0.624,-0.581c-0.199,-0.035 -0.381,0.091 -0.58,0.215c-0.446,0.276 -0.882,0.692 -1.314,1.139c-1.037,1.072 -2.039,2.309 -2.923,2.974c-0.65,0.489 -1.293,0.73 -1.868,0.748c-0.828,0.026 -1.521,-0.625 -1.547,-1.452c-0.025,-0.799 0.58,-1.472 1.367,-1.542Z"/><path d="M342.841,228.48c-0.037,-0.052 -0.071,-0.107 -0.102,-0.165c-0.39,-0.73 -0.113,-1.639 0.617,-2.029c0.24,-0.128 1.438,-0.53 2.103,0.708c0.336,0.627 1.544,4.035 1.651,4.304c0.45,1.135 0.906,1.999 1.402,2.578c0.261,0.304 0.49,0.531 0.777,0.548c0.315,0.019 0.612,-0.191 0.958,-0.481c0.612,-0.512 1.241,-1.304 1.914,-2.351c0.447,-0.697 1.376,-0.899 2.072,-0.452c0.697,0.448 0.899,1.377 0.452,2.073c-1.069,1.663 -2.102,2.799 -3.055,3.44c-0.869,0.584 -1.716,0.813 -2.52,0.765c-0.827,-0.049 -1.64,-0.389 -2.405,-1.099c-0.829,-0.768 -1.645,-2.055 -2.384,-3.914c-0.091,-0.229 -1.29,-3.42 -1.48,-3.925Zm0.735,0.548c0.454,0.168 0.854,0.085 1.193,-0.096c-0.382,0.204 -0.813,0.226 -1.193,0.096Z"/><path d="M365.128,206.588c1.134,-0.715 2.5,-1.294 3.801,-1.399c1.535,-0.124 2.995,0.335 4.087,1.725c1.587,2.02 1.074,4.308 -0.61,6.396c-1.947,2.415 -5.515,4.541 -7.105,5.27c-1.65,0.756 -3.384,1.323 -5.153,1.724c-0.115,0.026 -0.354,0.037 -0.565,0.041c-0.065,0.032 -0.131,0.058 -0.198,0.079c-0.198,0.312 -0.51,0.552 -0.896,0.65c-0.802,0.204 -1.619,-0.281 -1.824,-1.083c-0.518,-2.033 -2.024,-11.35 -0.444,-15.712c0.465,-1.284 1.191,-2.207 2.111,-2.701c0.963,-0.517 2.197,-0.636 3.756,0.02c1.463,0.616 2.273,1.83 2.692,3.218c0.175,0.582 0.278,1.192 0.348,1.772Zm-5.938,10.768c0.16,-0.002 0.316,0 0.387,0.002c1.535,-0.354 3.041,-0.848 4.474,-1.505c1.343,-0.616 4.375,-2.387 6.02,-4.426c0.714,-0.885 1.259,-1.804 0.586,-2.659c-0.524,-0.667 -1.297,-0.678 -2.04,-0.497c-1.062,0.26 -2.107,0.918 -2.821,1.541c-0.086,0.089 -0.466,0.478 -0.66,0.625c-0.22,0.167 -0.429,0.259 -0.575,0.303c-0.585,0.179 -1.037,0.012 -1.358,-0.221c-0.26,-0.187 -0.512,-0.478 -0.678,-0.918c-0.127,-0.338 -0.212,-0.878 -0.268,-1.533c-0.061,-0.71 -0.106,-1.621 -0.368,-2.445c-0.165,-0.522 -0.412,-1.027 -0.965,-1.26c-0.426,-0.179 -0.773,-0.27 -1.066,-0.185c-0.283,0.082 -0.452,0.341 -0.61,0.646c-0.302,0.579 -0.481,1.336 -0.599,2.188c-0.447,3.237 0.083,7.691 0.541,10.344Zm1.231,1.821c0.058,-0.28 0.019,-0.608 -0.222,-0.987c0.194,0.305 0.264,0.654 0.222,0.987Z"/><path d="M321.464,194.8c0.963,-1.23 2.376,-2.627 3.811,-3.295c1.777,-0.827 3.579,-0.745 5.012,1.055c1.368,1.719 1.348,3.882 0.325,6.157c-1.842,4.1 -7.149,8.667 -9.567,10.432c0.03,0.605 -0.311,1.193 -0.898,1.45c-0.759,0.331 -1.644,-0.016 -1.975,-0.775c-0.708,-1.621 -4.419,-9.717 -4.476,-14.154c-0.021,-1.65 0.466,-2.899 1.321,-3.604c0.647,-0.534 1.539,-0.843 2.768,-0.691c1.54,0.19 2.454,1.098 3.104,2.25c0.214,0.379 0.395,0.785 0.575,1.175Zm-1.58,11.471c1.989,-1.529 5.255,-4.389 7.148,-7.273c0.631,-0.962 1.11,-1.916 1.268,-2.819c0.111,-0.639 0.044,-1.243 -0.361,-1.751c-0.572,-0.719 -1.331,-0.315 -2.022,0.16c-1.185,0.813 -2.243,2.145 -2.725,2.976c-0.105,0.181 -0.512,0.755 -0.841,0.938c-0.428,0.239 -0.872,0.27 -1.305,0.123c-1.024,-0.347 -1.716,-1.293 -2.262,-2.474c-0.186,-0.403 -0.364,-0.832 -0.602,-1.21c-0.175,-0.278 -0.379,-0.541 -0.765,-0.589c-0.212,-0.026 -0.38,-0.064 -0.491,0.028c-0.129,0.107 -0.147,0.298 -0.182,0.508c-0.114,0.679 -0.028,1.543 0.149,2.501c0.537,2.89 1.964,6.487 2.991,8.882Z"/><path d="M242.952,175.378c0.294,-0.445 0.603,-0.91 0.941,-1.342c0.851,-1.087 1.89,-1.956 3.17,-2.235c0.901,-0.196 1.942,-0.125 3.155,0.441c1.902,0.889 2.47,2.564 2.071,4.633c-0.641,3.326 -4.34,7.944 -5.611,9.324c-1.068,1.161 -2.27,2.331 -3.605,3.219c-0.075,0.433 -0.339,0.829 -0.753,1.057c-0.726,0.4 -1.639,0.135 -2.038,-0.59c-0.939,-1.705 -5.896,-9.346 -6.33,-13.883c-0.159,-1.661 0.242,-2.998 1.159,-3.864c0.629,-0.593 1.531,-1.011 2.813,-1.076c1.476,-0.074 2.653,0.58 3.55,1.627c0.646,0.754 1.132,1.734 1.478,2.689Zm-1.122,11.251c0.969,-0.712 1.844,-1.595 2.641,-2.462c0.943,-1.025 3.482,-4.079 4.534,-6.748c0.228,-0.578 0.387,-1.128 0.397,-1.623c0.008,-0.359 -0.098,-0.669 -0.454,-0.836c-1.663,-0.777 -2.483,0.569 -3.227,1.669c-0.49,0.725 -0.936,1.444 -1.384,1.965c-0.48,0.558 -0.996,0.931 -1.513,1.106c-0.629,0.213 -1.267,0.1 -1.776,-0.537c-0.262,-0.328 -0.505,-1.304 -0.535,-1.441c-0.175,-0.799 -0.486,-1.851 -1.024,-2.685c-0.342,-0.529 -0.761,-1.011 -1.415,-0.979c-0.44,0.022 -0.767,0.083 -0.95,0.313c-0.208,0.261 -0.221,0.638 -0.205,1.066c0.023,0.604 0.169,1.287 0.387,2.014c0.931,3.101 3.133,6.869 4.524,9.178Zm0.803,0.733c0.108,0.089 0.206,0.195 0.289,0.318c0.031,0.046 0.059,0.093 0.085,0.141c-0.088,-0.176 -0.211,-0.331 -0.374,-0.459Zm0.546,1.109c0.006,0.191 -0.024,0.381 -0.089,0.56c0.002,0.014 0.003,0.028 0.003,0.042c0.096,-0.24 0.1,-0.457 0.086,-0.602Z"/><path d="M324.15,129.011c0.058,0.013 0.115,0.03 0.173,0.05c1.541,0.552 0.786,2.194 0.723,2.283c-0.022,0.032 -0.315,0.497 -0.911,0.613c-2.725,2.076 -5.146,2.298 -7.092,1.571c-2.806,-1.047 -4.78,-4.348 -5.282,-7.933c-0.562,-4.02 0.746,-8.202 4.02,-9.744c0.35,-0.165 0.689,-0.184 1.012,-0.11c0.315,0.072 0.66,0.243 0.938,0.63c0.128,0.178 0.3,0.538 0.384,1.041c0.134,0.8 0.15,2.367 0.18,2.586c0.238,1.76 1.089,3.263 1.981,4.771c0.746,1.261 1.505,2.62 2.603,3.613c0.383,0.346 1.106,0.579 1.271,0.629Zm-3.383,1.504c-1.268,-1.183 -2.199,-2.741 -3.073,-4.218c-1.097,-1.855 -2.079,-3.732 -2.372,-5.896c-0.003,-0.018 -0.006,-0.048 -0.009,-0.089c-0.692,1.35 -0.82,3.157 -0.581,4.867c0.341,2.437 1.453,4.827 3.36,5.539c0.786,0.294 1.678,0.24 2.675,-0.203Z"/><path d="M282.725,109.942c0.335,0.11 0.719,0.364 0.94,0.935c0.168,0.437 0.815,2.876 0.832,3.097c0.174,2.329 -0.489,4.652 -1.573,6.697c-2.598,4.907 -9.718,6.895 -13.888,2.48c-0.597,-0.632 -0.784,-1.559 0.062,-2.565c0.832,-0.988 3.863,-2.554 4.342,-2.878c1.559,-1.052 3.579,-2.572 4.939,-4.392c0.775,-1.037 1.343,-2.167 1.346,-3.373c0.002,-0.828 0.676,-1.499 1.503,-1.497c0.826,0.002 1.494,0.672 1.497,1.496Zm-0.624,2.912c-0.001,0.001 -0.001,0.001 -0.001,0.001c0.047,0.004 0.093,0.006 0.138,0.005c-0.046,0 -0.092,-0.002 -0.137,-0.006Zm0.366,-0.012c0.362,-0.053 0.71,-0.223 0.986,-0.607c-0.244,0.339 -0.604,0.547 -0.986,0.607Zm-1.005,1.261c-0.206,0.343 -0.434,0.68 -0.68,1.009c-1.566,2.095 -3.868,3.871 -5.663,5.083c-0.271,0.183 -1.419,0.772 -2.466,1.413c-0.139,0.085 -0.294,0.19 -0.446,0.298c2.747,1.715 6.557,0.211 8.066,-2.639c0.809,-1.527 1.348,-3.25 1.238,-4.989l-0.049,-0.175Z"/><path d="M336.017,151.753c0.797,-0.224 1.626,0.24 1.85,1.037c0.225,0.797 -0.239,1.626 -1.036,1.851c-1.923,0.542 -3.853,-0.504 -5.096,-2.441c-1.64,-2.556 -1.903,-6.487 0.268,-8.573c0.597,-0.573 1.547,-0.554 2.121,0.043c0.573,0.597 0.554,1.547 -0.043,2.121c-0.542,0.52 -0.701,1.29 -0.675,2.071c0.032,0.952 0.355,1.94 0.854,2.718c0.465,0.725 1.038,1.376 1.757,1.173Z"/><path d="M260.422,131.964c-0.078,-0.16 -0.249,-0.52 -0.292,-0.679c-0.076,-0.28 -0.078,-0.533 -0.044,-0.745c0.101,-0.617 0.425,-1.13 1.252,-1.319c0.807,-0.184 1.612,0.322 1.796,1.129c0.035,0.154 0.045,0.307 0.033,0.456c0.101,0.248 0.212,0.55 0.228,0.715c0.131,1.357 -0.102,2.685 -0.514,3.975c-1.774,5.56 -7.607,8.605 -12.688,4.828c-0.665,-0.494 -0.803,-1.434 -0.309,-2.099c0.494,-0.664 1.434,-0.803 2.099,-0.309c3.257,2.422 6.903,0.233 8.04,-3.332c0.272,-0.852 0.456,-1.726 0.399,-2.62Zm2.049,-0.011c-0.139,0.088 -0.296,0.154 -0.466,0.193c0.187,-0.042 0.34,-0.109 0.466,-0.193Z"/><g><path d="M328.019,245.677c1.164,3.648 0.016,6.342 -1.861,7.865c-3.038,2.466 -8.325,1.945 -10.448,-2.801c-1.405,-3.141 0.566,-6.175 3.589,-7.657c2.94,-1.441 6.651,-1.252 8.494,1.301c0.28,0.388 0.348,0.865 0.226,1.292Zm-3.119,-0.014c-1.109,-0.858 -2.87,-0.576 -4.28,0.115c-1.545,0.758 -2.89,2.132 -2.172,3.738c1.19,2.659 4.117,3.078 5.82,1.696c1.179,-0.957 1.627,-2.732 0.728,-5.092c-0.057,-0.15 -0.088,-0.305 -0.096,-0.457Z"/><path d="M326.885,260.769c-0.444,0.182 -1.163,0.464 -1.471,0.51c-1.161,0.172 -2.355,0.17 -3.522,0.07c-3.731,-0.322 -7.331,-1.561 -9.615,-4.69c-0.488,-0.669 -0.341,-1.608 0.327,-2.096c0.669,-0.488 1.608,-0.342 2.096,0.327c1.754,2.404 4.584,3.223 7.449,3.47c0.936,0.08 1.895,0.089 2.826,-0.049c0.229,-0.034 0.654,-0.268 0.942,-0.391c0.378,-0.162 0.686,-0.233 0.809,-0.245c0.793,-0.073 1.198,0.356 1.4,0.65c0.14,0.205 0.718,1.116 -0.291,2.048c-0.27,0.25 -0.609,0.381 -0.95,0.396Zm-1.304,-2.347c0.062,-0.091 0.135,-0.176 0.219,-0.253c-0.092,0.085 -0.164,0.17 -0.219,0.253Z"/></g><g><path d="M292.701,300.153c0.91,-0.918 2.459,-1.845 3.775,-1.944c0.745,-0.056 1.433,0.111 2.006,0.509c0.544,0.378 1.017,0.978 1.255,1.932c0.565,2.258 -0.206,4.132 -1.588,5.731c-1.461,1.691 -3.705,3.019 -5.072,4.26c0.02,0.582 -0.302,1.148 -0.862,1.411c-0.749,0.352 -1.643,0.029 -1.995,-0.721c-0.749,-1.597 -2.734,-4.373 -3.703,-6.943c-0.852,-2.263 -0.887,-4.399 0.353,-5.888c0.8,-0.961 1.625,-1.256 2.347,-1.263c0.748,-0.007 1.484,0.317 2.131,0.946c0.459,0.446 0.943,1.219 1.353,1.97Zm-0.986,7.74c1.044,-0.823 2.328,-1.702 3.417,-2.708c1.127,-1.041 2.092,-2.219 1.695,-3.807c-0.014,-0.057 -0.042,-0.127 -0.062,-0.172c-0.075,0.004 -0.221,0.016 -0.313,0.041c-0.285,0.077 -0.574,0.22 -0.84,0.386c-0.367,0.228 -0.697,0.5 -0.895,0.755c-0.063,0.107 -0.781,1.323 -0.922,1.533c-0.678,1 -1.723,0.633 -1.824,0.593c-0.183,-0.072 -0.446,-0.212 -0.688,-0.526c-0.189,-0.245 -0.609,-1.283 -1.156,-2.343c-0.2,-0.387 -0.424,-0.778 -0.677,-1.095c-0.054,-0.067 -0.132,-0.146 -0.2,-0.21c-0.027,0.026 -0.053,0.054 -0.074,0.079c-0.232,0.279 -0.295,0.627 -0.29,1.002c0.009,0.594 0.187,1.241 0.439,1.909c0.585,1.554 1.561,3.182 2.39,4.563Z"/><path d="M265.839,295.334c0.74,-0.521 1.661,-1.104 2.435,-1.4c1.638,-0.625 3.21,-0.479 4.28,0.914c0.648,0.844 0.736,1.865 0.417,2.904c-0.308,1.003 -1.046,2.03 -1.527,2.654c-1.8,2.332 -4.893,5.404 -7.919,6.364c-0.178,0.383 -0.516,0.69 -0.954,0.813c-0.797,0.225 -1.626,-0.24 -1.851,-1.037c-0.917,-3.254 -2.343,-6.537 -1.927,-9.994c0.121,-0.999 0.554,-2.43 1.331,-3.279c0.762,-0.834 1.784,-1.268 3.12,-0.855c1.043,0.321 1.77,1.11 2.248,2.08c0.133,0.271 0.247,0.555 0.347,0.836Zm-2.841,8.45c2.359,-0.887 4.66,-3.383 6.071,-5.211c0.273,-0.355 0.69,-0.888 0.94,-1.454c0.051,-0.115 0.095,-0.231 0.121,-0.347c0.008,-0.035 0.013,-0.093 0.016,-0.128c-0.072,-0.064 -0.168,-0.06 -0.263,-0.05c-0.157,0.017 -0.318,0.063 -0.482,0.122c-0.801,0.29 -1.613,0.881 -2.218,1.343c-0.73,0.557 -1.296,0.958 -1.454,1.017c-0.517,0.192 -0.908,0.078 -1.149,-0.027c-0.269,-0.117 -0.543,-0.316 -0.774,-0.646c-0.168,-0.238 -0.339,-0.627 -0.491,-1.113c-0.137,-0.437 -0.28,-1.004 -0.531,-1.5c-0.106,-0.207 -0.199,-0.436 -0.424,-0.506c-0.001,0 -0.002,-0 -0.003,-0.001c-0.031,0.033 -0.076,0.083 -0.101,0.119c-0.056,0.082 -0.104,0.173 -0.148,0.266c-0.191,0.41 -0.293,0.881 -0.336,1.242c-0.286,2.372 0.486,4.635 1.226,6.874Z"/><path d="M241.191,285.873c0.781,-0.329 1.802,-0.717 2.546,-0.847c1.217,-0.214 2.222,0.088 2.821,0.782c0.397,0.46 0.701,1.16 0.609,2.238c-0.089,1.062 -0.606,2.124 -1.369,3.09c-0.928,1.174 -2.219,2.218 -3.158,2.955c-0.614,0.482 -1.256,0.918 -1.935,1.302c-0.236,0.134 -0.635,0.509 -0.891,0.651c-0.225,0.125 -0.439,0.19 -0.625,0.221c-0.163,0.296 -0.427,0.539 -0.766,0.672c-0.771,0.301 -1.642,-0.08 -1.944,-0.85c-0.603,-1.541 -2.466,-6.837 -2.07,-9.952c0.261,-2.054 1.314,-3.371 3.329,-3.483c2.088,-0.117 2.98,1.228 3.366,2.828c0.029,0.119 0.058,0.254 0.087,0.393Zm-2.573,7.309c0.018,-0.002 0.036,-0.005 0.054,-0.007c0.198,-0.15 0.435,-0.325 0.557,-0.394c0.547,-0.309 1.064,-0.662 1.559,-1.05c0.785,-0.616 1.88,-1.473 2.656,-2.455c0.311,-0.395 0.584,-0.801 0.691,-1.227c-0.353,0.083 -0.846,0.21 -1.174,0.343c-0.916,0.369 -1.76,0.786 -2.153,0.896c-0.599,0.169 -1.029,0.03 -1.252,-0.078c-0.307,-0.149 -0.593,-0.394 -0.808,-0.778c-0.16,-0.286 -0.293,-0.744 -0.386,-1.294c-0.063,-0.38 -0.116,-0.837 -0.256,-1.24c-0.038,-0.11 -0.05,-0.259 -0.2,-0.251c-0.423,0.024 -0.466,0.435 -0.521,0.866c-0.089,0.7 -0.016,1.539 0.126,2.409c0.243,1.483 0.7,3.045 1.107,4.26Z"/><path d="M292.225,292.687c0.097,-0.598 0.145,-1.207 0.228,-1.807c0.176,-1.286 0.391,-2.564 0.631,-3.839c0.76,-4.034 1.632,-8.051 2.757,-12c0.226,-0.796 1.057,-1.258 1.853,-1.032c0.796,0.227 1.259,1.058 1.032,1.854c-1.099,3.861 -1.951,7.789 -2.694,11.733c-0.231,1.227 -0.438,2.455 -0.607,3.692c-0.094,0.683 -0.149,1.377 -0.268,2.057c0.002,-0.014 0.013,-0.095 0.013,-0.095c0,0 -0.149,0.565 -0.229,0.694c-0.39,0.626 -0.952,0.749 -1.422,0.704c-0.275,-0.027 -0.898,-0.08 -1.25,-0.93c-0.142,-0.341 -0.148,-0.705 -0.044,-1.031Zm2.395,-0.691c0.179,0.15 0.324,0.343 0.42,0.573c-0.123,-0.296 -0.284,-0.466 -0.42,-0.573Z"/><path d="M299.31,279.184c0.816,-0.143 1.593,0.403 1.736,1.219c0.143,0.815 -0.404,1.593 -1.219,1.736c-0.689,0.12 -1.603,0.049 -2.571,-0.119c-1.089,-0.189 -2.27,-0.505 -3.12,-0.533c-0.827,-0.026 -1.477,-0.72 -1.45,-1.547c0.026,-0.828 0.72,-1.478 1.547,-1.451c0.82,0.027 1.91,0.263 2.98,0.472c0.783,0.153 1.549,0.318 2.097,0.223Z"/><path d="M298.649,275.392c-0.119,0.155 -0.27,0.288 -0.451,0.39c-0,0 -0.001,0 -0.001,0.001c-0.184,0.246 -0.444,0.438 -0.76,0.536c-0.791,0.244 -1.631,-0.2 -1.875,-0.991c-0.41,-1.326 -1.104,-4.9 -0.541,-7.203c0.267,-1.092 0.804,-1.944 1.566,-2.45c0.78,-0.518 1.848,-0.752 3.309,-0.293c0.878,0.276 1.462,0.753 1.845,1.323c0.527,0.782 0.681,1.799 0.476,2.909c-0.374,2.03 -2.024,4.434 -2.994,5.31c-0.033,0.029 -0.423,0.346 -0.574,0.468Zm-0.743,-3.494c0.444,-0.605 0.905,-1.402 1.183,-2.185c0.11,-0.309 0.191,-0.615 0.213,-0.903c0.018,-0.247 -0.028,-0.479 -0.306,-0.566c-0.331,-0.104 -0.573,-0.188 -0.749,-0.07c-0.113,0.074 -0.163,0.212 -0.218,0.356c-0.127,0.333 -0.187,0.731 -0.215,1.155c-0.048,0.711 0,1.485 0.092,2.213Z"/><path d="M268.213,291.17c-0.119,0.469 -0.461,0.872 -0.95,1.046c-0.416,0.148 -0.783,0.102 -1.104,-0.038c-0.306,-0.134 -0.661,-0.381 -0.832,-0.927c-0.013,-0.042 -0.154,-0.343 -0.01,-0.866c0.033,-0.119 0.246,-0.792 0.695,-2.181c0.468,-1.446 0.904,-2.902 1.35,-4.355c1.282,-4.167 2.541,-8.343 3.723,-12.54c0.224,-0.797 1.053,-1.262 1.85,-1.037c0.797,0.224 1.262,1.053 1.037,1.85c-1.188,4.22 -2.454,8.419 -3.742,12.609c-0.451,1.466 -0.891,2.936 -1.363,4.396c-0.391,1.208 -0.62,1.936 -0.654,2.043Z"/><path d="M273.486,272.115c-0.104,0.594 -0.562,1.091 -1.189,1.214c-0.812,0.16 -1.601,-0.37 -1.761,-1.182c-0.538,-2.742 -0.358,-5.873 1.35,-8.209c0.594,-0.811 2.119,-1.975 3.424,-2.191c0.67,-0.11 1.3,-0.015 1.837,0.284c0.531,0.297 1.011,0.799 1.283,1.653c0.356,1.117 0.13,2.411 -0.287,3.469c-0.148,0.377 -0.663,1.165 -1.364,2.001c-0.974,1.162 -2.3,2.44 -3.17,2.899c-0.041,0.022 -0.082,0.042 -0.123,0.062Zm-0.18,-3.694c0.422,-0.392 0.873,-0.835 1.174,-1.194c0.423,-0.505 0.782,-0.946 0.872,-1.174c0.153,-0.388 0.319,-0.842 0.263,-1.264c-0.193,0.077 -0.465,0.197 -0.628,0.309c-0.287,0.199 -0.541,0.422 -0.679,0.612c-0.586,0.8 -0.888,1.737 -1.002,2.711Z"/><path d="M274.953,276.55c0.751,-0.025 1.419,0.515 1.534,1.276c0.123,0.818 -0.441,1.583 -1.259,1.707c-0.466,0.07 -1.346,-0.105 -2.345,-0.585c-1.477,-0.709 -3.486,-2.027 -4.216,-2.363c-0.752,-0.347 -1.081,-1.238 -0.735,-1.99c0.347,-0.752 1.238,-1.082 1.99,-0.735c0.642,0.295 2.252,1.326 3.653,2.075c0.504,0.269 1.236,0.56 1.378,0.615Z"/><path d="M246.685,265.828c-0.116,-2.096 0.01,-5.866 1.182,-8.037c0.835,-1.548 2.112,-2.436 3.884,-2.258c0.991,0.1 1.809,0.732 2.248,1.595c1.019,2.003 0.667,3.797 -0.329,5.42c-1,1.627 -2.79,3.041 -3.953,4.294c-0.091,0.437 -0.375,0.813 -0.767,1.021c-0.424,0.779 -0.81,1.93 -1.193,3.179c-0.844,2.748 -1.569,5.957 -2.129,7.565c-0.114,0.327 -0.546,1.183 -0.885,2.001c-0.112,0.271 -0.236,0.668 -0.277,0.803c0.101,0.679 -0.276,1.361 -0.942,1.62c-0.772,0.299 -1.642,-0.085 -1.941,-0.857c-0.149,-0.384 -0.175,-1.101 0.094,-1.928c0.307,-0.941 0.974,-2.214 1.118,-2.625c0.648,-1.863 1.517,-5.89 2.54,-8.829c0.42,-1.206 0.882,-2.245 1.35,-2.964Zm3.008,-3.13c0.321,-0.327 0.632,-0.665 0.914,-1.014c0.755,-0.932 1.332,-1.959 0.732,-3.169c-0.263,0.011 -0.459,0.159 -0.617,0.365c-0.239,0.31 -0.412,0.714 -0.554,1.16c-0.258,0.81 -0.403,1.745 -0.475,2.658Zm1.667,-4.184c0.026,0.007 0.061,0.001 0.09,0.004c-0.031,-0.003 -0.061,-0.004 -0.09,-0.004Z"/><path d="M248.82,272.774c-0.022,-0.012 -0.039,-0.022 -0.045,-0.025c-2.25,-1.318 -4.876,-2.595 -7.4,-3.261c-0.8,-0.211 -1.278,-1.033 -1.067,-1.833c0.212,-0.801 1.033,-1.279 1.833,-1.068c2.777,0.734 5.674,2.123 8.15,3.573c0.065,0.038 0.436,0.248 0.619,0.418c0.249,0.229 0.385,0.483 0.454,0.685c0.13,0.381 0.106,0.74 -0.023,1.068c-0.304,0.77 -1.175,1.149 -1.946,0.846c-0.228,-0.09 -0.422,-0.23 -0.575,-0.403Z"/></g><path d="M319.033,287.471c0.099,0.158 0.17,0.337 0.204,0.531c0.24,1.336 -0.851,1.672 -1.035,1.729c-0.326,0.1 -1.009,0.23 -1.598,-0.477c-0.059,-0.072 -0.344,-0.63 -0.431,-0.857c-0.531,-1.403 -0.534,-3.112 -0.451,-4.583c0.122,-2.152 0.541,-4.722 1.639,-6.776c0.827,-1.546 2.026,-2.811 3.704,-3.516c0.764,-0.32 1.644,0.04 1.964,0.803c0.32,0.763 -0.04,1.643 -0.803,1.964c-1.303,0.546 -2.083,1.691 -2.595,2.978c-0.602,1.513 -0.83,3.237 -0.913,4.716c-0.061,1.074 -0.127,2.327 0.261,3.351c0.01,0.027 0.032,0.083 0.054,0.137Zm-2.772,0.832c0.001,0.066 0.008,0.142 0.023,0.228c-0.013,-0.077 -0.021,-0.153 -0.023,-0.228Z"/><path d="M325.285,285.898c0.111,0.21 0.174,0.449 0.174,0.702c-0.002,1.464 -1.231,1.604 -1.418,1.616c-0.316,0.022 -1.042,0.002 -1.462,-0.855c-0.11,-0.224 -0.435,-1.881 -0.429,-2.53c0.016,-1.635 0.362,-3.485 0.889,-5.026c0.268,-0.784 1.121,-1.202 1.905,-0.934c0.783,0.267 1.202,1.121 0.934,1.904c-0.428,1.253 -0.715,2.756 -0.728,4.085c-0.002,0.207 0.078,0.707 0.135,1.038Zm-2.808,0.466c-0.012,0.07 -0.018,0.148 -0.018,0.233c-0,-0.079 0.006,-0.157 0.018,-0.233Z"/><path d="M235.547,252.67c-0.469,-0.683 -0.295,-1.617 0.388,-2.086c0.683,-0.468 1.617,-0.294 2.085,0.389c1.073,1.563 1.402,3.734 1.135,5.979c-0.374,3.143 -1.898,6.398 -3.601,8.045c-0.595,0.576 -1.546,0.56 -2.121,-0.035c-0.576,-0.595 -0.56,-1.546 0.035,-2.121c1.315,-1.272 2.419,-3.817 2.708,-6.243c0.174,-1.468 0.072,-2.906 -0.629,-3.928Z"/><path d="M229.373,254.036c-0.067,-0.139 -0.305,-0.635 -0.414,-0.882c-0.222,-0.501 -0.288,-0.966 -0.243,-1.308c0.087,-0.674 0.426,-1.229 1.286,-1.483c0.794,-0.234 1.629,0.22 1.864,1.014c0.087,0.296 0.079,0.598 -0.007,0.872c0.123,0.256 0.279,0.591 0.355,0.806c0.126,0.361 0.18,0.711 0.162,1.02c-0.137,2.487 -1.217,5.646 -3.278,7.184c-0.663,0.496 -1.604,0.359 -2.099,-0.304c-0.496,-0.664 -0.359,-1.604 0.304,-2.1c1.366,-1.019 1.955,-3.147 2.07,-4.819Z"/><path d="M311.86,304.574c0.063,-0.013 0.128,-0.022 0.194,-0.027c3.603,-0.275 1.683,2.832 0.372,2.981c-0.128,0.014 -1.049,0.086 -1.384,0.197c-0.691,0.23 -1.332,0.59 -1.943,0.982c-2.283,1.463 -4.876,3.458 -5.69,6.14c-0.24,0.792 -1.079,1.24 -1.871,1c-0.792,-0.241 -1.24,-1.079 -1,-1.871c1.015,-3.344 4.096,-5.971 6.943,-7.795c0.82,-0.525 1.687,-0.994 2.614,-1.303c0.367,-0.122 1.325,-0.25 1.765,-0.304Z"/><path d="M310.275,310.977c0.304,-0.368 0.777,-0.585 1.288,-0.54c0.825,0.072 1.436,0.8 1.364,1.625c-0.014,0.154 -0.084,0.652 -0.622,1.131c-0.698,0.621 -4.142,2.928 -4.566,3.348c-0.589,0.582 -1.539,0.577 -2.122,-0.012c-0.582,-0.588 -0.577,-1.539 0.012,-2.121c0.413,-0.408 4.239,-3.141 4.646,-3.431Z"/><path d="M229.768,292.669c-0.33,0.759 -1.215,1.108 -1.974,0.777c-0.759,-0.33 -1.107,-1.214 -0.777,-1.974c0.43,-0.988 0.474,-2.126 0.34,-3.285c-0.231,-2.002 -1.007,-4.061 -1.712,-5.701c-0.327,-0.761 0.025,-1.644 0.786,-1.971c0.76,-0.327 1.643,0.025 1.97,0.786c1.406,3.271 2.847,7.965 1.367,11.368Z"/><path d="M224.702,287.99c0.438,0.703 0.224,1.629 -0.478,2.067c-0.703,0.438 -1.629,0.224 -2.067,-0.478c-0.306,-0.491 -0.54,-1.297 -0.694,-2.203c-0.157,-0.928 -0.24,-1.992 -0.464,-2.627c-0.276,-0.781 0.134,-1.638 0.915,-1.914c0.781,-0.276 1.638,0.134 1.914,0.915c0.229,0.649 0.369,1.657 0.515,2.635c0.096,0.639 0.149,1.269 0.359,1.605Z"/><path d="M344.729,256.976c-0.305,0.162 -0.721,0.389 -0.885,0.508c-0.894,0.646 -1.653,1.442 -2.425,2.223c-0.581,0.59 -1.532,0.596 -2.121,0.014c-0.589,-0.582 -0.595,-1.532 -0.013,-2.121c0.888,-0.9 1.773,-1.803 2.801,-2.547c0.396,-0.287 1.349,-0.829 1.849,-1.034c0.364,-0.148 0.659,-0.18 0.813,-0.178c0.431,0.005 0.73,0.164 0.935,0.324c0.308,0.24 0.504,0.557 0.568,0.964c0.034,0.219 0.105,0.743 -0.429,1.344c-0.289,0.326 -0.689,0.495 -1.093,0.503Zm-1.342,-2.225c0.053,-0.095 0.117,-0.186 0.192,-0.27c-0.082,0.092 -0.144,0.183 -0.192,0.27Z"/><path d="M345.547,247.797c0.648,-0.261 1.411,-0.04 1.811,0.564c0.388,0.586 0.314,1.065 0.222,1.372c-0.125,0.417 -0.392,0.773 -0.879,0.984c-0.193,0.084 -0.51,0.166 -0.92,0.131c-0.221,-0.018 -0.797,-0.114 -0.957,-0.141c-0.801,0.199 -1.574,0.526 -2.314,0.887c-2.454,1.194 -4.882,2.647 -6.338,5.01c-0.434,0.705 -1.359,0.925 -2.064,0.49c-0.704,-0.434 -0.924,-1.359 -0.49,-2.063c1.758,-2.853 4.618,-4.693 7.578,-6.135c0.979,-0.476 2.008,-0.894 3.071,-1.14c0.253,-0.059 0.853,-0.008 1.28,0.041Z"/><path d="M234.189,218.472c0.291,0.354 0.716,0.893 0.826,1.159c1.031,2.491 1.305,5.503 1.176,8.169c-0.04,0.827 -0.743,1.466 -1.57,1.426c-0.827,-0.04 -1.466,-0.743 -1.426,-1.57c0.107,-2.22 -0.081,-4.731 -0.926,-6.813c-0.075,-0.088 -0.549,-0.637 -0.71,-0.839c-0.233,-0.292 -0.341,-0.557 -0.382,-0.705c-0.237,-0.854 0.142,-1.381 0.645,-1.703c0.204,-0.13 0.655,-0.397 1.404,-0.143c0.487,0.165 0.834,0.558 0.963,1.019Z"/><path d="M227.1,223.081c-0.766,-0.313 -1.134,-1.189 -0.822,-1.956c0.313,-0.766 1.19,-1.135 1.956,-0.822c0.816,0.333 1.503,1.077 1.969,2.106c0.757,1.671 0.963,4.18 0.972,5.314c0.006,0.827 -0.661,1.505 -1.489,1.511c-0.827,0.007 -1.505,-0.66 -1.511,-1.488c-0.006,-0.764 -0.105,-2.327 -0.509,-3.585c-0.089,-0.275 -0.191,-0.533 -0.317,-0.755c-0.077,-0.135 -0.13,-0.277 -0.249,-0.325Z"/><g><path d="M301.113,251.595c0.148,-0.088 0.557,-0.329 0.716,-0.394c0.312,-0.126 0.587,-0.147 0.791,-0.131c0.437,0.034 0.772,0.219 1.029,0.498c0.222,0.24 0.465,0.614 0.41,1.239c-0.067,0.766 -0.702,1.348 -1.453,1.367c-0.281,0.145 -0.638,0.316 -0.819,0.349c-1.149,0.208 -2.384,0.226 -3.543,0.123c-3.467,-0.308 -6.986,-1.391 -9.574,-3.804c-0.605,-0.564 -0.638,-1.514 -0.074,-2.12c0.565,-0.605 1.515,-0.638 2.12,-0.074c2.099,1.957 4.982,2.76 7.794,3.01c0.85,0.075 1.754,0.074 2.603,-0.063Z"/><path d="M278.272,244.018c0.574,-0.302 1.3,-0.205 1.774,0.283c0.352,0.363 0.454,0.766 0.424,1.164c-0.019,0.261 -0.132,1.004 -1.052,1.347c-0.656,0.245 -4.619,0.779 -4.956,0.759c-3.495,-0.211 -7.66,-1.201 -10.111,-3.863c-0.56,-0.609 -0.521,-1.559 0.088,-2.119c0.609,-0.561 1.559,-0.522 2.119,0.087c1.945,2.113 5.311,2.733 8.085,2.9c0.227,0.014 3.062,-0.462 3.629,-0.558Zm-0.744,0.914c-0.178,0.514 -0.076,1.004 0.366,1.459c-0.388,-0.399 -0.509,-0.959 -0.366,-1.459Z"/><path d="M254.178,235.773c0.157,-0.182 0.359,-0.328 0.598,-0.419c1.377,-0.527 1.94,0.592 2.02,0.774c0.127,0.289 0.343,0.946 -0.269,1.626c-0.169,0.188 -1.594,1.087 -2.213,1.269c-1.326,0.39 -2.733,0.456 -4.102,0.342c-4.28,-0.355 -8.292,-1.916 -10.505,-5.78c-0.411,-0.719 -0.162,-1.636 0.556,-2.047c0.719,-0.412 1.636,-0.162 2.047,0.556c1.699,2.967 4.864,4.008 8.15,4.281c1.003,0.083 2.036,0.055 3.008,-0.23c0.152,-0.045 0.477,-0.231 0.71,-0.372Zm1.407,2.457c0.081,-0.014 0.169,-0.038 0.263,-0.074c-0.087,0.033 -0.175,0.058 -0.263,0.074Z"/><path d="M302.552,237.516c3.924,6.096 -4.275,12.457 -8.933,7.307c-3.971,-4.39 -0.344,-9.778 3.765,-10.119c1.792,-0.149 3.729,0.577 5.168,2.812Zm-2.522,1.624c-0.685,-1.064 -1.545,-1.517 -2.398,-1.446c-2.063,0.171 -3.781,2.913 -1.788,5.117c2.247,2.484 6.078,-0.73 4.186,-3.671Z"/><path d="M277.776,229.057c1.63,1.17 2.23,3.005 2.234,4.727c0.004,1.714 -0.617,3.263 -1.136,3.872c-2.455,2.875 -6.229,3.133 -8.912,0.371c-3.118,-3.211 -1.941,-7.416 0.842,-9.283c1.849,-1.241 4.433,-1.51 6.972,0.313Zm-1.749,2.437c-1.296,-0.93 -2.608,-0.892 -3.552,-0.259c-1.407,0.944 -1.938,3.078 -0.361,4.702c1.349,1.388 3.244,1.216 4.478,-0.229c0.253,-0.296 0.42,-1.083 0.418,-1.916c-0.002,-0.823 -0.204,-1.739 -0.983,-2.298Z"/><path d="M251.038,221.733c0.798,0.126 1.589,0.58 2.26,1.214c0.819,0.776 1.459,1.808 1.745,2.457c0.821,1.869 0.615,3.523 -0.115,4.802c-1.66,2.91 -6.374,3.901 -9.215,0.767c-2.133,-2.354 -1.827,-5.543 0.006,-7.518c1.193,-1.287 3.044,-2.082 5.319,-1.722Zm-0.469,2.963c-1.126,-0.178 -2.06,0.162 -2.651,0.799c-0.844,0.91 -0.965,2.379 0.018,3.463c1.35,1.489 3.598,1.144 4.386,-0.239c0.321,-0.561 0.335,-1.288 -0.026,-2.108c-0.172,-0.393 -0.564,-1.015 -1.061,-1.485c-0.207,-0.196 -0.419,-0.391 -0.666,-0.43Z"/></g></g><g><path d="M127.589,302.861c-7.091,-1.264 -10.458,12.281 -1.62,16.65c0.07,0.034 0.638,0.217 0.626,0.311c-0.279,2.175 -8.201,7.352 -0.628,13.587c5.955,4.903 14.426,-1.543 15.234,-1.168c0.011,0.005 -0.487,1.01 -0.508,1.057c-0.496,1.12 -0.741,2.347 -0.795,3.599c-0.153,3.52 1.323,7.109 4.698,9.034c5.702,3.251 13.684,0.543 17.059,-4.037c0.509,-0.691 0.392,-2.656 1.241,-2.262c2.814,1.304 4.709,13.895 16.707,9.727c4.78,-1.66 7.754,-7.289 8.172,-12.385c0.012,-0.15 -0.088,-1.389 0.104,-1.455c0.675,-0.233 9.646,7.852 18.311,0.1c2.419,-2.165 3.643,-5.585 3.951,-8.952c0.386,-4.225 -1.404,-4.604 -0.691,-4.85c2.267,-0.781 10.07,6.478 17.062,-1.085c2.724,-2.947 3.2,-6.984 1.673,-11.101c-0.353,-0.952 -2.295,-2.643 -1.311,-2.772c5.574,-0.727 10.715,1.541 15.609,-4.638c2.016,-2.544 0.777,-7.149 -0.828,-10.371c-0.543,-1.091 -2.944,-2.797 -1.847,-3.175c0.401,-0.138 2.713,0.707 3.371,0.693c4.888,-0.106 9.816,-1.085 12.473,-4.893c2.06,-2.952 2.48,-8.663 -0.732,-11.197c-1.017,-0.803 -2.355,-1.596 -3.63,-1.81c-0.056,-0.009 -0.216,-0.017 -0.165,-0.034c12.615,-4.35 6.985,-19.3 -6.266,-17.535c-0.247,0.033 -1.059,0.33 -1.275,0.034c-1.391,-1.903 4.663,-8.21 -3.192,-11.51c-3.751,-1.576 -7.882,-0.234 -10.401,2.299c-1.132,1.138 -2.11,2.493 -2.724,3.99c-0.015,0.037 0.004,0.002 -0,0c-2.422,-1.123 -3.805,-4.176 -7.371,-3.47" style="fill:#fff;"/><path d="M126.585,318.141c0.119,0.047 0.497,0.196 0.662,0.29c0.224,0.127 0.38,0.274 0.476,0.386c0.352,0.412 0.405,0.842 0.36,1.196c-0.045,0.349 -0.178,0.75 -0.414,1.184c-0.333,0.612 -0.923,1.364 -1.554,2.226c-0.963,1.317 -2.131,2.947 -1.885,4.848c0.161,1.251 0.965,2.559 2.69,3.98c1.993,1.64 4.333,1.711 6.455,1.286c2.398,-0.48 4.555,-1.59 5.866,-2.206c0.773,-0.362 1.363,-0.564 1.676,-0.596c0.389,-0.039 0.691,0.042 0.915,0.145c0.072,0.034 1.278,0.744 0.732,1.992c-0.073,0.168 -0.481,0.992 -0.499,1.034c-0.422,0.951 -0.623,1.994 -0.669,3.056c-0.129,2.98 1.086,6.037 3.943,7.666c5.037,2.872 12.07,0.452 15.079,-3.583c0.02,-0.073 0.146,-0.521 0.205,-0.77c0.114,-0.483 0.259,-0.925 0.437,-1.224c0.256,-0.432 0.598,-0.702 0.968,-0.847c0.413,-0.161 0.908,-0.207 1.499,0.067c0.518,0.24 1.047,0.695 1.554,1.36c0.525,0.689 1.069,1.647 1.691,2.706c1.222,2.085 2.761,4.68 5.466,5.814c1.746,0.731 3.966,0.801 6.873,-0.208c4.236,-1.472 6.776,-6.514 7.164,-11.036c-0.004,-0.144 -0.028,-0.957 0.018,-1.324c0.037,-0.29 0.116,-0.522 0.191,-0.675c0.231,-0.468 0.584,-0.696 0.906,-0.807c0.232,-0.08 0.581,-0.145 1.037,-0.01c0.266,0.08 0.804,0.369 1.539,0.797c2.617,1.526 9.01,5.172 15.224,-0.387c2.148,-1.922 3.184,-4.981 3.457,-7.97c0.227,-2.48 -0.448,-3.337 -0.637,-3.696c-0.1,-0.19 -0.157,-0.356 -0.188,-0.495c-0.1,-0.442 -0.025,-0.81 0.153,-1.137c0.147,-0.272 0.402,-0.602 0.986,-0.804c0.4,-0.138 0.886,-0.182 1.453,-0.098c0.758,0.114 1.768,0.503 2.951,0.972c3.084,1.22 7.749,3.088 12.046,-1.56c2.344,-2.535 2.682,-6.018 1.368,-9.561c-0.167,-0.45 -0.792,-1.07 -1.131,-1.57c-0.385,-0.568 -0.546,-1.108 -0.55,-1.463c-0.003,-0.406 0.119,-0.75 0.332,-1.04c0.23,-0.311 0.597,-0.622 1.25,-0.707c2.28,-0.297 4.489,-0.113 6.64,-0.179c2.762,-0.085 5.416,-0.657 7.987,-3.903c0.596,-0.753 0.756,-1.762 0.718,-2.839c-0.068,-1.981 -0.84,-4.18 -1.713,-5.933c-0.267,-0.538 -1.078,-1.219 -1.544,-1.796c-0.455,-0.564 -0.691,-1.118 -0.733,-1.518c-0.051,-0.479 0.068,-0.896 0.327,-1.256c0.194,-0.268 0.486,-0.529 0.957,-0.691c0.216,-0.075 0.64,-0.136 1.192,-0.039c0.739,0.131 2.16,0.66 2.636,0.65c4.396,-0.095 8.885,-0.827 11.275,-4.251c1.045,-1.497 1.57,-3.836 1.253,-5.928c-0.192,-1.268 -0.698,-2.455 -1.685,-3.234c-0.83,-0.655 -1.908,-1.333 -2.949,-1.508c0.013,0.003 0.048,0.007 0.048,0.007c0,0 -0.816,-0.267 -0.895,-0.329c-0.428,-0.333 -0.555,-0.741 -0.577,-1.095c-0.019,-0.318 0.049,-0.655 0.295,-0.986c0.099,-0.134 0.289,-0.378 0.724,-0.528c5.263,-1.815 6.888,-5.739 5.647,-9.127c-1.291,-3.527 -5.45,-6.263 -11.2,-5.507c-0.146,0.029 -1.196,0.228 -1.64,0.126c-0.466,-0.106 -0.823,-0.352 -1.07,-0.69c-0.35,-0.479 -0.526,-1.077 -0.504,-1.794c0.019,-0.619 0.209,-1.379 0.459,-2.221c0.399,-1.341 1.067,-2.989 0.465,-4.512c-0.375,-0.949 -1.288,-1.773 -2.981,-2.485c-3.162,-1.328 -6.635,-0.16 -8.757,1.974c-0.995,1 -1.861,2.185 -2.4,3.501c0.09,-0.22 0.107,-0.366 0.108,-0.45c-0.004,0.058 -0.013,0.119 -0.025,0.181c-0.046,0.229 -0.255,0.595 -0.327,0.681c-0.391,0.465 -0.838,0.519 -1.052,0.533c-0.396,0.026 -0.747,-0.067 -1.036,-0.309c-0.951,-0.508 -1.779,-1.252 -2.631,-1.963c-0.938,-0.783 -1.916,-1.555 -3.505,-1.241c-0.812,0.161 -1.602,-0.368 -1.762,-1.18c-0.161,-0.812 0.368,-1.602 1.18,-1.763c2.294,-0.454 3.894,0.269 5.302,1.319c0.612,0.456 1.169,0.999 1.762,1.472c0.625,-1.06 1.401,-2.035 2.259,-2.897c2.915,-2.931 7.703,-4.447 12.045,-2.624c2.293,0.963 3.573,2.185 4.277,3.445c1.071,1.92 0.83,4.031 0.32,5.917c-0.193,0.71 -0.419,1.378 -0.568,1.968c7.308,-0.838 12.443,2.968 14.098,7.487c1.449,3.955 0.385,8.601 -4.292,11.502c0.369,0.236 0.719,0.487 1.041,0.741c1.583,1.249 2.484,3.106 2.792,5.139c0.434,2.86 -0.331,6.049 -1.759,8.095c-2.925,4.191 -8.29,5.417 -13.67,5.533c-0.108,0.003 -0.249,-0.009 -0.415,-0.031c0.078,0.119 0.146,0.235 0.201,0.345c1.052,2.114 1.943,4.777 2.026,7.166c0.063,1.837 -0.348,3.522 -1.365,4.805c-3.302,4.17 -6.699,4.93 -10.246,5.04c-1.413,0.043 -2.852,-0.034 -4.321,0.006c0.222,0.328 0.4,0.644 0.499,0.911c1.741,4.693 1.127,9.283 -1.977,12.641c-4.754,5.142 -9.827,4.296 -13.689,2.941c-0.884,-0.31 -1.696,-0.647 -2.412,-0.925c0.153,0.807 0.233,1.822 0.122,3.038c-0.343,3.744 -1.754,7.525 -4.445,9.933c-7.158,6.404 -14.507,3.082 -18.003,1.149c-0.7,5.431 -4.032,11.133 -9.092,12.89c-3.251,1.129 -5.847,1.129 -7.956,0.516c-3.172,-0.921 -5.29,-3.266 -6.856,-5.648c-0.82,-1.249 -1.481,-2.495 -2.091,-3.463c-0.096,0.232 -0.206,0.436 -0.329,0.603c-3.76,5.101 -12.66,8.071 -19.01,4.45c-3.893,-2.22 -5.631,-6.342 -5.454,-10.402c0.028,-0.647 0.102,-1.289 0.226,-1.915c-1.048,0.467 -2.293,0.967 -3.634,1.322c-3.204,0.849 -6.879,0.879 -9.978,-1.672c-2.707,-2.229 -3.672,-4.393 -3.8,-6.333c-0.129,-1.955 0.62,-3.748 1.591,-5.286c0.593,-0.941 1.262,-1.776 1.771,-2.485c-5.466,-3.187 -6.38,-9.64 -4.554,-14.113c1.383,-3.384 4.273,-5.6 7.831,-4.966c0.815,0.146 1.359,0.925 1.214,1.74c-0.145,0.815 -0.925,1.359 -1.74,1.214c-2.116,-0.377 -3.705,1.134 -4.527,3.147c-1.396,3.417 -0.664,8.423 3.786,10.656Zm101.912,-70.297c0.087,0.126 0.158,0.273 0.209,0.443c0.007,0.024 0.013,0.049 0.02,0.076c-0.045,-0.216 -0.13,-0.385 -0.229,-0.519Z"/><path d="M139.735,312.876c1.03,1.406 -39.145,-36.317 -47.605,-43.008c-16.085,-12.719 -37.363,-19.758 -51.197,-35.142c-10.743,-11.947 -4.264,-26.656 11.699,-28.152c14.435,-1.352 30.956,11.025 30.972,10.977c1.567,-4.563 -46.599,-57.008 -22.996,-95.107c8.76,-14.139 25.332,-22.862 33.551,-24.993c70.512,-18.29 87.885,68.904 105.323,107.796c8.881,19.807 24.473,47.59 24.473,47.59c-0,-0 -12.942,24.378 -38.305,41.412c-12.415,8.338 -31.283,14.499 -45.915,18.627Z" style="fill:#fff;"/><path d="M80.291,213.599c-1.584,-2.647 -3.976,-6.264 -6.695,-10.607c-6.129,-9.789 -13.892,-23.198 -18.046,-37.522c-4.23,-14.585 -4.713,-30.102 3.783,-43.816c8.993,-14.516 26.011,-23.467 34.449,-25.655c36.041,-9.349 58.532,8.191 74.211,33.108c15.376,24.435 24.116,56.03 32.858,75.526c8.859,19.757 24.412,47.47 24.412,47.47c0.25,0.445 0.256,0.986 0.017,1.437c-0,0 -13.102,24.699 -38.793,41.954c-12.436,8.352 -31.277,14.561 -45.999,18.727c-0.032,0.018 -0.064,0.034 -0.097,0.05c-0.22,0.103 -0.539,0.202 -0.969,0.107c-0.098,-0.022 -0.262,-0.066 -0.466,-0.188c-0.11,-0.065 -0.485,-0.357 -1.068,-0.871c-5.825,-5.14 -39.084,-36.261 -46.689,-42.274c-7.987,-6.316 -17.269,-11.215 -26.266,-16.452c-9.195,-5.352 -18.094,-11.057 -25.115,-18.864c-5.839,-6.494 -6.901,-13.76 -4.431,-19.584c2.457,-5.794 8.473,-10.256 17.105,-11.064c10.376,-0.972 21.812,4.885 27.799,8.518Zm59.762,97.627c14.387,-4.085 32.669,-10.101 44.761,-18.222c22.503,-15.114 35.105,-36.078 37.424,-40.165c-2.517,-4.517 -16.072,-29.019 -24.125,-46.979c-8.697,-19.396 -17.362,-50.844 -32.66,-75.156c-14.995,-23.831 -36.446,-40.743 -70.917,-31.801c-8,2.075 -24.127,10.569 -32.653,24.331c-8.026,12.955 -7.447,27.623 -3.452,41.4c4.072,14.039 11.7,27.172 17.708,36.766c3.673,5.868 6.751,10.438 8.107,13.125c0.5,0.99 0.783,1.783 0.863,2.338c0.069,0.477 0.019,0.868 -0.086,1.175c-0.171,0.497 -0.522,0.915 -1.238,1.002c-0.111,0.014 -0.442,0.072 -0.89,-0.167c-0.03,-0.016 -0.191,-0.117 -0.461,-0.306c-1.782,-1.245 -11.152,-7.726 -21.352,-9.898c-2.756,-0.587 -5.572,-0.858 -8.311,-0.601c-7.33,0.687 -12.535,4.327 -14.622,9.248c-2.074,4.892 -1.004,10.953 3.9,16.407c6.813,7.576 15.47,13.083 24.393,18.277c9.121,5.309 18.521,10.289 26.618,16.692c7.624,6.029 40.972,37.224 46.813,42.377c0.061,0.054 0.122,0.107 0.18,0.157Z"/><g><path d="M90.77,148.034c0.224,0.069 0.793,0.245 0.868,0.273c3.628,1.363 7.337,2.518 11.002,3.775c13.369,4.586 26.653,9.476 40.109,13.8c0.788,0.253 1.222,1.099 0.969,1.887c-0.253,0.788 -1.099,1.223 -1.887,0.969c-13.475,-4.33 -26.777,-9.226 -40.164,-13.818c-3.681,-1.263 -7.405,-2.424 -11.049,-3.792c-0.102,-0.028 -0.824,-0.233 -1.158,-0.381c-0.264,-0.116 -0.464,-0.254 -0.59,-0.367c-0.337,-0.302 -0.471,-0.644 -0.518,-0.929c-0.137,-0.817 0.416,-1.59 1.232,-1.727c0.439,-0.073 0.864,0.052 1.186,0.31Z"/><path d="M111.37,184.291c-0.003,-0.313 -0.014,-1.275 -0.012,-1.369c0.082,-4.56 0.262,-9.115 0.409,-13.673c0.488,-15.151 1.069,-30.293 1.794,-45.434c0.04,-0.827 0.743,-1.466 1.57,-1.427c0.827,0.04 1.466,0.743 1.427,1.57c-0.725,15.126 -1.305,30.253 -1.793,45.388c-0.146,4.543 -0.326,9.085 -0.408,13.63c-0.002,0.102 0.043,0.803 0.025,1.331c-0.015,0.437 -0.089,0.808 -0.166,1.006c-0.199,0.512 -0.544,0.763 -0.824,0.892c-0.752,0.346 -1.643,0.016 -1.989,-0.736c-0.178,-0.387 -0.178,-0.81 -0.033,-1.178Z"/><g><path d="M86.882,173.507c-0.056,0.041 -0.116,0.079 -0.18,0.112c-1.403,0.743 -2.117,-0.796 -2.148,-0.907c-0.077,-0.266 -0.14,-0.675 0.14,-1.163c0.018,-0.032 0.123,-0.267 0.472,-0.504c0.142,-0.097 1.245,-0.791 1.947,-1.218c1.323,-0.805 2.663,-1.582 4.001,-2.361c3.93,-2.287 7.913,-4.472 11.901,-6.655c12.106,-6.627 24.622,-12.483 36.567,-19.406c0.716,-0.415 1.635,-0.171 2.05,0.546c0.415,0.716 0.17,1.634 -0.546,2.05c-11.966,6.935 -24.503,12.802 -36.631,19.441c-3.965,2.171 -7.925,4.343 -11.832,6.617c-1.321,0.769 -2.644,1.537 -3.951,2.331c-0.594,0.361 -1.604,1 -1.79,1.117Zm0.548,-0.761c0.063,-0.188 0.078,-0.361 0.069,-0.513c0.007,0.175 -0.017,0.349 -0.069,0.513Zm-0.088,-1.122c-0.154,-0.34 -0.426,-0.633 -0.904,-0.765c0.368,0.113 0.693,0.366 0.887,0.733c0.006,0.011 0.012,0.021 0.017,0.032Zm-1.155,-0.818c-0.125,-0.025 -0.449,-0.071 -0.889,0.162c0.283,-0.15 0.593,-0.2 0.889,-0.162Z"/><path d="M86.427,171.332c0.12,0.057 0.234,0.13 0.339,0.221c0.627,0.541 0.696,1.489 0.155,2.116c-0.748,0.867 -1.409,1.862 -2.168,2.748c-0.924,1.079 -1.985,2 -3.374,2.519c-1.79,0.669 -3.345,0.081 -4.178,-0.948c-0.857,-1.058 -1.101,-2.704 0.13,-4.341c1.411,-1.876 3.845,-2.721 6.101,-2.86c0.153,-0.01 1.791,0.014 2.426,0.241c0.228,0.082 0.416,0.186 0.569,0.304Zm-3.443,2.51c-1.235,0.162 -2.499,0.603 -3.255,1.608c-0.192,0.256 -0.331,0.484 -0.197,0.65c0.155,0.191 0.464,0.151 0.797,0.026c0.895,-0.334 1.55,-0.966 2.146,-1.661c0.174,-0.203 0.343,-0.412 0.509,-0.623Z"/><path d="M140.952,143.509c-0.315,-0.011 -0.628,-0.121 -0.891,-0.335c-0.643,-0.522 -0.74,-1.467 -0.218,-2.11c1.005,-1.238 1.566,-3.002 2.754,-4.265c0.771,-0.819 2.636,-1.865 4.225,-2.105c1.109,-0.167 2.095,0.054 2.76,0.605c0.683,0.564 1.206,1.536 0.933,3.191c-0.263,1.595 -1.305,2.827 -2.748,3.687c-1.787,1.065 -4.204,1.539 -5.886,1.607c-0.345,0.015 -0.667,-0.089 -0.929,-0.275Zm2.654,-2.952c0.902,-0.186 1.844,-0.492 2.625,-0.957c0.651,-0.388 1.205,-0.878 1.324,-1.598c0.018,-0.111 0.022,-0.241 0.022,-0.344c-0.211,0.015 -0.595,0.052 -0.858,0.134c-0.777,0.242 -1.574,0.676 -1.937,1.063c-0.476,0.505 -0.841,1.097 -1.176,1.702Z"/><path d="M86.346,167.081c-0.444,-0.699 -0.237,-1.626 0.462,-2.07c0.699,-0.444 1.626,-0.237 2.07,0.461c1.522,2.395 2.625,5.087 4.055,7.542c0.417,0.716 0.174,1.635 -0.541,2.052c-0.716,0.416 -1.635,0.174 -2.051,-0.542c-1.411,-2.422 -2.494,-5.081 -3.995,-7.443Z"/><path d="M132.617,142.304c-0.128,-0.178 -0.218,-0.386 -0.258,-0.615c-0.239,-1.363 0.871,-1.706 1.047,-1.759c0.32,-0.095 1.031,-0.23 1.619,0.52c0.075,0.097 0.411,0.856 0.55,1.146c0.263,0.549 0.549,1.086 0.82,1.63c0.763,1.533 1.525,3.068 2.3,4.595c0.375,0.739 0.08,1.642 -0.659,2.017c-0.738,0.375 -1.641,0.079 -2.016,-0.659c-0.779,-1.534 -1.544,-3.076 -2.311,-4.616c-0.277,-0.557 -0.57,-1.108 -0.839,-1.67c-0.053,-0.111 -0.172,-0.393 -0.253,-0.589Z"/></g><path d="M97.683,126.895c0.073,0.134 0.218,0.4 0.35,0.614c0.652,1.056 1.636,2.411 1.756,2.602c2.554,4.04 5.016,8.138 7.513,12.213c9.482,15.47 18.413,31.256 27.297,47.073c0.405,0.722 0.148,1.637 -0.574,2.043c-0.722,0.405 -1.637,0.148 -2.042,-0.573c-8.865,-15.785 -17.777,-31.538 -27.239,-46.975c-2.49,-4.064 -4.944,-8.15 -7.491,-12.178c-0.19,-0.302 -2.271,-3.259 -2.505,-4.099c-0.198,-0.709 0.037,-1.204 0.235,-1.472c0.492,-0.667 1.431,-0.808 2.098,-0.317c0.357,0.264 0.564,0.658 0.602,1.069Z"/><path d="M107.135,182.282c0.406,-0.325 0.801,-0.662 1.208,-0.984c0.598,-0.475 1.686,-1.645 2.685,-2.3c0.71,-0.466 1.421,-0.699 2.007,-0.685c0.342,0.008 0.751,0.126 1.145,0.432c0.465,0.359 1.039,1.241 1.237,1.502c1.156,1.517 2.331,3.022 3.451,4.567c0.485,0.67 0.335,1.609 -0.335,2.095c-0.67,0.485 -1.609,0.335 -2.095,-0.335c-1.105,-1.525 -2.266,-3.011 -3.407,-4.51c-0.059,-0.077 -0.229,-0.31 -0.385,-0.526c-0.104,0.065 -0.21,0.134 -0.294,0.199c-0.828,0.639 -1.655,1.523 -2.145,1.911c-0.423,0.336 -0.834,0.687 -1.256,1.023c-0.097,0.077 -0.351,0.219 -0.55,0.326c-0.256,0.242 -0.597,0.396 -0.976,0.41c-0.745,0.027 -1.073,-0.341 -1.209,-0.488c-0.289,-0.312 -0.414,-0.673 -0.4,-1.073c0.008,-0.254 0.073,-0.585 0.348,-0.917c0.067,-0.082 0.169,-0.189 0.321,-0.295c0.1,-0.07 0.554,-0.303 0.65,-0.352Zm0.717,0.205c-0.139,-0.051 -0.315,-0.086 -0.537,-0.078c0.188,-0.007 0.369,0.021 0.537,0.078Z"/><path d="M115.072,128.427c0.149,-0.058 0.663,-0.261 0.992,-0.459c1.19,-0.717 2.45,-1.795 3.044,-2.179c0.695,-0.449 1.624,-0.249 2.073,0.446c0.45,0.695 0.25,1.625 -0.445,2.074c-0.728,0.47 -2.42,1.918 -3.823,2.615c-0.995,0.493 -1.93,0.616 -2.593,0.417c-0.654,-0.196 -1.4,-0.704 -2.108,-1.366c-0.763,-0.713 -1.507,-1.607 -2.056,-2.093c-0.099,-0.089 -0.74,-0.688 -0.938,-0.873c-0.333,-0.163 -0.607,-0.449 -0.747,-0.824c-0.289,-0.776 0.107,-1.64 0.882,-1.929c0.256,-0.095 0.706,-0.196 1.256,0.078c0.318,0.159 1.355,1.141 1.537,1.303c0.481,0.426 1.11,1.147 1.77,1.811c0.399,0.402 0.781,0.816 1.156,0.979Z"/><path d="M141.885,166.851c0.92,-4.599 7.594,-5.09 8.93,-0.195c0.558,2.044 -0.406,4.556 -1.98,5.949c-0.9,0.796 -1.976,1.229 -3.04,1.177c-1.081,-0.052 -2.217,-0.573 -3.162,-1.936c-0.257,-0.371 -0.473,-0.937 -0.604,-1.585c-0.217,-1.08 -0.236,-2.429 -0.239,-2.784c-0,-0.012 -0.001,-0.026 -0.001,-0.036c-0.007,-0.2 0.025,-0.402 0.096,-0.59Zm2.908,0.825c0.006,0.37 0.029,1.026 0.119,1.648c0.046,0.319 0.066,0.638 0.186,0.812c0.272,0.391 0.533,0.635 0.843,0.65c0.327,0.015 0.629,-0.183 0.906,-0.428c0.779,-0.689 1.351,-1.9 1.074,-2.912c-0.481,-1.762 -2.955,-1.533 -3.128,0.23Z"/><path d="M90.351,149.946c-0.603,2.174 -2.58,3.363 -4.605,3.42c-2.219,0.062 -4.428,-1.219 -4.884,-3.867c-0.299,-1.734 0.481,-3.328 1.776,-4.333c1.258,-0.977 2.982,-1.364 4.534,-0.828c2.276,0.786 2.814,2.258 3.453,4.166c0.172,0.514 0.051,1.055 -0.274,1.442Zm-2.801,-1.228c-0.217,-0.674 -0.491,-1.245 -1.358,-1.545c-0.589,-0.204 -1.236,-0.009 -1.714,0.362c-0.441,0.343 -0.761,0.863 -0.66,1.454c0.169,0.979 1.024,1.401 1.844,1.378c0.837,-0.023 1.704,-0.492 1.848,-1.462c0.01,-0.064 0.023,-0.126 0.04,-0.187Z"/><path d="M129.255,188.381c-0.281,0.234 -0.647,0.367 -1.041,0.346c-0.559,-0.03 -0.889,-0.302 -1.102,-0.575c-0.082,-0.105 -0.799,-1.196 0.205,-2.061c0.033,-0.028 0.221,-0.168 0.237,-0.179c0.454,-0.312 0.907,-0.626 1.36,-0.94c0.966,-0.669 1.928,-1.344 2.898,-2.005c0.684,-0.467 1.618,-0.29 2.084,0.394c0.467,0.684 0.29,1.618 -0.394,2.084c-0.964,0.658 -1.921,1.329 -2.881,1.994c-0.457,0.316 -0.913,0.633 -1.372,0.948c0.002,-0.002 0.004,-0.004 0.006,-0.006Z"/><path d="M127.291,183.998c-0.351,0.425 -0.924,0.64 -1.497,0.507c-0.806,-0.187 -1.309,-0.994 -1.122,-1.8c0.036,-0.156 0.157,-0.539 0.588,-0.923c0.685,-0.61 3.893,-2.682 4.35,-3.027c0.661,-0.499 1.602,-0.367 2.101,0.293c0.499,0.661 0.367,1.603 -0.294,2.101c-0.41,0.31 -3.744,2.588 -4.126,2.849Z"/><path d="M95.535,130.761c1.076,-0.882 2.349,-1.548 3.556,-2.225c0.722,-0.405 1.637,-0.147 2.042,0.575c0.405,0.722 0.147,1.637 -0.575,2.042c-1.073,0.601 -2.216,1.174 -3.165,1.964c0.027,-0.022 0.107,-0.099 0.107,-0.099c0,0 -0.56,0.389 -0.801,0.436c-0.339,0.066 -0.658,0.018 -0.951,-0.125c-0.744,-0.363 -1.052,-1.262 -0.689,-2.006c0.113,-0.232 0.279,-0.422 0.476,-0.562Zm0.793,-0.277c0.247,-0.014 0.5,0.034 0.737,0.15c-0.23,-0.113 -0.477,-0.166 -0.737,-0.15Z"/><path d="M98.357,135.519c0.162,-0.152 0.89,-0.834 0.95,-0.883c1.347,-1.108 2.704,-2.219 4.187,-3.14c0.703,-0.436 1.629,-0.22 2.065,0.483c0.437,0.704 0.221,1.629 -0.482,2.066c-1.37,0.851 -2.62,1.884 -3.864,2.907c-0.083,0.069 -0.947,0.904 -1.164,1.052c-0.692,0.475 -1.288,0.243 -1.472,0.166c-0.763,-0.321 -1.122,-1.201 -0.802,-1.964c0.124,-0.294 0.331,-0.529 0.582,-0.687Z"/><path d="M99.721,157.519c-0.522,0.643 -1.467,0.741 -2.11,0.219c-0.643,-0.522 -0.741,-1.468 -0.219,-2.11c0.237,-0.291 0.408,-1.023 0.623,-1.836c0.43,-1.62 0.804,-3.549 1.038,-4.371c0.227,-0.796 1.057,-1.258 1.853,-1.031c0.797,0.226 1.259,1.057 1.032,1.853c-0.272,0.958 -0.734,3.419 -1.256,5.142c-0.295,0.975 -0.65,1.751 -0.961,2.134Z"/><path d="M129.319,166.221c0.008,-0.08 0.017,-0.153 0.028,-0.198c0.164,-0.656 0.376,-1.299 0.578,-1.943c0.471,-1.506 0.949,-3.009 1.438,-4.509c0.257,-0.787 1.104,-1.217 1.891,-0.961c0.787,0.257 1.218,1.104 0.961,1.892c-0.485,1.488 -0.959,2.98 -1.427,4.474c-0.184,0.588 -0.381,1.174 -0.53,1.773c0.016,-0.066 0.035,-0.245 0.035,-0.245c0,-0 -0.13,0.831 -0.233,1.002c-0.119,0.196 -0.265,0.344 -0.423,0.457c-0.386,0.274 -0.898,0.462 -1.586,0.115c-0.687,-0.347 -0.992,-1.152 -0.732,-1.857Zm1.736,-0.946c0.118,0.026 0.235,0.068 0.348,0.125c-0.122,-0.062 -0.238,-0.101 -0.348,-0.125Z"/><path d="M101.483,168.069c0.176,-0.064 0.886,-0.321 0.942,-0.345c0.404,-0.174 2.081,-1.167 2.951,-1.45c0.738,-0.239 1.315,-0.104 1.604,0.046c0.211,0.109 0.757,0.46 0.849,1.337c0.09,0.861 -0.287,4.772 -0.284,5.55c0.002,0.827 -0.668,1.502 -1.496,1.504c-0.828,0.003 -1.502,-0.668 -1.504,-1.495c-0.002,-0.413 0.093,-2.009 0.176,-3.334c-0.496,0.27 -0.933,0.521 -1.109,0.597c-0.099,0.043 -1.248,0.471 -1.469,0.521c-0.633,0.146 -1.022,-0.104 -1.137,-0.173c-0.626,-0.376 -0.849,-0.918 -0.692,-1.616c0.134,-0.596 0.606,-1.029 1.169,-1.142Zm1.161,0.246c0.479,0.34 0.734,0.945 0.597,1.553c0.148,-0.66 -0.044,-1.181 -0.597,-1.553Z"/><path d="M120.307,138.984c-0.036,-0.198 -0.033,-0.407 0.017,-0.616c0.191,-0.805 1,-1.304 1.806,-1.113c0.788,0.187 1.131,0.674 1.262,1.271c0.055,0.25 0.06,0.559 -0.034,0.903c-0.065,0.238 -0.326,0.793 -0.379,0.904c-0.099,0.54 -0.354,1.469 -0.49,2.346c0.94,-0.35 2.248,-0.834 2.527,-0.924c0.788,-0.253 1.634,0.181 1.887,0.969c0.253,0.788 -0.181,1.634 -0.969,1.887c-0.519,0.167 -2.963,1.303 -4.131,1.424c-1.03,0.106 -1.673,-0.351 -1.971,-0.825c-0.292,-0.466 -0.455,-1.182 -0.412,-2.026c0.059,-1.169 0.494,-2.7 0.614,-3.422c0.03,-0.179 0.162,-0.515 0.273,-0.778Zm0.918,1.123c0.065,0.026 0.136,0.049 0.212,0.067c-0.073,-0.017 -0.144,-0.04 -0.212,-0.067Z"/></g><path d="M97.138,223.297c0.188,0.111 1.27,0.748 1.958,1.141c0.685,0.391 1.456,0.898 2.267,1.241c0.543,0.23 1.102,0.409 1.657,0.248c0.195,-0.056 0.213,-0.252 0.24,-0.439c0.034,-0.24 0.032,-0.501 0.012,-0.769c-0.088,-1.214 -0.503,-2.543 -0.644,-3.34c-0.144,-0.816 0.402,-1.594 1.217,-1.738c0.815,-0.144 1.594,0.401 1.738,1.216c0.19,1.079 0.778,3.031 0.694,4.576c-0.09,1.636 -0.799,2.905 -2.421,3.375c-1.002,0.291 -2.023,0.201 -3.018,-0.124c-1.153,-0.377 -2.272,-1.093 -3.231,-1.642c-0.947,-0.541 -2.119,-1.225 -2.307,-1.367c-1.101,-0.836 -0.448,-1.944 -0.318,-2.117c0.157,-0.21 0.38,-0.406 0.714,-0.521c0.511,-0.176 1.052,-0.06 1.442,0.26Zm0.54,1.306c-0.025,0.242 -0.107,0.473 -0.239,0.674c0.13,-0.196 0.216,-0.419 0.239,-0.674Zm-0.364,0.839c-0.166,0.191 -0.384,0.343 -0.641,0.431c0.286,-0.098 0.49,-0.256 0.641,-0.431Z"/><path d="M113.254,214.829c-0.253,0.258 -0.345,0.67 -0.437,1.011c-0.234,0.869 -0.201,1.776 -0.156,2.668c0.016,0.31 0.402,3.633 0.467,4.192c0.014,0.032 0.026,0.064 0.038,0.098c0.27,0.782 -0.146,1.637 -0.929,1.907c-0.312,0.107 -1.601,0.281 -1.991,-1.125c-0.197,-0.715 -0.561,-4.53 -0.581,-4.921c-0.061,-1.204 -0.061,-2.426 0.256,-3.6c0.243,-0.905 0.687,-1.91 1.416,-2.543c0.87,-0.756 2.083,-0.888 3.437,-0.397c1.924,0.697 4.286,2.809 5.216,3.55c0.648,0.515 0.755,1.46 0.239,2.107c-0.516,0.648 -1.46,0.755 -2.108,0.239c-0.695,-0.553 -2.279,-2.021 -3.776,-2.808c-0.301,-0.158 -0.593,-0.287 -0.869,-0.351c-0.065,-0.016 -0.169,-0.024 -0.222,-0.027Zm-0.875,7.098c-0.381,-0.189 -0.759,-0.183 -1.12,-0.058c0.382,-0.132 0.781,-0.1 1.12,0.058Z"/><path d="M120.627,208.637c0.171,0.097 1.209,0.681 1.856,0.939c1.142,0.455 2.396,0.945 3.628,0.632c1.124,-0.285 1.642,-1.062 1.914,-1.983c0.386,-1.302 0.365,-2.847 0.42,-4.209c0.033,-0.827 0.732,-1.472 1.559,-1.438c0.827,0.033 1.472,0.732 1.439,1.559c-0.065,1.6 -0.088,3.409 -0.541,4.939c-0.565,1.912 -1.719,3.447 -4.053,4.04c-1.85,0.47 -3.762,-0.071 -5.477,-0.754c-0.88,-0.35 -2.137,-1.057 -2.343,-1.184c-1.682,-1.036 0.477,-2.775 0.624,-2.789c0.108,-0.01 0.302,-0.023 0.569,0.058c0.147,0.044 0.283,0.109 0.405,0.19Zm0.541,0.652c0.135,0.313 0.165,0.674 0.059,1.026c-0.062,0.207 -0.165,0.39 -0.297,0.544c0.316,-0.354 0.555,-0.868 0.238,-1.57Zm-0.346,1.683c-0.377,0.357 -0.93,0.508 -1.463,0.348c0.817,0.245 1.282,-0.166 1.463,-0.348Z"/><path d="M137.107,207.608c0.044,0.151 0.065,0.311 0.059,0.476c-0.054,1.437 -1.335,1.494 -1.467,1.497c-0.27,0.007 -1.151,-0.02 -1.476,-1.06c-0.032,-0.103 -0.125,-0.85 -0.155,-1.139c-0.08,-0.787 -0.121,-1.571 -0.13,-2.362c-0.027,-2.277 -0.002,-4.903 1.096,-6.972c0.907,-1.709 2.427,-2.093 4.147,-1.698c1.687,0.388 3.622,1.717 4.658,2.355c0.705,0.434 0.925,1.359 0.491,2.064c-0.434,0.705 -1.359,0.925 -2.064,0.491c-0.728,-0.449 -1.964,-1.337 -3.182,-1.805c-0.276,-0.107 -0.548,-0.19 -0.809,-0.224c-0.235,-0.03 -0.464,-0.016 -0.591,0.224c-0.869,1.636 -0.767,3.73 -0.747,5.531c0.009,0.7 0.045,1.395 0.116,2.092c0.011,0.105 0.037,0.356 0.054,0.53Zm-2.85,-0.093c-0.045,0.114 -0.082,0.263 -0.089,0.456c0.006,-0.16 0.037,-0.313 0.089,-0.456Z"/><path d="M142.716,196.295c-0.669,0.06 -1.319,-0.338 -1.55,-1.001c-0.272,-0.782 0.143,-1.638 0.924,-1.91c0.44,-0.153 1.114,-0.156 1.923,0.189c0.864,0.367 2.124,1.211 3.453,1.909c0.689,0.361 1.396,0.686 2.065,0.809c0.365,0.068 0.715,0.096 0.994,-0.115c0.6,-0.453 0.847,-1.469 0.952,-3.216c0.064,-1.066 0.073,-2.133 0.066,-3.201c-0.006,-0.827 0.661,-1.504 1.489,-1.51c0.828,-0.006 1.505,0.661 1.511,1.489c0.008,1.135 -0.003,2.27 -0.071,3.403c-0.184,3.039 -1.095,4.64 -2.138,5.429c-0.787,0.594 -1.703,0.82 -2.699,0.754c-1.121,-0.075 -2.373,-0.561 -3.563,-1.186c-1.249,-0.656 -3.054,-1.672 -3.356,-1.843Z"/><path d="M159.371,192.69c0.05,0.205 0.058,0.423 0.014,0.643c-0.261,1.331 -1.385,1.264 -1.586,1.251c-0.346,-0.023 -1.011,-0.148 -1.317,-0.994c-0.04,-0.111 -0.116,-0.896 -0.115,-1.202c0.002,-0.738 0.031,-1.478 0.082,-2.215c0.153,-2.201 0.641,-4.402 2.085,-6.146c1.269,-1.532 2.929,-1.796 4.677,-1.334c1.923,0.508 3.98,2.048 5.273,2.973c0.674,0.481 0.829,1.419 0.348,2.092c-0.482,0.674 -1.419,0.83 -2.093,0.348c-0.911,-0.652 -2.249,-1.7 -3.613,-2.275c-0.828,-0.35 -1.684,-0.611 -2.281,0.109c-1.037,1.252 -1.293,2.862 -1.403,4.442c-0.047,0.67 -0.073,1.344 -0.075,2.016c-0.001,0.057 0.002,0.183 0.004,0.292Z"/><path d="M166.577,181.42c-0.393,-0.149 -0.721,-0.462 -0.876,-0.887c-0.257,-0.702 -0.015,-1.139 0.107,-1.345c0.301,-0.511 0.8,-0.887 1.625,-0.713c0.145,0.031 0.406,0.113 0.692,0.327c0.159,0.119 0.437,0.405 0.589,0.505c0.416,0.271 0.84,0.532 1.28,0.761c1.22,0.635 2.658,1.196 4.039,0.798c0.706,-0.204 0.907,-0.977 1.072,-1.797c0.4,-1.993 0.084,-4.525 -0.018,-5.841c-0.064,-0.826 0.554,-1.548 1.38,-1.612c0.825,-0.064 1.547,0.555 1.611,1.38c0.117,1.501 0.425,4.39 -0.032,6.664c-0.408,2.03 -1.434,3.584 -3.181,4.088c-2.125,0.614 -4.377,-0.041 -6.255,-1.019c-0.528,-0.274 -1.037,-0.585 -1.535,-0.91c-0.105,-0.069 -0.324,-0.251 -0.498,-0.399Zm1.99,-1.756c-0.012,-0.051 -0.028,-0.105 -0.049,-0.161c0.02,0.053 0.036,0.107 0.049,0.161Z"/><path d="M96.836,230.325c0.768,-0.184 1.556,0.262 1.786,1.027c0.238,0.793 -0.212,1.63 -1.005,1.868c-0.55,0.166 -1.237,0.142 -2.008,-0.115c-1.05,-0.35 -2.394,-1.204 -3.718,-1.891c-0.551,-0.286 -1.096,-0.542 -1.607,-0.662c-0.228,-0.054 -0.441,-0.115 -0.619,-0.019c-0.206,0.11 -0.296,0.378 -0.407,0.749c-0.226,0.76 -0.316,1.833 -0.272,3.304c0.033,1.08 0.161,2.156 0.352,3.219c0.147,0.814 -0.395,1.595 -1.21,1.742c-0.815,0.147 -1.595,-0.396 -1.742,-1.21c-0.218,-1.209 -0.361,-2.432 -0.398,-3.66c-0.071,-2.322 0.194,-3.881 0.623,-4.889c0.412,-0.97 0.992,-1.553 1.632,-1.897c0.657,-0.353 1.406,-0.464 2.221,-0.354c0.867,0.118 1.839,0.511 2.809,1.014c0.884,0.459 1.774,1.006 2.568,1.4c0.356,0.176 0.9,0.345 0.995,0.374Z"/><path d="M82.501,234.989c-0.019,0.54 -0.142,3.946 -0.156,4.192c-0.109,1.998 -0.474,3.477 -1.015,4.469c-0.501,0.916 -1.163,1.497 -1.931,1.806c-0.747,0.301 -1.624,0.354 -2.633,0.076c-1.107,-0.305 -2.448,-1.053 -3.99,-2.291c-0.645,-0.518 -0.749,-1.463 -0.231,-2.108c0.518,-0.646 1.463,-0.749 2.109,-0.231c0.971,0.779 1.819,1.33 2.561,1.621c0.421,0.164 0.769,0.269 1.062,0.151c0.266,-0.107 0.412,-0.395 0.562,-0.766c0.287,-0.707 0.444,-1.671 0.511,-2.891c0.015,-0.289 0.077,-3.903 0.197,-4.605c0.236,-1.385 1.5,-1.385 1.768,-1.34c0.817,0.138 1.368,0.912 1.231,1.728c-0.011,0.065 -0.026,0.128 -0.045,0.189Zm-0.522,0.753c-0.319,0.244 -0.735,0.36 -1.162,0.289c0.379,0.063 0.784,0.015 1.162,-0.289Z"/><path d="M54.411,221.316c-0.118,-0.572 -0.214,-1.183 -0.233,-1.79c-0.044,-1.45 0.338,-2.858 1.53,-3.907c1.27,-1.118 2.477,-1.397 3.555,-1.213c1.029,0.175 2.011,0.821 2.859,1.89c2.885,3.633 4.419,12.946 4.574,15.038c0.061,0.826 -0.56,1.546 -1.386,1.607c-0.396,0.029 -0.769,-0.099 -1.055,-0.332c-0.071,0.002 -0.142,-0.002 -0.213,-0.011c-0.202,0.063 -0.431,0.129 -0.549,0.14c-1.805,0.183 -3.629,0.196 -5.434,0.003c-1.739,-0.185 -5.798,-1.067 -8.411,-2.737c-2.261,-1.445 -3.474,-3.452 -2.612,-5.871c0.594,-1.665 1.832,-2.564 3.327,-2.935c1.267,-0.314 2.746,-0.199 4.048,0.118Zm8.464,10.441c-0.145,-0.303 -0.19,-0.656 -0.103,-1.007c-0.107,0.436 -0.04,0.759 0.103,1.007Zm0.589,-2.118c-0.409,-2.661 -1.322,-7.053 -2.775,-9.98c-0.382,-0.77 -0.793,-1.431 -1.263,-1.884c-0.247,-0.239 -0.489,-0.431 -0.783,-0.419c-0.306,0.013 -0.606,0.209 -0.953,0.515c-0.45,0.396 -0.524,0.954 -0.515,1.501c0.014,0.864 0.262,1.743 0.43,2.435c0.154,0.639 0.245,1.178 0.232,1.539c-0.017,0.469 -0.164,0.825 -0.35,1.086c-0.231,0.322 -0.606,0.625 -1.218,0.641c-0.153,0.004 -0.38,-0.016 -0.642,-0.105c-0.231,-0.078 -0.715,-0.325 -0.824,-0.382c-0.875,-0.364 -2.075,-0.656 -3.165,-0.564c-0.762,0.064 -1.491,0.32 -1.776,1.118c-0.366,1.026 0.443,1.723 1.401,2.336c2.208,1.41 5.645,2.126 7.114,2.282c1.568,0.168 3.153,0.157 4.721,0.005c0.067,-0.024 0.214,-0.075 0.366,-0.124Z"/><path d="M92.064,196.261c0.047,-0.428 0.09,-0.87 0.172,-1.297c0.25,-1.299 0.828,-2.45 2.228,-3.12c1.117,-0.535 2.061,-0.525 2.844,-0.225c1.034,0.397 1.893,1.427 2.398,2.998c1.356,4.225 0.411,13.08 0.255,14.843c-0.073,0.824 -0.802,1.435 -1.626,1.362c-0.639,-0.057 -1.149,-0.506 -1.313,-1.089c-2.853,-0.905 -9.337,-3.549 -12.387,-6.85c-1.692,-1.832 -2.399,-3.876 -1.648,-5.942c0.786,-2.162 2.469,-2.812 4.416,-2.593c1.573,0.177 3.357,1.053 4.661,1.913Zm5.144,10.374c0.213,-2.597 0.423,-6.461 0.013,-9.372c-0.136,-0.965 -0.33,-1.812 -0.654,-2.419c-0.1,-0.188 -0.178,-0.364 -0.334,-0.424c-0.135,-0.051 -0.282,0.038 -0.474,0.13c-0.351,0.168 -0.461,0.482 -0.538,0.801c-0.105,0.434 -0.138,0.898 -0.187,1.339c-0.142,1.293 -0.497,2.41 -1.357,3.065c-0.364,0.277 -0.795,0.388 -1.277,0.298c-0.371,-0.069 -0.938,-0.484 -1.095,-0.622c-0.722,-0.635 -2.148,-1.562 -3.53,-1.956c-0.806,-0.23 -1.654,-0.372 -1.969,0.492c-0.221,0.61 -0.094,1.203 0.215,1.774c0.437,0.806 1.194,1.559 2.098,2.27c2.711,2.133 6.717,3.806 9.089,4.624Z"/><path d="M160.331,152.89c0.025,-1.015 0.173,-2.099 0.546,-3.019c0.518,-1.277 1.427,-2.272 2.85,-2.671c1.235,-0.346 2.223,-0.236 3.008,0.127c1.145,0.529 1.95,1.668 2.328,3.294c1.03,4.44 -1.241,13.26 -1.589,15.175c-0.149,0.815 -0.93,1.356 -1.745,1.208c-0.465,-0.085 -0.841,-0.377 -1.05,-0.763c-1.548,-0.418 -3.059,-1.145 -4.442,-1.906c-1.643,-0.905 -6.618,-4.108 -8.283,-7.057c-1.036,-1.835 -1.03,-3.604 0.491,-5.051c0.97,-0.923 1.934,-1.321 2.851,-1.421c1.303,-0.143 2.563,0.351 3.716,1.111c0.458,0.303 0.899,0.645 1.319,0.973Zm4.64,10.311c0.585,-2.631 1.475,-6.903 1.372,-10.14c-0.024,-0.758 -0.103,-1.452 -0.274,-2.033c-0.12,-0.41 -0.252,-0.763 -0.533,-0.945c-0.246,-0.16 -0.575,-0.113 -1,0.006c-0.63,0.176 -0.874,0.767 -1.03,1.378c-0.245,0.961 -0.206,2.057 -0.117,2.871c0.015,0.139 0.095,1.142 -0.049,1.536c-0.28,0.766 -0.85,1.076 -1.514,1.074c-0.546,-0.002 -1.154,-0.192 -1.786,-0.568c-0.59,-0.352 -1.242,-0.892 -1.937,-1.423c-1.055,-0.807 -2.26,-1.822 -3.59,-0.557c-0.305,0.29 -0.282,0.645 -0.138,1.007c0.312,0.791 1.026,1.596 1.85,2.375c1.896,1.791 4.432,3.359 5.46,3.925c1.031,0.568 2.141,1.127 3.286,1.494Z"/><path d="M68.606,134.737c0.14,-0.1 0.752,-0.55 1.005,-1c0.725,-1.291 1.013,-2.82 1.319,-4.253c0.367,-1.713 0.696,-3.409 0.363,-5.153c-0.042,-0.217 -0.524,-1.708 -0.652,-2.509c-0.08,-0.504 -0.032,-0.9 0.033,-1.11c0.14,-0.455 0.414,-0.727 0.689,-0.895c0.283,-0.173 0.611,-0.262 0.995,-0.217c3.594,0.421 6.164,3.97 6.908,7.96c0.664,3.56 -0.158,7.316 -2.485,9.202c-1.615,1.307 -3.981,1.866 -7.225,0.764c-0.601,0.08 -1.027,-0.269 -1.058,-0.291c-0.447,-0.326 -0.786,-0.826 -0.559,-1.623c0.016,-0.056 0.066,-0.415 0.519,-0.772c0.048,-0.038 0.097,-0.072 0.148,-0.103Zm3.685,0.351c1.086,0.104 1.949,-0.129 2.601,-0.658c1.582,-1.281 1.876,-3.9 1.425,-6.32c-0.316,-1.696 -1.012,-3.369 -2.097,-4.429c0.009,0.04 0.016,0.069 0.019,0.087c0.41,2.145 0.076,4.236 -0.375,6.344c-0.359,1.678 -0.746,3.451 -1.573,4.976Z"/><path d="M101.822,103.49c-0.26,-0.782 0.161,-1.629 0.943,-1.894c0.784,-0.265 1.636,0.157 1.901,0.941c0.386,1.143 1.284,2.034 2.348,2.771c1.868,1.293 4.267,2.092 6.079,2.595c0.558,0.154 3.929,0.675 5.032,1.348c1.122,0.684 1.239,1.623 0.874,2.411c-2.55,5.513 -9.933,5.89 -13.956,2.065c-1.678,-1.596 -3.045,-3.587 -3.62,-5.851c-0.055,-0.215 -0.216,-2.733 -0.195,-3.2c0.027,-0.612 0.31,-0.975 0.594,-1.186Zm2.519,3.543l0.01,0.183c0.448,1.683 1.506,3.145 2.759,4.337c2.337,2.222 6.427,2.437 8.487,-0.063c-0.179,-0.053 -0.359,-0.103 -0.518,-0.14c-1.196,-0.275 -2.472,-0.469 -2.788,-0.556c-2.086,-0.579 -4.834,-1.531 -6.985,-3.02c-0.337,-0.233 -0.66,-0.48 -0.965,-0.741Zm-1.353,-0.875c-0.382,0.064 -0.789,-0.018 -1.128,-0.262c0.383,0.276 0.768,0.326 1.128,0.262Z"/><path d="M64.729,163.069c-0.826,0.04 -1.53,-0.598 -1.571,-1.425c-0.04,-0.827 0.599,-1.531 1.425,-1.572c0.746,-0.036 1.083,-0.836 1.293,-1.67c0.226,-0.897 0.219,-1.936 -0.054,-2.849c-0.223,-0.749 -0.619,-1.428 -1.298,-1.749c-0.749,-0.354 -1.069,-1.249 -0.715,-1.998c0.354,-0.748 1.249,-1.068 1.997,-0.714c2.721,1.287 3.721,5.098 2.979,8.043c-0.563,2.232 -2.06,3.837 -4.056,3.934Z"/><path d="M129.968,117.281c0.229,0.866 0.682,1.635 1.211,2.358c2.211,3.018 6.363,3.934 8.682,0.603c0.473,-0.68 1.409,-0.847 2.088,-0.374c0.68,0.473 0.847,1.408 0.374,2.088c-3.617,5.196 -10.115,4.163 -13.564,-0.544c-0.801,-1.093 -1.444,-2.278 -1.751,-3.606c-0.038,-0.161 -0.028,-0.484 -0.011,-0.75c-0.059,-0.138 -0.098,-0.286 -0.114,-0.443c-0.082,-0.824 0.52,-1.559 1.344,-1.642c0.845,-0.084 1.314,0.3 1.606,0.853c0.1,0.19 0.179,0.431 0.196,0.72c0.009,0.164 -0.038,0.56 -0.061,0.737Zm-1.947,0.641c0.147,0.039 0.313,0.054 0.504,0.035c-0.174,0.017 -0.344,0.004 -0.504,-0.035Z"/><g><path d="M102.021,246.582c-0.252,-0.366 -0.339,-0.84 -0.197,-1.296c0.937,-3.006 4.395,-4.365 7.64,-3.933c3.337,0.444 6.171,2.694 5.837,6.118c-0.505,5.175 -5.351,7.349 -9.016,5.977c-2.264,-0.847 -4.208,-3.036 -4.264,-6.866Zm2.953,-1.004c0.041,0.147 0.06,0.303 0.053,0.464c-0.101,2.523 0.888,4.064 2.31,4.597c2.053,0.769 4.695,-0.559 4.978,-3.459c0.171,-1.751 -1.541,-2.626 -3.247,-2.853c-1.556,-0.208 -3.316,0.086 -4.094,1.251Z"/><path d="M107.893,260.531c-0.328,0.095 -0.691,0.078 -1.027,-0.073c-1.252,-0.563 -0.994,-1.611 -0.926,-1.849c0.098,-0.343 0.346,-0.878 1.121,-1.061c0.119,-0.028 0.435,-0.059 0.845,-0.025c0.311,0.025 0.789,0.112 1.017,0.071c0.927,-0.165 1.832,-0.478 2.695,-0.852c2.638,-1.145 5.06,-2.821 5.959,-5.657c0.25,-0.79 1.094,-1.227 1.883,-0.977c0.79,0.25 1.227,1.094 0.977,1.883c-1.171,3.693 -4.191,6.013 -7.625,7.503c-1.075,0.466 -2.207,0.847 -3.363,1.053c-0.306,0.055 -1.077,0.016 -1.556,-0.016Zm0.491,-2.64c-0.079,-0.06 -0.174,-0.118 -0.289,-0.17c0.105,0.047 0.201,0.104 0.289,0.17Z"/></g><g><path d="M152.822,287.007c0.15,-0.842 0.364,-1.729 0.657,-2.298c0.413,-0.802 1.009,-1.343 1.72,-1.574c0.687,-0.222 1.563,-0.205 2.627,0.452c1.649,1.017 2.295,3.054 2.206,5.47c-0.102,2.745 -1.101,6.008 -1.304,7.76c-0.095,0.823 -0.84,1.413 -1.663,1.318c-0.614,-0.071 -1.099,-0.505 -1.265,-1.063c-1.691,-0.743 -4.241,-1.289 -6.163,-2.427c-1.819,-1.078 -3.145,-2.609 -3.328,-4.93c-0.077,-0.98 0.181,-1.7 0.576,-2.231c0.417,-0.559 1.016,-0.936 1.741,-1.12c1.279,-0.324 3.042,0.063 4.196,0.643Zm3.396,7.026c0.347,-1.573 0.755,-3.427 0.816,-5.087c0.026,-0.713 -0.011,-1.383 -0.191,-1.948c-0.115,-0.358 -0.285,-0.668 -0.593,-0.858c-0.026,-0.016 -0.056,-0.033 -0.087,-0.048c-0.078,0.166 -0.191,0.423 -0.244,0.622c-0.077,0.287 -0.135,0.591 -0.181,0.89c-0.182,1.179 -0.25,2.296 -0.352,2.589c-0.129,0.375 -0.334,0.591 -0.485,0.718c-0.083,0.069 -0.957,0.75 -1.918,0.016c-0.201,-0.153 -1.27,-1.08 -1.362,-1.159c-0.456,-0.306 -1.277,-0.561 -1.971,-0.533c-0.107,0.004 -0.268,0.043 -0.346,0.063c-0.004,0.049 -0.009,0.124 -0.004,0.182c0.128,1.632 1.418,2.442 2.818,3.071c1.351,0.608 2.848,1.033 4.1,1.482Z"/><path d="M176.76,273.9c0.006,-0.298 0.023,-0.604 0.063,-0.903c0.145,-1.072 0.583,-2.05 1.47,-2.687c1.136,-0.815 2.243,-0.729 3.23,-0.181c1.007,0.559 1.873,1.777 2.304,2.686c1.494,3.146 1.185,6.711 1.35,10.089c0.041,0.827 -0.598,1.531 -1.425,1.571c-0.455,0.023 -0.872,-0.161 -1.163,-0.468c-3.175,0.053 -7.083,-1.877 -9.531,-3.517c-0.654,-0.438 -1.681,-1.177 -2.292,-2.031c-0.632,-0.883 -0.874,-1.879 -0.527,-2.885c0.571,-1.661 2.016,-2.299 3.767,-2.227c0.828,0.034 1.886,0.295 2.754,0.553Zm5.38,7.109c-0.011,-2.358 0.002,-4.749 -1.023,-6.907c-0.156,-0.329 -0.402,-0.743 -0.714,-1.071c-0.071,-0.075 -0.146,-0.145 -0.224,-0.205c-0.036,-0.027 -0.094,-0.06 -0.133,-0.081c-0.001,0.001 -0.003,0.002 -0.004,0.002c-0.19,0.137 -0.206,0.384 -0.24,0.614c-0.081,0.55 -0.036,1.133 -0.027,1.591c0.01,0.509 -0.029,0.933 -0.112,1.212c-0.114,0.386 -0.311,0.662 -0.529,0.858c-0.195,0.176 -0.529,0.409 -1.081,0.391c-0.168,-0.005 -0.832,-0.206 -1.701,-0.502c-0.721,-0.246 -1.678,-0.548 -2.53,-0.568c-0.174,-0.004 -0.342,0.003 -0.496,0.037c-0.093,0.021 -0.186,0.048 -0.233,0.132c0.013,0.031 0.037,0.084 0.056,0.116c0.061,0.101 0.14,0.197 0.224,0.29c0.417,0.458 0.982,0.83 1.354,1.08c1.919,1.284 4.893,2.92 7.413,3.011Z"/><path d="M197.123,257.097c-0.018,-0.142 -0.033,-0.279 -0.043,-0.401c-0.143,-1.64 0.276,-3.2 2.292,-3.753c1.947,-0.533 3.363,0.38 4.264,2.245c1.365,2.827 1.282,8.441 1.2,10.093c-0.041,0.827 -0.746,1.465 -1.572,1.424c-0.364,-0.018 -0.692,-0.164 -0.94,-0.393c-0.186,0.03 -0.41,0.036 -0.663,-0.011c-0.288,-0.054 -0.785,-0.282 -1.052,-0.334c-0.765,-0.148 -1.514,-0.358 -2.248,-0.619c-1.125,-0.4 -2.68,-0.98 -3.934,-1.799c-1.03,-0.673 -1.858,-1.516 -2.28,-2.493c-0.396,-0.915 -0.368,-1.629 -0.188,-2.169c0.223,-0.67 0.703,-1.178 1.421,-1.493c0.662,-0.291 1.615,-0.394 2.587,-0.364c0.361,0.011 0.774,0.038 1.156,0.067Zm4.709,6.121c0.019,-0.004 0.037,-0.007 0.056,-0.011c0.001,-1.682 -0.104,-3.956 -0.588,-5.703c-0.152,-0.552 -0.336,-1.044 -0.595,-1.408c-0.134,-0.189 -0.297,-0.326 -0.54,-0.259c-0.145,0.039 -0.109,0.185 -0.11,0.301c-0.004,0.427 0.091,0.877 0.151,1.257c0.087,0.551 0.107,1.028 0.046,1.35c-0.082,0.432 -0.275,0.756 -0.518,0.995c-0.177,0.173 -0.542,0.441 -1.163,0.472c-0.408,0.02 -1.34,-0.107 -2.326,-0.166c-0.354,-0.022 -0.862,0.015 -1.222,0.048c0.237,0.37 0.624,0.669 1.045,0.944c1.048,0.684 2.358,1.149 3.299,1.484c0.592,0.21 1.195,0.38 1.811,0.5c0.138,0.026 0.418,0.116 0.654,0.196Z"/><path d="M150.9,279.778c0.203,0.276 0.313,0.623 0.287,0.991c-0.032,0.469 -0.223,0.715 -0.334,0.852c-0.276,0.341 -0.608,0.491 -0.948,0.541c-0.315,0.047 -0.689,0.012 -1.066,-0.245c-0.136,-0.092 -0.551,-0.669 -0.551,-0.669c-0,0 0.036,0.073 0.042,0.085c-0.329,-0.607 -0.602,-1.247 -0.908,-1.865c-0.553,-1.119 -1.14,-2.218 -1.749,-3.307c-1.958,-3.503 -4.014,-6.958 -6.284,-10.269c-0.468,-0.683 -0.293,-1.617 0.39,-2.085c0.683,-0.468 1.617,-0.294 2.085,0.389c2.321,3.386 4.425,6.918 6.428,10.501c0.633,1.133 1.243,2.277 1.819,3.44c0.268,0.542 0.508,1.104 0.789,1.641Zm-2.49,0.106c-0.094,0.144 -0.193,0.357 -0.215,0.676c0.017,-0.248 0.094,-0.478 0.215,-0.676Z"/><path d="M140.34,272.192c-0.818,0.124 -1.583,-0.439 -1.707,-1.258c-0.124,-0.819 0.44,-1.584 1.258,-1.708c0.55,-0.083 1.223,-0.483 1.917,-0.877c0.949,-0.538 1.907,-1.109 2.676,-1.395c0.776,-0.288 1.64,0.108 1.928,0.884c0.289,0.776 -0.107,1.64 -0.883,1.928c-0.797,0.296 -1.816,0.971 -2.789,1.497c-0.864,0.467 -1.708,0.825 -2.4,0.929Z"/><path d="M139.866,265.648c-0.001,-0 -0.001,-0 -0.002,-0c-0.203,-0.039 -0.389,-0.118 -0.551,-0.227c-0.182,-0.067 -0.653,-0.244 -0.693,-0.261c-1.199,-0.523 -3.527,-2.277 -4.527,-4.083c-0.547,-0.987 -0.725,-2 -0.473,-2.909c0.182,-0.662 0.584,-1.3 1.329,-1.841c1.239,-0.9 2.326,-1.018 3.23,-0.775c1.209,0.326 2.236,1.471 2.886,3.052c0.819,1.99 1.127,4.642 1.155,5.775c0.02,0.828 -0.636,1.516 -1.464,1.536c-0.33,0.008 -0.638,-0.092 -0.89,-0.267Zm-0.96,-3.78c-0.144,-0.717 -0.345,-1.465 -0.615,-2.123c-0.162,-0.393 -0.345,-0.751 -0.572,-1.027c-0.098,-0.119 -0.189,-0.234 -0.319,-0.269c-0.205,-0.055 -0.408,0.101 -0.688,0.305c-0.252,0.183 -0.2,0.435 -0.091,0.678c0.207,0.462 0.58,0.916 0.992,1.334c0.413,0.42 0.872,0.803 1.293,1.102Z"/><path d="M173.186,270.708c-0.064,-0.089 -0.514,-0.707 -1.27,-1.731c-0.911,-1.234 -1.796,-2.487 -2.689,-3.734c-2.554,-3.563 -5.089,-7.142 -7.557,-10.766c-0.466,-0.684 -0.289,-1.618 0.395,-2.084c0.685,-0.466 1.619,-0.289 2.085,0.395c2.454,3.604 4.975,7.163 7.515,10.707c0.885,1.236 1.762,2.478 2.664,3.7c0.868,1.174 1.284,1.745 1.352,1.847c1.036,1.536 -1.152,2.356 -1.262,2.354c-0.519,-0.01 -0.971,-0.282 -1.233,-0.688Zm-0.238,-0.84c0.015,-0.828 0.7,-1.487 1.528,-1.471c-0.441,-0.009 -0.774,0.152 -1.034,0.387c-0.239,0.216 -0.488,0.547 -0.494,1.084Z"/><path d="M162.122,254.302c-0.291,-0.034 -0.615,-0.104 -0.96,-0.22c-1.769,-0.596 -4.495,-2.358 -5.026,-2.99c-0.731,-0.871 -1.357,-2.026 -1.375,-3.198c-0.013,-0.897 0.282,-1.525 0.692,-1.975c0.414,-0.454 0.981,-0.745 1.651,-0.853c1.307,-0.211 3.122,0.409 3.943,0.989c2.362,1.671 3.528,4.583 3.889,7.353c0.107,0.821 -0.473,1.574 -1.294,1.681c-0.639,0.083 -1.236,-0.249 -1.52,-0.787Zm-0.997,-3.545c-0.417,-0.888 -1.001,-1.68 -1.811,-2.253c-0.261,-0.185 -0.737,-0.368 -1.207,-0.45c-0.091,-0.016 -0.218,-0.021 -0.328,-0.022c0.077,0.424 0.383,0.807 0.654,1.13c0.158,0.187 0.638,0.491 1.2,0.835c0.399,0.245 0.968,0.522 1.492,0.76Z"/><path d="M162.148,258.988c0.117,-0.098 0.719,-0.607 1.111,-1.022c1.091,-1.155 2.289,-2.644 2.804,-3.129c0.603,-0.567 1.553,-0.538 2.12,0.065c0.567,0.603 0.539,1.553 -0.064,2.12c-0.585,0.55 -2.071,2.439 -3.247,3.581c-0.794,0.772 -1.573,1.219 -2.036,1.3c-0.816,0.143 -1.594,-0.403 -1.737,-1.219c-0.133,-0.757 0.329,-1.482 1.049,-1.696Z"/><path d="M185.542,239.836c0.672,0.533 1.44,1.371 2.222,2.381c1.904,2.462 4.008,6.004 5.215,7.564c0.267,0.344 1.304,1.339 1.893,2.133c0.519,0.699 0.722,1.387 0.703,1.799c-0.039,0.827 -0.741,1.467 -1.568,1.429c-0.714,-0.033 -1.288,-0.561 -1.408,-1.236c-0.082,-0.115 -0.326,-0.452 -0.518,-0.673c-0.581,-0.668 -1.263,-1.343 -1.475,-1.617c-1.042,-1.346 -2.749,-4.158 -4.423,-6.495c-0.761,-1.063 -1.492,-2.031 -2.142,-2.636c-0.438,-0.072 -0.826,-0.338 -1.051,-0.724c-1.501,-0.818 -3.648,-1.59 -5.113,-2.815c-1.461,-1.221 -2.365,-2.81 -2.035,-5.033c0.142,-0.959 0.716,-1.818 1.624,-2.227c1.623,-0.733 3.117,-0.296 4.401,0.906c1.801,1.686 3.118,5.22 3.675,7.244Zm-3.847,-2.011c-0.359,-0.843 -0.793,-1.683 -1.295,-2.37c-0.277,-0.377 -0.569,-0.706 -0.894,-0.924c-0.216,-0.145 -0.449,-0.223 -0.701,-0.15c-0.184,1.338 0.689,2.129 1.701,2.773c0.379,0.241 0.78,0.462 1.189,0.671Zm-2.911,-3.437c-0.027,0.009 -0.056,0.019 -0.084,0.032c0.027,-0.012 0.061,-0.018 0.084,-0.032Z"/><path d="M185.725,247.101c-0.089,0.212 -0.229,0.406 -0.417,0.564c-0.634,0.533 -1.581,0.451 -2.113,-0.183c-0.228,-0.27 -0.364,-0.603 -0.362,-1.005c0.001,-0.214 0.05,-0.498 0.212,-0.794c0.121,-0.22 0.405,-0.537 0.455,-0.594c1.887,-2.161 4.191,-4.399 6.591,-5.977c0.692,-0.455 1.623,-0.263 2.078,0.429c0.454,0.692 0.262,1.623 -0.43,2.078c-2.181,1.434 -4.264,3.479 -5.979,5.443c-0.005,0.005 -0.018,0.02 -0.035,0.039Z"/></g><path d="M123.825,283.353c0.004,-0.058 0.007,-0.118 0.008,-0.147c0.042,-1.094 -0.419,-2.262 -0.817,-3.26c-0.55,-1.376 -1.314,-2.938 -2.366,-4.182c-0.894,-1.057 -1.997,-1.894 -3.407,-1.999c-0.825,-0.061 -1.446,-0.78 -1.385,-1.606c0.061,-0.826 0.781,-1.446 1.607,-1.385c1.815,0.134 3.354,0.952 4.629,2.156c1.694,1.598 2.909,3.902 3.708,5.904c0.546,1.368 1.087,2.989 1.029,4.488c-0.01,0.243 -0.102,0.862 -0.136,0.949c-0.334,0.858 -1.023,0.952 -1.363,0.961c-0.193,0.005 -1.334,0.032 -1.532,-1.311c-0.028,-0.195 -0.018,-0.387 0.025,-0.568Zm0.572,-0.86c0.089,-0.065 0.185,-0.121 0.287,-0.165c-0.097,0.039 -0.194,0.093 -0.287,0.165Zm2.321,0.768c0.022,0.072 0.039,0.146 0.05,0.223c-0.013,-0.086 -0.03,-0.16 -0.05,-0.223Z"/><path d="M117.398,283.849c-0.051,-0.332 -0.135,-0.832 -0.203,-1.027c-0.434,-1.256 -1.184,-2.59 -1.988,-3.642c-0.503,-0.657 -0.377,-1.6 0.28,-2.103c0.658,-0.503 1.6,-0.377 2.103,0.281c0.99,1.294 1.906,2.938 2.441,4.483c0.212,0.613 0.431,2.287 0.398,2.535c-0.126,0.946 -0.808,1.195 -1.115,1.276c-0.182,0.047 -1.391,0.305 -1.858,-1.082c-0.081,-0.24 -0.097,-0.487 -0.058,-0.721Zm2.843,-0.384c0.022,0.048 0.042,0.098 0.059,0.149c-0.018,-0.054 -0.038,-0.103 -0.059,-0.149Z"/><path d="M189.035,222.997c0.227,-0.796 1.058,-1.258 1.854,-1.031c0.796,0.227 1.258,1.058 1.031,1.854c-0.34,1.191 0.02,2.588 0.652,3.924c1.045,2.209 2.901,4.271 4.552,5.059c0.747,0.356 1.064,1.253 0.707,2c-0.356,0.747 -1.252,1.064 -1.999,0.707c-2.138,-1.02 -4.618,-3.622 -5.972,-6.483c-0.967,-2.044 -1.345,-4.207 -0.825,-6.03Z"/><path d="M198.208,223.153c0.64,1.549 1.875,3.379 3.494,3.912c0.786,0.258 1.215,1.107 0.956,1.893c-0.259,0.787 -1.107,1.215 -1.894,0.956c-2.443,-0.804 -4.47,-3.455 -5.392,-5.77c-0.114,-0.287 -0.175,-0.635 -0.169,-1.019c0.003,-0.227 0.044,-0.595 0.08,-0.876c-0.169,-0.233 -0.273,-0.517 -0.284,-0.825c-0.03,-0.827 0.617,-1.524 1.445,-1.554c0.897,-0.032 1.393,0.386 1.691,0.998c0.151,0.31 0.237,0.772 0.185,1.317c-0.025,0.269 -0.093,0.815 -0.112,0.968Z"/><path d="M136.062,297.289c0.436,-0.088 1.384,-0.271 1.771,-0.272c0.977,-0.003 1.948,0.166 2.892,0.404c3.279,0.824 7.036,2.336 9.06,5.184c0.48,0.674 0.322,1.611 -0.353,2.091c-0.675,0.48 -1.612,0.322 -2.092,-0.353c-1.623,-2.284 -4.717,-3.352 -7.346,-4.013c-0.704,-0.177 -1.426,-0.315 -2.154,-0.313c-0.353,0 -1.249,0.225 -1.375,0.252c-1.291,0.277 -4.098,-2.059 -0.595,-2.944c0.064,-0.017 0.128,-0.028 0.192,-0.036Z"/><path d="M139.6,302.856c0.479,0.146 4.975,1.52 5.496,1.777c0.743,0.365 1.05,1.264 0.685,2.007c-0.364,0.743 -1.264,1.05 -2.007,0.685c-0.536,-0.263 -4.535,-1.356 -5.393,-1.723c-0.663,-0.283 -0.888,-0.732 -0.95,-0.874c-0.33,-0.759 0.018,-1.644 0.777,-1.974c0.47,-0.205 0.988,-0.15 1.392,0.102Z"/><path d="M212.341,257.899c0.555,0.615 0.506,1.564 -0.109,2.118c-0.615,0.555 -1.564,0.506 -2.119,-0.109c-2.485,-2.756 -2.611,-7.665 -2.318,-11.213c0.069,-0.825 0.794,-1.439 1.619,-1.371c0.825,0.068 1.439,0.793 1.371,1.618c-0.147,1.78 -0.228,3.978 0.189,5.95c0.242,1.141 0.646,2.207 1.367,3.007Z"/><path d="M216.347,254.559c-0.192,0.805 -1.002,1.303 -1.807,1.11c-0.806,-0.192 -1.303,-1.002 -1.111,-1.807c0.092,-0.386 -0.058,-1.001 -0.17,-1.637c-0.172,-0.973 -0.36,-1.973 -0.349,-2.662c0.014,-0.827 0.696,-1.489 1.524,-1.476c0.828,0.014 1.489,0.696 1.476,1.524c-0.011,0.674 0.249,1.709 0.395,2.639c0.142,0.907 0.176,1.746 0.042,2.309Z"/><path d="M89.769,262.608c-0.386,0.121 -0.819,0.087 -1.196,-0.13c-0.697,-0.4 -0.797,-0.919 -0.834,-1.139c-0.069,-0.405 0.016,-0.768 0.232,-1.093c0.143,-0.217 0.377,-0.464 0.783,-0.605c0.145,-0.051 0.436,-0.115 0.827,-0.089c0.54,0.034 1.616,0.246 2.083,0.392c1.211,0.378 2.337,0.953 3.465,1.524c0.739,0.374 1.035,1.277 0.662,2.016c-0.374,0.738 -1.277,1.035 -2.016,0.661c-0.98,-0.496 -1.953,-1.009 -3.005,-1.337c-0.194,-0.061 -0.661,-0.144 -1.001,-0.2Zm0.565,-2.536c-0.073,-0.069 -0.161,-0.135 -0.268,-0.196c0.098,0.056 0.188,0.122 0.268,0.196Z"/><path d="M86.075,254.164c0.39,-0.182 0.942,-0.421 1.202,-0.446c1.086,-0.104 2.194,-0.035 3.273,0.106c3.266,0.426 6.562,1.261 9.135,3.407c0.636,0.53 0.722,1.477 0.191,2.113c-0.53,0.636 -1.477,0.721 -2.112,0.191c-2.132,-1.778 -4.896,-2.384 -7.602,-2.736c-0.816,-0.107 -1.653,-0.171 -2.476,-0.105c-0.143,0.076 -0.658,0.35 -0.862,0.438c-0.378,0.163 -0.705,0.186 -0.914,0.168c-0.529,-0.046 -0.895,-0.298 -1.146,-0.654c-0.185,-0.262 -0.408,-0.692 -0.226,-1.371c0.187,-0.7 0.841,-1.152 1.537,-1.111Zm1.412,1.537c-0.003,0.115 -0.02,0.232 -0.051,0.348c0.034,-0.126 0.049,-0.242 0.051,-0.348Z"/><path d="M182.337,190.964c-0.025,-0.478 0.18,-0.961 0.59,-1.273c0.629,-0.478 1.141,-0.368 1.376,-0.31c0.579,0.145 1.106,0.525 1.153,1.41c0.008,0.154 -0.01,0.438 -0.138,0.789c-0.089,0.244 -0.363,0.915 -0.407,1.022c-0.139,2.243 0.481,4.683 1.288,6.754c0.301,0.771 -0.081,1.641 -0.853,1.942c-0.771,0.301 -1.641,-0.081 -1.942,-0.853c-0.97,-2.487 -1.667,-5.43 -1.481,-8.119c0.02,-0.288 0.25,-0.934 0.414,-1.362Z"/><path d="M188.565,190.808c0.628,-0.541 1.576,-0.47 2.116,0.157c0.54,0.628 0.47,1.575 -0.158,2.116c-0.097,0.083 -0.102,0.234 -0.132,0.387c-0.049,0.251 -0.064,0.528 -0.061,0.816c0.017,1.322 0.42,2.835 0.658,3.562c0.257,0.787 -0.174,1.634 -0.961,1.891c-0.787,0.257 -1.634,-0.173 -1.891,-0.96c-0.352,-1.078 -0.955,-3.523 -0.768,-5.347c0.114,-1.124 0.53,-2.048 1.197,-2.622Z"/><g><path d="M129.412,243.641c0.849,-0.139 1.706,-0.425 2.489,-0.767c2.586,-1.131 5.065,-2.809 6.432,-5.331c0.395,-0.728 1.306,-0.998 2.034,-0.604c0.728,0.395 0.998,1.306 0.603,2.034c-1.686,3.11 -4.678,5.256 -7.868,6.65c-1.066,0.466 -2.243,0.841 -3.398,1.009c-0.182,0.026 -0.575,-0.022 -0.887,-0.07c-0.719,0.22 -1.505,-0.13 -1.813,-0.835c-0.251,-0.575 -0.139,-1.006 -0.005,-1.305c0.155,-0.346 0.415,-0.628 0.818,-0.799c0.188,-0.08 0.456,-0.148 0.791,-0.127c0.172,0.011 0.636,0.109 0.804,0.145Z"/><path d="M148.66,229.197c0.568,-0.089 3.407,-0.538 3.619,-0.624c2.577,-1.04 5.571,-2.698 6.743,-5.319c0.338,-0.756 1.226,-1.095 1.982,-0.757c0.756,0.338 1.095,1.226 0.757,1.982c-1.478,3.303 -5.112,5.565 -8.359,6.876c-0.313,0.126 -4.24,0.879 -4.94,0.856c-0.616,-0.02 -0.947,-0.308 -1.085,-0.442c-0.5,-0.486 -0.635,-1.06 -0.309,-1.739c0.295,-0.614 0.953,-0.936 1.592,-0.833Zm1.23,1.18c0.064,0.31 0.031,0.643 -0.117,0.95c0.164,-0.341 0.184,-0.658 0.117,-0.95Z"/><path d="M168.884,213.721c0.266,0.06 0.633,0.134 0.791,0.128c1.012,-0.039 2.001,-0.34 2.926,-0.738c3.029,-1.304 5.698,-3.297 6.366,-6.65c0.162,-0.812 0.952,-1.34 1.764,-1.178c0.812,0.162 1.34,0.952 1.178,1.764c-0.869,4.367 -4.177,7.122 -8.122,8.819c-1.263,0.543 -2.618,0.928 -3.998,0.98c-0.645,0.025 -2.282,-0.375 -2.502,-0.499c-0.797,-0.451 -0.801,-1.142 -0.772,-1.457c0.018,-0.198 0.196,-1.437 1.669,-1.376c0.255,0.011 0.494,0.085 0.7,0.207Zm-0.553,2.777c-0.089,0.013 -0.18,0.017 -0.273,0.014c0.101,0.004 0.192,-0.002 0.273,-0.014Z"/><path d="M123.573,230.751c0.654,-2.578 2.259,-3.881 4.006,-4.31c4.005,-0.982 9.156,2.973 6.786,8.398c-2.779,6.364 -12.575,2.938 -10.792,-4.088Zm2.908,0.737c-0.86,3.39 3.794,5.22 5.135,2.15c1.189,-2.723 -1.311,-4.777 -3.322,-4.283c-0.831,0.204 -1.502,0.907 -1.813,2.133Z"/><path d="M144.375,214.855c1.829,-2.536 4.363,-3.102 6.511,-2.513c3.232,0.885 5.685,4.498 3.749,8.534c-1.666,3.471 -5.326,4.426 -8.567,2.48c-0.687,-0.412 -1.768,-1.683 -2.308,-3.309c-0.544,-1.635 -0.559,-3.565 0.615,-5.192Zm2.433,1.755c-0.561,0.777 -0.461,1.709 -0.201,2.49c0.262,0.791 0.671,1.484 1.005,1.684c1.629,0.979 3.481,0.539 4.318,-1.206c0.98,-2.042 -0.202,-3.895 -1.837,-4.343c-1.096,-0.3 -2.352,0.081 -3.285,1.375Z"/><path d="M167.399,199.411c2.042,-1.064 4.05,-0.898 5.59,-0.058c2.366,1.291 3.67,4.217 2.395,7.127c-1.697,3.874 -6.481,4.433 -8.981,2.202c-1.098,-0.981 -1.819,-2.484 -1.634,-4.517c0.064,-0.706 0.343,-1.887 0.873,-2.884c0.434,-0.815 1.04,-1.496 1.757,-1.87Zm1.386,2.661c-0.222,0.115 -0.361,0.368 -0.495,0.62c-0.321,0.603 -0.495,1.317 -0.534,1.745c-0.081,0.892 0.163,1.577 0.645,2.007c1.188,1.06 3.429,0.673 4.235,-1.168c0.587,-1.34 0.006,-2.695 -1.083,-3.289c-0.763,-0.416 -1.757,-0.442 -2.768,0.085Z"/></g></g></g></svg>