<?xml version="1.0" encoding="UTF-8"?><svg id="Layer_1" xmlns="http://www.w3.org/2000/svg" viewBox="0 0 1200 1200"><path d="M661.81,989.29c-.03,2.02,.73,3.79,1.08,5.64,.84,4.52-.53,6.38-5.16,6.41-15.91,.09-31.81,.1-47.72,.12-2.82,0-5.63,.05-8.41,.63-.79,.16-1.65,.28-2.43,.14-7.58-1.4-15.23-.71-22.85-.82-10.81-.16-21.63-.03-32.45-.02-.64,0-1.27,0-1.91-.03-4.27-.18-5.7-1.98-4.95-6.15,.35-1.94,1.11-3.81,1.15-5.72-.49-.42-.94-.43-1.4-.43-31.54,.3-63.08,.39-94.61,.97-16.9,.31-33.79,1.02-50.68,1.71-12.52,.52-25.02,1.64-37.53,2.38-5.99,.35-11.99,.5-17.98,.61-5.63,.11-11.26,.24-16.89,.62-1.08,.07-2.19,.08-3.27-.06-2.64-.35-4-1.81-4.23-4.53-.24-2.81-.46-5.62-.55-8.43-.14-4.36,1.74-6.25,6.21-6.29,5.64-.06,11.27-.05,16.91-.08,.99,0,2,.14,2.96-.26,.37-1.06,1.96-60.75,1.7-63.88-.14-.11-.26-.29-.41-.32-4.76-.87-5.76-2.1-5.53-7,.09-1.81,.38-3.61,.53-5.42,.39-4.61,1.79-6.09,6.73-6.66-.81-24.63-1.05-49.32-.68-74.01,.37-24.61,1.03-49.21,1.56-73.82-1.74-.31-2.52,.78-3.53,1.29-2.16,1.08-3.61,.95-5-1.03-2.35-3.35-4.06-7.09-5.65-10.85-.94-2.21,.37-5.36,2.35-6.75,.52-.37,1.08-.66,1.63-.98,54.23-31.47,109.5-61.08,163.88-92.28,10.17-5.83,20.33-11.67,30.52-17.46,1.26-.72,1.77-1.59,1.82-3.03,.74-20.27,.64-40.54-.17-60.8-.27-6.81-.82-13.6-.84-20.42,0-.72,.07-1.46-.33-2.12-.48-.54-1.14-.48-1.77-.52-4-.27-6.7-2.75-7.17-6.79-.41-3.58,.1-7.08,1.36-10.44,.93-2.47,2.01-3,4.62-2.43,.91,.2,1.78,.29,2.6,0,.68-.76,.51-1.61,.53-2.41,.26-12.08,.47-24.17,.18-36.25-.04-1.54-.04-2.88-1.91-3.38-.79-.21-1.27-1-1.82-1.6-3.32-3.62-6.23-7.58-9.62-11.14-1.88-1.97-1.56-4.87,.41-6.8,.45-.44,.93-.88,1.28-1.4,8.41-12.42,18.75-23.15,29.41-33.59,2.19-2.14,3.7-4.5,4.85-7.36,7.31-18.21,15.32-36.12,23.33-54.03,6.83-15.25,14.17-30.28,20.52-45.75,.89-2.17,.81-3.63-.94-5.25-2.16-2-3.82-4.39-4.06-7.49-.37-4.85,1.7-8.73,5.69-11.02,3.26-1.88,3.71-4.23,3.69-7.54-.05-13.1-.78-26.16-1.56-39.22-.1-1.72-.11-3.45-.19-5.18-.05-.98,.1-2.02-.71-2.93-1.92-.41-3.9-.06-5.89,.06-1.81,.11-3.63,.29-5.44,.22-2.05-.08-3.27-1.23-3.39-2.87-.13-1.8,.98-3,3.13-3.43,3.31-.66,6.72-.36,10.04-.93,.44-.08,.89-.16,1.29-.24,.78-.91,.5-1.95,.53-2.92,.21-5.08,.38-10.17,.59-15.26,.03-.72,.17-1.44,.32-2.15,.33-1.53,1.29-2.41,2.86-2.39,1.59,.02,2.49,1.06,2.86,2.48,.22,.86,.21,1.8,.21,2.71-.01,4.45-.07,8.91-.08,13.36,0,1.08-.15,2.18,.23,3.27,.93,.83,2.06,.42,3.11,.44,2.27,.05,4.54-.42,6.8-.04,1.83,.31,2.94,1.48,2.94,3.02,0,1.48-.9,2.46-2.7,2.93-2.13,.56-4.35,.32-6.5,.64-1.07,.16-2.14,.33-3.59,.55,.72,17.33,2.29,34.59,1.34,51.87,1.34,.7,2.53,.76,3.65,1.05,8.13,2.05,11.55,10.14,10.95,16.2-.27,2.76-1.69,5.01-3.92,6.62-1.45,1.05-1.63,2.07-.95,3.69,4.61,10.96,8.67,22.16,13.88,32.87,2.59,5.32,4.71,10.82,7,16.26,5.62,13.39,10.66,27.04,17.02,40.12,3.46,7.11,6.04,14.6,9.13,21.87,1.78,4.18,3.52,8.36,5.27,12.55,.36,.87,1.04,1.49,1.7,2.1,7.18,6.71,13.71,14.05,20.6,21.04,1.86,1.88,3.51,3.93,5.06,6.07,1.46,2.03,1.37,4.06-.06,6.06-1.93,2.69-4.27,4.94-7.2,6.55-1.55,.85-2.92,.71-4.22-.58-.83-.83-1.51-1.82-2.28-2.71-.63-.73-1.13-1.62-2.08-1.95-.77,.68-.55,1.45-.56,2.14-.13,10.45-.44,20.9-1.01,31.34-.12,2.18-.28,4.35-.47,6.52-.14,1.58,.44,2.42,2.13,2.35,2.54-.11,5.02,.77,7.6,.4,1.89-.27,3.13,.9,3.73,2.57,1.65,4.66,2.73,9.43,2.34,14.42-.24,3.07-1.99,4.89-5.07,5.47-2.98,.56-5.98,.33-8.98,.41-1.64,.04-2.39,.55-2.48,2.38-.95,19.61-1.65,39.23-1.39,58.87,.09,6.63,.33,13.27,.44,19.9,.02,1.44,.55,2.31,1.81,3.03,45.41,26.03,90.92,51.86,136.86,76.95,16.43,8.98,32.49,18.6,48.69,27.97,3.07,1.77,6.23,3.37,9.32,5.11,3.71,2.09,4.73,5.46,2.82,9.23-1.23,2.43-2.45,4.87-3.74,7.27-1.59,2.95-3.51,4.99-7.37,2.13-.49-.36-1-.82-1.83-.66-.69,.57-.44,1.44-.43,2.2,.44,21.63,.99,43.25,1.33,64.88,.32,20.54,.47,41.08-.12,61.62-.18,6.34-.03,12.7-.03,19.25,.34,.4,1.03,.06,1.63,.19,2.22,.49,3.87,1.67,4.29,4.01,.56,3.13,.99,6.29,.95,9.47-.04,3.15-1.33,4.58-4.47,5.18-.44,.08-.89,.14-1.65,.26,.13,21.33,1.74,42.61,1.27,63.64,1.26,.99,2.3,.73,3.27,.74,5.54,.05,11.09,.06,16.63,.08,1.18,0,2.35,.02,3.48,.5,2.65,1.14,3.28,2.09,3.33,4.98,.05,3.19-.34,6.35-.62,9.52-.23,2.61-1.76,4.06-4.47,4.28-1.8,.14-3.64,.09-5.45-.03-8.89-.6-17.8-.64-26.7-.97-11.17-.41-22.31-1.22-33.46-1.99-8.34-.57-16.7-.82-25.05-1.15-41.06-1.62-82.14-1.66-123.23-1.87-2.7-.01-5.4,0-8.2,0Zm-118.05-15.78c1.62,.39,2.99,.16,4.35,.25,1.84,.12,3.6,.18,4.85-1.65,.5-.74,1.51-1.09,2.44-1,1.88,.18,2.51-.93,3-2.46,.88-2.78,1.92-5.51,4.17-7.54,.86-.78,.81-1.76,.77-2.77-.37-9.99-.74-19.98-1.1-29.97-.87-23.81-1.22-47.6,2.94-71.21,3.43-19.44,11.29-36.53,26.41-49.77,1.55-1.36,3.34-2.5,4.21-4.55,.33-.77,1.16-1.21,2-1.26,1.45-.09,2.91-.11,4.35,0,1.05,.08,1.92,.71,2.32,1.7,.51,1.26,1.5,2.01,2.46,2.84,5.65,4.91,10.67,10.33,14.83,16.62,5.45,8.22,9.05,17.18,11.36,26.68,2.63,10.79,3.95,21.78,4.56,32.86,.83,15.08,.7,30.16,.12,45.24-.4,10.35-.78,20.7-1.17,31.06-.03,.82-.11,1.67,.58,2.29,2.47,2.23,3.51,5.24,4.57,8.25,.24,.68,.4,1.68,1.15,1.72,2.31,.12,4.2,.93,5.68,2.71,.14,.17,.51,.19,.77,.19,2.24,.01,4.49,0,6.83,0,.02-20.97-.4-41.56,.09-61.84-1.05-.88-1.88-.92-2.69-1.06-2.34-.39-3.76-1.83-4.22-4.08-.66-3.2-1.29-6.41-1.5-9.68-.2-3.14,.86-4.46,4.03-5.07,1.24-.24,2.49-.37,3.54-.9,.46-1.01,.3-1.94,.3-2.83,0-10.63-.01-21.27-.01-31.9,0-30.08-1.3-60.15-.85-90.24,.32-21.27-.17-42.54-.06-63.8,.11-22.36-.2-44.72-.1-67.07,.07-17.37-1.39-34.68-1.32-52.05,.07-15.81-.25-31.63-.42-47.44-.03-2.76-.17-2.89-2.68-2.93-17.63-.28-35.24-1.25-52.87-1.07-8.37,.09-16.71-.55-25.07-.73-5.36-.12-10.7-.6-16.06-.82-2.96-.12-5.93-.02-8.92-.02-.48,1.27-.38,2.46-.39,3.63-.09,10.82-.17,21.63-.24,32.45-.14,19.81-1.09,39.61-1.32,59.41-.47,40.17-.37,80.34-.44,120.51-.03,15.9,.4,31.81,.12,47.71-.55,31.35-1.03,62.7-.9,94.06,0,1.06-.26,2.18,.36,3.19,1.19,.53,2.47,.63,3.71,.9,2.96,.63,3.99,1.96,3.8,5-.2,3.27-.85,6.48-1.49,9.68-.42,2.13-1.74,3.53-3.92,4.07-2.94,.72-2.97,.75-2.93,3.68,.21,14.9,.27,29.81,.04,44.71-.07,4.71-.01,9.42-.01,14.29Zm-17.65-332.16c-.95-.16-1.42,.34-1.92,.7-3.61,2.63-7.47,4.85-11.45,6.86-25.77,13.06-51.06,27.04-76.48,40.76-22.87,12.34-45.34,25.39-68.03,38.05-1.42,.79-2.36,1.61-2.4,3.51-.44,20.8-1.25,41.6-1.95,62.39-.8,23.43-1.31,46.88-1.33,70.33,0,8.36,.04,16.72-.41,25.08-.05,.86-.37,1.81,.43,2.67,2.33,.56,4.83-.06,7.22,.65,2.7,.79,3.88,2.22,3.58,4.94-.39,3.43-.77,6.86-1.02,10.3-.2,2.79-1.66,4.25-4.38,4.8-.86,.17-1.84-.14-2.58,.65-.5,1.21-.32,2.49-.3,3.75,.28,17.72,0,35.45-.16,53.17-.02,1.98,.16,4.03-1.93,5.75,2.52,.39,4.5,.14,6.47,.1,17.72-.35,35.41-1.29,53.12-1.82,27.34-.82,54.7-1.26,82.06-.74,6,.11,11.97,.77,17.98,.6,.97-.03,2,.25,2.88-.36,.23-1.06-.29-59.78-.53-60.62-5.38-.61-5.66-.95-5.68-6.68-.01-4.09,.01-8.18-.08-12.27-.09-3.95,1.16-4.88,4.98-3.59,.14,.05,.33-.07,.64-.15,0-1.67,.01-3.37,0-5.07-.3-40.54-.73-81.07-.41-121.61,.15-18.99,.98-37.98,1.31-56.97,.36-20.72-.15-41.45,.65-62.16,.04-.98,.19-2-.28-3.01Zm311.57,250.1c.34-.87,.16-1.78,.14-2.67-.1-3.45-.26-6.9-.33-10.36-.27-14.9-.09-29.8-.52-44.71-.57-19.89-.75-39.79-1.7-59.68-.68-14.25-.84-28.52-1.16-42.78-.04-1.55-.5-2.51-1.89-3.26-4-2.16-7.94-4.41-11.89-6.66-40.57-23.13-81.52-45.57-122.94-67.14-7.57-3.94-15.35-7.52-22.28-12.59-.38-.28-.8-.43-1.36-.15-.41,1.82-.22,3.73-.14,5.62,.68,15.99,.41,31.99,.51,47.98,.03,5.36,.07,10.73,.2,16.09,.39,16.63,.99,33.25,1.21,49.88,.43,33.08-.27,66.17-.17,99.25,.03,9.45-.08,18.9-.35,28.35-.02,.59-.31,1.29,.41,1.68,.54,.13,.88-.25,1.31-.37,2.48-.69,3.99,.32,4,2.87,.03,5.27-.02,10.54-.14,15.81-.06,2.81-1.26,3.92-4.03,4.06-.62,.03-1.28-.21-1.78,.36-.32,1.95-.49,59.7-.18,60.6,.97,.36,1.97,.18,2.97,.21,6.01,.17,11.98-.55,17.98-.6,32.99-.27,65.98-.21,98.94,1.58,13.16,.72,26.35,.47,39.52,1.07,.79,.04,1.63,.22,2.66-.42-1.89-1.55-1.63-3.71-1.65-5.78-.15-17.72-.44-35.45-.15-53.17,.02-1.24,.27-2.55-.49-3.78-.31-.08-.66-.19-1.01-.24-4.49-.6-5.58-1.81-5.87-6.26-.18-2.72-.49-5.43-.83-8.13-.45-3.63,.68-5.28,4.27-5.95,.98-.18,1.99-.15,2.98-.24,1.24-.12,2.55,.28,3.76-.48Zm-185.34-383.49c.71-1.19,.5-2.12,.5-3.01,0-9.63,.54-19.24,1.04-28.86,.36-7.06,.94-14.13,.39-21.24-.25-3.25-1.03-6.5-.66-9.76,.2-1.75-.37-2.87-1.58-4.02-5.32-5.09-10.5-10.35-15.11-16.08-11.06-13.72-22.29-27.3-34.13-40.36-.42-.46-.72-1.08-1.61-1.04-.92,.59-1.62,1.55-2.4,2.43-3.67,4.16-7.29,8.35-10.99,12.47-12.39,13.78-24.82,27.52-36.86,41.62-2.07,2.43-3.04,4.92-3.25,8.05-1.25,19.14-1.01,38.32-1.76,57.47-.04,1.06-.22,2.19,.64,3.31,35.21,.92,70.5-1.03,105.79-.97Zm-119.79,21.82c-.62,1.3-.39,2.4-.42,3.48-.2,9.83,1.04,19.6,1.12,29.41,.1,12.63,.33,25.28-.02,37.9-.6,22.26-1.15,44.52-1.42,66.78-.3,24.45-.65,48.89-1.01,73.34-.71,48.44-.58,96.89,.28,145.33,.09,4.86-.91,4.9,5.25,4.78,.45,0,.91-.04,1.37-.47,.62-1.08,.33-2.38,.34-3.62,.27-23.63,.36-47.26,.81-70.89,.48-25.45,.2-50.9,.25-76.35,.03-15.36,.25-30.72,.11-46.08-.16-18.18,.01-36.36,.01-54.54,0-17.91,1.18-35.79,1.38-53.69,.2-17.63-.36-35.27,.5-52.89,.02-.36,0-.73,0-1.09,0-.96-.43-1.57-1.45-1.58-2.34-.02-4.7-.27-7.11,.17Zm129.8,360.68c1.26,.64,2.64,.25,3.98,.36,1.69,.13,2.48-.53,2.52-2.32,.08-4,.43-7.99,.44-11.99,.08-39.54,.11-79.08,.16-118.62,.03-21.73-1.43-43.43-1.18-65.16,.23-19.91-.53-39.81-.67-59.71-.05-7.09-.33-14.17-.56-21.26-.63-19.36-.7-38.71,.05-58.06,.23-5.9,.88-11.79,.71-17.7-.03-.97,.26-2.01-.45-2.85-2.83-.49-5.99-.39-8.11,.28-.56,2.11-.01,4.28,0,6.44,.16,27.17,.1,54.34,1.11,81.52,.99,26.8,.42,53.62,.37,80.44-.05,27.91,.17,55.81,.04,83.72-.06,13.27,.45,26.54,.6,39.81,.23,20.72,.37,41.45,.56,62.17,0,.97-.21,2,.43,2.95Zm-59.25-22.3c-.41,30.73-1.09,60.92-.68,91.06,.59,.19,.84,.34,1.09,.34,8.36,.02,16.71,.01,25.07,.06,1.61,0,2-.8,2.02-2.19,.04-3.18,.1-6.36,.23-9.53,.44-10.61,1.09-21.22,1.34-31.84,.32-13.44,.13-26.88-1.04-40.29-.26-3.02-.31-6.13-1.54-9.16-8.83-.06-17.43,1.51-26.49,1.56Zm-44.66-470.05c1.32-.08,1.75-.85,2.31-1.39,12.63-12.15,24.33-25.25,37.43-36.93,1.49-1.33,2.7-1.6,4.4-.54,.61,.38,1.15,.89,1.67,1.39,3.67,3.54,7.09,7.29,10.27,11.28,11.6,14.58,23.39,29,35.9,42.82,.62,.69,1.11,1.59,2.48,2.04-2.44-6.05-4.49-11.86-7.19-17.39-7.05-14.46-12.76-29.49-18.85-44.36-1.38-3.36-2.65-6.77-4.3-10.01-5.57-10.95-9.76-22.48-14.39-33.83-2.04-5.01-1.92-5.02-7.41-4.31-1.41,.18-2.3,.69-2.84,2.07-4.27,11.02-9.65,21.55-14.4,32.36-.32,.72-.89,1.42-.48,2.31,.82,.78,1.91,1.03,2.88,1.51,1.3,.64,2.67,1.17,3.9,1.93,1.49,.92,1.95,2.43,1.3,3.73-.74,1.47-2.05,1.76-3.48,1.4-1.13-.29-2.2-.83-3.31-1.25-1.35-.5-2.56-1.35-4.31-1.61-7.52,16.06-14.68,32.25-21.6,48.78Zm37.93,561.31c-.36-30.4,.5-60.44,.53-90.17-.78-.73-1.33-.75-1.87-.72-7.53,.48-15.08,.18-22.62,.32-2.76,.05-2.76,.09-3.13,2.9-1.15,8.85-1.32,17.75-1.54,26.65-.49,19.73,1.16,39.4,1.63,59.11,.02,.63,0,1.28,.65,1.92h26.34Zm-70.01-336.45c-1.36,.01-2.21,.75-3.12,1.27-10.86,6.26-21.69,12.58-32.57,18.79-38.34,21.89-76.99,43.22-115.62,64.59-13.83,7.65-27.08,16.32-41.12,23.6-.48,.25-.97,.51-1.29,1.33,1.06,2.16,2.15,4.51,3.49,6.6,.79,.14,1.23-.22,1.69-.5,14.64-8.97,29.67-17.27,44.59-25.76,38.45-21.88,77.28-43.07,116.51-63.5,8.7-4.53,17.57-8.75,25.49-14.64,.71-.53,1.88-.78,1.91-1.79,.1-3.3,.04-6.61,.04-10Zm340.99,109.58c-.48-.92-.99-1.16-1.47-1.4-11.24-5.78-21.9-12.57-32.84-18.86-22.92-13.18-46.26-25.6-69.3-38.54-29.06-16.33-58.16-32.61-86.94-49.44-.97-.57-1.87-1.44-3.29-1.27,0,3.24,0,6.4,0,9.55,0,.84,.61,1.26,1.23,1.67,4.99,3.33,9.9,6.75,15.28,9.46,24.58,12.38,48.72,25.6,72.89,38.77,33.34,18.17,66.47,36.71,99.12,56.11,.52,.31,1.01,.83,1.98,.41,1.06-2.06,2.22-4.3,3.34-6.46Zm-511.16,159.38c.42-26.91,.74-53.33,1.26-79.75,.52-26.36,2.15-52.69,2.43-79.65-3.55,2.05-6.51,3.98-9.66,5.52-2.63,1.28-3.55,3.01-3.53,5.96,.17,22.72-.76,45.42-1.23,68.12-.53,25.54-.14,51.06,.41,76.58,.02,1.14-.15,2.38,.66,3.21h9.67Zm497.29-.03c.67-1,.57-2.21,.6-3.37,.24-11.26,.55-22.53,.67-33.79,.29-28.44-.5-56.87-1.22-85.3-.23-8.9-.25-17.81-.33-26.71-.02-1.83-.55-3.04-2.24-3.93-2.97-1.56-5.82-3.36-8.73-5.03-.6-.35-1.17-.93-2.15-.54-.44,3.01,.21,6.06,.25,9.12,.2,16.26,1,32.5,1.58,48.75,.68,19.15,.92,38.33,1.26,57.49,.24,13.54,.35,27.07,.53,40.61,.01,.79-.21,1.64,.58,2.68h9.22Zm-169.61-366.23c.37-2.78-.39-5.32-.74-7.9-.24-1.77-1.07-2.31-2.85-2.48-5.89-.58-11.81-.33-17.7-.66-10.26-.56-20.53-.67-30.8-.61-12.36,.07-24.7,.8-37.07,.85-18.63,.07-37.26,.33-55.88,.44-3.73,.02-7.43,.48-11.16,.59-4.79,.13-4.94,.27-4.78,5.16,0,.09,0,.18,0,.27,.12,2.09,.34,2.38,2.42,2.34,2.54-.05,5.08-.31,7.62-.32,7.91-.03,15.8,.51,23.7,.86,17.98,.78,35.95,1.66,53.95,1.69,6.82,.01,13.63,.02,20.45,.34,16.26,.77,32.52,.9,48.78,.05,1.26-.07,2.55-.07,4.05-.62Zm-158.45-65.25c1.66-1.06,2.61-2.53,3.71-3.83,9.77-11.5,19.15-23.32,29.19-34.58,12.16-13.63,24.33-27.25,36.51-40.85,1.45-1.62,2.94-3.23,4.54-4.71,1.96-1.8,4.01-1.5,5.5,.71,1.99,2.95,4.27,5.68,6.75,8.2,9.08,9.21,16.94,19.47,25.05,29.49,6.53,8.07,13.61,15.6,20.82,23.04,8.41,8.68,17.4,16.79,25.27,25.98,.34,.4,.66,.89,1.47,.9,1.02-.55,1.85-1.42,2.35-2.59-.58-1.5-1.65-2.52-2.64-3.56-5.14-5.39-10.16-10.91-15.52-16.08-16.05-15.49-30.54-32.4-44.76-49.53-5.51-6.64-10.93-13.36-16.28-20.14-1.97-2.49-4.13-4.81-6.56-6.9-1.82,.86-2.99,2.27-4.26,3.54-16.75,16.66-33.26,33.57-50.27,49.97-6.74,6.5-13.1,13.37-19.11,20.56-2.74,3.28-5.3,6.7-7.73,10.21-.57,.82-1.26,1.63-.37,2.67,2.11,2.48,4.21,4.96,6.34,7.48Zm357.55,522.18c-.9-.69-1.54-.64-2.18-.65-9.09-.05-18.18-.28-27.27,0-11.91,.35-23.81-.35-35.71-.48-15.72-.17-31.41-1.44-47.13-1.82-15.36-.36-30.72-.35-46.08-.67-18.92-.39-37.8,.87-56.7,1.15-4.71,.07-9.44,.39-14.13-.52-.91-.17-1.99-.33-2.98,.58,.31,.75,.07,1.73,1.23,2.43,2.32-.47,4.83-.6,7.29,.34,.32,.12,.72,.01,1.08,.01,23.54-.13,47.08,.77,70.62,.62,8.18-.05,16.37-.09,24.54,.17,14.53,.45,29.05,1.32,43.59,1.52,5.09,.07,10.17,.33,15.25,.64,9.43,.59,18.84,1.45,28.28,1.9,12.44,.59,24.89,.88,37.33,1.3,.79,.03,1.65,.27,2.47-.56,.15-1.9,.32-3.96,.48-5.97Zm-333.97-2.69c-.99-.43-1.93-.46-2.8-.3-5.6,1.02-11.24,.6-16.86,.47-11.63-.27-23.25-.99-34.88-1.01-30.18-.05-60.36,.06-90.5,1.69-7.54,.41-15.08,.47-22.62,.73-10.35,.36-20.72,.67-31.08,.53-10.36-.13-20.72-.17-31.08-.06-.71,0-1.47-.1-2.05,.58-.44,1.05,.04,2.12,.12,3.18,.08,1.06-.18,2.19,.47,3.15,.98,.56,2,.26,2.97,.23,21.98-.75,43.94-1.7,65.89-3.12,19.85-1.29,39.77-1.92,59.66-2.2,26.72-.38,53.45-.41,80.17-.64,7.32-.06,14.6-.54,21.98-.81,.49-.59,.68-1.35,.61-2.41Zm289.98-3.91c4.76,0,8.83,0,12.9,0q4.48-.01,4.44-4.53c-.14-19.27-1.13-38.52-1.5-57.78-.01-.7,.12-1.47-.68-2.25-4.19,0-8.59-.45-12.83,.59-.55,1.4-.35,2.59-.35,3.76,0,17.91,.02,35.81,.03,53.72,0,2.15,.27,4.36-2.01,6.51Zm-478.85-.02l.48-.48c-1.81-1.45-1.67-3.38-1.67-5.29,.02-18.18,.04-36.36,.04-54.54,0-1.16,.23-2.36-.43-3.74-4.32-.79-8.77-.67-13.59-.36,0,3.96,.12,7.6-.02,11.22-.61,16.26-1.12,32.52-1.32,48.79-.01,.82,0,1.64,.04,2.45,.06,1.29,.66,1.97,2.05,1.96,4.8-.03,9.61-.01,14.41-.01Zm236.15-163.99c-11.71,6.58-27.36,38.09-25.2,50.58,.65,.44,1.39,.33,2.11,.31,6.9-.13,13.81-.26,20.71-.42,2.89-.07,2.97-.18,2.96-3.21-.05-15.17-.11-30.35-.18-45.52,0-.54,.06-1.09-.4-1.75Zm6.74-.54c-.75,3.71-.26,47.67,.51,50.13,2.63,.52,21.57-.72,25.09-1.64,1.3-12.76-14.21-42.31-25.6-48.49Zm-59.45,183.35c1.12,.7,2.14,.53,3.12,.54,2.54,.03,5.09,.02,7.64,.03,12.9,.05,25.81-.31,38.71,.16,2.63,.09,5.26,.24,7.89,.2,7.99-.13,15.99-.57,23.98-.48,9.54,.12,19.09,.06,28.63,.08,.95,0,2.02,.27,2.84-.71-.16-2.06-.72-4.01-1.74-5.75-.33-.05-.52-.13-.69-.1-6.75,1.26-13.53,1.36-20.35,.76-2.07-.18-4.19-.14-6.26,.01-17.25,1.27-34.51,1.14-51.77,.25-3.36-.17-6.71-.57-10.07-.22-5.46,.57-10.89,.24-16.33-.19-1.32-.11-2.57-1.04-4.07-.36-.72,1.79-1.48,3.62-1.53,5.78Zm101.28-11.51c.03-1.55-.81-2.8-1.17-4.18-.35-1.33-1.16-1.88-2.57-1.88-4.72,0-9.43-.18-14.16-.12-13.52,.17-27.02,1.08-40.56,.37-8.96-.47-17.96-.67-26.95-.23-.95,.05-2.17-.33-2.67,.82-.73,1.68-1.71,3.33-1.6,5.22,29.99,1.14,59.78,1.14,89.67,0Zm15.91-533.12c-.58,1.16-.52,1.89-.48,2.61,.6,13-.69,25.93-1.3,38.89-.23,4.81-.21,9.62-.25,14.43-.01,1.73,.66,2.48,2.41,2.43,1.81-.05,3.63,0,5.44,.09,1.48,.07,2.14-.52,2.19-2.03,.12-3.17,.33-6.34,.55-9.51,.82-11.87,.39-23.78,1-35.65,.05-.91,.13-1.86-.59-2.56-2.9-2.83-5.83-5.65-8.97-8.69Zm-128.95,59.25c2.86,.27,5.43,.29,8.23-.39-.18-9.55,.67-18.96,.54-28.38-.12-9.34,.64-18.67,.38-28.07-2.61,2.62-4.86,5.35-7.2,7.99-1.09,1.23-1.56,2.56-1.61,4.19-.1,3.54-.17,7.07-.13,10.62,.07,7.53,.35,15.06-.17,22.59-.26,3.69-.04,7.42-.04,11.46Zm32.65,461.35c23.76,1.05,47.34,1.03,70.92,.01-.25-3.96-1.15-4.91-4.78-5.06-13.72-.53-27.45,0-41.17-.15-6.63-.07-13.27-.28-19.9,.13-3.84,.24-4.4,.72-5.06,5.07Zm-32.78-59.09c-.48,2.36-.1,4.53-.13,6.69-.2,16.97-.23,33.94,.34,50.91,.18,5.49,.29,5.58,5.85,4.91,.16-.02,.32-.16,.61-.32-.83-2.96-.6-6.04-.6-9.1,0-16.61,.07-33.22,.09-49.83,0-1.14,.35-2.37-.56-3.44-1.77-.27-3.56-.29-5.59,.18Zm136.1,62.21c1.1-20.69,.66-41.41,.58-62.16-2.13-.52-3.98-.55-6.14-.09-.49,20.83,.22,41.63-.2,62.53,1.72,.15,3.59,.33,5.75-.27Zm-65.48-688.14c-3.25,0-5.74,1.44-7.53,4.11-1.07,1.59-1.1,3.22,.04,4.82,1.22,1.71,2.6,3.26,4.21,4.61,.87,.73,1.87,1.18,2.98,1.16,2.88-.05,5.55-.81,7.84-2.65,1.3-1.05,1.84-2.4,1.59-4.09-.72-4.93-4.15-7.95-9.12-7.96Zm-236.37,620.52c.13-2.99,1.1-5.31,.32-8-8.85,.1-17.6-.29-26.35,.88-.37,1.93-.99,3.65-.3,5.74,8.69,.24,17.37-.11,26.33,1.37Zm467.56-7.43c-.36,2.29,.23,4.62,.73,7.38,8.8-1.39,17.55-1.11,26.09-1.29,.65-1.74,.17-2.98,.1-4.23-.08-1.4-.86-1.77-2.13-1.87-7.7-.6-15.41-.54-23.12-.55-.54,0-1.1-.02-1.68,.56Zm-288.13-.83c-6.51-1.42-13-.87-19.39-1.09-.77,2.87-.72,6.2,.08,8.56,2.21,.25,4.44-.4,6.69-.38,3.26,.03,6.52-.04,9.78-.06,1.03,0,2.13-.04,2.32-1.33,.26-1.77,1.01-3.5,.52-5.69Zm109.21,.18c-.5,2.02,.32,3.83,.59,5.68,.12,.82,.83,1.13,1.63,1.14,5.61,.08,11.22-.02,16.82,.48,.15,.01,.32-.14,.6-.27,.57-2.25,.29-4.6,.24-6.94-.02-1.21-.79-1.46-1.84-1.42-4.34,.14-8.69,.2-13.03,.38-1.69,.07-3.4,.27-5.01,.95Z"/><path d="M602.36,593.61c11.6,.42,21.24,4.92,28.65,13.92,4.36,5.3,5.11,11.48,3.92,18.01-1,5.47-2.66,10.73-5.41,15.61-3.87,6.9-9.76,11.1-17.33,13.03-5.93,1.51-11.92,2.62-18.02,1.09-11.96-3-19.11-10.84-21.72-22.65-2.08-9.43-.11-18.18,4.89-26.6,5.23-8.81,13.29-11.48,22.57-12.4,.81-.08,1.63-.01,2.45-.01Zm1.92,55.06c12.73-.61,20.85-7.79,23.41-21.9-7.39-1.01-14.75-.39-22.14-.43-1.1,7.64-.13,14.94-1.27,22.33Zm-26.2-22.19c-.09,14.68,13.19,23.93,20.86,22.28v-22.5c-7.03,.16-13.86,.72-20.86,.23Zm27.31-26.15c-.61,1.04-.42,1.97-.4,2.86,.08,4.63,.2,9.27,.3,13.9,.06,2.98,.12,3.11,3.05,3.1,6-.03,11.99-.19,17.99,.09,.79,.04,1.65,.18,2.41-.63,.34-2.36-.45-4.56-1.8-6.55-4.98-7.36-12.21-11.15-20.68-12.92-.24-.05-.52,.08-.87,.15Zm-6.88-.03c-11.61,.23-18.8,9.69-20.05,19.63,.77,.66,1.72,.44,2.6,.5,5.17,.32,10.34-.11,15.5-.27,2.56-.08,2.74-.31,2.72-2.93-.05-5.08-.16-10.16-.25-15.24,0-.54,.04-1.1-.51-1.69Z"/><path d="M592.34,754.95c.09,3.91,.43,7.81,.24,11.72-.06,1.28,.14,2.23,1.55,2.8,1.36,.55,2.12,1.74,1.84,3.3-.3,1.65-1.5,2.51-3.04,2.7-2.16,.27-4.37,.18-6.52,.48-10.2,1.45-20.46,1.56-30.73,1.33-1.18-.03-2.38,.09-3.52-.3-1.17-.4-2.1-1.08-2.27-2.44-.16-1.32,.28-2.5,1.5-2.91,1.86-.63,1.86-1.96,1.8-3.47-.25-5.9-.4-11.8-.74-17.7-.34-5.99-.75-12.02-.3-17.98,1.31-17.3,5.94-33.56,16.27-47.84,.75-1.03,1.51-2.06,2.53-2.84,1.84-1.41,3.84-1.25,5.3,.54,.74,.9,1.28,1.98,1.82,3.03,3.93,7.64,6.14,15.9,8.65,24.05,2.92,9.52,4.02,19.35,5.02,29.2,.55,5.44,.48,10.89,.6,16.34Zm-19.44-65.4c-.37,.15-.58,.18-.68,.3-.4,.49-.81,.98-1.14,1.52-8.46,13.68-12.68,28.7-13,44.65-.22,10.78,.59,21.59,.94,32.38,.02,.63-.02,1.28,.5,1.78,5.15,.75,23.38-.45,26.69-1.75,3.29-19.43-4.43-65.42-13.3-78.88Z"/><path d="M647.78,744.6c-.33,7.62-.66,15.25-1.01,22.87-.09,1.87-.04,3.38,2.12,4.42,2.01,.97,1.58,3.73-.47,4.83-1.1,.59-2.29,.52-3.46,.54-10.45,.22-20.89,.2-31.28-1.3-1.97-.29-3.99-.22-5.98-.4-2.05-.18-3.43-1.18-3.69-2.67-.32-1.81,.6-2.97,2.19-3.62,1.06-.43,1.17-1.24,1.19-2.2,.1-6.63,.17-13.26,.35-19.89,.54-20.18,4.68-39.61,12.49-58.24,.84-2,1.79-3.99,2.93-5.84,1.73-2.8,4.24-3,6.57-.66,1.35,1.36,2.4,2.96,3.48,4.53,6.86,9.99,10.43,21.26,13.04,32.96,1.82,8.17,1.8,16.4,1.54,24.67Zm-7.26,25.57c.57-.94,.42-1.78,.45-2.58,.26-8.25,.29-16.52,.84-24.76,.58-8.8-.34-17.38-2.47-25.89-2.21-8.85-5.14-17.4-10.16-25.1-.56-.86-.9-2-2.33-2.29-11.58,25.2-14.41,51.77-13.16,78.99,4.68,1.3,22.04,2.33,26.84,1.64Z"/><path d="M637.03,549.61c-2.42-.82-5.11-1.22-7.78-1.74-1.49-.29-2.16-1.59-1.97-3.15,.17-1.46,1.08-2.29,2.51-2.44,3.16-.33,6.16,.26,8.92,1.83,1.33,.75,1.86,2.01,1.44,3.49-.4,1.43-1.57,1.89-3.12,2.01Z"/><path d="M633.84,554.95c.54,0,1.09-.07,1.62,.01,1.39,.23,2.33,1.03,2.52,2.45,.21,1.58-.64,2.69-2.07,3.09-2,.56-4.08,.86-6.17,.63-1.87-.21-2.97-1.36-2.95-2.93,.01-1.51,.9-2.48,2.74-2.81,1.42-.25,2.86-.37,4.29-.55,0,.04,0,.07,0,.11Z"/><path d="M507.2,871.66c.69,16.16,1.15,32.33,1.11,48.51-.02,6.18-.15,12.36-.69,18.52-.09,1.01-.08,1.92,.25,2.92,.64,1.89-.11,3.16-2.02,3.73-.6,.18-1.25,.25-1.87,.29-25.85,1.78-51.74,1.91-77.64,1.66-9.45-.09-18.9-.58-28.35-.32-1.95,.05-2.89-.89-4.05-2.47-2.14-2.91-2.14-6.04-2.17-9.29-.19-21.27,.12-42.53,.62-63.79,.46-19.63,2.19-39.16,5.19-58.58,1.13-7.35,1.85-14.77,2.81-22.15,.7-5.36,2.31-10.48,4.65-15.32,7.6-15.68,18.5-28.38,33.77-37.12,3.83-2.19,7.95-3.55,12.11-4.85,1.48-.46,3.02-.39,4.55,.16,8.88,3.15,16.61,8.13,23.36,14.65,1.11,1.07,2.16,2.23,3.38,3.17,5.3,4.13,8.75,9.58,11.72,15.51,5.6,11.18,8.66,23.07,10.5,35.35,.99,6.58,1.35,13.19,1.52,19.82,.3,11.81,.44,23.62,.7,35.44,.11,4.72,.36,9.44,.55,14.16Zm-108.95,69.04c3.2,.65,48.67,.58,50.46-.07,.18-1.07-.44-86.02-.64-86.76-1.1-.53-2.29-.29-3.45-.3-11.62-.05-23.25-.07-34.87-.11-2.63-.01-5.27-.21-7.89-.14-2.35,.07-2.57,.39-2.67,2.79-.35,8.53-.86,17.05-.97,25.59-.25,18.61-.3,37.23-.42,55.85,0,1.07-.2,2.19,.46,3.16Zm56.99-86.97c-.59,.98-.55,1.62-.58,2.25-.3,7.45-.48,14.9-.43,22.35,.15,19.9,.75,39.8,.59,59.7,0,.54,.03,1.09,.05,1.63,.04,.87,.52,1.32,1.38,1.35,.73,.02,1.45,.03,2.18,.04,10.18,.11,20.34-.62,30.52-.65,4.06-.01,8.11-.75,12.07-1.15,2.98-5.6,.06-81.26-1.23-86.4-14.88,.29-29.75,.59-44.56,.88Zm41.93-52.98c.33-.66,.24-1.11,.16-1.56-1.64-10.29-4.73-20.1-9.35-29.47-2.53-5.13-5.54-9.77-10.08-13.35-1.56-1.23-2.9-2.75-4.37-4.1-5.66-5.2-11.81-9.64-19.07-12.4-.97-.37-1.85-.57-2.89-.24-3.99,1.28-7.83,2.82-11.45,4.99-10.86,6.5-19.11,15.52-25.73,26.18-3.92,6.32-6.68,13.1-7.95,20.43-.6,3.46-1.17,6.94-1.17,10.58,1.51,.46,2.86,.35,4.21,.33,7.9-.13,15.82-.41,23.71,.04,9.27,.52,18.53,.49,27.79,.18,11.07-.38,22.14-1,33.22-1.19,.99-.02,2.01,.11,2.96-.41Zm-48.27,8.22c-1.03-.76-1.77-.64-2.49-.65-13.17-.12-26.34-.79-39.52-.29-2.46,.09-2.51,.1-2.85,2.57-1.3,9.44-2.68,18.88-3.58,28.37-.25,2.66-.73,5.34-.47,8.05,.6,.12,.95,.24,1.3,.25,14.9,.12,29.8,.75,44.71,.28,2.8-.09,2.9-.18,2.96-2.98,.21-9.09,.15-18.17-.06-27.26-.06-2.8,0-5.61,0-8.33Zm27.59,38.32c7.32-.21,14.13,.05,20.93-.56,2.61-.24,2.82-.36,2.71-2.94-.45-10.7-.25-21.42-1-32.11-.32-4.62-.3-4.63-4.88-4.62-11.62,.02-23.21,.74-34.81,1.2-4.78,.19-4.71-.69-4.63,4.81,.15,10.43,.93,20.85,.14,31.29-.24,3.19-.06,3.34,3.28,3.31,6.26-.06,12.51-.61,18.26-.39Z"/><path d="M476.86,674.51c-.06-1.74,.5-2.72,1.72-3.22,1.24-.51,2.37-.15,3.16,.88,1.07,1.37,1.81,2.94,2.21,4.63,.3,1.27-.15,2.37-1.31,3.01-1.14,.63-2.33,.48-3.27-.43-1.47-1.44-2.24-3.26-2.52-4.86Z"/><path d="M491.77,674.66c.02,1.33-.46,2.24-1.49,2.84-.97,.57-1.91,.39-2.8-.18-1.56-1-2.92-4.43-2.52-6.26,.24-1.09,.92-1.75,1.95-2.02,1.06-.28,1.99,.11,2.69,.89,1.25,1.38,1.7,3.14,2.18,4.73Z"/><path d="M500.26,670.01c0,1.33-.32,2.27-1.31,2.77-1.03,.52-2.14,.51-3.08-.23-1.31-1.02-2.23-2.39-2.97-3.84-.53-1.04-.33-2.14,.55-3,1.05-1.02,2.37-1.09,3.53-.48,1.95,1.04,2.95,2.85,3.27,4.77Z"/><path d="M757.25,947.35c-15.68,.25-30.57-.49-45.48-.66-5.44-.06-10.83-1.12-16.3-1.13-3.02,0-4-1.59-3.2-4.44,.18-.63,.2-1.22,.14-1.86-1.21-14.34-.81-28.7-.47-43.05,.54-22.44,1.95-44.85,1.96-67.3,0-13.77,1.15-27.39,4.35-40.81,2.34-9.8,6.36-18.91,11.31-27.64,.85-1.5,1.82-2.96,3.07-4.16,6.53-6.31,12.94-12.76,20.74-17.59,3.66-2.26,7.68-3.71,11.64-5.3,1.65-.66,3.37-.21,5.07,.29,11.7,3.4,21.27,10.22,29.41,18.99,8.34,8.99,15.09,19.08,18.6,31.06,1.75,5.97,2.19,12.13,2.99,18.25,1.02,7.74,1.99,15.49,3,23.23,1.17,9.01,2.09,18.04,2.61,27.11,1.57,27.69,1.53,55.41,1.52,83.12,0,1.09-.12,2.19-.04,3.27,.22,3-1.9,4.98-3.17,7.31-.57,1.05-1.89,.94-2.98,.92-15.18-.24-30.35,.68-44.75,.39Zm44.37-6.37c.7-1.39,.57-2.41,.56-3.39-.12-18.62-.16-37.25-.42-55.87-.13-9.08-.65-18.15-1.02-27.23-.13-3.03-.41-3.19-3.46-2.79-4.05,.54-8.07,1.24-12.17,1.32-10.18,.2-20.35,.16-30.52-.27-.98-.04-2.01-.28-3.24,.74,.92,28.91-.66,58.1-.34,87.5h50.61Zm-56.46-88.19c-.81-.16-1.15-.28-1.51-.29-13.07-.58-26.14-1.23-39.24-1.09-.91,0-1.81,.09-2.72,.14-1.42,.09-2.04,.78-2.07,2.27-.06,3.09-.33,6.17-.42,9.26-.37,12.44-1.01,24.88-1.37,37.32-.34,11.82-.33,23.62,.33,35.43,.06,1.14-.08,2.37,.73,3.33,8.8,1.46,42.36,2.49,46.31,1.28-.55-29.08,1.43-58.29-.05-87.65Zm49.6-50.92c-.4-5.45-.8-10.63-2.38-15.55-6.33-19.7-18.71-34.4-37-44.1-2.26-1.2-4.78-1.71-7.15-2.62-.81-.31-1.6-.23-2.38,.12-3.82,1.69-7.59,3.41-11.07,5.81-5.43,3.73-9.95,8.48-14.86,12.78-2.42,2.12-4.35,4.61-5.87,7.45-5.41,10.08-9.4,20.64-11.11,32-.14,.95-.72,1.91-.13,3.03,30.47,2.03,61.02,1.75,91.95,1.08Zm5,43.39c.16-2.34-.05-4.41-.27-6.48-.95-9.3-2.24-18.56-3.55-27.81-.41-2.9-.36-2.81-3.35-2.92-12.9-.51-25.79,.19-38.68,.3-.88,0-1.83-.22-2.86,.71,0,2.57,.05,5.36,0,8.16-.2,8.9-.28,17.8-.07,26.7,.06,2.37,.27,2.7,2.4,2.7,9.17,0,18.33,.83,27.51,.5,6.25-.23,12.46-.86,18.87-1.85Zm-55.42,.95c.87-1.13,.65-2.06,.61-2.95-.41-7.81-.36-15.62,.06-23.43,.17-3.17,.09-6.36,.13-9.54,.02-1.36-.59-1.98-1.97-1.98-1.91,0-3.82-.05-5.72-.14-10.8-.51-21.59-1.12-32.4-1.09-1.16,0-2.37-.24-3.43,.46-1.11,3.83-2.18,34.77-1.26,37.81,14.72-.56,29.46,.71,43.98,.85Z"/><path d="M708.41,665.1c-.25,1.65-.96,3.87-2.51,5.7-.81,.94-1.92,1.38-3.16,.78-1.28-.62-1.94-1.7-1.64-3.08,.44-2.02,1.17-3.98,2.23-5.76,.69-1.16,1.85-1.76,3.25-1.29,1.35,.46,1.95,1.52,1.84,3.65Z"/><path d="M720.88,674.89c-.52,2.12-1.12,4.41-2.67,6.26-.73,.87-1.78,1.24-2.95,.81-1.15-.42-1.77-1.26-1.8-2.47-.05-2.56,.98-4.77,2.52-6.72,.71-.89,1.78-1.22,2.95-.79,1.26,.47,1.78,1.45,1.94,2.91Z"/><path d="M713.93,669.43c-.11,1.86-.78,3.54-1.9,5-.83,1.09-1.99,1.66-3.35,1.02-1.44-.67-1.95-1.93-1.56-3.4,.37-1.39,.93-2.75,1.51-4.07,.62-1.4,1.75-2.13,3.3-1.71,1.56,.42,2.06,1.64,2,3.16Z"/><path d="M642.88,477.75c-.15,5.7-.59,11.94-1.68,18.11-.69,3.92-1.65,4.93-5.54,5.6-3.89,.67-7.77,.35-11.61-.51-.97-.22-1.95-.4-2.93-.55-2.35-.36-3.32-1.31-3.48-3.75-.12-1.81-.09-3.63-.02-5.44,.44-10.71,1.27-21.37,4.26-31.74,.91-3.15,2.06-6.2,3.72-9.03,1.02-1.74,2.21-3.33,3.87-4.51,3.4-2.43,6.99-1.59,8.9,2.11,1.14,2.2,1.59,4.62,2.11,7.01,1.57,7.3,2.37,14.67,2.41,22.7Zm-10.35-26c-2.27,2.47-3.34,5.36-4.24,8.28-3.27,10.58-4.2,21.5-4.53,32.5-.04,1.5,.59,2.14,2,2.31,2.25,.27,4.48,.7,6.77,.59,2.33-.11,2.64-.34,2.98-2.61,1.93-12.89,1.34-25.68-1.63-38.36-.2-.86-.29-1.78-1.35-2.71Z"/><path d="M585.66,479.19c.13,5.88-.15,11.5-.92,17.09-.44,3.22-1.64,4.35-4.82,4.36-4.52,.01-9.08,.8-13.56-.47-.17-.05-.36-.04-.54-.04-3.99-.12-4.89-.85-4.97-4.63-.29-13.16,1.32-26.09,4.82-38.78,.85-3.07,2.03-6.03,3.76-8.73,3.34-5.2,8.28-5.22,11.76-.09,2.27,3.36,2.84,7.26,3.27,11.13,.76,6.77,1.38,13.56,1.19,20.15Zm-10.52-28.37c-1.94,2.21-2.79,4.91-3.59,7.56-3.2,10.59-4.16,21.54-4.83,32.51-.14,2.33,.34,3,2.61,3.37,3.04,.49,6.11,.28,9.08,.03,.66-1.3,.74-2.49,.79-3.65,.41-9.36,.41-18.71-.6-28.03-.31-2.88-.52-5.79-1.39-8.59-.37-1.19-.63-2.47-2.07-3.2Z"/><path d="M584.19,424.07c.21-6.93,2.85-12.46,7.78-16.8,4.37-3.86,12.35-3.39,16.41,.81,3.19,3.29,5.92,6.86,6.85,11.54,.36,1.82,.44,3.58,.04,5.39-1.5,6.73-5.41,11.67-11.51,14.68-4.46,2.21-8.88,1.48-12.76-1.63-4.54-3.64-6.51-8.57-6.8-13.99Zm6.35-.7c.09,3.54,1.31,6.69,3.99,9.17,2.37,2.18,4.82,2.55,7.45,.77,6.56-4.43,10.55-11.49,3.32-19.11-.19-.2-.36-.41-.54-.61-2.44-2.69-8.04-2.74-10.39,.03-2.35,2.77-3.74,5.99-3.83,9.76Z"/><path d="M594.08,342.46c-1.65-.4-3.75-1.22-5.45-2.78-.92-.84-1.29-1.97-.68-3.21,.6-1.24,1.69-1.69,2.93-1.45,2.25,.44,4.29,1.43,5.96,3.01,.84,.8,1.09,1.88,.51,2.99-.56,1.07-1.46,1.56-3.27,1.43Z"/><path d="M466.86,766.8c0,9.77-6.15,18.25-14.9,20.47-3.48,.88-7.01,1-10.53,.21-6.84-1.53-10.83-7-10.29-14.3,.6-8.22,3.33-15.58,9.04-21.7,.92-.99,2.03-1.5,3.27-1.82,8.04-2.02,16.95,1.51,21.39,8.5,1.67,2.64,2.01,5.6,2.02,8.63Zm-6.27,.28c-.05-2.4-.17-4.39-1.5-6.07-2.29-2.9-5.28-4.85-8.89-5.37-3.36-.49-6.45,.25-8.45,3.55-2.8,4.63-4.24,9.64-4.34,14.99-.08,4.11,2,6.36,6.07,7.09,9.32,1.69,17.14-4.98,17.11-14.2Z"/><path d="M789.39,935.99c-1.45-.06-2.9-.08-4.28-.6-1.61-.61-2.45-1.84-2.25-3.28,.2-1.45,1.33-2.5,3.07-2.47,2.07,.03,4.15,.23,6.21,.49,1.75,.22,2.75,1.35,2.7,2.83-.06,1.59-1.04,2.49-2.48,2.81-.96,.21-1.97,.15-2.97,.21Z"/><path d="M790.67,906.05c1.47,.13,2.75,.02,3.95,.57,1.31,.59,2.03,1.54,1.82,2.98-.21,1.44-1.17,2.2-2.6,2.31-1.73,.13-3.43-.07-5.11-.48-1.75-.42-2.7-1.56-2.56-2.97,.14-1.41,1.25-2.29,3.1-2.41,.54-.04,1.08,0,1.41,0Z"/><path d="M791.29,924.95c-1.11-.19-2.48-.29-3.7-.94-1.33-.7-2.08-1.8-1.67-3.34,.41-1.56,1.61-2.11,3.13-1.95,1.07,.12,2.14,.34,3.2,.53,2.14,.39,3.16,1.44,3.04,3.12-.12,1.73-1.5,2.67-4,2.57Z"/><path d="M733.11,766.55c-.68-11.65,12.33-18.93,21.52-17.29,2.61,.47,4.57,1.57,6.37,3.67,5.16,6.03,7.4,13.09,7.82,20.77,.47,8.59-5.32,14.11-14.58,14.3-12.09,.25-21.24-9.04-21.12-21.46Zm6.26,.15c-.03,9.71,8.01,16.44,17.38,14.54,3.77-.77,5.82-2.94,5.79-6.79-.05-5.74-1.51-11.13-4.84-15.9-.73-1.05-1.59-2.03-2.84-2.46-6.85-2.38-16.3,3.48-15.49,10.61Z"/></svg>