<?xml version="1.0" encoding="UTF-8" standalone="no"?><!DOCTYPE svg PUBLIC "-//W3C//DTD SVG 1.1//EN" "http://www.w3.org/Graphics/SVG/1.1/DTD/svg11.dtd"><svg width="100%" height="100%" viewBox="0 0 420 420" version="1.1" xmlns="http://www.w3.org/2000/svg" xmlns:xlink="http://www.w3.org/1999/xlink" xml:space="preserve" xmlns:serif="http://www.serif.com/" style="fill-rule:evenodd;clip-rule:evenodd;stroke-linecap:round;stroke-linejoin:round;stroke-miterlimit:1.5;"><rect id="hůlky" x="0.077" y="0.033" width="419.528" height="419.528" style="fill:none;"/><g id="hůlky1" serif:id="hůlky"><g><path d="M109.863,347.716c0.477,-0.677 1.414,-0.838 2.09,-0.361c0.677,0.477 0.838,1.414 0.361,2.09l-10.109,14.333c-0.477,0.677 -1.414,0.839 -2.091,0.362c-0.676,-0.478 -0.838,-1.414 -0.361,-2.091l10.11,-14.333Z"/><g><path d="M280.155,95.359c0.343,-0.813 0.3,-1.652 0.286,-2.489c-0.02,-1.26 -0.02,-2.52 0.46,-3.759c0.428,-1.108 1.489,-2.01 2.841,-2.691c1.411,-0.711 3.168,-1.186 4.095,-1.818c3.782,-2.575 5.799,-6.51 8.862,-9.758c1.818,-1.927 2.105,-4.272 2.577,-6.414c0.605,-2.74 1.441,-5.205 4.252,-6.819c0.006,-0.107 0.012,-0.258 0.007,-0.374c-0.018,-0.413 -0.073,-0.891 -0.12,-1.428c-0.233,-2.676 -0.314,-6.6 3.666,-11.067c0.251,-0.282 0.949,-0.773 2.044,-0.364c2,0.749 10.2,6.617 11.136,7.604c1.523,1.605 2.632,3.868 2.638,5.545c0.002,0.762 -0.567,1.403 -1.321,1.494c-0.031,0.016 -0.197,0.108 -0.295,0.182c-0.188,0.144 -0.382,0.33 -0.586,0.547c-0.614,0.657 -1.274,1.575 -1.961,2.651c-3.442,5.394 -7.385,14.584 -8.629,17.165c-1.808,3.75 -4.002,5.858 -6.255,7.873c-3.018,2.698 -6.144,5.218 -8.278,12.306c-0.151,0.501 -0.771,1.47 -1.512,2.342c-0.727,0.855 -1.557,1.61 -1.989,1.842c-0.196,0.106 -0.874,0.348 -1.784,-0.117c-1.92,-0.982 -9.936,-6.845 -11.653,-8.056c0.058,0.041 0.208,0.118 0.208,0.118c-0,-0 -1.245,-1.055 -1.134,-1.786c0.061,-0.407 0.366,-0.985 0.975,-1.51c0.309,-0.266 0.718,-0.558 1.081,-0.856c0.139,-0.113 0.341,-0.315 0.389,-0.363Zm1.388,2.79c2.522,1.82 7.548,5.468 9.605,6.706c0.196,-0.206 0.414,-0.458 0.629,-0.712c0.416,-0.489 0.839,-0.982 0.924,-1.263c1.986,-6.594 4.733,-9.652 7.542,-12.233c2.524,-2.319 5.137,-4.183 7.161,-8.384c1.268,-2.629 5.297,-11.982 8.803,-17.475c1.159,-1.818 2.292,-3.231 3.252,-3.966c0.092,-0.07 0.183,-0.136 0.274,-0.196c-0.292,-0.876 -0.932,-1.824 -1.648,-2.579c-0.716,-0.754 -7.434,-5.173 -9.445,-6.489c-2.965,3.851 -2.289,7.14 -2.135,9.11c0.139,1.782 -0.29,2.902 -1.327,3.459c-2.093,1.123 -2.539,2.984 -2.972,4.949c-0.581,2.635 -1.089,5.456 -3.324,7.827c-3.214,3.406 -5.39,7.478 -9.356,10.179c-0.866,0.589 -2.359,1.094 -3.75,1.699c-0.547,0.237 -1.074,0.493 -1.503,0.801c-0.252,0.181 -0.478,0.363 -0.575,0.612c-0.334,0.864 -0.272,1.748 -0.257,2.626c0.021,1.284 -0.013,2.559 -0.566,3.805c-0.152,0.346 -0.436,0.723 -0.82,1.081c-0.136,0.127 -0.319,0.284 -0.512,0.443Z"/><path d="M319.903,61.728c-0,-0.006 0,-0.011 0,-0.015c0.005,-0.181 0.036,-0.33 0.074,-0.45c0.08,-0.255 0.214,-0.448 0.353,-0.595c0.229,-0.243 0.514,-0.403 0.863,-0.463c0.257,-0.044 0.967,-0.059 1.682,0.681c2.218,2.295 12.785,20.22 4.279,54.113c-1.184,4.716 -5.493,12.189 -9.306,15.533c-1.154,1.012 -2.293,1.665 -3.299,1.896c-0.923,0.212 -1.774,0.111 -2.533,-0.295c-0.715,-0.384 -2.852,-1.413 -4.19,-2.385c-0.646,-0.47 -1.119,-0.979 -1.391,-1.427c-0.086,-0.104 -0.166,-0.226 -0.236,-0.367c-0.182,-0.367 -0.336,-1.182 -0.261,-2.38c0.261,-4.151 2.718,-14.785 7.314,-24.669c8.72,-18.758 6.57,-36.775 6.651,-39.177Zm-10.778,62.065c2.401,-2.808 6.159,-9.189 9.871,-24.839c0.545,-2.294 0.908,-5.12 1.14,-8.178c-1.012,3.684 -2.365,7.523 -4.164,11.393c-3.816,8.209 -6.15,16.942 -6.847,21.624Zm14.058,-56.564c0.369,8.322 0.748,23.921 -1.268,32.418c-4.653,19.615 -9.998,25.966 -12.119,27.808c0.104,0.078 0.21,0.152 0.309,0.215c1.213,0.775 2.759,1.513 3.329,1.819c0.199,0.107 0.427,0.036 0.678,-0.056c0.555,-0.203 1.143,-0.617 1.758,-1.157c3.437,-3.014 7.307,-9.756 8.374,-14.008c6.061,-24.147 2.175,-39.79 -1.061,-47.039Z"/></g><path d="M206.407,218.007l-91.806,130.679c-1.758,0.895 -4.523,-0.985 -4.716,-3.327l93.069,-132.218" style="fill:none;stroke:#000;stroke-width:3px;"/><path d="M207.249,207.038l74.596,-105.975l4.588,3.033l-75.993,108.463" style="fill:none;stroke:#000;stroke-width:3px;"/><path d="M116.173,346.794c5.904,4.814 9.2,10.114 7.52,12.495c-1.903,2.699 -9.825,0.956 -17.254,-4.284c-7.43,-5.24 -11.572,-12.006 -9.668,-14.705c1.68,-2.382 7.778,-1.055 14.295,2.892" style="fill:none;stroke:#000;stroke-width:3px;"/><path d="M97.338,344.27c-0.819,-0.124 -1.382,-0.889 -1.258,-1.708c0.124,-0.818 0.889,-1.382 1.708,-1.258c1.018,0.155 8.708,2.193 11.887,2.745c0.816,0.142 1.363,0.919 1.221,1.735c-0.141,0.815 -0.918,1.362 -1.734,1.221c-3.163,-0.55 -10.812,-2.581 -11.824,-2.735Z"/><path d="M102.148,352.191c-0.774,0.295 -1.641,-0.093 -1.937,-0.867c-0.295,-0.773 0.093,-1.641 0.866,-1.936c0.744,-0.284 1.45,-0.6 2.176,-0.899c2.234,-0.919 4.365,-1.934 6.801,-2.677c0.792,-0.242 1.631,0.205 1.872,0.997c0.242,0.792 -0.205,1.631 -0.996,1.872c-2.343,0.715 -4.388,1.699 -6.535,2.583c-0.75,0.308 -1.48,0.633 -2.247,0.927Z"/><path d="M114.77,357.7c0.215,0.8 -0.259,1.624 -1.059,1.839c-0.799,0.215 -1.623,-0.26 -1.838,-1.059c-0.201,-0.749 0.011,-1.935 0.038,-2.702c0.063,-1.818 0.164,-3.635 0.232,-5.452c0.031,-0.828 0.728,-1.474 1.555,-1.443c0.827,0.03 1.474,0.727 1.443,1.555c-0.068,1.815 -0.169,3.629 -0.232,5.444c-0.012,0.348 -0.079,0.791 -0.122,1.232c-0.021,0.212 -0.061,0.423 -0.017,0.586Z"/><path d="M113.266,350.036c-0.562,-0.608 -0.525,-1.558 0.083,-2.12c0.607,-0.562 1.557,-0.525 2.119,0.083c3.071,3.32 6.091,7.022 8.767,10.062c0.547,0.622 0.487,1.57 -0.135,2.117c-0.621,0.547 -1.57,0.487 -2.117,-0.135c-2.661,-3.023 -5.664,-6.706 -8.717,-10.007Z"/></g><g><path d="M298.91,356.057c-0.455,-0.692 -0.262,-1.623 0.429,-2.078c0.692,-0.455 1.623,-0.263 2.078,0.429l9.64,14.652c0.455,0.692 0.263,1.623 -0.428,2.078c-0.692,0.455 -1.623,0.263 -2.078,-0.429l-9.641,-14.652Z"/><g><path d="M117.11,62.187c2.757,1.703 3.514,4.194 4.029,6.952c0.403,2.156 0.614,4.51 2.368,6.494c2.957,3.346 4.846,7.344 8.542,10.04c0.907,0.661 2.647,1.193 4.034,1.949c1.329,0.725 2.36,1.661 2.753,2.782c0.439,1.254 0.399,2.513 0.337,3.772c-0.041,0.836 -0.11,1.673 0.206,2.497c0.046,0.049 0.242,0.258 0.377,0.375c0.354,0.309 0.752,0.615 1.053,0.891c0.592,0.544 0.877,1.131 0.926,1.54c0.087,0.735 -1.191,1.748 -1.191,1.748c-0,0 0.152,-0.072 0.211,-0.11c-1.755,1.154 -9.956,6.755 -11.908,7.674c-0.924,0.436 -1.594,0.171 -1.787,0.06c-0.424,-0.246 -1.229,-1.028 -1.928,-1.906c-0.712,-0.895 -1.3,-1.884 -1.435,-2.389c-1.904,-7.154 -4.947,-9.774 -7.876,-12.568c-2.186,-2.087 -4.311,-4.265 -5.996,-8.071c-1.16,-2.621 -4.804,-11.933 -8.069,-17.435c-0.652,-1.098 -1.283,-2.037 -1.875,-2.713c-0.196,-0.224 -0.385,-0.416 -0.568,-0.566c-0.095,-0.078 -0.259,-0.174 -0.289,-0.192c-0.75,-0.115 -1.299,-0.774 -1.272,-1.536c0.06,-1.676 1.242,-3.902 2.816,-5.456c0.968,-0.957 9.353,-6.556 11.377,-7.24c1.107,-0.374 1.789,0.14 2.031,0.43c3.833,4.594 3.625,8.513 3.305,11.18c-0.064,0.535 -0.134,1.011 -0.166,1.423c-0.008,0.116 -0.007,0.266 -0.005,0.375Zm10.974,43.621c2.096,-1.171 7.238,-4.655 9.817,-6.391c-0.187,-0.166 -0.365,-0.328 -0.497,-0.46c-0.372,-0.37 -0.643,-0.756 -0.785,-1.106c-0.511,-1.264 -0.505,-2.539 -0.442,-3.822c0.043,-0.877 0.134,-1.759 -0.172,-2.633c-0.089,-0.253 -0.309,-0.441 -0.555,-0.631c-0.419,-0.322 -0.938,-0.594 -1.476,-0.849c-1.37,-0.65 -2.847,-1.202 -3.693,-1.819c-3.877,-2.828 -5.92,-6.968 -9.022,-10.477c-2.157,-2.441 -2.573,-5.278 -3.069,-7.93c-0.369,-1.978 -0.755,-3.852 -2.81,-5.043c-1.018,-0.59 -1.411,-1.723 -1.214,-3.5c0.217,-1.963 0.999,-5.229 -1.84,-9.174c-2.053,1.251 -8.91,5.449 -9.65,6.18c-0.74,0.731 -1.411,1.658 -1.73,2.524c0.089,0.063 0.178,0.132 0.267,0.205c0.935,0.766 2.022,2.215 3.122,4.069c3.326,5.604 7.051,15.082 8.233,17.751c1.887,4.264 4.438,6.211 6.886,8.612c2.724,2.67 5.37,5.815 7.142,12.47c0.076,0.284 0.483,0.79 0.883,1.292c0.207,0.261 0.416,0.52 0.605,0.732Z"/><path d="M100.681,61.307c0.035,0.121 0.06,0.27 0.059,0.451c0,0.004 0,0.009 0,0.015c0.004,2.404 -2.729,20.342 5.38,39.372c4.273,10.028 6.385,20.735 6.512,24.893c0.036,1.199 -0.144,2.009 -0.338,2.37c-0.075,0.139 -0.158,0.258 -0.248,0.359c-0.286,0.439 -0.775,0.933 -1.436,1.381c-1.369,0.929 -3.538,1.888 -4.265,2.248c-0.772,0.382 -1.626,0.455 -2.542,0.213c-0.998,-0.263 -2.115,-0.952 -3.236,-2.001c-3.702,-3.466 -7.767,-11.074 -8.798,-15.827c-7.405,-34.149 3.737,-51.723 6.028,-53.946c0.739,-0.716 1.447,-0.678 1.703,-0.626c0.347,0.072 0.627,0.241 0.847,0.491c0.135,0.152 0.262,0.348 0.334,0.607Zm8.034,66.486c-2.061,-1.91 -7.197,-8.431 -11.213,-28.186c-1.74,-8.557 -0.856,-24.136 -0.218,-32.442c-3.469,7.141 -7.859,22.65 -2.583,46.981c0.929,4.283 4.579,11.148 7.916,14.271c0.598,0.56 1.172,0.993 1.72,1.213c0.248,0.1 0.474,0.178 0.677,0.078c0.579,-0.287 2.148,-0.975 3.385,-1.71c0.101,-0.06 0.209,-0.131 0.316,-0.205Zm-9.148,-36.995c0.133,3.065 0.405,5.9 0.875,8.212c3.204,15.761 6.753,22.261 9.062,25.144c-0.545,-4.701 -2.595,-13.506 -6.144,-21.833c-1.673,-3.927 -2.9,-7.808 -3.793,-11.523Z"/></g><path d="M301.471,352.052l-163.966,-249.733l-4.683,2.883l163.828,250.022c1.728,0.952 4.552,-0.838 4.821,-3.172Z" style="fill:none;stroke:#000;stroke-width:3px;"/><path d="M295.14,353.282c-6.057,4.62 -9.523,9.811 -7.921,12.246c1.815,2.759 9.789,1.273 17.384,-3.724c7.595,-4.997 11.954,-11.625 10.139,-14.385c-1.602,-2.434 -7.741,-1.306 -14.381,2.428" style="fill:none;stroke:#000;stroke-width:3px;"/><path d="M313.693,348.39c0.822,-0.097 1.569,0.491 1.666,1.313c0.098,0.822 -0.49,1.569 -1.312,1.666c-1.017,0.121 -8.728,1.904 -11.907,2.35c-0.82,0.116 -1.579,-0.456 -1.694,-1.276c-0.115,-0.82 0.457,-1.579 1.277,-1.694c3.195,-0.45 10.947,-2.237 11.97,-2.359Z"/><path d="M310.143,356.363c0.764,0.32 1.124,1.2 0.803,1.964c-0.32,0.763 -1.2,1.123 -1.963,0.803c-0.758,-0.318 -1.476,-0.667 -2.216,-1c-2.118,-0.952 -4.13,-2.002 -6.448,-2.792c-0.783,-0.267 -1.203,-1.12 -0.935,-1.904c0.267,-0.783 1.12,-1.203 1.903,-0.936c2.411,0.822 4.507,1.906 6.711,2.896c0.716,0.322 1.411,0.661 2.145,0.969Z"/><path d="M299.059,365.101c-0.241,0.792 -1.079,1.239 -1.871,0.999c-0.792,-0.241 -1.24,-1.08 -0.999,-1.872c0.049,-0.162 0.016,-0.374 0.002,-0.587c-0.029,-0.441 -0.081,-0.886 -0.082,-1.234c-0.004,-1.817 -0.047,-3.633 -0.056,-5.45c-0.004,-0.828 0.665,-1.503 1.493,-1.507c0.828,-0.005 1.503,0.664 1.507,1.492c0.009,1.819 0.052,3.638 0.056,5.457c0.002,0.768 0.176,1.96 -0.05,2.702Z"/><path d="M295.805,354.509c0.581,-0.589 1.532,-0.596 2.121,-0.014c0.589,0.581 0.596,1.532 0.014,2.121c-3.158,3.201 -6.279,6.785 -9.037,9.72c-0.566,0.604 -1.516,0.633 -2.12,0.067c-0.603,-0.567 -0.633,-1.517 -0.066,-2.121c2.773,-2.951 5.912,-6.554 9.088,-9.773Z"/></g></g></svg>